<svg width="84" height="84" viewBox="0 0 84 84" fill="none" xmlns="http://www.w3.org/2000/svg">
<path d="M16.0277 57.6193C6.6822 43.4962 9.77121 28.1109 23.292 18.4293C24.0801 17.865 24.8517 17.2672 25.6015 16.6529C40.0312 4.83095 57.7205 10.9551 67.095 25.1219C76.711 39.6538 75.9629 54.5444 61.4309 64.1605C46.899 73.7765 25.6438 72.1512 16.0277 57.6193Z" fill="#F8F6E9"/>
<path fill-rule="evenodd" clip-rule="evenodd" d="M47.6275 35.3136C48.018 35.7041 48.018 36.3372 47.6275 36.7278L37.728 46.6273C37.3375 47.0178 36.7043 47.0178 36.3138 46.6273C35.9233 46.2367 35.9233 45.6036 36.3138 45.213L46.2133 35.3136C46.6038 34.923 47.237 34.923 47.6275 35.3136Z" fill="#083645"/>
<path fill-rule="evenodd" clip-rule="evenodd" d="M36.3139 35.3136C36.7044 34.923 37.3376 34.923 37.7281 35.3136L47.6276 45.213C48.0181 45.6036 48.0181 46.2367 47.6276 46.6273C47.2371 47.0178 46.6039 47.0178 46.2134 46.6273L36.3139 36.7278C35.9234 36.3372 35.9234 35.7041 36.3139 35.3136Z" fill="#083645"/>
</svg>
