<svg width="23" height="22" viewBox="0 0 23 22" fill="none" xmlns="http://www.w3.org/2000/svg">
<path fill-rule="evenodd" clip-rule="evenodd" d="M11.5958 0.578664C11.9567 0.295897 12.4637 0.294803 12.8259 0.576012L22.6131 8.17601C23.0493 8.51474 23.1283 9.14295 22.7896 9.57917C22.4509 10.0154 21.8227 10.0944 21.3865 9.75568L12.2153 2.63406L7.6165 6.23701C7.18176 6.57762 6.55321 6.5013 6.2126 6.06655C5.87199 5.6318 5.94831 5.00326 6.38306 4.66265L11.5958 0.578664Z" fill="#5DCBEE"/>
<path fill-rule="evenodd" clip-rule="evenodd" d="M20.9998 10.9659C20.4475 10.9659 19.9998 11.4137 19.9998 11.9659V19.6342H4.99978V16.2219C4.99978 15.6696 4.55206 15.2219 3.99978 15.2219C3.4475 15.2219 2.99978 15.6696 2.99978 16.2219V20.6342C2.99978 21.1865 3.4475 21.6342 3.99978 21.6342H20.9998C21.5521 21.6342 21.9998 21.1865 21.9998 20.6342V11.9659C21.9998 11.4137 21.5521 10.9659 20.9998 10.9659Z" fill="#5DCBEE"/>
<path d="M5.0071 7.70724C5.37848 7.373 5.37848 6.79067 5.00711 6.45643C4.68712 6.16843 4.20135 6.16842 3.88136 6.45642L0.825665 9.20653C0.384283 9.60378 0.384283 10.2959 0.825665 10.6931L3.88136 13.4432C4.20135 13.7312 4.68712 13.7312 5.00711 13.4432C5.37848 13.109 5.37848 12.5267 5.00711 12.1924L3.40424 10.7498H11.1998C11.6416 10.7498 11.9998 10.3916 11.9998 9.94983C11.9998 9.50801 11.6416 9.14984 11.1998 9.14984H3.40424L5.0071 7.70724Z" fill="#5DCBEE"/>
</svg>
