<svg width="24" height="16" viewBox="0 0 24 16" fill="none" xmlns="http://www.w3.org/2000/svg">
<path fill-rule="evenodd" clip-rule="evenodd" d="M23.7041 8C23.7041 7.44772 23.2564 7 22.7041 7L1.85903 7C1.30674 7 0.859028 7.44771 0.859028 8C0.859028 8.55228 1.30674 9 1.85903 9L22.7041 9C23.2564 9 23.7041 8.55228 23.7041 8Z" fill="#083645"/>
<path fill-rule="evenodd" clip-rule="evenodd" d="M8.76375 14.9043C9.15427 14.5138 9.15427 13.8806 8.76375 13.4901L3.27367 8.00002L8.76375 2.50994C9.15427 2.11942 9.15427 1.48626 8.76375 1.09573C8.37322 0.705207 7.74006 0.705207 7.34953 1.09573L1.15235 7.29291C0.964809 7.48045 0.859452 7.7348 0.859452 8.00002C0.859452 8.26524 0.964809 8.51959 1.15235 8.70713L7.34953 14.9043C7.74006 15.2948 8.37322 15.2948 8.76375 14.9043Z" fill="#083645"/>
</svg>
