<svg width="20" height="20" viewBox="0 0 20 20" fill="none" xmlns="http://www.w3.org/2000/svg">
<g clip-path="url(#clip0)">
<path fill-rule="evenodd" clip-rule="evenodd" d="M19.1668 2.5C19.6271 2.5 20.0002 2.8731 20.0002 3.33333V8.33333C20.0002 8.79357 19.6271 9.16667 19.1668 9.16667H14.1668C13.7066 9.16667 13.3335 8.79357 13.3335 8.33333C13.3335 7.8731 13.7066 7.5 14.1668 7.5H18.3335V3.33333C18.3335 2.8731 18.7066 2.5 19.1668 2.5Z" fill="#083645"/>
<path fill-rule="evenodd" clip-rule="evenodd" d="M10.9395 3.40108C9.50837 3.19809 8.05003 3.46573 6.78424 4.16367C5.51845 4.86161 4.51379 5.95205 3.92165 7.27066C3.32952 8.58926 3.18198 10.0646 3.50128 11.4743C3.82059 12.8841 4.58943 14.1519 5.69194 15.0867C6.79446 16.0214 8.17093 16.5725 9.61392 16.657C11.0569 16.7414 12.4882 16.3545 13.6922 15.5547C14.8962 14.7548 15.8077 13.5854 16.2892 12.2225C16.4425 11.7885 16.9185 11.561 17.3525 11.7143C17.7864 11.8676 18.014 12.3437 17.8606 12.7777C17.2588 14.4813 16.1195 15.9431 14.6145 16.9429C13.1095 17.9427 11.3203 18.4263 9.51658 18.3208C7.71284 18.2153 5.99226 17.5264 4.61411 16.3579C3.23597 15.1894 2.27492 13.6047 1.87579 11.8425C1.47666 10.0803 1.66108 8.23616 2.40125 6.5879C3.14142 4.93964 4.39725 3.5766 5.97948 2.70417C7.56172 1.83174 9.38465 1.49719 11.1736 1.75093C12.9582 2.00407 14.6125 2.82901 15.8885 4.10183L19.7379 7.72671C20.0729 8.04223 20.0888 8.56963 19.7732 8.90469C19.4577 9.23975 18.9303 9.25559 18.5953 8.94007L14.7369 5.30673C14.7308 5.30096 14.7248 5.29508 14.7188 5.28912C13.697 4.26671 12.3706 3.60408 10.9395 3.40108Z" fill="#083645"/>
</g>
<defs>
<clipPath id="clip0">
<rect width="20" height="20" fill="white"/>
</clipPath>
</defs>
</svg>
