<svg width="1680" height="1757" viewBox="0 0 1680 1757" fill="none" xmlns="http://www.w3.org/2000/svg">
<path d="M1800 56.5547V1681C1800 1681 1509.21 1741.65 1320 1753.5C996.044 1773.8 816.369 1693.02 492 1681C253.163 1672.15 -120 1681 -120 1681V56.5547C-120 56.5547 101.714 0 360 0C737.194 0 942.806 104.15 1320 104.15C1584.57 104.15 1800 56.5547 1800 56.5547Z" fill="url(#paint0_linear)"/>
<mask id="mask0" mask-type="alpha" maskUnits="userSpaceOnUse" x="-120" y="0" width="1921" height="1757">
<path d="M1800 56.5548V1681C1800 1681 1509.21 1741.65 1320 1753.5C996.044 1773.8 816.369 1693.02 492 1681C253.163 1672.15 -120 1681 -120 1681V56.5548C-120 56.5548 101.714 0.00012207 360 0.00012207C737.194 0.00012207 942.806 104.15 1320 104.15C1584.57 104.15 1800 56.5548 1800 56.5548Z" fill="url(#paint1_linear)"/>
</mask>
<g mask="url(#mask0)">
<path opacity="0.8" d="M796.671 1611.49C1009.61 1831.4 714.289 2317.25 714.289 2317.25L-292 1695.76C-292 1695.76 186.453 1159.86 413.951 1280.76C520.887 1337.59 457.106 1513.74 561.833 1562.93C635.135 1597.35 739.446 1552.39 796.671 1611.49Z" fill="#FFFBE7"/>
</g>
<path d="M1353.48 613C1322.73 408.371 1782.48 302 1782.48 302V1163C1782.48 1163 1591.97 1149.92 1544.98 1060.5C1507.05 988.341 1575 931.02 1554.98 852C1524.99 733.66 1371.62 733.725 1353.48 613Z" fill="#F3EED4"/>
<defs>
<linearGradient id="paint0_linear" x1="-24.0001" y1="56.8336" x2="1713.41" y2="1689.02" gradientUnits="userSpaceOnUse">
<stop stop-color="#F9F6E8"/>
<stop offset="0.494792" stop-color="#F5F1DA"/>
<stop offset="1" stop-color="#F9F6E9"/>
</linearGradient>
<linearGradient id="paint1_linear" x1="-24.0001" y1="56.8337" x2="1713.41" y2="1689.02" gradientUnits="userSpaceOnUse">
<stop stop-color="#F9F6E8"/>
<stop offset="0.494792" stop-color="#F5F1DA"/>
<stop offset="1" stop-color="#F9F6E9"/>
</linearGradient>
</defs>
</svg>
