<svg width="1680" height="1606" viewBox="0 0 1680 1606" fill="none" xmlns="http://www.w3.org/2000/svg">
<path d="M-120 1605.5H1800V56.5547C1800 56.5547 1578.29 0 1320 0C942.806 0 737.194 104.15 360 104.15C95.4285 104.15 -120 56.5547 -120 56.5547V1605.5Z" fill="url(#paint0_linear)"/>
<mask id="mask0" mask-type="alpha" maskUnits="userSpaceOnUse" x="-120" y="0" width="1921" height="1361">
<path d="M-120 1360.5H1800V56.5547C1800 56.5547 1578.29 0 1320 0C942.806 0 737.194 104.15 360 104.15C95.4285 104.15 -120 56.5547 -120 56.5547V1360.5Z" fill="url(#paint1_linear)"/>
</mask>
<g mask="url(#mask0)">
<g opacity="0.6" filter="url(#filter0_f)">
<path d="M1311.76 249.379C1262.3 101.853 1085.1 85.0478 1181 52.8923C1276.9 20.7367 1639.63 -144.443 1689.09 3.08172C1738.56 150.607 1712.08 252.805 1616.18 284.96C1520.28 317.116 1361.23 396.904 1311.76 249.379Z" fill="#34C2EF"/>
</g>
<g opacity="0.5" filter="url(#filter1_f)">
<path d="M1594 793.569C1548.09 656.638 1383.62 641.04 1472.63 611.194C1561.64 581.347 1898.32 428.03 1944.23 564.96C1990.15 701.89 1965.56 796.749 1876.55 826.595C1787.54 856.441 1639.91 930.499 1594 793.569Z" fill="white"/>
</g>
<g opacity="0.5" filter="url(#filter2_f)">
<path d="M-199 956.569C-244.914 819.639 -409.383 804.04 -320.373 774.194C-231.363 744.347 105.319 591.03 151.234 727.96C197.148 864.89 172.564 959.749 83.5538 989.595C-5.45661 1019.44 -153.086 1093.5 -199 956.569Z" fill="white"/>
</g>
</g>
<defs>
<filter id="filter0_f" x="964" y="-294" width="987.163" height="882.627" filterUnits="userSpaceOnUse" color-interpolation-filters="sRGB">
<feFlood flood-opacity="0" result="BackgroundImageFix"/>
<feBlend mode="normal" in="SourceGraphic" in2="BackgroundImageFix" result="shape"/>
<feGaussianBlur stdDeviation="92" result="effect1_foregroundBlur"/>
</filter>
<filter id="filter1_f" x="1258" y="276" width="942.696" height="845.667" filterUnits="userSpaceOnUse" color-interpolation-filters="sRGB">
<feFlood flood-opacity="0" result="BackgroundImageFix"/>
<feBlend mode="normal" in="SourceGraphic" in2="BackgroundImageFix" result="shape"/>
<feGaussianBlur stdDeviation="92" result="effect1_foregroundBlur"/>
</filter>
<filter id="filter2_f" x="-535" y="439" width="942.696" height="845.667" filterUnits="userSpaceOnUse" color-interpolation-filters="sRGB">
<feFlood flood-opacity="0" result="BackgroundImageFix"/>
<feBlend mode="normal" in="SourceGraphic" in2="BackgroundImageFix" result="shape"/>
<feGaussianBlur stdDeviation="92" result="effect1_foregroundBlur"/>
</filter>
<linearGradient id="paint0_linear" x1="-120.001" y1="35.9999" x2="1855.91" y2="196.277" gradientUnits="userSpaceOnUse">
<stop stop-color="#5ACAEF"/>
<stop offset="1" stop-color="#A5E9FF"/>
</linearGradient>
<linearGradient id="paint1_linear" x1="-120" y1="36.0001" x2="1855.91" y2="196.278" gradientUnits="userSpaceOnUse">
<stop stop-color="#5ACAEF"/>
<stop offset="1" stop-color="#A5E9FF"/>
</linearGradient>
</defs>
</svg>
