<svg fill="none" height="900" viewBox="0 0 1920 900" width="1920" xmlns="http://www.w3.org/2000/svg" xmlns:xlink="http://www.w3.org/1999/xlink"><filter id="a" color-interpolation-filters="sRGB" filterUnits="userSpaceOnUse" height="770.051" width="939.563" x="-127" y="-399"><feFlood flood-opacity="0" result="BackgroundImageFix"/><feBlend in="SourceGraphic" in2="BackgroundImageFix" mode="normal" result="shape"/><feGaussianBlur result="effect1_foregroundBlur" stdDeviation="92"/></filter><filter id="b" color-interpolation-filters="sRGB" filterUnits="userSpaceOnUse" height="770.051" width="939.563" x="84" y="-494"><feFlood flood-opacity="0" result="BackgroundImageFix"/><feBlend in="SourceGraphic" in2="BackgroundImageFix" mode="normal" result="shape"/><feGaussianBlur result="effect1_foregroundBlur" stdDeviation="92"/></filter><filter id="c" color-interpolation-filters="sRGB" filterUnits="userSpaceOnUse" height="770.051" width="939.563" x="84" y="-494"><feFlood flood-opacity="0" result="BackgroundImageFix"/><feBlend in="SourceGraphic" in2="BackgroundImageFix" mode="normal" result="shape"/><feGaussianBlur result="effect1_foregroundBlur" stdDeviation="92"/></filter><filter id="d" color-interpolation-filters="sRGB" filterUnits="userSpaceOnUse" height="1157.23" width="1322.32" x="810" y="-566.345"><feFlood flood-opacity="0" result="BackgroundImageFix"/><feBlend in="SourceGraphic" in2="BackgroundImageFix" mode="normal" result="shape"/><feGaussianBlur result="effect1_foregroundBlur" stdDeviation="92"/></filter><filter id="e" color-interpolation-filters="sRGB" filterUnits="userSpaceOnUse" height="667" width="682" x="-20" y="398"><feFlood flood-opacity="0" result="BackgroundImageFix"/><feBlend in="SourceGraphic" in2="BackgroundImageFix" mode="normal" result="shape"/><feGaussianBlur result="effect1_foregroundBlur" stdDeviation="92"/></filter><linearGradient id="f" gradientUnits="userSpaceOnUse" x1="0" x2="1797.31" y1="0" y2="1100.39"><stop offset="0" stop-color="#5acaef"/><stop offset="1" stop-color="#a5e9ff"/></linearGradient><clipPath id="g"><path d="m0 0h1920v900h-1920z"/></clipPath><g clip-path="url(#g)"><path d="m0 0h1920v900h-1920z" fill="#fff"/><path d="m0 0h1920v900h-1920z" fill="url(#f)"/><g filter="url(#a)" opacity=".2"><path d="m166.358 12.4162c17.246-144.4212-137.5319-230.9362-36.307-218.8482 101.224 12.087 502.538 21.136 485.293 165.557-17.246 144.421-84.699 219.658-185.923 207.571-101.225-12.088-280.309-9.859-263.063-154.2798z" fill="#229ada"/></g><g filter="url(#b)" opacity=".2"><path d="m377.358-82.5838c17.246-144.4212-137.532-230.9362-36.307-218.8482 101.224 12.087 502.538 21.136 485.293 165.557-17.246 144.42129-84.699 219.6582-185.923 207.5708-101.225-12.0874-280.309-9.8583-263.063-154.2796z" fill="#229ada"/></g><g filter="url(#c)" opacity=".2"><path d="m377.358-82.5838c17.246-144.4212-137.532-230.9362-36.307-218.8482 101.224 12.087 502.538 21.136 485.293 165.557-17.246 144.42129-84.699 219.6582-185.923 207.5708-101.225-12.0874-280.309-9.8583-263.063-154.2796z" fill="#229ada"/></g><g filter="url(#d)" opacity=".3"><path d="m1199.83-18.7451c82.83-206.6849-111.67-396.0389 33.2-337.9859 144.86 58.053 734.62 230.735 651.8 437.4203-82.83 206.6847-212.43 291.1487-357.29 233.0957-144.87-58.053-410.53-125.845-327.71-332.5301z" fill="#229ada"/></g><g filter="url(#e)" opacity=".3"><path d="m470.921 684.348c0 117.537 37.077 196.652-58.476 196.652s-248.445-79.115-248.445-196.652 45.06-101.626 140.613-101.626 166.308-15.911 166.308 101.626z" fill="#f1efd6"/></g></g></svg>