<svg width="60" height="40" viewBox="0 0 60 40" fill="none" xmlns="http://www.w3.org/2000/svg">
<path d="M8.6875 2.90619C10.2073 1.30329 11.8257 0 14 0C15.219 0.0135 16.2299 1.35589 15.9062 2.53119C14.8456 6.19859 14.035 9.5307 13.4062 13H17C22.5717 13 27 17.4486 27 22.9689V29.875C27 35.3953 22.6135 40 17 40H10C4.3864 40 0 35.3952 0 29.875V22.5625C0 18.5673 1.9414 13.4198 4.4688 8.875C5.7323 6.6026 7.1677 4.50919 8.6875 2.90619Z" fill="#5DCBEE"/>
<path d="M41.6875 2.90619C43.2073 1.30329 44.8257 0 47 0C48.219 0.0135 49.2299 1.35589 48.9062 2.53119C47.8456 6.19859 47.035 9.5307 46.4062 13H50C55.5717 13 60 17.4486 60 22.9689V29.875C60 35.3953 55.6135 40 50 40H43C37.3864 40 33 35.3952 33 29.875V22.5625C33 18.5673 34.9414 13.4198 37.4688 8.875C38.7323 6.6026 40.1677 4.50919 41.6875 2.90619Z" fill="#5DCBEE"/>
</svg>
