<svg width="123" height="83" viewBox="0 0 123 83" fill="none" xmlns="http://www.w3.org/2000/svg">
<path d="M20.5 0.666626C8.99232 0.666626 0 10.0423 0 21.3588V35.5166C0 46.8332 9.07801 56.0166 20.5 56.0166H27.8673C26.5789 63.1058 24.9104 69.9171 22.7423 77.4135C22.0318 79.8389 24.1228 82.6498 26.65 82.6666C31.1073 82.6666 34.425 79.9309 37.5406 76.6448C40.6562 73.3586 43.5988 69.1313 46.189 64.4729C51.3701 55.1559 55.35 44.5397 55.35 36.3494C55.35 31.3526 55.35 26.3557 55.35 21.3588C55.35 10.0424 46.3579 0.666626 34.85 0.666626H20.5ZM88.15 0.666626C76.6423 0.666626 67.65 10.0423 67.65 21.3588V35.5166C67.65 46.8332 76.728 56.0166 88.15 56.0166H95.5173C94.2289 63.1058 92.5604 69.9171 90.3923 77.4135C89.6818 79.8389 91.7728 82.6498 94.3 82.6666C98.7573 82.6666 102.075 79.9309 105.191 76.6448C108.306 73.3586 111.249 69.1313 113.839 64.4729C119.02 55.1559 123 44.5397 123 36.3494C123 31.3526 123 26.3557 123 21.3588C123 10.0424 114.008 0.666626 102.5 0.666626H88.15Z" fill="#F1EFD6"/>
</svg>
