<svg width="1680" height="1606" viewBox="0 0 1680 1606" fill="none" xmlns="http://www.w3.org/2000/svg">
<path d="M1800 1605.5H-120V56.5547C-120 56.5547 101.714 0 360 0C737.194 0 942.806 104.15 1320 104.15C1584.57 104.15 1800 56.5547 1800 56.5547V1605.5Z" fill="url(#paint0_linear)"/>
<mask id="mask0" mask-type="alpha" maskUnits="userSpaceOnUse" x="-120" y="0" width="1921" height="1361">
<path d="M1800 1360.5H-120V56.5547C-120 56.5547 101.714 0 360 0C737.194 0 942.806 104.15 1320 104.15C1584.57 104.15 1800 56.5547 1800 56.5547V1360.5Z" fill="url(#paint1_linear)"/>
</mask>
<g mask="url(#mask0)">
<g opacity="0.6" filter="url(#filter0_f)">
<path d="M368.239 249.379C417.706 101.853 594.901 85.0478 499.003 52.8923C403.106 20.7367 40.3732 -144.443 -9.09359 3.08172C-58.5604 150.607 -32.0748 252.805 63.8228 284.96C159.72 317.116 318.772 396.904 368.239 249.379Z" fill="#34C2EF"/>
</g>
<g opacity="0.5" filter="url(#filter1_f)">
<path d="M85.9997 793.569C131.914 656.638 296.383 641.04 207.373 611.194C118.363 581.347 -218.319 428.03 -264.234 564.96C-310.148 701.89 -285.564 796.749 -196.554 826.595C-107.543 856.441 40.0856 930.499 85.9997 793.569Z" fill="white"/>
</g>
<g opacity="0.5" filter="url(#filter2_f)">
<path d="M1879 956.569C1924.91 819.639 2089.38 804.04 2000.37 774.194C1911.36 744.347 1574.68 591.03 1528.77 727.96C1482.85 864.89 1507.44 959.749 1596.45 989.595C1685.46 1019.44 1833.09 1093.5 1879 956.569Z" fill="white"/>
</g>
</g>
<defs>
<filter id="filter0_f" x="-217.486" y="-241.295" width="928.493" height="760.808" filterUnits="userSpaceOnUse" color-interpolation-filters="sRGB">
<feFlood flood-opacity="0" result="BackgroundImageFix"/>
<feBlend mode="normal" in="SourceGraphic" in2="BackgroundImageFix" result="shape"/>
<feGaussianBlur stdDeviation="92" result="effect1_foregroundBlur"/>
</filter>
<filter id="filter1_f" x="-470.875" y="324.92" width="888.239" height="732.597" filterUnits="userSpaceOnUse" color-interpolation-filters="sRGB">
<feFlood flood-opacity="0" result="BackgroundImageFix"/>
<feBlend mode="normal" in="SourceGraphic" in2="BackgroundImageFix" result="shape"/>
<feGaussianBlur stdDeviation="92" result="effect1_foregroundBlur"/>
</filter>
<filter id="filter2_f" x="1322.12" y="487.92" width="888.239" height="732.597" filterUnits="userSpaceOnUse" color-interpolation-filters="sRGB">
<feFlood flood-opacity="0" result="BackgroundImageFix"/>
<feBlend mode="normal" in="SourceGraphic" in2="BackgroundImageFix" result="shape"/>
<feGaussianBlur stdDeviation="92" result="effect1_foregroundBlur"/>
</filter>
<linearGradient id="paint0_linear" x1="1800" y1="35.9999" x2="-175.906" y2="196.277" gradientUnits="userSpaceOnUse">
<stop stop-color="#5ACAEF"/>
<stop offset="1" stop-color="#A5E9FF"/>
</linearGradient>
<linearGradient id="paint1_linear" x1="1800" y1="36.0001" x2="-175.907" y2="196.278" gradientUnits="userSpaceOnUse">
<stop stop-color="#5ACAEF"/>
<stop offset="1" stop-color="#A5E9FF"/>
</linearGradient>
</defs>
</svg>
