<svg width="68" height="37" viewBox="0 0 68 37" fill="none" xmlns="http://www.w3.org/2000/svg">
<path d="M63.4088 5.53981C60.2839 1.96744 55.8771 0 51 0C45.8119 0 41.7304 2.60239 38.6706 5.8077C37.8094 6.70994 37.8609 8.25799 38.4797 9.34094C39.3051 10.7852 41.3163 10.7684 42.4624 9.56278C44.6997 7.2092 47.5534 5.36232 51 5.36232C57.7722 5.36232 62.6875 10.8875 62.6875 18.5C62.6875 26.1125 57.7722 31.6377 51 31.6377C41.3186 31.6377 36.5645 17.7849 36.5189 17.6489L36.5058 17.6104C36.2553 16.8913 30.2178 0 17 0C12.1229 0 7.71614 1.96744 4.5912 5.53981C1.63054 8.92451 0 13.5273 0 18.5C0 23.4727 1.63054 28.0755 4.5912 31.4602C7.71614 35.0326 12.1229 37 17 37C22.2218 37 26.287 34.4716 29.3236 31.3275C30.1884 30.4321 30.143 28.8924 29.5284 27.8097C28.7064 26.3618 26.6831 26.3651 25.5263 27.5625C23.3115 29.8552 20.4728 31.6377 17 31.6377C10.2278 31.6377 5.3125 26.1125 5.3125 18.5C5.3125 10.8875 10.2278 5.36232 17 5.36232C26.3438 5.36232 31.3315 18.9377 31.4906 19.3796C31.8435 20.4295 37.633 37 51 37C55.8771 37 60.2839 35.0326 63.4088 31.4602C66.3695 28.0755 68 23.4727 68 18.5C68 13.5273 66.3695 8.92451 63.4088 5.53981Z" fill="#083645"/>
</svg>
