<svg width="164" height="117" viewBox="0 0 164 117" fill="none" xmlns="http://www.w3.org/2000/svg">
<path d="M127.461 58.517C127.597 90.9536 102.248 116.862 70.5538 116.999C39.0639 117.171 13.4762 91.5034 13.3397 59.0668C13.1691 26.5958 38.5521 0.137981 69.9738 0.000537945C101.703 -0.136905 127.29 26.0804 127.461 58.517Z" fill="#A2600B"/>
<path d="M125.073 58.5171C125.209 89.4762 101.02 114.456 70.5198 114.594C40.2581 114.731 15.8304 89.9916 15.6939 59.0325C15.5575 27.8328 39.7464 2.57764 70.0081 2.40584C100.509 2.26839 124.936 27.3174 125.073 58.5171Z" fill="white"/>
<path d="M123.708 58.5513C123.844 88.5827 100.201 112.979 70.5194 113.116C41.0765 113.219 17.1947 89.0638 17.0582 59.0324C16.9217 28.7261 40.5648 4.08944 70.0077 3.95199C99.6894 3.81455 123.571 28.2107 123.708 58.5513Z" fill="#DC1C26"/>
<path d="M41.6227 58.7919C41.5544 42.4705 54.4506 29.1729 70.1103 29.1042C86.0429 29.0354 99.0756 42.23 99.1438 58.5514C99.212 74.5635 86.3158 87.8955 70.3832 87.9643C54.7236 87.9986 41.6909 74.8041 41.6227 58.7919ZM38.1086 58.7919C38.1769 76.7283 52.8471 91.6065 70.4174 91.5034C88.2264 91.4347 102.76 76.419 102.658 58.4827C102.59 40.2371 87.9193 25.3932 70.1103 25.4619C52.5401 25.565 38.0404 40.5807 38.1086 58.7919Z" fill="#A2600B"/>
<path d="M99.5531 58.6544C99.6213 74.9414 86.4522 88.2734 70.2466 88.3422C54.3141 88.4109 41.2814 75.2163 41.2132 58.9293C41.1449 42.333 54.0411 28.7605 69.9737 28.6917C86.1792 28.5887 99.4848 42.0581 99.5531 58.6544Z" fill="white"/>
<path d="M130.839 85.5933C128.723 85.5933 127.12 86.0056 125.96 86.3492C126.062 86.4866 126.199 86.5897 126.335 86.7272C126.335 86.7615 126.369 86.7615 126.369 86.7615C128.894 89.3386 131.009 91.7095 134.353 94.3209C137.116 96.0733 142.029 96.4513 146.225 96.4513C148.238 96.4513 150.081 96.3482 151.445 96.2451C151.514 96.2451 151.582 96.2451 151.65 96.2451C151.821 96.2451 151.991 96.2108 152.162 96.2108C142.507 87.4831 135.513 85.5933 130.839 85.5933Z" fill="#54A75C"/>
<path d="M100.611 79.6833C99.6213 79.6833 98.7683 79.7864 98.1201 79.8895C98.2225 80.0269 98.3248 80.1644 98.4272 80.3018C98.4272 80.3362 98.4613 80.3362 98.4613 80.3705C100.474 83.2569 102.112 86.1432 105.182 89.5449C108.765 92.3968 117.84 93.0153 122.036 93.0497C122.104 93.0497 122.138 93.0497 122.207 93.0497C122.377 93.0497 122.582 93.0497 122.718 93.0497C112.722 81.5044 105.114 79.649 100.611 79.6833Z" fill="#54A75C"/>
<path d="M114.053 83.3599C114.223 83.3942 114.394 83.4286 114.564 83.4629H114.599C116.475 83.7722 118.488 84.0471 120.774 84.0471C122.241 84.0471 123.844 83.9096 125.618 83.6004C129.917 82.8101 137.355 75.6287 140.425 72.4675C140.493 72.3988 140.527 72.3644 140.596 72.2957C140.732 72.1582 140.835 72.0208 140.971 71.9177C122.65 72.2957 116.202 79.7863 114.053 83.3599Z" fill="#54A75C"/>
<path d="M97.3018 79.8552C97.4723 79.8895 97.6429 79.8895 97.8135 79.9239C97.8135 79.9239 97.8476 79.9239 97.8817 79.9239C99.8946 80.2331 101.873 80.508 104.125 80.508C105.558 80.508 107.127 80.3706 108.902 80.0613C113.507 79.271 121.013 72.4676 124.049 68.9284C124.084 68.8941 124.118 68.8254 124.152 68.791C124.288 68.6535 124.391 68.5161 124.493 68.3787C105.899 68.791 99.1782 76.8314 97.3018 79.8552Z" fill="#54A75C"/>
<path d="M126.608 86.4523C122.412 86.4523 117.84 85.6963 112.996 84.1501C105.865 81.6074 98.2913 80.336 90.5809 80.336C76.6611 80.336 66.5967 84.5281 65.7437 84.906L64.9932 83.6347C65.9143 83.2223 75.8082 78.9272 90.3761 78.9272C98.4277 78.9272 106.377 80.2673 114.019 82.9131C118.523 84.3906 122.821 85.1122 126.779 85.1122C134.455 85.1122 138.481 82.2946 138.89 81.9854L140.119 82.7413C139.573 83.188 135.308 86.4523 126.608 86.4523Z" fill="#A2600B"/>
<path d="M90.376 78.9961C98.4275 78.9961 106.377 80.3362 114.019 82.982C118.522 84.4595 122.821 85.1811 126.779 85.1811C131.009 85.1811 134.114 84.322 135.956 83.6005C137.662 82.9132 138.651 82.2604 138.924 82.0542L140.016 82.7414C139.231 83.3599 134.967 86.3837 126.608 86.3837C122.412 86.3837 117.84 85.6277 113.03 84.0815C105.865 81.5388 98.3252 80.2674 90.5807 80.2674C76.9339 80.2674 66.9376 84.322 65.7777 84.8031L65.0953 83.6692C66.3577 83.1194 76.1492 78.9961 90.376 78.9961ZM90.376 78.8586C75.4669 78.8586 65.2659 83.4286 64.8906 83.6005L65.7094 84.9749C65.7094 84.9749 75.9445 80.4049 90.5465 80.4049C97.2676 80.4049 104.944 81.367 112.961 84.219C118.318 85.9026 122.855 86.5211 126.608 86.5211C135.479 86.5211 139.88 83.085 140.255 82.7071L138.89 81.8824C138.89 81.8824 134.933 85.0092 126.779 85.0092C123.299 85.0092 119.068 84.4251 114.053 82.8102C105.49 79.8551 97.404 78.8586 90.376 78.8586Z" fill="#A2600B"/>
<path d="M159.974 75.0447C144.417 75.1134 139.027 81.0235 137.56 83.8411C137.73 83.8754 137.901 83.8754 138.071 83.9098H138.105C140.767 84.3221 143.325 84.7001 146.635 84.7001C147.419 84.7001 148.272 84.6657 149.159 84.6314C153.731 84.3565 160.93 78.6526 163.557 75.6632C163.591 75.6288 163.625 75.5945 163.659 75.5601C163.795 75.4226 163.898 75.2852 164 75.1478C162.601 75.0447 161.237 75.0447 159.974 75.0447Z" fill="#54A75C"/>
<path d="M81.3006 56.6616V55.562C82.3923 56.1118 83.1088 56.5241 84.4394 56.5241C84.9852 56.5241 85.3264 56.4211 85.6334 56.3523C86.9981 56.0774 88.6016 54.9435 90.2051 53.5691C91.0239 53.844 91.9792 54.0845 93.0709 54.0845C94.7085 54.0845 96.6873 53.5347 98.5638 52.4352C98.9732 52.7444 99.1096 52.8475 99.2802 52.8819C100.099 53.1224 100.406 53.1911 101.123 53.1911C102.624 53.1911 103.75 52.5726 103.988 52.4352C105.046 51.7823 106.274 51.0264 107.229 50.2017C108.287 51.0608 109.311 51.4044 110.436 51.4044C110.778 51.4044 111.153 51.37 111.562 51.3013C113.985 51.0264 115.861 49.6176 116.953 47.9683C117.499 49.1022 119.409 49.6176 121.183 49.5833C125.073 49.4802 128.621 45.7348 131.555 43.0203C135.99 45.6318 139.333 41.6459 139.333 38.2098C139.333 34.5676 137.082 32.5403 133.397 32.5403C131.998 32.5403 130.838 32.8495 127.87 34.5332L130.054 25.084C130.054 25.084 115.486 28.2795 112.313 30.0663C111.767 30.3412 110.982 30.891 110.436 31.4407C110.607 30.9253 111.119 29.0011 111.46 27.6954C111.46 27.6267 111.494 27.558 111.528 27.4892C111.699 26.8707 111.801 26.4584 111.801 26.4584L101.566 30.1007C101.566 30.1007 101.566 30.3756 101.566 30.6504C100.235 30.9253 98.5638 31.3033 97.2673 31.7843C95.0497 32.609 93.4803 34.2927 91.8768 35.942C91.6721 35.5984 91.4333 35.0486 91.058 34.5676C90.3757 33.6055 88.8745 32.609 86.4523 32.9183C85.3605 33.0557 83.757 34.0178 82.1535 35.1517C81.5394 34.7394 80.823 34.4989 80.0383 34.4989C79.7653 34.4989 79.4583 34.5332 79.1854 34.5676C77.8548 34.7394 76.2172 35.461 74.8866 36.5605C74.8866 36.5605 74.3408 36.32 74.2384 36.2856C72.1573 35.564 69.4962 36.3887 67.5856 37.7288C67.5856 37.7288 66.7668 38.2785 66.2209 38.8283C65.9821 38.5534 65.9821 38.5191 65.6751 38.2785C65.1292 37.8662 64.0033 37.6944 62.6728 37.6944C60.4552 37.6944 57.487 38.4847 54.6212 41.0961C54.3482 41.371 54.0753 41.6459 53.8024 41.9208C54.1435 40.2371 54.28 39.5499 54.28 39.5499C42.6803 42.6424 42.9873 42.5049 42.9873 42.5049L42.7144 43.8794C42.1685 43.3296 41.3497 42.7798 40.0191 42.5049C40.2921 41.9551 40.5309 41.371 40.5309 40.5807C40.6332 37.7975 39.098 35.2891 34.1169 35.1861C33.5028 35.1861 27.3618 35.7358 24.3254 40.3746C23.6089 41.4741 22.9948 43.0547 22.2442 44.4978C22.1419 44.6697 21.9713 44.7384 21.9031 44.8071L22.8583 41.2679C20.709 40.89 19.7878 40.8556 18.3549 40.89C11.8727 40.9243 7.71042 42.8829 4.05991 46.8687C1.26233 49.7894 0 53.1568 0 56.4898C0 58.1391 0.272935 59.5135 1.09174 60.9223C2.2176 62.7434 3.88933 63.8086 5.66341 63.8086C6.03869 63.8086 6.41398 63.7743 6.78927 63.6712C9.21157 62.8122 10.8151 61.1628 10.8151 58.9638C12.1115 60.51 16.2397 60.7505 17.2973 60.3038C17.0243 60.8536 16.5126 60.8536 16.5126 60.8536L14.0903 61.4034L11.4292 72.7424C11.7703 72.5706 18.1502 69.4094 18.1502 69.4094C19.2078 68.8597 20.8454 68.0006 23.8136 68.0006C25.1783 68.0006 26.2359 67.7258 27.0547 67.7258C23.9842 69.3064 23.6089 76.0411 27.9076 77.7935C23.6089 84.1846 21.7325 86.2806 20.9478 87.1053C18.5255 86.2119 14.4656 87.2771 14.8067 92.2594C14.9773 94.6646 16.8196 97.9633 21.289 97.3104C23.1654 97.0356 25.0759 95.9016 26.9524 93.9774C27.43 93.5995 33.264 85.4216 35.004 82.8789C34.7651 85.0436 31.6605 89.3044 30.5005 90.8162C30.8758 90.7819 35.8569 90.4726 38.0062 90.3352C39.3368 90.2321 41.452 89.9229 43.6696 88.6515C44.7273 88.033 49.8789 88.0674 49.8789 88.0674C49.8789 88.0674 49.8789 87.7925 49.8789 87.5176C51.9259 88.6515 54.9965 87.4489 57.4529 85.2841C59.5681 87.0365 62.2292 85.9714 63.901 84.5626C63.901 84.8375 63.901 84.9405 63.901 84.9405C64.2763 84.8718 75.2278 82.6727 75.2278 82.6727C75.2278 82.6727 75.5007 81.0234 75.5007 80.7485C75.6713 80.9203 75.7737 81.0234 75.7737 81.0234C76.6607 81.9168 77.923 82.4666 79.2877 82.4666C79.5606 82.4666 79.8336 82.4322 80.1065 82.3978C80.2771 82.3291 80.4136 82.2948 80.5159 82.2604C80.9253 82.0199 81.9829 81.8481 85.7699 78.5151C85.7699 78.5151 86.5546 79.3741 86.8617 79.6146C87.7828 80.3705 88.7381 80.5424 89.7957 80.5424C90.1369 80.5424 90.5122 80.5424 90.9216 80.4393C91.7745 80.2331 94.1627 78.7556 95.4932 77.656C96.585 78.4807 97.6767 78.7556 98.7343 78.7556H99.0073C100.611 78.4807 102.283 77.5873 103.92 75.9036C104.193 76.1098 104.125 76.0411 104.398 76.2129C105.421 76.8314 106.581 77.1406 107.673 77.1406C108.048 77.1406 108.389 77.1063 108.731 77.0375C109.822 76.7627 111.972 75.6288 113.848 73.7045L114.121 73.9794C114.292 74.1512 114.667 74.4605 114.735 74.4949C115.895 75.2851 117.669 75.2508 117.669 75.2508C118.079 75.2508 118.522 75.1477 118.966 75.079C120.74 74.7354 123.299 72.5706 126.506 69.7874C127.051 69.2376 127.87 68.6879 128.382 68.1037C129.201 68.7222 130.156 69.0315 131.282 69.0315C131.657 69.0315 132.032 68.9971 132.442 68.9284C134.045 68.6535 135.956 66.9698 136.195 64.4958C136.229 64.221 136.229 63.9461 136.229 63.6712C136.229 61.3003 135.069 59.6166 133.192 58.6889C132.271 58.2422 131.452 57.9673 130.531 57.9673C129.985 57.9673 129.44 58.036 128.86 58.1391C127.256 58.414 124.97 59.5135 124.97 59.5135C125.107 59.0668 126.71 50.6828 126.71 50.6828C117.499 52.0916 111.869 54.1189 109.14 55.4933C108.151 56.0087 106.786 56.9708 106.786 56.9708C106.854 56.7647 107.571 53.6722 107.571 53.6722L96.4144 57.555L96.2097 58.6202C95.118 57.5206 93.8897 57.0739 92.5251 57.1083C91.1945 57.1083 89.6934 57.8642 88.6357 58.4483C88.704 58.2078 88.9087 57.5893 88.9087 57.5893C79.0148 59.8571 78.4348 59.9946 78.4007 59.9946C77.8889 61.9875 77.7183 62.3998 77.7183 62.3998L77.4113 62.3311C77.0701 61.9188 75.9101 60.6131 73.8972 60.6474C72.4643 60.8192 71.6114 61.2316 69.5644 62.5373C69.5644 62.5029 69.735 61.5065 69.735 61.5065C61.4104 63.4994 59.0564 64.0492 59.0564 64.0492C59.0564 64.0492 58.8858 64.7364 58.647 66.0077C58.1011 65.458 57.6917 64.2897 55.3717 64.1866C52.7789 64.2553 50.6636 66.3513 50.6636 66.3513C50.9366 64.9769 51.1413 63.1901 51.5848 60.7849C54.1777 63.3276 59.7387 62.1937 62.3657 59.7884C63.1504 59.6166 71.5773 58.2765 71.5773 58.2765C71.6114 58.4827 71.6114 58.3796 71.6114 58.5858C71.3043 58.5858 81.3006 56.6616 81.3006 56.6616ZM64.788 48.4493C64.788 48.7242 64.788 48.9991 64.5151 49.5489C64.5151 48.9991 63.6963 48.1745 63.6963 48.1745L64.2421 47.8996C64.5151 48.1745 64.788 48.4493 64.788 48.4493ZM60.4552 47.8996C61.001 48.1745 61.5469 48.1745 62.0587 48.1745C61.7857 48.1745 60.1822 49.8581 60.1822 49.8581C59.9093 50.133 59.9093 50.133 59.6364 50.4079C59.9434 49.3084 60.1822 48.4493 60.4552 47.8996ZM108.492 39.653H108.219L108.492 39.3781V39.653ZM127.495 35.2891C127.461 35.2891 127.495 35.2891 127.495 35.2891C127.461 35.2891 127.461 35.2891 127.495 35.2891C127.461 35.2891 127.461 35.2891 127.495 35.2891Z" fill="#231F20"/>
<path d="M65.9818 70.5777C66.7664 70.7152 68.4382 71.1275 68.4382 71.1275C67.6194 71.9522 66.5617 73.1891 65.1971 74.4605C65.47 73.3266 65.7429 71.9522 65.9818 70.5777ZM85.1555 66.9011C85.9743 67.176 86.759 67.7258 86.759 67.7258H87.0319C86.2131 68.5504 85.1555 69.6843 84.0637 70.509C84.3708 69.4095 84.6096 68.0007 85.1555 66.9011ZM47.8998 74.5292C48.4457 74.8041 48.7186 75.079 48.9915 75.079C48.9915 75.079 49.5374 75.3539 49.8103 75.3539C49.2645 77.2781 49.0256 79.2366 48.7527 80.3362C48.2751 80.508 48.2068 80.5424 47.661 80.6111C47.661 78.412 47.9339 76.4534 47.8998 74.5292ZM33.8436 70.4746C34.1166 70.4746 34.3895 70.1998 34.9354 69.9249C34.6624 70.4746 34.3895 70.7495 34.1166 71.2993C34.1166 71.0244 33.8436 70.7495 33.8436 70.7495V70.4746ZM40.5647 62.3998C41.1105 61.8501 41.4176 61.5752 41.8952 61.3003C42.134 61.4377 41.8611 61.747 42.3046 61.7126C41.554 62.0906 41.1105 62.125 40.5647 62.3998ZM57.5549 52.9506C57.5549 51.8511 59.1243 47.4873 59.3631 46.6282C59.636 46.3533 59.9431 46.0097 59.9431 46.0097C59.9431 46.0097 60.4889 46.0097 61.0348 46.0097C62.1265 46.5595 63.1842 46.2846 64.003 46.2846L64.5147 46.0097C65.0606 46.5595 65.6065 46.8344 65.6065 46.8344C65.6065 46.8344 66.4253 47.3842 66.6982 47.3842C66.1523 49.0335 65.9135 50.9921 65.3677 52.6414L62.9112 49.3427C61.3077 50.7172 58.6125 53.2255 57.7937 53.5004H57.5208C57.5549 53.5004 57.5549 53.2255 57.5549 52.9506ZM117.669 35.2548C117.942 34.9799 118.488 34.705 118.999 34.705C118.999 34.9799 118.727 35.2548 118.727 35.2548C118.454 35.5297 117.942 35.5297 117.362 35.5297L117.669 35.2548ZM99.2799 39.9279C99.2458 42.3331 97.4717 44.1886 97.4717 44.1886C97.1987 44.4635 96.8576 44.9102 96.5846 44.9102C97.1305 42.2988 97.0964 41.1305 99.2799 39.9279ZM113.029 30.9941C110.88 32.3685 109.31 34.4645 109.344 36.6636C109.344 37.7631 109.754 39.4812 111.357 40.2715C111.357 40.5464 110.436 42.1957 110.436 42.1957C109.89 41.6459 109.208 40.89 108.253 40.8213C107.741 40.7869 106.922 41.1305 106.376 41.4054C106.888 38.3473 109.549 28.6919 109.549 28.6919C105.182 30.1694 103.067 30.8566 103.067 30.8566C102.999 31.0284 102.999 31.0284 102.828 31.4751C101.463 32.0249 99.2799 32.4372 97.7105 33.1588C93.0365 35.3235 90.7165 39.8248 89.9318 42.5737C90.2048 41.1992 90.7165 38.9658 90.7165 38.416C90.7165 37.0416 90.4436 36.2169 89.8977 35.3579C87.1684 33.0214 83.9614 35.3923 82.0508 36.7667C82.0508 36.7667 80.4132 35.6671 79.0826 35.6671C77.718 35.942 76.3874 36.7667 74.511 38.1755C74.511 37.9006 73.1804 37.0416 73.1804 37.0416C70.6899 36.4574 66.937 39.8592 66.1523 40.4089C65.8794 40.134 65.6065 39.8592 65.0606 39.3094C63.9689 38.7596 59.636 38.2098 55.6102 41.8521C53.1879 44.3604 51.3115 47.6591 50.5268 50.4423C50.5268 50.7172 50.2539 50.9921 49.708 51.5418C50.288 48.896 51.8915 41.4398 51.8915 41.4398C46.501 42.9516 44.454 43.6045 44.454 43.6045C44.3858 44.223 42.4411 52.1603 42.4411 52.1603C42.1682 53.2599 41.5199 53.8784 40.9741 54.7374C41.7587 49.8582 42.3046 47.4529 42.3046 46.8688C42.3046 46.319 42.134 45.082 41.5882 44.5322C41.0423 43.9825 39.1659 42.8829 36.4706 44.9102C36.1636 45.1507 34.2871 46.3877 32.9566 47.4873C33.5025 45.8379 34.0824 44.1543 34.3554 43.2952C36.9141 44.7384 38.8929 42.1957 38.8929 40.2715C38.8929 38.0724 37.5283 37.2477 36.4365 36.698C35.0718 36.4231 32.8884 36.4574 32.8884 36.4574C30.1931 37.0072 27.2591 38.6909 25.6556 40.89C24.0521 43.0891 22.7215 46.4221 21.6639 50.8546C20.0945 53.0193 18.2522 51.9542 18.2522 51.9542C18.5251 51.4044 21.0157 42.127 21.0157 42.127C18.6616 41.8521 17.2628 41.9208 14.4311 42.3675C10.6441 42.9516 7.5736 44.8071 5.1513 47.5903C2.729 50.3736 1.67137 53.1224 1.39844 56.1805C1.39844 57.555 1.56902 58.895 2.42194 59.9946C3.51369 61.6439 4.9466 62.2624 6.58421 61.6783C8.46064 61.1285 9.27944 59.9946 9.55238 58.3453C9.55238 57.2457 9.00651 56.4211 8.1877 55.5964C7.91477 55.3215 7.91477 54.7717 7.91477 54.7717C7.91477 53.3973 9.55238 50.6141 11.1218 49.7894C10.5759 51.4731 10.1665 53.2942 10.1665 53.8784C10.1665 54.1533 10.5759 57.2457 12.7594 58.0704C14.124 58.895 16.1028 58.6202 18.2863 58.4484C18.8322 58.414 19.4463 58.1391 20.0945 58.036C20.0945 58.3109 19.7875 59.3417 19.7875 59.3417C18.1498 62.7435 15.5228 62.4686 15.5228 62.4686C15.2499 63.465 13.9193 69.3751 13.9193 69.3751C16.9899 67.9319 16.8193 68.0007 17.7063 67.554C18.9004 66.9355 20.5721 65.9734 23.9156 66.0077C28.7943 66.0765 30.9437 64.3241 31.2166 64.0492C31.4896 63.7743 32.5813 56.5241 32.5813 56.5241C32.5813 56.5241 31.046 58.0017 30.3637 58.5171C30.9096 56.318 31.1484 54.3594 31.6943 52.4352C32.2401 52.7101 34.0824 53.6722 34.0824 53.6722C33.5366 55.8713 32.8542 59.6166 32.8201 60.4413C32.7178 64.5302 36.0953 64.0148 36.6071 64.0148C31.4896 66.317 28.6237 67.6914 28.0096 68.4473C27.0544 69.65 26.8497 70.3716 26.8497 71.746C26.8497 72.0209 26.9861 76.3503 30.739 76.1785C27.2591 81.1609 23.2333 87.2771 21.6298 88.6515C20.2651 87.8268 18.0816 87.7925 17.024 89.2013C16.3758 89.8885 15.9322 91.9501 17.0581 93.6682C17.8769 95.0426 19.7875 95.9016 21.1521 95.6267C22.7556 95.3519 24.5979 94.4585 26.1332 92.7061C27.7367 90.8506 34.0483 81.3327 37.5283 76.1442C37.5283 77.2437 36.6753 84.0128 35.5836 85.8683C34.4918 87.7581 33.4342 89.1326 33.4342 89.1326C38.04 88.5484 37.8353 88.5828 37.8353 88.5828C39.2 88.3079 41.3493 87.9986 42.9528 86.8991C44.5563 86.0744 47.0128 86.0401 47.0128 86.0401H48.3774C48.6504 84.6657 48.6504 83.5661 48.6504 83.2912C48.9233 83.841 49.0598 84.8718 49.6056 85.4216C50.1515 85.9714 52.3009 87.7925 57.8278 82.982C57.8278 83.2569 58.7149 84.219 58.9878 84.2533C62.5359 84.7344 64.583 82.123 66.4594 80.4393C66.4594 80.7142 66.05 82.4666 66.05 82.4666C68.4723 81.9168 73.7945 80.6798 73.7945 80.6798C74.0333 79.5803 74.818 76.5221 75.3298 73.7733C75.8757 73.7733 75.8757 73.7733 76.3874 73.7733C76.0462 75.4226 75.9098 76.2473 75.8757 76.797C75.5686 80.1644 79.2191 80.886 80.6179 80.4049C82.0167 79.9239 84.2343 77.5873 86.3837 75.6631C86.4519 76.7283 86.8954 77.3812 87.4754 77.8622C89.2154 79.3054 91.2965 78.8587 95.7999 75.2164C96.6187 76.0411 97.4717 76.9688 98.8022 76.6939C100.406 76.4191 102.043 75.2852 103.92 73.3609C107.741 77.7248 112.62 73.6358 114.155 70.2685C114.155 73.4984 117.157 73.6702 118.488 73.2922C120.125 72.8455 122.513 70.7839 125.755 68.0007C126.812 67.176 127.904 66.0421 128.45 65.7672C128.723 65.7672 128.723 65.7672 128.996 65.7672C130.804 68.3099 134.761 67.1416 134.932 63.8086C134.932 61.8844 134.113 60.2351 132.749 59.6853C131.657 59.1356 130.599 58.8607 129.235 59.1699C126.539 59.7197 124.39 61.4034 122.241 63.0527C122.513 62.7778 124.561 52.2978 124.561 52.2978C122.411 52.5727 112.21 55.081 110.061 56.4898C107.366 57.8986 106.035 59.7884 106.035 61.9875C106.035 62.2624 106.615 65.3205 108.491 65.9047C108.218 66.4544 107.673 67.0042 107.434 67.554C107.434 66.7293 106.922 66.4888 106.581 66.2826C104.773 65.1487 103.749 66.6949 103.237 66.9698C104.022 64.221 105.694 55.4933 105.694 55.4933C103.749 56.1805 97.9152 58.414 97.9152 58.414C96.4482 64.8395 96.0729 66.2139 96.0729 66.2139C95.7999 67.0386 95.2541 67.8632 94.4694 68.9971C96.0729 62.0906 96.0729 61.5408 96.0729 61.2659C96.107 58.7232 93.8212 58.1391 93.0024 58.0704C90.8189 57.8299 87.6801 60.7505 86.3154 62.1593C86.3154 61.8844 86.7248 59.4792 86.7248 59.4792C81.5391 60.7849 79.3556 61.4034 79.3556 61.4034C79.0826 62.5029 78.2297 65.2518 77.6839 67.7258C77.4109 67.7258 76.9674 68.1037 76.5921 68.035C76.8651 66.1108 77.1039 65.2518 77.1039 65.2518V64.9769C77.1039 64.702 77.1039 63.6025 76.0121 62.5029C73.1804 60.9567 69.4958 64.3928 67.3805 66.1452C67.3805 65.8703 67.8923 63.0871 67.8923 63.0871L60.3183 64.7707C60.0454 65.8703 58.9878 70.3028 57.9302 73.6358C57.6572 74.4605 57.3843 75.2852 56.5996 75.8349C57.9302 70.3028 58.2031 69.2033 58.2031 68.9284C58.2031 67.554 57.6572 66.1795 56.5655 65.6298C55.0302 64.8051 53.3244 65.939 48.4798 69.8218C48.7186 66.7637 50.0492 60.132 50.3221 59.0325C50.595 58.7576 51.1409 58.4827 51.4138 58.2078C52.2326 59.0325 53.2561 60.3382 55.4396 60.3382C58.9537 60.888 63.8665 56.6272 65.1971 55.1154C64.9241 55.3902 64.583 57.6237 64.583 57.6237C65.0265 57.6237 71.7816 56.2836 71.7816 56.2836C72.1228 54.7374 73.1804 48.4837 74.1016 47.8996C73.5898 51.2326 72.5322 56.6272 72.5322 56.6272C75.1251 56.0087 80.072 55.3215 80.072 55.3215C80.072 53.9471 80.5838 51.9885 80.8567 50.3392C80.8567 50.6141 80.8567 50.889 80.8567 50.889C80.8567 51.7136 81.1979 52.7445 81.9485 53.6378C83.3814 55.3902 86.7248 55.2528 90.2048 51.5418C93.3435 53.7066 96.687 52.0572 98.5634 50.6484C101.088 52.126 102.93 51.2669 103.476 50.9577C104.841 50.4079 105.933 49.2397 107.263 48.1058C108.355 49.2053 109.754 49.8582 111.664 49.5833C114.36 49.0335 115.827 47.3498 117.157 45.1164C117.43 46.4908 118.419 47.2811 119.204 47.556C122.752 48.9991 127.972 43.8794 129.849 42.0239C130.224 41.749 131.52 40.2715 131.52 40.2715C132.066 41.0961 133.738 41.7834 134.796 41.7834C136.16 41.5085 137.388 40.9587 138.037 37.8319C137.764 35.9077 136.945 35.083 136.126 34.5332C134.523 33.4337 132.919 33.365 131.52 33.9147C130.156 34.4645 127.495 36.2169 125.618 37.5913C126.164 35.1174 128.177 26.5615 128.177 26.5615C128.177 26.5615 114.121 30.1694 113.029 30.9941Z" fill="#A2600B"/>
<path d="M20.2997 96.039C18.7985 96.039 17.5703 95.3517 16.6492 93.9429C15.8304 92.706 15.7621 90.8848 16.4445 89.6135C17.2974 88.0329 19.1397 87.5518 21.3914 88.4796C22.6879 87.277 25.4172 83.2911 28.0783 79.477C28.7266 78.5149 29.4089 77.5528 30.0571 76.6251C28.5219 76.5564 27.2254 75.3194 26.7137 73.4295C26.1678 71.4023 26.6795 68.7565 29.0336 67.382C29.9207 66.8666 31.1147 66.2138 35.3111 64.4614C34.117 64.3926 32.4112 63.7054 32.4112 60.5786C32.4112 59.7196 33.1276 56.0773 33.6394 53.9126C33.23 53.7064 32.3088 53.2254 31.7288 52.9505C31.4559 54.05 31.183 55.1496 30.9442 56.2835C30.8077 56.7989 30.7053 57.3487 30.5689 57.8985C31.2853 57.2456 32.3088 56.3522 32.343 56.3179C32.4453 56.2491 32.5477 56.2148 32.65 56.2835C32.7524 56.3522 32.8206 56.4553 32.7865 56.5584L31.49 63.9803C31.49 64.0147 31.4559 64.0834 31.4218 64.1178L31.1489 64.3926C31.1147 64.3926 29.1701 66.3512 23.7796 66.3856C20.6067 66.3856 17.1609 68.0005 13.9198 69.7186C13.8175 69.7529 13.7151 69.7529 13.6469 69.6842C13.5445 69.6155 13.5104 69.5124 13.5445 69.4093C13.5445 69.4093 14.8751 63.6367 15.148 62.5028C15.1821 62.3997 15.2845 62.2966 15.3868 62.2966C15.3868 62.2966 15.7621 62.2623 16.6833 62.0218C17.9797 61.6781 19.6515 59.6852 19.7879 58.4139C18.7985 58.7918 17.195 58.9293 16.0351 58.9293C15.2845 58.9293 13.9539 58.8949 13.0669 58.5513C11.7363 58.0359 10.8152 57.1769 10.3375 56.0086C9.75756 54.6342 9.79167 52.8818 10.4399 50.8201C9.48462 51.7479 8.29053 53.2597 8.11994 54.9091C8.08583 55.0809 8.11994 55.3214 8.32465 55.5276C9.0411 56.2491 9.75756 57.1425 9.75756 58.4826C9.75756 60.1319 8.66581 61.4033 6.6188 62.0905C4.94707 62.6402 3.37769 61.953 2.14948 60.2006C1.22833 58.8949 1.12598 57.5205 1.12598 56.3522C1.39891 53.191 2.593 50.4078 4.94707 47.5902C7.84701 44.0854 13.101 41.8176 18.355 41.7832C19.2762 41.7832 20.2314 41.8519 21.1185 41.9894C21.1867 41.9894 21.255 42.0581 21.2891 42.1268C21.3232 42.1956 21.3573 42.2643 21.3232 42.333C21.2208 42.711 18.7303 51.3699 18.5597 51.954C18.5597 52.0228 18.5938 52.0915 18.9009 52.1258C19.5491 52.2633 20.2656 51.8853 21.3914 50.8545C22.5855 45.9065 23.8137 42.8141 25.4172 40.8555C27.6348 38.141 29.5112 37.2132 32.0018 36.4917C34.39 35.8044 36.744 36.3542 38.1428 37.8661C38.8593 38.622 39.2005 39.5498 39.1663 40.4432C39.0299 42.4704 37.597 44.0854 35.9252 44.0854C35.4817 44.0854 35.0382 43.9823 34.6288 43.7418C34.5264 44.051 34.39 44.4634 34.2194 44.9101C34.0147 45.4942 33.7759 46.1471 33.537 46.8343C35.1064 45.5973 37.5628 43.8105 38.5522 43.5356C39.9169 43.192 41.1451 43.5356 41.9298 44.429C42.5439 45.1162 42.8168 46.0783 42.7145 47.0404C42.6463 47.4871 42.3051 49.6175 41.4181 53.8782C41.7251 53.4659 42.0322 52.8818 42.2027 52.1602C42.271 51.8509 43.9768 44.7726 44.318 43.6044C44.318 43.5356 44.3521 43.4669 44.5909 43.3638V43.3295C44.625 43.3295 44.625 43.3295 44.6592 43.3295C45.3074 43.0889 47.0815 42.5735 51.9943 41.2335C52.0966 41.1991 52.199 41.2335 52.2331 41.3022C52.3013 41.3709 52.3355 41.474 52.3013 41.5427C52.3013 41.6114 51.2437 46.5937 50.4249 49.9955C51.2096 47.5558 52.8813 44.1885 55.4401 41.7489C58.2377 39.0687 61.1717 38.6564 62.6729 38.6564C63.7646 38.6564 64.754 38.8626 65.2317 39.2062C65.6752 39.5498 65.914 39.8247 66.1187 40.0652C66.1528 40.0995 66.1528 40.0995 66.1869 40.1339C67.2104 39.2749 70.4174 36.7665 72.7033 36.7665C73.5903 36.7665 74.2385 37.1445 74.6138 37.8317H74.6479C76.422 36.526 77.6843 35.5639 79.0831 35.4952C81.0278 35.3578 81.8125 36.045 82.1536 36.4573C84.1324 34.9111 85.8042 34.1551 87.2712 34.1551C88.5676 34.1551 89.4547 34.7393 90.0688 35.2547C91.0582 36.045 91.0582 37.9005 90.8194 39.6185C92.0134 37.2132 94.0946 34.3269 97.6427 32.9525C98.598 32.5745 99.7921 32.1966 100.85 31.8873C101.498 31.6811 102.146 31.475 102.658 31.3032C102.794 30.8908 102.863 30.7878 102.863 30.7534C102.897 30.6847 102.965 30.6503 102.999 30.6503L109.515 28.4856C109.618 28.4512 109.72 28.4856 109.788 28.5543C109.857 28.623 109.891 28.7261 109.857 28.8292L109.072 31.5781L108.731 32.9525C108.048 35.5639 107.264 38.5533 106.786 41.0273C107.332 40.7868 108.014 40.5806 108.492 40.5806H108.56C109.311 40.615 109.925 41.2335 110.437 41.8176C110.71 41.3365 111.051 40.7868 111.187 40.4775C109.652 39.5841 109.106 37.9348 109.106 36.7665C109.106 34.4644 110.812 31.9217 113.166 30.719C115.52 29.5164 127.666 26.5957 128.177 26.4583C128.28 26.4239 128.382 26.4583 128.416 26.527C128.484 26.5957 128.519 26.6988 128.484 26.7676C128.45 26.8363 126.813 34.0177 126.164 37.0758C128.075 35.7014 129.917 34.4987 130.293 34.2582C131.146 33.7084 132.169 33.3992 133.227 33.3992C135.683 33.3992 138.242 35.0485 138.242 37.9005C138.242 40.2026 136.843 41.955 134.796 42.1612C133.67 42.2643 132.135 41.7489 131.623 40.7868L131.418 41.0273C130.19 42.1956 127.324 44.9444 124.254 47.0748C123.265 47.762 122.07 48.14 120.842 48.14C119.546 48.14 118.386 47.7277 117.703 47.0061C117.396 46.6625 117.192 46.2845 117.055 45.8378C115.861 47.6589 114.258 49.4801 111.665 49.9955C111.392 50.0298 111.119 50.0642 110.88 50.0642C109.584 50.0642 108.424 49.5488 107.298 48.5179C105.728 50.4765 102.999 51.954 100.952 51.9884C99.9627 51.9884 99.178 51.6791 98.6321 51.0607C97.5063 52.1258 95.2204 52.9849 93.3099 52.9849C92.0134 52.9849 90.9558 52.6412 90.2735 51.9197C88.3629 54.0157 86.35 55.1839 84.5418 55.1839C83.4501 55.1839 82.4948 54.7716 81.7101 53.947C81.3007 53.5003 80.9937 52.7443 80.8231 52.0227C80.8231 52.0571 80.8231 52.0915 80.789 52.1258C80.5843 53.2941 80.3796 54.4967 80.2772 55.4588C80.2772 55.5963 80.1749 55.6994 80.0384 55.6994C79.9702 55.6994 75.1597 56.4209 72.5668 56.9707C72.4644 56.9707 72.3962 56.9707 72.328 56.902C72.2597 56.8333 72.2256 56.7302 72.2597 56.6615C72.2597 56.6271 72.8397 53.4315 73.3515 50.4422C73.0444 51.8509 72.7033 53.3628 72.4303 54.5655C72.2597 55.3901 72.0892 56.0773 72.0209 56.4553C71.9868 56.5584 71.9186 56.6271 71.8162 56.6615C71.748 56.6615 66.6987 57.6923 64.6176 58.0015C64.5493 58.0015 64.447 57.9672 64.3787 57.9328C64.3105 57.8641 64.3105 57.761 64.3105 57.6923C64.3105 57.6579 64.4811 56.902 64.6176 56.2148C62.3658 58.5169 58.8859 60.716 55.7813 60.7504C54.0413 60.7504 52.5402 60.0975 51.312 58.7575C51.1755 58.8606 51.0731 58.9293 50.9367 59.0324C50.7661 59.1354 50.5955 59.2385 50.4932 59.376C50.2202 60.613 49.2649 66.4543 48.7873 69.4093C52.8813 66.2825 53.1884 66.1107 53.8707 65.7327L54.0072 65.664C55.2354 64.9768 56.7024 65.2517 57.5895 66.3169C58.2377 67.1072 58.5447 68.138 58.3742 69.2032C58.3059 69.6842 57.8283 71.7802 57.0095 75.1819C57.2824 74.7696 57.453 74.2886 57.6236 73.7731C58.7494 70.2683 59.8753 65.4578 60.0118 64.9424C60.0459 64.8393 60.1141 64.7706 60.2165 64.7363L67.7904 63.0526C67.8928 63.0526 67.961 63.0526 68.0292 63.1213C68.0975 63.19 68.1316 63.2931 68.0975 63.3618C67.9269 64.1865 67.7904 65.1142 67.6881 65.6984C69.9057 63.8772 71.8162 62.3997 73.0785 62.0905C74.6138 61.7125 75.842 62.0218 76.5585 62.9839C77.3432 64.049 77.4455 65.7671 76.8655 68.0005C76.8996 68.0005 76.9679 67.9662 77.002 67.9662C77.1043 67.9318 77.2067 67.9318 77.2749 67.8975C77.6843 66.4199 78.0937 64.9424 78.469 63.7398C78.742 62.7777 78.9808 61.9874 79.1172 61.472C79.1514 61.4033 79.2196 61.3002 79.3219 61.2658C79.3561 61.2658 82.1195 60.5099 86.7594 59.3416C86.8618 59.3072 86.9641 59.3416 87.0324 59.4103C87.1006 59.479 87.1347 59.5821 87.1006 59.6852C87.1006 59.6852 86.8959 60.3381 86.5889 61.6094C86.6571 61.5407 86.7253 61.472 86.7935 61.4033C88.397 59.9601 90.3758 58.1733 92.2181 57.9672C93.5828 57.7954 94.7087 58.2421 95.4934 59.2042C96.0733 59.8914 96.3463 60.8191 96.2098 61.5407C96.2098 61.5751 96.2098 61.6094 96.1757 61.6438C96.1416 62.0217 96.0051 63.0869 94.9134 67.9318C95.2887 67.3477 95.5275 66.8666 95.6981 66.3856C95.6981 66.3856 96.1757 64.805 97.6427 58.5169C97.6769 58.4139 97.711 58.3451 97.8133 58.3451C97.8816 58.3108 102.999 56.3179 105.524 55.4245C105.626 55.3901 105.728 55.4245 105.797 55.4932C105.865 55.5619 105.899 55.665 105.865 55.7681C105.831 55.8368 104.296 63.19 103.545 66.4887C104.261 65.9389 104.876 65.8358 105.319 65.8358C106.274 65.8358 107.059 66.4543 107.366 67.1759C107.537 66.901 107.707 66.6261 107.912 66.3169C106.786 65.8358 105.865 64.3926 105.694 62.7777C105.558 61.5751 105.728 58.5513 109.788 56.524C112.142 55.1496 122.207 52.5725 124.425 52.2976C124.493 52.2976 124.595 52.332 124.663 52.3664C124.732 52.4351 124.732 52.5382 124.732 52.6069C124.663 52.9505 123.094 60.2006 122.514 62.6746C124.459 61.1971 126.506 59.7196 129.03 59.2042C130.975 58.7918 132.681 59.2385 133.807 60.4412C134.694 61.3689 135.137 62.709 135.035 64.1521C134.898 66.5574 133.124 67.6569 131.453 67.6569C130.258 67.6569 129.201 67.1759 128.689 66.3856C128.621 66.3856 128.553 66.3856 128.484 66.3856C128.382 66.3856 128.314 66.3856 128.211 66.3512C127.256 67.3133 120.91 73.0516 118.795 73.7044C118.352 73.8419 117.874 73.9106 117.431 73.9106C115.656 73.9106 114.36 73.0172 113.916 71.4023C112.177 74.5634 109.686 75.3194 108.833 75.5599C108.321 75.6974 107.81 75.8004 107.332 75.8004C105.899 75.8004 104.705 75.2163 103.954 74.1168C102.18 75.8692 100.372 76.9687 98.7004 77.2436C98.5298 77.278 98.3251 77.3123 98.1204 77.3123C96.9604 77.3123 96.1757 76.522 95.6639 75.8348C93.9922 77.0718 91.3652 78.8242 90.5123 79.0304C90.2394 79.0991 89.9323 79.1334 89.5911 79.1334C88.4994 79.1334 87.4077 78.7211 86.7253 78.0339C86.3159 77.5872 86.043 77.0718 85.9406 76.4877C85.6677 76.7282 85.3948 77.0031 85.0877 77.278C83.2113 79.0304 81.2666 80.8171 80.0043 81.0576C79.8337 81.092 79.6631 81.092 79.4584 81.092C78.469 81.092 77.002 80.714 76.0808 79.6488C75.3985 78.8586 75.1938 77.8277 75.3644 76.6251C75.4326 76.3158 75.535 75.9035 75.6373 75.4225C75.7397 75.0445 75.842 74.6322 75.9103 74.2198C75.7738 74.2198 75.6714 74.2542 75.5691 74.2542C75.4667 74.2542 75.3644 74.2542 75.262 74.2542C74.7162 77.0718 74.1021 79.855 73.8632 80.9546C73.8291 81.0576 73.7609 81.1264 73.6585 81.1607C73.6585 81.1607 68.3363 82.3634 65.914 82.9131C65.8116 82.9475 65.7434 82.9131 65.6752 82.8444C65.6069 82.7757 65.5728 82.707 65.6069 82.6039C65.6069 82.6039 65.7093 82.0541 65.8458 81.47C64.0376 83.2567 61.6494 84.9061 59.7388 84.9061C58.7494 84.9061 57.9648 84.4594 57.4871 83.6347C55.4401 85.5245 53.2225 86.6585 51.4484 86.6585C50.1179 86.6585 49.0944 86.04 48.5485 84.8717C48.5144 85.284 48.4461 85.7651 48.412 86.2805C48.412 86.4179 48.2414 86.521 48.1391 86.521H48.0367C47.4226 86.521 44.2498 86.5897 42.8851 87.3457C40.1557 88.8575 37.6652 89.0981 33.1959 89.476C33.0935 89.476 32.9912 89.4073 32.9229 89.3386C32.8888 89.2355 32.8888 89.1324 32.9571 89.0294C35.4476 86.2461 36.5735 83.0162 36.9487 77.381C33.537 82.6726 27.8395 91.1597 26.6454 92.5341C25.2808 94.0804 22.7561 96.0046 20.2997 96.039ZM19.1738 88.5139C17.8774 88.5139 17.2292 89.2355 16.9221 89.854C16.3421 90.9536 16.4104 92.6029 17.0927 93.6337C17.9115 94.8707 19.0032 95.4892 20.2997 95.4892C22.5514 95.4892 24.9396 93.6681 26.3043 92.0875C27.5325 90.6787 33.81 81.2982 37.0852 76.144C37.1534 76.041 37.2899 75.9722 37.3923 76.041C37.4946 76.0753 37.597 76.1784 37.5628 76.3159C37.2558 82.3977 36.2323 85.8682 33.81 88.8232C37.904 88.4796 40.0875 88.2047 42.6121 86.8303C44.0109 86.04 47.0132 85.9712 47.9003 85.9369C48.0367 84.7686 48.1391 83.7034 48.1391 83.4285C48.1391 83.2911 48.2414 83.1537 48.3779 83.1537C48.5144 83.1537 48.6508 83.2224 48.685 83.3598C48.992 85.1122 49.9814 86.0056 51.4825 86.0056C53.1884 86.0056 55.406 84.8373 57.4189 82.8788C57.4871 82.81 57.5895 82.7757 57.6577 82.81C57.7601 82.81 57.8283 82.8788 57.8624 82.9818C58.2718 83.8409 58.8859 84.2876 59.8071 84.2876C61.7859 84.2876 64.5152 82.2259 66.1869 80.3017C66.2552 80.1986 66.3916 80.1643 66.5281 80.233C66.6305 80.3017 66.6987 80.4048 66.6646 80.5422C66.5963 80.8515 66.4258 81.7105 66.2893 82.1915C68.5751 81.6761 72.6009 80.7484 73.4538 80.5766C73.7268 79.3396 74.3068 76.522 74.8526 73.8419C74.8867 73.7388 74.955 73.6701 75.0573 73.6357C75.1597 73.6357 75.3303 73.6013 75.6032 73.6013C75.7738 73.6013 76.0126 73.567 76.2855 73.567C76.3538 73.567 76.4561 73.6013 76.5244 73.6357C76.5926 73.7044 76.5926 73.7731 76.5926 73.8762C76.4902 74.4604 76.3538 75.0101 76.2173 75.4568C76.115 75.9379 76.0126 76.3158 75.9444 76.6251C75.7738 77.6559 75.9785 78.5149 76.5244 79.1678C77.4114 80.1986 79.049 80.5766 79.9361 80.4048C81.0619 80.1986 83.0066 78.3775 84.7465 76.7625C85.19 76.3502 85.5995 75.9722 86.0089 75.5943C86.0771 75.5256 86.2136 75.5255 86.3159 75.5599C86.4183 75.5943 86.4865 75.6974 86.4865 75.8004C86.4865 76.4877 86.6912 77.0718 87.1347 77.5528C87.7147 78.137 88.67 78.5149 89.5911 78.5149C89.8641 78.5149 90.137 78.4806 90.3758 78.4119C91.1264 78.2057 93.7193 76.522 95.5616 75.1132C95.6298 75.0789 95.6981 75.0445 95.7663 75.0789C95.8345 75.0789 95.9028 75.1132 95.9369 75.1819C96.7557 76.3846 97.5745 76.7969 98.5639 76.5907C100.201 76.3158 102.01 75.1819 103.75 73.3608C103.818 73.2921 103.886 73.2577 103.988 73.2921C104.057 73.2921 104.159 73.3608 104.193 73.4295C104.807 74.5291 105.933 75.1476 107.264 75.1476C107.707 75.1476 108.151 75.0789 108.628 74.9414C109.481 74.6665 112.074 73.9106 113.746 70.3371C113.814 70.234 113.917 70.1653 114.019 70.1996C114.155 70.1996 114.224 70.3027 114.258 70.4402C114.496 72.9828 116.509 73.2577 117.362 73.2577C117.772 73.2577 118.215 73.189 118.591 73.0859C120.535 72.5018 127.154 66.523 127.87 65.8014C127.904 65.7671 127.973 65.7327 128.075 65.7327C128.211 65.7327 128.348 65.7327 128.484 65.7327C128.689 65.7327 128.962 65.6984 129.064 65.8702C129.44 66.5574 130.395 67.0041 131.453 67.0041C132.783 67.0041 134.387 66.2138 134.489 64.0147C134.557 62.709 134.182 61.5063 133.397 60.6817C132.408 59.6509 130.873 59.2385 129.133 59.6165C126.472 60.2006 124.322 61.8499 122.241 63.4649C122.139 63.5336 122.002 63.5336 121.934 63.4649C121.832 63.3962 121.798 63.2931 121.832 63.1557C121.968 62.709 123.333 56.3866 124.117 52.7787C121.354 53.2597 112.177 55.665 110.027 56.902C106.274 58.7575 106.104 61.5407 106.24 62.6059C106.411 64.1521 107.332 65.5266 108.39 65.8014C108.492 65.8358 108.56 65.8702 108.56 65.9732C108.594 66.0763 108.594 66.145 108.526 66.2138C108.185 66.7292 107.946 67.1071 107.707 67.4851L107.468 67.8631C107.4 67.9662 107.298 68.0005 107.195 67.9662C107.093 67.9318 106.991 67.8631 106.991 67.7256C106.923 67.0041 106.24 66.2481 105.285 66.2481C104.637 66.2481 103.92 66.6261 103.272 67.3477C103.204 67.4508 103.067 67.4508 102.965 67.4164C102.863 67.3477 102.794 67.2446 102.828 67.1072C103.34 64.7706 104.841 57.8985 105.217 56.0086C102.828 56.8676 98.8709 58.4139 98.1204 58.6888C96.6533 64.9081 96.2098 66.3856 96.1757 66.4543C95.9028 67.3133 95.3569 68.138 94.5381 69.3062C94.4699 69.4093 94.3334 69.4437 94.1969 69.375C94.0946 69.3062 94.0263 69.2032 94.0605 69.0657C95.4251 63.0869 95.5616 61.8843 95.6298 61.5063C95.6298 61.4376 95.6298 61.4033 95.6639 61.3345C95.7663 60.7504 95.5275 60.0288 95.0499 59.4447C94.4016 58.6544 93.4122 58.2764 92.2523 58.4139C90.5805 58.62 88.67 60.3381 87.1347 61.7125C86.8277 61.9874 86.5547 62.2623 86.2818 62.4684C86.1794 62.5372 86.0771 62.5372 85.9747 62.5028C85.8724 62.4341 85.8383 62.331 85.8724 62.1936C86.1453 61.094 86.35 60.3381 86.4524 59.8914C82.6654 60.8535 80.2431 61.5063 79.629 61.6781C79.4925 62.1936 79.2537 62.9495 79.0149 63.8085C78.6396 65.0799 78.1961 66.5917 77.7867 68.138C77.7526 68.2411 77.6843 68.3098 77.582 68.3441C77.4455 68.3785 77.3091 68.4129 77.1385 68.4129C76.9338 68.4472 76.7632 68.4816 76.5585 68.5159C76.4561 68.5159 76.3879 68.4816 76.3197 68.4129C76.2514 68.3441 76.2514 68.2411 76.2855 68.1723C76.9338 65.9389 76.8996 64.1865 76.1832 63.2244C75.6032 62.4341 74.5797 62.1936 73.2832 62.5372C71.9868 62.8464 69.9398 64.4957 67.5516 66.4887C67.4834 66.5574 67.3469 66.5574 67.2787 66.523C67.1763 66.4887 67.1081 66.3856 67.1081 66.2825C67.1081 66.042 67.4151 64.427 67.5516 63.6023L60.5576 65.1829C60.2847 66.3512 59.2612 70.612 58.2036 73.9106C57.9306 74.7696 57.6577 75.663 56.7707 76.2815C56.6683 76.3502 56.566 76.3502 56.4636 76.2815C56.3613 76.2128 56.3271 76.1097 56.3613 76.0066C57.6236 70.715 57.8965 69.4093 57.9306 69.1001C58.0671 68.2067 57.8283 67.279 57.2483 66.6261C56.4977 65.7327 55.3378 65.5266 54.3142 66.0763L54.1778 66.145C53.4954 66.523 53.1884 66.6948 48.6167 70.1996C48.5144 70.2683 48.412 70.2683 48.3097 70.1996C48.2073 70.1309 48.1732 70.0278 48.1732 69.9247C48.8897 65.4235 49.7767 60.1319 50.0155 59.1354C50.0155 59.1011 50.0496 59.0324 50.0837 58.998C50.2202 58.8262 50.459 58.6887 50.6637 58.5513C50.8684 58.4139 51.039 58.2764 51.1755 58.1733C51.2096 58.139 51.312 58.1046 51.3802 58.1046C51.4484 58.1046 51.5167 58.139 51.5849 58.2077C52.7108 59.5478 54.1437 60.2006 55.8154 60.2006C59.0906 60.2006 62.8435 57.5548 64.9246 55.0809C64.9928 54.9778 65.1293 54.9778 65.2658 55.0121C65.3681 55.0809 65.4364 55.2183 65.4022 55.3214C65.2999 55.7337 65.0611 56.8333 64.9246 57.383C66.9034 57.0738 70.6904 56.3179 71.5433 56.146C71.6115 55.7681 71.748 55.1839 71.9186 54.4624C72.2939 52.71 72.8056 50.3391 73.2491 48.4836C73.2832 48.3461 73.3856 48.2431 73.5903 48.0713C73.6585 48.0025 73.7609 47.9338 73.7609 47.8995C73.795 47.762 73.9315 47.6933 74.0679 47.7276C74.2044 47.762 74.3068 47.9338 74.2726 48.0713C73.8291 50.8201 73.0786 55.0809 72.8397 56.3866C75.1597 55.9399 78.8443 55.3558 79.7313 55.2183C79.8337 54.2906 80.0384 53.1567 80.209 52.0571C80.3113 51.5073 80.4137 50.9576 80.4819 50.4422C80.516 50.3047 80.6184 50.2016 80.7549 50.2016C80.8913 50.2016 80.9937 50.3391 80.9937 50.4765C80.9937 50.7858 81.3007 52.8474 82.0172 53.6033C82.6995 54.3249 83.5183 54.6685 84.4736 54.6685C86.1794 54.6685 88.1241 53.5003 90.0005 51.3699C90.0688 51.3012 90.137 51.2668 90.2052 51.2668C90.2735 51.2668 90.3758 51.3012 90.41 51.3699C91.1264 52.2976 92.3205 52.4694 93.2416 52.4694C95.3228 52.4694 97.5745 51.4386 98.3592 50.5109C98.4274 50.4422 98.4957 50.4078 98.5639 50.4078C98.6321 50.4078 98.7345 50.4422 98.7686 50.5109C99.2121 51.1637 99.9286 51.473 100.85 51.473C102.829 51.473 105.524 49.9267 106.957 48.0025C106.991 47.9338 107.059 47.8995 107.161 47.8995C107.23 47.8995 107.332 47.9338 107.366 47.9682C108.628 49.2739 109.925 49.7549 111.46 49.5144C114.155 48.9646 115.725 46.8686 116.919 44.9101C116.987 44.807 117.089 44.7726 117.226 44.807C117.328 44.8413 117.431 44.9444 117.431 45.0819C117.396 45.7004 117.601 46.2158 118.011 46.6625C118.591 47.281 119.614 47.6589 120.774 47.6589C121.9 47.6589 122.992 47.3153 123.879 46.6968C126.881 44.6008 129.747 41.8863 130.941 40.718L131.248 40.4088C131.316 40.3401 131.453 40.237 131.589 40.237C131.691 40.237 131.862 40.2714 131.93 40.5119C132.237 41.3022 133.636 41.8176 134.625 41.7145C136.365 41.5427 137.594 39.9965 137.56 38.0035C137.56 35.5296 135.274 34.052 133.09 34.052C132.135 34.052 131.214 34.3269 130.429 34.8423C130.02 35.1172 127.87 36.4917 125.755 38.0723C125.653 38.141 125.55 38.141 125.448 38.0723C125.346 38.0035 125.312 37.9005 125.346 37.7974C125.789 35.667 127.324 28.9666 127.734 27.2142C125.516 27.764 115.349 30.238 113.268 31.3032C111.085 32.4027 109.515 34.7736 109.515 36.8696C109.515 37.9348 110.061 39.4467 111.528 40.2026C111.665 40.2714 111.699 40.4088 111.665 40.5462C111.562 40.8555 110.675 42.3674 110.573 42.5392C110.539 42.6079 110.437 42.6422 110.368 42.6766C110.266 42.6766 110.198 42.6423 110.13 42.5735L110.061 42.4704C109.584 41.9207 109.004 41.2335 108.39 41.1991C107.844 41.1991 107.025 41.5427 106.479 41.7489L106.377 41.7832C106.274 41.8176 106.172 41.8176 106.104 41.7489C106.035 41.6801 106.001 41.5771 106.001 41.474C106.445 38.8626 107.298 35.667 108.014 32.8838L108.39 31.5093L109.038 29.2415L103.136 31.2001C103.101 31.2688 103.033 31.4406 102.965 31.6811C102.931 31.7499 102.863 31.8186 102.794 31.853C102.249 32.0591 101.566 32.2653 100.85 32.4714C99.8262 32.7807 98.6321 33.1587 97.6768 33.5366C92.6275 35.4608 90.6488 40.6493 90.0347 42.7797C90.0005 42.9171 89.8641 42.9859 89.7276 42.9859C89.5911 42.9515 89.4888 42.8141 89.5229 42.6766C89.557 42.5048 89.5911 42.2643 89.6594 41.9894C90.0347 40.2714 90.8535 36.7665 89.557 35.7357C89.0112 35.289 88.2265 34.7736 87.1006 34.7736C85.7018 34.7736 84.0642 35.5639 82.0854 37.1789C82.0172 37.2476 81.9148 37.2476 81.8466 37.2132C81.7442 37.1789 81.676 37.1102 81.676 37.0414C81.676 37.0071 81.2325 35.9762 78.9808 36.1481C77.7526 36.2168 76.5244 37.1445 74.8526 38.3815L74.5456 38.5877C74.4773 38.622 74.375 38.6564 74.3068 38.622C74.2044 38.5877 74.1703 38.519 74.1362 38.4502C73.8632 37.7287 73.3515 37.385 72.5668 37.385C70.7927 37.385 68.0292 39.2405 66.1869 40.7868C66.0846 40.8898 65.914 40.8898 65.8116 40.7868C65.7093 40.6837 65.6411 40.5806 65.5387 40.4775C65.3681 40.2714 65.1634 39.9965 64.754 39.7216C64.447 39.4811 63.6282 39.2749 62.5023 39.2749C61.0694 39.2749 58.3059 39.6872 55.6448 42.2299C53.0178 44.7726 51.312 48.2774 50.6296 50.717C50.3567 51.2325 50.2884 51.3012 49.7767 51.9197C49.7085 52.0228 49.572 52.0228 49.4355 51.9884C49.3332 51.9197 49.2649 51.8166 49.2991 51.6791C49.9814 49.1021 51.1755 43.57 51.5167 41.9894C46.365 43.4325 45.0003 43.8105 44.625 43.948C44.2839 45.2193 42.5439 52.332 42.5439 52.4007C42.1686 54.0157 41.2134 54.8403 40.9404 55.0465C40.8381 55.1152 40.7357 55.1152 40.6334 55.0465C40.531 54.9778 40.4969 54.8747 40.531 54.7716C41.5545 49.8924 41.9298 47.4871 41.998 47.0404C42.1004 46.2501 41.8616 45.4255 41.3498 44.8757C41.0086 44.4977 40.3945 44.0167 39.371 44.0167C39.0981 44.0167 38.791 44.051 38.484 44.1198C37.5628 44.3603 34.697 46.4563 32.9571 47.8651C32.8547 47.9338 32.7182 47.9338 32.65 47.8995C32.5477 47.8307 32.5135 47.6933 32.5477 47.5902C32.8547 46.6281 33.23 45.5973 33.5029 44.7726C33.7076 44.1541 33.9123 43.6387 34.0147 43.2951C34.0488 43.2264 34.117 43.1577 34.1853 43.1233C34.2535 43.0889 34.3559 43.1233 34.4241 43.1577C34.8335 43.4325 35.277 43.57 35.7205 43.57C37.1193 43.57 38.3134 42.1612 38.4499 40.4088C38.484 39.6872 38.1769 38.8969 37.597 38.2441C36.3346 36.904 34.1853 36.4229 32.0018 37.0414C29.5795 37.7287 27.8395 38.622 25.6902 41.2335C24.1208 43.1233 22.9267 46.1814 21.7326 51.095C21.7326 51.1637 21.6985 51.1981 21.6644 51.2325C20.3679 52.4351 19.4809 52.8474 18.628 52.71C18.3891 52.6756 18.0821 52.5725 17.9115 52.332C17.8433 52.2289 17.8091 52.0571 17.8774 51.8166C18.048 51.3012 20.095 44.0854 20.5385 42.5048C19.7538 42.4017 18.9691 42.3674 18.1503 42.3674C13.0328 42.4017 7.94936 44.6008 5.15177 47.9682C2.90006 50.717 1.70596 53.3972 1.46715 56.3866C1.46715 57.9328 1.74008 58.9636 2.42242 59.9257C3.51416 61.5063 4.84472 62.0905 6.27763 61.6094C7.53996 61.1971 9.07522 60.3381 9.0411 58.5513C9.0411 57.6579 8.66582 56.902 7.74466 55.9742C7.36937 55.5963 7.36937 55.1496 7.40349 54.9091C7.67642 52.5382 9.79167 50.5109 10.7128 49.7549C10.8152 49.6862 10.9516 49.6519 11.054 49.7549C11.1564 49.8237 11.1905 49.9611 11.1564 50.0642C10.2011 52.4694 10.0305 54.428 10.6787 55.9055C11.1222 56.9363 11.941 57.6923 13.1351 58.1733C13.7151 58.4139 14.7386 58.5513 15.8986 58.5169C17.5362 58.5169 19.1056 58.2421 19.7879 57.8641C19.8562 57.8297 19.9585 57.8297 20.0267 57.8641C20.095 57.8984 20.1632 57.9672 20.1632 58.0703C20.4361 59.5134 18.3891 62.1936 16.6833 62.6402C16.0692 62.812 15.6939 62.8808 15.4892 62.9151C15.2163 64.0834 14.3975 67.6569 14.0563 69.0657C17.195 67.4164 20.5044 65.9389 23.6431 65.9389C28.7266 65.9045 30.603 64.1178 30.603 64.1178L30.8077 63.9116L30.9442 63.1557L31.9677 57.383C31.3877 57.9328 30.5006 58.7231 30.1254 58.9636C30.023 59.0324 29.9207 59.0324 29.8183 58.9636C29.716 58.8949 29.6818 58.7918 29.716 58.6544C29.9207 57.8297 30.0912 57.0394 30.2618 56.2491C30.5348 54.9778 30.8077 53.7752 31.1489 52.5725C31.183 52.5038 31.2171 52.4351 31.2853 52.4007C31.3536 52.3664 31.4559 52.3664 31.5241 52.4007C32.07 52.6756 33.9123 53.6033 33.9123 53.6033C34.0147 53.6721 34.0829 53.7752 34.0488 53.9126C33.5029 56.2491 32.7865 59.8914 32.7865 60.6473C32.7865 62.8808 33.7076 64.0147 35.4476 63.9803C36.1982 63.9803 36.9146 63.7742 37.2558 63.6367C37.3923 63.568 37.5628 63.6367 37.597 63.8085C37.6311 63.946 37.597 64.1178 37.4605 64.1521C31.5241 66.6261 30.1595 67.3477 29.136 67.9318C26.8842 69.2375 26.6113 71.6771 27.0889 73.3608C27.6007 75.2163 28.8971 76.3502 30.3983 76.144C30.5006 76.1097 30.603 76.1784 30.6712 76.2815C30.7395 76.3846 30.7395 76.4877 30.6712 76.5907C29.9207 77.6559 29.1701 78.7898 28.3854 79.8894C25.5196 84.047 22.7902 87.9985 21.4938 89.1324C21.4255 89.2012 21.3232 89.2355 21.2208 89.1668C20.5385 88.6857 19.822 88.5139 19.1738 88.5139ZM47.6273 80.9202C47.5591 80.9202 47.4909 80.8858 47.4567 80.8515C47.3885 80.8171 47.3544 80.714 47.3544 80.6453C47.3885 79.1678 47.4567 77.8277 47.525 76.4877C47.5591 75.8348 47.5932 75.2163 47.5932 74.5634C47.5932 74.4604 47.6614 74.3916 47.7297 74.3229C47.7979 74.2886 47.9003 74.2886 48.0026 74.3229C48.3779 74.4947 48.9579 74.7696 49.4014 74.9414C49.6061 75.0101 49.7767 75.1132 49.879 75.1476C49.9814 75.2163 50.0496 75.3194 50.0496 75.4568C49.7767 76.7282 49.5379 77.9308 49.2991 78.996C49.1967 79.5801 49.0602 80.0955 48.992 80.5422C48.9579 80.6453 48.8897 80.7484 48.7873 80.7484C48.6167 80.7828 48.4803 80.8171 48.3779 80.8171C48.1391 80.8515 48.0026 80.8858 47.6273 80.9202ZM48.105 74.9758C48.0709 75.4912 48.0709 76.0066 48.0367 76.522C48.0026 77.759 47.9344 78.996 47.9003 80.3361C48.0367 80.3017 48.1391 80.3017 48.2414 80.2673C48.3097 80.2673 48.3779 80.233 48.4803 80.233C48.5826 79.8207 48.6508 79.3396 48.7532 78.8586C48.9579 77.8621 49.1626 76.7625 49.4355 75.5599C49.3332 75.5255 49.2649 75.4912 49.1626 75.4568C48.8214 75.3194 48.4461 75.1476 48.105 74.9758ZM65.1293 74.7696C65.0611 74.7696 65.027 74.7696 64.9928 74.7353C64.8905 74.6665 64.8564 74.5634 64.8905 74.426C65.1634 73.3265 65.4022 71.9177 65.6752 70.5776C65.6752 70.5089 65.7434 70.4058 65.8116 70.3714C65.8799 70.3371 65.9822 70.3371 66.0505 70.3714C66.4599 70.5776 67.8928 70.8181 68.4045 70.8868C68.5069 70.8868 68.5751 70.9556 68.6092 71.0586C68.6433 71.1617 68.6092 71.2648 68.541 71.3335C68.3022 71.5741 68.0292 71.8833 67.7222 72.2269C67.0399 72.9828 66.221 73.9106 65.2658 74.7009C65.2658 74.7352 65.1975 74.7696 65.1293 74.7696ZM66.1187 70.9899C65.914 71.952 65.7434 72.9141 65.5728 73.7388C66.221 73.1203 66.801 72.4674 67.3469 71.8489C67.5175 71.6771 67.654 71.5053 67.8245 71.3335C67.3128 71.2648 66.6305 71.1274 66.1187 70.9899ZM34.0488 71.6084C33.9123 71.6084 33.8441 71.5397 33.81 71.4366C33.6735 71.093 33.537 70.5776 33.537 70.5776C33.5029 70.4745 33.5712 70.3371 33.6735 70.2683C33.9123 70.1309 34.0488 70.0622 34.2535 69.9591L34.7311 69.6842C34.8335 69.6155 34.97 69.6498 35.0382 69.7186C35.1064 69.8217 35.1405 69.9247 35.0723 70.0278C34.9017 70.3371 34.7653 70.5432 34.6288 70.7838C34.5264 70.9556 34.4241 71.1617 34.2535 71.4023C34.2535 71.5397 34.1511 71.5741 34.0488 71.6084ZM84.0301 70.8181C83.996 70.8181 83.9277 70.8181 83.8936 70.7838C83.7913 70.715 83.7571 70.5776 83.7913 70.4745L84.0301 69.6842C84.2689 68.8596 84.5418 67.9662 84.883 66.8666C84.9171 66.7979 84.9512 66.7292 85.0195 66.6948C85.0877 66.6605 85.1559 66.6605 85.2242 66.6948L87.1347 67.5195C87.2029 67.5538 87.2712 67.6226 87.3053 67.7256C87.3053 67.8287 87.3053 67.8974 87.203 67.9662C86.8959 68.2754 86.5889 68.5503 86.2477 68.8939C85.7018 69.4437 85.0536 70.0622 84.2348 70.7494C84.1324 70.7838 84.0642 70.8181 84.0301 70.8181ZM85.2583 67.3133C84.9854 68.2067 84.7465 68.997 84.5418 69.7186C85.0195 69.2719 85.4289 68.8596 85.8383 68.4816C86.0771 68.2754 86.2818 68.0349 86.4865 67.8287L85.2583 67.3133ZM40.4969 62.709C40.3945 62.709 40.3263 62.6746 40.2581 62.5715C40.1898 62.4684 40.1898 62.2966 40.2922 62.2279C40.7016 61.8843 40.9745 61.6781 41.1792 61.5063C41.3839 61.3689 41.4863 61.2658 41.6228 61.1284C41.7251 61.0596 41.8616 61.0253 41.9639 61.094L42.1004 61.1627C42.2369 61.2314 42.3051 61.2658 42.5439 61.4033C42.6463 61.4376 42.7145 61.5407 42.7145 61.6438C42.7145 61.7469 42.6463 61.8499 42.5439 61.8843C41.998 62.1248 41.691 62.2279 41.3157 62.3997L40.5992 62.709C40.5651 62.709 40.531 62.709 40.4969 62.709ZM114.496 61.2658C114.394 61.2658 114.258 61.1971 114.224 61.094C114.189 60.9566 114.224 60.8191 114.36 60.7504C114.633 60.613 114.804 60.5442 114.906 60.4755C115.111 60.3724 115.179 60.3381 115.452 60.2006C115.52 60.1663 115.588 60.1663 115.691 60.2006C115.759 60.235 115.827 60.3037 115.827 60.3724C115.861 60.4412 115.861 60.5099 115.895 60.5442C115.929 60.6817 115.998 60.8191 115.929 60.9566C115.895 61.0253 115.793 61.094 115.725 61.094C115.042 61.1971 114.531 61.2658 114.496 61.2658ZM57.5554 53.8095C57.2483 53.8095 57.2142 53.569 57.2142 53.5346C57.2142 53.5003 57.2142 53.4659 57.2142 53.4659C57.2483 53.2254 58.3742 47.6589 59.2953 46.3532C59.5683 45.9752 59.9094 45.8378 59.9777 45.8378C59.9777 45.8378 60.0118 45.8378 60.0459 45.8378C60.0459 45.8378 60.4212 45.8034 60.967 45.8034C61.0012 45.8034 61.0694 45.8034 61.1035 45.8378C61.9906 46.2845 62.8776 46.3876 63.7305 46.1814C63.7987 46.1471 64.1058 45.9752 64.3446 45.8378C64.4129 45.8034 64.4811 45.7691 64.5493 45.8034C64.6176 45.8034 64.6858 45.8722 64.7199 45.9409C65.0952 46.5937 66.3234 47.1779 66.6305 47.1779C66.6987 47.1779 66.801 47.2122 66.8693 47.281C66.9375 47.3497 66.9375 47.4528 66.9375 47.5215C66.7328 48.3118 66.5622 48.9646 66.3916 49.6519C66.1869 50.5452 65.9481 51.4386 65.5728 52.7787C65.5387 52.8818 65.4705 52.9505 65.3681 52.9849C65.2658 52.9849 65.1634 52.9505 65.0952 52.8818L62.8094 49.8237C62.4341 50.1673 62.0247 50.5109 61.6153 50.9232C59.7388 52.6412 58.4424 53.7752 57.7942 53.8782C57.6918 53.8095 57.6236 53.8095 57.5554 53.8095ZM60.1141 46.3532C60.0459 46.3876 59.8753 46.4907 59.7388 46.6625C58.9883 47.6933 58.0671 51.954 57.7942 53.2254C58.4424 52.9849 60.0459 51.5073 61.24 50.4422C61.7517 49.9611 62.2635 49.5144 62.6729 49.1708C62.7411 49.1364 62.8094 49.1021 62.8776 49.1021C62.9458 49.1021 63.0141 49.1364 63.0823 49.2052L65.1975 52.0571C65.4705 50.9919 65.6752 50.236 65.8458 49.4801C65.9822 48.8959 66.1187 48.3118 66.2893 47.6246C65.7093 47.4528 64.8564 46.9717 64.3787 46.3876C64.2081 46.4907 63.9693 46.6281 63.8329 46.6625C62.8776 46.903 61.8541 46.7999 60.8988 46.3189C60.4894 46.3189 60.2165 46.3532 60.1141 46.3532ZM96.6192 45.0475C96.5851 45.0475 96.5169 45.0131 96.4827 45.0131C96.4145 44.9788 96.3463 44.8757 96.3463 44.7726C96.3463 43.9136 96.858 42.1612 96.858 42.0925C97.4039 40.8211 98.018 40.1339 99.1439 39.5498C99.2462 39.5154 99.3486 39.5154 99.4168 39.5841C99.485 39.6529 99.5533 39.7216 99.5192 39.8247C99.4168 40.6837 99.178 41.8863 98.7004 42.9515C98.5298 43.2951 97.7451 44.4634 96.6875 45.0131C96.6875 45.0475 96.6533 45.0475 96.6192 45.0475ZM97.3698 42.2986C97.3698 42.2986 97.0286 43.4325 96.9263 44.2916C97.5745 43.7762 98.1204 43.0546 98.2568 42.7453C98.598 41.955 98.8368 41.0617 98.9392 40.3057C98.2227 40.7868 97.7451 41.3709 97.3698 42.2986ZM117.942 35.7357C117.567 35.7357 117.362 35.6326 117.294 35.4265C117.26 35.3234 117.226 35.1172 117.396 34.9111C117.635 34.5331 118.318 34.1895 118.795 34.1895C119.068 34.1895 119.239 34.2926 119.307 34.3957C119.409 34.4987 119.443 34.6362 119.443 34.7736C119.409 35.1172 118.966 35.4608 118.863 35.5296C118.591 35.667 118.249 35.7357 117.942 35.7357ZM117.84 35.186C117.874 35.186 117.908 35.186 117.942 35.186C118.147 35.186 118.386 35.1172 118.556 35.0485C118.625 35.0141 118.761 34.8423 118.829 34.7736C118.795 34.7736 118.795 34.7736 118.761 34.7736C118.454 34.7393 118.011 35.0141 117.84 35.186Z" fill="white"/>
<path d="M30.1252 63.2588C30.1935 63.2245 30.2276 63.1214 30.2276 63.0527C30.2276 62.8808 30.5005 61.5408 30.7394 60.3382C30.7735 60.2351 30.7052 60.0976 30.6029 60.0633C30.5005 59.9945 30.3982 59.9945 30.2958 60.0976C29.4088 60.8192 28.6923 61.2659 28.1124 61.4033C30.7735 49.5832 32.5817 44.1886 33.4687 41.9207C34.1852 42.3674 34.731 42.608 35.5498 42.608C35.5498 42.608 35.5498 42.608 35.584 42.608C36.7439 42.4018 37.4263 41.6115 37.4263 40.4089C37.4263 39.6186 37.2216 38.7939 35.891 38.2441C35.1745 37.9349 34.151 37.6944 32.7523 37.9692C29.9547 38.6221 27.8735 39.9278 26.4065 41.9895C24.9395 44.1198 23.643 47.281 22.3807 51.6792C20.9819 53.1224 19.5831 53.5691 18.5255 53.7752C17.7408 53.9127 17.0926 53.7752 16.7855 53.3973C16.615 53.1567 16.5467 52.8475 16.6491 52.4695C17.7749 48.2431 19.2761 43.6731 19.3102 43.6388C19.3443 43.5701 19.3443 43.467 19.2761 43.3983C19.2078 43.3295 19.1396 43.2952 19.0714 43.2952C18.7984 43.2952 15.3867 43.6388 14.1585 43.8793C10.8833 44.4978 8.18807 46.0784 5.93636 48.6898C3.75287 51.2325 2.66113 53.8096 2.66113 56.3523C2.66113 57.3144 2.76348 58.4483 3.37759 59.4104C3.85522 60.132 4.46933 60.8536 5.52695 60.8536C5.76577 60.8536 6.00459 60.8192 6.24341 60.7505C7.06221 60.51 8.05161 59.9602 8.05161 58.5514C8.05161 57.9329 7.74455 57.3144 7.16457 56.6959C6.68693 56.2148 6.41399 55.4589 6.41399 54.9435C6.41399 53.3629 7.19868 51.7479 8.73394 50.133C10.0304 48.7929 11.4633 47.8652 12.9644 47.3154C12.3845 49.2052 11.2245 53.1224 11.2586 54.0845C11.2927 55.0809 11.9068 56.4897 13.6127 57.2113C14.2268 57.4862 14.9432 57.5893 15.7961 57.5893C16.4102 57.5893 17.1267 57.5206 18.082 57.3831C19.2761 57.1426 20.4702 56.6615 21.6643 55.9743L20.9819 59.2386C19.9925 63.1557 16.7514 63.7399 16.615 63.7399C16.4785 63.7742 16.3761 63.8773 16.3761 64.0148C16.3761 64.4271 16.0008 66.1108 15.8644 66.6949C15.8303 66.798 15.8644 66.9011 15.9667 66.9698C16.0008 67.0041 16.0691 67.0385 16.1373 67.0385C16.1714 67.0385 16.2055 67.0385 16.2397 67.0042C16.4102 66.9354 16.5808 66.8323 16.7855 66.6949C18.0137 66.0077 20.0266 64.8051 23.6772 64.8051C28.1124 64.702 30.057 63.3275 30.1252 63.2588ZM29.0335 45.4943C27.9076 49.4458 26.9183 54.325 26.0312 58.7919C25.8265 59.7884 25.6218 60.7848 25.4512 61.7126H24.9395C24.9736 61.5751 25.0077 61.369 25.0759 61.1284C26.7818 52.9849 28.0782 48.2088 29.0335 45.4943Z" fill="white"/>
<path d="M47.0129 82.0541L46.2624 82.2259C46.3647 75.8348 46.8082 67.2789 48.48 61.953C48.5482 61.7469 48.5823 61.6438 48.5823 61.575C48.5823 61.472 48.5141 61.3689 48.4117 61.3345C48.3094 61.3002 48.207 61.3345 48.1047 61.4032C47.9682 61.5407 46.9447 61.9187 46.0577 62.1592C45.9894 62.1935 45.9212 62.2279 45.8871 62.2966C43.8401 66.7635 43.3283 80.9546 43.2601 82.9131L42.7142 83.0506C42.4413 69.4093 45 62.5372 45.0342 62.5028C45.0683 62.3997 45.0342 62.2623 44.9659 62.1935C44.8977 62.1248 44.7612 62.0905 44.6589 62.1592C44.5565 62.2279 43.7036 62.5372 42.7483 62.9151C36.4708 65.3204 30.5345 67.6569 29.7839 68.619C28.351 69.9247 28.1463 71.2992 28.2145 72.2269C28.2828 73.3608 28.8286 74.2542 29.3063 74.5634C30.3639 75.285 31.558 75.2163 32.3086 74.3916C32.7521 73.9106 32.9909 73.2577 32.9568 72.6392C32.9227 71.8833 32.5474 71.1617 32.4109 70.9212C32.445 70.4745 32.6838 69.9935 33.1274 69.5124C33.7756 68.8252 36.4708 67.6913 38.4155 67.0384C37.699 68.0349 36.6073 69.7186 35.2426 71.7459C31.285 77.7246 23.0288 90.1289 21.5617 90.1633C21.5276 90.1289 20.6406 89.5104 19.6171 89.5104C18.9688 89.5104 18.423 89.7509 17.9453 90.2663C17.1948 91.4346 17.3653 92.2936 17.6383 92.809C18.1841 93.8399 19.5488 94.2866 20.3335 94.2866H20.3676C22.1758 94.2522 23.6087 93.4963 25.144 91.6751C26.4404 90.1633 32.6838 81.092 36.1638 75.5599C36.5732 74.9414 36.9826 74.3573 37.4261 73.7044C37.972 72.9485 38.5178 72.1582 39.0296 71.3335C38.9955 71.7802 38.9272 72.2269 38.8931 72.6736C38.6884 74.7009 38.4837 77.2092 38.1084 80.0612C37.8696 85.1122 36.3343 86.7959 36.3343 86.7959C36.2661 86.8646 36.232 87.0021 36.2661 87.1051C36.3002 87.2082 36.4026 87.2769 36.5049 87.2769C38.8931 87.2769 40.7695 86.7615 42.0319 85.8338C44.113 84.7686 46.74 84.7342 46.7741 84.7342C46.9106 84.7342 47.0471 84.6312 47.0471 84.4594C47.0471 83.3942 47.2859 82.329 47.2859 82.2946C47.32 82.1915 47.2859 82.0885 47.2176 82.0197C47.1835 82.0541 47.1153 82.0197 47.0129 82.0541Z" fill="white"/>
<path d="M132.169 60.9567C131.793 60.7849 130.804 60.5444 129.883 60.5787C129.644 60.5787 129.405 60.6131 129.2 60.6474C126.846 61.1972 124.936 62.2968 122.411 64.6333L120.125 66.798C120.466 65.2861 121.149 62.1593 121.763 59.3417C122.275 56.9365 122.718 54.8405 122.855 54.3938C122.889 54.2907 122.855 54.222 122.786 54.1532C122.718 54.0845 122.616 54.0502 122.548 54.0845C121.217 54.3594 112.551 56.5585 110.573 57.7611C109.344 58.5171 106.922 60.2351 107.229 62.4686C107.604 64.2553 108.56 64.9082 109.31 65.1487C109.617 65.2518 110.027 65.3549 110.538 65.3892C110.334 65.561 110.129 65.7328 110.061 65.8016C109.344 66.5231 109.003 67.2104 108.628 68.0694L108.389 68.5504C108.048 69.272 107.263 69.7874 106.854 69.9936C106.717 69.5469 106.41 68.6879 106.24 68.1381C106.103 67.7601 105.899 67.1416 105.25 67.1416C105.012 67.1416 104.739 67.2104 104.432 67.3822C103.647 67.7945 101.907 69.6156 100.952 70.6121C101.463 68.3099 102.93 62.0906 103.954 57.7268C103.988 57.6237 103.954 57.5206 103.886 57.4519C103.817 57.3832 103.715 57.3488 103.647 57.3832C102.555 57.658 99.1775 59.0325 99.041 59.0668C98.9728 59.1012 98.9046 59.1699 98.8705 59.2386L96.994 66.7293C96.7552 67.9319 96.1411 69.0658 94.9129 70.4746C94.0941 71.4024 93.3435 71.9178 92.6271 72.0209C93.0706 69.9936 94.8105 61.7813 94.8105 61.2316C94.8105 60.2007 93.2753 59.3074 92.3541 59.3074C91.5353 59.3074 90.853 59.5135 89.7612 60.51C88.9083 61.2659 84.9508 64.6333 84.9166 64.6677C84.8484 64.702 84.8143 64.8051 84.8143 64.8738C84.8143 64.9425 84.8484 65.0456 84.9166 65.08C85.7355 65.6298 87.066 66.4544 87.1001 66.4544C87.2025 66.5231 87.3389 66.4888 87.4413 66.4201C87.646 66.2139 88.806 65.1143 89.5224 64.4615C89.4201 65.1143 89.2495 66.0077 88.8742 67.4852C87.2366 69.4094 83.6202 72.7768 81.9826 74.1512C82.4261 72.0552 83.9614 65.7328 85.019 61.3347C85.0531 61.2316 85.019 61.1285 84.9508 61.0941C84.8825 61.0254 84.7802 60.991 84.6778 61.0254C83.5861 61.3003 80.345 62.1593 80.345 62.1593C80.2426 62.1937 80.1403 62.2968 80.1403 62.3998C80.1062 62.7091 79.0485 66.4201 78.3321 68.8253C76.3192 69.1689 75.398 69.272 74.9886 69.3064C75.1592 68.6535 75.2616 68.1381 75.3639 67.7258C75.7392 66.2139 75.8074 65.939 75.8074 64.9425C75.8074 64.324 75.5686 62.8122 73.351 63.0183C71.6793 63.1558 66.4935 68.1037 65.9135 68.6535C65.8453 68.7222 65.8112 68.8253 65.8453 68.894C65.8453 68.9971 65.9135 69.0658 66.0159 69.1002C67.2441 69.6156 68.4382 69.9249 68.5064 69.9249C68.6088 69.9592 68.7111 69.9249 68.7794 69.8561C69.4958 69.1346 69.9734 68.6191 70.3146 68.2755L69.7005 71.746C68.3699 73.3266 64.3441 76.797 62.843 78.1027C63.3206 75.938 64.9924 69.5125 66.1523 65.0456C66.1865 64.9425 66.1523 64.8395 66.0841 64.8051C66.0159 64.7364 65.9135 64.702 65.8112 64.7364C64.7194 65.0113 61.5124 65.8703 61.5124 65.8703C61.4101 65.9046 61.3077 66.0077 61.3077 66.1108C61.2736 66.4201 60.0113 71.0588 59.1925 74.0482C58.3396 76.6939 55.5079 78.8587 54.4502 79.4772C54.6208 78.7212 54.9279 77.2781 55.2691 75.8349C56.0879 72.1583 56.702 69.3407 56.7361 68.894C56.7702 68.3443 56.8043 67.0386 56.0196 66.6949C55.4396 66.4201 55.0985 66.4544 54.2114 66.798C53.6997 67.0042 48.241 71.4024 47.1492 72.2957C47.081 72.3301 47.0469 72.4332 47.0469 72.5363C47.0469 72.605 47.081 72.7081 47.1492 72.7424C47.968 73.2922 49.2986 73.842 49.3668 73.8763C49.4692 73.9107 49.5715 73.8763 49.6739 73.8076C49.7421 73.7045 50.0492 73.464 50.3903 73.1548C50.7656 72.8112 51.2433 72.3988 51.6527 72.0209C51.0044 74.701 49.5374 81.6419 49.5374 82.1917C49.5374 83.0507 49.8103 83.6692 50.4245 84.322C50.6974 84.5969 51.1068 84.7344 51.6527 84.7344C51.8574 84.7344 52.0621 84.7 52.3009 84.6656C53.5973 84.4251 56.6337 82.226 57.8961 81.1265C57.9643 81.6075 58.169 82.2947 58.8513 82.6727C59.7043 83.1538 60.1478 83.1194 60.6936 82.9476C62.263 82.4665 65.3335 79.752 68.5746 76.6939C68.097 78.2402 67.6535 80.5423 67.6194 80.6454C67.6194 80.7485 67.6194 80.8172 67.6876 80.886C67.7558 80.9547 67.8582 80.9547 67.9605 80.9547C69.0182 80.6798 72.4981 79.8208 72.5663 79.8208C72.6687 79.7864 72.771 79.6833 72.771 79.5802C72.8051 79.3054 73.6922 75.3195 74.3063 72.605L77.7862 72.1239C77.5474 73.3266 77.3086 74.323 77.138 75.079C76.9333 75.9724 76.7968 76.4878 76.7968 76.797C76.7968 77.7591 77.718 79.5115 79.5603 79.271C80.4814 79.1336 82.699 77.2093 86.2813 74.0482C86.7931 73.6015 87.2707 73.1548 87.7825 72.7081C87.7142 73.0517 87.646 73.4297 87.5437 73.7733C87.4072 74.3574 87.3389 74.6666 87.3389 74.8041C87.3389 75.5257 87.4413 76.4534 88.2942 76.9688C89.0107 77.4155 89.5565 77.4155 90.1024 77.2781C90.7506 77.1063 94.6741 74.323 96.0729 73.3266C96.2435 74.1512 96.8234 75.7662 98.4611 75.5944C99.7916 75.4569 101.429 74.2543 104.295 71.3337V71.368C104.739 72.2957 105.08 72.9486 105.557 73.2922C106.24 73.7733 107.059 73.9794 107.911 73.8763C109.174 73.7045 111.528 72.4332 112.961 69.5469C113.95 67.554 114.598 66.3513 115.076 65.6985C115.383 65.2861 115.622 65.08 115.861 65.0113C115.383 66.9011 115.178 68.6191 115.178 69.1346C115.178 70.1997 115.383 70.9213 115.827 71.2649C116.679 71.9521 117.328 72.1239 118.249 71.8491C119.682 71.4367 122.206 69.2376 124.458 67.2791C125.891 66.0421 127.563 64.8051 127.87 64.5989C128.552 64.2553 129.337 64.4958 129.78 65.0113C130.326 65.6985 130.974 65.7672 131.418 65.7672C131.657 65.7672 131.896 65.7328 132.1 65.6641C132.544 65.561 133.601 65.08 133.772 63.465C133.874 62.1937 133.056 61.3347 132.169 60.9567ZM117.601 58.5514L116.441 62.125C116.338 62.125 116.202 62.1593 116.065 62.1937C115.588 62.2624 114.94 62.3655 114.291 62.3655C112.722 62.3655 112.62 61.747 112.585 61.5065C112.483 60.888 112.961 60.4069 113.814 59.8228C114.462 59.4105 116.645 58.7576 117.601 58.5514Z" fill="white"/>
<path d="M136.536 37.763C136.331 36.045 135.239 35.0829 133.533 35.0829C132.612 35.0829 131.52 35.3921 130.702 35.9075C128.859 37.0414 125.072 39.756 123.605 40.7868C124.219 38.0723 126.164 29.0697 126.198 28.9667C126.232 28.8636 126.198 28.7605 126.13 28.6918C126.062 28.623 125.959 28.623 125.891 28.623C125.721 28.6918 125.277 28.7605 124.663 28.8979C121.592 29.5851 115.247 31.0283 113.677 32.0248C111.733 33.2274 110.607 34.9454 110.607 36.6978C110.607 37.5569 111.153 38.8282 112.654 39.4123C112.927 39.5498 113.2 39.6185 113.473 39.6872C112.517 40.4775 111.937 41.7832 111.46 42.9515C110.675 44.807 110.539 44.7726 110.095 44.7383C109.617 44.7039 109.413 44.1885 109.14 43.5013C109.003 43.089 108.867 42.711 108.594 42.5392C108.457 42.4361 108.253 42.3674 108.048 42.3674C106.922 42.3674 105.08 44.3947 103.886 45.2193C104.397 42.9515 106.137 35.9075 107.297 31.2688C107.332 31.1657 107.297 31.0627 107.229 31.0283C107.161 30.9596 107.059 30.9252 106.956 30.9596C105.592 31.2688 104.09 31.6812 104.056 31.6812C103.988 31.7155 103.92 31.7499 103.886 31.853C103.817 32.0248 103.647 32.4371 103.579 32.6776C102.76 32.8494 99.9623 33.7428 97.9153 34.5331C92.593 36.5948 91.0236 42.5392 90.5119 44.4977C90.4436 44.7039 90.3754 44.9788 90.4095 44.9788L88.806 46.903C88.2602 47.4871 87.6119 48.1744 86.9637 48.6898C87.1684 47.762 87.6461 46.0783 88.0555 44.5321C88.806 41.7489 89.2496 40.0652 89.2496 39.6872C89.4884 38.141 89.3519 37.0758 88.8401 36.423C88.4649 35.9763 87.8849 35.7357 87.032 35.7701C86.8614 35.7701 86.6908 35.7701 86.5202 35.8045C85.3261 35.9075 82.6309 37.8661 81.6074 38.6564C81.3685 37.9005 80.6521 36.9727 79.2192 37.2476C77.7863 37.4881 76.0804 38.5877 74.0675 40.5806C74.1016 40.1339 74.0675 39.6529 73.8628 39.2749C73.6922 38.9657 73.4534 38.7595 73.0781 38.6564C72.9417 38.622 72.737 38.519 72.3617 38.519C71.4746 38.519 70.3147 39.0687 68.8135 40.0996C67.9947 40.6837 66.8006 41.7145 65.743 42.7797C65.743 42.1612 65.5383 41.3366 64.2419 40.6493C63.8324 40.4432 63.1842 40.3401 62.4678 40.3401C61.2396 40.3401 58.749 40.7181 56.122 43.2264C53.0515 46.3876 51.9256 49.6519 51.5162 51.3355C51.0727 52.0228 48.6163 54.8747 47.4222 56.2835C47.9681 53.947 49.3669 47.9682 50.3563 43.7762C50.3904 43.6731 50.3563 43.57 50.288 43.5356C50.2198 43.4669 50.1174 43.4326 50.0151 43.4669C48.9575 43.7418 45.5799 44.8414 45.4093 44.8757C45.307 44.9101 45.2387 44.9788 45.2387 45.0819L43.3623 52.5725C42.7482 55.8025 40.2918 57.4518 39.1659 58.1734C39.6436 55.6994 41.1447 47.6246 41.1447 47.1092C41.1447 46.4563 40.5306 45.0475 38.6883 45.185C38.1424 45.2537 37.3577 45.666 36.1295 46.6281C35.3107 47.1779 31.4214 50.6483 31.2508 50.8201C31.1826 50.8889 31.1484 50.9919 31.1484 51.0607C31.1826 51.1637 31.2508 51.2325 31.319 51.2668C32.1037 51.5417 33.4684 52.0571 33.4684 52.0915C33.5707 52.1259 33.6731 52.0915 33.7754 52.0228C33.8778 51.8853 34.4578 51.473 34.9354 51.095C35.2425 50.8545 35.4813 50.6483 35.686 50.5109C35.6178 51.1637 35.4131 52.0228 35.106 53.4316L34.9354 54.2562C34.4919 56.0773 33.6049 60.0288 33.6049 60.6817C33.6049 61.6094 33.946 62.2623 34.5942 62.5715C35.0378 62.709 35.5154 62.8121 35.993 62.8121C37.153 62.8121 38.3471 62.3654 39.7118 61.4033C40.2577 60.9909 40.7353 60.5443 41.2129 60.1319C41.5882 59.8227 41.9294 59.4791 42.3388 59.1698C42.4411 59.7196 42.6458 60.5442 42.8505 60.7848C43.1576 61.1627 43.6011 61.3345 44.1129 61.3345C46.4328 61.3345 50.1857 57.3487 51.2774 56.1117C51.7892 57.4174 53.0856 58.6888 55.4397 58.8606C59.0902 59.1355 64.0713 53.9813 64.276 53.7752C64.3783 53.6721 64.3783 53.5003 64.276 53.3972L62.6384 51.473C62.5701 51.4043 62.536 51.3699 62.4337 51.3699C62.3654 51.3699 62.2972 51.4043 62.2289 51.4386L61.7513 51.9197C60.1137 53.6034 58.9537 54.8404 57.5549 54.9778C57.0432 55.0122 56.7702 55.0122 56.5314 54.8404C56.1561 54.5655 55.9514 53.8782 55.9514 53.0536C55.9514 51.7822 57.8961 46.422 58.3055 45.7347C58.6808 45.1506 59.1925 44.7726 59.7043 44.7383C59.9431 44.7383 60.4549 44.7383 61.2396 44.9788L61.376 45.0132C61.8537 45.185 62.3313 45.3568 62.8431 45.3568C63.2183 45.3568 63.5254 45.288 63.7983 45.0819C64.003 44.9444 64.3101 44.7039 64.5148 44.5665C65.0948 45.3224 65.9818 46.0096 66.05 46.044C66.1524 46.1127 66.2547 46.1127 66.323 46.0783C66.6983 45.8722 67.6194 45.0132 68.4723 44.1541C68.0288 46.3189 66.6642 52.1946 65.7089 56.2835C65.6748 56.3866 65.7089 56.4553 65.7771 56.524C65.8453 56.5928 65.9136 56.6271 66.0159 56.5928C67.2783 56.3866 70.5876 55.7337 70.6217 55.7337C70.7582 55.6994 70.8264 55.5963 70.8264 55.4588C70.8264 54.806 72.6687 46.1127 73.1805 45.3224C73.7264 44.1541 75.4322 42.9859 76.3192 42.4361L73.7946 54.5655C73.7946 54.6342 73.7946 54.7373 73.8628 54.806C73.9311 54.8747 73.9993 54.9091 74.1016 54.9091C75.0569 54.806 78.298 54.3593 78.4345 54.3249C78.571 54.2906 78.6392 54.1875 78.6733 54.0844C78.7757 53.2254 81.0274 44.0167 81.505 43.4669C81.5391 43.4326 81.5391 43.3982 81.5732 43.3638C81.9144 42.2643 83.3132 41.1304 84.132 40.5463C83.5861 42.9859 81.8803 50.5109 81.8803 50.9919C81.8803 51.8166 82.4262 53.5346 84.0297 53.5346C84.2344 53.5346 84.4391 53.5003 84.6438 53.4659C86.6226 52.9849 88.9425 50.8201 90.3072 49.3426C90.5119 49.9955 90.9554 50.5453 91.433 50.8889C91.706 51.095 92.2518 51.1294 92.6612 51.1294C94.2647 51.1294 96.7553 50.4765 98.6658 48.7241C98.9046 49.6862 99.587 50.236 100.645 50.236C101.327 50.236 102.043 49.9955 102.487 49.7893C103.92 49.1021 105.864 47.4871 107.093 46.1814C107.707 47.762 109.276 48.6554 111.05 48.3805C113.029 48.0713 114.633 46.7312 115.827 44.3603C115.997 44.0167 116.168 43.6387 116.338 43.2608C116.952 41.852 117.601 40.4088 118.897 39.9278C118.249 41.5084 117.84 42.6766 118.01 44.2572C118.181 45.7691 119.068 46.5594 120.569 46.5594C121.524 46.5594 122.411 46.2158 122.718 46.044C124.629 44.9444 126.983 42.8141 128.723 41.2335C129.644 40.3744 130.429 39.6529 130.838 39.4123C131.418 39.0344 131.793 39.2749 132.305 39.6529C132.442 39.756 132.578 39.859 132.749 39.9621C133.124 40.2026 133.567 40.3057 134.011 40.3057C134.762 40.3057 135.444 39.9965 135.887 39.4811C136.433 38.9657 136.604 38.3815 136.536 37.763ZM120.774 32.8151L119.818 36.4573C119.272 36.6635 118.112 37.0414 117.225 37.0414C116.884 37.0414 116.611 36.9727 116.441 36.8696C116.27 36.7666 116.1 36.4573 116.065 35.9419C116.031 35.6327 116.065 34.8767 116.714 34.3269C117.635 33.5366 119.784 32.9181 120.774 32.8151ZM95.22 46.6968C95.1177 46.0096 94.913 44.1198 96.0047 41.852C97.267 39.2405 100.167 37.5912 101.122 37.1445C101.088 38.4502 100.747 42.7797 98.0176 45.4255C97.267 46.1814 95.8 46.5594 95.22 46.6968Z" fill="white"/>
<path d="M52.3014 15.669C51.6531 15.3941 50.9367 15.3597 50.2885 15.5315C49.8449 15.6346 49.1285 15.9439 48.105 16.4936C47.2521 16.9403 46.365 17.4214 45.5121 17.9024C45.3415 18.0055 45.2051 18.1773 45.1368 18.3835C45.1027 18.5896 45.1368 18.7958 45.2392 18.9676C46.7403 21.3041 48.2073 23.675 49.572 26.0116C49.7085 26.2521 49.9473 26.3895 50.2202 26.3895C50.3567 26.3895 50.4591 26.3552 50.5955 26.2865C51.1073 26.0116 51.5849 25.7367 52.0967 25.4618C52.2672 25.3587 52.4037 25.1869 52.4719 25.0151C52.5402 24.8089 52.5061 24.6028 52.4037 24.431C52.0284 23.7438 51.619 23.0909 51.2437 22.4037C51.3461 22.335 51.4484 22.3006 51.5508 22.2319C52.3696 21.8196 52.8813 21.5103 53.2566 21.2011C53.5637 20.9262 53.8366 20.6169 54.0754 20.2046C54.3143 19.7923 54.4166 19.3456 54.4507 18.7958C54.4507 18.2804 54.3143 17.7306 54.0072 17.1465C53.5637 16.4249 52.9837 15.9439 52.3014 15.669ZM49.3673 19.1394C49.9132 18.8302 50.2885 18.6927 50.4249 18.624C50.5614 18.5896 50.6638 18.5553 50.8343 18.624C50.8685 18.624 50.9367 18.6584 51.0049 18.7958C51.039 18.8645 51.039 18.8989 51.0732 18.9676C51.0732 19.0363 51.039 19.1051 50.9708 19.1738C50.9708 19.2081 50.8002 19.3456 49.9814 19.7923L49.8449 19.861C49.8108 19.8953 49.7767 19.8954 49.7426 19.9297C49.6061 19.6892 49.4697 19.4487 49.2991 19.2081C49.3332 19.1394 49.3332 19.1394 49.3673 19.1394Z" fill="#A2600B"/>
<path d="M43.7721 19.8267C43.4992 19.5519 43.0557 19.5175 42.7486 19.758C40.9404 21.2355 39.1663 22.7818 37.4605 24.3624C37.2899 24.4998 37.2217 24.706 37.2217 24.9121C37.2217 25.1183 37.2899 25.3245 37.4605 25.4619C39.4393 27.3861 41.3498 29.379 43.1921 31.372C43.3286 31.5438 43.5333 31.6125 43.738 31.6125C43.9086 31.6125 44.0792 31.5438 44.2498 31.4063C44.6592 31.0284 45.0686 30.6847 45.5121 30.3068C45.6486 30.1693 45.7509 29.9975 45.7509 29.7914C45.7509 29.5852 45.7168 29.379 45.5803 29.2416C44.2157 27.6954 42.8169 26.2178 41.3839 24.7403C41.8616 24.328 42.3392 23.9157 42.8169 23.5033C44.2157 25.0152 45.6144 26.5615 46.945 28.1077C47.2179 28.4169 47.6615 28.4513 48.0026 28.2108C48.4461 27.8672 48.8556 27.4892 49.2991 27.1456C49.4697 27.0081 49.572 26.8363 49.572 26.6302C49.6061 26.424 49.5379 26.2178 49.4014 26.0804C47.5591 23.95 45.6827 21.854 43.7721 19.8267Z" fill="#A2600B"/>
<path d="M100.44 20.9264C98.5297 19.552 96.5168 18.2119 94.5039 16.9062C94.1627 16.7 93.7533 16.7687 93.5145 17.078C93.2416 17.4559 92.9345 17.8339 92.6616 18.2119C92.5251 18.3837 92.491 18.5899 92.5251 18.796C92.5592 19.0022 92.6957 19.174 92.8663 19.3114C93.378 19.6207 93.8898 19.9643 94.4015 20.3079C93.1733 21.9572 91.9451 23.6409 90.8193 25.2902C90.7169 25.462 90.6487 25.6682 90.7169 25.8744C90.751 26.0805 90.8875 26.2523 91.0581 26.3554C91.5357 26.6646 92.0134 26.9739 92.491 27.2831C92.6275 27.3862 92.7639 27.4206 92.9004 27.4206C93.1392 27.4206 93.378 27.3175 93.5145 27.1113C94.6745 25.462 95.9368 23.7783 97.1991 22.1634C97.7109 22.5414 98.2226 22.885 98.7344 23.2629C99.0755 23.5035 99.5191 23.4347 99.7579 23.1255C100.065 22.7475 100.338 22.4039 100.645 22.0259C100.781 21.8541 100.85 21.648 100.816 21.4418C100.713 21.2356 100.577 21.0638 100.44 20.9264Z" fill="#A2600B"/>
<path d="M73.9316 17.662C73.8974 15.6347 73.8974 13.6074 73.8633 11.5457C73.8633 11.1334 73.5222 10.7898 73.1128 10.7898C70.9293 10.7898 68.7458 10.8242 66.5964 10.9272C66.3917 10.9272 66.2211 11.0303 66.0847 11.1678C65.9482 11.3052 65.88 11.5114 65.88 11.7175L65.9141 12.5766C65.9823 13.951 65.9823 15.1193 65.9141 16.0126C65.88 16.6655 65.7435 17.284 65.5388 17.8338C65.4364 17.8338 65.3341 17.8338 65.2659 17.8338C65.1635 17.8338 65.0612 17.8681 64.9929 17.9025C65.0612 17.2496 64.9929 16.5624 64.8223 15.8408C64.4129 14.329 63.6283 13.2294 62.4342 12.5766C61.2742 11.9581 59.8754 11.8206 58.3742 12.1986C57.5554 12.4391 56.839 12.7484 56.2931 13.1607C55.8496 13.5043 55.4402 13.9166 55.1673 14.432C54.8943 14.9475 54.6896 15.4629 54.6214 16.0126C54.519 16.7686 54.6214 17.5589 54.9284 18.4866C55.4061 19.8954 56.2249 20.9262 57.3849 21.5104C58.5107 22.0945 59.8072 22.1976 61.2059 21.8196C62.6389 21.476 63.6965 20.7201 64.3788 19.6549C64.4812 19.5174 64.5494 19.38 64.6176 19.2426L64.7882 21.7509C64.8223 22.1632 65.1635 22.4725 65.5388 22.4725C65.5729 22.4725 65.5729 22.4725 65.5729 22.4725C66.0505 22.4381 66.5282 22.4038 67.0058 22.4038C67.2105 22.4038 67.3811 22.3007 67.5176 22.1632C67.654 21.9914 67.7223 21.8196 67.7223 21.6135L67.654 20.5826C68.9846 20.5483 70.3152 20.5139 71.6457 20.4795V21.5104C71.6457 21.9227 71.9869 22.2663 72.3963 22.2663C72.8739 22.2663 73.3516 22.2663 73.8633 22.2663C74.068 22.2663 74.2386 22.1976 74.4092 22.0601C74.5457 21.9227 74.6139 21.7165 74.6139 21.5104V18.3492C74.6821 18.0056 74.341 17.662 73.9316 17.662ZM58.1695 17.5245C57.9307 16.8373 57.9307 16.2875 58.1354 15.9096C58.3401 15.5316 58.6813 15.2911 59.2272 15.1536C59.4319 15.0849 59.6025 15.0849 59.8072 15.0849C60.1142 15.0849 60.3871 15.1536 60.6601 15.2911C61.0695 15.5316 61.3765 16.0126 61.5471 16.6999C61.7518 17.4214 61.7518 17.9712 61.513 18.3835C61.3083 18.7615 60.9671 19.0364 60.4554 19.1395C60.2848 19.1738 60.1142 19.2082 59.9436 19.2082C59.6366 19.2082 59.3636 19.1395 59.1248 18.9677C58.7154 18.6928 58.3742 18.2117 58.1695 17.5245ZM70.5881 17.6963C70.0763 17.6963 69.5305 17.7307 68.9846 17.7307C69.2234 16.6999 69.2917 15.3598 69.2917 13.7792C69.7011 13.7792 70.1105 13.7448 70.554 13.7448C70.554 15.0505 70.5881 16.3906 70.5881 17.6963Z" fill="#A2600B"/>
<path d="M84.5761 13.0577C84.5079 12.8171 84.2691 12.611 84.0302 12.5423C83.382 12.4048 82.7338 12.2674 82.1197 12.1299C81.8468 12.0612 81.5397 12.1986 81.3691 12.4048C80.755 13.2295 80.1409 14.0541 79.5268 14.9131C79.288 13.951 79.0151 12.9546 78.708 11.8894C78.6398 11.6145 78.401 11.4083 78.0939 11.3396C77.4116 11.2022 76.6951 11.0991 76.0128 10.996C75.774 10.9617 75.501 11.0647 75.3304 11.2709C75.1598 11.4771 75.1257 11.752 75.194 12.0268C75.9104 14.0541 76.5928 16.0471 77.241 18.04C77.1045 18.2461 77.0363 18.2805 77.0363 18.2805C77.0363 18.2805 77.0022 18.3149 76.8998 18.3149C76.7975 18.3149 76.6951 18.3149 76.6269 18.2805L76.4222 18.2118C76.2857 18.1774 76.1151 18.1431 75.9445 18.1087C75.7398 18.0743 75.5351 18.1087 75.3645 18.2118C75.194 18.3149 75.0575 18.521 75.0234 18.6928C74.9551 19.1052 74.8528 19.5175 74.7846 19.9298C74.7163 20.2734 74.921 20.6514 75.2622 20.7888C75.6034 20.9263 76.0469 21.0294 76.5928 21.1325C76.7633 21.1668 76.9339 21.2012 77.1045 21.2012C77.6163 21.2012 78.0939 21.0294 78.5374 20.7545C79.0151 20.4109 79.4586 19.9298 80.0044 19.277C81.4374 17.4558 82.9044 15.6347 84.4396 13.848C84.6102 13.6074 84.6443 13.3325 84.5761 13.0577Z" fill="#A2600B"/>
<path d="M91.0921 18.1775L91.3309 18.2806C91.7062 18.4524 92.1497 18.315 92.3203 17.937L92.8662 16.8375C92.9685 16.6656 92.9685 16.4251 92.9003 16.219C92.8321 16.0128 92.6615 15.8754 92.4568 15.7723L92.2179 15.6692C91.3991 15.3256 90.785 15.1538 90.2392 15.1538C90.1368 15.1538 90.0686 15.1538 90.0003 15.1538C89.3521 15.2225 88.6357 15.6348 87.7828 16.3908C87.7486 16.4251 87.7145 16.4595 87.6804 16.4938C87.9192 15.9784 88.158 15.463 88.3969 14.9476C88.4992 14.7758 88.4992 14.5353 88.3969 14.3291C88.3286 14.1229 88.158 13.9855 87.9875 13.8824C87.4075 13.6419 86.8275 13.4357 86.2475 13.1952C85.8722 13.0578 85.4628 13.2296 85.2922 13.6075C84.1664 16.1159 83.0746 18.6586 82.017 21.2356C81.9488 21.4074 81.9488 21.648 82.017 21.8198C82.1193 21.9916 82.2558 22.1634 82.4264 22.2321C82.9723 22.4383 83.5181 22.6444 84.064 22.8506C84.4393 22.988 84.8828 22.8162 85.0193 22.4383C85.2922 21.8198 85.5652 21.1669 85.8381 20.5484V20.5828C85.8381 20.6171 85.8381 20.6515 85.8381 20.6859V20.7546V20.7889C85.8722 21.5792 85.9063 22.3695 85.9404 23.1255C85.9404 23.4347 86.1451 23.6753 86.4181 23.8127C87.0322 24.0876 87.6804 24.3281 88.2945 24.603C88.3969 24.6374 88.4992 24.6717 88.6016 24.6717C88.738 24.6717 88.9086 24.6374 89.0451 24.5343C89.2498 24.3968 89.3862 24.1219 89.3521 23.8814C89.318 23.0568 89.2498 22.1977 89.2157 21.3387C89.1815 20.6171 89.1133 20.0674 88.9768 19.6207C88.9427 19.4832 88.9086 19.3802 88.8404 19.2771C88.8404 19.2771 88.8404 19.2771 88.8745 19.2771C89.1133 19.1053 89.3863 18.8991 89.6251 18.6586C90.0345 18.2462 90.3074 18.0401 90.4098 17.9714C90.478 17.937 90.5121 17.9026 90.5803 17.9026C90.6486 18.0401 90.785 18.0401 91.0921 18.1775Z" fill="#A2600B"/>
<path d="M37.9375 24.9121C39.6433 23.3658 41.3833 21.8196 43.2256 20.3421C45.1703 22.3694 47.0126 24.4654 48.7867 26.5614C48.3432 26.905 47.8996 27.283 47.4561 27.6266C45.955 25.8742 44.4197 24.1561 42.8162 22.5068C41.9292 23.2284 41.0763 23.9843 40.2233 24.7403C41.8609 26.3896 43.4303 28.0733 44.9656 29.7913C44.5562 30.1693 44.1127 30.5129 43.7033 30.8909C41.8609 28.8292 39.9504 26.8706 37.9375 24.9121ZM50.2537 25.5993C48.8549 23.2284 47.422 20.8575 45.9209 18.521C46.7738 18.0399 47.6267 17.5932 48.4796 17.1122C49.469 16.5968 50.1513 16.2875 50.4925 16.2188C51.0384 16.0813 51.5501 16.1157 52.0619 16.3219C52.5737 16.528 53.0172 16.906 53.3583 17.4901C53.5972 17.9368 53.7336 18.3492 53.6995 18.7271C53.6995 19.1051 53.5972 19.4831 53.4266 19.7923C53.256 20.1016 53.0513 20.3421 52.7783 20.5483C52.4372 20.7888 51.9254 21.1324 51.209 21.476C50.8678 21.6478 50.5266 21.854 50.1855 22.0258C50.7313 22.9192 51.2431 23.8125 51.7548 24.7403C51.2431 25.0495 50.7655 25.3244 50.2537 25.5993ZM48.2408 18.8646C48.6502 19.5518 49.0596 20.2046 49.469 20.8919C49.7419 20.7201 50.049 20.5826 50.3219 20.4452C50.936 20.1016 51.3454 19.861 51.516 19.6892C51.6866 19.5174 51.789 19.3113 51.8231 19.0707C51.8231 18.8302 51.789 18.624 51.6525 18.4179C51.4819 18.143 51.3113 17.9712 51.0043 17.9025C50.7313 17.7994 50.4584 17.8337 50.1513 17.9025C49.9466 17.9712 49.5372 18.1774 48.9573 18.4522C48.7526 18.5897 48.4796 18.7271 48.2408 18.8646ZM55.6783 18.3148C55.4053 17.5245 55.3371 16.8029 55.4053 16.1844C55.4736 15.7377 55.6101 15.291 55.883 14.8787C56.1218 14.4664 56.4289 14.1228 56.8041 13.8479C57.2818 13.5043 57.8959 13.2294 58.6465 13.0232C59.9429 12.6796 61.137 12.7827 62.1264 13.2981C63.1158 13.8479 63.7981 14.7756 64.1393 16.0813C64.4804 17.3871 64.344 18.4522 63.7981 19.38C63.2181 20.2734 62.3311 20.8919 61.1029 21.2011C59.8405 21.5104 58.7488 21.4416 57.7935 20.9606C56.77 20.4452 56.0877 19.5862 55.6783 18.3148ZM57.4524 17.765C57.7253 18.6584 58.1688 19.2769 58.7488 19.6205C59.3288 19.9641 59.977 20.0328 60.6594 19.861C61.3417 19.6892 61.8534 19.3113 62.1605 18.7271C62.4675 18.143 62.5017 17.4214 62.2628 16.4937C61.9899 15.6003 61.5805 14.9474 61.0346 14.6382C60.4546 14.2946 59.7723 14.2259 59.0559 14.3977C58.3053 14.6038 57.7935 14.9818 57.4865 15.5659C57.1453 16.1157 57.1453 16.8373 57.4524 17.765ZM66.6298 11.7175C68.7792 11.6144 70.9627 11.5801 73.112 11.5801C73.112 13.8479 73.112 16.1501 73.1461 18.4522C73.4191 18.4522 73.6579 18.4522 73.9308 18.4522C73.9308 19.5174 73.9308 20.5826 73.9308 21.6478C73.4532 21.6478 72.9755 21.6478 72.4638 21.6478C72.4638 21.0637 72.4638 20.4452 72.4638 19.861C70.6215 19.861 68.7792 19.8954 66.9369 19.9985C66.971 20.5826 67.0051 21.2011 67.0392 21.7852C66.5616 21.8196 66.0498 21.8196 65.5722 21.854C65.504 20.7888 65.4357 19.758 65.3675 18.6928C65.6063 18.6584 65.8792 18.6584 66.1181 18.6584C66.4251 17.9368 66.6298 17.1122 66.698 16.1844C66.7663 15.2567 66.7663 14.0884 66.698 12.6453C66.6639 12.3017 66.6639 12.0268 66.6298 11.7175ZM68.5062 13.0232C68.6086 15.5316 68.4039 17.3527 67.9945 18.521C69.1203 18.4866 70.2462 18.4522 71.3721 18.4522C71.3379 16.6311 71.3038 14.81 71.2697 12.9889C70.3485 12.9889 69.4274 12.9889 68.5062 13.0232ZM75.9096 11.7519C76.5919 11.855 77.3084 11.9924 77.9907 12.0955C78.4001 13.6074 78.8095 15.1536 79.1848 16.6655C80.0719 15.3941 80.993 14.1228 81.9483 12.8514C82.5965 12.9889 83.2106 13.1263 83.8588 13.2638C82.3236 15.0505 80.8224 16.8716 79.3895 18.7271C78.9119 19.3456 78.5025 19.758 78.0931 20.0672C77.6837 20.3421 77.2402 20.4452 76.7284 20.3421C76.1825 20.239 75.8073 20.1359 75.5343 20.0328C75.6026 19.6205 75.7049 19.2082 75.7731 18.8302C76.012 18.8989 76.2508 18.9333 76.4555 18.9677C76.8649 19.0364 77.1719 19.0364 77.3766 18.9333C77.5813 18.8302 77.8201 18.5553 78.0931 18.143C77.3766 16.0126 76.6602 13.8823 75.9096 11.7519ZM86.0082 14.0197C86.5882 14.2259 87.1682 14.4664 87.7482 14.7069C87.2364 15.7721 86.7588 16.8373 86.2811 17.9025C86.6905 18.0056 86.9635 18.0399 87.1682 17.9368C87.3729 17.8338 87.7482 17.5589 88.3282 17.0091C89.0446 16.3562 89.6587 15.9783 90.1022 15.9439C90.5458 15.9095 91.1599 16.047 91.9445 16.3906C91.9787 16.3906 92.081 16.425 92.1834 16.4937C92.0128 16.8716 91.8081 17.2153 91.6375 17.5932C91.5693 17.5589 91.4669 17.5245 91.3987 17.4901C91.0575 17.3527 90.7846 17.284 90.5799 17.284C90.3752 17.284 90.2046 17.3527 90.034 17.4558C89.8634 17.5589 89.5564 17.8337 89.147 18.2461C88.9081 18.4522 88.7034 18.624 88.4987 18.7615C88.294 18.8989 88.0211 18.9677 87.6458 19.002C87.987 19.2425 88.1917 19.5862 88.294 19.9641C88.3964 20.3421 88.4646 20.8919 88.4987 21.5447C88.5329 22.3694 88.6011 23.2284 88.6352 24.0531C88.0211 23.7782 87.3729 23.5376 86.7588 23.2628C86.7247 22.4725 86.6905 21.7165 86.6564 20.9262C86.6564 20.8919 86.6564 20.8231 86.6223 20.7201C86.6223 20.6857 86.5882 20.5483 86.5882 20.2734C86.5541 19.8267 86.4517 19.5174 86.3835 19.38C86.2811 19.2425 86.1106 19.1051 85.8376 19.002C85.36 20.1016 84.8482 21.2011 84.4047 22.335C83.8588 22.1289 83.313 21.9227 82.7671 21.7165C83.7906 19.0707 84.8824 16.528 86.0082 14.0197ZM91.3987 25.7367C92.6951 23.8469 94.0598 21.9914 95.4586 20.1359C94.7421 19.6549 93.9916 19.1738 93.241 18.6928C93.5139 18.3148 93.821 17.9368 94.0939 17.5589C96.1068 18.8302 98.0856 20.1703 99.9961 21.5447C99.6891 21.9227 99.4161 22.2663 99.1091 22.6443C98.3926 22.1289 97.6762 21.6478 96.9597 21.1324C95.5268 22.9535 94.1621 24.809 92.8316 26.6645C92.354 26.3552 91.8763 26.046 91.3987 25.7367Z" fill="white"/>
<path fill-rule="evenodd" clip-rule="evenodd" d="M45.7171 100.197L47.3206 97.2074L46.3312 97.07L47.3206 95.455L48.2076 95.9361L50.0499 93.1872L49.197 92.7061L51.0393 89.8198L46.7065 90.1978L46.3312 90.9537L45.7171 90.5758L43.8748 93.4277L44.4889 93.8057C44.4889 93.8057 42.783 96.4171 42.6466 96.6576C40.5654 100.472 45.7171 100.197 45.7171 100.197Z" fill="#A2600B"/>
<path fill-rule="evenodd" clip-rule="evenodd" d="M48.6503 93.462L47.7974 94.699L47.0468 94.218C47.0468 94.218 44.9657 97.4135 44.9998 97.7571C44.9998 97.8945 45.4433 97.9633 45.7163 97.9633L45.1022 99.2003C44.7269 99.2003 44.2834 99.269 43.9081 99.0285C43.6692 98.891 43.1916 98.41 43.3622 97.8258C43.4304 97.5853 45.8186 93.462 45.8186 93.462L45.3069 93.2215L46.0233 91.9845L46.5351 92.3625L47.2857 91.1255L49.128 90.988L47.7633 92.981L48.6503 93.462Z" fill="white"/>
<path fill-rule="evenodd" clip-rule="evenodd" d="M63.2183 99.1316C62.6042 99.8875 62.263 100.987 62.263 102.258C62.1607 103.392 62.263 104.492 62.7066 105.385C63.116 106.244 63.8324 106.897 65.0265 106.966C65.5724 107 65.9818 106.725 66.4935 106.485V106.966H68.6088L69.4276 95.9017L66.2206 95.6611C66.2206 95.6611 66.1183 97.2761 66.1183 98.1351C64.9583 97.7571 63.8324 98.2726 63.2183 99.1316ZM65.0948 103.221C65.163 103.495 65.3336 103.598 65.47 103.598C65.6065 103.598 65.7089 103.461 65.8453 103.221C65.9818 103.049 65.9818 102.087 65.9818 101.674C65.9818 101.468 65.7089 101.228 65.5724 101.228C65.4359 101.228 65.2653 101.331 65.1971 101.606C65.163 101.709 65.0265 102.98 65.0948 103.221Z" fill="#A2600B"/>
<path fill-rule="evenodd" clip-rule="evenodd" d="M64.6173 103.702C64.7538 104.183 65.0949 104.629 65.4702 104.629C66.2208 104.629 66.562 103.461 66.5961 102.602C66.6302 101.846 66.6643 101.365 66.5278 100.987C66.3914 100.609 66.0843 100.403 65.7432 100.369C65.3679 100.3 65.0267 100.575 64.822 100.85C64.5149 101.193 64.4808 103.324 64.6173 103.702ZM67.7219 105.935H66.4937L66.5961 104.939C66.3573 105.317 65.2314 105.935 64.9926 105.935C64.3785 105.935 63.8326 105.626 63.4573 104.87C63.082 104.251 63.0138 103.324 63.1162 102.19C63.2185 101.056 63.4914 100.197 63.8667 99.7157C64.3444 99.0972 64.8561 98.8223 65.4702 98.9598C66.0843 98.9598 66.4596 99.3377 66.8349 99.9562L67.0737 96.5889L68.4384 96.6919L67.7219 105.935Z" fill="white"/>
<path fill-rule="evenodd" clip-rule="evenodd" d="M77.4455 103.427H77.3091C77.3091 102.052 77.3091 100.575 76.5585 99.3377C76.0467 98.4787 74.955 97.8602 73.9656 97.8602C71.3727 97.8258 70.5198 100.609 70.5198 102.602C70.4175 104.732 71.2704 107.309 73.9997 107.309C74.7503 107.309 75.4668 107.069 76.0809 106.553C76.9679 105.66 77.2067 104.526 77.4455 103.427ZM73.488 103.427H74.5797C74.6138 104.526 73.3856 104.423 73.488 103.427Z" fill="#A2600B"/>
<path fill-rule="evenodd" clip-rule="evenodd" d="M74.9549 101.949C74.9549 101.468 74.8184 100.231 73.9655 100.197C72.9079 100.197 72.8737 101.468 72.8737 101.949H74.9549ZM74.8525 103.805L76.2172 104.183C76.0807 104.939 75.8078 105.385 75.3643 105.798C74.9549 106.141 74.5114 106.313 73.9996 106.313C73.0102 106.313 72.3279 106.004 71.8844 105.076C71.5773 104.458 71.4067 103.598 71.4408 102.602C71.5091 101.365 71.7138 100.472 72.0891 99.8532C72.5667 99.0972 73.1808 98.8567 73.9314 98.8567C74.6819 98.8567 75.2619 99.2347 75.6713 99.8532C76.149 100.609 76.3196 101.606 76.3196 103.083H72.8396C72.8396 103.702 73.0102 104.939 73.9655 104.939C74.5796 104.904 74.8525 104.183 74.8525 103.805Z" fill="white"/>
<path fill-rule="evenodd" clip-rule="evenodd" d="M84.7127 95.9702L84.4397 95.4548L82.4609 96.4513L86.2138 104.389L88.7726 103.255L86.5891 98.4442C86.5891 98.4442 86.3503 97.9631 86.6573 97.7913C86.8961 97.6539 87.1008 98.238 87.1008 98.238L89.2843 103.014L91.5701 101.983L89.489 97.1728C89.489 97.1728 89.182 96.6918 89.489 96.5543C89.762 96.4513 89.8984 96.898 89.8984 96.898L92.116 101.64C92.9689 101.262 93.8219 100.884 94.7089 100.506L92.3548 95.5579C92.0819 94.9394 91.8431 94.4583 91.4678 94.0804C91.0925 93.7024 90.7172 93.3588 90.1031 93.2213C89.1137 92.9808 87.7491 93.4619 87.3738 94.5958C86.2479 94.2522 85.1903 94.8019 84.6785 95.9359L84.7127 95.9702Z" fill="#A2600B"/>
<path fill-rule="evenodd" clip-rule="evenodd" d="M83.7227 96.8982L84.8144 96.2797L85.1897 97.1387C85.292 96.2797 85.6673 95.7299 86.1791 95.5237C86.5202 95.3863 86.7591 95.3176 87.032 95.3863C87.4073 95.455 87.6461 95.6268 88.0214 95.8673C88.0214 95.3863 88.1237 95.1114 88.2602 94.7334C88.3626 94.4585 88.6355 94.3211 88.8743 94.218C89.3861 94.0119 89.7613 93.9775 90.0343 94.0119C90.4096 94.0806 90.546 94.218 90.8531 94.5616C91.0237 94.7678 93.446 99.8875 93.446 99.8875L92.2519 100.472L90.4778 96.7951C90.239 96.1766 89.8296 95.2145 89.1131 95.5581C88.5673 95.833 88.6355 96.4515 88.7378 96.692C88.7378 96.9325 90.7166 101.228 90.7166 101.228L89.2837 101.88C89.2837 101.88 87.3049 97.4823 87.2026 97.3448C87.032 97.1387 86.7591 96.8294 86.4179 96.9669C85.7014 97.2418 85.872 97.8259 85.9403 98.1008C86.0426 98.4444 87.8849 102.533 87.8849 102.533L86.6908 103.083L83.7227 96.8982Z" fill="white"/>
<path fill-rule="evenodd" clip-rule="evenodd" d="M102.419 87.2427C102.146 86.8991 102.794 86.2463 103.272 86.1088L101.771 83.8754C101.771 83.8754 101.395 83.841 101.157 83.8754C100.167 83.9785 99.3142 84.7688 99.3142 85.7309L99.0754 85.4903L97.6084 87.1053L103.92 93.1528L106.138 90.7819C106.138 90.8506 103.272 88.2392 102.419 87.2427Z" fill="#A2600B"/>
<path fill-rule="evenodd" clip-rule="evenodd" d="M104.807 90.8506L103.954 91.8471L99.0068 87.1396L99.8598 86.2463L100.474 86.8648C100.337 86.3493 100.235 86.0057 100.235 85.8683C100.235 85.6278 100.372 85.3872 100.474 85.2498C100.713 85.0093 100.952 84.8718 101.327 84.8718L102.18 86.2463C101.941 86.2463 101.668 86.3837 101.566 86.4868C101.463 86.6242 101.361 87.3114 101.702 87.7238C101.907 88.033 104.807 90.8506 104.807 90.8506Z" fill="white"/>
<path fill-rule="evenodd" clip-rule="evenodd" d="M101.02 79.0647C100.406 79.9581 99.9627 80.7484 99.3145 81.6761L108.492 88.1016L110.334 85.4902L109.822 85.1122L110.437 85.2496L111.665 83.6347L111.051 82.1572L106.957 81.2982L105.455 77.2092L103.238 80.5766L101.02 79.0647Z" fill="#A2600B"/>
<path fill-rule="evenodd" clip-rule="evenodd" d="M108.219 86.8648L100.543 81.4358L101.294 80.3019L105.388 83.1538L104.262 80.5424L105.217 79.168L106.24 82.0199L110.812 82.982L110.062 84.2534L106.855 83.4974L107.23 84.4939L108.97 85.7309L108.219 86.8648Z" fill="white"/>
<path fill-rule="evenodd" clip-rule="evenodd" d="M99.9965 96.1079C100.133 96.2453 100.235 96.3484 100.372 96.4858L101.464 95.7299L102.555 94.974C101.941 94.596 101.327 94.218 100.815 93.737C100.201 92.8779 99.5871 91.744 98.9389 90.885C98.4272 90.1291 98.1883 89.648 97.7107 89.2701C97.2331 89.0295 96.7213 88.8921 96.2437 88.8921C95.6296 88.8921 95.0155 89.167 94.4014 89.5106C93.7873 90.026 93.3438 90.4383 93.0708 91.3661C92.9002 92.5 93.2073 93.4964 93.719 94.4585L94.8108 93.84C94.8108 93.84 94.6743 94.1149 94.6402 94.218C94.5037 94.596 94.5037 94.8709 94.5378 95.077C94.6402 95.6955 94.8449 96.0735 95.0837 96.5546C95.459 97.173 96.039 97.7915 96.5849 97.929C97.3354 98.1352 98.3248 98.0321 98.9389 97.551C99.5189 97.2074 99.8942 96.7264 99.9965 96.1079ZM97.7789 93.8744C97.7789 93.8744 97.3695 94.0806 97.3013 94.4242C97.2331 94.7334 97.4037 94.9396 97.5401 95.0083C97.8472 95.1458 98.1201 94.7334 98.0178 94.3555C97.9836 94.218 97.7789 93.8744 97.7789 93.8744Z" fill="#A2600B"/>
<path fill-rule="evenodd" clip-rule="evenodd" d="M97.6424 92.981C97.54 93.1184 96.9259 94.0461 96.8236 94.1836C96.6871 94.4928 96.6871 94.9395 96.8918 95.2144C97.1988 95.6267 97.7788 95.5924 98.0176 95.4893C98.2906 95.3862 98.5635 94.699 98.4612 94.2867C98.3929 94.1149 97.6424 92.981 97.6424 92.981ZM95.2883 92.7748L94.0601 93.1528C93.7872 92.5343 93.7872 92.0188 93.9236 91.5378C94.0601 91.0224 94.2648 90.6101 94.8448 90.2321C95.3565 89.8885 95.8683 89.7854 96.2436 89.7854C96.4824 89.7854 96.8918 89.8541 97.0965 90.0259C97.3694 90.2321 97.7106 90.6444 98.2224 91.4004C98.4953 91.847 99.3482 93.1528 99.3482 93.1528C99.7576 93.7025 100.576 94.7677 100.849 95.0082L99.7576 95.7642C99.6211 95.6267 99.2459 95.1457 99.2459 95.1457C99.1435 95.6267 99.1435 95.9016 99.007 96.1421C98.7682 96.5201 98.7 96.6919 98.3929 96.8981C97.0624 97.7571 96.2436 96.6575 95.9365 96.2109C95.7318 95.936 95.2201 94.9051 95.493 94.2523C95.6636 93.9087 95.8001 93.5307 96.1412 93.1871C96.6189 92.6717 96.8918 92.2937 96.9941 92.0532C96.9941 92.0532 96.5165 91.366 96.38 91.2973C96.1412 91.1942 95.8342 91.2286 95.4589 91.5034C95.3224 91.6065 95.1859 91.7783 95.1518 92.0532C95.1518 92.1219 95.1518 92.3968 95.2883 92.7748Z" fill="white"/>
<path fill-rule="evenodd" clip-rule="evenodd" d="M57.3851 105.351C57.351 105.523 57.351 105.694 57.3168 105.866L58.5792 106.278L59.8415 106.656C59.7391 105.935 59.6368 105.213 59.705 104.526C59.978 103.495 60.4556 102.293 60.7285 101.262C61.0015 100.403 61.2062 99.8873 61.2062 99.2688C61.1038 98.7191 60.865 98.2724 60.558 97.8944C60.1827 97.4133 59.6027 97.0697 58.9203 96.8292C58.1356 96.6574 57.5557 96.5887 56.6345 96.9323C55.6451 97.5164 55.0651 98.3755 54.6216 99.3719L55.7816 99.853C55.7816 99.853 55.4745 99.9217 55.3722 99.956C54.9969 100.093 54.7922 100.265 54.6557 100.437C54.2463 100.918 54.0757 101.296 53.8369 101.777C53.5981 102.464 53.4957 103.289 53.7346 103.804C54.0757 104.526 54.724 105.213 55.5086 105.385C56.2251 105.66 56.8392 105.66 57.3851 105.351ZM57.7262 102.224C57.7262 102.224 57.3168 102.052 57.0098 102.19C56.7369 102.327 56.6686 102.567 56.7027 102.739C56.8051 103.083 57.2827 103.014 57.5215 102.705C57.5898 102.602 57.7262 102.224 57.7262 102.224Z" fill="#A2600B"/>
<path fill-rule="evenodd" clip-rule="evenodd" d="M58.3061 101.571C58.1355 101.571 57.0438 101.64 56.8732 101.708C56.5661 101.777 56.225 102.052 56.1226 102.396C55.9861 102.911 56.3955 103.323 56.6344 103.461C56.8732 103.598 57.5896 103.392 57.8285 103.049C57.9308 102.842 58.3061 101.571 58.3061 101.571ZM57.0096 99.5781L55.952 98.8565C56.2591 98.2724 56.6344 97.9631 57.112 97.757C57.5555 97.5508 58.0332 97.4477 58.7155 97.6539C59.2955 97.8257 59.7049 98.2037 59.9096 98.4785C60.0802 98.6847 60.2508 99.0283 60.2508 99.3032C60.2508 99.6468 60.1484 100.197 59.9096 101.021C59.739 101.502 59.2614 102.98 59.2614 102.98C59.0908 103.633 58.7837 104.973 58.7496 105.316L57.4873 104.904C57.5214 104.732 57.6579 104.114 57.6579 104.114C57.1802 104.32 57.0096 104.492 56.7367 104.56C56.2932 104.595 56.0885 104.663 55.7814 104.56C54.2803 104.045 54.6215 102.739 54.7579 102.19C54.8603 101.846 55.3379 100.815 55.9861 100.643C56.3614 100.54 56.7026 100.403 57.2485 100.471C57.9308 100.54 58.3743 100.506 58.6473 100.437C58.6473 100.437 58.8861 99.6468 58.8178 99.475C58.7496 99.2345 58.5108 98.9939 58.1014 98.8909C57.9308 98.8565 57.7261 98.8565 57.4873 98.994C57.419 99.0627 57.2485 99.2345 57.0096 99.5781Z" fill="white"/>
<path fill-rule="evenodd" clip-rule="evenodd" d="M51.9944 98.2381C52.2332 97.8602 53.052 98.2725 53.3249 98.7192L54.9625 96.5888C54.9625 96.5888 54.8602 96.2108 54.7578 96.0047C54.3484 95.0769 53.3591 94.5272 52.4038 94.8364L52.5402 94.5272L50.5615 93.6338L46.8086 101.571L49.7427 102.946C49.7427 102.911 51.312 99.3377 51.9944 98.2381Z" fill="#A2600B"/>
<path fill-rule="evenodd" clip-rule="evenodd" d="M49.3327 101.64L48.1045 101.124L51.0044 94.905L52.0962 95.4548L51.7209 96.2451C52.1644 95.9702 52.4715 95.7297 52.5738 95.6953C52.8126 95.5922 53.0856 95.661 53.222 95.7297C53.5291 95.9015 53.7338 96.0733 53.8361 96.4513L52.8126 97.7226C52.7444 97.4821 52.5397 97.2759 52.3691 97.2072C52.1985 97.1385 51.5162 97.2759 51.2432 97.7226C51.1068 97.9975 49.3327 101.64 49.3327 101.64Z" fill="white"/>
</svg>
