<svg width="87" height="62" viewBox="0 0 87 62" fill="none" xmlns="http://www.w3.org/2000/svg">
<path d="M67.6165 31.009C67.6889 48.1977 54.2416 61.9267 37.428 61.9995C20.723 62.0906 7.14902 48.489 7.07663 31.3004C6.98613 14.0935 20.4515 0.0731183 37.1203 0.000285065C53.952 -0.0725481 67.526 13.8204 67.6165 31.009Z" fill="#A2600B"/>
<path d="M66.3494 31.0091C66.4218 47.4148 53.5899 60.6522 37.4097 60.7251C21.3563 60.7979 8.39765 47.6879 8.32526 31.2822C8.25286 14.7491 21.0848 1.366 37.1382 1.27496C53.3184 1.20212 66.277 14.476 66.3494 31.0091Z" fill="white"/>
<path d="M65.6255 31.0273C65.6979 46.9413 53.1556 59.8692 37.4098 59.9421C21.7907 59.9967 9.12166 47.1963 9.04926 31.2822C8.97687 15.2225 21.5192 2.16713 37.1383 2.0943C52.8841 2.02147 65.5531 14.9494 65.6255 31.0273Z" fill="#DC1C26"/>
<path d="M22.0802 31.1546C22.044 22.5057 28.8853 15.4591 37.1926 15.4226C45.6446 15.3862 52.5583 22.3782 52.5945 31.0272C52.6307 39.5122 45.7894 46.5771 37.3374 46.6135C29.0301 46.6317 22.1164 39.6397 22.0802 31.1546ZM20.2161 31.1546C20.2523 40.6594 28.0347 48.5435 37.3555 48.4889C46.8029 48.4525 54.5129 40.4955 54.4586 30.9907C54.4224 21.3221 46.64 13.4561 37.1926 13.4926C27.8718 13.5472 20.1799 21.5042 20.2161 31.1546Z" fill="#A2600B"/>
<path d="M52.8118 31.0818C52.848 39.7125 45.8619 46.7774 37.2651 46.8138C28.813 46.8502 21.8994 39.8582 21.8632 31.2275C21.827 22.4329 28.6683 15.2406 37.1203 15.2042C45.7171 15.1495 52.7756 22.2872 52.8118 31.0818Z" fill="white"/>
<path d="M69.4082 45.3572C68.2861 45.3572 67.4354 45.5757 66.8201 45.7578C66.8744 45.8306 66.9468 45.8852 67.0191 45.9581C67.0191 45.9763 67.0372 45.9763 67.0372 45.9763C68.3765 47.3419 69.4987 48.5983 71.2723 49.9821C72.7383 50.9107 75.3445 51.111 77.5706 51.111C78.6385 51.111 79.6158 51.0564 80.3397 51.0018C80.3759 51.0018 80.4121 51.0018 80.4483 51.0018C80.5388 51.0018 80.6293 50.9835 80.7198 50.9835C75.5979 46.3586 71.8877 45.3572 69.4082 45.3572Z" fill="#54A75C"/>
<path d="M53.3727 42.2253C52.8478 42.2253 52.3954 42.28 52.0515 42.3346C52.1058 42.4074 52.1601 42.4803 52.2144 42.5531C52.2144 42.5713 52.2325 42.5713 52.2325 42.5895C53.3003 44.119 54.169 45.6485 55.7979 47.4511C57.6983 48.9624 62.5125 49.2902 64.7386 49.3084C64.7748 49.3084 64.7929 49.3084 64.8291 49.3084C64.9196 49.3084 65.0282 49.3084 65.1006 49.3084C59.7977 43.1904 55.7617 42.2071 53.3727 42.2253Z" fill="#54A75C"/>
<path d="M60.5035 44.1737C60.594 44.1919 60.6845 44.2101 60.775 44.2283H60.7931C61.7885 44.3922 62.8564 44.5379 64.069 44.5379C64.8472 44.5379 65.6978 44.465 66.639 44.3012C68.9194 43.8824 72.8649 40.0768 74.4938 38.4017C74.53 38.3653 74.5481 38.3471 74.5843 38.3106C74.6567 38.2378 74.7109 38.165 74.7833 38.1104C65.0644 38.3106 61.6438 42.28 60.5035 44.1737Z" fill="#54A75C"/>
<path d="M51.6173 42.3164C51.7078 42.3346 51.7983 42.3346 51.8888 42.3529C51.8888 42.3529 51.9069 42.3529 51.925 42.3529C52.9928 42.5167 54.0425 42.6624 55.237 42.6624C55.9972 42.6624 56.8297 42.5896 57.7708 42.4257C60.2141 42.0069 64.1958 38.4017 65.8066 36.5262C65.8247 36.508 65.8428 36.4716 65.8609 36.4534C65.9333 36.3805 65.9876 36.3077 66.0419 36.2349C56.1782 36.4534 52.6127 40.7141 51.6173 42.3164Z" fill="#54A75C"/>
<path d="M67.164 45.8123C64.9379 45.8123 62.5126 45.4117 59.9426 44.5924C56.16 43.245 52.1421 42.5712 48.0519 42.5712C40.6676 42.5712 35.3285 44.7927 34.8761 44.993L34.4779 44.3192C34.9666 44.1007 40.2152 41.8247 47.9433 41.8247C52.2145 41.8247 56.4315 42.5348 60.4856 43.9369C62.8746 44.7198 65.155 45.1022 67.2545 45.1022C71.3267 45.1022 73.4623 43.6091 73.6795 43.4452L74.331 43.8458C74.0415 44.0825 71.7791 45.8123 67.164 45.8123Z" fill="#A2600B"/>
<path d="M47.9432 41.8612C52.2145 41.8612 56.4315 42.5713 60.4856 43.9733C62.8746 44.7563 65.155 45.1387 67.2545 45.1387C69.4987 45.1387 71.1456 44.6835 72.123 44.3011C73.0279 43.9369 73.5528 43.591 73.6976 43.4817L74.2767 43.8459C73.8604 44.1736 71.5981 45.776 67.164 45.776C64.9378 45.776 62.5126 45.3754 59.9607 44.556C56.16 43.2086 52.1602 42.5349 48.0518 42.5349C40.8124 42.5349 35.5095 44.6835 34.8941 44.9384L34.5322 44.3375C35.2018 44.0462 40.3961 41.8612 47.9432 41.8612ZM47.9432 41.7883C40.0342 41.7883 34.6227 44.21 34.4236 44.3011L34.858 45.0294C34.858 45.0294 40.2875 42.6077 48.0337 42.6077C51.5992 42.6077 55.6713 43.1175 59.9245 44.6288C62.766 45.521 65.1731 45.8488 67.164 45.8488C71.8696 45.8488 74.2043 44.028 74.4034 43.8277L73.6795 43.3907C73.6795 43.3907 71.58 45.0476 67.2545 45.0476C65.4084 45.0476 63.1642 44.7381 60.5037 43.8823C55.9609 42.3164 51.6716 41.7883 47.9432 41.7883Z" fill="#A2600B"/>
<path d="M84.8644 39.7671C76.6114 39.8035 73.7519 42.9353 72.9736 44.4284C73.0641 44.4466 73.1546 44.4466 73.2451 44.4648H73.2632C74.6749 44.6833 76.0323 44.8836 77.7879 44.8836C78.2041 44.8836 78.6566 44.8654 79.1272 44.8472C81.5524 44.7015 85.3712 41.679 86.7648 40.0948C86.7829 40.0766 86.801 40.0584 86.8191 40.0402C86.8915 39.9674 86.9458 39.8945 87 39.8217C86.258 39.7671 85.5341 39.7671 84.8644 39.7671Z" fill="#54A75C"/>
<path d="M43.129 30.0257V29.443C43.7081 29.7343 44.0882 29.9528 44.794 29.9528C45.0836 29.9528 45.2646 29.8982 45.4275 29.8618C46.1514 29.7161 47.0021 29.1152 47.8527 28.3869C48.2871 28.5326 48.7938 28.66 49.373 28.66C50.2417 28.66 51.2914 28.3687 52.2869 27.786C52.5041 27.9499 52.5764 28.0045 52.6669 28.0227C53.1013 28.1502 53.2642 28.1866 53.6443 28.1866C54.4406 28.1866 55.0379 27.8589 55.1645 27.786C55.7256 27.4401 56.3772 27.0395 56.8839 26.6025C57.445 27.0577 57.9879 27.2398 58.5852 27.2398C58.7662 27.2398 58.9653 27.2216 59.1824 27.1852C60.4674 27.0395 61.4629 26.293 62.042 25.419C62.3316 26.0198 63.3451 26.293 64.2862 26.2748C66.3495 26.2201 68.2317 24.2354 69.7882 22.797C72.141 24.1808 73.9147 22.0686 73.9147 20.2478C73.9147 18.3177 72.7202 17.2434 70.7655 17.2434C70.0235 17.2434 69.4081 17.4073 67.8336 18.2995L68.9919 13.2922C68.9919 13.2922 61.2638 14.9856 59.5806 15.9324C59.291 16.0781 58.8748 16.3694 58.5852 16.6608C58.6757 16.3876 58.9472 15.368 59.1281 14.6761C59.1281 14.6397 59.1462 14.6032 59.1643 14.5668C59.2548 14.2391 59.3091 14.0206 59.3091 14.0206L53.8795 15.9506C53.8795 15.9506 53.8795 16.0963 53.8795 16.242C53.1737 16.3876 52.2869 16.5879 51.5991 16.8429C50.4227 17.2799 49.5902 18.1721 48.7395 19.0461C48.6309 18.864 48.5043 18.5726 48.3052 18.3177C47.9432 17.8079 47.1469 17.2799 45.8619 17.4437C45.2827 17.5166 44.4321 18.0264 43.5814 18.6273C43.2557 18.4088 42.8756 18.2813 42.4593 18.2813C42.3145 18.2813 42.1517 18.2995 42.0069 18.3177C41.301 18.4088 40.4323 18.7911 39.7264 19.3738C39.7264 19.3738 39.4369 19.2463 39.3826 19.2281C38.2785 18.8458 36.8669 19.2828 35.8533 19.9929C35.8533 19.9929 35.419 20.2842 35.1294 20.5756C35.0027 20.4299 35.0027 20.4117 34.8398 20.2842C34.5502 20.0657 33.953 19.9747 33.2471 19.9747C32.0707 19.9747 30.4961 20.3935 28.9759 21.7773C28.8311 21.923 28.6863 22.0686 28.5415 22.2143C28.7225 21.3221 28.7949 20.9579 28.7949 20.9579C22.6414 22.5967 22.8042 22.5238 22.8042 22.5238L22.6595 23.2522C22.3699 22.9608 21.9355 22.6695 21.2297 22.5238C21.3745 22.2325 21.5011 21.923 21.5011 21.5042C21.5554 20.0293 20.741 18.7001 18.0986 18.6455C17.7728 18.6455 14.5151 18.9368 12.9043 21.3949C12.5242 21.9776 12.1985 22.8152 11.8003 23.5799C11.746 23.671 11.6555 23.7074 11.6193 23.7438L12.1261 21.8683C10.9859 21.6681 10.4972 21.6498 9.73705 21.6681C6.29831 21.6863 4.09028 22.7241 2.15373 24.8363C0.669648 26.384 0 28.1684 0 29.9346C0 30.8086 0.144789 31.537 0.579155 32.2835C1.17641 33.2485 2.06324 33.813 3.00437 33.813C3.20345 33.813 3.40254 33.7948 3.60162 33.7402C4.88662 33.2849 5.73726 32.4109 5.73726 31.2456C6.425 32.065 8.61494 32.1924 9.17599 31.9557C9.0312 32.2471 8.75972 32.2471 8.75972 32.2471L7.47472 32.5384L6.06303 38.5471C6.24402 38.4561 9.62846 36.7809 9.62846 36.7809C10.1895 36.4896 11.0582 36.0344 12.6328 36.0344C13.3568 36.0344 13.9178 35.8887 14.3522 35.8887C12.7233 36.7263 12.5242 40.2951 14.8047 41.2238C12.5242 44.6105 11.5288 45.7212 11.1125 46.1582C9.82754 45.6848 7.67381 46.2493 7.85479 48.8895C7.94529 50.164 8.92261 51.912 11.2935 51.5661C12.289 51.4204 13.3025 50.8195 14.2979 49.7999C14.5513 49.5996 17.6461 45.266 18.5692 43.9186C18.4425 45.0657 16.7955 47.3235 16.1802 48.1247C16.3792 48.1065 19.0216 47.9426 20.1618 47.8698C20.8677 47.8152 21.9898 47.6513 23.1662 46.9776C23.7273 46.6498 26.4602 46.668 26.4602 46.668C26.4602 46.668 26.4602 46.5224 26.4602 46.3767C27.5461 46.9776 29.1749 46.3403 30.478 45.1932C31.6002 46.1218 33.0119 45.5573 33.8987 44.8108C33.8987 44.9565 33.8987 45.0111 33.8987 45.0111C34.0978 44.9747 39.9074 43.8093 39.9074 43.8093C39.9074 43.8093 40.0522 42.9353 40.0522 42.7897C40.1427 42.8807 40.197 42.9353 40.197 42.9353C40.6676 43.4088 41.3372 43.7001 42.0612 43.7001C42.2059 43.7001 42.3507 43.6819 42.4955 43.6637C42.586 43.6273 42.6584 43.6091 42.7127 43.5908C42.9299 43.4634 43.4909 43.3723 45.4999 41.6061C45.4999 41.6061 45.9162 42.0613 46.079 42.1888C46.5677 42.5894 47.0745 42.6804 47.6355 42.6804C47.8165 42.6804 48.0156 42.6804 48.2328 42.6258C48.6852 42.5166 49.9521 41.7336 50.658 41.1509C51.2371 41.5879 51.8163 41.7336 52.3774 41.7336H52.5222C53.3728 41.5879 54.2596 41.1145 55.1283 40.2223C55.2731 40.3316 55.2369 40.2951 55.3817 40.3862C55.9247 40.7139 56.54 40.8778 57.1192 40.8778C57.3183 40.8778 57.4993 40.8596 57.6803 40.8232C58.2594 40.6775 59.3996 40.0766 60.395 39.057L60.5398 39.2026C60.6303 39.2937 60.8294 39.4576 60.8656 39.4758C61.481 39.8946 62.4221 39.8764 62.4221 39.8764C62.6393 39.8764 62.8746 39.8217 63.1098 39.7853C64.051 39.6032 65.4084 38.4561 67.1096 36.9812C67.3992 36.6899 67.8336 36.3986 68.105 36.089C68.5394 36.4168 69.0462 36.5806 69.6434 36.5806C69.8425 36.5806 70.0416 36.5624 70.2588 36.526C71.1094 36.3804 72.1229 35.4882 72.2496 34.1772C72.2677 34.0315 72.2677 33.8858 72.2677 33.7402C72.2677 32.4838 71.6524 31.5916 70.657 31.1C70.1683 30.8632 69.7339 30.7176 69.2453 30.7176C68.9557 30.7176 68.6661 30.754 68.3584 30.8086C67.5078 30.9543 66.2952 31.537 66.2952 31.537C66.3676 31.3002 67.2182 26.8574 67.2182 26.8574C62.3316 27.604 59.3453 28.6782 57.8974 29.4066C57.3726 29.6797 56.6486 30.1895 56.6486 30.1895C56.6848 30.0803 57.0649 28.4415 57.0649 28.4415L51.1467 30.4991L51.0381 31.0635C50.4589 30.4809 49.8074 30.2442 49.0834 30.2624C48.3776 30.2624 47.5812 30.663 47.0202 30.9725C47.0564 30.845 47.165 30.5173 47.165 30.5173C41.9164 31.719 41.6087 31.7919 41.5906 31.7919C41.3191 32.8479 41.2286 33.0664 41.2286 33.0664L41.0657 33.03C40.8847 32.8115 40.2694 32.1196 39.2016 32.1378C38.4414 32.2289 37.989 32.4474 36.9031 33.1393C36.9031 33.1211 36.9935 32.593 36.9935 32.593C32.5775 33.6491 31.3287 33.9404 31.3287 33.9404C31.3287 33.9404 31.2382 34.3046 31.1115 34.9783C30.8219 34.687 30.6047 34.0679 29.374 34.0133C27.9985 34.0497 26.8764 35.1604 26.8764 35.1604C27.0212 34.4321 27.1298 33.4852 27.3651 32.2107C28.7406 33.5581 31.6907 32.9572 33.0843 31.6826C33.5005 31.5916 37.9709 30.8815 37.9709 30.8815C37.989 30.9907 37.989 30.9361 37.989 31.0453C37.8261 31.0453 43.129 30.0257 43.129 30.0257ZM34.3692 25.6739C34.3692 25.8195 34.3693 25.9652 34.2245 26.2565C34.2245 25.9652 33.7901 25.5282 33.7901 25.5282L34.0797 25.3825C34.2245 25.5282 34.3692 25.6739 34.3692 25.6739ZM32.0707 25.3825C32.3603 25.5282 32.6499 25.5282 32.9214 25.5282C32.7766 25.5282 31.9259 26.4204 31.9259 26.4204C31.7811 26.5661 31.7812 26.5661 31.6364 26.7118C31.7992 26.1291 31.9259 25.6739 32.0707 25.3825ZM57.5536 21.0126H57.4088L57.5536 20.8669V21.0126ZM67.6345 18.7001C67.6164 18.7001 67.6345 18.7001 67.6345 18.7001C67.6164 18.7001 67.6164 18.7001 67.6345 18.7001C67.6164 18.7001 67.6164 18.7001 67.6345 18.7001Z" fill="#231F20"/>
<path d="M35.0026 37.4C35.4189 37.4729 36.3057 37.6914 36.3057 37.6914C35.8713 38.1284 35.3103 38.7838 34.5863 39.4576C34.7311 38.8567 34.8759 38.1283 35.0026 37.4ZM45.174 35.4517C45.6084 35.5974 46.0247 35.8887 46.0247 35.8887H46.1694C45.7351 36.3257 45.174 36.9266 44.5949 37.3636C44.7578 36.7809 44.8844 36.0344 45.174 35.4517ZM25.4103 39.494C25.6999 39.6396 25.8447 39.7853 25.9895 39.7853C25.9895 39.7853 26.2791 39.931 26.4239 39.931C26.1343 40.9506 26.0076 41.9885 25.8628 42.5712C25.6094 42.6622 25.5732 42.6804 25.2837 42.7168C25.2837 41.5515 25.4284 40.5136 25.4103 39.494ZM17.9537 37.3454C18.0985 37.3454 18.2433 37.1997 18.5329 37.0541C18.3881 37.3454 18.2433 37.4911 18.0985 37.7824C18.0985 37.6367 17.9537 37.4911 17.9537 37.4911V37.3454ZM21.5191 33.0664C21.8087 32.7751 21.9716 32.6294 22.225 32.4838C22.3517 32.5566 22.2069 32.7205 22.4422 32.7023C22.044 32.9026 21.8087 32.9208 21.5191 33.0664ZM30.5322 28.0592C30.5322 27.4765 31.3648 25.164 31.4915 24.7088C31.6363 24.5632 31.7992 24.3811 31.7992 24.3811C31.7992 24.3811 32.0887 24.3811 32.3783 24.3811C32.9575 24.6724 33.5185 24.5268 33.9529 24.5268L34.2244 24.3811C34.5139 24.6724 34.8035 24.8181 34.8035 24.8181C34.8035 24.8181 35.2379 25.1094 35.3827 25.1094C35.0931 25.9834 34.9664 27.0213 34.6768 27.8953L33.3737 26.1473C32.5231 26.8756 31.0933 28.2048 30.6589 28.3505H30.5142C30.5323 28.3505 30.5322 28.2048 30.5322 28.0592ZM62.422 18.6819C62.5668 18.5362 62.8564 18.3906 63.1278 18.3906C63.1278 18.5362 62.9831 18.6819 62.9831 18.6819C62.8383 18.8276 62.5668 18.8276 62.2591 18.8276L62.422 18.6819ZM52.6668 21.1582C52.6488 22.4328 51.7076 23.4161 51.7076 23.4161C51.5628 23.5617 51.3818 23.7984 51.2371 23.7984C51.5266 22.4146 51.5085 21.7955 52.6668 21.1582ZM59.9606 16.4241C58.8204 17.1524 57.9878 18.2631 58.0059 19.4284C58.0059 20.0111 58.2231 20.9215 59.0738 21.3403C59.0738 21.486 58.5851 22.36 58.5851 22.36C58.2955 22.0686 57.9335 21.6681 57.4268 21.6316C57.1553 21.6134 56.7209 21.7955 56.4314 21.9412C56.7028 20.3206 58.1145 15.2041 58.1145 15.2041C55.7979 15.9871 54.6758 16.3512 54.6758 16.3512C54.6396 16.4423 54.6396 16.4423 54.5491 16.679C53.8252 16.9703 52.6668 17.1888 51.8343 17.5712C49.3548 18.7183 48.1241 21.1036 47.7078 22.5603C47.8526 21.8319 48.1241 20.6484 48.1241 20.3571C48.1241 19.6287 47.9793 19.1917 47.6897 18.7365C46.2418 17.4984 44.5406 18.7547 43.5271 19.4831C43.5271 19.4831 42.6583 18.9004 41.9525 18.9004C41.2285 19.0461 40.5227 19.4831 39.5273 20.2296C39.5273 20.0839 38.8214 19.6287 38.8214 19.6287C37.5002 19.3192 35.5094 21.1218 35.0931 21.4131C34.9483 21.2675 34.8035 21.1218 34.5139 20.8305C33.9348 20.5391 31.6363 20.2478 29.5006 22.1779C28.2156 23.5071 27.2202 25.2551 26.8039 26.73C26.8039 26.8756 26.6591 27.0213 26.3696 27.3126C26.6772 25.9106 27.5279 21.9594 27.5279 21.9594C24.6683 22.7606 23.5824 23.1065 23.5824 23.1065C23.5462 23.4343 22.5146 27.6404 22.5146 27.6404C22.3698 28.223 22.0259 28.5508 21.7363 29.006C22.1526 26.4204 22.4422 25.1458 22.4422 24.8363C22.4422 24.545 22.3517 23.8895 22.0621 23.5981C21.7725 23.3068 20.7771 22.7241 19.3473 23.7984C19.1844 23.9259 18.189 24.5814 17.4832 25.164C17.7727 24.29 18.0804 23.3978 18.2252 22.9426C19.5826 23.7074 20.6323 22.36 20.6323 21.3403C20.6323 20.175 19.9084 19.738 19.3292 19.4466C18.6053 19.301 17.447 19.3192 17.447 19.3192C16.0172 19.6105 14.4607 20.5027 13.6101 21.6681C12.7594 22.8334 12.0536 24.5996 11.4925 26.9485C10.66 28.0956 9.68266 27.5311 9.68266 27.5311C9.82745 27.2398 11.1486 22.3236 11.1486 22.3236C9.89984 22.1779 9.1578 22.2143 7.65561 22.451C5.64667 22.7606 4.01779 23.7438 2.73279 25.2187C1.44779 26.6935 0.886732 28.1502 0.741943 29.7707C0.741943 30.4991 0.832436 31.2092 1.2849 31.7919C1.86406 32.6659 2.6242 32.9936 3.49293 32.6841C4.48835 32.3927 4.92272 31.7919 5.06751 30.9179C5.06751 30.3352 4.77793 29.8982 4.34357 29.4612C4.19878 29.3155 4.19878 29.0242 4.19878 29.0242C4.19878 28.2959 5.06751 26.821 5.90005 26.384C5.61047 27.2762 5.39329 28.2412 5.39329 28.5508C5.39329 28.6965 5.61047 30.3352 6.76878 30.7722C7.49272 31.2092 8.54244 31.0635 9.70075 30.9725C9.99033 30.9543 10.3161 30.8086 10.66 30.754C10.66 30.8997 10.4971 31.4459 10.4971 31.4459C9.62836 33.2485 8.23477 33.1029 8.23477 33.1029C8.08998 33.6309 7.38413 36.7627 7.38413 36.7627C9.01301 35.998 8.92251 36.0344 9.39308 35.7977C10.0265 35.4699 10.9134 34.9601 12.687 34.9783C15.2751 35.0147 16.4153 34.0861 16.5601 33.9404C16.7049 33.7948 17.2841 29.9528 17.2841 29.9528C17.2841 29.9528 16.4696 30.7358 16.1077 31.0089C16.3972 29.8436 16.5239 28.8057 16.8135 27.786C17.1031 27.9317 18.0804 28.4415 18.0804 28.4415C17.7908 29.6069 17.4289 31.5916 17.4108 32.0286C17.3565 34.1954 19.1482 33.9222 19.4197 33.9222C16.7049 35.1422 15.1846 35.8705 14.8589 36.2711C14.3521 36.9084 14.2435 37.2908 14.2435 38.0191C14.2435 38.1648 14.3159 40.459 16.3067 40.368C14.4607 43.0082 12.3251 46.2492 11.4744 46.9776C10.7505 46.5406 9.59216 46.5224 9.03111 47.2689C8.68723 47.6331 8.45195 48.7256 9.0492 49.636C9.48357 50.3643 10.4971 50.8195 11.221 50.6739C12.0717 50.5282 13.049 50.0548 13.8634 49.1262C14.7141 48.1429 18.0623 43.0992 19.9084 40.3498C19.9084 40.9324 19.4559 44.5195 18.8767 45.5027C18.2976 46.5042 17.7365 47.2325 17.7365 47.2325C20.1798 46.923 20.0713 46.9412 20.0713 46.9412C20.7952 46.7955 21.9354 46.6316 22.786 46.049C23.6367 45.612 24.9398 45.5938 24.9398 45.5938H25.6637C25.8085 44.8654 25.8085 44.2828 25.8085 44.1371C25.9533 44.4284 26.0257 44.9747 26.3153 45.266C26.6049 45.5573 27.7451 46.5224 30.677 43.9732C30.677 44.1189 31.1476 44.6287 31.2924 44.6469C33.1746 44.9018 34.2606 43.518 35.256 42.6258C35.256 42.7715 35.0388 43.7001 35.0388 43.7001C36.3238 43.4088 39.1472 42.7533 39.1472 42.7533C39.2739 42.1706 39.6901 40.5501 39.9616 39.0934C40.2512 39.0934 40.2512 39.0934 40.5227 39.0934C40.3417 39.9674 40.2693 40.4044 40.2512 40.6957C40.0883 42.4801 42.0249 42.8625 42.7669 42.6076C43.509 42.3527 44.6854 41.1145 45.8256 40.0948C45.8618 40.6593 46.0971 41.0053 46.4047 41.2602C47.3278 42.0249 48.4318 41.7882 50.8208 39.8581C51.2552 40.2951 51.7076 40.7868 52.4135 40.6411C53.2641 40.4954 54.1328 39.8946 55.1283 38.8749C57.1553 41.1873 59.7434 39.0206 60.5578 37.2361C60.5578 38.9477 62.1505 39.0388 62.8564 38.8385C63.7251 38.6018 64.992 37.5093 66.7114 36.0344C67.2724 35.5974 67.8516 34.9965 68.1412 34.8509C68.2859 34.8509 68.2859 34.8509 68.4307 34.8509C69.39 36.1983 71.4894 35.5792 71.5799 33.813C71.5799 32.7933 71.1455 31.9193 70.4216 31.628C69.8424 31.3367 69.2814 31.191 68.5574 31.3549C67.1276 31.6462 65.9874 32.5384 64.8472 33.4124C64.992 33.2667 66.0779 27.7132 66.0779 27.7132C64.9377 27.8589 59.5262 29.1881 58.386 29.9346C56.9562 30.6812 56.2504 31.6826 56.2504 32.8479C56.2504 32.9936 56.558 34.6142 57.5535 34.9237C57.4087 35.215 57.1191 35.5064 56.9924 35.7977C56.9924 35.3607 56.7209 35.2332 56.5399 35.124C55.5807 34.5231 55.0378 35.3425 54.7663 35.4881C55.1826 34.0315 56.0694 29.4066 56.0694 29.4066C55.0378 29.7707 51.9429 30.9543 51.9429 30.9543C51.1647 34.3592 50.9656 35.0876 50.9656 35.0876C50.8208 35.5246 50.5312 35.9616 50.1149 36.5624C50.9656 32.9026 50.9656 32.6112 50.9656 32.4656C50.9837 31.1182 49.7711 30.8086 49.3367 30.7722C48.1784 30.6447 46.5133 32.1924 45.7894 32.939C45.7894 32.7933 46.0066 31.5187 46.0066 31.5187C43.2556 32.2107 42.0973 32.5384 42.0973 32.5384C41.9525 33.1211 41.5 34.5777 41.2104 35.8887C41.0656 35.8887 40.8304 36.089 40.6313 36.0526C40.7761 35.0329 40.9028 34.5777 40.9028 34.5777V34.4321C40.9028 34.2864 40.9028 33.7037 40.3236 33.1211C38.8214 32.3017 36.8668 34.1225 35.7446 35.0511C35.7446 34.9055 36.0161 33.4306 36.0161 33.4306L31.9982 34.3228C31.8534 34.9055 31.2924 37.2544 30.7313 39.0206C30.5865 39.4576 30.4418 39.8946 30.0255 40.1859C30.7313 37.2544 30.8761 36.6717 30.8761 36.526C30.8761 35.7977 30.5865 35.0694 30.0074 34.778C29.193 34.341 28.288 34.9419 25.718 36.9994C25.8447 35.3789 26.5506 31.8647 26.6953 31.282C26.8401 31.1364 27.1297 30.9907 27.2745 30.845C27.7089 31.282 28.2518 31.9739 29.4101 31.9739C31.2743 32.2653 33.8805 30.0075 34.5863 29.2063C34.4416 29.352 34.2606 30.5355 34.2606 30.5355C34.4958 30.5355 38.0794 29.8254 38.0794 29.8254C38.2604 29.006 38.8214 25.6921 39.3101 25.3825C39.0386 27.1487 38.4775 30.0075 38.4775 30.0075C39.853 29.6797 42.4773 29.3155 42.4773 29.3155C42.4773 28.5872 42.7488 27.5493 42.8936 26.6753C42.8936 26.821 42.8936 26.9667 42.8936 26.9667C42.8936 27.4037 43.0746 27.9499 43.4728 28.4233C44.2329 29.352 46.0066 29.2791 47.8526 27.3126C49.5177 28.4597 51.2914 27.5857 52.2868 26.8392C53.6261 27.6222 54.6034 27.167 54.893 27.0031C55.6169 26.7118 56.1961 26.0927 56.9019 25.4918C57.4811 26.0745 58.2231 26.4204 59.2366 26.2748C60.6664 25.9834 61.4447 25.0912 62.1505 23.9077C62.2953 24.636 62.8202 25.0548 63.2364 25.2005C65.1187 25.9652 67.8878 23.2522 68.8832 22.2689C69.0823 22.1233 69.77 21.3403 69.77 21.3403C70.0596 21.7773 70.9464 22.1415 71.5075 22.1415C72.2314 21.9958 72.883 21.7045 73.2269 20.0475C73.0821 19.0279 72.6477 18.5909 72.2133 18.2995C71.3627 17.7169 70.5121 17.6804 69.77 17.9718C69.0461 18.2631 67.6344 19.1917 66.639 19.9201C66.9286 18.6091 67.9964 14.0752 67.9964 14.0752C67.9964 14.0752 60.5397 15.9871 59.9606 16.4241Z" fill="#A2600B"/>
<path d="M10.7686 50.8924C9.97225 50.8924 9.3207 50.5282 8.83204 49.7817C8.39767 49.1262 8.36147 48.1611 8.72344 47.4874C9.17591 46.6498 10.1532 46.3949 11.3477 46.8865C12.0355 46.2493 13.4834 44.1371 14.8951 42.116C15.2389 41.6061 15.6009 41.0963 15.9448 40.6047C15.1304 40.5683 14.4426 39.9128 14.1711 38.9113C13.8815 37.837 14.153 36.435 15.4018 35.7066C15.8724 35.4335 16.5058 35.0876 18.732 34.1589C18.0985 34.1225 17.1936 33.7584 17.1936 32.1014C17.1936 31.6462 17.5737 29.7161 17.8451 28.569C17.628 28.4597 17.1393 28.2048 16.8316 28.0592C16.6868 28.6418 16.542 29.2245 16.4154 29.8254C16.343 30.0985 16.2887 30.3898 16.2163 30.6812C16.5963 30.3352 17.1393 29.8618 17.1574 29.8436C17.2117 29.8072 17.266 29.789 17.3203 29.8254C17.3746 29.8618 17.4108 29.9164 17.3927 29.971L16.7049 33.904C16.7049 33.9222 16.6868 33.9587 16.6687 33.9769L16.5239 34.1225C16.5058 34.1225 15.4742 35.1604 12.6146 35.1786C10.9315 35.1786 9.10351 36.0344 7.38415 36.9448C7.32985 36.963 7.27555 36.963 7.23936 36.9266C7.18506 36.8902 7.16696 36.8356 7.18506 36.7809C7.18506 36.7809 7.89091 33.7219 8.0357 33.1211C8.0538 33.0664 8.10809 33.0118 8.16239 33.0118C8.16239 33.0118 8.36147 32.9936 8.85013 32.8662C9.53788 32.6841 10.4247 31.628 10.4971 30.9543C9.97225 31.1546 9.12161 31.2274 8.50626 31.2274C8.10809 31.2274 7.40225 31.2092 6.93168 31.0271C6.22584 30.754 5.73717 30.2988 5.48379 29.6797C5.17612 28.9514 5.19421 28.0227 5.53809 26.9303C5.03133 27.4219 4.39788 28.223 4.30738 29.097C4.28928 29.1881 4.30738 29.3155 4.41597 29.4248C4.79605 29.8072 5.17612 30.2806 5.17612 30.9907C5.17612 31.8647 4.59696 32.5384 3.51104 32.9026C2.62421 33.1939 1.79168 32.8297 1.14013 31.9011C0.651464 31.2092 0.597168 30.4809 0.597168 29.8618C0.741957 28.1866 1.37541 26.7118 2.62421 25.2187C4.16259 23.3614 6.94978 22.1597 9.73697 22.1415C10.2256 22.1415 10.7324 22.1779 11.203 22.2507C11.2392 22.2507 11.2753 22.2871 11.2934 22.3236C11.3115 22.36 11.3296 22.3964 11.3115 22.4328C11.2572 22.6331 9.93605 27.2216 9.84556 27.5311C9.84556 27.5675 9.86366 27.604 10.0265 27.6222C10.3704 27.695 10.7505 27.4947 11.3477 26.9485C11.9812 24.3265 12.6327 22.6877 13.4834 21.6498C14.6598 20.2114 15.6552 19.7198 16.9764 19.3374C18.2433 18.9732 19.4921 19.2646 20.2342 20.0657C20.6142 20.4663 20.7952 20.9579 20.7771 21.4313C20.7047 22.5056 19.9446 23.3614 19.0577 23.3614C18.8225 23.3614 18.5872 23.3068 18.37 23.1793C18.3157 23.3432 18.2433 23.5617 18.1528 23.7984C18.0442 24.108 17.9175 24.4539 17.7908 24.8181C18.6234 24.1626 19.9265 23.2158 20.4513 23.0701C21.1753 22.888 21.8268 23.0701 22.2431 23.5435C22.5689 23.9077 22.7137 24.4175 22.6594 24.9273C22.6232 25.164 22.4422 26.293 21.9716 28.5508C22.1345 28.3323 22.2974 28.0227 22.3879 27.6404C22.4241 27.4765 23.329 23.7256 23.51 23.1065C23.51 23.0701 23.5281 23.0337 23.6548 22.9791V22.9608C23.6729 22.9608 23.6729 22.9608 23.691 22.9608C24.0349 22.8334 24.976 22.5603 27.5822 21.8501C27.6365 21.8319 27.6908 21.8501 27.7089 21.8866C27.7451 21.923 27.7632 21.9776 27.7451 22.014C27.7451 22.0504 27.184 24.6906 26.7497 26.4933C27.1659 25.2005 28.0528 23.416 29.4102 22.1233C30.8942 20.703 32.4507 20.4845 33.2471 20.4845C33.8262 20.4845 34.3511 20.5938 34.6045 20.7758C34.8397 20.9579 34.9664 21.1036 35.075 21.2311C35.0931 21.2493 35.0931 21.2493 35.1112 21.2675C35.6542 20.8123 37.3554 19.4831 38.5681 19.4831C39.0386 19.4831 39.3825 19.6834 39.5816 20.0475H39.5997C40.5408 19.3556 41.2104 18.8458 41.9525 18.8094C42.9841 18.7365 43.4004 19.1007 43.5814 19.3192C44.6311 18.4998 45.5179 18.0992 46.2962 18.0992C46.9839 18.0992 47.4545 18.4088 47.7802 18.6819C48.3051 19.1007 48.3051 20.0839 48.1784 20.9943C48.8119 19.7198 49.9159 18.1903 51.7981 17.4619C52.3049 17.2616 52.9384 17.0614 53.4994 16.8975C53.8433 16.7882 54.1871 16.679 54.4586 16.5879C54.531 16.3694 54.5672 16.3148 54.5672 16.2966C54.5853 16.2602 54.6215 16.242 54.6396 16.242L58.0965 15.0949C58.1507 15.0767 58.205 15.0949 58.2412 15.1313C58.2774 15.1677 58.2955 15.2223 58.2774 15.2769L57.8612 16.7336L57.6802 17.4619C57.3182 18.8458 56.9019 20.4299 56.6486 21.7409C56.9381 21.6134 57.3001 21.5042 57.5535 21.5042H57.5897C57.9879 21.5224 58.3136 21.8501 58.5851 22.1597C58.7299 21.9048 58.9109 21.6134 58.9833 21.4496C58.1688 20.9761 57.8793 20.1021 57.8793 19.4831C57.8793 18.2631 58.7842 16.9157 60.033 16.2784C61.2818 15.6411 67.7249 14.0934 67.9964 14.0206C68.0507 14.0024 68.105 14.0206 68.1231 14.057C68.1593 14.0934 68.1774 14.148 68.1593 14.1844C68.1412 14.2209 67.2724 18.0264 66.9286 19.6469C67.9421 18.9186 68.9194 18.2813 69.1185 18.1539C69.571 17.8625 70.1139 17.6986 70.675 17.6986C71.9781 17.6986 73.3355 18.5726 73.3355 20.0839C73.3355 21.3039 72.5934 22.2325 71.5075 22.3418C70.9103 22.3964 70.0958 22.1233 69.8243 21.6134L69.7158 21.7409C69.0642 22.36 67.5439 23.8166 65.9151 24.9455C65.3902 25.3097 64.7567 25.51 64.1052 25.51C63.4174 25.51 62.8021 25.2915 62.4401 24.9091C62.2772 24.727 62.1686 24.5268 62.0962 24.29C61.4628 25.2551 60.6122 26.2201 59.2367 26.4933C59.0919 26.5115 58.9471 26.5297 58.8204 26.5297C58.1326 26.5297 57.5173 26.2565 56.92 25.7103C56.0875 26.7482 54.6396 27.5311 53.5537 27.5493C53.0288 27.5493 52.6126 27.3855 52.323 27.0577C51.7257 27.6222 50.5131 28.0774 49.4996 28.0774C48.8119 28.0774 48.2508 27.8953 47.8888 27.5129C46.8753 28.6236 45.8075 29.2427 44.8483 29.2427C44.2691 29.2427 43.7624 29.0242 43.3461 28.5872C43.1289 28.3505 42.966 27.9499 42.8755 27.5675C42.8755 27.5857 42.8755 27.604 42.8574 27.6222C42.7488 28.2412 42.6402 28.8785 42.5859 29.3884C42.5859 29.4612 42.5316 29.5158 42.4593 29.5158C42.4231 29.5158 39.8711 29.8982 38.4957 30.1895C38.4414 30.1895 38.4052 30.1895 38.369 30.1531C38.3328 30.1167 38.3147 30.0621 38.3328 30.0257C38.3328 30.0075 38.6404 28.3141 38.9119 26.73C38.749 27.4765 38.5681 28.2777 38.4233 28.915C38.3328 29.352 38.2423 29.7161 38.2061 29.9164C38.188 29.971 38.1518 30.0075 38.0975 30.0257C38.0613 30.0257 35.3827 30.5719 34.2787 30.7358C34.2425 30.7358 34.1882 30.7176 34.152 30.6994C34.1158 30.663 34.1158 30.6083 34.1158 30.5719C34.1158 30.5537 34.2063 30.1531 34.2787 29.789C33.0842 31.0089 31.2381 32.1742 29.5911 32.1924C28.6681 32.1924 27.8718 31.8465 27.2202 31.1364C27.1478 31.191 27.0935 31.2274 27.0211 31.282C26.9306 31.3367 26.8402 31.3913 26.7859 31.4641C26.6411 32.1196 26.1343 35.215 25.8809 36.7809C28.0528 35.124 28.2156 35.0329 28.5776 34.8327L28.65 34.7962C29.3016 34.4321 30.0798 34.5777 30.5504 35.1422C30.8942 35.561 31.0571 36.1072 30.9666 36.6717C30.9304 36.9266 30.6771 38.0373 30.2427 39.8399C30.3875 39.6214 30.478 39.3665 30.5685 39.0934C31.1657 37.2361 31.763 34.687 31.8354 34.4139C31.8535 34.3592 31.8897 34.3228 31.944 34.3046L35.9618 33.4124C36.0161 33.4124 36.0523 33.4124 36.0885 33.4488C36.1247 33.4852 36.1428 33.5399 36.1247 33.5763C36.0342 34.0133 35.9618 34.5049 35.9076 34.8144C37.084 33.8494 38.0975 33.0664 38.7671 32.9026C39.5816 32.7023 40.2331 32.8662 40.6132 33.376C41.0295 33.9404 41.0838 34.8509 40.7761 36.0344C40.7942 36.0344 40.8304 36.0162 40.8485 36.0162C40.9028 35.998 40.9571 35.998 40.9933 35.9798C41.2104 35.1968 41.4276 34.4139 41.6267 33.7766C41.7715 33.2667 41.8982 32.8479 41.9706 32.5748C41.9887 32.5384 42.0249 32.4838 42.0792 32.4656C42.0973 32.4656 43.5633 32.065 46.0247 31.4459C46.079 31.4277 46.1333 31.4459 46.1695 31.4823C46.2057 31.5187 46.2238 31.5734 46.2057 31.628C46.2057 31.628 46.0971 31.9739 45.9342 32.6477C45.9704 32.6112 46.0066 32.5748 46.0428 32.5384C46.8934 31.7737 47.9431 30.8268 48.9205 30.7176C49.6444 30.6265 50.2417 30.8632 50.6579 31.3731C50.9656 31.7372 51.1104 32.2289 51.038 32.6112C51.038 32.6294 51.038 32.6477 51.0199 32.6659C51.0018 32.8662 50.9294 33.4306 50.3503 35.998C50.5493 35.6884 50.676 35.4335 50.7665 35.1786C50.7665 35.1786 51.0199 34.341 51.7981 31.0089C51.8162 30.9543 51.8343 30.9179 51.8886 30.9179C51.9248 30.8997 54.6396 29.8436 55.9789 29.3702C56.0332 29.352 56.0875 29.3702 56.1237 29.4066C56.1599 29.443 56.178 29.4976 56.1599 29.5522C56.1418 29.5887 55.3274 33.4852 54.9292 35.2332C55.3093 34.9419 55.635 34.8873 55.8703 34.8873C56.3771 34.8873 56.7934 35.215 56.9562 35.5974C57.0467 35.4517 57.1372 35.3061 57.2458 35.1422C56.6486 34.8873 56.1599 34.1225 56.0694 33.2667C55.997 32.6294 56.0875 31.0271 58.2412 29.9528C59.49 29.2245 64.8291 27.8589 66.0055 27.7132C66.0417 27.7132 66.096 27.7314 66.1322 27.7496C66.1684 27.786 66.1684 27.8407 66.1684 27.8771C66.1322 28.0592 65.2997 31.9011 64.992 33.2121C66.0236 32.4292 67.1096 31.6462 68.4489 31.3731C69.4805 31.1546 70.3854 31.3913 70.9827 32.0286C71.4532 32.5202 71.6885 33.2303 71.6342 33.9951C71.5618 35.2696 70.6207 35.8523 69.7339 35.8523C69.1004 35.8523 68.5394 35.5974 68.2679 35.1786C68.2317 35.1786 68.1955 35.1786 68.1593 35.1786C68.105 35.1786 68.0688 35.1786 68.0145 35.1604C67.5077 35.6702 64.1414 38.711 63.0193 39.057C62.784 39.1298 62.5306 39.1662 62.2953 39.1662C61.3542 39.1662 60.6665 38.6928 60.4312 37.837C59.5081 39.5122 58.1869 39.9128 57.7345 40.0402C57.463 40.1131 57.1915 40.1677 56.9381 40.1677C56.178 40.1677 55.5445 39.8581 55.1464 39.2755C54.2053 40.2041 53.246 40.7868 52.3592 40.9324C52.2687 40.9506 52.1601 40.9688 52.0515 40.9688C51.4362 40.9688 51.0199 40.5501 50.7484 40.1859C49.8616 40.8414 48.468 41.77 48.0155 41.8793C47.8707 41.9157 47.7079 41.9339 47.5269 41.9339C46.9477 41.9339 46.3685 41.7154 46.0066 41.3512C45.7894 41.1145 45.6446 40.8414 45.5903 40.5318C45.4455 40.6593 45.3007 40.805 45.1378 40.9506C44.1424 41.8793 43.1108 42.8261 42.4412 42.9535C42.3507 42.9718 42.2602 42.9718 42.1516 42.9718C41.6267 42.9718 40.8485 42.7715 40.3598 42.207C39.9978 41.7882 39.8892 41.242 39.9797 40.6047C40.0159 40.4408 40.0702 40.2223 40.1245 39.9674C40.1788 39.7671 40.2331 39.5486 40.2693 39.3301C40.1969 39.3301 40.1426 39.3483 40.0883 39.3483C40.034 39.3483 39.9797 39.3483 39.9254 39.3483C39.6359 40.8414 39.3101 42.3163 39.1834 42.8989C39.1653 42.9536 39.1291 42.99 39.0748 43.0082C39.0748 43.0082 36.2514 43.6455 34.9664 43.9368C34.9121 43.955 34.8759 43.9368 34.8397 43.9004C34.8035 43.864 34.7854 43.8275 34.8035 43.7729C34.8035 43.7729 34.8578 43.4816 34.9302 43.1721C33.971 44.1189 32.7041 44.9929 31.6906 44.9929C31.1657 44.9929 30.7495 44.7562 30.4961 44.3192C29.4102 45.3206 28.2337 45.9215 27.2926 45.9215C26.5868 45.9215 26.0438 45.5938 25.7542 44.9747C25.7361 45.1932 25.6999 45.4481 25.6818 45.7212C25.6818 45.794 25.5913 45.8487 25.5371 45.8487H25.4828C25.157 45.8487 23.4738 45.8851 22.7499 46.2857C21.302 47.0868 19.9808 47.2143 17.6099 47.4146C17.5556 47.4146 17.5013 47.3782 17.4651 47.3417C17.447 47.2871 17.447 47.2325 17.4832 47.1779C18.8044 45.703 19.4016 43.9914 19.6007 41.0053C17.7908 43.8093 14.7684 48.3068 14.1349 49.0351C13.411 49.8545 12.0717 50.8742 10.7686 50.8924ZM10.1713 46.9048C9.48359 46.9048 9.13971 47.2871 8.97682 47.6149C8.66915 48.1975 8.70535 49.0715 9.06732 49.6178C9.50168 50.2733 10.0808 50.601 10.7686 50.601C11.9631 50.601 13.23 49.636 13.9539 48.7984C14.6055 48.0519 17.9356 43.081 19.6731 40.3498C19.7093 40.2951 19.7817 40.2587 19.836 40.2951C19.8903 40.3133 19.9446 40.368 19.9265 40.4408C19.7636 43.6637 19.2206 45.5027 17.9356 47.0686C20.1075 46.8865 21.2658 46.7409 22.6051 46.0125C23.3471 45.5938 24.9398 45.5573 25.4104 45.5391C25.4828 44.92 25.5371 44.3556 25.5371 44.2099C25.5371 44.1371 25.5913 44.0643 25.6637 44.0643C25.7361 44.0643 25.8085 44.1007 25.8266 44.1735C25.9895 45.1021 26.5144 45.5755 27.3107 45.5755C28.2156 45.5755 29.3921 44.9565 30.4599 43.9186C30.4961 43.8822 30.5504 43.864 30.5866 43.8822C30.6409 43.8822 30.6771 43.9186 30.6952 43.9732C30.9123 44.4284 31.2381 44.6651 31.7268 44.6651C32.7765 44.6651 34.2244 43.5726 35.1112 42.553C35.1474 42.4983 35.2198 42.4801 35.2922 42.5166C35.3465 42.553 35.3827 42.6076 35.3646 42.6804C35.3284 42.8443 35.2379 43.2995 35.1655 43.5544C36.3781 43.2813 38.5138 42.7897 38.9662 42.6986C39.111 42.0431 39.4187 40.5501 39.7083 39.1298C39.7264 39.0752 39.7626 39.0388 39.8169 39.0206C39.8712 39.0206 39.9616 39.0023 40.1064 39.0023C40.1969 39.0023 40.3236 38.9841 40.4684 38.9841C40.5046 38.9841 40.5589 39.0023 40.5951 39.0206C40.6313 39.057 40.6313 39.0934 40.6313 39.148C40.577 39.4576 40.5046 39.7489 40.4322 39.9856C40.3779 40.2405 40.3236 40.4408 40.2874 40.6047C40.1969 41.1509 40.3055 41.6061 40.5951 41.9521C41.0657 42.4983 41.9344 42.6986 42.405 42.6076C43.0022 42.4983 44.0338 41.5333 44.9569 40.6775C45.1921 40.459 45.4093 40.2587 45.6265 40.0584C45.6627 40.022 45.7351 40.022 45.7894 40.0402C45.8437 40.0584 45.8799 40.1131 45.8799 40.1677C45.8799 40.5318 45.9885 40.8414 46.2238 41.0963C46.5314 41.4058 47.0382 41.6061 47.5269 41.6061C47.6717 41.6061 47.8164 41.5879 47.9431 41.5515C48.3413 41.4423 49.7168 40.5501 50.6941 39.8035C50.7303 39.7853 50.7665 39.7671 50.8027 39.7853C50.8389 39.7853 50.8751 39.8035 50.8932 39.8399C51.3276 40.4772 51.7619 40.6957 52.2868 40.5865C53.1555 40.4408 54.1148 39.8399 55.0378 38.8749C55.074 38.8385 55.1102 38.8203 55.1645 38.8385C55.2007 38.8385 55.255 38.8749 55.2731 38.9113C55.5988 39.494 56.1961 39.8217 56.9019 39.8217C57.1372 39.8217 57.3725 39.7853 57.6259 39.7125C58.0784 39.5668 59.4538 39.1662 60.3407 37.2726C60.3769 37.2179 60.4312 37.1815 60.4855 37.1997C60.5579 37.1997 60.5941 37.2544 60.6122 37.3272C60.7388 38.6746 61.8067 38.8203 62.2591 38.8203C62.4763 38.8203 62.7116 38.7838 62.9107 38.7292C63.9423 38.4197 67.4534 35.2514 67.8335 34.8691C67.8516 34.8509 67.8878 34.8327 67.9421 34.8327C68.0145 34.8327 68.0869 34.8327 68.1593 34.8327C68.2679 34.8327 68.4127 34.8144 68.4669 34.9055C68.666 35.2696 69.1728 35.5064 69.7339 35.5064C70.4397 35.5064 71.2903 35.0876 71.3446 33.9222C71.3808 33.2303 71.1817 32.593 70.7655 32.156C70.2406 31.6098 69.4262 31.3913 68.5032 31.5916C67.0915 31.9011 65.9512 32.7751 64.8472 33.6309C64.7929 33.6673 64.7205 33.6673 64.6843 33.6309C64.6301 33.5945 64.612 33.5399 64.6301 33.467C64.7024 33.2303 65.4264 29.88 65.8427 27.9681C64.3767 28.223 59.5081 29.4976 58.3679 30.1531C56.3771 31.1364 56.2866 32.6112 56.359 33.1757C56.4495 33.9951 56.9381 34.7234 57.4992 34.8691C57.5535 34.8873 57.5897 34.9055 57.5897 34.9601C57.6078 35.0147 57.6078 35.0511 57.5716 35.0876C57.3906 35.3607 57.2639 35.561 57.1372 35.7613L57.0105 35.9616C56.9743 36.0162 56.92 36.0344 56.8657 36.0162C56.8115 35.998 56.7572 35.9616 56.7572 35.8887C56.721 35.5064 56.359 35.1058 55.8522 35.1058C55.5084 35.1058 55.1283 35.3061 54.7844 35.6884C54.7482 35.7431 54.6758 35.7431 54.6215 35.7249C54.5672 35.6884 54.531 35.6338 54.5491 35.561C54.8206 34.3228 55.6169 30.6812 55.816 29.6797C54.5491 30.1349 52.4497 30.9543 52.0515 31.1C51.2733 34.3957 51.038 35.1786 51.0199 35.215C50.8751 35.6702 50.5855 36.1072 50.1512 36.7263C50.115 36.7809 50.0426 36.7991 49.9702 36.7627C49.9159 36.7263 49.8797 36.6717 49.8978 36.5989C50.6217 33.4306 50.6941 32.7933 50.7303 32.593C50.7303 32.5566 50.7303 32.5384 50.7484 32.502C50.8027 32.1924 50.676 31.8101 50.4226 31.5005C50.0788 31.0817 49.5539 30.8815 48.9386 30.9543C48.0517 31.0635 47.0382 31.9739 46.2238 32.7023C46.0609 32.8479 45.9161 32.9936 45.7713 33.1029C45.717 33.1393 45.6627 33.1393 45.6084 33.1211C45.5541 33.0847 45.536 33.03 45.5541 32.9572C45.6989 32.3745 45.8075 31.9739 45.8618 31.7372C43.8528 32.2471 42.5678 32.593 42.2421 32.6841C42.1697 32.9572 42.043 33.3578 41.9163 33.813C41.7172 34.4867 41.4819 35.2879 41.2647 36.1072C41.2466 36.1619 41.2104 36.1983 41.1562 36.2165C41.0838 36.2347 41.0114 36.2529 40.9209 36.2529C40.8123 36.2711 40.7218 36.2893 40.6132 36.3075C40.5589 36.3075 40.5227 36.2893 40.4865 36.2529C40.4503 36.2165 40.4503 36.1619 40.4684 36.1254C40.8123 34.9419 40.7942 34.0133 40.4141 33.5034C40.1064 33.0847 39.5635 32.9572 38.8757 33.1393C38.188 33.3032 37.1021 34.1772 35.8352 35.2332C35.799 35.2696 35.7266 35.2697 35.6904 35.2514C35.6361 35.2332 35.5999 35.1786 35.5999 35.124C35.5999 34.9965 35.7628 34.1407 35.8352 33.7037L32.1249 34.5413C31.9802 35.1604 31.4372 37.4182 30.8761 39.1662C30.7314 39.6214 30.5866 40.0948 30.116 40.4226C30.0617 40.459 30.0074 40.459 29.9531 40.4226C29.8988 40.3862 29.8807 40.3316 29.8988 40.2769C30.5685 37.4729 30.7133 36.7809 30.7314 36.6171C30.8037 36.1436 30.6771 35.652 30.3694 35.3061C29.9712 34.8326 29.3559 34.7234 28.8129 35.0147L28.7405 35.0511C28.3785 35.2514 28.2156 35.3425 25.7904 37.1997C25.7361 37.2361 25.6818 37.2361 25.6275 37.1997C25.5732 37.1633 25.5551 37.1087 25.5551 37.0541C25.9352 34.6688 26.4058 31.8647 26.5325 31.3367C26.5325 31.3185 26.5506 31.282 26.5687 31.2638C26.6411 31.1728 26.7678 31.0999 26.8763 31.0271C26.9849 30.9543 27.0754 30.8815 27.1478 30.8268C27.1659 30.8086 27.2202 30.7904 27.2564 30.7904C27.2926 30.7904 27.3288 30.8086 27.365 30.845C27.9623 31.5552 28.7224 31.9011 29.6092 31.9011C31.3467 31.9011 33.3376 30.4991 34.4416 29.1881C34.4778 29.1335 34.5502 29.1335 34.6226 29.1517C34.6768 29.1881 34.713 29.2609 34.6949 29.3155C34.6407 29.534 34.514 30.1167 34.4416 30.408C35.4913 30.2442 37.5002 29.8436 37.9527 29.7525C37.9889 29.5522 38.0613 29.2427 38.1518 28.8603C38.3509 27.9317 38.6223 26.6753 38.8576 25.6921C38.8757 25.6193 38.93 25.5646 39.0386 25.4736C39.0748 25.4372 39.1291 25.4008 39.1291 25.3825C39.1472 25.3097 39.2196 25.2733 39.292 25.2915C39.3644 25.3097 39.4187 25.4008 39.4006 25.4736C39.1653 26.9303 38.7671 29.1881 38.6404 29.88C39.8712 29.6433 41.8258 29.3337 42.2964 29.2609C42.3507 28.7693 42.4593 28.1684 42.5497 27.5857C42.604 27.2944 42.6583 27.0031 42.6945 26.73C42.7126 26.6571 42.7669 26.6025 42.8393 26.6025C42.9117 26.6025 42.966 26.6753 42.966 26.7482C42.966 26.912 43.1289 28.0045 43.509 28.4051C43.8709 28.7875 44.3053 28.9696 44.8121 28.9696C45.717 28.9696 46.7486 28.3505 47.744 27.2216C47.7802 27.1852 47.8164 27.167 47.8526 27.167C47.8888 27.167 47.9431 27.1852 47.9612 27.2216C48.3413 27.7132 48.9748 27.8042 49.4634 27.8042C50.5674 27.8042 51.7619 27.258 52.1782 26.7664C52.2144 26.73 52.2506 26.7118 52.2868 26.7118C52.323 26.7118 52.3773 26.73 52.3954 26.7664C52.6307 27.1123 53.0107 27.2762 53.4994 27.2762C54.5491 27.2762 55.9789 26.4568 56.7391 25.4372C56.7572 25.4008 56.7934 25.3825 56.8476 25.3825C56.8838 25.3825 56.9381 25.4008 56.9562 25.419C57.6259 26.1109 58.3136 26.3658 59.1281 26.2383C60.5579 25.947 61.3904 24.8363 62.0239 23.7984C62.0601 23.7438 62.1143 23.7256 62.1867 23.7438C62.241 23.762 62.2953 23.8166 62.2953 23.8895C62.2772 24.2172 62.3858 24.4903 62.603 24.727C62.9107 25.0548 63.4536 25.2551 64.069 25.2551C64.6662 25.2551 65.2454 25.073 65.716 24.7453C67.3086 23.6345 68.8289 22.1961 69.4624 21.577L69.6253 21.4131C69.6615 21.3767 69.7339 21.3221 69.8063 21.3221C69.8605 21.3221 69.951 21.3403 69.9872 21.4678C70.1501 21.8866 70.8922 22.1597 71.417 22.1051C72.3401 22.014 72.9916 21.1946 72.9735 20.1386C72.9735 18.8276 71.7609 18.0446 70.6026 18.0446C70.0958 18.0446 69.6072 18.1903 69.1909 18.4634C68.9737 18.6091 67.8335 19.3374 66.7114 20.175C66.6571 20.2114 66.6028 20.2114 66.5485 20.175C66.4942 20.1386 66.4761 20.0839 66.4942 20.0293C66.7295 18.9004 67.5439 15.3498 67.7611 14.4212C66.5847 14.7125 61.1913 16.0235 60.0873 16.5879C58.929 17.1706 58.0965 18.427 58.0965 19.5377C58.0965 20.1021 58.386 20.9033 59.1643 21.3039C59.2367 21.3403 59.2548 21.4131 59.2367 21.486C59.1824 21.6498 58.7118 22.451 58.6575 22.5421C58.6394 22.5785 58.5851 22.5967 58.5489 22.6149C58.4946 22.6149 58.4584 22.5967 58.4222 22.5603L58.386 22.5056C58.1326 22.2143 57.825 21.8501 57.4992 21.8319C57.2096 21.8319 56.7753 22.014 56.4857 22.1233L56.4314 22.1415C56.3771 22.1597 56.3228 22.1597 56.2866 22.1233C56.2504 22.0868 56.2323 22.0322 56.2323 21.9776C56.4676 20.5938 56.92 18.9004 57.3001 17.4255L57.4992 16.6972L57.8431 15.4954L54.712 16.5333C54.6939 16.5697 54.6577 16.6608 54.6215 16.7882C54.6034 16.8246 54.5672 16.8611 54.531 16.8793C54.2414 16.9885 53.8795 17.0978 53.4994 17.207C52.9564 17.3709 52.323 17.5712 51.8162 17.7715C49.1376 18.7911 48.0879 21.5406 47.7621 22.6695C47.744 22.7423 47.6717 22.7788 47.5993 22.7788C47.5269 22.7606 47.4726 22.6877 47.4907 22.6149C47.5088 22.5238 47.5269 22.3964 47.5631 22.2507C47.7621 21.3403 48.1965 19.4831 47.5088 18.9368C47.2192 18.7001 46.8029 18.427 46.2057 18.427C45.4636 18.427 44.5949 18.8458 43.5452 19.7016C43.509 19.738 43.4547 19.738 43.4185 19.7198C43.3642 19.7016 43.328 19.6651 43.328 19.6287C43.328 19.6105 43.0927 19.0643 41.8982 19.1553C41.2466 19.1917 40.5951 19.6833 39.7083 20.3388L39.5454 20.4481C39.5092 20.4663 39.4549 20.4845 39.4187 20.4663C39.3644 20.4481 39.3463 20.4117 39.3282 20.3753C39.1834 19.9929 38.9119 19.8108 38.4957 19.8108C37.5545 19.8108 36.0885 20.7941 35.1112 21.6134C35.0569 21.6681 34.9664 21.6681 34.9121 21.6134C34.8578 21.5588 34.8216 21.5042 34.7673 21.4496C34.6768 21.3403 34.5683 21.1946 34.3511 21.049C34.1882 20.9215 33.7538 20.8123 33.1566 20.8123C32.3964 20.8123 30.9304 21.0308 29.5187 22.3782C28.1252 23.7256 27.2202 25.5828 26.8582 26.8756C26.7135 27.1488 26.6773 27.1852 26.4058 27.5129C26.3696 27.5675 26.2972 27.5675 26.2248 27.5493C26.1705 27.5129 26.1343 27.4583 26.1524 27.3855C26.5144 26.0198 27.1478 23.0883 27.3288 22.2507C24.5959 23.0155 23.872 23.2158 23.6729 23.2886C23.4919 23.9623 22.5689 27.7314 22.5689 27.7678C22.3698 28.6236 21.863 29.0606 21.7182 29.1699C21.6639 29.2063 21.6097 29.2063 21.5554 29.1699C21.5011 29.1335 21.483 29.0788 21.5011 29.0242C22.044 26.4386 22.2431 25.164 22.2793 24.9273C22.3336 24.5085 22.2069 24.0716 21.9354 23.7802C21.7544 23.5799 21.4287 23.325 20.8857 23.325C20.7409 23.325 20.578 23.3432 20.4151 23.3796C19.9265 23.5071 18.4062 24.6178 17.4832 25.3643C17.4289 25.4008 17.3565 25.4008 17.3203 25.3825C17.266 25.3461 17.2479 25.2733 17.266 25.2187C17.4289 24.7088 17.628 24.1626 17.7727 23.7256C17.8813 23.3978 17.9899 23.1247 18.0442 22.9426C18.0623 22.9062 18.0985 22.8698 18.1347 22.8516C18.1709 22.8334 18.2252 22.8516 18.2614 22.8698C18.4786 23.0155 18.7139 23.0883 18.9492 23.0883C19.6912 23.0883 20.3247 22.3418 20.397 21.4131C20.4151 21.0308 20.2523 20.612 19.9446 20.266C19.2749 19.5559 18.1347 19.301 16.9764 19.6287C15.6914 19.9929 14.7684 20.4663 13.6282 21.8501C12.7956 22.8516 12.1622 24.4721 11.5287 27.0759C11.5287 27.1123 11.5106 27.1305 11.4925 27.1488C10.8048 27.786 10.3342 28.0045 9.88175 27.9317C9.75506 27.9135 9.59218 27.8589 9.50168 27.7314C9.46549 27.6768 9.44739 27.5858 9.48359 27.4583C9.57408 27.1852 10.66 23.3614 10.8953 22.5238C10.479 22.4692 10.0627 22.451 9.62837 22.451C6.91358 22.4692 4.21689 23.6346 2.7328 25.419C1.5383 26.8756 0.904844 28.2959 0.778154 29.88C0.778154 30.6994 0.922943 31.2456 1.28492 31.7554C1.86407 32.593 2.56992 32.9026 3.33006 32.6477C3.99971 32.4292 4.81414 31.9739 4.79605 31.0271C4.79605 30.5537 4.59696 30.1531 4.1083 29.6615C3.90921 29.4612 3.90921 29.2245 3.92731 29.097C4.0721 27.8407 5.19421 26.7664 5.68288 26.3658C5.73717 26.3294 5.80957 26.3112 5.86386 26.3658C5.91816 26.4022 5.93626 26.475 5.91816 26.5297C5.4114 27.8042 5.3209 28.8421 5.66478 29.6251C5.90006 30.1713 6.33443 30.5719 6.96788 30.8268C7.27555 30.9543 7.81851 31.0271 8.43387 31.0089C9.3026 31.0089 10.1351 30.8632 10.4971 30.663C10.5333 30.6447 10.5876 30.6447 10.6238 30.663C10.66 30.6812 10.6962 30.7176 10.6962 30.7722C10.841 31.5369 9.75506 32.9572 8.85013 33.1939C8.52436 33.2849 8.32527 33.3214 8.21668 33.3396C8.07189 33.9587 7.63753 35.8523 7.45654 36.5989C9.12161 35.7249 10.8772 34.9419 12.5422 34.9419C15.2389 34.9237 16.2344 33.9769 16.2344 33.9769L16.343 33.8676L16.4154 33.467L16.9583 30.408C16.6506 30.6994 16.1801 31.1182 15.981 31.2456C15.9267 31.282 15.8724 31.282 15.8181 31.2456C15.7638 31.2092 15.7457 31.1546 15.7638 31.0817C15.8724 30.6447 15.9629 30.226 16.0534 29.8072C16.1982 29.1335 16.343 28.4962 16.5239 27.8589C16.542 27.8225 16.5601 27.786 16.5963 27.7678C16.6325 27.7496 16.6868 27.7496 16.723 27.7678C17.0126 27.9135 17.9899 28.4051 17.9899 28.4051C18.0442 28.4415 18.0804 28.4962 18.0623 28.569C17.7727 29.8072 17.3927 31.7372 17.3927 32.1378C17.3927 33.3214 17.8813 33.9222 18.8044 33.904C19.2025 33.904 19.5826 33.7948 19.7636 33.7219C19.836 33.6855 19.9265 33.7219 19.9446 33.813C19.9627 33.8858 19.9446 33.9769 19.8722 33.9951C16.723 35.3061 15.9991 35.6884 15.4561 35.998C14.2616 36.6899 14.1168 37.9827 14.3702 38.8749C14.6417 39.8581 15.3294 40.459 16.1258 40.3498C16.1801 40.3316 16.2344 40.368 16.2706 40.4226C16.3068 40.4772 16.3068 40.5318 16.2706 40.5865C15.8724 41.1509 15.4742 41.7518 15.058 42.3345C13.5377 44.5377 12.0898 46.6316 11.402 47.2325C11.3658 47.2689 11.3115 47.2871 11.2572 47.2507C10.8953 46.9958 10.5152 46.9048 10.1713 46.9048ZM25.2656 42.8807C25.2294 42.8807 25.1932 42.8625 25.1751 42.8443C25.1389 42.8261 25.1208 42.7715 25.1208 42.7351C25.1389 41.9521 25.1751 41.242 25.2113 40.5318C25.2294 40.1859 25.2475 39.8581 25.2475 39.5122C25.2475 39.4576 25.2837 39.4211 25.3199 39.3847C25.3561 39.3665 25.4104 39.3665 25.4647 39.3847C25.6637 39.4758 25.9714 39.6214 26.2067 39.7125C26.3153 39.7489 26.4058 39.8035 26.4601 39.8217C26.5144 39.8581 26.5506 39.9128 26.5506 39.9856C26.4058 40.6593 26.2791 41.2966 26.1524 41.8611C26.0981 42.1706 26.0257 42.4437 25.9895 42.6804C25.9714 42.735 25.9352 42.7897 25.8809 42.7897C25.7904 42.8079 25.718 42.8261 25.6637 42.8261C25.5371 42.8443 25.4647 42.8625 25.2656 42.8807ZM25.519 39.7307C25.5009 40.0038 25.5009 40.2769 25.4828 40.5501C25.4647 41.2056 25.4285 41.8611 25.4104 42.5712C25.4828 42.553 25.5371 42.553 25.5913 42.5348C25.6275 42.5348 25.6637 42.5166 25.718 42.5166C25.7723 42.2981 25.8085 42.0431 25.8628 41.7882C25.9714 41.2602 26.08 40.6775 26.2248 40.0402C26.1705 40.022 26.1343 40.0038 26.08 39.9856C25.899 39.9128 25.6999 39.8217 25.519 39.7307ZM34.5502 39.6214C34.514 39.6214 34.4959 39.6214 34.4778 39.6032C34.4235 39.5668 34.4054 39.5122 34.4235 39.4394C34.5683 38.8567 34.6949 38.1101 34.8397 37.4C34.8397 37.3636 34.8759 37.309 34.9121 37.2908C34.9483 37.2726 35.0026 37.2726 35.0388 37.2908C35.256 37.4 36.0161 37.5275 36.2876 37.5639C36.3419 37.5639 36.3781 37.6003 36.3962 37.6549C36.4143 37.7096 36.3962 37.7642 36.36 37.8006C36.2333 37.9281 36.0885 38.0919 35.9257 38.274C35.5637 38.6746 35.1293 39.1662 34.6226 39.585C34.6226 39.6032 34.5864 39.6214 34.5502 39.6214ZM35.075 37.6185C34.9664 38.1284 34.8759 38.6382 34.7854 39.0752C35.1293 38.7474 35.437 38.4015 35.7266 38.0737C35.8171 37.9827 35.8895 37.8916 35.9799 37.8006C35.7085 37.7642 35.3465 37.6914 35.075 37.6185ZM18.0623 37.9463C17.9899 37.9463 17.9537 37.9099 17.9356 37.8552C17.8632 37.6731 17.7908 37.4 17.7908 37.4C17.7727 37.3454 17.8089 37.2726 17.8632 37.2361C17.9899 37.1633 18.0623 37.1269 18.1709 37.0723L18.4243 36.9266C18.4786 36.8902 18.551 36.9084 18.5872 36.9448C18.6234 36.9994 18.6415 37.0541 18.6053 37.1087C18.5148 37.2726 18.4424 37.3818 18.37 37.5093C18.3157 37.6003 18.2614 37.7096 18.1709 37.837C18.1709 37.9099 18.1166 37.9281 18.0623 37.9463ZM44.5768 37.5275C44.5587 37.5275 44.5225 37.5275 44.5044 37.5093C44.4501 37.4729 44.432 37.4 44.4501 37.3454L44.5768 36.9266C44.7035 36.4896 44.8483 36.0162 45.0293 35.4335C45.0474 35.3971 45.0654 35.3607 45.1016 35.3425C45.1378 35.3243 45.174 35.3243 45.2102 35.3425L46.2238 35.7795C46.26 35.7977 46.2962 35.8341 46.3143 35.8887C46.3143 35.9434 46.3143 35.9798 46.26 36.0162C46.0971 36.1801 45.9342 36.3257 45.7532 36.5078C45.4636 36.7991 45.1197 37.1269 44.6854 37.4911C44.6311 37.5093 44.5949 37.5275 44.5768 37.5275ZM45.2283 35.6702C45.0835 36.1436 44.9569 36.5624 44.8483 36.9448C45.1016 36.7081 45.3188 36.4896 45.536 36.2893C45.6627 36.1801 45.7713 36.0526 45.8799 35.9434L45.2283 35.6702ZM21.483 33.2303C21.4287 33.2303 21.3925 33.2121 21.3563 33.1575C21.3201 33.1029 21.3201 33.0118 21.3744 32.9754C21.5916 32.7933 21.7363 32.6841 21.8449 32.593C21.9535 32.5202 22.0078 32.4656 22.0802 32.3927C22.1345 32.3563 22.2069 32.3381 22.2612 32.3745L22.3336 32.4109C22.406 32.4474 22.4422 32.4656 22.5689 32.5384C22.6232 32.5566 22.6594 32.6112 22.6594 32.6659C22.6594 32.7205 22.6232 32.7751 22.5689 32.7933C22.2793 32.9208 22.1164 32.9754 21.9173 33.0664L21.5373 33.2303C21.5192 33.2303 21.5011 33.2303 21.483 33.2303ZM60.7388 32.4656C60.6846 32.4656 60.6122 32.4292 60.5941 32.3745C60.576 32.3017 60.5941 32.2289 60.6665 32.1924C60.8112 32.1196 60.9017 32.0832 60.956 32.0468C61.0646 31.9922 61.1008 31.9739 61.2456 31.9011C61.2818 31.8829 61.318 31.8829 61.3723 31.9011C61.4085 31.9193 61.4447 31.9557 61.4447 31.9922C61.4628 32.0286 61.4628 32.065 61.4809 32.0832C61.499 32.156 61.5352 32.2289 61.499 32.3017C61.4809 32.3381 61.4266 32.3745 61.3904 32.3745C61.0284 32.4292 60.7569 32.4656 60.7388 32.4656ZM30.5323 28.5144C30.3694 28.5144 30.3513 28.3869 30.3513 28.3687C30.3513 28.3505 30.3513 28.3323 30.3513 28.3323C30.3694 28.2048 30.9666 25.2551 31.4553 24.5632C31.6001 24.3629 31.7811 24.29 31.8173 24.29C31.8173 24.29 31.8354 24.29 31.8535 24.29C31.8535 24.29 32.0525 24.2718 32.3421 24.2718C32.3602 24.2718 32.3964 24.2718 32.4145 24.29C32.8851 24.5268 33.3557 24.5814 33.8081 24.4721C33.8443 24.4539 34.0072 24.3629 34.1339 24.29C34.1701 24.2718 34.2063 24.2536 34.2425 24.2718C34.2787 24.2718 34.3149 24.3083 34.333 24.3447C34.5321 24.6906 35.1836 25.0002 35.3465 25.0002C35.3827 25.0002 35.437 25.0184 35.4732 25.0548C35.5094 25.0912 35.5094 25.1458 35.5094 25.1823C35.4008 25.601 35.3103 25.947 35.2198 26.3112C35.1112 26.7846 34.9845 27.258 34.7854 27.9681C34.7673 28.0227 34.7311 28.0592 34.6768 28.0774C34.6226 28.0774 34.5683 28.0592 34.5321 28.0227L33.3195 26.4022C33.1204 26.5843 32.9032 26.7664 32.686 26.9849C31.6906 27.8953 31.0028 28.4962 30.659 28.5508C30.6047 28.5144 30.5685 28.5144 30.5323 28.5144ZM31.8897 24.5632C31.8535 24.5814 31.763 24.636 31.6906 24.727C31.2924 25.2733 30.8037 27.5311 30.659 28.2048C31.0028 28.0774 31.8535 27.2944 32.4869 26.73C32.7584 26.475 33.0299 26.2383 33.2471 26.0563C33.2833 26.038 33.3195 26.0198 33.3557 26.0198C33.3918 26.0198 33.428 26.038 33.4642 26.0745L34.5864 27.5857C34.7311 27.0213 34.8397 26.6207 34.9302 26.2201C35.0026 25.9106 35.075 25.601 35.1655 25.2369C34.8578 25.1458 34.4054 24.8909 34.152 24.5814C34.0615 24.636 33.9348 24.7088 33.8624 24.727C33.3557 24.8545 32.8127 24.7999 32.3059 24.545C32.0887 24.545 31.944 24.5632 31.8897 24.5632ZM51.2552 23.8713C51.2371 23.8713 51.2009 23.853 51.1828 23.853C51.1466 23.8348 51.1104 23.7802 51.1104 23.7256C51.1104 23.2704 51.3819 22.3418 51.3819 22.3053C51.6714 21.6316 51.9972 21.2675 52.5945 20.9579C52.6488 20.9397 52.7031 20.9397 52.7393 20.9761C52.7755 21.0126 52.8117 21.049 52.7936 21.1036C52.7393 21.5588 52.6126 22.1961 52.3592 22.7606C52.2687 22.9426 51.8524 23.5617 51.2914 23.853C51.2914 23.8713 51.2733 23.8713 51.2552 23.8713ZM51.6533 22.4146C51.6533 22.4146 51.4724 23.0155 51.4181 23.4707C51.7619 23.1975 52.0515 22.8152 52.1239 22.6513C52.3049 22.2325 52.4316 21.7591 52.4859 21.3585C52.1058 21.6134 51.8524 21.923 51.6533 22.4146ZM62.5668 18.9368C62.3677 18.9368 62.2591 18.8822 62.2229 18.7729C62.2048 18.7183 62.1867 18.6091 62.2772 18.4998C62.4039 18.2995 62.7659 18.1174 63.0193 18.1174C63.1641 18.1174 63.2546 18.1721 63.2908 18.2267C63.3451 18.2813 63.3631 18.3541 63.3631 18.427C63.3451 18.6091 63.1098 18.7911 63.0555 18.8276C62.9107 18.9004 62.7297 18.9368 62.5668 18.9368ZM62.5125 18.6455C62.5306 18.6455 62.5487 18.6455 62.5668 18.6455C62.6754 18.6455 62.8021 18.6091 62.8926 18.5726C62.9288 18.5544 63.0012 18.4634 63.0374 18.427C63.0193 18.427 63.0193 18.427 63.0012 18.427C62.8383 18.4088 62.603 18.5544 62.5125 18.6455Z" fill="white"/>
<path d="M15.9811 33.5217C16.0173 33.5035 16.0354 33.4489 16.0354 33.4125C16.0354 33.3214 16.1802 32.6113 16.3069 31.974C16.325 31.9194 16.2888 31.8466 16.2345 31.8284C16.1802 31.7919 16.1259 31.7919 16.0716 31.8466C15.601 32.2289 15.221 32.4657 14.9133 32.5385C16.325 26.2748 17.2842 23.4161 17.7548 22.2144C18.1349 22.4511 18.4244 22.5785 18.8588 22.5785C18.8588 22.5785 18.8588 22.5785 18.8769 22.5785C19.4922 22.4693 19.8542 22.0505 19.8542 21.4132C19.8542 20.9944 19.7456 20.5574 19.0398 20.2661C18.6597 20.1022 18.1168 19.9748 17.3747 20.1204C15.8906 20.4664 14.7866 21.1583 14.0084 22.2508C13.2301 23.3797 12.5424 25.0549 11.8727 27.3855C11.1307 28.1503 10.3886 28.387 9.82759 28.4962C9.41133 28.5691 9.06745 28.4962 8.90457 28.296C8.81407 28.1685 8.77787 28.0046 8.83217 27.8043C9.42942 25.5647 10.2258 23.143 10.2439 23.1248C10.262 23.0884 10.262 23.0338 10.2258 22.9973C10.1896 22.9609 10.1534 22.9427 10.1172 22.9427C9.97238 22.9427 8.16252 23.1248 7.51097 23.2523C5.77351 23.58 4.34372 24.4176 3.14921 25.8014C1.9909 27.1488 1.41174 28.5145 1.41174 29.8619C1.41174 30.3717 1.46604 30.9726 1.79181 31.4824C2.04519 31.8648 2.37097 32.2472 2.93203 32.2472C3.05872 32.2472 3.18541 32.2289 3.3121 32.1925C3.74646 32.0651 4.27132 31.7737 4.27132 31.0272C4.27132 30.6994 4.10843 30.3717 3.80076 30.044C3.54738 29.789 3.40259 29.3885 3.40259 29.1153C3.40259 28.2777 3.81886 27.422 4.63329 26.5662C5.32104 25.856 6.08118 25.3644 6.87752 25.0731C6.56985 26.0745 5.95449 28.1503 5.97259 28.6601C5.99069 29.1882 6.31646 29.9347 7.2214 30.3171C7.54717 30.4627 7.92724 30.5174 8.37971 30.5174C8.70548 30.5174 9.08555 30.481 9.59231 30.4081C10.2258 30.2807 10.8592 30.0257 11.4927 29.6616L11.1307 31.3914C10.6058 33.4671 8.88647 33.7767 8.81407 33.7767C8.74168 33.7949 8.68738 33.8495 8.68738 33.9223C8.68738 34.1408 8.4883 35.033 8.4159 35.3426C8.3978 35.3972 8.4159 35.4518 8.4702 35.4882C8.4883 35.5064 8.52449 35.5247 8.56069 35.5247C8.57879 35.5247 8.59689 35.5247 8.61499 35.5064C8.70548 35.47 8.79597 35.4154 8.90457 35.3426C9.55612 34.9784 10.6239 34.3411 12.5605 34.3411C14.9133 34.2865 15.9449 33.5582 15.9811 33.5217ZM15.402 24.108C14.8047 26.202 14.2799 28.7876 13.8093 31.1547C13.7007 31.6827 13.5921 32.2107 13.5016 32.7024H13.2301C13.2482 32.6295 13.2663 32.5203 13.3025 32.3928C14.2075 28.0775 14.8952 25.5465 15.402 24.108Z" fill="white"/>
<path d="M24.9399 43.4816L24.5417 43.5727C24.596 40.1859 24.8313 35.6521 25.7181 32.8298C25.7543 32.7205 25.7724 32.6659 25.7724 32.6295C25.7724 32.5748 25.7362 32.5202 25.6819 32.502C25.6276 32.4838 25.5733 32.502 25.519 32.5384C25.4466 32.6113 24.9037 32.8116 24.4331 32.939C24.3969 32.9572 24.3607 32.9754 24.3426 33.0118C23.2567 35.3789 22.9852 42.899 22.949 43.9368L22.6595 44.0097C22.5147 36.781 23.8721 33.1393 23.8902 33.1211C23.9083 33.0665 23.8902 32.9936 23.854 32.9572C23.8178 32.9208 23.7454 32.9026 23.6911 32.939C23.6368 32.9754 23.1843 33.1393 22.6776 33.3396C19.3474 34.6142 16.1982 35.8523 15.8001 36.3622C15.0399 37.0541 14.9313 37.7824 14.9675 38.274C15.0037 38.8749 15.2933 39.3483 15.5467 39.5122C16.1078 39.8946 16.7412 39.8582 17.1394 39.4212C17.3747 39.1663 17.5013 38.8203 17.4833 38.4925C17.4652 38.092 17.2661 37.7096 17.1937 37.5821C17.2118 37.3454 17.3385 37.0905 17.5737 36.8356C17.9176 36.4714 19.3474 35.8706 20.379 35.5246C19.999 36.0526 19.4198 36.9448 18.6959 38.0191C16.5964 41.1874 12.2166 47.7606 11.4383 47.7788C11.4202 47.7606 10.9497 47.4328 10.4067 47.4328C10.0628 47.4328 9.77324 47.5603 9.51986 47.8334C9.12169 48.4525 9.21219 48.9077 9.35697 49.1808C9.64655 49.7271 10.3705 49.9638 10.7868 49.9638H10.8049C11.7641 49.9456 12.5242 49.545 13.3387 48.5799C14.0264 47.7788 17.3385 42.9718 19.1845 40.0403C19.4017 39.7125 19.6189 39.403 19.8542 39.057C20.1437 38.6564 20.4333 38.2376 20.7048 37.8006C20.6867 38.0373 20.6505 38.274 20.6324 38.5108C20.5238 39.585 20.4152 40.9143 20.2161 42.4255C20.0894 45.1022 19.275 45.9944 19.275 45.9944C19.2388 46.0308 19.2207 46.1036 19.2388 46.1582C19.2569 46.2129 19.3112 46.2493 19.3655 46.2493C20.6324 46.2493 21.6278 45.9762 22.2975 45.4845C23.4015 44.9201 24.7951 44.9019 24.8132 44.9019C24.8856 44.9019 24.958 44.8472 24.958 44.7562C24.958 44.1917 25.0847 43.6273 25.0847 43.6091C25.1028 43.5545 25.0847 43.4998 25.0485 43.4634C25.0304 43.4816 24.9942 43.4634 24.9399 43.4816Z" fill="white"/>
<path d="M70.1139 32.3019C69.9148 32.2108 69.39 32.0834 68.9013 32.1016C68.7746 32.1016 68.6479 32.1198 68.5393 32.138C67.2905 32.4293 66.277 33.012 64.9377 34.2502L63.7251 35.3973C63.9061 34.5961 64.2681 32.9392 64.5938 31.4461C64.8653 30.1715 65.1006 29.0608 65.173 28.8241C65.1911 28.7695 65.173 28.7331 65.1368 28.6966C65.1006 28.6602 65.0463 28.642 65.0101 28.6602C64.3043 28.8059 59.7072 29.9712 58.6575 30.6085C58.0059 31.0091 56.7209 31.9195 56.8838 33.103C57.0829 34.0499 57.5897 34.3958 57.9878 34.5233C58.1507 34.5779 58.3679 34.6325 58.6394 34.6507C58.5308 34.7418 58.4222 34.8328 58.386 34.8692C58.0059 35.2516 57.825 35.6158 57.6259 36.071L57.4992 36.3259C57.3182 36.7083 56.9019 36.9814 56.6847 37.0907C56.6124 36.8539 56.4495 36.3987 56.359 36.1074C56.2866 35.9071 56.178 35.5794 55.8341 35.5794C55.7074 35.5794 55.5626 35.6158 55.3997 35.7068C54.9835 35.9253 54.0604 36.8904 53.5537 37.4184C53.8252 36.1984 54.6034 32.9028 55.1464 30.5903C55.1645 30.5357 55.1464 30.481 55.1102 30.4446C55.074 30.4082 55.0197 30.39 54.9835 30.4082C54.4043 30.5539 52.6126 31.2822 52.5402 31.3004C52.504 31.3186 52.4678 31.355 52.4497 31.3915L51.4542 35.3609C51.3276 35.9982 51.0018 36.599 50.3502 37.3456C49.9159 37.8372 49.5177 38.1103 49.1376 38.1649C49.3729 37.0907 50.2959 32.7389 50.2959 32.4475C50.2959 31.9013 49.4815 31.4279 48.9928 31.4279C48.5585 31.4279 48.1965 31.5371 47.6173 32.0652C47.1649 32.4658 45.0654 34.2502 45.0473 34.2684C45.0111 34.2866 44.993 34.3412 44.993 34.3776C44.993 34.414 45.0111 34.4687 45.0473 34.4869C45.4817 34.7782 46.1876 35.2152 46.2057 35.2152C46.2599 35.2516 46.3323 35.2334 46.3866 35.197C46.4952 35.0877 47.1106 34.5051 47.4907 34.1591C47.4364 34.5051 47.3459 34.9785 47.1468 35.7614C46.278 36.7811 44.3596 38.5655 43.4909 39.2939C43.7261 38.1832 44.5406 34.8328 45.1016 32.5022C45.1197 32.4475 45.1016 32.3929 45.0654 32.3747C45.0292 32.3383 44.9749 32.3201 44.9207 32.3383C44.3415 32.484 42.6221 32.9392 42.6221 32.9392C42.5678 32.9574 42.5135 33.012 42.5135 33.0666C42.4954 33.2305 41.9344 35.197 41.5543 36.4716C40.4865 36.6537 39.9978 36.7083 39.7806 36.7265C39.8711 36.3805 39.9254 36.1074 39.9797 35.8889C40.1788 35.0877 40.215 34.9421 40.215 34.414C40.215 34.0863 40.0883 33.2851 38.9119 33.3944C38.0251 33.4672 35.2741 36.0892 34.9664 36.3805C34.9302 36.4169 34.9121 36.4716 34.9302 36.508C34.9302 36.5626 34.9664 36.599 35.0207 36.6172C35.6723 36.8904 36.3057 37.0542 36.3419 37.0542C36.3962 37.0724 36.4505 37.0542 36.4867 37.0178C36.8668 36.6354 37.1202 36.3623 37.3011 36.1802L36.9754 38.0193C36.2695 38.8569 34.1339 40.6959 33.3375 41.3878C33.5909 40.2407 34.4778 36.8357 35.0931 34.4687C35.1112 34.414 35.0931 34.3594 35.0569 34.3412C35.0207 34.3048 34.9664 34.2866 34.9121 34.3048C34.333 34.4505 32.6317 34.9057 32.6317 34.9057C32.5774 34.9239 32.5231 34.9785 32.5231 35.0331C32.505 35.197 31.8354 37.6551 31.401 39.2392C30.9485 40.6413 29.4463 41.7884 28.8853 42.1161C28.9758 41.7156 29.1387 40.9508 29.3197 40.1861C29.754 38.2378 30.0798 36.7447 30.0979 36.508C30.116 36.2167 30.1341 35.5247 29.7178 35.3427C29.4101 35.197 29.2292 35.2152 28.7586 35.3973C28.4871 35.5065 25.5913 37.8372 25.0122 38.3106C24.976 38.3288 24.9579 38.3834 24.9579 38.4381C24.9579 38.4745 24.976 38.5291 25.0122 38.5473C25.4465 38.8387 26.1524 39.13 26.1886 39.1482C26.2429 39.1664 26.2972 39.1482 26.3515 39.1118C26.3877 39.0572 26.5506 38.9297 26.7315 38.7658C26.9306 38.5837 27.184 38.3652 27.4012 38.1649C27.0573 39.5852 26.2791 43.2633 26.2791 43.5546C26.2791 44.0098 26.4239 44.3376 26.7496 44.6835C26.8944 44.8292 27.1116 44.902 27.4012 44.902C27.5098 44.902 27.6184 44.8838 27.7451 44.8656C28.4328 44.7381 30.0436 43.5728 30.7132 42.9901C30.7494 43.2451 30.858 43.6092 31.22 43.8095C31.6725 44.0644 31.9078 44.0462 32.1973 43.9552C33.0299 43.7003 34.6587 42.2618 36.3781 40.6413C36.1247 41.4606 35.8894 42.6806 35.8713 42.7352C35.8713 42.7898 35.8713 42.8263 35.9075 42.8627C35.9437 42.8991 35.998 42.8991 36.0523 42.8991C36.6134 42.7534 38.4594 42.2982 38.4956 42.2982C38.5499 42.28 38.6042 42.2254 38.6042 42.1708C38.6223 42.0251 39.0929 39.9129 39.4187 38.4745L41.2647 38.2196C41.138 38.8569 41.0114 39.3849 40.9209 39.7855C40.8123 40.2589 40.7399 40.532 40.7399 40.6959C40.7399 41.2057 41.2285 42.1344 42.2059 42.0069C42.6945 41.9341 43.8709 40.9144 45.7713 39.2392C46.0428 39.0025 46.2961 38.7658 46.5676 38.5291C46.5314 38.7112 46.4952 38.9115 46.4409 39.0936C46.3685 39.4031 46.3323 39.567 46.3323 39.6398C46.3323 40.0222 46.3866 40.5138 46.8391 40.7869C47.2192 41.0236 47.5088 41.0236 47.7983 40.9508C48.1422 40.8598 50.2235 39.3849 50.9656 38.8569C51.0561 39.2939 51.3638 40.1496 52.2325 40.0586C52.9383 39.9858 53.8071 39.3485 55.3274 37.8008V37.819C55.5626 38.3106 55.7436 38.6566 55.997 38.8387C56.359 39.0936 56.7933 39.2028 57.2458 39.1482C57.9155 39.0571 59.1643 38.3834 59.9244 36.8539C60.4493 35.7979 60.7931 35.1606 61.0465 34.8146C61.2094 34.5961 61.3361 34.4869 61.4628 34.4505C61.2094 35.4519 61.1008 36.3623 61.1008 36.6354C61.1008 37.1999 61.2094 37.5823 61.4447 37.7644C61.8971 38.1285 62.241 38.2196 62.7297 38.0739C63.4898 37.8554 64.8291 36.6901 66.0236 35.6522C66.7838 34.9967 67.6706 34.3412 67.8335 34.232C68.1955 34.0499 68.6117 34.1773 68.847 34.4505C69.1366 34.8146 69.4805 34.851 69.7157 34.851C69.8424 34.851 69.9691 34.8328 70.0777 34.7964C70.313 34.7418 70.8741 34.4869 70.9646 33.6311C71.0188 32.9574 70.5845 32.5022 70.1139 32.3019ZM62.3858 31.0273L61.7705 32.921C61.7162 32.921 61.6438 32.9392 61.5714 32.9574C61.318 32.9938 60.9741 33.0484 60.6302 33.0484C59.7977 33.0484 59.7434 32.7207 59.7253 32.5932C59.671 32.2655 59.9244 32.0105 60.3769 31.701C60.7207 31.4825 61.879 31.1365 62.3858 31.0273Z" fill="white"/>
<path d="M72.4305 20.0111C72.3219 19.1007 71.7428 18.5909 70.8379 18.5909C70.3492 18.5909 69.77 18.7548 69.3357 19.0279C68.3583 19.6288 66.3494 21.0672 65.5712 21.6135C65.8969 20.175 66.9286 15.4044 66.9467 15.3498C66.9647 15.2952 66.9467 15.2406 66.9105 15.2041C66.8743 15.1677 66.82 15.1677 66.7838 15.1677C66.6933 15.2041 66.458 15.2406 66.1322 15.3134C64.5033 15.6776 61.137 16.4423 60.3045 16.9703C59.2728 17.6076 58.6756 18.5181 58.6756 19.4467C58.6756 19.9019 58.9652 20.5756 59.7615 20.8851C59.9063 20.958 60.0511 20.9944 60.1959 21.0308C59.6891 21.4496 59.3814 22.1415 59.1281 22.7606C58.7118 23.7438 58.6394 23.7256 58.4041 23.7074C58.1507 23.6892 58.0421 23.4161 57.8973 23.0519C57.825 22.8334 57.7526 22.6331 57.6078 22.5421C57.5354 22.4875 57.4268 22.451 57.3182 22.451C56.7209 22.451 55.7436 23.5253 55.1102 23.9623C55.3816 22.7606 56.3047 19.0279 56.92 16.5698C56.9381 16.5151 56.92 16.4605 56.8838 16.4423C56.8476 16.4059 56.7933 16.3877 56.739 16.4059C56.0151 16.5698 55.2188 16.7883 55.2007 16.7883C55.1645 16.8065 55.1283 16.8247 55.1102 16.8793C55.074 16.9703 54.9835 17.1888 54.9473 17.3163C54.5129 17.4073 53.0288 17.8808 51.9429 18.2996C49.1195 19.392 48.287 22.5421 48.0155 23.58C47.9793 23.6892 47.9431 23.8349 47.9612 23.8349L47.1106 24.8545C46.821 25.1641 46.4771 25.5282 46.1333 25.8014C46.2418 25.3097 46.4952 24.4175 46.7124 23.5982C47.1106 22.1233 47.3459 21.2311 47.3459 21.0308C47.4726 20.2114 47.4002 19.647 47.1287 19.301C46.9296 19.0643 46.6219 18.9368 46.1695 18.9551C46.079 18.9551 45.9885 18.9551 45.898 18.9733C45.2645 19.0279 43.8347 20.0658 43.2918 20.4845C43.1651 20.084 42.785 19.5923 42.0249 19.738C41.2647 19.8655 40.3598 20.4481 39.292 21.5042C39.3101 21.2675 39.292 21.0126 39.1834 20.8123C39.0929 20.6484 38.9662 20.5392 38.7671 20.4845C38.6947 20.4663 38.5861 20.4117 38.387 20.4117C37.9165 20.4117 37.3011 20.703 36.5048 21.2493C36.0704 21.5588 35.437 22.1051 34.8759 22.6695C34.8759 22.3418 34.7673 21.9048 34.0796 21.5406C33.8624 21.4314 33.5185 21.3768 33.1385 21.3768C32.4869 21.3768 31.1657 21.577 29.7721 22.9063C28.1432 24.5814 27.546 26.3112 27.3288 27.2034C27.0935 27.5676 25.7904 29.0789 25.157 29.8254C25.4465 28.5872 26.1886 25.419 26.7134 23.1976C26.7315 23.143 26.7134 23.0883 26.6772 23.0701C26.641 23.0337 26.5868 23.0155 26.5325 23.0337C25.9714 23.1794 24.1796 23.762 24.0891 23.7803C24.0348 23.7985 23.9987 23.8349 23.9987 23.8895L23.0032 27.8589C22.6775 29.5705 21.3744 30.4445 20.7771 30.8269C21.0305 29.5159 21.8268 25.2369 21.8268 24.9638C21.8268 24.6178 21.501 23.8713 20.5237 23.9441C20.2341 23.9805 19.8179 24.199 19.1663 24.7089C18.732 25.0002 16.6687 26.8392 16.5782 26.9303C16.542 26.9667 16.5239 27.0213 16.5239 27.0577C16.542 27.1124 16.5782 27.1488 16.6144 27.167C17.0307 27.3127 17.7546 27.5858 17.7546 27.604C17.8089 27.6222 17.8632 27.604 17.9175 27.5676C17.9718 27.4947 18.2795 27.2762 18.5329 27.076C18.6958 26.9485 18.8224 26.8392 18.931 26.7664C18.8948 27.1124 18.7863 27.5676 18.6234 28.3141L18.5329 28.7511C18.2976 29.7162 17.827 31.8101 17.827 32.1561C17.827 32.6477 18.008 32.9937 18.3519 33.1575C18.5872 33.2304 18.8405 33.285 19.0939 33.285C19.7093 33.285 20.3427 33.0483 21.0667 32.5384C21.3563 32.3199 21.6096 32.0832 21.863 31.8647C22.0621 31.7009 22.2431 31.5188 22.4603 31.3549C22.5146 31.6462 22.6232 32.0832 22.7317 32.2107C22.8946 32.411 23.1299 32.502 23.4014 32.502C24.6321 32.502 26.623 30.3899 27.2021 29.7344C27.4736 30.4263 28.1613 31.1 29.4101 31.191C31.3467 31.3367 33.9891 28.6055 34.0977 28.4962C34.152 28.4416 34.152 28.3505 34.0977 28.2959L33.2289 27.2762C33.1927 27.2398 33.1746 27.2216 33.1204 27.2216C33.0842 27.2216 33.048 27.2398 33.0118 27.258L32.7584 27.513C31.8896 28.4052 31.2743 29.0607 30.5322 29.1335C30.2608 29.1517 30.116 29.1517 29.9893 29.0607C29.7902 28.915 29.6816 28.5508 29.6816 28.1138C29.6816 27.4401 30.7132 24.5996 30.9304 24.2355C31.1295 23.9259 31.401 23.7256 31.6725 23.7074C31.7992 23.7074 32.0706 23.7074 32.4869 23.8349L32.5593 23.8531C32.8127 23.9441 33.0661 24.0352 33.3375 24.0352C33.5366 24.0352 33.6995 23.9987 33.8443 23.8895C33.9529 23.8167 34.1158 23.6892 34.2244 23.6164C34.532 24.017 35.0026 24.3811 35.0388 24.3993C35.0931 24.4357 35.1474 24.4358 35.1836 24.4175C35.3827 24.3083 35.8713 23.8531 36.3238 23.3979C36.0885 24.545 35.3646 27.6586 34.8578 29.8254C34.8397 29.88 34.8578 29.9164 34.894 29.9529C34.9302 29.9893 34.9664 30.0075 35.0207 29.9893C35.6904 29.88 37.4459 29.5341 37.464 29.5341C37.5364 29.5159 37.5726 29.4612 37.5726 29.3884C37.5726 29.0424 38.5499 24.4357 38.8214 24.017C39.111 23.3979 40.0159 22.7788 40.4865 22.4875L39.1472 28.915C39.1472 28.9514 39.1472 29.006 39.1834 29.0424C39.2196 29.0789 39.2558 29.0971 39.3101 29.0971C39.8168 29.0424 41.5362 28.8057 41.6086 28.7875C41.681 28.7693 41.7172 28.7147 41.7353 28.6601C41.7896 28.2049 42.9841 23.325 43.2375 23.0337C43.2556 23.0155 43.2556 22.9973 43.2737 22.9791C43.4547 22.3964 44.1967 21.7955 44.6311 21.486C44.3415 22.7788 43.4366 26.7664 43.4366 27.0213C43.4366 27.4583 43.7261 28.3687 44.5768 28.3687C44.6854 28.3687 44.794 28.3505 44.9025 28.3323C45.9523 28.0774 47.183 26.9303 47.9069 26.1473C48.0155 26.4933 48.2508 26.7846 48.5042 26.9667C48.649 27.076 48.9385 27.0942 49.1557 27.0942C50.0064 27.0942 51.3276 26.7482 52.3411 25.8196C52.4678 26.3294 52.8297 26.6207 53.3908 26.6207C53.7528 26.6207 54.1328 26.4933 54.3681 26.384C55.1283 26.0199 56.1599 25.1641 56.8114 24.4722C57.1372 25.3097 57.9697 25.7832 58.9109 25.6375C59.9606 25.4736 60.8112 24.7635 61.4447 23.5071C61.5352 23.325 61.6257 23.1248 61.7162 22.9245C62.0419 22.1779 62.3858 21.4132 63.0736 21.1583C62.7297 21.9958 62.5125 22.6149 62.603 23.4525C62.6935 24.2537 63.164 24.6725 63.9604 24.6725C64.4671 24.6725 64.9377 24.4904 65.1006 24.3993C66.1141 23.8167 67.3629 22.6878 68.286 21.8502C68.7746 21.395 69.1909 21.0126 69.4081 20.8851C69.7157 20.6848 69.9148 20.8123 70.1863 21.0126C70.2587 21.0672 70.3311 21.1218 70.4216 21.1765C70.6207 21.3039 70.856 21.3585 71.0912 21.3585C71.4894 21.3585 71.8514 21.1947 72.0867 20.9215C72.3762 20.6484 72.4667 20.3389 72.4305 20.0111ZM64.069 17.3891L63.5622 19.3192C63.2726 19.4285 62.6573 19.6288 62.1867 19.6288C62.0057 19.6288 61.8609 19.5923 61.7705 19.5377C61.68 19.4831 61.5895 19.3192 61.5714 19.0461C61.5533 18.8822 61.5714 18.4816 61.9152 18.1903C62.4039 17.7715 63.5441 17.4438 64.069 17.3891ZM50.5131 24.7453C50.4588 24.3811 50.3502 23.3797 50.9294 22.1779C51.599 20.7941 53.1374 19.9201 53.6442 19.6834C53.6261 20.3753 53.4451 22.6695 51.9972 24.0716C51.599 24.4722 50.8208 24.6725 50.5131 24.7453Z" fill="white"/>
<path d="M27.7451 8.30329C27.4012 8.15762 27.0212 8.13941 26.6773 8.23045C26.442 8.28508 26.0619 8.44895 25.519 8.74028C25.0665 8.97699 24.596 9.23191 24.1435 9.48682C24.053 9.54145 23.9806 9.63249 23.9444 9.74174C23.9263 9.85099 23.9444 9.96024 23.9987 10.0513C24.795 11.2894 25.5733 12.5458 26.2972 13.784C26.3696 13.9114 26.4963 13.9843 26.6411 13.9843C26.7135 13.9843 26.7678 13.9661 26.8402 13.9296C27.1117 13.784 27.365 13.6383 27.6365 13.4927C27.727 13.438 27.7994 13.347 27.8356 13.2559C27.8718 13.1467 27.8537 13.0374 27.7994 12.9464C27.6003 12.5822 27.3831 12.2363 27.1841 11.8721C27.2384 11.8357 27.2926 11.8175 27.3469 11.7811C27.7813 11.5626 28.0528 11.3987 28.2519 11.2348C28.4148 11.0892 28.5595 10.9253 28.6862 10.7068C28.8129 10.4883 28.8672 10.2516 28.8853 9.96024C28.8853 9.68712 28.8129 9.39578 28.65 9.08624C28.4148 8.70387 28.1071 8.44895 27.7451 8.30329ZM26.1886 10.1423C26.4782 9.97845 26.6773 9.90562 26.7497 9.8692C26.8221 9.85099 26.8764 9.83278 26.9669 9.8692C26.985 9.8692 27.0212 9.88741 27.0574 9.96024C27.0755 9.99666 27.0755 10.0149 27.0936 10.0513C27.0936 10.0877 27.0755 10.1241 27.0393 10.1605C27.0393 10.1787 26.9488 10.2516 26.5144 10.4883L26.442 10.5247C26.4239 10.5429 26.4058 10.5429 26.3877 10.5611C26.3153 10.4337 26.2429 10.3062 26.1524 10.1787C26.1705 10.1423 26.1705 10.1423 26.1886 10.1423Z" fill="#A2600B"/>
<path d="M23.2205 10.5064C23.0758 10.3608 22.8405 10.3425 22.6776 10.47C21.7184 11.253 20.7772 12.0723 19.8723 12.9099C19.7818 12.9827 19.7456 13.092 19.7456 13.2012C19.7456 13.3105 19.7818 13.4197 19.8723 13.4926C20.922 14.5122 21.9355 15.5683 22.9129 16.6244C22.9853 16.7154 23.0938 16.7519 23.2024 16.7519C23.2929 16.7519 23.3834 16.7154 23.4739 16.6426C23.6911 16.4423 23.9083 16.2602 24.1436 16.0599C24.216 15.9871 24.2703 15.8961 24.2703 15.7868C24.2703 15.6776 24.2522 15.5683 24.1798 15.4955C23.4558 14.6761 22.7138 13.8932 21.9536 13.1102C22.207 12.8917 22.4604 12.6732 22.7138 12.4547C23.4558 13.2559 24.1979 14.0752 24.9037 14.8946C25.0485 15.0585 25.2838 15.0767 25.4648 14.9492C25.7 14.7672 25.9172 14.5669 26.1525 14.3848C26.243 14.3119 26.2973 14.2209 26.2973 14.1117C26.3154 14.0024 26.2792 13.8932 26.2068 13.8203C25.2295 12.6914 24.2341 11.5807 23.2205 10.5064Z" fill="#A2600B"/>
<path d="M53.2823 11.0891C52.2688 10.3607 51.2009 9.6506 50.1331 8.95869C49.9521 8.84944 49.735 8.88586 49.6083 9.04973C49.4635 9.25002 49.3006 9.45031 49.1558 9.6506C49.0834 9.74165 49.0653 9.8509 49.0834 9.96015C49.1015 10.0694 49.1739 10.1604 49.2644 10.2333C49.5359 10.3971 49.8074 10.5792 50.0788 10.7613C49.4273 11.6353 48.7757 12.5275 48.1785 13.4015C48.1242 13.4926 48.088 13.6018 48.1242 13.7111C48.1423 13.8203 48.2147 13.9113 48.3052 13.966C48.5586 14.1298 48.8119 14.2937 49.0653 14.4576C49.1377 14.5122 49.2101 14.5304 49.2825 14.5304C49.4092 14.5304 49.5359 14.4758 49.6083 14.3666C50.2236 13.4926 50.8933 12.6003 51.5629 11.7446C51.8344 11.9448 52.1059 12.1269 52.3774 12.3272C52.5583 12.4547 52.7936 12.4183 52.9203 12.2544C53.0832 12.0541 53.228 11.872 53.3909 11.6717C53.4633 11.5807 53.4995 11.4714 53.4814 11.3622C53.4271 11.2529 53.3547 11.1619 53.2823 11.0891Z" fill="#A2600B"/>
<path d="M39.2196 9.35943C39.2015 8.28514 39.2015 7.21085 39.1834 6.11836C39.1834 5.89986 39.0024 5.71777 38.7852 5.71777C37.6269 5.71777 36.4686 5.73598 35.3284 5.79061C35.2198 5.79061 35.1293 5.84523 35.0569 5.91806C34.9845 5.9909 34.9483 6.10015 34.9483 6.2094L34.9664 6.66461C35.0026 7.39294 35.0026 8.01202 34.9664 8.48544C34.9483 8.83139 34.876 9.15914 34.7674 9.45048C34.7131 9.45048 34.6588 9.45048 34.6226 9.45048C34.5683 9.45048 34.514 9.46868 34.4778 9.48689C34.514 9.14093 34.4778 8.77677 34.3873 8.39439C34.1701 7.59323 33.7538 7.01056 33.1204 6.66461C32.505 6.33686 31.763 6.26402 30.9667 6.46431C30.5323 6.59177 30.1522 6.75565 29.8626 6.97415C29.6274 7.15623 29.4102 7.37473 29.2654 7.64785C29.1206 7.92098 29.012 8.1941 28.9758 8.48544C28.9215 8.88602 28.9758 9.30481 29.1387 9.79643C29.3921 10.543 29.8264 11.0892 30.4418 11.3988C31.039 11.7083 31.7268 11.7629 32.4688 11.5626C33.229 11.3806 33.79 10.98 34.152 10.4155C34.2063 10.3427 34.2425 10.2698 34.2787 10.197L34.3692 11.5262C34.3873 11.7447 34.5683 11.9086 34.7674 11.9086C34.7855 11.9086 34.7855 11.9086 34.7855 11.9086C35.0388 11.8904 35.2922 11.8722 35.5456 11.8722C35.6542 11.8722 35.7447 11.8176 35.8171 11.7447C35.8895 11.6537 35.9257 11.5626 35.9257 11.4534L35.8895 10.9071C36.5953 10.8889 37.3012 10.8707 38.007 10.8525V11.3988C38.007 11.6173 38.188 11.7993 38.4052 11.7993C38.6586 11.7993 38.9119 11.7993 39.1834 11.7993C39.292 11.7993 39.3825 11.7629 39.473 11.6901C39.5454 11.6173 39.5816 11.508 39.5816 11.3988V9.7236C39.6178 9.54152 39.4368 9.35943 39.2196 9.35943ZM30.8581 9.2866C30.7314 8.92244 30.7314 8.6311 30.84 8.43081C30.9486 8.23052 31.1295 8.10306 31.4191 8.03023C31.5277 7.99381 31.6182 7.99381 31.7268 7.99381C31.8897 7.99381 32.0345 8.03023 32.1793 8.10306C32.3964 8.23052 32.5593 8.48544 32.6498 8.8496C32.7584 9.23198 32.7584 9.52331 32.6317 9.74181C32.5231 9.9421 32.3421 10.0878 32.0707 10.1424C31.9802 10.1606 31.8897 10.1788 31.7992 10.1788C31.6363 10.1788 31.4915 10.1424 31.3648 10.0514C31.1476 9.90568 30.9667 9.65077 30.8581 9.2866ZM37.446 9.37764C37.1745 9.37764 36.8849 9.39585 36.5953 9.39585C36.722 8.8496 36.7582 8.13948 36.7582 7.3019C36.9754 7.3019 37.1926 7.28369 37.4279 7.28369C37.4279 7.9756 37.446 8.68573 37.446 9.37764Z" fill="#A2600B"/>
<path d="M44.8664 6.91943C44.8302 6.79198 44.7035 6.68273 44.5768 6.64631C44.2329 6.57348 43.8891 6.50064 43.5633 6.42781C43.4185 6.39139 43.2556 6.46423 43.1651 6.57348C42.8394 7.01048 42.5136 7.44748 42.1878 7.90268C42.0611 7.39285 41.9163 6.86481 41.7534 6.30035C41.7172 6.15469 41.5905 6.04544 41.4277 6.00902C41.0657 5.93619 40.6856 5.88156 40.3236 5.82694C40.197 5.80873 40.0522 5.86335 39.9617 5.9726C39.8712 6.08185 39.8531 6.22752 39.8893 6.37319C40.2694 7.44748 40.6313 8.50356 40.9752 9.55964C40.9028 9.66889 40.8666 9.6871 40.8666 9.6871C40.8666 9.6871 40.8485 9.7053 40.7942 9.7053C40.7399 9.7053 40.6856 9.7053 40.6494 9.6871L40.5408 9.65068C40.4684 9.63247 40.3779 9.61426 40.2875 9.59605C40.1789 9.57785 40.0703 9.59605 39.9798 9.65068C39.8893 9.7053 39.8169 9.81455 39.7988 9.9056C39.7626 10.1241 39.7083 10.3426 39.6721 10.5611C39.6359 10.7432 39.7445 10.9435 39.9255 11.0163C40.1065 11.0891 40.3417 11.1438 40.6313 11.1984C40.7218 11.2166 40.8123 11.2348 40.9028 11.2348C41.1743 11.2348 41.4277 11.1438 41.6629 10.9981C41.9163 10.816 42.1516 10.5611 42.4412 10.2151C43.2013 9.2501 43.9796 8.28506 44.794 7.33823C44.8845 7.21077 44.9026 7.0651 44.8664 6.91943Z" fill="#A2600B"/>
<path d="M48.3233 9.6324L48.45 9.68703C48.6491 9.77807 48.8844 9.70524 48.9749 9.50494L49.2644 8.92228C49.3187 8.83124 49.3187 8.70378 49.2825 8.59453C49.2463 8.48528 49.1558 8.41245 49.0473 8.35782L48.9206 8.3032C48.4862 8.12111 48.1604 8.03007 47.8708 8.03007C47.8165 8.03007 47.7803 8.03007 47.7442 8.03007C47.4003 8.06649 47.0202 8.28499 46.5677 8.68557C46.5496 8.70378 46.5315 8.72199 46.5134 8.7402C46.6401 8.46707 46.7668 8.19395 46.8935 7.92082C46.9478 7.82978 46.9478 7.70232 46.8935 7.59307C46.8573 7.48382 46.7668 7.41099 46.6763 7.35636C46.3687 7.22891 46.061 7.11966 45.7533 6.9922C45.5542 6.91937 45.337 7.01041 45.2465 7.2107C44.6493 8.5399 44.0701 9.88732 43.5091 11.2529C43.4729 11.344 43.4729 11.4714 43.5091 11.5625C43.5634 11.6535 43.6358 11.7446 43.7263 11.781C44.0158 11.8902 44.3054 11.9995 44.595 12.1087C44.7941 12.1816 45.0294 12.0905 45.1018 11.8902C45.2465 11.5625 45.3913 11.2165 45.5361 10.8888V10.907C45.5361 10.9252 45.5361 10.9434 45.5361 10.9616V10.998V11.0162C45.5542 11.435 45.5723 11.8538 45.5904 12.2544C45.5904 12.4183 45.699 12.5457 45.8438 12.6186C46.1696 12.7642 46.5134 12.8917 46.8392 13.0374C46.8935 13.0556 46.9478 13.0738 47.0021 13.0738C47.0745 13.0738 47.165 13.0556 47.2374 13.0009C47.346 12.9281 47.4184 12.7824 47.4003 12.655C47.3822 12.218 47.346 11.7628 47.3279 11.3076C47.3098 10.9252 47.2736 10.6339 47.2012 10.3972C47.1831 10.3243 47.165 10.2697 47.1288 10.2151C47.1288 10.2151 47.1288 10.2151 47.1469 10.2151C47.2736 10.124 47.4184 10.0148 47.5451 9.88732C47.7623 9.66882 47.907 9.55957 47.9613 9.52315C47.9975 9.50494 48.0156 9.48674 48.0518 9.48674C48.088 9.55957 48.1604 9.55957 48.3233 9.6324Z" fill="#A2600B"/>
<path d="M20.1255 13.2013C21.0304 12.3819 21.9534 11.5626 22.9308 10.7796C23.9624 11.8539 24.9397 12.9646 25.8808 14.0753C25.6456 14.2574 25.4103 14.4577 25.175 14.6398C24.3787 13.7111 23.5642 12.8007 22.7136 11.9267C22.243 12.3091 21.7906 12.7097 21.3381 13.1103C22.2068 13.9843 23.0394 14.8765 23.8538 15.7869C23.6366 15.9872 23.4013 16.1693 23.1842 16.3695C22.2068 15.277 21.1933 14.2392 20.1255 13.2013ZM26.6591 13.5655C25.917 12.3091 25.1569 11.0527 24.3606 9.81455C24.813 9.55964 25.2655 9.32293 25.718 9.06801C26.2428 8.79489 26.6048 8.63101 26.7858 8.5946C27.0753 8.52176 27.3468 8.53997 27.6183 8.64922C27.8898 8.75847 28.1251 8.95876 28.3061 9.2683C28.4327 9.50501 28.5051 9.72351 28.487 9.9238C28.487 10.1241 28.4327 10.3244 28.3423 10.4883C28.2518 10.6521 28.1432 10.7796 27.9984 10.8888C27.8174 11.0163 27.5459 11.1984 27.1658 11.3805C26.9849 11.4715 26.8039 11.5808 26.6229 11.6718C26.9125 12.1452 27.1839 12.6186 27.4554 13.1103C27.1839 13.2741 26.9306 13.4198 26.6591 13.5655ZM25.5913 9.99664C25.8084 10.3608 26.0256 10.7068 26.2428 11.0709C26.3876 10.9799 26.5505 10.9071 26.6953 10.8342C27.0211 10.6521 27.2382 10.5247 27.3287 10.4336C27.4192 10.3426 27.4735 10.2333 27.4916 10.1059C27.4916 9.97843 27.4735 9.86918 27.4011 9.75993C27.3106 9.61426 27.2201 9.52322 27.0573 9.4868C26.9125 9.43218 26.7677 9.45039 26.6048 9.4868C26.4962 9.52322 26.279 9.63247 25.9713 9.77814C25.8627 9.85097 25.718 9.9238 25.5913 9.99664ZM29.5368 9.7053C29.392 9.28651 29.3558 8.90414 29.392 8.57639C29.4282 8.33968 29.5006 8.10297 29.6454 7.88447C29.772 7.66597 29.9349 7.48389 30.134 7.33822C30.3874 7.15614 30.7132 7.01047 31.1113 6.90122C31.7991 6.71914 32.4325 6.77377 32.9574 7.04689C33.4823 7.33822 33.8442 7.82985 34.0252 8.52176C34.2062 9.21368 34.1338 9.77814 33.8442 10.2698C33.5365 10.7432 33.066 11.0709 32.4144 11.2348C31.7448 11.3987 31.1656 11.3623 30.6589 11.1073C30.1159 10.8342 29.7539 10.379 29.5368 9.7053ZM30.4779 9.41397C30.6227 9.88739 30.858 10.2151 31.1656 10.3972C31.4733 10.5793 31.8172 10.6157 32.1792 10.5247C32.5411 10.4336 32.8126 10.2333 32.9755 9.9238C33.1384 9.61426 33.1565 9.23189 33.0298 8.74026C32.885 8.26685 32.6678 7.92089 32.3782 7.75701C32.0706 7.57493 31.7086 7.53851 31.3285 7.62956C30.9304 7.73881 30.6589 7.9391 30.496 8.24864C30.315 8.53997 30.315 8.92235 30.4779 9.41397ZM35.3464 6.20931C36.4866 6.15468 37.6449 6.13647 38.7851 6.13647C38.7851 7.33822 38.7851 8.55818 38.8032 9.77814C38.948 9.77814 39.0747 9.77814 39.2195 9.77814C39.2195 10.3426 39.2195 10.9071 39.2195 11.4715C38.9661 11.4715 38.7127 11.4715 38.4413 11.4715C38.4413 11.162 38.4413 10.8342 38.4413 10.5247C37.4639 10.5247 36.4866 10.5429 35.5093 10.5975C35.5274 10.9071 35.5455 11.2348 35.5636 11.5443C35.3102 11.5626 35.0387 11.5625 34.7854 11.5808C34.7492 11.0163 34.713 10.4701 34.6768 9.90559C34.8035 9.88739 34.9482 9.88739 35.0749 9.88739C35.2378 9.50501 35.3464 9.06801 35.3826 8.57639C35.4188 8.08476 35.4188 7.46568 35.3826 6.70093C35.3645 6.51885 35.3645 6.37318 35.3464 6.20931ZM36.3418 6.90122C36.3961 8.23043 36.2875 9.19547 36.0704 9.81455C36.6676 9.79634 37.2649 9.77814 37.8621 9.77814C37.844 8.8131 37.8259 7.84806 37.8078 6.88301C37.3192 6.88301 36.8305 6.88302 36.3418 6.90122ZM40.2692 6.22752C40.6312 6.28214 41.0113 6.35497 41.3732 6.4096C41.5904 7.21076 41.8076 8.03014 42.0067 8.8313C42.4773 8.1576 42.9659 7.48389 43.4727 6.81018C43.8165 6.88302 44.1423 6.95585 44.4862 7.02868C43.6718 7.97551 42.8754 8.94055 42.1153 9.9238C41.8619 10.2516 41.6447 10.4701 41.4275 10.6339C41.2104 10.7796 40.9751 10.8342 40.7036 10.7796C40.414 10.725 40.2149 10.6703 40.0701 10.6157C40.1063 10.3972 40.1606 10.1787 40.1968 9.97843C40.3235 10.0148 40.4502 10.0331 40.5588 10.0513C40.776 10.0877 40.9389 10.0877 41.0475 10.0331C41.1561 9.97843 41.2827 9.83276 41.4275 9.61426C41.0475 8.48535 40.6674 7.35643 40.2692 6.22752ZM45.6264 7.42926C45.9341 7.53851 46.2418 7.66597 46.5494 7.79343C46.278 8.35789 46.0246 8.92235 45.7712 9.4868C45.9884 9.54143 46.1332 9.55964 46.2418 9.50501C46.3504 9.45039 46.5494 9.30472 46.8571 9.01339C47.2372 8.66743 47.563 8.46714 47.7982 8.44893C48.0335 8.43072 48.3593 8.50355 48.7756 8.68564C48.7937 8.68564 48.848 8.70385 48.9023 8.74026C48.8118 8.94055 48.7032 9.12264 48.6127 9.32293C48.5765 9.30472 48.5222 9.28651 48.486 9.2683C48.305 9.19547 48.1602 9.15905 48.0516 9.15905C47.943 9.15905 47.8525 9.19547 47.762 9.25009C47.6716 9.30472 47.5087 9.45039 47.2915 9.66889C47.1648 9.77814 47.0562 9.86918 46.9476 9.94201C46.839 10.0148 46.6942 10.0513 46.4951 10.0695C46.6761 10.1969 46.7847 10.379 46.839 10.5793C46.8933 10.7796 46.9295 11.0709 46.9476 11.4169C46.9657 11.8539 47.0019 12.3091 47.02 12.7461C46.6942 12.6004 46.3504 12.473 46.0246 12.3273C46.0065 11.9085 45.9884 11.5079 45.9703 11.0891C45.9703 11.0709 45.9703 11.0345 45.9522 10.9799C45.9522 10.9617 45.9341 10.8888 45.9341 10.7432C45.916 10.5065 45.8617 10.3426 45.8255 10.2698C45.7712 10.1969 45.6807 10.1241 45.5359 10.0695C45.2825 10.6521 45.0111 11.2348 44.7758 11.8357C44.4862 11.7264 44.1966 11.6172 43.907 11.5079C44.45 10.1059 45.0292 8.75847 45.6264 7.42926ZM48.486 13.6383C49.1737 12.6368 49.8977 11.6536 50.6397 10.6703C50.2596 10.4154 49.8615 10.1605 49.4633 9.90559C49.6081 9.7053 49.771 9.50501 49.9158 9.30472C50.9836 9.97843 52.0333 10.6886 53.0468 11.4169C52.8839 11.6172 52.7392 11.7993 52.5763 11.9995C52.1962 11.7264 51.8161 11.4715 51.4361 11.1984C50.6759 12.1634 49.952 13.1467 49.2461 14.1299C48.9928 13.966 48.7394 13.8022 48.486 13.6383Z" fill="white"/>
<path fill-rule="evenodd" clip-rule="evenodd" d="M24.252 53.0956L25.1027 51.5115L24.5778 51.4386L25.1027 50.5828L25.5732 50.8378L26.5506 49.3811L26.0981 49.1262L27.0754 47.5967L24.7769 47.797L24.5778 48.1976L24.252 47.9973L23.2747 49.5086L23.6005 49.7088C23.6005 49.7088 22.6956 51.0927 22.6232 51.2201C21.5192 53.2413 24.252 53.0956 24.252 53.0956Z" fill="#A2600B"/>
<path fill-rule="evenodd" clip-rule="evenodd" d="M25.8085 49.5268L25.3561 50.1823L24.9579 49.9274C24.9579 49.9274 23.8539 51.6208 23.872 51.8029C23.872 51.8757 24.1073 51.9121 24.252 51.9121L23.9263 52.5676C23.7272 52.5676 23.4919 52.604 23.2928 52.4766C23.1661 52.4037 22.9127 52.1488 23.0032 51.8393C23.0394 51.7118 24.3063 49.5268 24.3063 49.5268L24.0349 49.3994L24.4149 48.7439L24.6864 48.9442L25.0846 48.2887L26.0619 48.2158L25.338 49.2719L25.8085 49.5268Z" fill="white"/>
<path fill-rule="evenodd" clip-rule="evenodd" d="M33.5367 52.5312C33.211 52.9318 33.03 53.5144 33.03 54.1881C32.9757 54.789 33.03 55.3717 33.2653 55.8451C33.4824 56.3003 33.8625 56.6463 34.496 56.6827C34.7855 56.7009 35.0027 56.5552 35.2742 56.4278V56.6827H36.3963L36.8307 50.8196L35.1294 50.6921C35.1294 50.6921 35.0751 51.5479 35.0751 52.0031C34.4598 51.8028 33.8625 52.076 33.5367 52.5312ZM34.5322 54.698C34.5684 54.8436 34.6588 54.8983 34.7312 54.8983C34.8036 54.8983 34.8579 54.8254 34.9303 54.698C35.0027 54.6069 35.0027 54.0971 35.0027 53.8786C35.0027 53.7693 34.8579 53.6419 34.7855 53.6419C34.7131 53.6419 34.6227 53.6965 34.5865 53.8422C34.5684 53.8968 34.496 54.5705 34.5322 54.698Z" fill="#A2600B"/>
<path fill-rule="evenodd" clip-rule="evenodd" d="M34.2787 54.953C34.3511 55.2079 34.5321 55.4446 34.7312 55.4446C35.1293 55.4446 35.3103 54.8255 35.3284 54.3703C35.3465 53.9697 35.3646 53.7148 35.2922 53.5145C35.2198 53.3142 35.0569 53.205 34.876 53.1868C34.6769 53.1503 34.4959 53.296 34.3873 53.4417C34.2244 53.6238 34.2063 54.7527 34.2787 54.953ZM35.9257 56.1365H35.2741L35.3284 55.6085C35.2017 55.8087 34.6045 56.1365 34.4778 56.1365C34.152 56.1365 33.8624 55.9726 33.6633 55.572C33.4643 55.2443 33.4281 54.7527 33.4824 54.1518C33.5367 53.5509 33.6814 53.0957 33.8805 52.8408C34.1339 52.513 34.4054 52.3674 34.7312 52.4402C35.0569 52.4402 35.256 52.6405 35.4551 52.9683L35.5818 51.1838L36.3057 51.2385L35.9257 56.1365Z" fill="white"/>
<path fill-rule="evenodd" clip-rule="evenodd" d="M41.0838 54.8073H41.0114C41.0114 54.079 41.0114 53.296 40.6133 52.6405C40.3418 52.1853 39.7626 51.8576 39.2378 51.8576C37.8623 51.8394 37.4098 53.3143 37.4098 54.3703C37.3555 55.4992 37.808 56.8649 39.2559 56.8649C39.654 56.8649 40.0341 56.7374 40.3599 56.4643C40.8304 55.9909 40.9571 55.39 41.0838 54.8073ZM38.9844 54.8073H39.5635C39.5816 55.39 38.9301 55.3354 38.9844 54.8073Z" fill="#A2600B"/>
<path fill-rule="evenodd" clip-rule="evenodd" d="M39.7627 54.0242C39.7627 53.7693 39.6903 53.1138 39.2378 53.0956C38.6768 53.0956 38.6587 53.7693 38.6587 54.0242H39.7627ZM39.7084 55.0075L40.4323 55.2078C40.3599 55.6084 40.2151 55.8451 39.9799 56.0636C39.7627 56.2457 39.5274 56.3367 39.2559 56.3367C38.7311 56.3367 38.3691 56.1728 38.1338 55.6812C37.9709 55.3535 37.8804 54.8982 37.8985 54.3702C37.9347 53.7147 38.0433 53.2413 38.2424 52.9135C38.4958 52.513 38.8216 52.3855 39.2197 52.3855C39.6179 52.3855 39.9256 52.5858 40.1428 52.9135C40.3961 53.3141 40.4866 53.8422 40.4866 54.6251H38.6406C38.6406 54.9529 38.7311 55.6084 39.2378 55.6084C39.5636 55.5902 39.7084 55.2078 39.7084 55.0075Z" fill="white"/>
<path fill-rule="evenodd" clip-rule="evenodd" d="M44.9389 50.8561L44.7941 50.583L43.7444 51.1111L45.7352 55.3172L47.0926 54.7163L45.9343 52.1671C45.9343 52.1671 45.8076 51.9122 45.9705 51.8212C46.0972 51.7483 46.2058 52.0579 46.2058 52.0579L47.3641 54.5888L48.5767 54.0426L47.4727 51.4934C47.4727 51.4934 47.3098 51.2385 47.4727 51.1657C47.6175 51.111 47.6899 51.3478 47.6899 51.3478L48.8663 53.8605C49.3187 53.6602 49.7712 53.4599 50.2418 53.2596L48.993 50.6376C48.8482 50.3099 48.7215 50.055 48.5224 49.8547C48.3233 49.6544 48.1242 49.4723 47.7985 49.3995C47.2736 49.272 46.5497 49.5269 46.3506 50.1278C45.7533 49.9457 45.1923 50.2371 44.9208 50.8379L44.9389 50.8561Z" fill="#A2600B"/>
<path fill-rule="evenodd" clip-rule="evenodd" d="M44.4139 51.3477L44.9931 51.0199L45.1922 51.4751C45.2465 51.0199 45.4456 50.7286 45.717 50.6193C45.898 50.5465 46.0247 50.5101 46.1695 50.5465C46.3686 50.5829 46.4953 50.674 46.6944 50.8014C46.6944 50.5465 46.7487 50.4008 46.8211 50.2005C46.8754 50.0549 47.0201 49.982 47.1468 49.9274C47.4183 49.8182 47.6174 49.8 47.7622 49.8182C47.9613 49.8546 48.0337 49.9274 48.1965 50.1095C48.287 50.2187 49.572 52.9318 49.572 52.9318L48.9386 53.2413L47.9975 51.293C47.8708 50.9653 47.6536 50.4555 47.2735 50.6375C46.9839 50.7832 47.0201 51.1109 47.0744 51.2384C47.0744 51.3659 48.1242 53.6419 48.1242 53.6419L47.364 53.9879C47.364 53.9879 46.3143 51.6572 46.26 51.5844C46.1695 51.4751 46.0247 51.3112 45.8437 51.3841C45.4637 51.5297 45.5542 51.8393 45.5903 51.9849C45.6446 52.167 46.622 54.3338 46.622 54.3338L45.9885 54.6252L44.4139 51.3477Z" fill="white"/>
<path fill-rule="evenodd" clip-rule="evenodd" d="M54.3321 46.2312C54.1873 46.0491 54.5311 45.7032 54.7845 45.6304L53.9882 44.4468C53.9882 44.4468 53.7891 44.4286 53.6624 44.4468C53.1375 44.5014 52.6851 44.9202 52.6851 45.4301L52.5584 45.3026L51.7802 46.1584L55.1284 49.363L56.3048 48.1067C56.3048 48.1431 54.7845 46.7593 54.3321 46.2312Z" fill="#A2600B"/>
<path fill-rule="evenodd" clip-rule="evenodd" d="M55.5989 48.1431L55.1464 48.6711L52.5221 46.1766L52.9746 45.7032L53.3003 46.0309C53.2279 45.7578 53.1736 45.5757 53.1736 45.5029C53.1736 45.3754 53.246 45.248 53.3003 45.1751C53.427 45.0477 53.5537 44.9749 53.7528 44.9749L54.2053 45.7032C54.0786 45.7032 53.9338 45.776 53.8795 45.8306C53.8252 45.9035 53.7709 46.2676 53.9519 46.4861C54.0605 46.65 55.5989 48.1431 55.5989 48.1431Z" fill="white"/>
<path fill-rule="evenodd" clip-rule="evenodd" d="M53.59 41.8976C53.2642 42.371 53.0289 42.7898 52.6851 43.2814L57.5536 46.6863L58.5309 45.3025L58.2594 45.1022L58.5852 45.175L59.2368 44.3192L58.911 43.5363L56.7391 43.0811L55.9428 40.9143L54.7664 42.6987L53.59 41.8976Z" fill="#A2600B"/>
<path fill-rule="evenodd" clip-rule="evenodd" d="M57.4089 46.0308L53.3367 43.1539L53.7348 42.553L55.9067 44.0643L55.3094 42.6805L55.8162 41.9521L56.3591 43.4634L58.7843 43.9733L58.3862 44.647L56.6849 44.2464L56.884 44.7744L57.807 45.4299L57.4089 46.0308Z" fill="white"/>
<path fill-rule="evenodd" clip-rule="evenodd" d="M53.0469 50.929C53.1193 51.0018 53.1736 51.0564 53.246 51.1293L53.8252 50.7287L54.4043 50.3281C54.0785 50.1278 53.7528 49.9275 53.4813 49.6726C53.1555 49.2174 52.8297 48.6165 52.4859 48.1613C52.2144 47.7607 52.0877 47.5058 51.8343 47.3055C51.5809 47.1781 51.3095 47.1052 51.0561 47.1052C50.7303 47.1052 50.4045 47.2509 50.0788 47.433C49.753 47.7061 49.5177 47.9246 49.3729 48.4162C49.2824 49.0171 49.4453 49.5451 49.7168 50.055L50.2959 49.7272C50.2959 49.7272 50.2235 49.8729 50.2054 49.9275C50.1331 50.1278 50.1331 50.2735 50.1512 50.3827C50.2054 50.7105 50.314 50.9108 50.4407 51.1657C50.6398 51.4934 50.9475 51.8212 51.2371 51.894C51.6352 52.0033 52.1601 51.9486 52.4859 51.6937C52.7935 51.5116 52.9926 51.2567 53.0469 50.929ZM51.8705 49.7454C51.8705 49.7454 51.6533 49.8547 51.6171 50.0368C51.5809 50.2006 51.6714 50.3099 51.7438 50.3463C51.9067 50.4191 52.0515 50.2006 51.9972 50.0003C51.9791 49.9275 51.8705 49.7454 51.8705 49.7454Z" fill="#A2600B"/>
<path fill-rule="evenodd" clip-rule="evenodd" d="M51.7983 49.272C51.744 49.3448 51.4182 49.8364 51.3639 49.9093C51.2915 50.0731 51.2915 50.3099 51.4001 50.4555C51.563 50.674 51.8706 50.6558 51.9973 50.6012C52.1421 50.5466 52.2869 50.1824 52.2326 49.9639C52.1964 49.8729 51.7983 49.272 51.7983 49.272ZM50.5494 49.1627L49.8979 49.363C49.7531 49.0353 49.7531 48.7622 49.8255 48.5072C49.8979 48.2341 50.0065 48.0156 50.3142 47.8153C50.5856 47.6332 50.8571 47.5786 51.0562 47.5786C51.1829 47.5786 51.4001 47.615 51.5087 47.7061C51.6535 47.8153 51.8344 48.0338 52.1059 48.4344C52.2507 48.6711 52.7032 49.363 52.7032 49.363C52.9204 49.6544 53.3547 50.2188 53.4995 50.3463L52.9204 50.7469C52.848 50.674 52.6489 50.4191 52.6489 50.4191C52.5946 50.674 52.5946 50.8197 52.5222 50.9471C52.3955 51.1474 52.3593 51.2385 52.1964 51.3477C51.4906 51.8029 51.0562 51.2203 50.8933 50.9836C50.7847 50.8379 50.5133 50.2916 50.658 49.9457C50.7485 49.7636 50.8209 49.5633 51.0019 49.3812C51.2553 49.1081 51.4001 48.9078 51.4544 48.7804C51.4544 48.7804 51.201 48.4162 51.1286 48.3798C51.0019 48.3252 50.839 48.3434 50.6399 48.489C50.5675 48.5437 50.4952 48.6347 50.4771 48.7804C50.4771 48.8168 50.4771 48.9624 50.5494 49.1627Z" fill="white"/>
<path fill-rule="evenodd" clip-rule="evenodd" d="M30.4418 55.827C30.4237 55.918 30.4237 56.0091 30.4056 56.1001L31.0752 56.3186L31.7449 56.5189C31.6906 56.1365 31.6363 55.7541 31.6725 55.39C31.8173 54.8437 32.0706 54.2064 32.2154 53.6602C32.3602 53.205 32.4688 52.9318 32.4688 52.6041C32.4145 52.3128 32.2878 52.0761 32.1249 51.8758C31.9259 51.6208 31.6182 51.4388 31.2562 51.3113C30.8399 51.2203 30.5323 51.1839 30.0436 51.3659C29.5187 51.6755 29.2111 52.1307 28.9758 52.6587L29.5911 52.9136C29.5911 52.9136 29.4282 52.9501 29.3739 52.9683C29.1749 53.0411 29.0663 53.1321 28.9939 53.2232C28.7767 53.4781 28.6862 53.6784 28.5595 53.9333C28.4328 54.2975 28.3785 54.7345 28.5052 55.0076C28.6862 55.39 29.0301 55.7541 29.4463 55.8452C29.8264 55.9908 30.1522 55.9908 30.4418 55.827ZM30.6228 54.17C30.6228 54.17 30.4056 54.079 30.2427 54.1518C30.0979 54.2246 30.0617 54.3521 30.0798 54.4431C30.1341 54.6252 30.3875 54.5888 30.5142 54.4249C30.5504 54.3703 30.6228 54.17 30.6228 54.17Z" fill="#A2600B"/>
<path fill-rule="evenodd" clip-rule="evenodd" d="M30.9304 53.824C30.8399 53.824 30.2608 53.8604 30.1703 53.8969C30.0074 53.9333 29.8264 54.0789 29.7721 54.261C29.6997 54.5341 29.9169 54.7526 30.0436 54.8255C30.1703 54.8983 30.5503 54.7891 30.677 54.607C30.7313 54.4977 30.9304 53.824 30.9304 53.824ZM30.2427 52.7679L29.6816 52.3856C29.8445 52.076 30.0436 51.9121 30.297 51.8029C30.5322 51.6936 30.7856 51.639 31.1476 51.7483C31.4553 51.8393 31.6725 52.0396 31.781 52.1853C31.8715 52.2945 31.962 52.4766 31.962 52.6223C31.962 52.8044 31.9077 53.0957 31.781 53.5327C31.6906 53.7876 31.4372 54.5706 31.4372 54.5706C31.3467 54.9165 31.1838 55.6266 31.1657 55.8087L30.496 55.5902C30.5141 55.4992 30.5865 55.1714 30.5865 55.1714C30.3332 55.2807 30.2427 55.3717 30.0979 55.4081C29.8626 55.4263 29.754 55.4628 29.5911 55.4081C28.7948 55.135 28.9757 54.4431 29.0481 54.1518C29.1024 53.9697 29.3558 53.4234 29.6997 53.3324C29.8988 53.2778 30.0798 53.2049 30.3693 53.2414C30.7313 53.2778 30.9666 53.2596 31.1114 53.2231C31.1114 53.2231 31.2381 52.8044 31.2019 52.7133C31.1657 52.5859 31.039 52.4584 30.8218 52.4038C30.7313 52.3856 30.6227 52.3856 30.496 52.4584C30.4598 52.4948 30.3693 52.5858 30.2427 52.7679Z" fill="white"/>
<path fill-rule="evenodd" clip-rule="evenodd" d="M27.5822 52.0578C27.7089 51.8575 28.1432 52.076 28.288 52.3127L29.1567 51.1838C29.1567 51.1838 29.1024 50.9835 29.0482 50.8743C28.831 50.3827 28.3061 50.0913 27.7994 50.2552L27.8717 50.0913L26.822 49.6179L24.8312 53.824L26.3877 54.5524C26.3877 54.5342 27.2202 52.6405 27.5822 52.0578Z" fill="#A2600B"/>
<path fill-rule="evenodd" clip-rule="evenodd" d="M26.1706 53.8603L25.519 53.5872L27.0574 50.2915L27.6366 50.5828L27.4375 51.0016C27.6728 50.856 27.8357 50.7285 27.89 50.7103C28.0167 50.6557 28.1614 50.6921 28.2338 50.7285C28.3967 50.8195 28.5053 50.9106 28.5596 51.1109L28.0167 51.7846C27.9805 51.6571 27.8719 51.5479 27.7814 51.5115C27.6909 51.475 27.3289 51.5479 27.1841 51.7846C27.1117 51.9302 26.1706 53.8603 26.1706 53.8603Z" fill="white"/>
</svg>
