<svg width="47" height="62" viewBox="0 0 47 62" fill="none" xmlns="http://www.w3.org/2000/svg">
<g filter="url(#filter0_f)">
<ellipse cx="23.5003" cy="49.2927" rx="14.1585" ry="3.14634" fill="#BBB7A0"/>
</g>
<path fill-rule="evenodd" clip-rule="evenodd" d="M28.4172 42.4351C37.9217 40.2114 45 31.6823 45 21.5C45 9.62588 35.3741 0 23.5 0C11.6259 0 2 9.62588 2 21.5C2 31.682 9.07786 40.2108 18.5819 42.4349C19.3995 42.9294 20.2159 43.5004 20.7778 44.0805C22.4479 45.8048 23.4997 49.2926 23.4997 49.2926C23.4997 49.2926 24.5516 45.8048 26.2216 44.0805C26.7834 43.5005 27.5997 42.9295 28.4172 42.4351Z" fill="white"/>
<path d="M34.3764 21.5035C34.4043 28.191 29.2169 33.5325 22.7309 33.5608C16.2868 33.5962 11.0506 28.3043 11.0226 21.6169C10.9877 14.9223 16.1821 9.46747 22.6122 9.43914C29.1052 9.4108 34.3415 14.816 34.3764 21.5035Z" fill="#A2600B"/>
<path d="M33.8873 21.5035C33.9152 27.8864 28.9652 33.0366 22.7236 33.0649C16.5308 33.0932 11.532 27.9926 11.504 21.6098C11.4761 15.1773 16.4261 9.97044 22.6189 9.93502C28.8605 9.90669 33.8594 15.0711 33.8873 21.5035Z" fill="white"/>
<path d="M33.6081 21.5107C33.636 27.7023 28.7977 32.732 22.7236 32.7604C16.6984 32.7816 11.8113 27.8014 11.7833 21.6099C11.7554 15.3616 16.5937 10.2822 22.6189 10.2539C28.693 10.2256 33.5802 15.2553 33.6081 21.5107Z" fill="#DC1C26"/>
<path d="M16.811 21.5603C16.797 18.1953 19.4361 15.4537 22.6407 15.4395C25.9011 15.4253 28.5681 18.1457 28.5821 21.5107C28.5961 24.8119 25.957 27.5606 22.6965 27.5747C19.4919 27.5818 16.8249 24.8615 16.811 21.5603ZM16.0918 21.5603C16.1058 25.2582 19.1079 28.3257 22.7035 28.3044C26.3479 28.2902 29.3221 25.1944 29.3012 21.4965C29.2872 17.7348 26.2851 14.6744 22.6407 14.6886C19.0451 14.7098 16.0779 17.8056 16.0918 21.5603Z" fill="#A2600B"/>
<path d="M28.6653 21.5318C28.6793 24.8897 25.9843 27.6384 22.668 27.6525C19.4076 27.6667 16.7406 24.9464 16.7266 21.5885C16.7127 18.1668 19.3517 15.3685 22.6122 15.3544C25.9285 15.3331 28.6513 18.1101 28.6653 21.5318Z" fill="white"/>
<path d="M35.0677 27.0858C34.6349 27.0858 34.3067 27.1708 34.0693 27.2416C34.0903 27.27 34.1182 27.2912 34.1461 27.3196C34.1461 27.3266 34.1531 27.3266 34.1531 27.3266C34.6698 27.858 35.1026 28.3468 35.7868 28.8852C36.3524 29.2465 37.3577 29.3244 38.2165 29.3244C38.6284 29.3244 39.0054 29.3031 39.2847 29.2819C39.2986 29.2819 39.3126 29.2819 39.3266 29.2819C39.3615 29.2819 39.3964 29.2748 39.4313 29.2748C37.4555 27.4754 36.0242 27.0858 35.0677 27.0858Z" fill="#54A75C"/>
<path d="M28.8817 25.8674C28.6793 25.8674 28.5047 25.8887 28.3721 25.9099C28.393 25.9383 28.414 25.9666 28.4349 25.995C28.4349 26.002 28.4419 26.002 28.4419 26.0091C28.8538 26.6042 29.1889 27.1993 29.8173 27.9006C30.5504 28.4886 32.4075 28.6161 33.2662 28.6232C33.2802 28.6232 33.2872 28.6232 33.3011 28.6232C33.336 28.6232 33.3779 28.6232 33.4059 28.6232C31.3602 26.2429 29.8033 25.8604 28.8817 25.8674Z" fill="#54A75C"/>
<path d="M31.6328 26.6253C31.6677 26.6324 31.7026 26.6395 31.7375 26.6466H31.7445C32.1285 26.7103 32.5404 26.767 33.0082 26.767C33.3084 26.767 33.6366 26.7387 33.9996 26.6749C34.8793 26.512 36.4013 25.0314 37.0297 24.3796C37.0436 24.3655 37.0506 24.3584 37.0646 24.3442C37.0925 24.3159 37.1134 24.2875 37.1414 24.2663C33.3922 24.3442 32.0727 25.8886 31.6328 26.6253Z" fill="#54A75C"/>
<path d="M28.2051 25.9029C28.24 25.91 28.2749 25.91 28.3098 25.9171C28.3098 25.9171 28.3168 25.9171 28.3238 25.9171C28.7357 25.9808 29.1406 26.0375 29.6014 26.0375C29.8946 26.0375 30.2158 26.0092 30.5789 25.9454C31.5214 25.7825 33.0573 24.3798 33.6787 23.6501C33.6857 23.643 33.6927 23.6289 33.6997 23.6218C33.7276 23.5934 33.7485 23.5651 33.7695 23.5368C29.9645 23.6218 28.5891 25.2795 28.2051 25.9029Z" fill="#54A75C"/>
<path d="M34.2017 27.2629C33.343 27.2629 32.4074 27.107 31.416 26.7882C29.9568 26.264 28.4069 26.0019 26.829 26.0019C23.9805 26.0019 21.9209 26.8662 21.7464 26.9441L21.5928 26.682C21.7813 26.5969 23.806 25.7114 26.7871 25.7114C28.4348 25.7114 30.0616 25.9877 31.6255 26.5332C32.547 26.8378 33.4267 26.9866 34.2366 26.9866C35.8075 26.9866 36.6313 26.4057 36.7151 26.3419L36.9665 26.4978C36.8547 26.5899 35.982 27.2629 34.2017 27.2629Z" fill="#A2600B"/>
<path d="M26.7876 25.7256C28.4353 25.7256 30.062 26.0019 31.6259 26.5474C32.5475 26.852 33.4272 27.0008 34.237 27.0008C35.1028 27.0008 35.7381 26.8237 36.1151 26.6749C36.4642 26.5332 36.6667 26.3986 36.7225 26.3561L36.9459 26.4978C36.7854 26.6253 35.9127 27.2487 34.2021 27.2487C33.3434 27.2487 32.4078 27.0929 31.4234 26.7741C29.9573 26.2499 28.4143 25.9877 26.8295 25.9877C24.0368 25.9877 21.9912 26.8237 21.7538 26.9229L21.6142 26.6891C21.8725 26.5757 23.8762 25.7256 26.7876 25.7256ZM26.7876 25.6973C23.7366 25.6973 21.6491 26.6395 21.5723 26.6749L21.7398 26.9583C21.7398 26.9583 23.8343 26.0161 26.8225 26.0161C28.1979 26.0161 29.7688 26.2144 31.4095 26.8024C32.5056 27.1496 33.4342 27.2771 34.2021 27.2771C36.0174 27.2771 36.918 26.5687 36.9948 26.4907L36.7155 26.3207C36.7155 26.3207 35.9057 26.9654 34.237 26.9654C33.5249 26.9654 32.6592 26.8449 31.6329 26.512C29.8805 25.9027 28.2258 25.6973 26.7876 25.6973Z" fill="#A2600B"/>
<path d="M41.0303 24.9109C37.8467 24.9251 36.7436 26.1436 36.4434 26.7245C36.4783 26.7316 36.5132 26.7316 36.5481 26.7387H36.5551C37.0996 26.8237 37.6233 26.9016 38.3005 26.9016C38.4611 26.9016 38.6356 26.8945 38.8171 26.8874C39.7527 26.8308 41.2258 25.6548 41.7634 25.0385C41.7704 25.0314 41.7774 25.0243 41.7844 25.0172C41.8123 24.9889 41.8332 24.9605 41.8542 24.9322C41.5679 24.9109 41.2887 24.9109 41.0303 24.9109Z" fill="#54A75C"/>
<path d="M24.9303 21.121V20.8943C25.1537 21.0076 25.3004 21.0926 25.5726 21.0926C25.6844 21.0926 25.7542 21.0714 25.817 21.0572C26.0963 21.0005 26.4244 20.7668 26.7526 20.4834C26.9201 20.5401 27.1156 20.5897 27.339 20.5897C27.6741 20.5897 28.0791 20.4763 28.4631 20.2496C28.5468 20.3134 28.5748 20.3346 28.6097 20.3417C28.7772 20.3913 28.8401 20.4055 28.9867 20.4055C29.2939 20.4055 29.5243 20.2779 29.5732 20.2496C29.7896 20.115 30.0409 19.9592 30.2364 19.7891C30.4528 19.9662 30.6623 20.0371 30.8927 20.0371C30.9625 20.0371 31.0393 20.03 31.1231 20.0158C31.6188 19.9592 32.0028 19.6687 32.2262 19.3287C32.3379 19.5624 32.7289 19.6687 33.0919 19.6616C33.8878 19.6404 34.6139 18.8682 35.2144 18.3085C36.122 18.8469 36.8062 18.0252 36.8062 17.3168C36.8062 16.5658 36.3454 16.1479 35.5914 16.1479C35.3051 16.1479 35.0677 16.2116 34.4603 16.5587L34.9072 14.6106C34.9072 14.6106 31.926 15.2694 31.2767 15.6378C31.165 15.6945 31.0044 15.8078 30.8927 15.9212C30.9276 15.8149 31.0323 15.4182 31.1021 15.149C31.1021 15.1348 31.1091 15.1207 31.1161 15.1065C31.151 14.979 31.172 14.894 31.172 14.894L29.0775 15.6449C29.0775 15.6449 29.0775 15.7016 29.0775 15.7582C28.8052 15.8149 28.4631 15.8928 28.1978 15.992C27.744 16.162 27.4228 16.5092 27.0947 16.8492C27.0528 16.7784 27.0039 16.665 26.9271 16.5658C26.7875 16.3675 26.4803 16.162 25.9846 16.2258C25.7612 16.2541 25.433 16.4525 25.1049 16.6863C24.9792 16.6013 24.8326 16.5517 24.672 16.5517C24.6162 16.5517 24.5533 16.5587 24.4975 16.5658C24.2252 16.6013 23.8901 16.75 23.6178 16.9767C23.6178 16.9767 23.5061 16.9271 23.4851 16.92C23.0592 16.7713 22.5147 16.9413 22.1237 17.2176C22.1237 17.2176 21.9561 17.3309 21.8444 17.4443C21.7956 17.3876 21.7956 17.3805 21.7327 17.3309C21.621 17.2459 21.3906 17.2105 21.1183 17.2105C20.6645 17.2105 20.0571 17.3734 19.4707 17.9118C19.4148 17.9685 19.3589 18.0252 19.3031 18.0818C19.3729 17.7347 19.4008 17.593 19.4008 17.593C17.0271 18.2306 17.0899 18.2023 17.0899 18.2023L17.034 18.4856C16.9223 18.3723 16.7548 18.259 16.4825 18.2023C16.5383 18.0889 16.5872 17.9685 16.5872 17.8056C16.6082 17.2317 16.294 16.7146 15.2747 16.6933C15.149 16.6933 13.8923 16.8067 13.2709 17.7631C13.1243 17.9898 12.9986 18.3156 12.845 18.6132C12.8241 18.6486 12.7892 18.6628 12.7752 18.6769L12.9707 17.9472C12.5309 17.8693 12.3423 17.8622 12.0491 17.8693C10.7226 17.8764 9.87083 18.2802 9.12379 19.102C8.55129 19.7041 8.29297 20.3984 8.29297 21.0855C8.29297 21.4256 8.34882 21.709 8.51638 21.9994C8.74678 22.3749 9.08888 22.5945 9.45193 22.5945C9.52873 22.5945 9.60553 22.5874 9.68232 22.5661C10.178 22.389 10.5062 22.049 10.5062 21.5956C10.7715 21.9144 11.6163 21.964 11.8327 21.8719C11.7768 21.9852 11.6721 21.9852 11.6721 21.9852L11.1764 22.0986L10.6318 24.4364C10.7017 24.4009 12.0072 23.7492 12.0072 23.7492C12.2237 23.6359 12.5588 23.4587 13.1662 23.4587C13.4455 23.4587 13.6619 23.4021 13.8294 23.4021C13.2011 23.7279 13.1243 25.1164 14.004 25.4777C13.1243 26.7954 12.7403 27.2275 12.5797 27.3976C12.084 27.2134 11.2532 27.433 11.323 28.4602C11.3579 28.9561 11.7349 29.6362 12.6495 29.5016C13.0335 29.4449 13.4245 29.2111 13.8085 28.8144C13.9062 28.7365 15.1001 27.0504 15.4562 26.5262C15.4073 26.9725 14.772 27.8509 14.5346 28.1626C14.6114 28.1556 15.6307 28.0918 16.0706 28.0635C16.3429 28.0422 16.7757 27.9785 17.2295 27.7163C17.446 27.5888 18.5002 27.5959 18.5002 27.5959C18.5002 27.5959 18.5002 27.5392 18.5002 27.4826C18.9191 27.7163 19.5474 27.4684 20.0501 27.0221C20.483 27.3834 21.0276 27.1638 21.3697 26.8733C21.3697 26.93 21.3697 26.9513 21.3697 26.9513C21.4465 26.9371 23.6876 26.4837 23.6876 26.4837C23.6876 26.4837 23.7434 26.1437 23.7434 26.087C23.7784 26.1224 23.7993 26.1437 23.7993 26.1437C23.9808 26.3278 24.2391 26.4412 24.5184 26.4412C24.5743 26.4412 24.6301 26.4341 24.686 26.427C24.7209 26.4129 24.7488 26.4058 24.7698 26.3987C24.8535 26.3491 25.07 26.3137 25.8449 25.6265C25.8449 25.6265 26.0055 25.8036 26.0683 25.8532C26.2569 26.0091 26.4523 26.0445 26.6688 26.0445C26.7386 26.0445 26.8154 26.0445 26.8992 26.0232C27.0737 25.9807 27.5624 25.6761 27.8347 25.4494C28.0581 25.6194 28.2815 25.6761 28.498 25.6761H28.5538C28.882 25.6194 29.2241 25.4352 29.5592 25.0881C29.615 25.1306 29.6011 25.1164 29.6569 25.1519C29.8664 25.2794 30.1038 25.3431 30.3272 25.3431C30.404 25.3431 30.4738 25.3361 30.5436 25.3219C30.767 25.2652 31.2069 25.0314 31.5909 24.6347L31.6467 24.6914C31.6816 24.7268 31.7584 24.7906 31.7724 24.7977C32.0098 24.9606 32.3728 24.9535 32.3728 24.9535C32.4566 24.9535 32.5474 24.9323 32.6381 24.9181C33.0012 24.8472 33.5248 24.4009 34.1811 23.8271C34.2928 23.7138 34.4603 23.6004 34.5651 23.48C34.7326 23.6075 34.9281 23.6713 35.1585 23.6713C35.2353 23.6713 35.3121 23.6642 35.3959 23.65C35.724 23.5933 36.115 23.2462 36.1639 22.7362C36.1708 22.6795 36.1708 22.6228 36.1708 22.5661C36.1708 22.0773 35.9335 21.7302 35.5495 21.5389C35.361 21.4468 35.1934 21.3902 35.0049 21.3902C34.8932 21.3902 34.7815 21.4043 34.6628 21.4256C34.3347 21.4823 33.8669 21.709 33.8669 21.709C33.8948 21.6169 34.223 19.8883 34.223 19.8883C32.3379 20.1788 31.1859 20.5967 30.6274 20.8801C30.4249 20.9864 30.1457 21.1847 30.1457 21.1847C30.1596 21.1422 30.3062 20.5046 30.3062 20.5046L28.0232 21.3052L27.9813 21.5248C27.7579 21.2981 27.5066 21.206 27.2273 21.2131C26.955 21.2131 26.6478 21.3689 26.4314 21.4893C26.4454 21.4398 26.4872 21.3122 26.4872 21.3122C24.4626 21.7798 24.3439 21.8081 24.3369 21.8081C24.2322 22.219 24.1973 22.304 24.1973 22.304L24.1344 22.2899C24.0646 22.2048 23.8272 21.9356 23.4153 21.9427C23.1221 21.9782 22.9475 22.0632 22.5286 22.3324C22.5286 22.3253 22.5635 22.1198 22.5635 22.1198C20.86 22.5307 20.3783 22.6441 20.3783 22.6441C20.3783 22.6441 20.3434 22.7857 20.2945 23.0479C20.1828 22.9345 20.099 22.6937 19.6242 22.6724C19.0936 22.6866 18.6608 23.1187 18.6608 23.1187C18.7166 22.8353 18.7585 22.467 18.8493 21.9711C19.3799 22.4953 20.5179 22.2615 21.0555 21.7656C21.2161 21.7302 22.9406 21.4539 22.9406 21.4539C22.9475 21.4964 22.9475 21.4752 22.9475 21.5177C22.8847 21.5177 24.9303 21.121 24.9303 21.121ZM21.5512 19.4278C21.5512 19.4845 21.5512 19.5412 21.4953 19.6545C21.4953 19.5412 21.3278 19.3712 21.3278 19.3712L21.4395 19.3145C21.4953 19.3712 21.5512 19.4278 21.5512 19.4278ZM20.6645 19.3145C20.7762 19.3712 20.8879 19.3712 20.9927 19.3712C20.9368 19.3712 20.6087 19.7183 20.6087 19.7183C20.5528 19.775 20.5528 19.775 20.497 19.8316C20.5598 19.6049 20.6087 19.4278 20.6645 19.3145ZM30.4947 17.6143H30.4389L30.4947 17.5576V17.6143ZM34.3835 16.7146C34.3766 16.7146 34.3835 16.7146 34.3835 16.7146C34.3766 16.7146 34.3766 16.7146 34.3835 16.7146C34.3766 16.7146 34.3766 16.7146 34.3835 16.7146Z" fill="#231F20"/>
<path d="M21.7954 23.99C21.956 24.0183 22.2981 24.1033 22.2981 24.1033C22.1306 24.2733 21.9141 24.5284 21.6349 24.7905C21.6907 24.5567 21.7466 24.2733 21.7954 23.99ZM25.7191 23.232C25.8867 23.2886 26.0473 23.402 26.0473 23.402H26.1031C25.9356 23.572 25.7191 23.8058 25.4957 23.9758C25.5586 23.7491 25.6074 23.4587 25.7191 23.232ZM18.0951 24.8047C18.2068 24.8613 18.2627 24.918 18.3186 24.918C18.3186 24.918 18.4303 24.9747 18.4861 24.9747C18.3744 25.3714 18.3255 25.7752 18.2697 26.0019C18.1719 26.0373 18.158 26.0444 18.0463 26.0586C18.0463 25.6052 18.1021 25.2014 18.0951 24.8047ZM15.2187 23.9687C15.2745 23.9687 15.3304 23.912 15.4421 23.8554C15.3862 23.9687 15.3304 24.0254 15.2745 24.1387C15.2745 24.0821 15.2187 24.0254 15.2187 24.0254V23.9687ZM16.5941 22.3039C16.7058 22.1906 16.7686 22.1339 16.8664 22.0772C16.9152 22.1056 16.8594 22.1693 16.9501 22.1623C16.7965 22.2402 16.7058 22.2473 16.5941 22.3039ZM20.071 20.3558C20.071 20.1291 20.3921 19.2294 20.441 19.0523C20.4968 18.9956 20.5597 18.9248 20.5597 18.9248C20.5597 18.9248 20.6714 18.9248 20.7831 18.9248C21.0065 19.0381 21.2229 18.9815 21.3905 18.9815L21.4952 18.9248C21.6069 19.0381 21.7186 19.0948 21.7186 19.0948C21.7186 19.0948 21.8862 19.2081 21.9421 19.2081C21.8303 19.5482 21.7815 19.952 21.6698 20.292L21.1671 19.6119C20.8389 19.8953 20.2874 20.4125 20.1198 20.4691H20.064C20.071 20.4691 20.071 20.4125 20.071 20.3558ZM32.3727 16.7074C32.4285 16.6508 32.5403 16.5941 32.645 16.5941C32.645 16.6508 32.5891 16.7074 32.5891 16.7074C32.5333 16.7641 32.4285 16.7641 32.3099 16.7641L32.3727 16.7074ZM28.6096 17.6709C28.6026 18.1668 28.2395 18.5493 28.2395 18.5493C28.1837 18.606 28.1139 18.6981 28.058 18.6981C28.1697 18.1597 28.1627 17.9188 28.6096 17.6709ZM31.4232 15.829C30.9833 16.1124 30.6622 16.5445 30.6692 16.9979C30.6692 17.2246 30.7529 17.5788 31.0811 17.7417C31.0811 17.7984 30.8926 18.1384 30.8926 18.1384C30.7809 18.0251 30.6412 17.8692 30.4457 17.8551C30.341 17.848 30.1735 17.9188 30.0618 17.9755C30.1665 17.345 30.7111 15.3543 30.7111 15.3543C29.8174 15.659 29.3845 15.8007 29.3845 15.8007C29.3706 15.8361 29.3706 15.8361 29.3357 15.9282C29.0564 16.0415 28.6096 16.1265 28.2884 16.2753C27.3319 16.7216 26.8572 17.6496 26.6966 18.2164C26.7524 17.933 26.8572 17.4725 26.8572 17.3592C26.8572 17.0758 26.8013 16.9058 26.6896 16.7287C26.1311 16.247 25.4748 16.7358 25.0838 17.0191C25.0838 17.0191 24.7487 16.7924 24.4764 16.7924C24.1971 16.8491 23.9249 17.0191 23.5409 17.3096C23.5409 17.2529 23.2686 17.0758 23.2686 17.0758C22.7589 16.9554 21.9909 17.6567 21.8303 17.7701C21.7745 17.7134 21.7186 17.6567 21.6069 17.5434C21.3835 17.43 20.4968 17.3167 19.673 18.0676C19.1773 18.5847 18.7933 19.2648 18.6327 19.8386C18.6327 19.8953 18.5769 19.952 18.4652 20.0653C18.5839 19.5199 18.912 17.9826 18.912 17.9826C17.8089 18.2943 17.39 18.4289 17.39 18.4289C17.376 18.5564 16.9781 20.1928 16.9781 20.1928C16.9222 20.4195 16.7896 20.5471 16.6779 20.7242C16.8384 19.7182 16.9501 19.2223 16.9501 19.1019C16.9501 18.9885 16.9152 18.7335 16.8035 18.6202C16.6918 18.5068 16.3078 18.2801 15.7563 18.6981C15.6934 18.7477 15.3094 19.0027 15.0372 19.2294C15.1489 18.8894 15.2676 18.5422 15.3234 18.3651C15.847 18.6627 16.252 18.1384 16.252 17.7417C16.252 17.2883 15.9727 17.1183 15.7493 17.005C15.47 16.9483 15.0232 16.9554 15.0232 16.9554C14.4716 17.0687 13.8712 17.4158 13.5431 17.8692C13.2149 18.3226 12.9427 19.0098 12.7262 19.9237C12.4051 20.37 12.0281 20.1503 12.0281 20.1503C12.0839 20.037 12.5936 18.1243 12.5936 18.1243C12.1118 18.0676 11.8256 18.0818 11.2461 18.1739C10.4711 18.2943 9.84279 18.6768 9.34709 19.2507C8.85139 19.8245 8.63496 20.3912 8.5791 21.0217C8.5791 21.3051 8.61401 21.5814 8.78855 21.808C9.01197 22.1481 9.3052 22.2756 9.64032 22.1552C10.0243 22.0418 10.1919 21.808 10.2477 21.468C10.2477 21.2413 10.136 21.0713 9.96846 20.9013C9.9126 20.8446 9.9126 20.7312 9.9126 20.7312C9.9126 20.4479 10.2477 19.8741 10.5689 19.704C10.4572 20.0512 10.3734 20.4266 10.3734 20.5471C10.3734 20.6037 10.4572 21.2413 10.904 21.4113C11.1833 21.5813 11.5882 21.5247 12.035 21.4893C12.1467 21.4822 12.2724 21.4255 12.4051 21.4042C12.4051 21.4609 12.3422 21.6734 12.3422 21.6734C12.0071 22.3748 11.4695 22.3181 11.4695 22.3181C11.4137 22.5235 11.1414 23.742 11.1414 23.742C11.7697 23.4445 11.7348 23.4587 11.9163 23.3666C12.1607 23.239 12.5028 23.0407 13.187 23.0478C14.1854 23.0619 14.6252 22.7007 14.6811 22.644C14.737 22.5873 14.9604 21.0925 14.9604 21.0925C14.9604 21.0925 14.6462 21.3972 14.5066 21.5034C14.6183 21.05 14.6671 20.6462 14.7788 20.2495C14.8905 20.3062 15.2676 20.5046 15.2676 20.5046C15.1559 20.9579 15.0162 21.7301 15.0092 21.9001C14.9883 22.7432 15.6795 22.6369 15.7842 22.6369C14.737 23.1115 14.1505 23.3949 14.0248 23.5508C13.8293 23.7987 13.7874 23.9475 13.7874 24.2308C13.7874 24.2875 13.8154 25.1801 14.5834 25.1447C13.8712 26.1719 13.0474 27.4329 12.7192 27.7163C12.44 27.5462 11.9931 27.5392 11.7767 27.8296C11.6441 27.9713 11.5533 28.3963 11.7837 28.7505C11.9513 29.0339 12.3422 29.211 12.6215 29.1543C12.9496 29.0977 13.3266 28.9135 13.6408 28.5522C13.969 28.1696 15.2606 26.2073 15.9727 25.1376C15.9727 25.3643 15.7982 26.7599 15.5748 27.1424C15.3513 27.5321 15.1349 27.8154 15.1349 27.8154C16.0774 27.695 16.0355 27.7021 16.0355 27.7021C16.3148 27.6454 16.7547 27.5817 17.0828 27.355C17.4109 27.1849 17.9136 27.1779 17.9136 27.1779H18.1929C18.2487 26.8945 18.2487 26.6678 18.2487 26.6111C18.3046 26.7245 18.3325 26.937 18.4442 27.0503C18.5559 27.1637 18.9958 27.5392 20.1268 26.5474C20.1268 26.604 20.3083 26.8024 20.3642 26.8095C21.0903 26.9087 21.5092 26.3703 21.8932 26.0231C21.8932 26.0798 21.8094 26.4411 21.8094 26.4411C22.3051 26.3278 23.3942 26.0727 23.3942 26.0727C23.4431 25.846 23.6037 25.2155 23.7084 24.6488C23.8201 24.6488 23.8201 24.6488 23.9249 24.6488C23.855 24.9888 23.8271 25.1589 23.8201 25.2722C23.7573 25.9665 24.5043 26.1152 24.7906 26.0161C25.0768 25.9169 25.5306 25.4351 25.9705 25.0384C25.9845 25.258 26.0752 25.3926 26.1939 25.4918C26.55 25.7894 26.9759 25.6973 27.8974 24.9463C28.065 25.1164 28.2395 25.3076 28.5118 25.251C28.84 25.1943 29.1751 24.9605 29.5591 24.5638C30.341 25.4635 31.3394 24.6205 31.6536 23.9262C31.6536 24.5921 32.268 24.6276 32.5403 24.5496C32.8754 24.4575 33.3641 24.0325 34.0274 23.4587C34.2438 23.2886 34.4672 23.0549 34.5789 22.9982C34.6348 22.9982 34.6348 22.9982 34.6906 22.9982C35.0606 23.5224 35.8705 23.2816 35.9054 22.5944C35.9054 22.1977 35.7379 21.8576 35.4586 21.7443C35.2352 21.6309 35.0188 21.5743 34.7395 21.638C34.1879 21.7514 33.7481 22.0985 33.3082 22.4385C33.3641 22.3819 33.783 20.2212 33.783 20.2212C33.3432 20.2779 31.2556 20.795 30.8158 21.0855C30.2642 21.3759 29.9919 21.7655 29.9919 22.2189C29.9919 22.2756 30.1106 22.9061 30.4946 23.0265C30.4388 23.1399 30.3271 23.2532 30.2782 23.3666C30.2782 23.1965 30.1735 23.147 30.1036 23.1044C29.7336 22.8707 29.5242 23.1895 29.4194 23.2461C29.58 22.6794 29.9221 20.88 29.9221 20.88C29.5242 21.0217 28.3303 21.4822 28.3303 21.4822C28.0301 22.8069 27.9533 23.0903 27.9533 23.0903C27.8974 23.2603 27.7857 23.4303 27.6251 23.6641C27.9533 22.2402 27.9533 22.1268 27.9533 22.0702C27.9603 21.5459 27.4925 21.4255 27.3249 21.4113C26.8781 21.3617 26.2358 21.9639 25.9565 22.2543C25.9565 22.1977 26.0403 21.7018 26.0403 21.7018C24.9791 21.971 24.5323 22.0985 24.5323 22.0985C24.4764 22.3252 24.3019 22.8919 24.1902 23.402C24.1343 23.402 24.0435 23.4799 23.9667 23.4657C24.0226 23.069 24.0715 22.8919 24.0715 22.8919V22.8353C24.0715 22.7786 24.0715 22.5519 23.8481 22.3252C23.2686 22.0064 22.5146 22.7148 22.0817 23.0761C22.0817 23.0194 22.1864 22.4456 22.1864 22.4456L20.6365 22.7927C20.5806 23.0194 20.3642 23.9333 20.1478 24.6205C20.0919 24.7905 20.0361 24.9605 19.8755 25.0739C20.1478 23.9333 20.2036 23.7066 20.2036 23.6499C20.2036 23.3666 20.0919 23.0832 19.8685 22.9699C19.5543 22.7998 19.2052 23.0336 18.2138 23.8341C18.2627 23.2036 18.535 21.8364 18.5908 21.6097C18.6467 21.553 18.7584 21.4963 18.8143 21.4397C18.9818 21.6097 19.1913 21.8789 19.6381 21.8789C20.3572 21.9922 21.3626 21.1138 21.6349 20.8021C21.579 20.8588 21.5092 21.3192 21.5092 21.3192C21.6 21.3192 22.9823 21.043 22.9823 21.043C23.0521 20.7242 23.2686 19.4348 23.4571 19.3144C23.3524 20.0016 23.1359 21.1138 23.1359 21.1138C23.6665 20.9863 24.6789 20.8446 24.6789 20.8446C24.6789 20.5612 24.7836 20.1574 24.8395 19.8174C24.8395 19.8741 24.8395 19.9307 24.8395 19.9307C24.8395 20.1008 24.9093 20.3133 25.0629 20.4975C25.3561 20.8588 26.0403 20.8304 26.7524 20.0653C27.3948 20.5116 28.079 20.1716 28.463 19.8811C28.9796 20.1858 29.3566 20.0087 29.4683 19.9449C29.7476 19.8316 29.971 19.5907 30.2433 19.3569C30.4667 19.5836 30.7529 19.7182 31.1439 19.6615C31.6955 19.5482 31.9957 19.2011 32.268 18.7406C32.3238 19.024 32.5263 19.1869 32.6869 19.2436C33.413 19.5411 34.4812 18.4856 34.8652 18.103C34.942 18.0463 35.2073 17.7417 35.2073 17.7417C35.319 17.9117 35.6611 18.0534 35.8775 18.0534C36.1568 17.9968 36.4081 17.8834 36.5408 17.2387C36.4849 16.842 36.3174 16.672 36.1498 16.5587C35.8217 16.332 35.4935 16.3178 35.2073 16.4311C34.928 16.5445 34.3834 16.9058 33.9994 17.1892C34.1111 16.6791 34.5231 14.9151 34.5231 14.9151C34.5231 14.9151 31.6466 15.659 31.4232 15.829Z" fill="#A2600B"/>
<path d="M12.4471 29.2395C12.14 29.2395 11.8886 29.0978 11.7001 28.8073C11.5325 28.5523 11.5186 28.1768 11.6582 27.9147C11.8328 27.5888 12.2098 27.4897 12.6706 27.6809C12.9359 27.433 13.4944 26.6112 14.039 25.8249C14.1716 25.6265 14.3113 25.4282 14.4439 25.2369C14.1297 25.2227 13.8644 24.9677 13.7597 24.5781C13.648 24.1601 13.7527 23.6146 14.2345 23.3313C14.416 23.225 14.6603 23.0904 15.5191 22.7291C15.2747 22.7149 14.9256 22.5732 14.9256 21.9286C14.9256 21.7515 15.0723 21.0006 15.177 20.5542C15.0932 20.5117 14.9047 20.4126 14.786 20.3559C14.7302 20.5826 14.6743 20.8093 14.6254 21.0431C14.5975 21.1493 14.5766 21.2627 14.5486 21.376C14.6953 21.2414 14.9047 21.0572 14.9117 21.0501C14.9326 21.036 14.9536 21.0289 14.9745 21.0431C14.9955 21.0572 15.0094 21.0785 15.0024 21.0997L14.7371 22.6299C14.7371 22.637 14.7302 22.6512 14.7232 22.6583L14.6673 22.7149C14.6603 22.7149 14.2624 23.1187 13.1593 23.1258C12.51 23.1258 11.8048 23.4588 11.1416 23.813C11.1206 23.8201 11.0997 23.8201 11.0857 23.8059C11.0648 23.7917 11.0578 23.7705 11.0648 23.7492C11.0648 23.7492 11.3371 22.5591 11.3929 22.3253C11.3999 22.304 11.4208 22.2828 11.4418 22.2828C11.4418 22.2828 11.5186 22.2757 11.7071 22.2261C11.9724 22.1553 12.3145 21.7444 12.3424 21.4823C12.14 21.5602 11.8118 21.5885 11.5744 21.5885C11.4208 21.5885 11.1486 21.5815 10.967 21.5106C10.6947 21.4044 10.5062 21.2272 10.4085 20.9864C10.2898 20.703 10.2968 20.3417 10.4294 19.9167C10.234 20.1079 9.98959 20.4196 9.95468 20.7597C9.9477 20.7951 9.95468 20.8447 9.99657 20.8872C10.1432 21.036 10.2898 21.2202 10.2898 21.4964C10.2898 21.8365 10.0664 22.0986 9.64749 22.2403C9.30539 22.3536 8.98423 22.2119 8.73289 21.8507C8.54438 21.5815 8.52344 21.2981 8.52344 21.0572C8.57929 20.4055 8.82365 19.8317 9.30539 19.2508C9.89883 18.5282 10.974 18.0606 12.0492 18.0535C12.2377 18.0535 12.4332 18.0677 12.6147 18.096C12.6287 18.096 12.6426 18.1102 12.6496 18.1244C12.6566 18.1385 12.6636 18.1527 12.6566 18.1669C12.6357 18.2448 12.126 20.03 12.0911 20.1505C12.0911 20.1646 12.0981 20.1788 12.1609 20.1859C12.2935 20.2142 12.4402 20.1363 12.6706 19.9238C12.9149 18.9036 13.1663 18.2661 13.4944 17.8623C13.9482 17.3026 14.3322 17.1113 14.8419 16.9626C15.3306 16.8209 15.8123 16.9342 16.0986 17.2459C16.2452 17.4018 16.315 17.5931 16.308 17.7772C16.2801 18.1952 15.9869 18.5282 15.6448 18.5282C15.554 18.5282 15.4632 18.5069 15.3795 18.4573C15.3585 18.5211 15.3306 18.6061 15.2957 18.6982C15.2538 18.8186 15.2049 18.9532 15.156 19.0949C15.4772 18.8399 15.9799 18.4715 16.1823 18.4148C16.4616 18.344 16.713 18.4148 16.8735 18.599C16.9992 18.7407 17.0551 18.9391 17.0341 19.1374C17.0202 19.2295 16.9503 19.6687 16.7688 20.5472C16.8316 20.4622 16.8945 20.3417 16.9294 20.193C16.9434 20.1292 17.2924 18.6699 17.3623 18.429C17.3623 18.4148 17.3692 18.4007 17.4181 18.3794V18.3723C17.4251 18.3723 17.4251 18.3723 17.4321 18.3723C17.5647 18.3227 17.9278 18.2165 18.9331 17.9402C18.9541 17.9331 18.975 17.9402 18.982 17.9544C18.996 17.9685 19.003 17.9898 18.996 18.0039C18.996 18.0181 18.7795 19.0453 18.612 19.7467C18.7726 19.2437 19.1147 18.5494 19.6383 18.0464C20.2108 17.4939 20.8112 17.4089 21.1184 17.4089C21.3418 17.4089 21.5443 17.4514 21.642 17.5222C21.7328 17.5931 21.7817 17.6497 21.8236 17.6993C21.8305 17.7064 21.8305 17.7064 21.8375 17.7135C22.047 17.5364 22.7032 17.0192 23.171 17.0192C23.3525 17.0192 23.4852 17.0972 23.562 17.2388H23.569C23.932 16.9697 24.1903 16.7713 24.4766 16.7571C24.8746 16.7288 25.0351 16.8705 25.1049 16.9555C25.5099 16.6367 25.852 16.4808 26.1522 16.4808C26.4175 16.4808 26.599 16.6013 26.7247 16.7075C26.9272 16.8705 26.9272 17.253 26.8783 17.6072C27.1227 17.1113 27.5485 16.5163 28.2746 16.2329C28.4701 16.155 28.7145 16.077 28.9309 16.0133C29.0636 15.9708 29.1962 15.9283 29.3009 15.8929C29.3289 15.8078 29.3428 15.7866 29.3428 15.7795C29.3498 15.7653 29.3638 15.7583 29.3708 15.7583L30.7043 15.312C30.7252 15.3049 30.7462 15.312 30.7601 15.3261C30.7741 15.3403 30.7811 15.3615 30.7741 15.3828L30.6135 15.9495L30.5437 16.2329C30.4041 16.7713 30.2435 17.3876 30.1457 17.8977C30.2574 17.8481 30.3971 17.8056 30.4948 17.8056H30.5088C30.6624 17.8127 30.788 17.9402 30.8928 18.0606C30.9486 17.9614 31.0184 17.8481 31.0464 17.7843C30.7322 17.6001 30.6205 17.2601 30.6205 17.0192C30.6205 16.5446 30.9696 16.0204 31.4513 15.7724C31.933 15.5245 34.4185 14.9223 34.5232 14.894C34.5442 14.8869 34.5651 14.894 34.5721 14.9082C34.5861 14.9223 34.5931 14.9436 34.5861 14.9577C34.5791 14.9719 34.244 16.4525 34.1113 17.083C34.5023 16.7996 34.8793 16.5517 34.9561 16.5021C35.1307 16.3887 35.3401 16.325 35.5565 16.325C36.0592 16.325 36.5828 16.665 36.5828 17.253C36.5828 17.7277 36.2966 18.089 35.8777 18.1315C35.6473 18.1527 35.3331 18.0464 35.2284 17.8481L35.1865 17.8977C34.9352 18.1385 34.3487 18.7053 33.7204 19.1445C33.5179 19.2862 33.2735 19.3641 33.0222 19.3641C32.7569 19.3641 32.5195 19.2791 32.3799 19.1303C32.317 19.0595 32.2751 18.9816 32.2472 18.8895C32.0029 19.2649 31.6747 19.6404 31.1441 19.7467C31.0883 19.7537 31.0324 19.7608 30.9835 19.7608C30.7182 19.7608 30.4808 19.6546 30.2505 19.442C29.9293 19.8458 29.3708 20.1505 28.9519 20.1575C28.7494 20.1575 28.5888 20.0938 28.4771 19.9663C28.2467 20.1859 27.7789 20.363 27.388 20.363C27.1227 20.363 26.9062 20.2921 26.7666 20.1434C26.3756 20.5755 25.9637 20.8164 25.5937 20.8164C25.3703 20.8164 25.1748 20.7314 25.0142 20.5613C24.9304 20.4692 24.8676 20.3134 24.8327 20.1646C24.8327 20.1717 24.8327 20.1788 24.8257 20.1859C24.7838 20.4267 24.7419 20.6747 24.721 20.873C24.721 20.9014 24.7 20.9226 24.6721 20.9226C24.6581 20.9226 23.6737 21.0714 23.1431 21.1847C23.1221 21.1847 23.1082 21.1847 23.0942 21.1706C23.0803 21.1564 23.0733 21.1352 23.0803 21.121C23.0803 21.1139 23.1989 20.4551 23.3037 19.8387C23.2408 20.1292 23.171 20.4409 23.1152 20.6888C23.0803 20.8589 23.0454 21.0006 23.0314 21.0785C23.0244 21.0997 23.0104 21.1139 22.9895 21.121C22.9755 21.121 21.9422 21.3335 21.5164 21.3973C21.5024 21.3973 21.4815 21.3902 21.4675 21.3831C21.4535 21.3689 21.4535 21.3477 21.4535 21.3335C21.4535 21.3264 21.4884 21.1706 21.5164 21.0289C21.0556 21.5035 20.3434 21.9569 19.7081 21.964C19.352 21.964 19.0448 21.8294 18.7935 21.5531C18.7656 21.5744 18.7446 21.5885 18.7167 21.6098C18.6818 21.631 18.6469 21.6523 18.6259 21.6806C18.5701 21.9357 18.3746 23.14 18.2769 23.7492C19.1147 23.1046 19.1775 23.0691 19.3171 22.9912L19.3451 22.977C19.5964 22.8354 19.8966 22.892 20.0781 23.1116C20.2108 23.2746 20.2736 23.4871 20.2387 23.7067C20.2247 23.8059 20.127 24.238 19.9594 24.9394C20.0153 24.8544 20.0502 24.7552 20.0851 24.6489C20.3155 23.9263 20.5459 22.9345 20.5738 22.8283C20.5808 22.807 20.5948 22.7929 20.6157 22.7858L22.1657 22.4386C22.1866 22.4386 22.2006 22.4386 22.2145 22.4528C22.2285 22.467 22.2355 22.4882 22.2285 22.5024C22.1936 22.6724 22.1657 22.8637 22.1447 22.9841C22.5985 22.6087 22.9895 22.304 23.2478 22.2403C23.562 22.1624 23.8133 22.2261 23.96 22.4245C24.1205 22.6441 24.1415 22.9983 24.0228 23.4588C24.0298 23.4588 24.0437 23.4517 24.0507 23.4517C24.0717 23.4446 24.0926 23.4446 24.1066 23.4375C24.1903 23.1329 24.2741 22.8283 24.3509 22.5803C24.4068 22.382 24.4557 22.219 24.4836 22.1128C24.4906 22.0986 24.5045 22.0773 24.5255 22.0703C24.5324 22.0703 25.098 21.9144 26.0475 21.6736C26.0684 21.6665 26.0894 21.6735 26.1033 21.6877C26.1173 21.7019 26.1243 21.7231 26.1173 21.7444C26.1173 21.7444 26.0754 21.879 26.0126 22.1411C26.0265 22.1269 26.0405 22.1128 26.0545 22.0986C26.3826 21.8011 26.7875 21.4327 27.1645 21.3902C27.4438 21.3548 27.6742 21.4469 27.8348 21.6452C27.9535 21.7869 28.0093 21.9782 27.9814 22.1269C27.9814 22.134 27.9814 22.1411 27.9744 22.1482C27.9674 22.2261 27.9395 22.4457 27.7161 23.4446C27.7929 23.3242 27.8418 23.225 27.8767 23.1258C27.8767 23.1258 27.9744 22.7999 28.2746 21.5035C28.2816 21.4823 28.2886 21.4681 28.3095 21.4681C28.3235 21.461 29.3708 21.0501 29.8874 20.866C29.9084 20.8589 29.9293 20.866 29.9433 20.8801C29.9572 20.8943 29.9642 20.9155 29.9572 20.9368C29.9502 20.951 29.6361 22.467 29.4825 23.1471C29.6291 23.0337 29.7548 23.0125 29.8455 23.0125C30.041 23.0125 30.2016 23.14 30.2644 23.2887C30.2993 23.2321 30.3342 23.1754 30.3761 23.1116C30.1457 23.0125 29.9572 22.7149 29.9223 22.382C29.8944 22.134 29.9293 21.5106 30.7601 21.0926C31.2419 20.8093 33.3015 20.278 33.7553 20.2213C33.7692 20.2213 33.7902 20.2284 33.8041 20.2355C33.8181 20.2496 33.8181 20.2709 33.8181 20.2851C33.8041 20.3559 33.483 21.8507 33.3643 22.3607C33.7622 22.0561 34.1811 21.7515 34.6978 21.6452C35.0957 21.5602 35.4448 21.6523 35.6752 21.9002C35.8568 22.0915 35.9475 22.3678 35.9266 22.6653C35.8986 23.1612 35.5356 23.3879 35.1935 23.3879C34.9491 23.3879 34.7327 23.2887 34.628 23.1258C34.614 23.1258 34.6 23.1258 34.5861 23.1258C34.5651 23.1258 34.5512 23.1258 34.5302 23.1187C34.3347 23.3171 33.0361 24.5001 32.6033 24.6347C32.5125 24.6631 32.4148 24.6772 32.324 24.6772C31.961 24.6772 31.6957 24.4931 31.6049 24.1601C31.2488 24.8118 30.7392 24.9677 30.5646 25.0173C30.4599 25.0456 30.3552 25.0669 30.2574 25.0669C29.9642 25.0669 29.7198 24.9464 29.5662 24.7198C29.2032 25.081 28.8332 25.3077 28.4911 25.3644C28.4562 25.3715 28.4143 25.3786 28.3724 25.3786C28.135 25.3786 27.9744 25.2156 27.8697 25.074C27.5276 25.329 26.99 25.6903 26.8155 25.7328C26.7596 25.747 26.6968 25.754 26.627 25.754C26.4035 25.754 26.1801 25.669 26.0405 25.5273C25.9567 25.4353 25.9009 25.329 25.8799 25.2086C25.8241 25.2581 25.7682 25.3148 25.7054 25.3715C25.3214 25.7328 24.9234 26.1012 24.6651 26.1508C24.6302 26.1578 24.5953 26.1578 24.5534 26.1578C24.3509 26.1578 24.0507 26.0799 23.8622 25.8603C23.7226 25.6974 23.6807 25.4848 23.7156 25.2369C23.7296 25.1731 23.7505 25.0881 23.7714 24.9889C23.7924 24.911 23.8133 24.826 23.8273 24.741C23.7994 24.741 23.7784 24.7481 23.7575 24.7481C23.7365 24.7481 23.7156 24.7481 23.6946 24.7481C23.5829 25.329 23.4573 25.9028 23.4084 26.1295C23.4014 26.1508 23.3875 26.1649 23.3665 26.172C23.3665 26.172 22.2774 26.42 21.7817 26.5333C21.7607 26.5404 21.7468 26.5333 21.7328 26.5191C21.7188 26.505 21.7118 26.4908 21.7188 26.4695C21.7188 26.4695 21.7398 26.3562 21.7677 26.2358C21.3977 26.6041 20.909 26.9442 20.518 26.9442C20.3155 26.9442 20.1549 26.8521 20.0572 26.6821C19.6383 27.0717 19.1845 27.3055 18.8214 27.3055C18.5491 27.3055 18.3397 27.178 18.228 26.9371C18.221 27.0221 18.207 27.1213 18.2001 27.2276C18.2001 27.2559 18.1651 27.2771 18.1442 27.2771H18.1233C17.9976 27.2771 17.3483 27.2913 17.069 27.4472C16.5105 27.7589 16.0008 27.8085 15.0862 27.8864C15.0653 27.8864 15.0443 27.8722 15.0304 27.858C15.0234 27.8368 15.0234 27.8155 15.0374 27.7943C15.547 27.2205 15.7774 26.5546 15.8542 25.3927C15.156 26.4837 13.9901 28.2335 13.7457 28.5169C13.4665 28.8357 12.9498 29.2324 12.4471 29.2395ZM12.2168 27.688C11.9514 27.688 11.8188 27.8368 11.756 27.9643C11.6373 28.191 11.6512 28.531 11.7909 28.7436C11.9584 28.9986 12.1818 29.1261 12.4471 29.1261C12.9079 29.1261 13.3967 28.7507 13.6759 28.4248C13.9273 28.1343 15.2119 26.2003 15.8821 25.1377C15.8961 25.1165 15.924 25.1023 15.945 25.1165C15.9659 25.1235 15.9869 25.1448 15.9799 25.1731C15.917 26.427 15.7076 27.1425 15.2119 27.7518C16.0497 27.6809 16.4965 27.6243 17.0132 27.3409C17.2994 27.178 17.9138 27.1638 18.0953 27.1567C18.1233 26.9158 18.1442 26.6962 18.1442 26.6396C18.1442 26.6112 18.1651 26.5829 18.1931 26.5829C18.221 26.5829 18.2489 26.5971 18.2559 26.6254C18.3187 26.9867 18.5212 27.1709 18.8284 27.1709C19.1775 27.1709 19.6313 26.93 20.0432 26.5262C20.0572 26.512 20.0781 26.505 20.0921 26.512C20.113 26.512 20.127 26.5262 20.134 26.5475C20.2178 26.7246 20.3434 26.8167 20.5319 26.8167C20.9369 26.8167 21.4954 26.3916 21.8375 25.9949C21.8515 25.9737 21.8794 25.9666 21.9073 25.9807C21.9283 25.9949 21.9422 26.0162 21.9353 26.0445C21.9213 26.1083 21.8864 26.2854 21.8585 26.3845C22.3262 26.2783 23.1501 26.087 23.3246 26.0516C23.3805 25.7965 23.4992 25.2156 23.6109 24.6631C23.6178 24.6418 23.6318 24.6277 23.6528 24.6206C23.6737 24.6206 23.7086 24.6135 23.7645 24.6135C23.7994 24.6135 23.8482 24.6064 23.9041 24.6064C23.9181 24.6064 23.939 24.6135 23.953 24.6206C23.9669 24.6347 23.9669 24.6489 23.9669 24.6702C23.946 24.7906 23.9181 24.9039 23.8901 24.996C23.8692 25.0952 23.8482 25.1731 23.8343 25.2369C23.7994 25.4494 23.8413 25.6265 23.953 25.7611C24.1345 25.9737 24.4696 26.0516 24.6511 26.0162C24.8815 25.9737 25.2795 25.5982 25.6356 25.2652C25.7263 25.1802 25.8101 25.1023 25.8939 25.0244C25.9078 25.0102 25.9358 25.0102 25.9567 25.0173C25.9777 25.0244 25.9916 25.0456 25.9916 25.0669C25.9916 25.2086 26.0335 25.329 26.1243 25.4282C26.243 25.5486 26.4385 25.6265 26.627 25.6265C26.6828 25.6265 26.7387 25.6194 26.7875 25.6053C26.9411 25.5628 27.4717 25.2156 27.8488 24.9252C27.8627 24.9181 27.8767 24.911 27.8906 24.9181C27.9046 24.9181 27.9186 24.9252 27.9256 24.9394C28.0931 25.1873 28.2607 25.2723 28.4631 25.2298C28.7983 25.1731 29.1683 24.9394 29.5244 24.5639C29.5383 24.5497 29.5523 24.5426 29.5732 24.5497C29.5872 24.5497 29.6081 24.5639 29.6151 24.5781C29.7408 24.8048 29.9712 24.9323 30.2435 24.9323C30.3342 24.9323 30.425 24.9181 30.5227 24.8898C30.6973 24.8331 31.2279 24.6772 31.57 23.9405C31.584 23.9192 31.6049 23.9051 31.6258 23.9122C31.6538 23.9122 31.6677 23.9334 31.6747 23.9617C31.7236 24.486 32.1355 24.5426 32.3101 24.5426C32.3938 24.5426 32.4846 24.5285 32.5614 24.5072C32.9593 24.3868 34.3138 23.1541 34.4604 23.0054C34.4674 22.9983 34.4814 22.9912 34.5023 22.9912C34.5302 22.9912 34.5582 22.9912 34.5861 22.9912C34.628 22.9912 34.6838 22.9841 34.7048 23.0195C34.7816 23.1612 34.9771 23.2533 35.1935 23.2533C35.4658 23.2533 35.7939 23.0904 35.8149 22.637C35.8288 22.3678 35.752 22.1199 35.5914 21.9498C35.389 21.7373 35.0748 21.6523 34.7187 21.7302C34.1742 21.8507 33.7343 22.1907 33.3084 22.5237C33.2875 22.5378 33.2596 22.5378 33.2456 22.5237C33.2247 22.5095 33.2177 22.4882 33.2247 22.4599C33.2526 22.3678 33.5318 21.0643 33.6924 20.3205C33.1269 20.4196 31.2488 20.9155 30.809 21.1706C30.041 21.5531 30.0061 22.1269 30.034 22.3465C30.0689 22.6653 30.2574 22.9487 30.4739 23.0054C30.4948 23.0125 30.5088 23.0195 30.5088 23.0408C30.5158 23.0621 30.5158 23.0762 30.5018 23.0904C30.432 23.1967 30.3831 23.2746 30.3342 23.3525L30.2854 23.4304C30.2714 23.4517 30.2505 23.4588 30.2295 23.4517C30.2086 23.4446 30.1876 23.4304 30.1876 23.4021C30.1737 23.2533 30.034 23.0975 29.8385 23.0975C29.7059 23.0975 29.5593 23.1754 29.4266 23.3242C29.4127 23.3454 29.3847 23.3454 29.3638 23.3383C29.3428 23.3242 29.3289 23.3029 29.3359 23.2746C29.4406 22.7929 29.7478 21.376 29.8246 20.9864C29.3359 21.1635 28.526 21.4823 28.3724 21.539C28.0722 22.8212 27.9814 23.1258 27.9744 23.14C27.9186 23.3171 27.8069 23.4871 27.6393 23.728C27.6253 23.7492 27.5974 23.7563 27.5695 23.7421C27.5485 23.728 27.5346 23.7067 27.5416 23.6784C27.8208 22.4457 27.8488 22.1978 27.8627 22.1199C27.8627 22.1057 27.8627 22.0986 27.8697 22.0844C27.8906 21.964 27.8418 21.8152 27.744 21.6948C27.6114 21.5319 27.4089 21.4539 27.1715 21.4823C26.8294 21.5248 26.4385 21.879 26.1243 22.1624C26.0614 22.219 26.0056 22.2757 25.9497 22.3182C25.9288 22.3324 25.9078 22.3324 25.8869 22.3253C25.866 22.3111 25.859 22.2899 25.866 22.2615C25.9218 22.0348 25.9637 21.879 25.9846 21.7869C25.2097 21.9853 24.714 22.1199 24.5883 22.1553C24.5604 22.2615 24.5115 22.4174 24.4626 22.5945C24.3858 22.8566 24.2951 23.1683 24.2113 23.4871C24.2043 23.5084 24.1903 23.5225 24.1694 23.5296C24.1415 23.5367 24.1135 23.5438 24.0786 23.5438C24.0368 23.5509 24.0018 23.5579 23.96 23.565C23.939 23.565 23.925 23.5579 23.9111 23.5438C23.8971 23.5296 23.8971 23.5084 23.9041 23.4942C24.0368 23.0337 24.0298 22.6724 23.8832 22.4741C23.7645 22.3111 23.555 22.2615 23.2897 22.3324C23.0244 22.3961 22.6055 22.7362 22.1168 23.1471C22.1028 23.1612 22.0749 23.1612 22.0609 23.1541C22.04 23.1471 22.026 23.1258 22.026 23.1046C22.026 23.055 22.0889 22.722 22.1168 22.552L20.6855 22.8779C20.6297 23.1187 20.4202 23.9972 20.2038 24.6772C20.1479 24.8544 20.0921 25.0385 19.9106 25.1661C19.8896 25.1802 19.8687 25.1802 19.8477 25.1661C19.8268 25.1519 19.8198 25.1306 19.8268 25.1094C20.0851 24.0184 20.141 23.7492 20.1479 23.6855C20.1759 23.5013 20.127 23.31 20.0083 23.1754C19.8547 22.9912 19.6173 22.9487 19.4079 23.0621L19.38 23.0762C19.2403 23.1541 19.1775 23.1896 18.2419 23.9122C18.221 23.9263 18.2001 23.9263 18.1791 23.9122C18.1582 23.898 18.1512 23.8767 18.1512 23.8555C18.2978 22.9275 18.4793 21.8365 18.5282 21.631C18.5282 21.624 18.5352 21.6098 18.5422 21.6027C18.5701 21.5673 18.619 21.539 18.6608 21.5106C18.7027 21.4823 18.7376 21.4539 18.7656 21.4327C18.7726 21.4256 18.7935 21.4185 18.8075 21.4185C18.8214 21.4185 18.8354 21.4256 18.8494 21.4398C19.0798 21.7161 19.373 21.8507 19.7151 21.8507C20.3853 21.8507 21.1533 21.3052 21.5792 20.7951C21.5932 20.7739 21.6211 20.7739 21.649 20.7809C21.67 20.7951 21.6839 20.8234 21.6769 20.8447C21.656 20.9297 21.6071 21.1564 21.5792 21.2698C21.9841 21.206 22.7591 21.0501 22.9336 21.0147C22.9476 20.9368 22.9755 20.8164 23.0104 20.6676C23.0872 20.3063 23.192 19.8175 23.2827 19.4349C23.2897 19.4066 23.3107 19.3854 23.3525 19.3499C23.3665 19.3358 23.3875 19.3216 23.3875 19.3145C23.3944 19.2862 23.4224 19.272 23.4503 19.2791C23.4782 19.2862 23.4992 19.3216 23.4922 19.3499C23.4014 19.9167 23.2478 20.7951 23.1989 21.0643C23.6737 20.9722 24.4277 20.8518 24.6092 20.8234C24.6302 20.6322 24.6721 20.3984 24.707 20.1717C24.7279 20.0584 24.7489 19.945 24.7628 19.8387C24.7698 19.8104 24.7908 19.7892 24.8187 19.7892C24.8466 19.7892 24.8676 19.8175 24.8676 19.8458C24.8676 19.9096 24.9304 20.3346 25.077 20.4905C25.2167 20.6393 25.3842 20.7101 25.5797 20.7101C25.9288 20.7101 26.3267 20.4692 26.7107 20.03C26.7247 20.0159 26.7387 20.0088 26.7526 20.0088C26.7666 20.0088 26.7875 20.0159 26.7945 20.03C26.9411 20.2213 27.1855 20.2567 27.374 20.2567C27.7999 20.2567 28.2607 20.0442 28.4213 19.8529C28.4352 19.8387 28.4492 19.8317 28.4631 19.8317C28.4771 19.8317 28.498 19.8387 28.505 19.8529C28.5958 19.9875 28.7424 20.0513 28.9309 20.0513C29.3359 20.0513 29.8874 19.7325 30.1806 19.3358C30.1876 19.3216 30.2016 19.3145 30.2225 19.3145C30.2365 19.3145 30.2574 19.3216 30.2644 19.3287C30.5227 19.5979 30.788 19.6971 31.1022 19.6475C31.6538 19.5341 31.9749 19.102 32.2193 18.6982C32.2333 18.6769 32.2542 18.6699 32.2821 18.6769C32.3031 18.684 32.324 18.7053 32.324 18.7336C32.317 18.8611 32.3589 18.9674 32.4427 19.0595C32.5614 19.187 32.7708 19.2649 33.0082 19.2649C33.2386 19.2649 33.462 19.1941 33.6436 19.0666C34.2579 18.6344 34.8444 18.0748 35.0888 17.8339L35.1516 17.7702C35.1656 17.756 35.1935 17.7347 35.2214 17.7347C35.2424 17.7347 35.2773 17.7418 35.2912 17.7914C35.3541 17.9544 35.6403 18.0606 35.8428 18.0394C36.1989 18.0039 36.4502 17.6852 36.4432 17.2743C36.4432 16.7642 35.9754 16.4596 35.5286 16.4596C35.3331 16.4596 35.1446 16.5163 34.984 16.6225C34.9003 16.6792 34.4604 16.9626 34.0275 17.2884C34.0066 17.3026 33.9857 17.3026 33.9647 17.2884C33.9438 17.2743 33.9368 17.253 33.9438 17.2318C34.0345 16.7925 34.3487 15.4111 34.4325 15.0498C33.9787 15.1632 31.8981 15.6732 31.4722 15.8929C31.0254 16.1195 30.7043 16.6084 30.7043 17.0405C30.7043 17.2601 30.816 17.5718 31.1162 17.7277C31.1441 17.7418 31.1511 17.7702 31.1441 17.7985C31.1232 17.8623 30.9416 18.174 30.9207 18.2094C30.9137 18.2236 30.8928 18.2306 30.8788 18.2377C30.8579 18.2377 30.8439 18.2306 30.8299 18.2165L30.816 18.1952C30.7182 18.0819 30.5995 17.9402 30.4739 17.9331C30.3622 17.9331 30.1946 18.0039 30.0829 18.0464L30.0619 18.0535C30.041 18.0606 30.0201 18.0606 30.0061 18.0464C29.9921 18.0323 29.9852 18.011 29.9852 17.9898C30.0759 17.4514 30.2505 16.7925 30.3971 16.2187L30.4739 15.9354L30.6065 15.4678L29.3987 15.8716C29.3917 15.8858 29.3777 15.9212 29.3638 15.9708C29.3568 15.9849 29.3428 15.9991 29.3289 16.0062C29.2172 16.0487 29.0775 16.0912 28.9309 16.1337C28.7215 16.1975 28.4771 16.2754 28.2816 16.3533C27.2483 16.75 26.8434 17.8198 26.7177 18.259C26.7107 18.2873 26.6828 18.3015 26.6549 18.3015C26.627 18.2944 26.606 18.2661 26.613 18.2377C26.62 18.2023 26.627 18.1527 26.6409 18.096C26.7177 17.7418 26.8853 17.0192 26.62 16.8067C26.5083 16.7146 26.3477 16.6084 26.1173 16.6084C25.831 16.6084 25.4959 16.7713 25.091 17.1042C25.077 17.1184 25.0561 17.1184 25.0421 17.1113C25.0212 17.1043 25.0072 17.0901 25.0072 17.0759C25.0072 17.0688 24.9164 16.8563 24.4557 16.8917C24.2043 16.9059 23.953 17.0972 23.6109 17.3522L23.548 17.3947C23.5341 17.4018 23.5131 17.4089 23.4992 17.4018C23.4782 17.3947 23.4712 17.3805 23.4643 17.3664C23.4084 17.2176 23.3037 17.1468 23.1431 17.1468C22.78 17.1468 22.2145 17.5293 21.8375 17.8481C21.8166 17.8693 21.7817 17.8693 21.7607 17.8481C21.7398 17.8268 21.7258 17.8056 21.7049 17.7843C21.67 17.7418 21.6281 17.6852 21.5443 17.6285C21.4815 17.5789 21.3139 17.5364 21.0835 17.5364C20.7903 17.5364 20.2247 17.6214 19.6802 18.1456C19.1426 18.6699 18.7935 19.3924 18.6539 19.8954C18.598 20.0017 18.5841 20.0159 18.4793 20.1434C18.4654 20.1646 18.4374 20.1646 18.4095 20.1575C18.3886 20.1434 18.3746 20.1221 18.3816 20.0938C18.5212 19.5625 18.7656 18.4219 18.8354 18.096C17.7812 18.3936 17.5019 18.4715 17.4251 18.4998C17.3553 18.7619 16.9992 20.2284 16.9992 20.2425C16.9224 20.5755 16.7269 20.7455 16.6711 20.788C16.6501 20.8022 16.6292 20.8022 16.6082 20.788C16.5873 20.7739 16.5803 20.7526 16.5873 20.7314C16.7967 19.7254 16.8735 19.2295 16.8875 19.1374C16.9084 18.9745 16.8596 18.8045 16.7548 18.6911C16.685 18.6132 16.5594 18.514 16.3499 18.514C16.2941 18.514 16.2312 18.5211 16.1684 18.5353C15.9799 18.5848 15.3934 19.017 15.0374 19.3074C15.0164 19.3216 14.9885 19.3216 14.9745 19.3145C14.9536 19.3003 14.9466 19.272 14.9536 19.2508C15.0164 19.0524 15.0932 18.8399 15.1491 18.6699C15.1909 18.5423 15.2328 18.4361 15.2538 18.3652C15.2608 18.3511 15.2747 18.3369 15.2887 18.3298C15.3027 18.3227 15.3236 18.3298 15.3376 18.3369C15.4213 18.3936 15.5121 18.4219 15.6029 18.4219C15.8891 18.4219 16.1335 18.1315 16.1614 17.7702C16.1684 17.6214 16.1056 17.4585 15.9869 17.3239C15.7285 17.0476 15.2887 16.9484 14.8419 17.0759C14.3462 17.2176 13.9901 17.4018 13.5503 17.9402C13.2291 18.3298 12.9847 18.9603 12.7404 19.9733C12.7404 19.9875 12.7334 19.9946 12.7264 20.0017C12.4611 20.2496 12.2796 20.3346 12.105 20.3063C12.0562 20.2992 11.9933 20.278 11.9584 20.2284C11.9445 20.2071 11.9375 20.1717 11.9514 20.1221C11.9864 20.0159 12.4053 18.5282 12.496 18.2023C12.3354 18.181 12.1749 18.174 12.0073 18.174C10.96 18.181 9.91978 18.6344 9.34728 19.3287C8.88649 19.8954 8.64213 20.448 8.59325 21.0643C8.59325 21.3831 8.64911 21.5956 8.78874 21.794C9.01216 22.1199 9.28444 22.2403 9.57767 22.1411C9.83599 22.0561 10.1502 21.879 10.1432 21.5106C10.1432 21.3264 10.0664 21.1706 9.87789 20.9793C9.80109 20.9014 9.80109 20.8093 9.80807 20.7597C9.86392 20.2709 10.2968 19.8529 10.4853 19.6971C10.5062 19.6829 10.5342 19.6758 10.5551 19.6971C10.5761 19.7112 10.583 19.7396 10.5761 19.7608C10.3806 20.2567 10.3457 20.6605 10.4783 20.9651C10.5691 21.1777 10.7366 21.3335 10.981 21.4327C11.0997 21.4823 11.3091 21.5106 11.5465 21.5035C11.8816 21.5035 12.2028 21.4469 12.3424 21.3689C12.3564 21.3618 12.3773 21.3618 12.3913 21.3689C12.4053 21.376 12.4192 21.3902 12.4192 21.4114C12.4751 21.709 12.0562 22.2615 11.7071 22.3536C11.5814 22.3891 11.5046 22.4032 11.4627 22.4103C11.4069 22.6512 11.2393 23.3879 11.1695 23.6784C11.8118 23.3383 12.489 23.0337 13.1314 23.0337C14.1716 23.0266 14.5556 22.6583 14.5556 22.6583L14.5975 22.6157L14.6254 22.4599L14.8349 21.2698C14.7162 21.3831 14.5347 21.546 14.4579 21.5956C14.4369 21.6098 14.416 21.6098 14.395 21.5956C14.3741 21.5815 14.3671 21.5602 14.3741 21.5319C14.416 21.3618 14.4509 21.1989 14.4858 21.036C14.5417 20.7739 14.5975 20.5259 14.6673 20.278C14.6743 20.2638 14.6813 20.2496 14.6952 20.2425C14.7092 20.2355 14.7302 20.2355 14.7441 20.2425C14.8558 20.2992 15.2328 20.4905 15.2328 20.4905C15.2538 20.5047 15.2677 20.5259 15.2608 20.5542C15.1491 21.036 15.0024 21.7869 15.0024 21.9427C15.0024 22.4032 15.191 22.637 15.547 22.6299C15.7006 22.6299 15.8472 22.5874 15.917 22.5591C15.945 22.5449 15.9799 22.5591 15.9869 22.5945C15.9938 22.6228 15.9869 22.6583 15.9589 22.6653C14.7441 23.1754 14.4649 23.3242 14.2554 23.4446C13.7946 23.7138 13.7388 24.2168 13.8365 24.5639C13.9412 24.9464 14.2065 25.1802 14.5137 25.1377C14.5347 25.1306 14.5556 25.1448 14.5696 25.1661C14.5835 25.1873 14.5835 25.2086 14.5696 25.2298C14.416 25.4494 14.2624 25.6832 14.1018 25.9099C13.5153 26.7671 12.9568 27.5818 12.6915 27.8155C12.6775 27.8297 12.6566 27.8368 12.6357 27.8226C12.496 27.7234 12.3494 27.688 12.2168 27.688ZM18.0395 26.1224C18.0255 26.1224 18.0116 26.1153 18.0046 26.1083C17.9906 26.1012 17.9836 26.0799 17.9836 26.0657C17.9906 25.7611 18.0046 25.4848 18.0185 25.2086C18.0255 25.074 18.0325 24.9464 18.0325 24.8118C18.0325 24.7906 18.0465 24.7764 18.0604 24.7623C18.0744 24.7552 18.0953 24.7552 18.1163 24.7623C18.1931 24.7977 18.3118 24.8544 18.4025 24.8898C18.4444 24.9039 18.4793 24.9252 18.5003 24.9323C18.5212 24.9464 18.5352 24.9677 18.5352 24.996C18.4793 25.2581 18.4305 25.5061 18.3816 25.7257C18.3606 25.8461 18.3327 25.9524 18.3187 26.0445C18.3118 26.0657 18.2978 26.087 18.2769 26.087C18.2419 26.0941 18.214 26.1012 18.1931 26.1012C18.1442 26.1083 18.1163 26.1153 18.0395 26.1224ZM18.1372 24.8969C18.1302 25.0031 18.1302 25.1094 18.1233 25.2156C18.1163 25.4707 18.1023 25.7257 18.0953 26.002C18.1233 25.9949 18.1442 25.9949 18.1651 25.9878C18.1791 25.9878 18.1931 25.9807 18.214 25.9807C18.235 25.8957 18.2489 25.7965 18.2699 25.6974C18.3118 25.4919 18.3537 25.2652 18.4095 25.0173C18.3886 25.0102 18.3746 25.0031 18.3537 24.996C18.2838 24.9677 18.207 24.9323 18.1372 24.8969ZM21.6211 24.8544C21.6071 24.8544 21.6001 24.8544 21.5932 24.8473C21.5722 24.8331 21.5652 24.8118 21.5722 24.7835C21.6281 24.5568 21.6769 24.2664 21.7328 23.9901C21.7328 23.9759 21.7468 23.9547 21.7607 23.9476C21.7747 23.9405 21.7956 23.9405 21.8096 23.9476C21.8934 23.9901 22.1866 24.0397 22.2913 24.0538C22.3123 24.0538 22.3262 24.068 22.3332 24.0893C22.3402 24.1105 22.3332 24.1318 22.3193 24.1459C22.2704 24.1955 22.2145 24.2593 22.1517 24.3301C22.0121 24.486 21.8445 24.6772 21.649 24.8402C21.649 24.8473 21.635 24.8544 21.6211 24.8544ZM21.8236 24.0751C21.7817 24.2734 21.7468 24.4718 21.7118 24.6418C21.8445 24.5143 21.9632 24.3797 22.0749 24.2522C22.1098 24.2168 22.1377 24.1814 22.1726 24.1459C22.0679 24.1318 21.9283 24.1034 21.8236 24.0751ZM15.2608 24.2026C15.2328 24.2026 15.2189 24.1884 15.2119 24.1672C15.184 24.0963 15.156 23.9901 15.156 23.9901C15.1491 23.9688 15.163 23.9405 15.184 23.9263C15.2328 23.898 15.2608 23.8838 15.3027 23.8626L15.4004 23.8059C15.4213 23.7917 15.4493 23.7988 15.4632 23.813C15.4772 23.8342 15.4842 23.8555 15.4702 23.8767C15.4353 23.9405 15.4074 23.983 15.3795 24.0326C15.3585 24.068 15.3376 24.1105 15.3027 24.1601C15.3027 24.1884 15.2817 24.1955 15.2608 24.2026ZM25.4889 24.0397C25.482 24.0397 25.468 24.0397 25.461 24.0326C25.4401 24.0184 25.4331 23.9901 25.4401 23.9688L25.4889 23.8059C25.5378 23.6359 25.5937 23.4517 25.6635 23.225C25.6705 23.2108 25.6774 23.1967 25.6914 23.1896C25.7054 23.1825 25.7193 23.1825 25.7333 23.1896L26.1243 23.3596C26.1382 23.3667 26.1522 23.3808 26.1592 23.4021C26.1592 23.4233 26.1592 23.4375 26.1382 23.4517C26.0754 23.5154 26.0126 23.5721 25.9428 23.643C25.831 23.7563 25.6984 23.8838 25.5308 24.0255C25.5099 24.0326 25.4959 24.0397 25.4889 24.0397ZM25.7403 23.3171C25.6844 23.5013 25.6356 23.6642 25.5937 23.813C25.6914 23.7209 25.7752 23.6359 25.859 23.5579C25.9078 23.5154 25.9497 23.4658 25.9916 23.4233L25.7403 23.3171ZM16.5803 22.3678C16.5594 22.3678 16.5454 22.3607 16.5314 22.3395C16.5175 22.3182 16.5175 22.2828 16.5384 22.2686C16.6222 22.1978 16.678 22.1553 16.7199 22.1199C16.7618 22.0915 16.7828 22.0703 16.8107 22.0419C16.8316 22.0278 16.8596 22.0207 16.8805 22.0348L16.9084 22.049C16.9364 22.0632 16.9503 22.0703 16.9992 22.0986C17.0202 22.1057 17.0341 22.1269 17.0341 22.1482C17.0341 22.1694 17.0202 22.1907 16.9992 22.1978C16.8875 22.2474 16.8247 22.2686 16.7479 22.304L16.6013 22.3678C16.5943 22.3678 16.5873 22.3678 16.5803 22.3678ZM31.7236 22.0703C31.7026 22.0703 31.6747 22.0561 31.6677 22.0348C31.6608 22.0065 31.6677 21.9782 31.6957 21.964C31.7515 21.9357 31.7864 21.9215 31.8074 21.9073C31.8493 21.8861 31.8632 21.879 31.9191 21.8507C31.933 21.8436 31.947 21.8436 31.9679 21.8507C31.9819 21.8577 31.9959 21.8719 31.9959 21.8861C32.0029 21.9002 32.0029 21.9144 32.0098 21.9215C32.0168 21.9498 32.0308 21.9782 32.0168 22.0065C32.0098 22.0207 31.9889 22.0348 31.9749 22.0348C31.8353 22.0561 31.7306 22.0703 31.7236 22.0703ZM20.0712 20.533C20.0083 20.533 20.0013 20.4834 20.0013 20.4763C20.0013 20.4692 20.0013 20.4622 20.0013 20.4622C20.0083 20.4126 20.2387 19.2649 20.4272 18.9957C20.4831 18.9178 20.5529 18.8895 20.5669 18.8895C20.5669 18.8895 20.5738 18.8895 20.5808 18.8895C20.5808 18.8895 20.6576 18.8824 20.7693 18.8824C20.7763 18.8824 20.7903 18.8824 20.7972 18.8895C20.9788 18.9816 21.1603 19.0028 21.3348 18.9603C21.3488 18.9532 21.4116 18.9178 21.4605 18.8895C21.4745 18.8824 21.4884 18.8753 21.5024 18.8824C21.5164 18.8824 21.5303 18.8965 21.5373 18.9107C21.6141 19.0453 21.8654 19.1657 21.9283 19.1657C21.9422 19.1657 21.9632 19.1728 21.9772 19.187C21.9911 19.2012 21.9911 19.2224 21.9911 19.2366C21.9492 19.3995 21.9143 19.5341 21.8794 19.6758C21.8375 19.86 21.7886 20.0442 21.7118 20.3205C21.7049 20.3417 21.6909 20.3559 21.67 20.363C21.649 20.363 21.6281 20.3559 21.6141 20.3417L21.1463 19.7112C21.0695 19.7821 20.9858 19.8529 20.902 19.9379C20.518 20.2921 20.2527 20.5259 20.12 20.5472C20.0991 20.533 20.0851 20.533 20.0712 20.533ZM20.5948 18.9957C20.5808 19.0028 20.5459 19.0241 20.518 19.0595C20.3644 19.272 20.1759 20.1504 20.12 20.4126C20.2527 20.363 20.5808 20.0584 20.8252 19.8387C20.9299 19.7396 21.0346 19.6475 21.1184 19.5766C21.1324 19.5695 21.1463 19.5625 21.1603 19.5625C21.1743 19.5625 21.1882 19.5695 21.2022 19.5837L21.635 20.1717C21.6909 19.9521 21.7328 19.7962 21.7677 19.6404C21.7956 19.52 21.8236 19.3995 21.8585 19.2578C21.7398 19.2224 21.5652 19.1232 21.4675 19.0028C21.4326 19.0241 21.3837 19.0524 21.3558 19.0595C21.1603 19.1091 20.9508 19.0878 20.7554 18.9886C20.6716 18.9886 20.6157 18.9957 20.5948 18.9957ZM28.0652 18.7265C28.0582 18.7265 28.0442 18.7194 28.0373 18.7194C28.0233 18.7124 28.0093 18.6911 28.0093 18.6699C28.0093 18.4928 28.1141 18.1315 28.1141 18.1173C28.2258 17.8552 28.3514 17.7135 28.5818 17.5931C28.6028 17.586 28.6237 17.586 28.6377 17.6001C28.6516 17.6143 28.6656 17.6285 28.6586 17.6497C28.6377 17.8268 28.5888 18.0748 28.4911 18.2944C28.4562 18.3652 28.2956 18.6061 28.0791 18.7194C28.0791 18.7265 28.0722 18.7265 28.0652 18.7265ZM28.2188 18.1598C28.2188 18.1598 28.149 18.3936 28.128 18.5707C28.2607 18.4644 28.3724 18.3156 28.4003 18.2519C28.4701 18.089 28.519 17.9048 28.5399 17.7489C28.3933 17.8481 28.2956 17.9685 28.2188 18.1598ZM32.4287 16.8067C32.3519 16.8067 32.3101 16.7855 32.2961 16.743C32.2891 16.7217 32.2821 16.6792 32.317 16.6367C32.3659 16.5588 32.5055 16.4879 32.6033 16.4879C32.6591 16.4879 32.694 16.5092 32.708 16.5304C32.729 16.5517 32.7359 16.58 32.7359 16.6084C32.729 16.6792 32.6382 16.75 32.6172 16.7642C32.5614 16.7925 32.4916 16.8067 32.4287 16.8067ZM32.4078 16.6934C32.4148 16.6934 32.4218 16.6934 32.4287 16.6934C32.4706 16.6934 32.5195 16.6792 32.5544 16.665C32.5684 16.6579 32.5963 16.6225 32.6103 16.6084C32.6033 16.6084 32.6033 16.6084 32.5963 16.6084C32.5335 16.6013 32.4427 16.6579 32.4078 16.6934Z" fill="white"/>
<path d="M14.4581 22.4811C14.4721 22.474 14.4791 22.4528 14.4791 22.4386C14.4791 22.4032 14.5349 22.1269 14.5838 21.879C14.5908 21.8577 14.5768 21.8294 14.5559 21.8223C14.5349 21.8081 14.514 21.8081 14.4931 21.8294C14.3115 21.9781 14.1649 22.0702 14.0462 22.0986C14.5908 19.6616 14.9608 18.5494 15.1424 18.0818C15.289 18.1739 15.4007 18.2235 15.5682 18.2235C15.5682 18.2235 15.5682 18.2235 15.5752 18.2235C15.8126 18.181 15.9522 18.0181 15.9522 17.7701C15.9522 17.6072 15.9103 17.4372 15.6381 17.3238C15.4914 17.2601 15.282 17.2105 14.9957 17.2672C14.4232 17.4018 13.9974 17.671 13.6971 18.096C13.3969 18.5352 13.1316 19.187 12.8733 20.0937C12.5871 20.3913 12.3008 20.4834 12.0844 20.5259C11.9238 20.5542 11.7911 20.5259 11.7283 20.448C11.6934 20.3984 11.6794 20.3346 11.7004 20.2567C11.9308 19.3853 12.238 18.4431 12.245 18.436C12.2519 18.4219 12.2519 18.4006 12.238 18.3865C12.224 18.3723 12.21 18.3652 12.1961 18.3652C12.1402 18.3652 11.4421 18.436 11.1907 18.4856C10.5205 18.6132 9.96892 18.939 9.50813 19.4774C9.0613 20.0017 8.83789 20.533 8.83789 21.0572C8.83789 21.2556 8.85884 21.4893 8.98451 21.6877C9.08225 21.8365 9.20792 21.9852 9.42435 21.9852C9.47322 21.9852 9.5221 21.9781 9.57097 21.964C9.73853 21.9144 9.941 21.801 9.941 21.5106C9.941 21.3831 9.87816 21.2556 9.75947 21.128C9.66173 21.0289 9.60588 20.873 9.60588 20.7667C9.60588 20.4409 9.76645 20.1079 10.0806 19.775C10.3459 19.4987 10.6392 19.3074 10.9464 19.1941C10.8277 19.5837 10.5903 20.3913 10.5973 20.5896C10.6043 20.7951 10.7299 21.0855 11.079 21.2343C11.2047 21.291 11.3513 21.3122 11.5258 21.3122C11.6515 21.3122 11.7981 21.2981 11.9936 21.2697C12.238 21.2201 12.4823 21.121 12.7267 20.9793L12.5871 21.6523C12.3846 22.4599 11.7213 22.5803 11.6934 22.5803C11.6655 22.5874 11.6445 22.6086 11.6445 22.637C11.6445 22.722 11.5677 23.0691 11.5398 23.1895C11.5328 23.2108 11.5398 23.232 11.5607 23.2462C11.5677 23.2533 11.5817 23.2604 11.5957 23.2604C11.6026 23.2604 11.6096 23.2604 11.6166 23.2533C11.6515 23.2391 11.6864 23.2179 11.7283 23.1895C11.9796 23.0479 12.3916 22.7999 13.1386 22.7999C14.0462 22.7787 14.4442 22.4953 14.4581 22.4811ZM14.2347 18.8186C14.0043 19.6333 13.8019 20.6392 13.6203 21.5602C13.5785 21.7656 13.5366 21.9711 13.5017 22.1623H13.3969C13.4039 22.134 13.4109 22.0915 13.4249 22.0419C13.7739 20.3629 14.0392 19.3782 14.2347 18.8186Z" fill="white"/>
<path d="M17.9142 26.3562L17.7606 26.3916C17.7815 25.0739 17.8723 23.31 18.2144 22.2119C18.2284 22.1694 18.2353 22.1482 18.2353 22.134C18.2353 22.1128 18.2214 22.0915 18.2004 22.0844C18.1795 22.0773 18.1585 22.0844 18.1376 22.0986C18.1097 22.1269 17.9002 22.2048 17.7187 22.2544C17.7047 22.2615 17.6908 22.2686 17.6838 22.2828C17.2649 23.2037 17.1602 26.1295 17.1462 26.5333L17.0345 26.5616C16.9786 23.7492 17.5023 22.3324 17.5092 22.3253C17.5162 22.304 17.5092 22.2757 17.4953 22.2615C17.4813 22.2474 17.4534 22.2403 17.4325 22.2544C17.4115 22.2686 17.237 22.3324 17.0415 22.4103C15.7568 22.9062 14.542 23.3879 14.3884 23.5863C14.0952 23.8555 14.0533 24.1388 14.0673 24.3301C14.0812 24.5639 14.1929 24.7481 14.2907 24.8118C14.5071 24.9606 14.7515 24.9464 14.9051 24.7764C14.9958 24.6772 15.0447 24.5426 15.0377 24.4151C15.0307 24.2593 14.9539 24.1105 14.926 24.0609C14.933 23.9688 14.9819 23.8696 15.0726 23.7705C15.2053 23.6288 15.7568 23.395 16.1548 23.2604C16.0082 23.4658 15.7848 23.813 15.5055 24.2309C14.6956 25.4636 13.0061 28.021 12.7058 28.028C12.6989 28.021 12.5173 27.8934 12.3079 27.8934C12.1752 27.8934 12.0635 27.943 11.9658 28.0493C11.8122 28.2902 11.8471 28.4673 11.903 28.5735C12.0147 28.7861 12.2939 28.8782 12.4545 28.8782H12.4615C12.8315 28.8711 13.1247 28.7152 13.4389 28.3398C13.7042 28.028 14.9819 26.1578 15.694 25.0173C15.7778 24.8898 15.8616 24.7693 15.9523 24.6347C16.064 24.4789 16.1757 24.3159 16.2805 24.1459C16.2735 24.238 16.2595 24.3301 16.2525 24.4222C16.2107 24.8402 16.1688 25.3573 16.092 25.9453C16.0431 26.9867 15.7289 27.3338 15.7289 27.3338C15.715 27.348 15.708 27.3763 15.715 27.3976C15.7219 27.4188 15.7429 27.433 15.7638 27.433C16.2525 27.433 16.6365 27.3267 16.8949 27.1354C17.3207 26.9158 17.8583 26.9087 17.8653 26.9087C17.8932 26.9087 17.9212 26.8875 17.9212 26.8521C17.9212 26.6325 17.97 26.4129 17.97 26.4058C17.977 26.3845 17.97 26.3633 17.9561 26.3491C17.9491 26.3562 17.9351 26.3491 17.9142 26.3562Z" fill="white"/>
<path d="M35.3402 22.0064C35.2634 21.971 35.0609 21.9214 34.8724 21.9285C34.8236 21.9285 34.7747 21.9356 34.7328 21.9427C34.2511 22.056 33.8601 22.2827 33.3434 22.7644L32.8757 23.2107C32.9455 22.899 33.0851 22.2544 33.2108 21.6735C33.3155 21.1776 33.4063 20.7455 33.4342 20.6534C33.4412 20.6321 33.4342 20.6179 33.4202 20.6038C33.4063 20.5896 33.3853 20.5825 33.3714 20.5896C33.0991 20.6463 31.3257 21.0997 30.9208 21.3476C30.6695 21.5035 30.1738 21.8577 30.2366 22.3181C30.3134 22.6865 30.5089 22.8211 30.6625 22.8707C30.7253 22.892 30.8091 22.9132 30.9138 22.9203C30.8719 22.9557 30.83 22.9911 30.8161 23.0053C30.6695 23.1541 30.5996 23.2958 30.5228 23.4729L30.474 23.572C30.4042 23.7208 30.2436 23.8271 30.1598 23.8696C30.1319 23.7775 30.069 23.6004 30.0341 23.487C30.0062 23.4091 29.9643 23.2816 29.8317 23.2816C29.7828 23.2816 29.7269 23.2958 29.6641 23.3312C29.5035 23.4162 29.1475 23.7917 28.952 23.9971C29.0567 23.5225 29.3569 22.2402 29.5664 21.3405C29.5733 21.3193 29.5664 21.298 29.5524 21.2839C29.5384 21.2697 29.5175 21.2626 29.5035 21.2697C29.2801 21.3264 28.5889 21.6097 28.561 21.6168C28.547 21.6239 28.5331 21.6381 28.5261 21.6522L28.1421 23.1966C28.0932 23.4445 27.9675 23.6783 27.7162 23.9688C27.5486 24.16 27.395 24.2663 27.2484 24.2875C27.3392 23.8696 27.6953 22.1765 27.6953 22.0631C27.6953 21.8506 27.3811 21.6664 27.1926 21.6664C27.025 21.6664 26.8854 21.7089 26.662 21.9143C26.4874 22.0702 25.6776 22.7644 25.6706 22.7715C25.6566 22.7786 25.6496 22.7999 25.6496 22.814C25.6496 22.8282 25.6566 22.8495 25.6706 22.8565C25.8381 22.9699 26.1104 23.1399 26.1174 23.1399C26.1383 23.1541 26.1663 23.147 26.1872 23.1328C26.2291 23.0903 26.4665 22.8636 26.6131 22.729C26.5922 22.8636 26.5572 23.0478 26.4804 23.3524C26.1453 23.7491 25.4053 24.4434 25.0701 24.7268C25.1609 24.2946 25.4751 22.9911 25.6915 22.0844C25.6985 22.0631 25.6915 22.0419 25.6776 22.0348C25.6636 22.0206 25.6426 22.0135 25.6217 22.0206C25.3983 22.0773 24.735 22.2544 24.735 22.2544C24.7141 22.2615 24.6931 22.2827 24.6931 22.304C24.6862 22.3677 24.4697 23.1328 24.3231 23.6287C23.9112 23.6996 23.7227 23.7208 23.6389 23.7279C23.6738 23.5933 23.6948 23.487 23.7157 23.402C23.7925 23.0903 23.8065 23.0336 23.8065 22.8282C23.8065 22.7007 23.7576 22.389 23.3038 22.4315C22.9617 22.4598 21.9005 23.4799 21.7818 23.5933C21.7678 23.6075 21.7608 23.6287 21.7678 23.6429C21.7678 23.6641 21.7818 23.6783 21.8027 23.6854C22.0541 23.7917 22.2984 23.8554 22.3124 23.8554C22.3333 23.8625 22.3543 23.8554 22.3682 23.8412C22.5148 23.6925 22.6126 23.5862 22.6824 23.5154L22.5567 24.2309C22.2845 24.5567 21.4606 25.2722 21.1534 25.5414C21.2512 25.0951 21.5933 23.7704 21.8306 22.8495C21.8376 22.8282 21.8306 22.807 21.8167 22.7999C21.8027 22.7857 21.7818 22.7786 21.7608 22.7857C21.5374 22.8424 20.8811 23.0195 20.8811 23.0195C20.8602 23.0266 20.8392 23.0478 20.8392 23.0691C20.8323 23.1328 20.5739 24.0892 20.4064 24.7055C20.2318 25.251 19.6524 25.6973 19.4359 25.8248C19.4708 25.669 19.5337 25.3714 19.6035 25.0739C19.771 24.3159 19.8967 23.735 19.9037 23.6429C19.9107 23.5295 19.9177 23.2603 19.7571 23.1895C19.6384 23.1328 19.5686 23.1399 19.3871 23.2107C19.2823 23.2533 18.1653 24.16 17.9418 24.3442C17.9279 24.3513 17.9209 24.3726 17.9209 24.3938C17.9209 24.408 17.9279 24.4292 17.9418 24.4363C18.1094 24.5497 18.3817 24.663 18.3957 24.6701C18.4166 24.6772 18.4375 24.6701 18.4585 24.6559C18.4725 24.6347 18.5353 24.5851 18.6051 24.5213C18.6819 24.4505 18.7796 24.3655 18.8634 24.2875C18.7308 24.8401 18.4306 26.2711 18.4306 26.3845C18.4306 26.5616 18.4864 26.6891 18.6121 26.8237C18.6679 26.8804 18.7517 26.9087 18.8634 26.9087C18.9053 26.9087 18.9472 26.9016 18.9961 26.8945C19.2614 26.8449 19.8828 26.3915 20.1411 26.1649C20.155 26.264 20.1969 26.4057 20.3366 26.4836C20.5111 26.5828 20.6019 26.5757 20.7136 26.5403C21.0347 26.4411 21.6631 25.8815 22.3263 25.251C22.2286 25.5698 22.1378 26.0444 22.1309 26.0657C22.1309 26.0869 22.1309 26.1011 22.1448 26.1153C22.1588 26.1294 22.1797 26.1294 22.2007 26.1294C22.4171 26.0728 23.1292 25.8957 23.1432 25.8957C23.1641 25.8886 23.1851 25.8673 23.1851 25.8461C23.1921 25.7894 23.3736 24.9676 23.4993 24.408L24.2114 24.3088C24.1625 24.5567 24.1137 24.7622 24.0787 24.918C24.0369 25.1022 24.0089 25.2085 24.0089 25.2722C24.0089 25.4706 24.1974 25.8319 24.5744 25.7823C24.763 25.754 25.2168 25.3573 25.9498 24.7055C26.0546 24.6134 26.1523 24.5213 26.257 24.4292C26.2431 24.5001 26.2291 24.578 26.2082 24.6488C26.1802 24.7693 26.1663 24.833 26.1663 24.8614C26.1663 25.0101 26.1872 25.2014 26.3618 25.3077C26.5084 25.3998 26.6201 25.3998 26.7318 25.3714C26.8644 25.336 27.6673 24.7622 27.9536 24.5567C27.9885 24.7268 28.1072 25.0597 28.4423 25.0243C28.7146 24.996 29.0497 24.748 29.6362 24.1459V24.1529C29.7269 24.3442 29.7967 24.4788 29.8945 24.5497C30.0341 24.6488 30.2017 24.6913 30.3762 24.6701C30.6346 24.6347 31.1163 24.3726 31.4095 23.7775C31.612 23.3666 31.7446 23.1187 31.8424 22.9841C31.9052 22.899 31.9541 22.8565 32.003 22.8424C31.9052 23.232 31.8633 23.5862 31.8633 23.6925C31.8633 23.9121 31.9052 24.0609 31.996 24.1317C32.1705 24.2734 32.3032 24.3088 32.4917 24.2521C32.7849 24.1671 33.3016 23.7137 33.7623 23.3099C34.0556 23.0549 34.3977 22.7999 34.4605 22.7574C34.6002 22.6865 34.7607 22.7361 34.8515 22.8424C34.9632 22.9841 35.0959 22.9982 35.1866 22.9982C35.2355 22.9982 35.2844 22.9911 35.3262 22.977C35.417 22.9557 35.6334 22.8565 35.6684 22.5236C35.6893 22.2615 35.5217 22.0844 35.3402 22.0064ZM32.359 21.5105L32.1217 22.2473C32.1007 22.2473 32.0728 22.2544 32.0449 22.2615C31.9471 22.2756 31.8145 22.2969 31.6818 22.2969C31.3606 22.2969 31.3397 22.1694 31.3327 22.1198C31.3118 21.9923 31.4095 21.8931 31.5841 21.7727C31.7167 21.6877 32.1635 21.5531 32.359 21.5105Z" fill="white"/>
<path d="M36.2334 17.2247C36.1915 16.8705 35.9681 16.6721 35.619 16.6721C35.4305 16.6721 35.2071 16.7359 35.0396 16.8421C34.6626 17.0759 33.8876 17.6356 33.5874 17.8481C33.713 17.2885 34.111 15.4324 34.118 15.4111C34.125 15.3899 34.118 15.3686 34.104 15.3545C34.0901 15.3403 34.0691 15.3403 34.0551 15.3403C34.0202 15.3545 33.9295 15.3686 33.8038 15.397C33.1755 15.5387 31.8769 15.8362 31.5557 16.0416C31.1577 16.2896 30.9274 16.6438 30.9274 17.0051C30.9274 17.1822 31.0391 17.4443 31.3463 17.5647C31.4021 17.5931 31.458 17.6072 31.5138 17.6214C31.3183 17.7843 31.1996 18.0535 31.1019 18.2944C30.9413 18.677 30.9134 18.6699 30.8226 18.6628C30.7249 18.6557 30.683 18.5494 30.6271 18.4078C30.5992 18.3227 30.5713 18.2448 30.5154 18.2094C30.4875 18.1881 30.4456 18.174 30.4037 18.174C30.1733 18.174 29.7963 18.5919 29.552 18.762C29.6567 18.2944 30.0127 16.8421 30.2501 15.8858C30.2571 15.8645 30.2501 15.8433 30.2362 15.8362C30.2222 15.822 30.2013 15.8149 30.1803 15.822C29.901 15.8858 29.5938 15.9708 29.5869 15.9708C29.5729 15.9779 29.5589 15.985 29.552 16.0062C29.538 16.0416 29.5031 16.1266 29.4891 16.1762C29.3216 16.2117 28.7491 16.3958 28.3302 16.5588C27.241 16.9838 26.9199 18.2094 26.8151 18.6132C26.8012 18.6557 26.7872 18.7124 26.7942 18.7124L26.466 19.1091C26.3543 19.2295 26.2217 19.3712 26.089 19.4775C26.1309 19.2862 26.2287 18.9391 26.3125 18.6203C26.4661 18.0465 26.5568 17.6993 26.5568 17.6214C26.6057 17.3026 26.5778 17.083 26.473 16.9484C26.3962 16.8563 26.2775 16.8067 26.103 16.8138C26.0681 16.8138 26.0332 16.8138 25.9983 16.8209C25.7539 16.8421 25.2024 17.2459 24.9929 17.4089C24.944 17.253 24.7974 17.0618 24.5042 17.1184C24.211 17.168 23.8619 17.3947 23.45 17.8056C23.4569 17.7135 23.45 17.6143 23.4081 17.5364C23.3732 17.4726 23.3243 17.4301 23.2475 17.4089C23.2196 17.4018 23.1777 17.3805 23.1009 17.3805C22.9194 17.3805 22.682 17.4939 22.3748 17.7064C22.2072 17.8269 21.9629 18.0394 21.7464 18.259C21.7464 18.1315 21.7045 17.9615 21.4392 17.8198C21.3555 17.7773 21.2228 17.756 21.0762 17.756C20.8248 17.756 20.3152 17.8339 19.7776 18.3511C19.1492 19.0028 18.9188 19.6758 18.8351 20.023C18.7443 20.1646 18.2416 20.7526 17.9973 21.0431C18.109 20.5613 18.3952 19.3287 18.5977 18.4644C18.6047 18.4432 18.5977 18.4219 18.5837 18.4148C18.5698 18.4007 18.5488 18.3936 18.5279 18.4007C18.3114 18.4573 17.6202 18.684 17.5853 18.6911C17.5644 18.6982 17.5504 18.7124 17.5504 18.7336L17.1664 20.278C17.0408 20.9439 16.5381 21.2839 16.3077 21.4327C16.4054 20.9226 16.7126 19.2579 16.7126 19.1516C16.7126 19.017 16.587 18.7265 16.2099 18.7549C16.0982 18.769 15.9377 18.8541 15.6863 19.0524C15.5188 19.1658 14.7228 19.8813 14.6879 19.9167C14.674 19.9309 14.667 19.9521 14.667 19.9663C14.674 19.9875 14.6879 20.0017 14.7019 20.0088C14.8625 20.0655 15.1417 20.1717 15.1417 20.1788C15.1627 20.1859 15.1836 20.1788 15.2046 20.1646C15.2255 20.1363 15.3442 20.0513 15.442 19.9734C15.5048 19.9238 15.5537 19.8813 15.5956 19.8529C15.5816 19.9875 15.5397 20.1646 15.4769 20.4551L15.442 20.6251C15.3512 21.0006 15.1697 21.8153 15.1697 21.9499C15.1697 22.1411 15.2395 22.2757 15.3721 22.3395C15.4629 22.3678 15.5606 22.3891 15.6584 22.3891C15.8958 22.3891 16.1401 22.297 16.4194 22.0986C16.5311 22.0136 16.6288 21.9215 16.7266 21.8365C16.8034 21.7727 16.8732 21.7019 16.957 21.6381C16.9779 21.7515 17.0198 21.9215 17.0617 21.9711C17.1245 22.049 17.2153 22.0844 17.32 22.0844C17.7948 22.0844 18.5628 21.2627 18.7862 21.0077C18.8909 21.2769 19.1562 21.539 19.638 21.5744C20.385 21.6311 21.4043 20.5684 21.4462 20.5259C21.4672 20.5047 21.4672 20.4693 21.4462 20.448L21.1111 20.0513C21.0971 20.0371 21.0901 20.03 21.0692 20.03C21.0552 20.03 21.0413 20.0371 21.0273 20.0442L20.9296 20.1434C20.5944 20.4905 20.3571 20.7455 20.0708 20.7739C19.9661 20.781 19.9102 20.781 19.8614 20.7455C19.7846 20.6889 19.7427 20.5472 19.7427 20.3772C19.7427 20.115 20.1406 19.0099 20.2244 18.8682C20.3012 18.7478 20.4059 18.6699 20.5107 18.6628C20.5595 18.6628 20.6643 18.6628 20.8248 18.7124L20.8528 18.7195C20.9505 18.7549 21.0483 18.7903 21.153 18.7903C21.2298 18.7903 21.2926 18.7761 21.3485 18.7336C21.3904 18.7053 21.4532 18.6557 21.4951 18.6274C21.6138 18.7832 21.7953 18.9249 21.8093 18.932C21.8302 18.9462 21.8512 18.9462 21.8651 18.9391C21.9419 18.8966 22.1304 18.7195 22.305 18.5424C22.2142 18.9887 21.9349 20.2001 21.7394 21.0431C21.7325 21.0643 21.7394 21.0785 21.7534 21.0927C21.7674 21.1068 21.7813 21.1139 21.8023 21.1068C22.0606 21.0643 22.7378 20.9297 22.7448 20.9297C22.7727 20.9226 22.7867 20.9014 22.7867 20.8731C22.7867 20.7385 23.1637 18.9462 23.2684 18.7832C23.3801 18.5424 23.7292 18.3015 23.9108 18.1881L23.3941 20.6889C23.3941 20.703 23.3941 20.7243 23.4081 20.7385C23.422 20.7526 23.436 20.7597 23.4569 20.7597C23.6524 20.7385 24.3157 20.6464 24.3436 20.6393C24.3715 20.6322 24.3855 20.6109 24.3925 20.5897C24.4134 20.4126 24.8742 18.514 24.972 18.4007C24.9789 18.3936 24.9789 18.3865 24.9859 18.3794C25.0557 18.1527 25.342 17.9189 25.5096 17.7985C25.3979 18.3015 25.0488 19.8529 25.0488 19.9521C25.0488 20.1221 25.1605 20.4763 25.4886 20.4763C25.5305 20.4763 25.5724 20.4693 25.6143 20.4622C26.0192 20.363 26.494 19.9167 26.7732 19.6121C26.8151 19.7467 26.9059 19.86 27.0036 19.9309C27.0595 19.9734 27.1712 19.9804 27.255 19.9804C27.5831 19.9804 28.0928 19.8458 28.4838 19.4846C28.5326 19.6829 28.6723 19.7963 28.8887 19.7963C29.0283 19.7963 29.1749 19.7467 29.2657 19.7042C29.5589 19.5625 29.9569 19.2295 30.2082 18.9603C30.3339 19.2862 30.6551 19.4704 31.0181 19.4137C31.4231 19.35 31.7512 19.0737 31.9955 18.5849C32.0305 18.514 32.0654 18.4361 32.1003 18.3582C32.2259 18.0677 32.3586 17.7702 32.6239 17.671C32.4913 17.9969 32.4075 18.2377 32.4424 18.5636C32.4773 18.8753 32.6588 19.0382 32.966 19.0382C33.1615 19.0382 33.343 18.9674 33.4059 18.932C33.7968 18.7053 34.2786 18.2661 34.6346 17.9402C34.8231 17.7631 34.9837 17.6143 35.0675 17.5647C35.1862 17.4868 35.263 17.5364 35.3677 17.6143C35.3956 17.6356 35.4236 17.6568 35.4585 17.6781C35.5353 17.7277 35.626 17.7489 35.7168 17.7489C35.8704 17.7489 36.01 17.6852 36.1008 17.5789C36.2125 17.4726 36.2474 17.3522 36.2334 17.2247ZM33.0079 16.2046L32.8124 16.9555C32.7007 16.998 32.4633 17.0759 32.2818 17.0759C32.212 17.0759 32.1561 17.0618 32.1212 17.0405C32.0863 17.0193 32.0514 16.9555 32.0444 16.8492C32.0374 16.7855 32.0444 16.6296 32.1771 16.5163C32.3656 16.3533 32.8054 16.2258 33.0079 16.2046ZM27.7786 19.0666C27.7577 18.9249 27.7158 18.5353 27.9392 18.0677C28.1975 17.5293 28.791 17.1893 28.9864 17.0972C28.9795 17.3664 28.9096 18.259 28.3511 18.8045C28.1975 18.9603 27.8973 19.0382 27.7786 19.0666Z" fill="white"/>
<path d="M18.9961 12.6696C18.8635 12.6129 18.7168 12.6059 18.5842 12.6413C18.4934 12.6625 18.3468 12.7263 18.1374 12.8396C17.9628 12.9317 17.7813 13.0309 17.6068 13.1301C17.5719 13.1513 17.5439 13.1868 17.53 13.2293C17.523 13.2718 17.53 13.3143 17.5509 13.3497C17.8581 13.8314 18.1583 14.3202 18.4376 14.802C18.4655 14.8515 18.5144 14.8799 18.5702 14.8799C18.5982 14.8799 18.6191 14.8728 18.647 14.8586C18.7518 14.802 18.8495 14.7453 18.9542 14.6886C18.9891 14.6674 19.0171 14.6319 19.031 14.5965C19.045 14.554 19.038 14.5115 19.0171 14.4761C18.9403 14.3344 18.8565 14.1998 18.7797 14.0581C18.8006 14.0439 18.8216 14.0369 18.8425 14.0227C19.0101 13.9377 19.1148 13.8739 19.1916 13.8102C19.2544 13.7535 19.3103 13.6897 19.3592 13.6047C19.408 13.5197 19.429 13.4276 19.436 13.3143C19.436 13.208 19.408 13.0947 19.3452 12.9742C19.2544 12.8255 19.1357 12.7263 18.9961 12.6696ZM18.3957 13.3851C18.5074 13.3214 18.5842 13.293 18.6121 13.2789C18.64 13.2718 18.661 13.2647 18.6959 13.2789C18.7029 13.2789 18.7168 13.2859 18.7308 13.3143C18.7378 13.3284 18.7378 13.3355 18.7448 13.3497C18.7448 13.3639 18.7378 13.378 18.7238 13.3922C18.7238 13.3993 18.6889 13.4276 18.5214 13.5197L18.4934 13.5339C18.4865 13.541 18.4795 13.541 18.4725 13.5481C18.4446 13.4985 18.4166 13.4489 18.3817 13.3993C18.3887 13.3851 18.3887 13.3851 18.3957 13.3851Z" fill="#A2600B"/>
<path d="M17.2506 13.5267C17.1948 13.4701 17.104 13.463 17.0412 13.5126C16.6712 13.8172 16.3081 14.136 15.959 14.4618C15.9241 14.4902 15.9102 14.5327 15.9102 14.5752C15.9102 14.6177 15.9241 14.6602 15.959 14.6885C16.364 15.0853 16.7549 15.4961 17.132 15.907C17.1599 15.9424 17.2018 15.9566 17.2437 15.9566C17.2786 15.9566 17.3135 15.9424 17.3484 15.9141C17.4322 15.8362 17.5159 15.7653 17.6067 15.6874C17.6346 15.6591 17.6556 15.6236 17.6556 15.5811C17.6556 15.5386 17.6486 15.4961 17.6207 15.4678C17.3414 15.149 17.0552 14.8444 16.7619 14.5398C16.8597 14.4548 16.9574 14.3697 17.0552 14.2847C17.3414 14.5964 17.6277 14.9152 17.8999 15.234C17.9558 15.2978 18.0466 15.3049 18.1164 15.2553C18.2071 15.1844 18.2909 15.1065 18.3817 15.0357C18.4166 15.0073 18.4375 14.9719 18.4375 14.9294C18.4445 14.8869 18.4305 14.8444 18.4026 14.8161C18.0256 14.3768 17.6416 13.9447 17.2506 13.5267Z" fill="#A2600B"/>
<path d="M28.847 13.7534C28.456 13.4701 28.0441 13.1938 27.6321 12.9246C27.5623 12.8821 27.4786 12.8963 27.4297 12.96C27.3738 13.0379 27.311 13.1159 27.2551 13.1938C27.2272 13.2292 27.2202 13.2717 27.2272 13.3142C27.2342 13.3567 27.2621 13.3922 27.297 13.4205C27.4018 13.4842 27.5065 13.5551 27.6112 13.6259C27.3599 13.966 27.1085 14.3131 26.8781 14.6531C26.8572 14.6886 26.8432 14.7311 26.8572 14.7736C26.8642 14.8161 26.8921 14.8515 26.927 14.8727C27.0247 14.9365 27.1225 15.0003 27.2202 15.064C27.2482 15.0853 27.2761 15.0924 27.304 15.0924C27.3529 15.0924 27.4018 15.0711 27.4297 15.0286C27.6671 14.6886 27.9254 14.3414 28.1837 14.0085C28.2884 14.0864 28.3931 14.1572 28.4979 14.2352C28.5677 14.2848 28.6585 14.2706 28.7073 14.2068C28.7702 14.1289 28.826 14.0581 28.8888 13.9801C28.9168 13.9447 28.9307 13.9022 28.9238 13.8597C28.9028 13.8172 28.8749 13.7818 28.847 13.7534Z" fill="#A2600B"/>
<path d="M23.4224 13.0804C23.4154 12.6624 23.4154 12.2444 23.4084 11.8194C23.4084 11.7344 23.3386 11.6635 23.2548 11.6635C22.808 11.6635 22.3612 11.6706 21.9213 11.6919C21.8794 11.6919 21.8445 11.7131 21.8166 11.7415C21.7887 11.7698 21.7747 11.8123 21.7747 11.8548L21.7817 12.0319C21.7956 12.3153 21.7956 12.5562 21.7817 12.7403C21.7747 12.8749 21.7468 13.0025 21.7049 13.1158C21.6839 13.1158 21.663 13.1158 21.649 13.1158C21.6281 13.1158 21.6071 13.1229 21.5932 13.13C21.6071 12.9954 21.5932 12.8537 21.5583 12.7049C21.4745 12.3932 21.3139 12.1665 21.0696 12.0319C20.8322 11.9044 20.5459 11.8761 20.2387 11.954C20.0712 12.0036 19.9246 12.0673 19.8128 12.1524C19.7221 12.2232 19.6383 12.3082 19.5825 12.4145C19.5266 12.5207 19.4847 12.627 19.4707 12.7403C19.4498 12.8962 19.4707 13.0591 19.5336 13.2504C19.6313 13.5409 19.7989 13.7534 20.0363 13.8738C20.2667 13.9942 20.532 14.0155 20.8182 13.9376C21.1114 13.8667 21.3279 13.7109 21.4675 13.4913C21.4885 13.4629 21.5024 13.4346 21.5164 13.4063L21.5513 13.9234C21.5583 14.0084 21.6281 14.0722 21.7049 14.0722C21.7119 14.0722 21.7119 14.0722 21.7119 14.0722C21.8096 14.0651 21.9074 14.058 22.0051 14.058C22.047 14.058 22.0819 14.0367 22.1098 14.0084C22.1377 13.973 22.1517 13.9376 22.1517 13.8951L22.1377 13.6825C22.41 13.6755 22.6823 13.6684 22.9546 13.6613V13.8738C22.9546 13.9588 23.0244 14.0297 23.1082 14.0297C23.2059 14.0297 23.3037 14.0297 23.4084 14.0297C23.4503 14.0297 23.4852 14.0155 23.5201 13.9872C23.548 13.9588 23.562 13.9163 23.562 13.8738V13.2221C23.576 13.1512 23.5062 13.0804 23.4224 13.0804ZM20.1968 13.052C20.148 12.9104 20.148 12.797 20.1899 12.7191C20.2317 12.6412 20.3016 12.5916 20.4133 12.5632C20.4552 12.5491 20.4901 12.5491 20.532 12.5491C20.5948 12.5491 20.6506 12.5632 20.7065 12.5916C20.7903 12.6412 20.8531 12.7403 20.888 12.882C20.9299 13.0308 20.9299 13.1441 20.881 13.2291C20.8392 13.3071 20.7693 13.3637 20.6646 13.385C20.6297 13.3921 20.5948 13.3992 20.5599 13.3992C20.4971 13.3992 20.4412 13.385 20.3923 13.3496C20.3085 13.2929 20.2387 13.1937 20.1968 13.052ZM22.7382 13.0875C22.6334 13.0875 22.5217 13.0946 22.41 13.0946C22.4589 12.882 22.4729 12.6057 22.4729 12.2799C22.5567 12.2799 22.6404 12.2728 22.7312 12.2728C22.7312 12.542 22.7382 12.8183 22.7382 13.0875Z" fill="#A2600B"/>
<path d="M25.6002 12.131C25.5862 12.0815 25.5373 12.039 25.4885 12.0248C25.3558 11.9964 25.2232 11.9681 25.0975 11.9398C25.0416 11.9256 24.9788 11.9539 24.9439 11.9964C24.8182 12.1665 24.6926 12.3365 24.5669 12.5136C24.518 12.3152 24.4622 12.1098 24.3993 11.8902C24.3854 11.8335 24.3365 11.791 24.2736 11.7768C24.134 11.7485 23.9874 11.7272 23.8478 11.706C23.7989 11.6989 23.743 11.7202 23.7081 11.7627C23.6732 11.8052 23.6662 11.8618 23.6802 11.9185C23.8268 12.3365 23.9665 12.7474 24.0991 13.1583C24.0712 13.2008 24.0572 13.2078 24.0572 13.2078C24.0572 13.2078 24.0502 13.2149 24.0293 13.2149C24.0083 13.2149 23.9874 13.2149 23.9734 13.2078L23.9315 13.1937C23.9036 13.1866 23.8687 13.1795 23.8338 13.1724C23.7919 13.1653 23.75 13.1724 23.7151 13.1937C23.6802 13.2149 23.6523 13.2574 23.6453 13.2929C23.6313 13.3779 23.6104 13.4629 23.5964 13.5479C23.5825 13.6187 23.6244 13.6967 23.6942 13.725C23.764 13.7533 23.8547 13.7746 23.9665 13.7958C24.0014 13.8029 24.0363 13.81 24.0712 13.81C24.1759 13.81 24.2736 13.7746 24.3644 13.7179C24.4622 13.6471 24.5529 13.5479 24.6646 13.4133C24.9579 13.0378 25.2581 12.6624 25.5722 12.294C25.6072 12.2444 25.6141 12.1877 25.6002 12.131Z" fill="#A2600B"/>
<path d="M26.934 13.1867L26.9829 13.2079C27.0597 13.2433 27.1504 13.215 27.1853 13.1371L27.2971 12.9104C27.318 12.8749 27.318 12.8254 27.304 12.7829C27.2901 12.7403 27.2552 12.712 27.2133 12.6908L27.1644 12.6695C26.9968 12.5987 26.8712 12.5632 26.7595 12.5632C26.7385 12.5632 26.7246 12.5632 26.7106 12.5632C26.5779 12.5774 26.4313 12.6624 26.2568 12.8183C26.2498 12.8254 26.2428 12.8324 26.2358 12.8395C26.2847 12.7333 26.3336 12.627 26.3825 12.5207C26.4034 12.4853 26.4034 12.4357 26.3825 12.3932C26.3685 12.3507 26.3336 12.3224 26.2987 12.3011C26.18 12.2515 26.0613 12.209 25.9426 12.1594C25.8658 12.1311 25.782 12.1665 25.7471 12.2445C25.5167 12.7616 25.2933 13.2858 25.0769 13.8171C25.0629 13.8526 25.0629 13.9022 25.0769 13.9376C25.0978 13.973 25.1258 14.0084 25.1607 14.0226C25.2724 14.0651 25.3841 14.1076 25.4958 14.1501C25.5726 14.1784 25.6633 14.143 25.6913 14.0651C25.7471 13.9376 25.803 13.803 25.8588 13.6755V13.6825C25.8588 13.6896 25.8588 13.6967 25.8588 13.7038V13.718V13.725C25.8658 13.888 25.8728 14.0509 25.8798 14.2068C25.8798 14.2705 25.9217 14.3201 25.9775 14.3485C26.1032 14.4051 26.2358 14.4547 26.3615 14.5114C26.3825 14.5185 26.4034 14.5256 26.4243 14.5256C26.4523 14.5256 26.4872 14.5185 26.5151 14.4972C26.557 14.4689 26.5849 14.4122 26.5779 14.3626C26.571 14.1926 26.557 14.0155 26.55 13.8384C26.543 13.6896 26.5291 13.5763 26.5011 13.4842C26.4942 13.4558 26.4872 13.4346 26.4732 13.4133C26.4732 13.4133 26.4732 13.4133 26.4802 13.4133C26.5291 13.3779 26.5849 13.3354 26.6338 13.2858C26.7176 13.2008 26.7734 13.1583 26.7944 13.1441C26.8083 13.1371 26.8153 13.13 26.8293 13.13C26.8432 13.1583 26.8712 13.1583 26.934 13.1867Z" fill="#A2600B"/>
<path d="M16.0566 14.5751C16.4057 14.2563 16.7618 13.9375 17.1388 13.6329C17.5368 14.0509 17.9138 14.483 18.2768 14.9152C18.1861 14.986 18.0953 15.0639 18.0045 15.1348C17.6973 14.7735 17.3832 14.4193 17.055 14.0792C16.8735 14.228 16.699 14.3838 16.5244 14.5397C16.8595 14.8797 17.1807 15.2269 17.4949 15.5811C17.4111 15.659 17.3203 15.7298 17.2365 15.8078C16.8595 15.3827 16.4686 14.9789 16.0566 14.5751ZM18.577 14.7168C18.2908 14.228 17.9975 13.7392 17.6904 13.2575C17.8649 13.1583 18.0394 13.0662 18.214 12.967C18.4165 12.8607 18.5561 12.797 18.6259 12.7828C18.7376 12.7545 18.8423 12.7616 18.9471 12.8041C19.0518 12.8466 19.1425 12.9245 19.2124 13.0449C19.2612 13.137 19.2892 13.222 19.2822 13.3C19.2822 13.3779 19.2612 13.4558 19.2263 13.5196C19.1914 13.5833 19.1495 13.6329 19.0937 13.6754C19.0239 13.725 18.9191 13.7959 18.7725 13.8667C18.7027 13.9021 18.6329 13.9446 18.5631 13.98C18.6748 14.1642 18.7795 14.3484 18.8842 14.5397C18.7795 14.6034 18.6818 14.6601 18.577 14.7168ZM18.1651 13.3283C18.2489 13.47 18.3327 13.6046 18.4164 13.7463C18.4723 13.7108 18.5351 13.6825 18.591 13.6542C18.7167 13.5833 18.8004 13.5337 18.8354 13.4983C18.8703 13.4629 18.8912 13.4204 18.8982 13.3708C18.8982 13.3212 18.8912 13.2787 18.8633 13.2362C18.8284 13.1795 18.7935 13.1441 18.7306 13.1299C18.6748 13.1087 18.6189 13.1158 18.5561 13.1299C18.5142 13.1441 18.4304 13.1866 18.3117 13.2433C18.2698 13.2716 18.214 13.3 18.1651 13.3283ZM19.6871 13.2149C19.6313 13.052 19.6173 12.9032 19.6313 12.7757C19.6452 12.6836 19.6732 12.5915 19.729 12.5065C19.7779 12.4215 19.8407 12.3507 19.9175 12.294C20.0153 12.2232 20.1409 12.1665 20.2945 12.124C20.5598 12.0531 20.8042 12.0744 21.0067 12.1807C21.2091 12.294 21.3488 12.4853 21.4186 12.7545C21.4884 13.0237 21.4605 13.2433 21.3488 13.4346C21.2301 13.6187 21.0485 13.7463 20.7972 13.81C20.5389 13.8738 20.3155 13.8596 20.12 13.7604C19.9105 13.6542 19.7709 13.4771 19.6871 13.2149ZM20.0502 13.1016C20.106 13.2858 20.1968 13.4133 20.3155 13.4841C20.4342 13.555 20.5668 13.5692 20.7064 13.5337C20.8461 13.4983 20.9508 13.4204 21.0136 13.3C21.0765 13.1795 21.0835 13.0308 21.0346 12.8395C20.9787 12.6553 20.8949 12.5207 20.7832 12.4569C20.6646 12.3861 20.5249 12.3719 20.3783 12.4074C20.2247 12.4499 20.12 12.5278 20.0571 12.6482C19.9873 12.7616 19.9873 12.9103 20.0502 13.1016ZM21.9282 11.8548C22.3681 11.8335 22.8149 11.8264 23.2548 11.8264C23.2548 12.294 23.2548 12.7686 23.2617 13.2433C23.3176 13.2433 23.3665 13.2433 23.4223 13.2433C23.4223 13.4629 23.4223 13.6825 23.4223 13.9021C23.3246 13.9021 23.2268 13.9021 23.1221 13.9021C23.1221 13.7817 23.1221 13.6542 23.1221 13.5337C22.7451 13.5337 22.3681 13.5408 21.9911 13.5621C21.9981 13.6825 22.005 13.81 22.012 13.9305C21.9143 13.9375 21.8095 13.9375 21.7118 13.9446C21.6978 13.725 21.6839 13.5125 21.6699 13.2929C21.7188 13.2858 21.7746 13.2858 21.8235 13.2858C21.8863 13.137 21.9282 12.967 21.9422 12.7757C21.9562 12.5845 21.9562 12.3436 21.9422 12.0461C21.9352 11.9752 21.9352 11.9185 21.9282 11.8548ZM22.3122 12.124C22.3332 12.6411 22.2913 13.0166 22.2075 13.2575C22.4379 13.2504 22.6683 13.2433 22.8987 13.2433C22.8917 12.8678 22.8847 12.4924 22.8777 12.1169C22.6892 12.1169 22.5007 12.1169 22.3122 12.124ZM23.8273 11.8619C23.9669 11.8831 24.1135 11.9115 24.2531 11.9327C24.3369 12.2444 24.4207 12.5632 24.4975 12.8749C24.679 12.6128 24.8675 12.3507 25.063 12.0886C25.1957 12.1169 25.3213 12.1452 25.454 12.1736C25.1398 12.5419 24.8326 12.9174 24.5394 13.3C24.4416 13.4275 24.3579 13.5125 24.2741 13.5762C24.1903 13.6329 24.0995 13.6542 23.9948 13.6329C23.8831 13.6117 23.8063 13.5904 23.7505 13.5692C23.7644 13.4841 23.7854 13.3991 23.7993 13.3212C23.8482 13.3354 23.8971 13.3425 23.939 13.3495C24.0227 13.3637 24.0856 13.3637 24.1275 13.3425C24.1694 13.3212 24.2182 13.2645 24.2741 13.1795C24.1275 12.7403 23.9809 12.3011 23.8273 11.8619ZM25.8938 12.3294C26.0125 12.3719 26.1312 12.4215 26.2499 12.4711C26.1452 12.6907 26.0474 12.9103 25.9497 13.1299C26.0335 13.1512 26.0893 13.1583 26.1312 13.137C26.1731 13.1158 26.2499 13.0591 26.3686 12.9457C26.5152 12.8111 26.6409 12.7332 26.7316 12.7261C26.8224 12.7191 26.9481 12.7474 27.1086 12.8182C27.1156 12.8182 27.1366 12.8253 27.1575 12.8395C27.1226 12.9174 27.0807 12.9883 27.0458 13.0662C27.0318 13.0591 27.0109 13.052 26.9969 13.0449C26.9271 13.0166 26.8713 13.0024 26.8294 13.0024C26.7875 13.0024 26.7526 13.0166 26.7177 13.0378C26.6828 13.0591 26.6199 13.1158 26.5361 13.2008C26.4873 13.2433 26.4454 13.2787 26.4035 13.307C26.3616 13.3354 26.3058 13.3495 26.229 13.3566C26.2988 13.4062 26.3407 13.4771 26.3616 13.555C26.3825 13.6329 26.3965 13.7463 26.4035 13.8809C26.4105 14.0509 26.4244 14.228 26.4314 14.398C26.3058 14.3413 26.1731 14.2917 26.0474 14.2351C26.0404 14.0721 26.0335 13.9163 26.0265 13.7533C26.0265 13.7463 26.0265 13.7321 26.0195 13.7108C26.0195 13.7038 26.0125 13.6754 26.0125 13.6187C26.0055 13.5267 25.9846 13.4629 25.9706 13.4346C25.9497 13.4062 25.9148 13.3779 25.8589 13.3566C25.7612 13.5833 25.6565 13.81 25.5657 14.0438C25.454 14.0013 25.3423 13.9588 25.2306 13.9163C25.44 13.3708 25.6634 12.8466 25.8938 12.3294ZM26.9969 14.7451C27.2622 14.3555 27.5415 13.973 27.8278 13.5904C27.6811 13.4912 27.5275 13.3921 27.3739 13.2929C27.4298 13.2149 27.4926 13.137 27.5485 13.0591C27.9604 13.3212 28.3653 13.5975 28.7563 13.8809C28.6935 13.9588 28.6376 14.0296 28.5748 14.1076C28.4282 14.0013 28.2816 13.9021 28.135 13.7959C27.8417 14.1713 27.5625 14.5539 27.2902 14.9364C27.1924 14.8726 27.0947 14.8089 26.9969 14.7451Z" fill="white"/>
<path fill-rule="evenodd" clip-rule="evenodd" d="M17.6486 30.0966L17.9768 29.4803L17.7743 29.452L17.9768 29.119L18.1583 29.2182L18.5353 28.6515L18.3608 28.5523L18.7378 27.9572L17.8511 28.0351L17.7743 28.191L17.6486 28.1131L17.2716 28.7011L17.3973 28.779C17.3973 28.779 17.0482 29.3174 17.0203 29.367C16.5944 30.1533 17.6486 30.0966 17.6486 30.0966Z" fill="#A2600B"/>
<path fill-rule="evenodd" clip-rule="evenodd" d="M18.2487 28.7082L18.0742 28.9632L17.9206 28.864C17.9206 28.864 17.4947 29.5229 17.5017 29.5937C17.5017 29.622 17.5924 29.6362 17.6483 29.6362L17.5226 29.8912C17.4458 29.8912 17.3551 29.9054 17.2783 29.8558C17.2294 29.8275 17.1316 29.7283 17.1666 29.6079C17.1805 29.5583 17.6692 28.7082 17.6692 28.7082L17.5645 28.6586L17.7111 28.4036L17.8158 28.4815L17.9694 28.2265L18.3465 28.1981L18.0672 28.609L18.2487 28.7082Z" fill="white"/>
<path fill-rule="evenodd" clip-rule="evenodd" d="M21.2303 29.877C21.1046 30.0328 21.0348 30.2595 21.0348 30.5216C21.0139 30.7554 21.0348 30.9821 21.1256 31.1663C21.2094 31.3434 21.356 31.478 21.6003 31.4922C21.712 31.4993 21.7958 31.4426 21.9005 31.393V31.4922H22.3334L22.501 29.2111L21.8447 29.1615C21.8447 29.1615 21.8237 29.4944 21.8237 29.6715C21.5864 29.5936 21.356 29.6999 21.2303 29.877ZM21.6143 30.72C21.6283 30.7767 21.6632 30.7979 21.6911 30.7979C21.719 30.7979 21.74 30.7696 21.7679 30.72C21.7958 30.6846 21.7958 30.4862 21.7958 30.4012C21.7958 30.3587 21.74 30.3091 21.712 30.3091C21.6841 30.3091 21.6492 30.3304 21.6352 30.387C21.6283 30.4083 21.6003 30.6704 21.6143 30.72Z" fill="#A2600B"/>
<path fill-rule="evenodd" clip-rule="evenodd" d="M21.5162 30.8192C21.5441 30.9184 21.6139 31.0105 21.6907 31.0105C21.8443 31.0105 21.9141 30.7697 21.9211 30.5925C21.9281 30.4367 21.9351 30.3375 21.9071 30.2596C21.8792 30.1817 21.8164 30.1392 21.7466 30.1321C21.6698 30.1179 21.6 30.1746 21.5581 30.2313C21.4952 30.3021 21.4882 30.7413 21.5162 30.8192ZM22.1515 31.2797H21.9002L21.9211 31.0743C21.8722 31.1522 21.6418 31.2797 21.593 31.2797C21.4673 31.2797 21.3556 31.216 21.2788 31.0601C21.202 30.9326 21.188 30.7413 21.209 30.5075C21.2299 30.2738 21.2858 30.0967 21.3626 29.9975C21.4603 29.87 21.565 29.8133 21.6907 29.8416C21.8164 29.8416 21.8932 29.9195 21.97 30.0471L22.0189 29.3528L22.2981 29.3741L22.1515 31.2797Z" fill="white"/>
<path fill-rule="evenodd" clip-rule="evenodd" d="M24.1416 30.7625H24.1137C24.1137 30.4791 24.1137 30.1745 23.9601 29.9195C23.8553 29.7424 23.6319 29.6149 23.4295 29.6149C22.8989 29.6078 22.7243 30.1816 22.7243 30.5925C22.7034 31.0317 22.8779 31.563 23.4364 31.563C23.59 31.563 23.7367 31.5134 23.8623 31.4072C24.0439 31.223 24.0927 30.9892 24.1416 30.7625ZM23.3317 30.7625H23.5551C23.5621 30.9892 23.3108 30.968 23.3317 30.7625Z" fill="#A2600B"/>
<path fill-rule="evenodd" clip-rule="evenodd" d="M23.6321 30.4578C23.6321 30.3587 23.6042 30.1036 23.4296 30.0965C23.2132 30.0965 23.2062 30.3587 23.2062 30.4578H23.6321ZM23.6112 30.8404L23.8904 30.9183C23.8625 31.0742 23.8066 31.1662 23.7159 31.2513C23.6321 31.3221 23.5413 31.3575 23.4366 31.3575C23.2341 31.3575 23.0945 31.2938 23.0038 31.1025C22.9409 30.975 22.906 30.7979 22.913 30.5924C22.927 30.3374 22.9688 30.1532 23.0456 30.0257C23.1434 29.8698 23.2691 29.8203 23.4227 29.8203C23.5763 29.8203 23.6949 29.8982 23.7787 30.0257C23.8765 30.1815 23.9114 30.387 23.9114 30.6916H23.1992C23.1992 30.8191 23.2341 31.0742 23.4296 31.0742C23.5553 31.0671 23.6112 30.9183 23.6112 30.8404Z" fill="white"/>
<path fill-rule="evenodd" clip-rule="evenodd" d="M25.6288 29.2252L25.5729 29.119L25.168 29.3244L25.936 30.9609L26.4596 30.7271L26.0128 29.7353C26.0128 29.7353 25.9639 29.6361 26.0267 29.6007C26.0756 29.5724 26.1175 29.6928 26.1175 29.6928L26.5643 30.6775L27.0321 30.465L26.6062 29.4732C26.6062 29.4732 26.5434 29.374 26.6062 29.3457C26.662 29.3244 26.69 29.4165 26.69 29.4165L27.1438 30.3941C27.3183 30.3162 27.4929 30.2383 27.6744 30.1603L27.1927 29.1402C27.1368 29.0127 27.0879 28.9135 27.0111 28.8356C26.9343 28.7577 26.8575 28.6868 26.7319 28.6585C26.5294 28.6089 26.2501 28.7081 26.1733 28.9419C25.9429 28.871 25.7265 28.9844 25.6218 29.2181L25.6288 29.2252Z" fill="#A2600B"/>
<path fill-rule="evenodd" clip-rule="evenodd" d="M25.4258 29.4166L25.6492 29.2891L25.726 29.4662C25.7469 29.2891 25.8237 29.1758 25.9285 29.1332C25.9983 29.1049 26.0472 29.0907 26.103 29.1049C26.1798 29.1191 26.2287 29.1545 26.3055 29.2041C26.3055 29.1049 26.3264 29.0482 26.3543 28.9703C26.3753 28.9136 26.4311 28.8853 26.48 28.8641C26.5847 28.8215 26.6615 28.8145 26.7174 28.8215C26.7942 28.8357 26.8221 28.8641 26.885 28.9349C26.9199 28.9774 27.4156 30.0329 27.4156 30.0329L27.1712 30.1534L26.8082 29.3954C26.7593 29.2679 26.6755 29.0695 26.5289 29.1403C26.4172 29.197 26.4311 29.3245 26.4521 29.3741C26.4521 29.4237 26.857 30.3092 26.857 30.3092L26.5638 30.4438C26.5638 30.4438 26.1589 29.537 26.1379 29.5087C26.103 29.4662 26.0472 29.4024 25.9773 29.4308C25.8307 29.4875 25.8656 29.6079 25.8796 29.6646C25.9005 29.7354 26.2775 30.5784 26.2775 30.5784L26.0332 30.6918L25.4258 29.4166Z" fill="white"/>
<path fill-rule="evenodd" clip-rule="evenodd" d="M29.252 27.426C29.1961 27.3551 29.3288 27.2205 29.4265 27.1922L29.1193 26.7317C29.1193 26.7317 29.0425 26.7246 28.9937 26.7317C28.7912 26.753 28.6167 26.9159 28.6167 27.1143L28.5678 27.0647L28.2676 27.3976L29.5592 28.6445L30.013 28.1556C30.013 28.1698 29.4265 27.6314 29.252 27.426Z" fill="#A2600B"/>
<path fill-rule="evenodd" clip-rule="evenodd" d="M29.7406 28.1697L29.5661 28.3752L28.5537 27.4046L28.7283 27.2204L28.8539 27.348C28.826 27.2417 28.8051 27.1709 28.8051 27.1425C28.8051 27.0929 28.833 27.0433 28.8539 27.015C28.9028 26.9654 28.9517 26.9371 29.0285 26.9371L29.203 27.2204C29.1541 27.2204 29.0983 27.2488 29.0773 27.27C29.0564 27.2984 29.0354 27.4401 29.1053 27.5251C29.1472 27.5888 29.7406 28.1697 29.7406 28.1697Z" fill="white"/>
<path fill-rule="evenodd" clip-rule="evenodd" d="M28.9663 25.7399C28.8406 25.9241 28.7498 26.0871 28.6172 26.2783L30.4953 27.6031L30.8723 27.0647L30.7676 26.9868L30.8932 27.0151L31.1446 26.6821L31.0189 26.3775L30.1811 26.2004L29.8739 25.3574L29.4201 26.0516L28.9663 25.7399Z" fill="#A2600B"/>
<path fill-rule="evenodd" clip-rule="evenodd" d="M30.439 27.348L28.8682 26.2287L29.0218 25.9949L29.8596 26.5829L29.6292 26.0445L29.8247 25.7611L30.0341 26.3491L30.9696 26.5475L30.816 26.8096L30.1598 26.6537L30.2366 26.8592L30.5926 27.1142L30.439 27.348Z" fill="white"/>
<path fill-rule="evenodd" clip-rule="evenodd" d="M28.7561 29.2535C28.784 29.2819 28.8049 29.3031 28.8329 29.3315L29.0563 29.1756L29.2797 29.0198C29.154 28.9418 29.0284 28.8639 28.9236 28.7647C28.798 28.5876 28.6723 28.3539 28.5396 28.1768C28.4349 28.0209 28.386 27.9217 28.2883 27.8438C28.1906 27.7942 28.0858 27.7659 27.9881 27.7659C27.8624 27.7659 27.7368 27.8225 27.6111 27.8934C27.4854 27.9996 27.3947 28.0847 27.3388 28.2759C27.3039 28.5097 27.3667 28.7151 27.4715 28.9135L27.6949 28.786C27.6949 28.786 27.6669 28.8427 27.66 28.8639C27.632 28.9418 27.632 28.9985 27.639 29.041C27.66 29.1685 27.7018 29.2465 27.7507 29.3456C27.8275 29.4732 27.9462 29.6007 28.0579 29.629C28.2115 29.6715 28.414 29.6503 28.5396 29.5511C28.6583 29.4802 28.7351 29.3811 28.7561 29.2535ZM28.3023 28.7931C28.3023 28.7931 28.2185 28.8356 28.2045 28.9064C28.1906 28.9702 28.2255 29.0127 28.2534 29.0269C28.3162 29.0552 28.3721 28.9702 28.3511 28.8923C28.3442 28.8639 28.3023 28.7931 28.3023 28.7931Z" fill="#A2600B"/>
<path fill-rule="evenodd" clip-rule="evenodd" d="M28.2745 28.609C28.2535 28.6373 28.1278 28.8286 28.1069 28.8569C28.079 28.9207 28.079 29.0128 28.1209 29.0694C28.1837 29.1544 28.3024 29.1474 28.3513 29.1261C28.4071 29.1049 28.463 28.9632 28.442 28.8782C28.4281 28.8427 28.2745 28.609 28.2745 28.609ZM27.7927 28.5665L27.5414 28.6444C27.4855 28.5169 27.4855 28.4106 27.5135 28.3114C27.5414 28.2052 27.5833 28.1202 27.702 28.0422C27.8067 27.9714 27.9114 27.9501 27.9882 27.9501C28.0371 27.9501 28.1209 27.9643 28.1628 27.9997C28.2186 28.0422 28.2884 28.1272 28.3931 28.2831C28.449 28.3752 28.6235 28.6444 28.6235 28.6444C28.7073 28.7577 28.8749 28.9773 28.9307 29.0269L28.7073 29.1828C28.6794 29.1544 28.6026 29.0553 28.6026 29.0553C28.5817 29.1544 28.5817 29.2111 28.5537 29.2607C28.5049 29.3386 28.4909 29.3741 28.4281 29.4166C28.1558 29.5937 27.9882 29.367 27.9254 29.2749C27.8835 29.2182 27.7788 29.0057 27.8346 28.8711C27.8695 28.8002 27.8975 28.7223 27.9673 28.6515C28.065 28.5452 28.1209 28.4673 28.1418 28.4177C28.1418 28.4177 28.0441 28.276 28.0161 28.2618C27.9673 28.2406 27.9044 28.2477 27.8276 28.3043C27.7997 28.3256 27.7718 28.361 27.7648 28.4177C27.7648 28.4319 27.7648 28.4885 27.7927 28.5665Z" fill="white"/>
<path fill-rule="evenodd" clip-rule="evenodd" d="M20.0356 31.1593C20.0286 31.1947 20.0286 31.2302 20.0216 31.2656L20.28 31.3506L20.5383 31.4285C20.5173 31.2797 20.4964 31.131 20.5104 30.9893C20.5662 30.7768 20.664 30.5288 20.7198 30.3163C20.7757 30.1392 20.8175 30.0329 20.8175 29.9054C20.7966 29.7921 20.7477 29.7 20.6849 29.622C20.6081 29.5229 20.4894 29.452 20.3498 29.4024C20.1892 29.367 20.0705 29.3528 19.882 29.4237C19.6795 29.5441 19.5608 29.7212 19.4701 29.9267L19.7075 30.0258C19.7075 30.0258 19.6446 30.04 19.6237 30.0471C19.5469 30.0754 19.505 30.1109 19.4771 30.1463C19.3933 30.2455 19.3584 30.3234 19.3095 30.4226C19.2606 30.5642 19.2397 30.7343 19.2886 30.8405C19.3584 30.9893 19.491 31.131 19.6516 31.1664C19.7982 31.2231 19.9239 31.2231 20.0356 31.1593ZM20.1054 30.5147C20.1054 30.5147 20.0216 30.4792 19.9588 30.5076C19.9029 30.5359 19.889 30.5855 19.896 30.6209C19.9169 30.6918 20.0147 30.6776 20.0635 30.6138C20.0775 30.5926 20.1054 30.5147 20.1054 30.5147Z" fill="#A2600B"/>
<path fill-rule="evenodd" clip-rule="evenodd" d="M20.2248 30.3801C20.1899 30.3801 19.9665 30.3942 19.9315 30.4084C19.8687 30.4226 19.7989 30.4792 19.7779 30.5501C19.75 30.6563 19.8338 30.7413 19.8827 30.7697C19.9315 30.798 20.0782 30.7555 20.127 30.6847C20.148 30.6422 20.2248 30.3801 20.2248 30.3801ZM19.9595 29.9692L19.743 29.8204C19.8059 29.7 19.8827 29.6362 19.9804 29.5937C20.0712 29.5512 20.1689 29.5299 20.3086 29.5725C20.4272 29.6079 20.511 29.6858 20.5529 29.7425C20.5878 29.785 20.6227 29.8558 20.6227 29.9125C20.6227 29.9833 20.6018 30.0967 20.5529 30.2667C20.518 30.3659 20.4203 30.6705 20.4203 30.6705C20.3854 30.8051 20.3225 31.0814 20.3155 31.1522L20.0572 31.0672C20.0642 31.0318 20.0921 30.9043 20.0921 30.9043C19.9944 30.9468 19.9595 30.9822 19.9036 30.9964C19.8129 31.0035 19.771 31.0176 19.7081 30.9964C19.4009 30.8901 19.4708 30.6209 19.4987 30.5076C19.5196 30.4367 19.6174 30.2242 19.75 30.1888C19.8268 30.1675 19.8966 30.1392 20.0083 30.1534C20.148 30.1675 20.2387 30.1604 20.2946 30.1463C20.2946 30.1463 20.3435 29.9833 20.3295 29.9479C20.3155 29.8983 20.2667 29.8487 20.1829 29.8275C20.148 29.8204 20.1061 29.8204 20.0572 29.8487C20.0433 29.8629 20.0083 29.8983 19.9595 29.9692Z" fill="white"/>
<path fill-rule="evenodd" clip-rule="evenodd" d="M18.9333 29.6928C18.9822 29.6149 19.1497 29.6999 19.2056 29.792L19.5407 29.3528C19.5407 29.3528 19.5197 29.2749 19.4988 29.2324C19.415 29.0411 19.2126 28.9277 19.0171 28.9915L19.045 28.9277L18.6401 28.7436L17.8721 30.38L18.4725 30.6634C18.4725 30.6563 18.7937 29.9195 18.9333 29.6928Z" fill="#A2600B"/>
<path fill-rule="evenodd" clip-rule="evenodd" d="M18.3881 30.3941L18.1367 30.2879L18.7302 29.0056L18.9536 29.119L18.8768 29.2819C18.9675 29.2253 19.0304 29.1757 19.0513 29.1686C19.1002 29.1473 19.156 29.1615 19.184 29.1757C19.2468 29.2111 19.2887 29.2465 19.3096 29.3244L19.1002 29.5865C19.0862 29.537 19.0443 29.4945 19.0094 29.4803C18.9745 29.4661 18.8349 29.4945 18.779 29.5865C18.7511 29.6432 18.3881 30.3941 18.3881 30.3941Z" fill="white"/>
<defs>
<filter id="filter0_f" x="0.341797" y="37.1464" width="46.3171" height="24.2927" filterUnits="userSpaceOnUse" color-interpolation-filters="sRGB">
<feFlood flood-opacity="0" result="BackgroundImageFix"/>
<feBlend mode="normal" in="SourceGraphic" in2="BackgroundImageFix" result="shape"/>
<feGaussianBlur stdDeviation="4.5" result="effect1_foregroundBlur"/>
</filter>
</defs>
</svg>
