<svg width="69" height="69" viewBox="0 0 69 69" fill="none" xmlns="http://www.w3.org/2000/svg">
<path d="M8.625 20.125C8.625 13.7737 13.7737 8.625 20.125 8.625H48.875C55.2263 8.625 60.375 13.7737 60.375 20.125V48.875C60.375 55.2263 55.2263 60.375 48.875 60.375H20.125C13.7737 60.375 8.625 55.2263 8.625 48.875V20.125Z" stroke="#083645" stroke-width="2"/>
<path d="M25.875 31.625C29.0506 31.625 31.625 29.0506 31.625 25.875C31.625 22.6994 29.0506 20.125 25.875 20.125C22.6994 20.125 20.125 22.6994 20.125 25.875C20.125 29.0506 22.6994 31.625 25.875 31.625Z" stroke="#083645" stroke-width="2" stroke-linecap="round" stroke-linejoin="round"/>
<path d="M11.5 57.5L19.7622 47.1722C21.5941 44.8824 24.8726 44.3734 27.3125 46C29.7524 47.6266 33.0309 47.1176 34.8628 44.8278L39.4604 39.0807C41.4724 36.5658 45.1573 36.1936 47.6315 38.2554L60.375 48.875" stroke="#083645" stroke-width="2"/>
</svg>
