<svg width="73" height="41" viewBox="0 0 73 41" fill="none" xmlns="http://www.w3.org/2000/svg">
<path d="M8.02735 32.7353L11.3998 29.2616L8.30342 26.6498L10.0384 24.86L17.9484 31.5524L16.2134 33.3423L13.0355 30.6555L9.66307 34.1292L12.841 36.816L11.1061 38.6059L3.19488 31.9065L4.92982 30.1167L8.02735 32.7353Z" fill="#17A3D0"/>
<path d="M18.7391 20.7247C19.3249 20.515 19.8845 20.4246 20.4539 20.4386C21.0147 20.4473 21.542 20.5768 22.042 20.8186C22.5568 21.0573 23.0124 21.4008 23.4111 21.863C23.8001 22.313 24.073 22.8019 24.2212 23.3244C24.3694 23.8469 24.3895 24.3824 24.3151 24.9024C24.2048 25.4372 24.0222 25.9518 23.6984 26.4467C23.3928 26.959 22.9699 27.411 22.4479 27.8202C21.9134 28.2462 21.3533 28.564 20.7811 28.7636C20.209 28.9633 19.6493 29.0537 19.0885 29.045C18.5277 29.0363 18.0004 28.9068 17.4908 28.6528C16.9857 28.4263 16.5204 28.0706 16.1217 27.6084C15.7327 27.1584 15.4598 26.6695 15.3201 26.1523C15.1486 25.6277 15.116 25.1091 15.2126 24.5843C15.3092 24.0596 15.4918 23.545 15.8071 23.0448C16.1223 22.5446 16.5492 22.0704 17.0837 21.6444C17.6216 21.239 18.1669 20.9243 18.7391 20.7247ZM17.4439 24.5934C17.3763 25.1546 17.5615 25.6692 17.987 26.1541C18.4222 26.6511 18.929 26.9341 19.508 26.9602C20.0979 27.0054 20.6564 26.8158 21.2045 26.3798C21.7664 25.9338 22.068 25.4436 22.1156 24.9008C22.1792 24.3618 21.9843 23.835 21.5492 23.338C21.114 22.8409 20.6169 22.5701 20.0418 22.5218C19.4616 22.4888 18.9031 22.6784 18.355 23.1144C17.7932 23.5604 17.4916 24.0506 17.4439 24.5934Z" fill="#17A3D0"/>
<path d="M27.2671 14.8651C27.6592 14.732 28.0035 14.6803 28.3386 14.6659C28.6624 14.6754 28.9645 14.7392 29.2433 14.8932C29.5015 15.016 29.7438 15.2275 29.9189 15.496C30.1134 15.7887 30.1995 16.076 30.1985 16.3463C30.1935 16.6388 30.1075 16.9058 29.9343 17.1558L29.985 17.2303C30.4239 17.1016 30.8229 17.1021 31.2179 17.2173C31.5748 17.3334 31.9003 17.5841 32.1478 17.965C32.5584 18.5886 32.619 19.2296 32.3776 19.8992C32.0991 20.5767 31.4752 21.2067 30.4671 21.833L26.8719 24.0605L22.609 17.5742L26.1211 15.3998C26.5035 15.1623 26.8938 14.9728 27.2671 14.8651ZM27.7521 17.9177C27.9396 17.7997 28.0609 17.6531 28.1395 17.4801C28.1971 17.3186 28.1845 17.1507 28.0818 16.9948C27.9792 16.8389 27.8412 16.7474 27.6554 16.7371C27.4599 16.7147 27.2399 16.7756 27.0039 16.9252L25.5576 17.8222L26.2363 18.8579L27.7521 17.9177ZM29.684 20.2153C29.9136 20.0742 30.0623 19.9076 30.166 19.7007C30.2412 19.5071 30.2229 19.3049 30.0986 19.111C29.8414 18.7178 29.4315 18.6982 28.8753 19.0438L27.0888 20.1552L27.869 21.3399L29.684 20.2153Z" fill="#17A3D0"/>
<path d="M37.8118 12.7818L36.3763 18.4454L34.4063 19.3754L31.0702 12.3727L33.2174 11.3552L35.1966 15.5048L36.6372 9.73354L38.5565 8.82135L41.9012 15.8294L39.7539 16.8468L37.8118 12.7818Z" fill="#17A3D0"/>
<path d="M44.1122 9.8759L47.302 8.80048L46.4349 6.03441L48.7165 5.26558L51.0482 12.6826L48.7666 13.4514L47.8733 10.6199L44.6836 11.6953L45.5769 14.5269L43.2953 15.2957L40.9573 7.88711L43.2452 7.10984L44.1122 9.8759Z" fill="#17A3D0"/>
<path d="M54.0033 6.96377L54.8365 6.6306L56.5209 3.53918L59.4292 2.87887L56.9188 7.083L61.1443 10.4742L58.3174 11.1172L55.2566 8.5579L54.334 8.76805L54.9082 11.8981L52.5832 12.4274L51.1778 4.75922L53.5027 4.22992L54.0033 6.96377Z" fill="#17A3D0"/>
<path d="M63.4314 2.63168C64.0359 2.43223 64.658 2.29304 65.3075 2.22628C65.9879 2.16009 66.5673 2.17937 67.0639 2.30158C67.5457 2.42694 67.9688 2.61458 68.2788 2.86178C68.6168 3.1386 68.8618 3.45652 69.0132 3.85833C69.1955 4.26071 69.2761 4.69888 69.2917 5.20778L69.3793 7.57948C69.3949 7.99591 69.5639 8.18056 69.8961 8.1456C70.0097 8.13572 70.1124 8.10679 70.1758 8.072L70.4544 9.79135C70.3031 9.85192 70.1445 9.91406 69.9613 9.96718C69.7769 10.0134 69.584 10.0544 69.3717 10.071C68.911 10.119 68.5097 10.0619 68.1923 9.90877C67.8749 9.75563 67.643 9.47049 67.5464 9.02859C67.2469 9.49056 66.844 9.8393 66.3784 10.0876C65.9053 10.3374 65.3311 10.4877 64.6878 10.5461C63.7135 10.6462 62.9297 10.5067 62.3171 10.1032C61.7399 9.72776 61.4188 9.09163 61.3928 8.24346C61.3773 7.82704 61.4599 7.44669 61.6333 7.10397C61.8067 6.76126 62.0583 6.47308 62.4156 6.21939C62.7357 5.97357 63.1637 5.77599 63.6197 5.60804C64.1112 5.46815 64.6368 5.34943 65.2344 5.2937C65.5826 5.26247 65.8948 5.24598 66.1586 5.26113C66.4531 5.27686 66.7254 5.29731 66.9703 5.3378L66.9599 5.09101C66.9495 4.75174 66.8084 4.50425 66.5481 4.32476C66.2912 4.16588 65.8973 4.10722 65.3687 4.16252C64.4315 4.25478 63.5275 4.54631 62.6691 5.0202L61.6874 3.50704C62.2558 3.13738 62.843 2.83486 63.4314 2.63168ZM65.336 6.87278C64.7767 6.92751 64.3817 7.04693 64.1215 7.23734C63.8972 7.413 63.7746 7.64534 63.7798 7.90745C63.7925 8.16798 63.8936 8.35994 64.098 8.48017C64.2824 8.61886 64.6049 8.66422 65.0125 8.62038C65.6854 8.55577 66.1985 8.36147 66.5306 8.0491C66.865 7.75046 67.0384 7.40774 67.0257 7.05474L67.0268 6.87666C66.5096 6.81572 65.9474 6.80703 65.336 6.87278Z" fill="#17A3D0"/>
</svg>
