<svg width="16" height="21" viewBox="0 0 16 21" fill="none" xmlns="http://www.w3.org/2000/svg">
<path d="M15 8.86364C15 14.5909 8 19.5 8 19.5C8 19.5 1 14.5909 1 8.86364C1 6.91068 1.7375 5.03771 3.05025 3.65676C4.36301 2.27581 6.14348 1.5 8 1.5C9.85652 1.5 11.637 2.27581 12.9497 3.65676C14.2625 5.03771 15 6.91068 15 8.86364Z" stroke="white" stroke-width="2" stroke-linecap="round" stroke-linejoin="round"/>
<path d="M8 11.5C9.65685 11.5 11 10.1569 11 8.5C11 6.84315 9.65685 5.5 8 5.5C6.34315 5.5 5 6.84315 5 8.5C5 10.1569 6.34315 11.5 8 11.5Z" stroke="white" stroke-width="2" stroke-linecap="round" stroke-linejoin="round"/>
</svg>
