<svg width="75" height="75" viewBox="0 0 75 75" fill="none" xmlns="http://www.w3.org/2000/svg">
<path d="M-4.27034e-06 36.5768C-2.35187e-06 14.6322 14.5193 0.433009 36.1137 0.433011C60.171 -3.14521 75 15.992 75 37.9366C75 59.8813 64.0437 75 42.4493 75C20.855 75 -6.1888e-06 58.5215 -4.27034e-06 36.5768Z" fill="url(#paint0_linear)"/>
<path d="M29.1348 25.5339C29.0518 24.8035 29.3735 24.0803 30.0173 23.7254C30.105 23.6771 30.1955 23.6282 30.2886 23.5789C30.8255 23.2821 31.4161 23.0256 32.0604 22.8097C32.7047 22.5668 33.3758 22.3779 34.0738 22.2429C34.7987 22.081 35.5369 22 36.2886 22C37.8993 22 39.3624 22.1619 40.6779 22.4858C41.9933 22.8097 43.1208 23.309 44.0604 23.9838C45 24.6316 45.7248 25.4683 46.2349 26.4939C46.745 27.5196 47 28.7341 47 30.1377C47 30.9204 46.8658 31.6491 46.5973 32.3239C46.3289 32.9987 45.9799 33.6464 45.5503 34.2672C45.1476 34.861 44.6779 35.4278 44.1409 35.9676C43.604 36.5074 43.0805 37.0202 42.5705 37.5061C41.5772 38.4238 40.7718 39.3684 40.1544 40.3401C39.8931 40.7398 39.6871 41.1637 39.5364 41.6117C39.1842 42.6587 38.3328 43.5789 37.2282 43.5789H36.557C35.4525 43.5789 34.5373 42.6726 34.7875 41.5967C34.9351 40.9619 35.1536 40.3271 35.443 39.6923C36.0336 38.3698 36.9329 37.1012 38.1409 35.8866C38.5973 35.4278 39.0403 34.996 39.4698 34.5911C39.9262 34.1862 40.3154 33.7544 40.6376 33.2955C40.9866 32.8097 41.2685 32.2834 41.4832 31.7166C41.698 31.1498 41.8054 30.475 41.8054 29.6923C41.8054 28.7206 41.3758 27.8974 40.5168 27.2227C39.6846 26.5209 38.3154 26.17 36.4094 26.17C35.8725 26.17 35.2953 26.2375 34.6779 26.3725C34.0604 26.4804 33.443 26.6559 32.8255 26.8988C32.2349 27.1147 31.6443 27.3711 31.0537 27.668C30.9993 27.6967 30.9453 27.7254 30.8916 27.7543C30.2319 28.1097 29.3823 27.7113 29.2977 26.9667L29.1348 25.5339ZM33.8322 49.085C33.8322 48.0594 34.0738 47.3171 34.557 46.8583C35.0403 46.3725 35.8322 46.1296 36.9329 46.1296C38.0604 46.1296 38.8658 46.3725 39.349 46.8583C39.8322 47.3171 40.0738 48.0594 40.0738 49.085C40.0738 50.1377 39.8322 50.8934 39.349 51.3522C38.8658 51.7841 38.0604 52 36.9329 52C35.8322 52 35.0403 51.7841 34.557 51.3522C34.0738 50.8934 33.8322 50.1377 33.8322 49.085Z" fill="white"/>
<defs>
<linearGradient id="paint0_linear" x1="64" y1="64.5" x2="11.5" y2="7.5" gradientUnits="userSpaceOnUse">
<stop stop-color="#C2F0FF"/>
<stop offset="1" stop-color="#7AD9F7"/>
</linearGradient>
</defs>
</svg>
