<svg width="68" height="29" viewBox="0 0 68 29" fill="none" xmlns="http://www.w3.org/2000/svg">
<path d="M59.6091 7.46379C59.4304 7.31259 59.3205 7.1339 59.2105 6.94146C58.8806 6.36415 58.5782 5.75935 58.2071 5.22328C57.8772 4.74219 57.8772 4.3848 58.2621 3.94495C58.8119 3.3264 59.1418 2.55666 59.8016 1.99309C60.3789 1.512 60.3101 1.00342 59.7466 0.646037C59.4717 0.481091 59.1693 0.329891 58.8806 0.206182C58.5232 0.0412364 58.1521 0.0962183 57.8497 0.343637C57.7397 0.426109 57.6573 0.4536 57.5061 0.426109C57.0662 0.343637 56.8188 0.522328 56.6401 0.948437C56.5301 1.2096 56.3652 1.44327 56.1453 1.6632C55.9253 1.25084 55.6779 0.893455 55.513 0.467346C55.403 0.164946 55.1418 0.0274909 54.8532 0.109964C54.4133 0.233673 54.0147 0.412364 53.5474 0.467346C53.1762 0.508582 52.9013 0.852219 52.6264 1.09964C52.1728 1.512 52.1728 1.60822 52.6127 2.06182C52.6677 2.1168 52.7089 2.18553 52.7501 2.24051C53.2037 2.99651 53.6711 3.75251 54.1247 4.52226C54.1797 4.61848 54.2484 4.70095 54.1659 4.8384C53.7261 5.56691 53.2862 6.30917 52.8326 7.07892C52.7914 6.9827 52.7501 6.91397 52.7364 6.85899C52.2828 5.04459 51.9666 3.21644 51.8017 1.34706C51.7742 1.0584 51.678 0.87971 51.4306 0.769746C50.6746 0.439855 49.8773 0.219927 49.0526 0.192437C48.9151 0.192437 48.7365 0.178691 48.654 0.3024C48.5028 0.536073 48.3104 0.508582 48.0904 0.481091C47.6231 0.426109 47.4719 0.563564 47.4856 1.01716C47.4994 1.29207 47.4444 1.55324 47.3757 1.82815C47.0595 2.90029 46.7434 3.97244 46.4272 5.05833C46.2898 5.51193 46.221 6.00677 45.685 6.21295C45.6025 6.24044 45.5475 6.35041 45.4788 6.43288C45.0527 5.95179 44.6541 5.45695 44.2279 5.00335C44.0218 4.79717 44.063 4.64597 44.2005 4.43979C44.8053 3.51884 45.5063 2.68037 46.1523 1.78691C46.4959 1.31956 46.4547 1.03091 46.0286 0.632291C45.6987 0.329891 45.3001 0.1512 44.9015 0C44.7915 0 44.6953 0 44.5853 0C44.2967 0.206182 44.0493 0.494837 43.6231 0.316146C43.5269 0.274909 43.3895 0.316146 43.3345 0.398619C43.0596 0.893455 42.7434 0.604801 42.4273 0.467346C42.2349 0.384873 42.0424 0.3024 41.8362 0.247418C41.4789 0.1512 41.1352 0.109964 40.8741 0.467346C40.8191 0.536073 40.7503 0.549819 40.6679 0.549819C39.9256 0.508582 39.8294 0.563564 39.582 1.29207C39.4858 1.2096 39.4033 1.14087 39.3071 1.07215C38.4411 0.494837 37.5889 -0.1512 36.4755 0.481091C36.448 0.494837 36.393 0.494837 36.3655 0.494837C35.6233 0.494837 35.1147 0.893455 34.7161 1.47076C34.6336 1.59447 34.5511 1.71818 34.4412 1.86938C34.3587 1.62196 34.3999 1.42953 34.4412 1.25084C34.4962 0.989673 34.4274 0.769746 34.1663 0.659782C33.4378 0.357382 32.6955 0 31.912 0.536073C31.8708 0.563564 31.7883 0.57731 31.7333 0.57731C31.3347 0.536073 30.9636 0.591055 30.7162 0.989674C30.51 0.4536 30.0426 0.192437 29.4103 0.3024C28.833 0.398619 28.2695 0.563564 27.7059 0.714764C27.1698 0.865964 27.1286 0.989673 27.266 1.53949C27.2935 1.62196 27.2798 1.71818 27.2935 1.88313C27.1011 1.60822 26.9774 1.38829 26.8124 1.19586C26.1664 0.412364 25.3554 -0.0137455 24.3245 0.274909C23.7884 0.426109 23.1561 0.137455 22.7025 0.646037C22.6888 0.659782 22.6476 0.659782 22.6201 0.646037C22.139 0.494837 21.8228 0.72851 21.5479 1.08589C21.5067 1.15462 21.4517 1.22335 21.3555 1.18211C21.273 1.14087 21.3005 1.04466 21.3143 0.975928C21.3555 0.714764 21.2043 0.549819 20.9981 0.439855C20.5995 0.233673 20.1871 0.0824728 19.7198 0.1512C17.9191 0.412364 16.1185 0.591055 14.359 1.07215C13.9192 1.19586 13.8642 1.26458 14.0154 1.69069C14.0979 1.91062 14.1941 2.13055 14.2216 2.36422C14.2353 2.52917 14.2903 2.68037 14.4278 2.76284C14.634 2.8728 14.6477 3.03775 14.6477 3.24393C14.6477 4.90713 14.6477 6.55659 14.6477 8.21979C14.6477 8.32975 14.6477 8.42597 14.634 8.53593C14.5652 8.9483 14.6752 9.16823 15.0738 9.31943C15.2525 9.38815 15.4587 9.41564 15.6374 9.48437C16.2559 9.73179 16.9157 9.41564 17.5343 9.62183C17.6992 9.67681 17.9054 9.52561 17.9604 9.33317C18.0291 9.00328 18.1803 9.11324 18.359 9.22321C18.7164 9.41564 19.1012 9.63557 19.4999 9.59434C19.926 9.5531 20.3383 9.58059 20.7507 9.60808C21.0531 9.63557 21.2593 9.45688 21.328 9.12699C21.3967 8.82459 21.328 8.53593 21.2593 8.13732C21.6029 8.56343 21.9328 8.87957 22.3589 8.98954C23.1287 9.19572 23.8572 9.63557 24.7094 9.4019C24.7506 9.38815 24.8193 9.4019 24.8606 9.41564C25.6716 9.59434 26.2901 9.26444 26.7987 8.68713C26.9499 8.50844 27.0874 8.30226 27.266 8.05484C27.266 8.23353 27.266 8.3435 27.266 8.45346C27.2386 9.05826 27.3073 9.0995 27.8571 9.34692C28.6406 9.69055 29.4791 9.49812 30.2763 9.5531C30.4138 9.56684 30.6337 9.48437 30.6887 9.37441C30.9911 8.76961 31.4172 9.05826 31.8295 9.18197C31.9395 9.20946 32.0632 9.22321 32.1732 9.27819C32.613 9.48437 33.0666 9.23695 33.5065 9.33317C34.3175 9.48437 34.5786 9.2507 34.5511 8.41222C34.5511 8.38473 34.5786 8.35724 34.5924 8.32975C34.6199 8.32975 34.6336 8.32975 34.6474 8.32975C34.7161 8.38473 34.7711 8.45346 34.8398 8.50844C35.5958 9.12699 36.3793 9.66306 37.4514 9.41564C37.5202 9.4019 37.6164 9.41564 37.6851 9.44314C38.1525 9.64932 38.5511 9.48437 38.9222 9.18197C39.1284 9.01703 39.3208 8.82459 39.582 8.59092C39.5133 9.08575 39.7744 9.27819 40.1043 9.41564C40.283 9.48437 40.4754 9.52561 40.6679 9.58059C41.094 9.71805 41.5201 9.51186 41.9462 9.59434C42.7022 9.73179 43.0183 9.42939 43.0046 8.65964C43.0046 8.61841 42.9771 8.53593 42.9909 8.52219C43.0596 8.4947 43.0596 8.56343 43.0733 8.59092C43.3207 8.82459 43.5682 9.05826 43.8293 9.27819C44.0355 9.45688 44.2692 9.47063 44.4479 9.2507C44.5991 9.07201 44.6953 9.11324 44.8602 9.23695C45.0802 9.41564 45.3413 9.49812 45.575 9.29193C45.7537 9.14073 45.8912 9.16823 46.0698 9.2507C46.3035 9.36066 46.5922 9.51186 46.8121 9.37441C47.0595 9.22321 47.2382 9.29193 47.4581 9.34692C47.9942 9.49812 48.2416 9.36066 48.3928 8.83834C48.489 8.53593 48.6128 8.26103 48.709 7.95862C48.8189 7.5875 49.1626 7.54626 49.4237 7.53252C49.6712 7.51877 49.5749 7.84866 49.6299 8.02735C49.6574 8.10983 49.6712 8.20604 49.6849 8.30226C49.6986 8.81084 50.0285 9.03077 50.4409 9.23695C51.2106 9.59434 52.0079 9.33317 52.7914 9.45688C52.9288 9.48437 53.0938 9.44314 53.245 9.49812C53.4374 9.56684 53.6573 9.62183 53.8085 9.52561C54.0147 9.38815 54.1659 9.45688 54.3584 9.51186C54.9769 9.69055 55.4168 9.44314 55.513 8.82459C55.568 8.43972 55.7879 8.16481 55.9666 7.83492C56.214 8.17855 56.4339 8.50844 56.4752 8.90706C56.5026 9.16823 56.6538 9.31943 56.8738 9.44314C57.2174 9.63557 57.4786 9.2507 57.7397 9.34692C58.0421 9.44314 58.3171 9.59434 58.6332 9.4019C58.9493 9.20946 59.2655 9.01703 59.5404 8.7971C60.049 8.39848 60.0627 7.86241 59.6091 7.46379ZM19.3761 9.27819C19.0463 9.20946 18.7301 9.07201 18.4277 8.90706C18.0016 8.67339 17.9604 8.4947 18.2353 8.05484C18.2353 7.68372 18.2353 7.32633 18.2353 6.95521C18.2353 6.66655 18.2353 6.3779 18.2353 6.08924C18.2353 5.82808 18.2353 5.56691 18.2353 5.30575C18.2353 5.04459 18.2353 4.78342 18.2353 4.52226C18.2353 4.28859 18.2353 4.05491 18.2353 3.82124C18.2353 3.56008 18.2353 3.29891 18.2353 3.03775C18.2353 2.80408 18.2353 2.5704 18.2353 2.33673C18.2215 2.18553 18.2078 2.06182 17.9879 2.10306C17.4793 2.22677 16.9432 2.24051 16.4346 2.4192C16.4209 2.62538 16.3934 2.84531 16.3796 3.05149C16.4209 4.06866 16.4209 5.08582 16.3796 6.08924C16.4209 6.32291 16.4209 6.55659 16.3796 6.80401C16.4346 7.06517 16.4209 7.32633 16.3796 7.5875C16.3934 7.93113 16.4209 8.26103 16.4346 8.60466C16.5858 8.75586 16.5171 8.9483 16.5033 9.11324C16.4896 9.27819 16.3796 9.33317 16.2284 9.29193C15.8711 9.19572 15.4999 9.11324 15.1563 8.98954C15.0051 8.93455 14.7989 8.83833 14.9639 8.59092C14.9639 8.24728 14.9776 7.91739 14.9776 7.57375C14.9776 7.31259 14.9776 7.05142 14.9776 6.79026C14.9776 6.55659 14.9776 6.32291 14.9776 6.08924C14.9776 5.85557 14.9776 5.60815 14.9776 5.37448C14.9776 5.11331 14.9776 4.85215 14.9776 4.59099C14.9776 4.37106 14.9776 4.13739 14.9776 3.91746C14.9776 3.64255 14.9776 3.38138 14.9776 3.10648C15.0188 2.80408 14.9226 2.58415 14.6202 2.47418C14.4553 2.25426 14.4965 1.9656 14.4003 1.71818C14.2079 1.45702 14.2491 1.31956 14.5927 1.27833C15.7611 1.11338 16.9295 0.934692 18.0841 0.756001C18.4552 0.701019 18.8263 0.604801 19.1975 0.714764C19.8435 0.907201 19.871 0.975928 19.6785 1.62196C19.6648 1.88313 19.6648 2.14429 19.6511 2.39171C19.6511 2.59789 19.6511 2.80408 19.6511 3.024C19.6511 3.28517 19.6511 3.54633 19.6511 3.80749C19.6511 4.04117 19.6511 4.27484 19.6511 4.50851C19.6511 4.76968 19.6511 5.03084 19.6511 5.292C19.6511 5.55317 19.6511 5.81433 19.6511 6.0755C19.6511 6.36415 19.6511 6.65281 19.6511 6.94146C19.6511 7.31259 19.6511 7.66997 19.6511 8.0411C19.706 8.31601 19.7748 8.60466 19.8023 8.87957C19.8435 9.26444 19.7335 9.34692 19.3761 9.27819ZM26.2489 6.25419C26.2489 6.5291 26.1664 6.79026 26.0839 7.03768C26.029 7.29884 25.9465 7.54626 25.7953 7.76619C25.7128 8.05484 25.5616 8.28852 25.3417 8.4947C24.8468 9.0995 24.3383 9.27819 23.6235 9.04452C23.1012 8.86583 22.5376 8.81084 22.0565 8.48095C21.7541 8.30226 21.5342 8.05484 21.383 7.72495C21.2455 7.53252 21.1493 7.34008 21.1218 7.10641C20.9981 6.85899 20.9431 6.58408 20.9156 6.30917C20.8744 6.04801 20.8057 5.78684 20.8332 5.52568C20.8332 5.23702 20.8332 4.94837 20.8332 4.65971C20.8194 4.35731 20.8744 4.06866 20.9431 3.79375C20.9569 3.53258 21.0119 3.27142 21.0943 3.01026C21.1356 2.77658 21.1631 2.52917 21.2868 2.30924C21.3005 2.10306 21.383 1.93811 21.4655 1.75942C21.5479 1.48451 21.6991 1.23709 21.8916 1.03091C22.029 0.87971 22.2077 0.769746 22.4139 0.838473C22.6613 0.920946 22.8675 0.865964 23.1012 0.810983C24.1183 0.549819 24.8468 0.838473 25.3967 1.70444C25.4379 1.77316 25.4929 1.82815 25.5341 1.88313C25.7953 2.21302 25.919 2.59789 26.0289 2.99651C26.1252 3.23018 26.1664 3.46386 26.1939 3.71128C26.2351 3.97244 26.3039 4.2336 26.2764 4.49477C26.2764 4.78342 26.2764 5.07208 26.2764 5.36073C26.3588 5.69062 26.3314 5.97928 26.2489 6.25419ZM32.5443 9.03077C32.2144 8.97579 31.8983 8.86583 31.5684 8.76961C31.211 8.65964 31.0873 8.48095 31.2935 8.15106C31.321 8.09608 31.3484 8.02735 31.3759 7.97237C31.3759 7.60124 31.3622 7.24386 31.3622 6.87273C31.3347 6.55659 31.2935 6.25419 31.321 5.93804C31.3072 5.67688 31.3072 5.41571 31.2935 5.15455C31.2935 4.94837 31.2935 4.74219 31.2797 4.52226C31.266 4.39855 31.2522 4.27484 31.2385 4.10989C31.0186 4.31608 31.0048 4.61848 30.8674 4.8384C30.7711 5.09957 30.6749 5.36073 30.5787 5.6219C30.4825 6.0755 30.3313 6.51535 30.1663 6.95521C30.0839 7.24386 30.0014 7.53252 29.9189 7.82117C29.8502 8.12357 29.7265 8.39848 29.589 8.67339C29.4103 9.19572 29.2729 9.27819 28.7231 9.23695C28.3794 9.20946 28.0633 9.07201 27.7609 8.9483C27.5547 8.86583 27.486 8.72837 27.5822 8.52219C27.5822 8.26103 27.5959 7.99986 27.5959 7.7387C27.5959 7.47753 27.5959 7.21637 27.5959 6.95521C27.5959 6.66655 27.5959 6.3779 27.5959 6.08924C27.5959 5.80059 27.5959 5.51193 27.5959 5.22328C27.5959 4.93462 27.5959 4.64597 27.5959 4.35731C27.5959 4.04117 27.5959 3.72502 27.5959 3.42262C27.5959 3.13397 27.5959 2.84531 27.5959 2.55666C27.5959 2.29549 27.5959 2.03433 27.5959 1.77316C27.5959 1.70444 27.5822 1.64946 27.5822 1.58073C27.4585 1.00342 27.486 0.975928 28.077 0.852219C28.1595 0.838473 28.2557 0.824728 28.3519 0.824728C29.0117 0.797237 29.1217 0.907201 29.0392 1.53949C29.0255 1.62196 29.0255 1.69069 29.0117 1.77316C29.0117 2.03433 29.0117 2.29549 29.0117 2.55666C29.0117 2.84531 29.0117 3.13397 29.0117 3.42262C29.0117 3.73877 29.0117 4.05491 29.0117 4.35731C29.0117 4.64597 29.0117 4.93462 29.0117 5.22328C29.0117 5.51193 29.0117 5.80059 29.0255 6.08924C29.2042 5.97928 29.2179 5.75935 29.3416 5.6219C29.4516 5.33324 29.5615 5.04459 29.6715 4.75593C29.7815 4.41229 29.9052 4.06866 30.0151 3.71128C30.0289 3.51884 30.0839 3.35389 30.1801 3.18895C30.2076 2.96902 30.2763 2.76284 30.3588 2.5704C30.4 2.32298 30.4825 2.08931 30.5924 1.86938C30.5924 1.85564 30.5924 1.84189 30.5924 1.82815C30.9773 0.742255 31.6646 0.494837 32.6818 1.0584C32.8192 1.12713 32.8742 1.2096 32.8467 1.3608C32.8192 1.55324 32.8192 1.74567 32.8055 1.93811C32.8467 3.01026 32.8467 4.0824 32.8055 5.15455C32.8467 5.4432 32.8467 5.73186 32.8055 6.02051C32.8467 6.30917 32.8467 6.59782 32.8055 6.88648C32.8604 7.24386 32.8467 7.61499 32.8055 7.97237C32.833 8.17855 32.9292 8.35724 32.9979 8.56343C33.1354 8.96204 32.9842 9.11324 32.5443 9.03077ZM38.9222 7.24386C38.8397 7.35382 38.771 7.47753 38.6885 7.60124C38.5648 7.86241 38.3999 8.09608 38.1937 8.30226C38.1799 8.32975 38.1799 8.3435 38.1525 8.37099C37.1903 9.63557 36.4343 9.30568 35.101 8.30226C34.7986 8.05484 34.6061 7.72495 34.4687 7.36757C34.3175 7.12015 34.235 6.85899 34.1938 6.57033C34.0975 6.32291 34.07 6.04801 34.0426 5.78684C34.0151 5.55317 33.9876 5.3195 34.0151 5.08582C33.9738 4.82466 34.0013 4.56349 34.0288 4.30233C34.0563 4.09615 34.0838 3.87622 34.1113 3.67004C34.1388 3.42262 34.1938 3.18895 34.29 2.96902C34.3312 2.7216 34.4274 2.48793 34.5649 2.268C34.6336 2.02058 34.7573 1.82815 34.9085 1.62196C35.5683 0.618546 36.4893 0.481091 37.4789 1.26458C37.6301 1.37455 37.8088 1.42953 37.9325 1.59447C38.2074 1.80066 38.3724 2.07557 38.4136 2.4192C38.5236 2.7216 38.5373 3.03775 38.5648 3.35389C38.6061 3.65629 38.6198 3.97244 38.5373 4.27484C38.4823 4.49477 38.3724 4.59099 38.1387 4.52226C37.7951 4.41229 37.4514 4.31608 37.1078 4.20611C36.9016 4.13739 36.8191 4.02742 36.9566 3.80749C37.0391 3.68378 37.0391 3.51884 37.0803 3.36764C37.0803 3.05149 37.0803 2.73535 37.0941 2.43295C36.8604 1.77316 36.8604 1.77316 36.3655 2.30924C36.3518 2.32298 36.3243 2.33673 36.3106 2.35047C36.1731 2.59789 36.0357 2.85906 35.8845 3.10648C35.8157 3.29891 35.747 3.49135 35.692 3.68378C35.6508 3.91746 35.5958 4.15113 35.5546 4.3848C35.5408 4.61848 35.5133 4.85215 35.4996 5.08582C35.4996 5.3195 35.4858 5.55317 35.4858 5.78684C35.5408 6.04801 35.5408 6.30917 35.5408 6.57033C35.5821 6.80401 35.637 7.03768 35.6783 7.27135C36.0219 8.27477 36.1319 8.28852 36.8879 7.56001C36.9154 7.53252 36.9566 7.51877 36.9841 7.49128C37.2178 7.17513 37.4927 6.90022 37.5614 6.48786C37.5889 6.33666 37.6714 6.30917 37.8226 6.36415C38.1937 6.50161 38.5373 6.66655 38.881 6.87273C39.0184 6.9827 39.0322 7.09266 38.9222 7.24386ZM39.582 5.33324C39.5957 5.55317 39.582 5.7731 39.582 6.02051C39.3758 5.93804 39.1971 5.86931 39.0047 5.81433C38.7847 5.75935 38.5236 5.71811 38.3999 5.95179C38.2624 6.21295 38.125 6.1992 37.8775 6.11673C37.4789 5.97928 37.3552 6.0755 37.1765 6.65281C37.0116 6.11673 36.9841 5.15455 37.1078 4.536C37.4377 4.63222 37.7538 4.71469 38.0837 4.81091C38.2624 4.86589 38.4274 4.85215 38.6061 4.75593C38.9085 4.60473 39.2109 4.82466 39.4995 4.87964C39.6782 4.90713 39.582 5.1683 39.582 5.33324ZM44.8053 8.15106C44.3791 9.26444 44.2005 9.30568 43.417 8.46721C43.3207 8.35724 43.2383 8.24728 43.1421 8.13732C42.8809 7.8899 42.661 7.62873 42.4548 7.34008C42.2074 7.06517 41.9599 6.80401 41.7125 6.5291C41.5751 6.51535 41.5201 6.2267 41.3139 6.40539C41.3139 6.69404 41.3139 6.9827 41.3139 7.27135C41.3139 7.61499 41.3139 7.94488 41.3139 8.28852C41.3551 8.46721 41.3964 8.6459 41.4376 8.81084C41.5338 9.16823 41.4239 9.30568 41.0665 9.30568C40.8878 9.30568 40.7091 9.27819 40.5304 9.23695C39.8706 9.07201 39.8019 8.96204 39.8844 8.28852C39.8569 7.94488 39.8431 7.61499 39.8844 7.27135C39.8431 6.9827 39.8431 6.69404 39.8844 6.40539C39.8431 6.11673 39.8431 5.82808 39.8844 5.53942C39.8431 4.24735 39.8294 2.95528 39.8844 1.64946V1.62196C39.8431 1.47076 39.8569 1.31956 39.8981 1.16836C40.0081 0.797237 40.1868 0.687273 40.5579 0.783492C40.6954 0.824728 40.8328 0.865964 40.9565 0.920946C41.5888 1.16836 41.5888 1.16836 41.4376 1.84189C41.4101 2.00684 41.3826 2.15804 41.3551 2.32298C41.3414 2.58415 41.3139 2.84531 41.3002 3.10648C41.3277 3.27142 41.3414 3.45011 41.3689 3.71128C41.6163 3.35389 41.8225 3.06524 42.0287 2.79033C42.1524 2.51542 42.3448 2.268 42.5235 2.02058C42.7847 1.60822 43.0321 1.2096 43.2933 0.797237C43.3757 0.673528 43.4719 0.536073 43.6369 0.57731C44.0767 0.687273 44.4616 0.907201 44.7365 1.27833C44.8327 1.40204 44.764 1.49826 44.6953 1.59447C44.5441 1.78691 44.3929 1.97935 44.2417 2.17178C44.063 2.46044 43.8706 2.73535 43.6094 2.95528C43.4307 3.3264 43.1558 3.64255 42.9084 3.97244C42.7434 4.2336 42.5785 4.49477 42.4135 4.75593C42.3036 4.93462 42.441 5.03084 42.5373 5.1408C42.6472 5.26451 42.7434 5.40197 42.8534 5.52568C43.1008 5.75935 43.3207 6.02051 43.5269 6.29542C43.8018 6.48786 43.9118 6.81775 44.1592 7.03768C44.3791 7.23011 44.5578 7.4363 44.8602 7.57375C45.1489 7.71121 44.8877 7.95863 44.8053 8.15106ZM51.623 9.0995C51.4168 9.33317 51.0457 9.08575 50.757 9.00328C50.3584 8.89332 49.9873 8.74212 50.001 8.21979C49.9461 7.93113 49.8911 7.64248 49.8361 7.35382C49.6574 6.8315 49.6574 6.81775 49.1076 6.96895C48.5853 7.12015 48.0629 7.2851 47.5406 7.45004C47.2932 7.61499 47.197 7.86241 47.1282 8.13732C47.0595 8.3435 46.9496 8.54968 46.9083 8.75586C46.8396 9.12699 46.6334 9.15448 46.3448 9.03077C46.1936 8.97579 46.0561 8.92081 45.9049 8.85208C45.3551 8.60466 45.3551 8.60466 45.6162 8.0411C45.7125 7.77993 45.8224 7.51877 45.9186 7.25761C45.9874 7.06517 46.0149 6.88648 45.8499 6.69404C45.74 6.57033 45.7537 6.40539 45.9599 6.33666C46.2348 6.15797 46.5097 5.97928 46.5509 5.60815C46.6609 5.23702 46.7709 4.87964 46.8808 4.50851C46.9221 4.17862 47.0458 3.87622 47.1557 3.57382C47.2107 3.3264 47.2245 3.07898 47.3757 2.85906C47.4169 2.58415 47.4856 2.32298 47.6093 2.07557C47.6643 1.67695 47.843 1.30582 47.788 0.893455C47.7605 0.742255 47.898 0.742255 48.0079 0.756001C48.7365 0.810982 49.4237 0.975928 50.0835 1.27833C50.4134 1.42953 50.2347 1.8144 50.3034 2.08931C50.3447 2.40546 50.3722 2.70786 50.4134 3.024C50.4546 3.28517 50.4959 3.54633 50.5371 3.80749C50.5784 4.04117 50.6058 4.27484 50.6471 4.50851C50.7158 4.74219 50.7708 4.97586 50.7708 5.22328C50.812 5.42946 50.867 5.63564 50.9082 5.84182C50.9495 6.04801 50.9907 6.26793 51.032 6.47411C51.1007 6.73528 51.1694 6.99644 51.2381 7.27135C51.3344 7.56001 51.4168 7.83492 51.513 8.12357C51.678 8.43972 51.8704 8.82459 51.623 9.0995ZM58.2071 8.56343C57.9322 8.75586 57.6573 8.9483 57.3549 9.11324C57.0937 9.26444 56.8875 9.15448 56.805 8.86583C56.7501 8.65964 56.6813 8.43972 56.6126 8.23353C56.4339 7.94488 56.269 7.65622 56.0903 7.36757C55.9391 7.10641 55.7879 6.84524 55.6367 6.58408C55.4717 6.25419 55.3205 6.25419 55.1556 6.58408C55.0181 6.88648 54.8532 7.16139 54.6608 7.42255C54.5233 7.72495 54.3584 8.01361 54.1522 8.27477C54.0972 8.48095 54.0422 8.67339 53.9872 8.87957C53.8773 9.26444 53.7398 9.36066 53.3687 9.23695C53.1075 9.15448 52.8601 9.04452 52.6127 8.92081C52.0491 8.63215 52.0491 8.48095 52.544 8.06859C52.7226 7.80742 52.9013 7.54626 53.08 7.2851C53.2312 7.02393 53.3824 6.76277 53.5474 6.50161C53.6848 6.26793 53.836 6.03426 53.9735 5.80059C54.0697 5.49819 54.2759 5.25077 54.4408 5.00335C54.647 4.74219 54.4408 4.54975 54.3584 4.32982C54.1247 3.99993 53.9185 3.67004 53.7398 3.29891C53.5061 2.96902 53.3 2.63913 53.1213 2.28175C53.025 2.15804 52.9563 1.99309 52.8464 1.91062C52.4752 1.6632 52.6402 1.48451 52.8876 1.27833C53.1075 1.09964 53.3274 0.907201 53.5749 0.769746C53.7948 0.659782 53.9322 0.646037 54.056 0.920946C54.2484 1.3608 54.4958 1.77316 54.7157 2.18553C54.9632 2.46044 55.0319 2.83157 55.2381 3.12022C55.3205 3.16146 55.3205 3.29891 55.4442 3.27142C55.6367 2.94153 55.8429 2.62538 56.0903 2.32298C56.2277 2.07557 56.3789 1.84189 56.5714 1.63571C56.6676 1.37455 56.8738 1.16836 56.97 0.893455C57.0662 0.632291 57.3411 0.646037 57.5748 0.72851C57.8222 0.824728 58.0696 0.948437 58.3033 1.08589C58.7157 1.31956 58.7157 1.38829 58.3995 1.78691C58.1796 2.03433 57.8634 2.19927 57.6985 2.48793C57.5336 2.79033 57.3274 3.06524 57.1074 3.34015C56.8875 3.65629 56.6813 3.97244 56.4614 4.27484C56.3377 4.49477 56.1178 4.6872 56.3377 4.96211C56.5164 5.20953 56.6813 5.48444 56.805 5.75935C56.9975 5.96553 57.08 6.2267 57.2037 6.46037C57.3824 6.65281 57.4648 6.91397 57.6023 7.14764C57.836 7.46379 58.0696 7.79368 58.3033 8.10983C58.4545 8.31601 58.3445 8.45346 58.2071 8.56343Z" fill="black"/>
<path d="M12.0635 3.79375C11.926 3.68378 11.9398 3.60131 12.0635 3.49135C12.3384 3.21644 12.5721 2.90029 12.7095 2.52917C12.9569 1.86938 12.847 1.45702 12.3246 1.00342C12.2284 0.920946 12.1184 0.838473 12.0497 0.72851C11.8435 0.343637 11.5274 0.109964 11.115 0C10.8814 0 10.6477 0 10.414 0C10.3865 0.0274909 10.3728 0.0687273 10.3315 0.0687273C9.54805 0.261164 8.76456 0.4536 7.99481 0.701019C7.5687 0.838473 7.18383 1.12713 6.68899 1.07215C6.38659 1.04466 6.33161 1.29207 6.33161 1.56698C6.33161 3.60131 6.33161 5.63564 6.33161 7.66997C6.33161 7.79368 6.3591 7.94488 6.31786 8.05484C6.2079 8.37099 6.34535 8.54968 6.59277 8.70088C6.99139 8.96204 7.40376 9.16822 7.82986 9.36066C8.14601 9.49811 8.46216 9.62182 8.80579 9.41564C8.90201 9.36066 9.01198 9.37441 9.10819 9.42939C9.49307 9.62182 9.85045 9.51186 10.1803 9.30568C11.06 8.78335 11.8023 8.10982 12.3659 7.2576C13.1219 6.07549 13.3693 4.8384 12.0635 3.79375ZM11.3762 5.95179C11.3487 6.2267 11.2662 6.48786 11.1013 6.72153C10.9913 7.02393 10.8126 7.2851 10.579 7.51877C10.3453 7.87615 10.0429 8.16481 9.71299 8.42597C9.69925 8.43971 9.69925 8.45346 9.6855 8.45346C8.54463 9.44313 7.7199 9.41564 6.57903 8.316C6.59277 8.02735 6.62026 7.72495 6.63401 7.4363C6.63401 7.17513 6.63401 6.91397 6.63401 6.6528C6.63401 6.41913 6.63401 6.18546 6.63401 5.95179C6.63401 5.69062 6.63401 5.42946 6.63401 5.16829C6.63401 4.93462 6.63401 4.70095 6.63401 4.46728C6.63401 4.17862 6.63401 3.88997 6.63401 3.60131C6.63401 3.34015 6.63401 3.07898 6.63401 2.81782C6.63401 2.58415 6.63401 2.35047 6.63401 2.1168C6.59277 1.37455 6.59277 1.37455 7.30754 1.3608C7.36252 1.3608 7.40376 1.33331 7.45874 1.31956C8.15976 0.852219 8.9295 0.646037 9.75423 0.591055C10.0429 0.563564 10.2766 0.687273 10.4415 0.948437C10.5377 1.11338 10.6752 1.26458 10.7851 1.41578C11.0875 1.59447 11.3212 1.80066 11.2387 2.19927C11.2112 2.50167 11.1013 2.77658 10.8676 2.98277C10.7302 3.3264 10.4415 3.54633 10.1528 3.76626C10.2216 4.06866 10.5652 4.10989 10.6889 4.35731C10.9363 4.54975 11.1563 4.76968 11.2662 5.07208C11.4587 5.33324 11.4449 5.63564 11.3762 5.95179Z" fill="black"/>
<path d="M67.2515 10.804C67.1965 10.5429 67.1553 10.2954 67.0866 10.048C67.0453 9.91056 66.9491 9.81434 66.7979 9.85558C66.6467 9.91056 66.7429 10.0343 66.7567 10.1167C66.8116 10.4604 66.8804 10.804 66.9216 11.1614C66.9491 11.4226 67.0591 11.5463 67.3202 11.5188C67.3202 11.3401 67.3202 11.1477 67.3202 10.969C67.2378 10.9415 67.2652 10.859 67.2515 10.804Z" fill="black"/>
<path d="M66.9492 12.5634C66.8667 12.9483 66.8255 13.3606 66.7843 13.7592C66.7705 13.883 66.8942 13.9654 67.0179 13.9929C67.1691 14.0067 67.1554 13.883 67.1829 13.7867C67.2379 13.6355 67.1829 13.4431 67.3341 13.3331C67.3341 13.072 67.3341 12.8108 67.3341 12.5496C67.2104 12.5771 67.0179 12.2885 66.9492 12.5634Z" fill="black"/>
<path d="M37.4652 10.9414C36.8604 10.3641 35.582 10.1717 34.8398 10.5703C34.771 10.6115 34.6886 10.6115 34.6198 10.6115C33.8776 10.6253 33.7951 10.694 33.5614 11.395C33.3415 12.041 33.0941 12.6733 32.8329 13.4156C32.5718 12.5359 32.2144 11.8211 32.0494 11.0376C31.9257 10.4466 31.4721 10.1167 30.9361 10.2816C30.2076 10.4878 29.4378 10.5428 28.7918 10.9689C28.6131 11.0789 28.5031 11.0514 28.3519 10.9139C27.9945 10.6115 27.5822 10.3778 27.1286 10.2404C26.8124 10.1442 26.5375 10.1991 26.2901 10.4053C26.2076 10.4741 26.1526 10.584 26.0014 10.529C25.5341 10.3778 25.2317 10.5978 24.998 10.9964C24.9018 11.1751 24.7781 11.3263 24.6681 11.4912C24.5719 11.3675 24.5032 11.2301 24.3932 11.1476C23.8709 10.7765 23.2661 10.529 22.6338 10.4328C22.0702 10.3503 21.6166 10.8452 21.0256 10.8039C20.8331 10.7902 20.6957 11.1063 20.5857 11.3263C20.5307 11.4362 20.5445 11.5874 20.4208 11.6837C20.1871 11.4912 19.9122 11.34 19.7747 11.0789C19.3486 10.2541 18.6476 10.0892 17.8091 10.2541C16.792 10.4466 15.8161 10.7352 14.8264 11.0651C14.304 11.2438 13.8092 11.4912 13.2456 11.505C12.8745 11.505 12.7371 11.6974 12.7508 12.0823C12.7783 13.2781 12.7646 14.474 12.7646 15.7248C12.5171 15.6149 12.3247 15.5324 12.146 15.4499C12.0498 15.4087 11.9673 15.3949 11.9123 15.5049C11.8711 15.6149 11.8711 15.7111 11.9811 15.7798C12.0773 15.8348 12.1872 15.876 12.2972 15.9173C12.6271 16.0547 12.7783 16.2609 12.7783 16.6595C12.7508 17.8554 12.7646 19.065 12.7646 20.2608C12.7646 20.412 12.7783 20.577 12.7233 20.7282C12.5996 21.0581 12.7371 21.3055 13.012 21.4979C13.5343 21.8416 14.0979 22.1302 14.6614 22.3776C15.0463 22.5426 15.4312 22.7213 15.8573 22.5013C15.9398 22.4601 16.0085 22.4876 16.0772 22.5151C16.5308 22.7075 16.9432 22.5701 17.3418 22.3364C18.4964 21.6354 19.4723 20.7419 20.2283 19.6148C20.2833 19.5323 20.3521 19.4361 20.462 19.2712C20.462 20.0821 20.4895 20.7832 20.4483 21.4842C20.4208 21.9515 20.627 22.2264 21.0256 22.3914C21.2318 22.4738 21.4379 22.5426 21.6579 22.6113C22.2352 22.79 22.8262 22.6525 23.4173 22.6938C24.3382 22.7488 24.7094 22.2127 24.407 21.3467C24.3107 21.0856 24.297 20.8244 24.3382 20.5082C24.4482 20.6457 24.5307 20.7282 24.6131 20.8244C25.0667 21.333 25.4929 21.8553 26.0427 22.2677C26.3038 22.4601 26.565 22.5288 26.8124 22.2677C26.9361 22.1302 27.0186 22.1989 27.1423 22.2677C27.5822 22.5288 27.8158 22.5151 28.132 22.1302C28.6131 21.5666 28.9567 20.9206 29.1354 20.2058C29.2316 19.8072 29.0942 19.5873 28.6956 19.4636C28.5306 19.4086 28.3794 19.3811 28.2557 19.2437C27.486 18.3365 26.6887 17.443 25.9052 16.5495C25.809 16.4396 25.7815 16.3571 25.864 16.2059C26.6062 15.0101 27.4859 13.9104 28.3657 12.7695C29.1354 14.6527 29.8777 16.4946 30.6474 18.3365C30.7986 18.6801 30.8124 18.9825 30.6886 19.3399C30.4825 19.9447 30.3588 20.5632 30.0014 21.113C29.7952 21.4429 29.8089 21.8141 30.1251 22.0752C30.7161 22.5563 31.4309 22.79 32.1869 22.8175C32.4068 22.8312 32.6268 22.7213 32.8742 22.7762C33.6439 22.9274 33.9738 22.68 34.0288 21.8828C34.0563 21.5941 34.0975 21.3192 34.1937 21.0443C34.826 19.2299 35.4308 17.388 36.1044 15.5874C36.558 14.3778 36.7779 13.0719 37.5751 11.9861C37.8088 11.6149 37.7126 11.1888 37.4652 10.9414ZM19.4174 17.7042C19.4036 18.1303 19.2662 18.5289 19.0462 18.9C18.9225 19.2437 18.7163 19.5461 18.4827 19.821C18.2353 20.2058 17.9191 20.5495 17.5617 20.8519C17.3555 21.0993 17.1081 21.2917 16.847 21.4704C16.8332 21.4842 16.8195 21.5117 16.792 21.5254C15.6236 22.4464 15.4174 22.4601 14.0566 21.7453C13.8779 21.6491 13.713 21.5529 13.548 21.4567C13.3831 21.3605 13.2319 21.2642 13.067 21.1543C12.9158 21.0581 12.8883 20.9206 12.9982 20.7694C13.012 20.4808 13.0257 20.1921 13.0532 19.9034C13.012 19.5598 13.012 19.2162 13.0532 18.8863C13.012 18.5152 13.012 18.1578 13.0532 17.7866C13.0395 16.7007 13.0257 15.6149 13.0257 14.5152C13.0257 13.8005 13.0395 13.0857 13.0532 12.3847C13.012 11.7386 13.0257 11.6974 13.6718 11.7661C13.9467 11.7936 14.1391 11.7249 14.359 11.6012C15.1838 11.1476 16.0772 10.8727 17.0119 10.7765C17.548 10.7215 17.9741 10.8314 18.2215 11.395C18.3865 11.7661 18.8401 11.9448 19.06 12.3022C19.3486 12.5496 19.1974 12.8658 19.1837 13.1682C19.115 13.5255 18.9363 13.8279 18.7026 14.0891C18.4552 14.4602 18.139 14.7626 17.7817 15.0375C17.9054 15.3125 18.2353 15.3949 18.4002 15.6286C18.7438 15.8898 19.0187 16.1922 19.2112 16.577C19.4723 16.9069 19.4586 17.3055 19.4174 17.7042ZM20.4345 15.6973C20.407 15.6973 20.3658 15.6973 20.3658 15.6836C20.1734 15.3537 19.5823 15.2162 19.6785 14.8314C19.761 14.5015 20.1734 14.2541 20.4345 13.8417C20.4345 14.5152 20.4345 15.1063 20.4345 15.6973ZM27.1286 12.2197C26.9361 12.5496 26.7025 12.852 26.455 13.1407C26.2489 13.4156 26.0289 13.6767 25.8227 13.9517C25.6166 14.2403 25.3966 14.529 25.1905 14.8039C24.9705 15.12 24.7643 15.4224 24.5444 15.7386C24.4482 16.041 24.1458 16.2471 24.1183 16.5908C24.4482 16.9757 24.7918 17.3605 25.1217 17.7454C25.4516 18.0753 25.7403 18.4189 26.0152 18.7901C26.4138 19.1062 26.675 19.5461 27.0323 19.8897C27.6371 19.9722 27.6646 20.0134 27.4447 20.5632C27.4035 20.6869 27.3347 20.7969 27.266 20.9069C27.1423 21.278 26.9224 21.5941 26.6887 21.9103C26.5375 22.1165 26.3588 22.1302 26.1664 21.9653C25.7815 21.6491 25.4379 21.3055 25.1355 20.9206C24.8881 20.7007 24.6956 20.4395 24.5032 20.1784C24.1733 19.7935 23.8297 19.4086 23.4998 19.0375C23.2523 18.8725 23.1149 18.5701 22.7575 18.4739C22.7438 18.6114 22.73 18.7488 22.7163 18.8725C22.7163 19.1887 22.7163 19.5048 22.7163 19.8072C22.7163 20.0959 22.7163 20.3845 22.7163 20.6732C22.7438 20.9618 22.7163 21.2505 22.8262 21.5254C23.0599 22.1577 22.8812 22.4189 22.2214 22.3639C21.8091 22.3226 21.3967 22.2402 21.0393 22.0202C20.8881 21.924 20.7094 21.8416 20.7644 21.6079C20.7644 21.2642 20.7644 20.9344 20.7644 20.5907C20.7644 20.3296 20.7644 20.0684 20.7644 19.8072C20.7644 19.4911 20.7644 19.1749 20.7644 18.8725C20.7644 18.5289 20.7644 18.199 20.7644 17.8554C20.7644 17.4567 20.7644 17.0719 20.7644 16.6733C20.7644 16.3571 20.7644 16.041 20.7644 15.7386C20.7644 15.4499 20.7644 15.1613 20.7644 14.8726C20.7369 14.5839 20.7369 14.2953 20.7644 14.0066C20.7369 13.6355 20.7369 13.2781 20.7644 12.907C20.7644 12.6458 20.7644 12.3847 20.7644 12.1235C20.7644 11.9861 20.7369 11.8349 20.7644 11.6974C20.8469 11.1201 21.1768 10.8727 21.7266 11.0376C22.0565 11.1338 22.3864 11.2713 22.7025 11.4225C22.9912 11.5599 23.1699 11.7799 22.9774 12.1235C22.9912 12.3984 22.9087 12.6458 22.84 12.907C22.7987 13.2781 22.7575 13.6355 22.73 14.0066C22.7438 14.2678 22.7438 14.529 22.8262 14.7901C22.8537 14.7626 22.895 14.7351 22.9225 14.7077C23.1149 14.419 23.3073 14.1303 23.486 13.8554C23.6647 13.5118 23.8846 13.1957 24.1183 12.8795C24.2833 12.5771 24.4619 12.2885 24.6819 12.0273C24.9155 11.6699 25.1355 11.2988 25.3691 10.9551C25.4929 10.7765 25.6715 10.7215 25.8777 10.7902C26.3726 10.9551 26.7987 11.2163 27.1561 11.5874C27.3485 11.7936 27.376 12.0135 27.1286 12.2197ZM36.0769 11.8898C35.9944 12.0823 35.8569 12.2472 35.7057 12.3847C35.5683 12.7283 35.4308 13.0582 35.2934 13.4018C35.1834 13.7455 35.0597 14.0891 34.9497 14.4327C34.8398 14.7489 34.7298 15.0513 34.6198 15.3674C34.5374 15.6836 34.4412 15.9997 34.29 16.3021C34.2212 16.6183 34.125 16.9069 33.9738 17.1956C33.9051 17.5117 33.7951 17.8141 33.6577 18.1028C33.5752 18.4877 33.4377 18.845 33.2728 19.2024C33.1491 19.5736 33.0254 19.9309 32.9017 20.3021C32.7917 20.6182 32.6817 20.9206 32.5718 21.2368C32.5443 21.5117 32.503 21.7728 32.4756 22.0477C32.4343 22.3776 32.2969 22.5563 31.9395 22.4876C31.4172 22.3914 30.9223 22.2402 30.4825 21.9515C30.2213 21.7866 30.0701 21.5529 30.2763 21.2368C30.4275 20.8931 30.5924 20.5632 30.7436 20.2196C30.8124 19.8622 30.9086 19.5323 31.046 19.2024C31.1972 18.8725 31.0598 18.5701 30.9498 18.2677C30.7849 17.9103 30.6199 17.553 30.51 17.1681C30.3725 16.9207 30.2625 16.6595 30.1938 16.3983C29.9464 15.9173 29.754 15.4087 29.5753 14.9001C29.4516 14.6114 29.3416 14.3365 29.2179 14.0479C29.0667 13.773 28.9567 13.4706 28.8605 13.1682C28.7093 12.8795 28.6131 12.5496 28.3519 12.3159C28.0083 11.8898 28.0083 11.7799 28.4619 11.4912C28.8742 11.2301 29.2866 10.9826 29.7677 10.8727C30.1663 10.7765 30.3862 10.8864 30.51 11.285C30.6062 11.6287 30.7024 11.9586 30.7986 12.3022C30.9086 12.5909 31.0048 12.8795 31.1148 13.1682C31.2247 13.4568 31.3209 13.7455 31.4309 14.0341C31.5271 14.2953 31.6096 14.5565 31.7058 14.8314C31.857 15.1887 31.9945 15.5599 32.1732 15.986C32.2831 15.7386 32.3656 15.5599 32.4481 15.3674C32.5718 15.0513 32.6817 14.7489 32.8054 14.4327C32.8879 14.0754 33.0254 13.7455 33.1903 13.4156C33.3003 12.9895 33.4652 12.5909 33.6439 12.1922C33.7401 11.8898 33.8364 11.5737 33.9326 11.2713C34.015 11.0101 34.1937 10.9139 34.4686 10.9139C34.991 10.9277 35.4721 11.0789 35.9119 11.3263C36.1456 11.4225 36.1868 11.6424 36.0769 11.8898Z" fill="black"/>
<path d="M53.5059 20.2746C52.6537 17.6217 52.2138 14.8726 51.9389 12.1098C51.884 11.5187 51.664 11.2163 51.128 11.0377C50.2895 10.7627 49.451 10.5291 48.585 10.4329C48.3651 10.4054 48.0902 10.3779 47.939 10.5291C47.7466 10.7353 47.5404 10.7215 47.3067 10.7215C46.8119 10.7215 46.6744 10.8452 46.7019 11.3538C46.7294 11.7249 46.6469 12.0823 46.5507 12.4259C46.0971 13.9792 45.616 15.5187 45.1899 17.0719C45.0525 17.5805 44.86 17.9791 44.3514 18.199C44.214 18.254 44.1315 18.2815 44.0078 18.2128C43.6779 18.0478 43.348 17.8966 42.9906 17.8004C42.7295 17.7317 42.4821 17.7729 42.3446 18.0203C42.2484 18.1853 42.1522 18.1853 41.9872 18.1441C41.4786 18.0066 41.3 18.1028 41.1762 18.6251C41.0938 18.9413 40.9563 19.2025 40.6677 19.4499C40.379 18.199 40.3653 17.0032 40.5302 15.7386C41.1213 16.041 41.6986 16.1922 42.2759 16.3297C42.4546 16.3709 42.6608 16.4396 42.812 16.3297C42.9906 16.2059 43.1281 16.2609 43.293 16.3022C44.0078 16.4671 44.269 16.3159 44.4614 15.6011C44.6401 14.9276 44.5026 14.2541 44.4202 13.5806C44.3652 13.072 44.2965 12.5634 43.9941 12.1373C43.4168 11.3401 42.5645 10.9277 41.6986 10.5703C41.0938 10.3091 40.5027 10.4054 39.9254 10.6803C39.8979 10.694 39.8704 10.7078 39.8567 10.7078C38.7021 10.749 38.056 11.505 37.5474 12.4122C36.9701 13.4294 36.6815 14.529 36.5853 15.6836C36.4753 17.0444 36.5578 18.3915 37.0801 19.6835C37.4237 20.522 37.8911 21.2918 38.7021 21.7316C39.513 22.1577 40.324 22.735 41.3412 22.4189C41.3962 22.4051 41.4649 22.4464 41.5199 22.4601C41.9322 22.6251 42.3171 22.5151 42.6745 22.2952C42.9632 22.1165 43.2243 21.8966 43.458 21.6491C43.513 21.5942 43.5542 21.4842 43.7054 21.5942C44.1178 21.9515 44.6401 22.1165 45.1349 22.2952C45.3274 22.3639 45.561 22.4876 45.7397 22.3777C46.0146 22.2127 46.2483 22.3089 46.5095 22.3777C46.9493 22.4876 47.3067 22.2952 47.4167 21.8553C47.5404 21.3742 47.7603 20.9206 47.9115 20.4533C47.939 20.3571 47.9528 20.2471 48.0627 20.1921C48.4751 19.9859 48.9287 19.7523 49.341 19.7935C49.5472 19.821 49.5197 20.3846 49.5885 20.7145C49.6022 20.7832 49.6297 20.8382 49.6297 20.9069C49.6434 21.5942 50.0558 21.9241 50.6469 22.1852C51.4304 22.5289 52.2551 22.4051 53.0523 22.4876C53.5609 22.5289 53.6846 22.3639 53.8083 21.8553C53.9733 21.2505 53.6709 20.7969 53.5059 20.2746ZM43.293 19.7248C43.1831 20.0272 43.0319 20.2883 42.812 20.522C42.647 20.8657 42.3858 21.1268 42.1109 21.388C41.9872 21.5117 41.8635 21.6491 41.7398 21.7729C41.2725 22.2127 40.7776 22.3777 40.1591 22.0753C39.6917 21.8416 39.1419 21.7591 38.7433 21.4017C38.3584 21.1681 38.056 20.8382 37.8361 20.4533C37.5612 20.0822 37.355 19.6698 37.245 19.2162C37.0801 18.7901 36.9564 18.3365 36.9426 17.8691C36.8327 17.4568 36.8464 17.0307 36.8739 16.6183C36.8602 16.2472 36.8464 15.8761 36.9289 15.5187C36.9426 15.2025 36.9839 14.8864 37.0801 14.584C37.1626 14.0617 37.3275 13.5668 37.5749 13.0995C37.6711 12.7421 37.8773 12.4397 38.0973 12.151C38.8258 11.0239 39.7467 10.7765 40.9426 11.3538C41.3549 11.5462 41.6986 11.8211 42.0697 12.0823C42.4958 12.371 42.7432 12.7558 42.7845 13.2644C42.9082 13.6218 42.9357 13.9929 42.9494 14.3641C43.0456 14.6939 43.0319 15.0376 43.0044 15.3812C43.0044 15.4499 43.0044 15.5049 42.9906 15.5737C42.8394 16.1647 42.7845 16.1922 42.1797 16.041C41.7398 15.931 41.3 15.8073 40.8876 15.6149C40.7226 15.5324 40.5302 15.4499 40.7364 15.2163C40.8738 14.9551 40.8876 14.6527 40.9288 14.3641C40.9288 14.0067 40.9288 13.6493 40.9288 13.2919C40.8738 13.0582 40.9013 12.7283 40.6677 12.6459C40.4752 12.5771 40.3378 12.8795 40.1591 12.9895C40.0629 13.0445 40.0491 13.1545 39.9666 13.2094C39.6917 13.6768 39.4168 14.1579 39.2519 14.6802C39.1832 14.9689 39.1282 15.2575 39.0594 15.5599C39.0182 15.9173 38.9632 16.2884 38.922 16.6458C38.922 17.0582 38.9082 17.4843 38.9082 17.8966C38.9495 18.3365 38.9907 18.7763 39.0457 19.2299C39.1419 19.5873 39.2519 19.9447 39.3481 20.3021C39.7055 20.7969 39.7192 20.8107 40.2415 20.4808C40.5165 20.1921 40.7914 19.9172 41.0663 19.6286C41.2587 19.3124 41.4924 19.01 41.5474 18.6251C41.5749 18.419 41.7261 18.3915 41.9048 18.4465C42.4546 18.6251 42.9769 18.8726 43.4442 19.2025C43.7054 19.3811 43.4168 19.5598 43.293 19.7248ZM52.2551 22.0065C52.2413 22.1715 52.1314 22.1852 52.0077 22.1715C51.3891 22.1165 50.8118 21.9378 50.2757 21.6217C50.097 21.5117 50.0146 21.333 50.0146 21.1268C49.9596 20.7557 49.8909 20.3983 49.8359 20.0272C49.7809 19.8347 49.7122 19.6561 49.6709 19.4636C49.616 19.1612 49.451 19.0925 49.1761 19.1612C48.3651 19.3537 47.5679 19.6011 46.7844 19.8897C46.5095 19.9997 46.4957 20.2746 46.372 20.4945C46.2896 20.7282 46.1933 20.9756 46.1109 21.2093C46.0696 21.3055 46.0146 21.4017 46.0146 21.4979C45.9597 22.1577 45.7122 22.1715 45.0937 21.9378C44.7638 21.8141 44.4614 21.6629 44.1453 21.5117C44.0078 21.443 43.8841 21.3742 44.0078 21.1955C44.0765 20.8794 44.1728 20.5907 44.3377 20.3158C44.3514 20.0822 44.4752 19.9035 44.5714 19.711C44.6538 19.4224 44.805 19.12 44.5026 18.8451C44.3514 18.6526 44.4064 18.4877 44.6126 18.364C44.8325 18.2265 45.0525 18.1028 45.2724 17.9791C45.3549 17.6217 45.4373 17.2781 45.5885 16.9345C45.6298 16.6458 45.7122 16.3709 45.836 16.096C45.9047 15.7386 46.0009 15.3812 46.1384 15.0513C46.1796 14.7627 46.2621 14.4878 46.3858 14.2129C46.4545 13.8555 46.5507 13.4981 46.6882 13.1682C46.7569 12.907 46.8256 12.6596 46.8944 12.3985C47.0043 12.0411 47.0593 11.6837 47.0181 11.3126C46.9906 11.0651 47.073 10.9552 47.3342 10.9689C48.3101 11.0377 49.2311 11.2851 50.1383 11.6562C50.5094 11.8074 50.3445 12.1373 50.3857 12.3985C50.4544 12.7009 50.4819 13.017 50.4957 13.3331C50.5781 13.6493 50.6194 13.9654 50.6331 14.2816C50.7293 14.639 50.7843 15.0101 50.7981 15.3812C50.8943 15.6836 50.9493 15.9998 50.963 16.3159C51.1417 16.852 51.1417 17.4155 51.2929 17.9654C51.3616 18.254 51.4304 18.5427 51.4991 18.8313C51.5816 19.1612 51.6778 19.4911 51.7603 19.821C51.884 20.1921 52.0214 20.5633 52.1451 20.9344C52.3925 21.2918 52.2826 21.6491 52.2551 22.0065Z" fill="black"/>
<path d="M4.51728 5.01706C4.77845 5.01706 5.03961 5.00331 5.30077 5.00331C5.42448 5.00331 5.54819 4.97582 5.57568 4.83836C5.64441 4.46724 5.5207 4.13735 5.35576 3.83495C5.2183 3.58753 4.98463 3.77996 4.79219 3.8212C4.32485 3.91742 4.25612 3.84869 4.37983 3.3676C4.42106 3.2164 4.48979 3.05145 4.28361 2.96898C3.96746 2.81778 3.61008 2.62534 3.28019 2.77654C3.01903 2.90025 3.14274 3.27138 3.1015 3.53255C3.1015 3.54629 3.1015 3.56004 3.1015 3.57378C3.07401 3.68375 3.17023 3.84869 2.93655 3.84869C2.71663 3.84869 2.77161 3.69749 2.75786 3.58753C2.73037 3.38135 2.82659 3.13393 2.62041 3.01022C2.31801 2.81778 1.96063 2.65284 1.61699 2.79029C1.2871 2.92775 1.47953 3.27138 1.49328 3.5188C1.49328 3.54629 1.49328 3.57378 1.50703 3.60127C1.54826 3.79371 1.49328 3.88993 1.27335 3.87618C0.984698 3.86244 0.696044 3.88993 0.407389 3.90367C0.104989 3.91742 0.00877037 4.09611 0.0637522 4.38476C0.187461 4.97582 0.531098 5.19575 1.10841 5.05829C1.16339 5.04455 1.21837 5.04455 1.25961 5.0308C1.41081 5.01706 1.50703 5.0308 1.50703 5.22324C1.50703 5.37444 1.47953 5.47066 1.30084 5.45691C1.10841 5.44317 0.902226 5.45691 0.709789 5.45691C0.297425 5.47066 0.15997 5.73182 0.366152 6.0892C0.489862 6.25415 0.627316 6.41909 0.751025 6.58404C0.860989 6.72149 0.998444 6.77648 1.16339 6.70775C1.27335 6.66651 1.42455 6.57029 1.47953 6.63902C1.57575 6.76273 1.54826 6.94142 1.45204 7.07888C1.31459 7.28506 1.39706 7.45 1.57575 7.58746C1.72695 7.69742 1.8919 7.83488 2.05684 7.93109C2.40048 8.13728 2.67539 7.98608 2.70288 7.58746C2.71663 7.36753 2.70288 7.1476 2.71663 6.92768C2.71663 6.79022 2.63415 6.59778 2.90906 6.59778C3.18397 6.59778 3.08775 6.77648 3.11525 6.92768C3.11525 7.02389 3.12899 7.13386 3.08775 7.23008C2.89532 7.79364 3.01903 7.86237 3.54135 8.12353C4.07743 8.39844 4.25612 8.28848 4.26986 7.69742C4.26986 7.57371 4.28361 7.43626 4.28361 7.31255C4.29736 6.59778 4.29736 6.59778 5.01212 6.68026C5.09459 6.694 5.16332 6.694 5.24579 6.694C5.5207 6.70775 5.61692 6.57029 5.58943 6.30913C5.53445 5.62186 5.34201 5.42942 4.66848 5.40193C4.6135 5.40193 4.55852 5.40193 4.51728 5.40193C4.36608 5.41567 4.29736 5.34695 4.3111 5.19575C4.3111 5.01706 4.40732 5.01706 4.51728 5.01706ZM3.1015 5.15451C3.1015 5.29197 3.11525 5.38818 2.9503 5.38818C2.84034 5.38818 2.73037 5.40193 2.75786 5.23698C2.77161 5.12702 2.74412 5.00331 2.92281 5.00331C3.06026 5.01706 3.12899 5.04455 3.1015 5.15451Z" fill="black"/>
<path d="M49.5888 27.491C49.1352 27.3536 48.6816 27.2024 48.2143 27.0512C48.1318 27.0237 48.0218 26.9687 47.9806 27.0924C47.9394 27.2161 48.0218 27.2986 48.1181 27.3398C48.6129 27.5323 49.1215 27.6972 49.6301 27.8209C49.7263 27.8484 49.8225 27.8484 49.8225 27.711C49.8088 27.5735 49.7125 27.5185 49.5888 27.491Z" fill="black"/>
<path d="M64.5163 6.03435C64.5988 6.10307 64.7088 6.14431 64.7637 5.96562C64.75 5.93813 64.7363 5.88315 64.695 5.84191C64.2827 5.4158 63.8428 5.00344 63.348 4.6598C63.2655 4.60482 63.1693 4.56358 63.1005 4.6598C63.0456 4.74227 63.1143 4.82475 63.183 4.89347C63.4442 5.1134 63.7053 5.31958 63.9528 5.53951C64.1589 5.69071 64.3239 5.8694 64.5163 6.03435Z" fill="black"/>
<path d="M43.678 24.9069C43.2106 24.6045 42.7295 24.3158 42.2484 24.0272C42.1797 23.9859 42.111 23.9309 42.0423 24.0134C41.9598 24.1096 42.0148 24.1921 42.0972 24.2471C42.6058 24.5632 43.1007 24.8931 43.623 25.1955C43.7192 25.2642 43.8292 25.2368 43.8429 25.0718C43.7879 25.0168 43.7467 24.9481 43.678 24.9069Z" fill="black"/>
<path d="M66.1654 8.43966C66.2203 8.54962 66.2616 8.68708 66.399 8.74206C66.4953 8.78329 66.6052 8.79704 66.6052 8.61835C66.3441 8.09602 66.0966 7.5462 65.698 7.0926C65.643 7.03762 65.5606 7.01013 65.4918 7.07886C65.4231 7.16133 65.4781 7.23006 65.5193 7.28504C65.753 7.66991 65.9867 8.04104 66.1654 8.43966Z" fill="black"/>
<path d="M46.6474 26.4325C46.1525 26.1988 45.6714 25.9651 45.1766 25.7177C45.1079 25.6765 45.0117 25.6627 44.9704 25.7452C44.9154 25.8414 44.9842 25.9377 45.0529 25.9789C45.5752 26.2401 46.0975 26.4875 46.6336 26.7486C46.7298 26.8036 46.8123 26.7624 46.8261 26.6524C46.7986 26.5425 46.7298 26.4737 46.6474 26.4325Z" fill="black"/>
<path d="M55.1282 27.862C54.7434 27.9033 54.3447 27.9445 53.9599 27.972C53.8774 27.9857 53.7949 27.9995 53.7812 28.0957C53.7674 28.1782 53.8224 28.2469 53.8911 28.2881C53.9874 28.3431 54.0836 28.3431 54.1935 28.3431C54.5234 28.3019 54.8396 28.2744 55.1695 28.2332C55.2657 28.2194 55.4444 28.2606 55.4444 28.082C55.4306 27.917 55.2932 27.8483 55.1282 27.862Z" fill="black"/>
<path d="M61.9734 3.97242C62.0421 3.84871 61.9459 3.76624 61.8497 3.725C61.3823 3.47758 60.8737 3.28515 60.4064 3.18893C60.2552 3.17518 60.1315 3.13395 60.1177 3.25766C60.104 3.40886 60.2277 3.49133 60.3652 3.51882C60.8463 3.61504 61.2861 3.77998 61.726 3.98617C61.8084 4.01366 61.9047 4.09613 61.9734 3.97242Z" fill="black"/>
<path d="M59.54 26.034C59.485 26.0615 59.4163 26.089 59.3613 26.1302C59.1139 26.2814 58.8802 26.4326 58.6466 26.5838C58.5503 26.6525 58.4266 26.7075 58.5228 26.845C58.6053 26.9687 58.7153 27.0237 58.8527 26.9412C59.1414 26.7625 59.4163 26.5838 59.705 26.4051C59.8012 26.3501 59.8287 26.2814 59.7874 26.1715C59.7462 26.1027 59.6637 26.0615 59.54 26.034Z" fill="black"/>
<path d="M52.3515 27.972C52.0079 27.9445 51.6505 27.8895 51.3069 27.862C51.1832 27.8483 51.0182 27.7383 50.977 27.9308C50.9357 28.0957 51.1144 28.1782 51.2519 28.1919C51.5818 28.2469 51.9254 28.2744 52.2553 28.3156V28.3019C52.2828 28.3019 52.3103 28.3156 52.3378 28.3019C52.489 28.2882 52.7227 28.4256 52.7501 28.2332C52.7914 28.027 52.544 27.9858 52.3515 27.972Z" fill="black"/>
<path d="M65.877 16.962C65.767 16.9345 65.712 17.0032 65.6845 17.0994C65.5608 17.4018 65.4508 17.7042 65.3271 17.9929C65.2447 18.1853 65.3684 18.2815 65.5471 18.3503C65.5883 18.3365 65.657 18.3228 65.6708 18.2953C65.822 17.9379 65.9594 17.5805 66.0831 17.2094C66.1244 17.0857 66.0007 16.9895 65.877 16.962Z" fill="black"/>
<path d="M66.6328 14.7902C66.5503 14.7764 66.4816 14.8039 66.4541 14.9001C66.3441 15.2438 66.2204 15.5874 66.1242 15.9311C66.083 16.096 66.2067 16.1922 66.3716 16.2197C66.3991 16.206 66.4541 16.1922 66.4678 16.1647C66.619 15.7799 66.7702 15.395 66.839 14.9964C66.8527 14.9001 66.7427 14.8039 66.6328 14.7902Z" fill="black"/>
<path d="M63.9251 21.0442C63.8838 21.058 63.8289 21.058 63.8151 21.0855C63.6089 21.4016 63.4165 21.7177 63.2241 22.0476C63.1691 22.1576 63.2653 22.2401 63.3615 22.2951C63.4577 22.35 63.5402 22.3363 63.5952 22.2401C63.7739 21.9514 63.9663 21.6628 64.1175 21.3741C64.2412 21.1679 64.09 21.0992 63.9251 21.0442Z" fill="black"/>
<path d="M57.5199 27.1748C57.2175 27.2848 56.9014 27.381 56.5852 27.5047C56.4753 27.546 56.2828 27.5185 56.3241 27.7247C56.3653 27.9171 56.5302 27.9446 56.6952 27.8896C57.0113 27.7796 57.3275 27.6697 57.6436 27.546C57.7261 27.5185 57.8361 27.4772 57.7948 27.3673C57.7536 27.2573 57.6711 27.1748 57.5199 27.1748Z" fill="black"/>
<path d="M65.0112 19.0512C64.9012 19.01 64.8462 19.0925 64.805 19.1749C64.6675 19.4636 64.5026 19.7522 64.3789 20.0546C64.2964 20.2471 64.4201 20.3433 64.5988 20.3983C64.6263 20.3845 64.6813 20.3845 64.695 20.357C64.9012 20.0134 65.1074 19.6698 65.2036 19.2711C65.2311 19.1612 65.1074 19.0925 65.0112 19.0512Z" fill="black"/>
<path d="M62.7982 22.9275C62.702 22.8588 62.6195 22.9 62.5645 22.9825C62.3584 23.2299 62.1522 23.4773 61.9597 23.7522C61.8085 23.9584 61.9735 24.0409 62.1384 24.1233C62.1659 24.1096 62.2072 24.1096 62.2209 24.0959C62.4958 23.8209 62.7432 23.5185 62.9357 23.1887C62.9907 23.0787 62.8944 22.9962 62.7982 22.9275Z" fill="black"/>
<path d="M61.107 24.6732C60.8871 24.8931 60.6534 25.0993 60.4198 25.3192C60.3373 25.3879 60.3098 25.4704 60.3648 25.5529C60.4198 25.6216 60.4885 25.6903 60.6122 25.6903C60.6534 25.6628 60.7084 25.6353 60.7497 25.5941C60.9696 25.3879 61.1895 25.1817 61.4094 24.9756C61.5057 24.8793 61.5469 24.7831 61.4369 24.6732C61.327 24.5769 61.217 24.5494 61.107 24.6732Z" fill="black"/>
<path d="M1.98792 11.3675C1.98792 11.2713 1.94668 11.1613 1.83672 11.1751C1.69927 11.1751 1.68552 11.2988 1.69927 11.4088C1.72676 11.9036 1.76799 12.3847 1.8917 12.8658C1.91919 12.962 1.94668 13.072 2.05665 13.0445C2.15287 13.0307 2.18036 12.9208 2.15287 12.7283C2.07039 12.3435 1.98792 11.8486 1.98792 11.3675Z" fill="black"/>
<path d="M1.93321 9.96558C2.02943 9.99308 2.07066 9.9106 2.08441 9.82813C2.18063 9.34704 2.30433 8.86595 2.45553 8.3986C2.48303 8.30238 2.45553 8.20617 2.35932 8.16493C2.23561 8.12369 2.20812 8.23366 2.18063 8.31613C2.02943 8.75598 1.90572 9.20958 1.83699 9.67693C1.82324 9.78689 1.76826 9.92435 1.93321 9.96558Z" fill="black"/>
<path d="M4.86121 17.0994C4.61379 16.907 4.38012 16.7008 4.14645 16.4946C4.06398 16.4259 3.99525 16.2747 3.87154 16.4122C3.77532 16.5221 3.8303 16.6321 3.91278 16.7283C4.17394 17.0032 4.46259 17.2506 4.76499 17.4706C4.94368 17.5943 4.99867 17.4981 5.02616 17.3469C5.01241 17.2369 4.94369 17.1682 4.86121 17.0994Z" fill="black"/>
<path d="M6.79919 17.8691C6.56552 17.8691 6.33184 17.8141 6.11192 17.7454C5.98821 17.7042 5.83701 17.6492 5.79577 17.8279C5.74079 18.0066 5.8645 18.0753 6.0157 18.1165C6.26312 18.1852 6.51054 18.254 6.78545 18.2677C6.90915 18.254 7.11534 18.3502 7.12908 18.1028C7.12908 17.8554 6.95039 17.8691 6.79919 17.8691Z" fill="black"/>
<path d="M10.8127 15.4087C10.4278 15.5325 10.0979 15.7524 9.80927 16.041C9.74054 16.1098 9.74054 16.206 9.79552 16.2885C9.82301 16.3297 9.86425 16.3434 9.93298 16.3984C10.2354 16.0685 10.634 15.9173 11.0051 15.6974C11.0738 15.6562 11.0464 15.5462 11.0189 15.4775C10.9776 15.395 10.9089 15.3812 10.8127 15.4087Z" fill="black"/>
<path d="M2.62048 14.2403C2.57925 14.1578 2.53801 14.0479 2.42805 14.1166C2.33183 14.1578 2.31808 14.2541 2.35932 14.3503C2.52427 14.8039 2.75794 15.2162 3.0191 15.6286C3.06034 15.6836 3.11532 15.7248 3.18405 15.6836C3.25278 15.6561 3.26652 15.5874 3.26652 15.4912C3.25278 15.4637 3.23903 15.3949 3.21154 15.34C2.99161 14.9826 2.78543 14.6252 2.62048 14.2403Z" fill="black"/>
<path d="M8.94331 16.9895C8.6684 17.2781 8.33851 17.4843 8.00862 17.6905C7.9124 17.7455 7.93989 17.8554 7.95364 17.9379C7.98113 18.0066 8.03611 18.0341 8.10484 18.0204C8.31102 18.0066 9.08077 17.4156 9.13575 17.2231C9.16324 17.1407 9.16324 17.0582 9.10826 17.0032C9.08077 16.9482 9.01204 16.9345 8.94331 16.9895Z" fill="black"/>
<path d="M49.2039 4.60466C49.1351 4.37098 49.0939 4.13731 49.1214 3.90364C49.0389 3.61498 49.0389 3.32633 49.0527 3.03767C48.9839 2.94145 49.0939 2.79025 48.9565 2.72153C48.9427 2.72153 48.8877 2.83149 48.8465 2.88647C48.7503 3.14764 48.6541 3.39505 48.5578 3.65622C48.4479 3.98611 48.3379 4.32975 48.2279 4.65964C48.1317 4.97578 48.0493 5.29193 47.953 5.60807C47.9118 5.88298 48.008 5.95171 48.2692 5.84175C48.4341 5.77302 48.6403 5.74553 48.819 5.70429C48.9977 5.56684 49.4238 5.75927 49.3551 5.29193C49.2451 5.08575 49.2039 4.85207 49.2039 4.60466Z" fill="black"/>
<path d="M24.7779 3.03777C24.6954 2.72162 24.6267 2.40548 24.5442 2.10308C24.1868 1.58075 24.0768 1.53951 23.692 1.88315C23.6095 2.06184 23.527 2.24053 23.4446 2.43297C23.3896 2.6254 23.3758 2.96904 23.1147 2.88657C22.7985 2.7766 22.7298 2.9278 22.6473 3.13399C22.5923 3.36766 22.5374 3.60133 22.4824 3.835C22.4549 4.12366 22.4274 4.41231 22.3999 4.70097C22.3999 4.98962 22.3999 5.27828 22.3999 5.56693C22.4274 5.8281 22.4411 6.08926 22.4686 6.35042C22.5236 6.61159 22.5786 6.85901 22.6336 7.12017C22.7023 7.29886 22.771 7.4913 22.8398 7.66999C23.0184 7.87617 23.1422 8.13733 23.4583 8.19232C23.5545 8.19232 23.637 8.20606 23.7332 8.20606C23.9944 8.0961 24.1456 7.87617 24.3105 7.66999C24.393 7.43632 24.4755 7.20264 24.5717 6.96897C24.6267 6.7353 24.6816 6.50162 24.7229 6.26795C24.7641 5.9793 24.7916 5.69064 24.8328 5.40199C24.8466 5.11333 24.8603 4.83842 24.8878 4.54977C24.8878 4.3161 24.8878 4.08242 24.8878 3.84875C24.8191 3.5601 24.8054 3.29893 24.7779 3.03777ZM24.2555 6.80402C24.2555 6.81777 24.2143 6.83152 24.1593 6.85901C23.8707 5.70439 23.8569 4.54977 24.0906 3.39515C24.1181 3.25769 24.1731 3.20271 24.3243 3.20271C24.4755 3.20271 24.4892 3.28519 24.503 3.39515C24.5717 4.54977 24.5579 5.69064 24.2555 6.80402Z" fill="black"/>
<path d="M9.90552 4.90716C9.47941 5.00338 9.08079 5.19581 8.66842 5.33327C8.46224 5.53945 8.07737 5.56694 8.03613 5.93807C8.03613 6.17174 8.03613 6.40541 8.03613 6.63909C8.03613 6.90025 8.03613 7.16141 8.03613 7.42258C8.03613 7.47756 8.06362 7.53254 8.04988 7.57378C7.9949 7.91741 8.17359 7.90367 8.39351 7.79371C8.61344 7.68374 8.80588 7.54629 9.02581 7.40883C9.25948 7.12018 9.5069 6.81778 9.74057 6.52912C9.85053 6.32294 9.9605 6.1305 10.0705 5.92432C10.1254 5.66316 10.1942 5.402 10.2492 5.14083C10.2766 4.89341 10.1667 4.85218 9.90552 4.90716Z" fill="black"/>
<path d="M8.09111 4.00003C8.32479 3.82134 8.54472 3.65639 8.7509 3.49145C8.98457 3.25778 9.21824 3.0241 9.45192 2.79043C9.58937 2.58425 9.74057 2.37807 9.87803 2.15814C9.91926 1.84199 9.75432 1.75952 9.47941 1.8145C9.13577 1.88323 8.84711 2.07567 8.53097 2.18563C8.33853 2.37807 8.04988 2.47428 8.03613 2.80418C8.06362 3.06534 8.06362 3.3265 8.03613 3.58767C8.04988 3.71138 8.06362 3.83509 8.09111 4.00003Z" fill="black"/>
<path d="M15.0185 14.8038C15.0323 14.9413 15.046 15.065 15.0598 15.2299C15.3072 15.0375 15.5271 14.8725 15.7333 14.7076C16.0494 14.4052 16.3656 14.0891 16.6817 13.7867C16.8879 13.5117 17.0941 13.2506 17.3003 12.9757C17.314 12.8107 17.3965 12.632 17.2178 12.4946C17.0804 12.4946 16.9566 12.4808 16.8192 12.4808C16.2694 12.6733 15.747 12.9207 15.266 13.2368C15.0323 13.4155 15.0048 13.6767 15.0185 13.9379C15.0185 14.2265 15.0185 14.5152 15.0185 14.8038Z" fill="black"/>
<path d="M17.4928 16.5358C17.1217 16.6458 16.7506 16.7558 16.3657 16.8795C15.8983 17.1269 15.376 17.2781 15.0049 17.7042C15.0049 18.1028 15.0049 18.4877 15.0049 18.8863C15.0049 19.2024 15.0049 19.5186 15.0049 19.821C15.0049 20.0134 15.0049 20.2059 15.0049 20.412C15.5272 20.3158 15.9121 20.0272 16.297 19.711C16.5719 19.3811 16.833 19.0375 17.1079 18.7076C17.2866 18.364 17.4653 18.0203 17.644 17.6904C17.754 17.388 17.7815 17.0719 17.8364 16.7695C17.8364 16.5358 17.699 16.4808 17.4928 16.5358ZM16.6681 18.8313C16.3932 17.9791 16.5444 17.6492 17.4791 17.2368C17.3141 17.8691 16.998 18.3502 16.6681 18.8313Z" fill="black"/>
<path d="M48.9293 16.3709C48.8468 16.0548 48.7781 15.7524 48.7918 15.4225C48.6818 15.0651 48.6956 14.694 48.6818 14.3366C48.6543 14.1442 48.6406 13.9517 48.5994 13.6906C48.4757 13.9517 48.3932 14.1304 48.3107 14.3228C48.2007 14.6115 48.1045 14.9002 47.9946 15.1888C47.8846 15.5324 47.7746 15.8623 47.6647 16.206C47.5822 16.4946 47.4997 16.797 47.4173 17.0857C47.3898 17.3331 47.2523 17.5668 47.321 17.8004C47.8159 17.6767 48.297 17.553 48.7643 17.4431C48.998 17.3881 49.1354 17.3468 49.0392 17.0444C48.9705 16.8383 48.9705 16.6046 48.9293 16.3709Z" fill="black"/>
<path d="M18.634 15.8212C18.4278 15.6425 18.2216 15.4638 18.0154 15.2851C17.933 15.2164 17.8642 15.1339 17.768 15.0377C17.8093 14.9964 17.8368 14.9827 17.8642 14.9689C18.2491 14.6665 18.5515 14.2954 18.8402 13.8968C19.1013 13.5394 19.225 13.1271 19.2113 12.6872C19.2113 12.5635 19.1563 12.4123 19.0738 12.3161C18.9089 12.1236 18.7165 11.9449 18.5378 11.7663C18.4278 11.6425 18.3041 11.5326 18.2216 11.3951C17.9467 10.8865 17.6168 10.6941 17.0395 10.7491C16.2285 10.8316 15.4313 11.024 14.7028 11.3951C14.2492 11.6288 13.8093 11.8212 13.2733 11.725C13.0671 11.6838 12.9984 11.78 12.9984 11.9999C12.9984 12.2473 12.9984 12.481 12.9984 12.7284C12.9984 13.3057 12.9846 13.8831 12.9846 14.4604C12.9846 15.67 12.9846 16.8658 12.9846 18.0754C12.9846 18.2129 12.9709 18.3503 12.9846 18.4878C12.9846 19.1201 12.9984 19.7524 12.9846 20.3847C12.9846 20.5221 12.9709 20.6733 12.9296 20.8108C12.8746 20.9757 12.9021 21.0994 13.0396 21.1819C13.6032 21.498 14.1805 21.8142 14.7578 22.1166C15.2389 22.364 15.72 22.309 16.1598 21.9929C16.4485 21.7867 16.7371 21.5668 17.012 21.3468C17.6581 20.8383 18.2079 20.2472 18.6615 19.5599C19.0051 19.0514 19.3075 18.5153 19.3762 17.8967C19.4175 17.5256 19.4862 17.1407 19.3075 16.7971C19.1426 16.426 18.9364 16.0961 18.634 15.8212ZM15.0327 13.6769C15.0464 13.4844 15.1426 13.3332 15.2938 13.2233C15.7474 12.9209 16.2285 12.6872 16.7371 12.5223C16.8746 12.481 17.0258 12.4948 17.177 12.5223C17.2182 12.5223 17.3007 12.6047 17.3007 12.6597C17.3007 12.7972 17.3007 12.9484 17.232 13.0446C16.6546 13.8693 15.9536 14.5566 15.1564 15.1614C15.1289 15.1751 15.1014 15.1889 15.0464 15.2301C15.0327 15.0927 15.0189 14.9689 15.0189 14.8452C15.0189 14.4466 15.0189 14.0617 15.0327 13.6769ZM17.8368 16.7834C17.7818 17.1682 17.7268 17.5394 17.5481 17.8967C17.2457 18.5565 16.8196 19.1201 16.3385 19.6562C15.9949 20.041 15.555 20.3022 15.0052 20.4122C15.0052 20.3297 15.0052 20.2747 15.0052 20.2197C15.0052 19.4225 15.0052 18.6252 15.0189 17.828C15.0189 17.7455 15.0602 17.6493 15.1152 17.6081C15.2526 17.4844 15.4038 17.3744 15.555 17.2919C16.1736 16.9346 16.8471 16.7284 17.5344 16.5497C17.7268 16.481 17.8642 16.5909 17.8368 16.7834Z" fill="url(#paint0_linear_2010_34864)"/>
<path d="M27.3072 19.9449C27.1698 19.9174 27.0323 19.9174 26.9223 19.7799C26.6337 19.4363 26.3038 19.1201 26.0151 18.7765C25.4241 18.103 24.8468 17.4157 24.2557 16.7422C24.132 16.591 24.1183 16.4673 24.2007 16.3161C24.3245 16.1099 24.4344 15.8762 24.5856 15.6838C25.4378 14.5154 26.2901 13.347 27.156 12.1924C27.3622 11.9175 27.3622 11.7801 27.1285 11.5464C26.7986 11.2027 26.4 10.9691 25.9602 10.8041C25.644 10.6942 25.5066 10.7354 25.3141 11.0103C25.0942 11.3539 24.8743 11.7113 24.6406 12.055C24.2832 12.6048 23.9121 13.1546 23.5547 13.7044C23.3485 14.0206 23.1561 14.3367 22.9499 14.6391C22.9224 14.6804 22.8812 14.7216 22.8125 14.7903C22.785 14.6666 22.7712 14.5704 22.7437 14.4742C22.675 14.0618 22.7437 13.6357 22.7987 13.2233C22.8399 12.8385 22.9087 12.4536 22.9911 12.0687C23.0599 11.7663 23.0461 11.5876 22.7712 11.4639C22.4001 11.2852 22.0015 11.134 21.6029 11.0103C21.1905 10.8866 20.9018 11.079 20.7919 11.4914C20.7644 11.6151 20.7506 11.7526 20.7369 11.8763C20.7231 12.3024 20.7231 12.7285 20.7231 13.1546C20.7231 13.8144 20.7369 14.4742 20.7369 15.134C20.7369 16.1649 20.7369 17.1958 20.7369 18.2404C20.7369 19.3263 20.7506 20.4122 20.7231 21.4844C20.7231 21.773 20.8194 21.9242 21.053 22.0342C21.4104 22.2266 21.809 22.2953 22.2077 22.3503C22.8125 22.419 23.0186 22.1716 22.8399 21.5943C22.785 21.4294 22.73 21.2369 22.73 21.072C22.7162 20.3572 22.7025 19.6287 22.7025 18.914C22.7025 18.7765 22.73 18.639 22.7437 18.4466C22.8674 18.5291 22.9774 18.5703 23.0599 18.6528C23.2111 18.7902 23.376 18.914 23.4997 19.0652C24.0633 19.6974 24.5994 20.3435 25.1629 20.9758C25.4653 21.3057 25.7815 21.6218 26.1114 21.938C26.345 22.1579 26.4962 22.1166 26.7024 21.8692C27.0598 21.4156 27.2935 20.8796 27.4997 20.3435C27.6509 20.0961 27.5821 19.9998 27.3072 19.9449Z" fill="url(#paint1_linear_2010_34864)"/>
<path d="M51.6915 19.7524C51.2517 18.2266 50.9905 16.6597 50.7431 15.0927C50.6331 14.3917 50.5369 13.6769 50.4407 12.9759C50.3995 12.7285 50.372 12.481 50.3582 12.2886C50.3857 11.9999 50.372 11.8075 50.1108 11.6975C49.2311 11.3402 48.3239 11.0927 47.3755 11.0103C47.0593 10.9828 46.9768 11.0653 46.9906 11.3814C46.9906 11.4364 46.9906 11.4776 46.9906 11.5326C47.0043 12.1511 46.7707 12.7147 46.6057 13.292C46.4545 13.8281 46.2896 14.3504 46.1246 14.8865C46.0009 15.3126 45.8909 15.725 45.7672 16.1511C45.6023 16.7284 45.4236 17.292 45.2449 17.8693C45.2174 17.9517 45.1487 18.0342 45.08 18.0892C44.9013 18.2129 44.7088 18.3091 44.5301 18.4328C44.3514 18.5565 44.3102 18.7215 44.4477 18.8864C44.6401 19.0926 44.6539 19.3263 44.5576 19.5737C44.4752 19.7799 44.3789 19.9723 44.2965 20.1785C44.1728 20.5359 44.0628 20.8933 43.9253 21.2506C43.8566 21.4156 43.9116 21.4981 44.049 21.5668C44.3377 21.6905 44.6126 21.8417 44.9013 21.9517C45.0937 22.0341 45.2861 22.0891 45.4786 22.1304C45.6985 22.1716 45.8222 22.0891 45.8909 21.8692C45.9322 21.7455 45.9184 21.608 45.9734 21.4843C46.1246 21.0582 46.2896 20.6458 46.4683 20.2335C46.5232 20.1235 46.6469 20.0136 46.7706 19.9586C47.0456 19.8349 47.348 19.7386 47.6366 19.6562C48.1589 19.505 48.6675 19.3675 49.1899 19.2301C49.4235 19.1751 49.5472 19.2576 49.5885 19.4775C49.7122 20.041 49.8359 20.5909 49.9321 21.1544C49.9871 21.4568 50.1108 21.6493 50.3857 21.7867C50.8805 22.0341 51.3891 22.1853 51.9252 22.2266C52.1314 22.2403 52.1726 22.2128 52.2139 22.0066C52.2688 21.6493 52.2551 21.3194 52.0764 20.9757C51.9115 20.5771 51.8152 20.1648 51.6915 19.7524ZM48.8325 17.4432C48.4201 17.5394 48.0077 17.6493 47.5816 17.7456C47.4992 17.7593 47.4304 17.7868 47.3205 17.8005C47.3205 17.7043 47.3067 17.6081 47.3205 17.5394C47.6366 16.261 47.994 15.0102 48.5438 13.8144C48.5438 13.8006 48.5576 13.7869 48.5988 13.7456C48.6263 14.0343 48.64 14.2954 48.6675 14.5566C48.7363 15.1477 48.8187 15.7525 48.9012 16.3435C48.9424 16.6184 49.0112 16.9071 49.0524 17.182C49.1074 17.3607 48.9699 17.4157 48.8325 17.4432Z" fill="url(#paint2_linear_2010_34864)"/>
<path d="M35.9255 11.3128C35.4581 11.0516 34.9771 10.8867 34.441 10.8729C34.1386 10.8592 33.9874 10.9829 33.8912 11.2715C33.7949 11.5877 33.6987 11.9038 33.5888 12.2062C33.3551 12.8385 33.0939 13.4571 32.8603 14.0894C32.7091 14.4742 32.5853 14.8591 32.4341 15.244C32.3517 15.4639 32.2555 15.6701 32.1592 15.89C32.1455 15.89 32.1317 15.89 32.118 15.89C31.5544 14.3643 30.9359 12.866 30.5098 11.299C30.3861 10.8454 30.1661 10.7217 29.7125 10.8454C29.2452 10.9691 28.8328 11.2166 28.4342 11.4777C28.0219 11.7389 28.0219 11.8626 28.3105 12.2475C28.4755 12.4674 28.6404 12.6873 28.7504 12.9347C29.0803 13.7045 29.3964 14.5017 29.7125 15.2852C30.0562 16.1374 30.3998 16.9759 30.7435 17.8281C30.8397 18.0756 30.9496 18.3092 31.0459 18.5566C31.1283 18.7766 31.1146 18.9965 31.0184 19.2164C30.9359 19.3951 30.8672 19.5876 30.8259 19.78C30.7435 20.1511 30.606 20.481 30.4411 20.8109C30.3586 20.9758 30.2899 21.1408 30.2074 21.3057C30.1249 21.4844 30.1387 21.6631 30.2899 21.8006C30.3448 21.8556 30.3998 21.8968 30.4548 21.938C30.9084 22.2404 31.417 22.3916 31.9393 22.4878C32.2555 22.5428 32.4067 22.4191 32.4479 22.103C32.4891 21.8006 32.4891 21.4844 32.5853 21.1958C32.929 20.1649 33.2864 19.134 33.6575 18.103C33.9461 17.2921 34.2348 16.4948 34.5235 15.6976C34.8946 14.6667 35.252 13.6358 35.6231 12.6186C35.6643 12.4949 35.7605 12.3987 35.8293 12.2887C35.9255 12.1375 36.0492 11.9863 36.1179 11.8076C36.1867 11.5877 36.1179 11.4227 35.9255 11.3128Z" fill="url(#paint3_linear_2010_34864)"/>
<path d="M43.4171 19.1752C42.936 18.8178 42.3862 18.5704 41.8088 18.3917C41.6302 18.3367 41.5614 18.4054 41.4927 18.5841C41.4102 18.8178 41.3277 19.0514 41.204 19.2576C40.9704 19.6975 40.5855 19.9999 40.2556 20.3435C40.1456 20.4535 39.9944 20.5497 39.8432 20.6047C39.7745 20.6322 39.6371 20.6322 39.5683 20.5772C39.4584 20.481 39.3347 20.371 39.2934 20.2336C39.1697 19.8762 39.046 19.505 38.991 19.1202C38.8398 18.1168 38.7986 17.1271 38.9223 16.1099C39.0323 15.134 39.2522 14.1856 39.8158 13.3471C39.9944 13.0859 40.2144 12.866 40.4343 12.6461C40.5305 12.5361 40.6817 12.5773 40.7504 12.701C40.7917 12.756 40.8192 12.8385 40.8192 12.9072C40.8329 13.4021 40.8742 13.9106 40.8467 14.4055C40.8329 14.6529 40.7642 14.9141 40.6817 15.1477C40.5855 15.3952 40.5717 15.4639 40.8192 15.5464C41.3552 15.7388 41.9051 15.9037 42.4549 16.0549C42.6748 16.1099 42.7848 16.0274 42.8535 15.8213C42.9772 15.5051 43.0047 15.1615 42.9772 14.8316C42.9222 14.2268 42.8123 13.622 42.716 13.0034C42.6748 12.7148 42.5373 12.4399 42.3037 12.2474C41.9463 11.9588 41.5614 11.6976 41.1766 11.4502C40.9704 11.3128 40.7367 11.2165 40.503 11.1341C39.6371 10.8317 38.9223 11.0241 38.3312 11.7251C37.8501 12.2887 37.534 12.9347 37.2866 13.622C36.9429 14.5842 36.8055 15.5738 36.7917 16.6048C36.833 17.1271 36.8605 17.6494 36.9429 18.158C37.0117 18.5566 37.1216 18.9552 37.2591 19.3538C37.6715 20.536 38.4 21.4432 39.6233 21.8555C39.7883 21.9105 39.9669 21.9792 40.1319 22.0617C40.6817 22.3366 41.1903 22.2541 41.6439 21.8418C41.8501 21.6631 42.0288 21.4569 42.2349 21.2645C42.6336 20.8796 42.9085 20.426 43.1971 19.9586C43.2933 19.8212 43.3621 19.67 43.4583 19.5325C43.5683 19.3951 43.5683 19.2851 43.4171 19.1752Z" fill="url(#paint4_linear_2010_34864)"/>
<path d="M29.0392 9.26454C29.2454 9.25079 29.3966 9.14083 29.4928 8.94839C29.5753 8.75596 29.6852 8.56352 29.754 8.35734C29.9739 7.7113 30.1663 7.06526 30.3862 6.41923C30.5924 5.78694 30.8124 5.15464 31.0323 4.52235C31.0735 4.39864 31.1422 4.28868 31.211 4.16497C31.2247 4.16497 31.2522 4.17872 31.266 4.17872C31.2797 4.35741 31.3072 4.52235 31.3072 4.70104C31.3209 5.23712 31.3072 5.77319 31.3209 6.30926C31.3347 6.8041 31.3759 7.28519 31.3759 7.78003C31.3759 7.91748 31.3347 8.06868 31.2797 8.20614C31.156 8.49479 31.211 8.65974 31.5134 8.7697C31.8158 8.86592 32.1319 8.94839 32.4481 9.03087C32.5443 9.05836 32.6542 9.0721 32.7642 9.0721C32.9979 9.0721 33.0941 8.96214 33.0529 8.74221C33.0254 8.6185 32.9841 8.49479 32.9292 8.37108C32.8467 8.1649 32.8192 7.97247 32.8329 7.73879C32.8604 7.28519 32.8467 6.81785 32.8467 6.36425C32.8467 5.93814 32.8192 5.52577 32.8192 5.09966C32.8192 4.37115 32.8329 3.64264 32.8467 2.91413C32.8604 2.39181 32.8604 1.86948 32.8742 1.34715C32.8742 1.22344 32.8192 1.12722 32.7092 1.08599C32.503 0.98977 32.2969 0.893551 32.0907 0.83857C31.5546 0.701115 31.1422 0.86606 30.8536 1.34715C30.7711 1.49835 30.6886 1.64955 30.6337 1.80075C30.4137 2.46053 30.235 3.13406 30.0151 3.79384C29.8089 4.39864 29.6028 5.00344 29.3691 5.5945C29.3004 5.77319 29.1766 5.93814 29.0942 6.11683C29.0804 6.11683 29.0529 6.10308 29.0392 6.10308C29.0392 6.00686 29.0392 5.91065 29.0392 5.81443C29.0392 5.05843 29.0392 4.30243 29.0392 3.56017C29.0392 2.80417 29.0667 2.04817 29.0804 1.29217C29.0804 1.03101 28.9842 0.893551 28.723 0.907297C28.4069 0.907297 28.1045 0.948533 27.7884 1.00352C27.5822 1.04475 27.5272 1.14097 27.5547 1.34715C27.5684 1.52584 27.6234 1.71828 27.6234 1.89697C27.6234 3.97254 27.6234 6.0481 27.6234 8.10992C27.6234 8.30236 27.5822 8.50854 27.5822 8.70097C27.5822 8.79719 27.6372 8.9209 27.7059 8.96214C28.1045 9.12708 28.5444 9.29203 29.0392 9.26454Z" fill="url(#paint5_linear_2010_34864)"/>
<path d="M10.3453 4.0138C10.2903 3.95881 10.2353 3.90383 10.1941 3.8351C10.1803 3.80761 10.1803 3.72514 10.2078 3.7114C10.4827 3.50521 10.7027 3.2303 10.8951 2.95539C11.0738 2.70798 11.1975 2.4743 11.2387 2.1719C11.28 1.91074 11.2112 1.70456 11.0051 1.5671C10.7576 1.38841 10.579 1.15474 10.414 0.90732C10.2628 0.687393 10.0704 0.577429 9.80921 0.591175C9.09445 0.618666 8.42092 0.769866 7.78863 1.1135C7.52747 1.2647 7.2663 1.37467 6.9639 1.37467C6.67525 1.37467 6.62026 1.47088 6.62026 1.75954C6.62026 2.83169 6.62026 3.89009 6.62026 4.96223C6.63401 4.96223 6.60652 4.96223 6.62026 4.96223C6.60652 6.04812 6.60652 7.13402 6.59277 8.21991C6.59277 8.28864 6.62026 8.37111 6.67525 8.41234C6.88143 8.57729 7.07386 8.75598 7.29379 8.89344C7.55496 9.07213 7.84361 9.16835 8.1735 9.18209C8.6271 9.19584 8.99823 9.0034 9.34187 8.74224C10.1254 8.16493 10.8126 7.47765 11.1975 6.55671C11.5686 5.70449 11.5411 5.15467 10.8951 4.50863C10.7302 4.32994 10.524 4.17874 10.3453 4.0138ZM8.06354 2.88667C8.07728 2.76296 8.10477 2.59801 8.18725 2.51554C8.57212 2.13067 9.06696 1.92448 9.58929 1.82827C9.67176 1.81452 9.79547 1.8695 9.8367 1.93823C9.87794 2.00696 9.87794 2.14441 9.8367 2.22689C9.41059 2.94165 8.79205 3.47772 8.11852 3.97256C8.10477 3.97256 8.07728 3.95881 8.06354 3.95881C8.06354 3.80761 8.06354 3.64267 8.06354 3.49147C8.04979 3.28529 8.03605 3.09285 8.06354 2.88667ZM10.2491 5.26463C10.1391 5.96565 9.79547 6.52922 9.34187 7.06529C9.06696 7.39518 8.73707 7.6426 8.36594 7.82129C8.13227 7.945 8.04979 7.87627 8.03605 7.61511C8.03605 7.10653 8.03605 6.5842 8.03605 6.07562C8.03605 5.84194 8.11852 5.69074 8.31096 5.56703C8.79205 5.26463 9.31438 5.08594 9.85045 4.921C9.86419 4.921 9.87794 4.921 9.87794 4.90725C10.2078 4.85227 10.2903 4.94849 10.2491 5.26463Z" fill="url(#paint6_linear_2010_34864)"/>
<path d="M19.6506 6.83164C19.6506 5.44335 19.6506 4.05505 19.6506 2.65302C19.6506 2.19942 19.6369 1.75956 19.7606 1.31971C19.8293 1.08603 19.7606 0.962324 19.5682 0.866106C19.2245 0.70116 18.8671 0.646178 18.496 0.70116C17.4376 0.866106 16.3655 1.01731 15.3071 1.18225C15.0184 1.22349 14.7435 1.26472 14.4549 1.31971C14.2624 1.36094 14.2349 1.45716 14.2899 1.62211C14.3586 1.8008 14.4136 1.97949 14.4549 2.15818C14.4961 2.32313 14.5373 2.47432 14.716 2.57054C14.8672 2.63927 14.9497 2.79047 14.9497 2.95542C14.9497 3.03789 14.9497 3.13411 14.9497 3.21658C14.9497 4.83855 14.9497 6.47426 14.9497 8.09622C14.9497 8.27491 14.9497 8.46735 14.9085 8.63229C14.8672 8.82473 14.881 8.92095 15.0734 8.97593C15.4583 9.09964 15.8569 9.2096 16.2418 9.30582C16.2967 9.31957 16.4342 9.26458 16.4479 9.22335C16.4754 9.04466 16.4892 8.86597 16.4892 8.68727C16.4892 8.59106 16.4205 8.49484 16.4205 8.38487C16.4067 7.93127 16.4067 7.47767 16.4067 7.02407C16.4067 6.66669 16.3792 6.30931 16.3792 5.95193C16.3792 5.48458 16.3792 5.00349 16.3792 4.53614H16.393C16.4067 3.87636 16.4205 3.21658 16.4342 2.5568C16.4342 2.41934 16.4892 2.36436 16.6129 2.35062C17.0115 2.28189 17.4101 2.22691 17.8087 2.13069C18.1799 2.04822 18.2486 2.02072 18.2486 2.48807C18.2486 4.26124 18.2486 6.0344 18.2349 7.79382C18.2349 7.93127 18.1936 8.06873 18.1386 8.19244C18.0149 8.48109 18.0287 8.64604 18.3036 8.79724C18.6197 8.96218 18.9634 9.12713 19.307 9.22335C19.7469 9.3608 19.8706 9.23709 19.7881 8.79724C19.6506 8.16495 19.6506 7.50517 19.6506 6.83164Z" fill="url(#paint7_linear_2010_34864)"/>
<path d="M44.5301 8.78357C44.6951 8.48117 44.8325 8.16502 44.97 7.86262C45.025 7.73891 44.9975 7.64269 44.8738 7.57397C44.7088 7.47775 44.5439 7.38153 44.4202 7.25782C44.104 6.92793 43.8016 6.59804 43.4992 6.2544C43.1693 5.86953 42.8395 5.48466 42.5096 5.11353C42.3584 4.94858 42.3446 4.8936 42.4821 4.71491C42.7845 4.26131 43.1006 3.82146 43.403 3.36786C43.4992 3.2304 43.568 3.0792 43.6642 2.95549C44.0216 2.48815 44.3789 2.03454 44.7363 1.58094C44.8188 1.47098 44.8188 1.36102 44.7226 1.25105C44.4752 0.948653 44.1728 0.756217 43.8016 0.632507C43.5267 0.550035 43.458 0.577526 43.3068 0.811198C43.1968 0.989889 43.0869 1.16858 42.9632 1.33353C42.647 1.82836 42.3309 2.3232 42.0147 2.81804C41.8223 3.10669 41.6161 3.39535 41.3962 3.69775C41.3824 3.65651 41.3687 3.62902 41.3687 3.61527C41.2862 3.17542 41.3275 2.73556 41.3824 2.30945C41.4237 2.0208 41.4787 1.73214 41.5336 1.42974C41.5611 1.27854 41.4924 1.16858 41.3549 1.1136C41.08 1.00363 40.7914 0.879926 40.5027 0.797453C40.2003 0.71498 40.0354 0.811198 39.9529 1.1136C39.8979 1.31978 39.8979 1.53971 39.8842 1.75964C39.8704 3.18916 39.8704 4.61869 39.8567 6.04822C39.8567 6.91418 39.8567 7.7664 39.8567 8.63237C39.8567 8.81106 39.8704 8.98975 40.0354 9.08597C40.4065 9.2784 40.8189 9.37462 41.245 9.31964C41.3962 9.3059 41.4649 9.20968 41.4649 9.05848C41.4649 8.976 41.4512 8.89353 41.4374 8.81106C41.3962 8.63237 41.3412 8.45368 41.3275 8.27499C41.3137 7.69768 41.3137 7.12037 41.3137 6.54306C41.3137 6.48808 41.3412 6.41935 41.3824 6.39186C41.4237 6.37811 41.5061 6.39186 41.5336 6.43309C41.8773 6.79048 42.2209 7.14786 42.5508 7.50524C42.9907 7.97259 43.403 8.46742 43.8566 8.92102C44.1315 9.16844 44.3515 9.11346 44.5301 8.78357Z" fill="url(#paint8_linear_2010_34864)"/>
<path d="M45.6298 8.72847C45.9047 8.85218 46.1796 8.97589 46.4683 9.08585C46.7019 9.16832 46.8394 9.07211 46.9081 8.83843C47.0043 8.52229 47.1006 8.20614 47.2243 7.89C47.293 7.69756 47.3892 7.51887 47.5954 7.45014C48.1865 7.25771 48.7638 7.09276 49.3548 6.91407C49.5885 6.84534 49.671 6.88658 49.7397 7.12025C49.8359 7.50512 49.9321 7.90374 49.9871 8.28862C50.0283 8.54978 50.1246 8.75596 50.372 8.86592C50.6606 8.98963 50.963 9.0996 51.2654 9.18207C51.5541 9.26454 51.774 9.03087 51.7328 8.72847C51.719 8.60476 51.6778 8.4948 51.6228 8.38483C51.3067 7.7388 51.128 7.05152 50.9905 6.35051C50.7843 5.36083 50.6057 4.3849 50.4407 3.39523C50.3582 2.88665 50.3033 2.36432 50.262 1.99319C50.2758 1.42963 50.262 1.38839 49.8634 1.22345C49.7397 1.16847 49.616 1.12723 49.4923 1.08599C48.9974 0.921048 48.4889 0.82483 47.9803 0.797339C47.8703 0.797339 47.7603 0.783593 47.7741 0.948539C47.8291 1.38839 47.6641 1.78701 47.5679 2.18563C47.4717 2.54301 47.3342 2.88665 47.238 3.23029C47.0593 3.83509 46.9081 4.43989 46.7432 5.03094C46.6882 5.25087 46.6057 5.45705 46.5507 5.67698C46.5095 5.86941 46.427 6.02061 46.2758 6.13058C46.1659 6.2268 46.0284 6.29552 45.9047 6.378C45.781 6.46047 45.7398 6.57043 45.836 6.6804C46.0284 6.88658 45.9872 7.10651 45.9047 7.34018C45.7673 7.67007 45.6298 8.01371 45.5061 8.3436C45.4236 8.54978 45.4511 8.646 45.6298 8.72847ZM47.9528 5.55327C48.2277 4.70105 48.5026 3.86258 48.7913 3.01036C48.805 2.95538 48.8462 2.90039 48.8737 2.84541C48.8875 2.81792 48.915 2.79043 48.9425 2.76294C48.9562 2.76294 48.9837 2.76294 48.9974 2.76294C49.0112 2.90039 49.0249 3.0241 49.0387 3.16156C49.0662 3.89007 49.1486 4.60483 49.3411 5.3196C49.3961 5.49829 49.3136 5.60825 49.1349 5.66323C48.805 5.74571 48.4889 5.82818 48.1727 5.91065C48.0078 5.95189 47.9253 5.8969 47.939 5.73196C47.9253 5.66323 47.939 5.60825 47.9528 5.55327Z" fill="url(#paint9_linear_2010_34864)"/>
<path d="M21.4791 7.90385C21.7815 8.41243 22.2626 8.65985 22.7987 8.8248C23.1148 8.92102 23.4172 9.00349 23.7334 9.08596C24.1732 9.20967 24.5993 9.19592 24.9567 8.89353C25.2179 8.6736 25.4653 8.41243 25.6577 8.11003C25.9464 7.65643 26.1251 7.1341 26.2213 6.59803C26.3175 6.0757 26.4 5.55338 26.345 5.19599C26.3313 3.82145 26.1526 2.68057 25.4103 1.67716C25.0667 1.22356 24.6956 0.852428 24.1045 0.756209C23.7334 0.701227 23.376 0.769955 23.0186 0.852428C22.8537 0.893664 22.6612 0.893664 22.4825 0.866173C22.2901 0.824937 22.1527 0.852428 22.0152 0.976137C21.7953 1.16857 21.6303 1.40225 21.5341 1.67716C21.3692 2.21323 21.163 2.7493 21.053 3.29912C20.8331 4.30254 20.7781 5.3197 20.9293 6.33687C21.0118 6.90043 21.1905 7.42276 21.4791 7.90385ZM22.4413 4.16508C22.4825 3.83519 22.5513 3.51905 22.62 3.2029C22.6887 2.88676 22.7987 2.81803 23.1148 2.88676C23.2798 2.91425 23.321 2.81803 23.376 2.69432C23.4585 2.46065 23.5272 2.21323 23.6509 1.9933C23.7196 1.86959 23.8571 1.77337 23.9808 1.6909C24.022 1.66341 24.1457 1.67716 24.187 1.71839C24.3107 1.85585 24.4756 1.9933 24.5306 2.17199C24.7918 2.96923 24.8743 3.79396 24.833 4.53621C24.7918 5.38843 24.7505 6.11694 24.5444 6.84545C24.4344 7.24407 24.3244 7.64269 24.0358 7.97258C23.7059 8.34371 23.2798 8.22 23.0324 7.95883C22.7987 7.69767 22.675 7.39527 22.5925 7.06538C22.3588 6.1032 22.3313 5.14101 22.4413 4.16508Z" fill="url(#paint10_linear_2010_34864)"/>
<path d="M56.6264 4.08259C56.9563 3.61525 57.2861 3.1479 57.6023 2.68056C57.7535 2.44688 57.9322 2.2407 58.1521 2.04827C58.3171 1.91081 58.4545 1.73212 58.592 1.55343C58.6744 1.45721 58.6744 1.31976 58.5507 1.25103C58.1796 1.05859 57.8222 0.85241 57.4373 0.70121C57.2174 0.604991 57.0662 0.714955 56.97 0.934883C56.915 1.04485 56.86 1.14106 56.805 1.23728C56.5851 1.59467 56.3652 1.95205 56.1178 2.30943C55.8978 2.62557 55.6642 2.94172 55.4168 3.2991C55.3205 3.17539 55.2243 3.05168 55.1556 2.92798C55.0456 2.73554 54.9632 2.5431 54.8669 2.35067C54.6058 1.86957 54.3446 1.38848 54.0834 0.907392C53.9597 0.673719 53.836 0.604992 53.6161 0.742446C53.3137 0.934883 53.025 1.16856 52.7501 1.40223C52.5852 1.53968 52.6127 1.67714 52.7776 1.84208C52.9288 1.99328 53.0663 2.15823 53.1762 2.33692C53.5611 2.95547 53.9322 3.58776 54.3034 4.22005C54.3721 4.34376 54.4683 4.46747 54.5096 4.60492C54.5371 4.71489 54.537 4.85234 54.4821 4.94856C54.1659 5.51212 53.8223 6.06194 53.4924 6.61176C53.135 7.20282 52.8189 7.80762 52.324 8.30245C52.1453 8.48114 52.1591 8.63234 52.379 8.75605C52.6677 8.921 52.9563 9.0722 53.2587 9.19591C53.7673 9.40209 53.9048 9.31962 54.056 8.79729C54.1109 8.6186 54.1247 8.42616 54.2209 8.26122C54.5508 7.67016 54.8944 7.1066 55.2243 6.52929C55.3618 6.28187 55.4992 6.28187 55.6367 6.52929C55.8291 6.85918 56.0078 7.18907 56.2002 7.51896C56.4614 7.95882 56.7226 8.39867 56.8325 8.90725C56.9013 9.20965 57.1349 9.29213 57.3961 9.12718C57.671 8.96223 57.9322 8.78354 58.1933 8.60485C58.4408 8.43991 58.4545 8.32994 58.2758 8.09627C57.836 7.54645 57.4923 6.94165 57.1349 6.32311C56.8738 5.88325 56.6264 5.4434 56.3652 5.00354C56.269 4.83859 56.2552 4.70114 56.3515 4.54994C56.4339 4.38499 56.5164 4.23379 56.6264 4.08259Z" fill="url(#paint11_linear_2010_34864)"/>
<path d="M37.9325 8.6461C38.3311 8.21999 38.6473 7.72515 38.9497 7.21657C39.0184 7.10661 39.0184 6.9829 38.9085 6.92792C38.5373 6.73548 38.1525 6.55679 37.7676 6.3781C37.6714 6.33686 37.5751 6.36435 37.5614 6.48806C37.4927 6.88668 37.2453 7.18908 36.9841 7.47774C36.8054 7.68392 36.5855 7.84886 36.3655 8.01381C36.1731 8.15126 36.0357 8.11003 35.9257 7.90385C35.8707 7.80763 35.8295 7.71141 35.7882 7.60145C35.4996 6.90043 35.5271 6.15817 35.4858 5.52588C35.5133 4.67366 35.5683 3.91766 35.8707 3.21664C36.0494 2.77679 36.2831 2.33693 36.6542 2.02079C36.8329 1.86959 36.8741 1.88333 36.9841 2.08951C37.149 2.40566 37.1215 2.7493 37.0941 3.09293C37.0803 3.34035 37.0391 3.58777 36.9566 3.8077C36.8741 4.04137 36.8879 4.13759 37.1353 4.22006C37.4514 4.33002 37.7676 4.42624 38.0975 4.52246C38.3861 4.60493 38.4961 4.54995 38.5648 4.24755C38.5786 4.19257 38.5923 4.13759 38.5923 4.08261C38.5648 3.57402 38.5373 3.07919 38.4686 2.58435C38.4274 2.25446 38.3449 1.92457 38.0562 1.70464C37.6989 1.44348 37.3552 1.15482 36.9703 0.94864C36.3381 0.605004 35.6783 0.756204 35.1972 1.29228C34.7573 1.78711 34.4824 2.36442 34.29 2.98297C34.0563 3.78021 33.9738 4.59119 34.0151 5.40217C34.0426 5.86952 34.125 6.35061 34.2487 6.80421C34.3999 7.34028 34.6061 7.86261 35.046 8.24748C35.4309 8.59112 35.857 8.87977 36.3518 9.07221C36.5167 9.14094 36.6954 9.18217 36.8604 9.18217C37.314 9.20967 37.6439 8.96225 37.9325 8.6461Z" fill="url(#paint12_linear_2010_34864)"/>
<defs>
<linearGradient id="paint0_linear_2010_34864" x1="16.1873" y1="22.2532" x2="16.1873" y2="10.7492" gradientUnits="userSpaceOnUse">
<stop stop-color="#EB653B"/>
<stop offset="1" stop-color="#FBEF86"/>
</linearGradient>
<linearGradient id="paint1_linear_2010_34864" x1="24.1644" y1="22.3908" x2="24.1644" y2="10.7596" gradientUnits="userSpaceOnUse">
<stop stop-color="#EB653B"/>
<stop offset="1" stop-color="#FBEF86"/>
</linearGradient>
<linearGradient id="paint2_linear_2010_34864" x1="48.1147" y1="22.1973" x2="48.1147" y2="11.0159" gradientUnits="userSpaceOnUse">
<stop stop-color="#EB653B"/>
<stop offset="1" stop-color="#FBEF86"/>
</linearGradient>
<linearGradient id="paint3_linear_2010_34864" x1="32.1258" y1="22.503" x2="32.1258" y2="10.823" gradientUnits="userSpaceOnUse">
<stop stop-color="#EB653B"/>
<stop offset="1" stop-color="#FBEF86"/>
</linearGradient>
<linearGradient id="paint4_linear_2010_34864" x1="40.1744" y1="22.2347" x2="40.1744" y2="11.0283" gradientUnits="userSpaceOnUse">
<stop stop-color="#EB653B"/>
<stop offset="1" stop-color="#FBEF86"/>
</linearGradient>
<linearGradient id="paint5_linear_2010_34864" x1="30.2844" y1="9.26252" x2="30.2844" y2="0.767354" gradientUnits="userSpaceOnUse">
<stop stop-color="#EB653B"/>
<stop offset="1" stop-color="#FBEF86"/>
</linearGradient>
<linearGradient id="paint6_linear_2010_34864" x1="9.01024" y1="9.17256" x2="9.01024" y2="0.583189" gradientUnits="userSpaceOnUse">
<stop stop-color="#EB653B"/>
<stop offset="1" stop-color="#FBEF86"/>
</linearGradient>
<linearGradient id="paint7_linear_2010_34864" x1="17.0469" y1="9.31448" x2="17.0469" y2="0.683099" gradientUnits="userSpaceOnUse">
<stop stop-color="#EB653B"/>
<stop offset="1" stop-color="#FBEF86"/>
</linearGradient>
<linearGradient id="paint8_linear_2010_34864" x1="42.4262" y1="9.31488" x2="42.4262" y2="0.586006" gradientUnits="userSpaceOnUse">
<stop stop-color="#EB653B"/>
<stop offset="1" stop-color="#FBEF86"/>
</linearGradient>
<linearGradient id="paint9_linear_2010_34864" x1="48.6017" y1="9.20148" x2="48.6017" y2="0.771841" gradientUnits="userSpaceOnUse">
<stop stop-color="#EB653B"/>
<stop offset="1" stop-color="#FBEF86"/>
</linearGradient>
<linearGradient id="paint10_linear_2010_34864" x1="23.595" y1="9.16816" x2="23.595" y2="0.747783" gradientUnits="userSpaceOnUse">
<stop stop-color="#EB653B"/>
<stop offset="1" stop-color="#FBEF86"/>
</linearGradient>
<linearGradient id="paint11_linear_2010_34864" x1="55.4017" y1="9.28789" x2="55.4017" y2="0.668578" gradientUnits="userSpaceOnUse">
<stop stop-color="#EB653B"/>
<stop offset="1" stop-color="#FBEF86"/>
</linearGradient>
<linearGradient id="paint12_linear_2010_34864" x1="36.5057" y1="9.18934" x2="36.5057" y2="0.754527" gradientUnits="userSpaceOnUse">
<stop stop-color="#EB653B"/>
<stop offset="1" stop-color="#FBEF86"/>
</linearGradient>
</defs>
</svg>
