<svg width="30" height="66" viewBox="0 0 30 66" fill="none" xmlns="http://www.w3.org/2000/svg">
<path d="M25.0147 63.5H12C11.7239 63.5 11.5 63.2761 11.5 63V3.66712C11.5 3.33616 11.8016 3.0872 12.1266 3.14995C17.4925 4.18614 21.7202 8.27407 22.8333 13.572C23.8373 18.3507 24.9179 23.8151 25.5278 27.8717C26.6794 35.532 26.9151 40.4127 27.2722 47.8066C27.3016 48.4151 27.3318 49.0406 27.3634 49.6861C27.5321 53.1311 27.516 57.6851 27.4656 61.1214C27.4463 62.431 26.3731 63.5 25.0147 63.5Z" stroke="#083645" stroke-width="5"/>
<path d="M4.94217 63.5H11C11.2761 63.5 11.5 63.2761 11.5 63V24.0633C8.5277 24.8714 6.24517 27.2505 5.62629 30.257C4.94889 33.5478 4.21625 37.3278 3.80675 40.1136C3.04459 45.2985 2.88902 48.5925 2.65086 53.6352C2.63133 54.0487 2.61124 54.474 2.59022 54.9131C2.50222 56.7509 2.49008 59.0722 2.50591 61.1327C2.51585 62.4278 3.57993 63.5 4.94217 63.5Z" stroke="#083645" stroke-width="5"/>
</svg>
