<svg width="46" height="46" viewBox="0 0 46 46" fill="none" xmlns="http://www.w3.org/2000/svg">
<rect width="46" height="46" rx="10" fill="white"/>
<rect x="3" y="3" width="40" height="40" fill="white"/>
<mask id="mask0" mask-type="alpha" maskUnits="userSpaceOnUse" x="15" y="9" width="16" height="28">
<path d="M15.5334 9.93311H30.4668V36.0664H15.5334V9.93311Z" fill="white"/>
</mask>
<g mask="url(#mask0)">
<mask id="path-4-outside-1" maskUnits="userSpaceOnUse" x="15.5835" y="9.1665" width="15" height="27" fill="black">
<rect fill="white" x="15.5835" y="9.1665" width="15" height="27"/>
<path fill-rule="evenodd" clip-rule="evenodd" d="M23.2916 34.9382C20.2292 34.9382 17.4801 34.5417 17.4801 29.7549C17.4801 26.076 18.8995 22.215 20.9317 20.3669C21.115 20.2004 21.128 19.9176 20.9613 19.7346C20.7949 19.552 20.5116 19.539 20.3278 19.705C20.2825 19.7462 20.239 19.7936 20.1947 19.8366C20.1767 19.8017 20.161 19.7654 20.1328 19.735C19.7185 19.2844 19.4016 18.4292 19.2191 17.8027C19.8844 17.8869 20.6165 18.0757 21.2267 18.5424C21.6418 18.8606 21.9884 19.2298 22.2282 19.6097C22.3596 19.8187 22.6362 19.8818 22.8464 19.7498C23.0558 19.6182 23.1186 19.3417 22.9863 19.1327C22.9182 19.0239 22.8415 18.917 22.7604 18.8114C22.7725 18.7438 22.7738 18.6736 22.7518 18.6037C22.6124 18.1554 22.5541 17.6296 22.5837 17.0841C22.6182 16.4365 23.0374 15.5608 23.375 14.9665C23.8049 15.5281 24.2075 16.2195 24.3048 17.0268C24.3702 17.5691 24.3469 18.0972 24.238 18.5541C24.229 18.5935 24.2331 18.6319 24.2344 18.67C24.1084 18.8212 23.991 18.9752 23.8914 19.1327C23.7592 19.3417 23.8224 19.6182 24.0313 19.7498C24.2416 19.8818 24.5182 19.8191 24.6495 19.6097C24.8894 19.2298 25.2359 18.8606 25.6515 18.5424C26.2612 18.0757 26.9929 17.8869 27.6586 17.8027C27.4762 18.4292 27.1592 19.2844 26.745 19.735C26.654 19.8339 26.6208 19.9614 26.6338 20.085C26.5656 20.0125 26.4979 19.9364 26.4285 19.8684C26.2523 19.6961 25.9685 19.6988 25.7945 19.876C25.6215 20.0527 25.6251 20.336 25.8026 20.5087C26.3303 21.0233 26.8127 21.6821 27.2386 22.4347C27.1426 22.4464 27.0485 22.4822 26.9749 22.5556L25.6632 23.8649L23.7834 21.9886C23.7803 21.9855 23.7798 21.9814 23.7767 21.9787C23.6014 21.8038 23.3181 21.8038 23.1428 21.9787L23.1419 21.9796L23.141 21.9801L23.1405 21.981L21.0478 24.0699L20.1884 23.212C20.0135 23.0371 19.7298 23.0371 19.5545 23.212C19.3792 23.387 19.3792 23.6698 19.5545 23.8448L20.4139 24.7026L19.0403 26.0738C18.865 26.2487 18.865 26.5316 19.0403 26.7065C19.1277 26.7938 19.2424 26.8376 19.3572 26.8376C19.4715 26.8376 19.5863 26.7938 19.6742 26.7065L21.0478 25.3354L22.6191 26.9034L20.7914 28.7279L20.6981 28.6348C20.5228 28.4598 20.239 28.4598 20.0642 28.6348C19.8889 28.8093 19.8889 29.0926 20.0642 29.2675L20.1574 29.3606L18.7991 30.7161C18.6242 30.891 18.6242 31.1743 18.7991 31.3488C18.8869 31.4365 19.0017 31.4799 19.1165 31.4799C19.2308 31.4799 19.3456 31.4365 19.4334 31.3488L20.7914 29.9934L22.3111 31.5104L21.1298 32.69C20.9545 32.8645 20.9545 33.1478 21.1298 33.3227C21.2173 33.41 21.332 33.4538 21.4468 33.4538C21.5616 33.4538 21.6759 33.41 21.7638 33.3227L22.9455 32.1431L24.1667 33.3626C24.2541 33.4498 24.3689 33.4932 24.4837 33.4932C24.5984 33.4932 24.7132 33.4498 24.8006 33.3626C24.9759 33.1876 24.9759 32.9043 24.8006 32.7293L23.5794 31.5104L25.4067 29.6864L26.8301 31.1067C26.9176 31.1944 27.0323 31.2378 27.1471 31.2378C27.2614 31.2378 27.3762 31.1944 27.4641 31.1067C27.6389 30.9322 27.6389 30.6489 27.4641 30.474L26.0407 29.0536L28.7193 26.3794C28.9668 27.4843 29.1035 28.6321 29.1035 29.7549C29.1035 34.5663 26.6947 34.9382 23.2916 34.9382ZM20.1991 16.722C20.0821 16.5949 19.5984 16.0495 19.5361 15.9649C19.2254 15.5111 19.0008 14.8743 18.865 14.4121C19.4778 14.4935 20.1462 14.6721 20.7044 15.0994C21.0931 15.397 21.4172 15.7425 21.6418 16.0978C21.6889 16.1721 21.7566 16.2204 21.8301 16.2557C21.7539 16.5207 21.7014 16.7851 21.688 17.0362C21.6745 17.2899 21.6817 17.5392 21.7001 17.7839C21.2549 17.4582 20.7761 17.2483 20.2996 17.1114C20.3269 16.9762 20.2991 16.8317 20.1991 16.722ZM25.3184 16.0978C25.543 15.7425 25.8676 15.397 26.2563 15.0994C26.814 14.6721 27.4829 14.4935 28.0957 14.4121C27.9603 14.8739 27.7366 15.5093 27.4277 15.9604C27.3623 16.0495 26.8786 16.5949 26.7615 16.722C26.6674 16.8254 26.6369 16.9597 26.6553 17.0876C26.1734 17.2183 25.6865 17.4264 25.2324 17.7468C25.2386 17.4761 25.2288 17.1995 25.1951 16.9198C25.1687 16.6988 25.1194 16.4898 25.062 16.2857C25.1642 16.2566 25.2575 16.1953 25.3184 16.0978ZM27.8169 26.0147L26.2971 24.4977L27.6089 23.1883C27.6147 23.1825 27.616 23.1753 27.6214 23.1695C27.9496 23.8546 28.2316 24.5993 28.4593 25.3788C28.4548 25.3828 28.4481 25.3842 28.4436 25.3891L27.8169 26.0147ZM23.4579 22.9297L25.0293 24.4977L23.2531 26.2707L21.6817 24.7026L23.4579 22.9297ZM24.7728 29.0536L22.9455 30.8776L21.4253 29.3606L23.2531 27.5362L24.7728 29.0536ZM23.887 26.9034L25.6632 25.1304L27.183 26.6475L25.4067 28.4209L23.887 26.9034ZM27.0749 20.485C27.196 20.485 27.317 20.4362 27.4053 20.34C28.2683 19.4025 28.6705 17.4729 28.6871 17.3915C28.7153 17.255 28.6781 17.1136 28.5871 17.0089C28.4956 16.9042 28.3652 16.8455 28.2222 16.8549C28.0917 16.8621 27.955 16.8728 27.8155 16.8863C27.9702 16.7104 28.1208 16.5341 28.1652 16.4696C28.8081 15.5304 29.1138 14.0608 29.1268 13.999C29.1546 13.8625 29.1174 13.7216 29.0264 13.6164C28.9359 13.5113 28.8081 13.4553 28.6619 13.4625C27.7855 13.5126 26.6584 13.6634 25.7107 14.3892C25.5148 14.5396 25.335 14.7025 25.1673 14.8716C25.2467 14.391 25.2593 13.8684 25.1951 13.3367C25.0382 12.0412 24.2918 11.0442 23.6592 10.3202C23.5682 10.2155 23.4342 10.1577 23.2938 10.1676C23.1549 10.1761 23.028 10.2486 22.95 10.3631C22.9155 10.4146 22.0995 11.6264 21.7983 12.7854C21.736 13.0248 21.8799 13.2692 22.1197 13.3309C22.3587 13.3931 22.6039 13.2499 22.6658 13.0105C22.8173 12.4288 23.1334 11.8077 23.3754 11.3839C23.8049 11.9455 24.2075 12.6369 24.3048 13.4437C24.3581 13.8831 24.3496 14.3109 24.2882 14.7016C24.0824 14.4071 23.865 14.1391 23.6592 13.9033C23.5682 13.7986 23.4342 13.7413 23.2938 13.7507C23.1549 13.7592 23.028 13.8312 22.95 13.9467C22.9222 13.9883 22.5281 14.5754 22.187 15.3178C21.9314 14.984 21.6136 14.6671 21.2495 14.3892C20.3023 13.6634 19.1747 13.5126 18.2987 13.4625C18.1535 13.4558 18.0248 13.5117 17.9343 13.6164C17.8433 13.7216 17.806 13.8625 17.8338 13.999C17.8464 14.0608 18.1526 15.5304 18.7955 16.4696C18.8403 16.5354 18.9968 16.7171 19.1541 16.8961C18.9824 16.8782 18.8143 16.8639 18.6556 16.8549C18.5153 16.8455 18.3821 16.9037 18.2911 17.0089C18.2001 17.1136 18.1629 17.255 18.1907 17.3915C18.2073 17.4729 18.6099 19.4025 19.4724 20.34C19.5164 20.3879 19.5684 20.4237 19.6244 20.4479C17.8038 22.624 16.5835 26.2751 16.5835 29.7549C16.5835 35.8332 20.9474 35.8332 23.2916 35.8332C26.827 35.8332 30.0002 35.3682 30.0002 29.7549C30.0002 26.319 28.779 22.6437 26.9714 20.4662C27.0059 20.4743 27.04 20.485 27.0749 20.485Z"/>
</mask>
<path fill-rule="evenodd" clip-rule="evenodd" d="M23.2916 34.9382C20.2292 34.9382 17.4801 34.5417 17.4801 29.7549C17.4801 26.076 18.8995 22.215 20.9317 20.3669C21.115 20.2004 21.128 19.9176 20.9613 19.7346C20.7949 19.552 20.5116 19.539 20.3278 19.705C20.2825 19.7462 20.239 19.7936 20.1947 19.8366C20.1767 19.8017 20.161 19.7654 20.1328 19.735C19.7185 19.2844 19.4016 18.4292 19.2191 17.8027C19.8844 17.8869 20.6165 18.0757 21.2267 18.5424C21.6418 18.8606 21.9884 19.2298 22.2282 19.6097C22.3596 19.8187 22.6362 19.8818 22.8464 19.7498C23.0558 19.6182 23.1186 19.3417 22.9863 19.1327C22.9182 19.0239 22.8415 18.917 22.7604 18.8114C22.7725 18.7438 22.7738 18.6736 22.7518 18.6037C22.6124 18.1554 22.5541 17.6296 22.5837 17.0841C22.6182 16.4365 23.0374 15.5608 23.375 14.9665C23.8049 15.5281 24.2075 16.2195 24.3048 17.0268C24.3702 17.5691 24.3469 18.0972 24.238 18.5541C24.229 18.5935 24.2331 18.6319 24.2344 18.67C24.1084 18.8212 23.991 18.9752 23.8914 19.1327C23.7592 19.3417 23.8224 19.6182 24.0313 19.7498C24.2416 19.8818 24.5182 19.8191 24.6495 19.6097C24.8894 19.2298 25.2359 18.8606 25.6515 18.5424C26.2612 18.0757 26.9929 17.8869 27.6586 17.8027C27.4762 18.4292 27.1592 19.2844 26.745 19.735C26.654 19.8339 26.6208 19.9614 26.6338 20.085C26.5656 20.0125 26.4979 19.9364 26.4285 19.8684C26.2523 19.6961 25.9685 19.6988 25.7945 19.876C25.6215 20.0527 25.6251 20.336 25.8026 20.5087C26.3303 21.0233 26.8127 21.6821 27.2386 22.4347C27.1426 22.4464 27.0485 22.4822 26.9749 22.5556L25.6632 23.8649L23.7834 21.9886C23.7803 21.9855 23.7798 21.9814 23.7767 21.9787C23.6014 21.8038 23.3181 21.8038 23.1428 21.9787L23.1419 21.9796L23.141 21.9801L23.1405 21.981L21.0478 24.0699L20.1884 23.212C20.0135 23.0371 19.7298 23.0371 19.5545 23.212C19.3792 23.387 19.3792 23.6698 19.5545 23.8448L20.4139 24.7026L19.0403 26.0738C18.865 26.2487 18.865 26.5316 19.0403 26.7065C19.1277 26.7938 19.2424 26.8376 19.3572 26.8376C19.4715 26.8376 19.5863 26.7938 19.6742 26.7065L21.0478 25.3354L22.6191 26.9034L20.7914 28.7279L20.6981 28.6348C20.5228 28.4598 20.239 28.4598 20.0642 28.6348C19.8889 28.8093 19.8889 29.0926 20.0642 29.2675L20.1574 29.3606L18.7991 30.7161C18.6242 30.891 18.6242 31.1743 18.7991 31.3488C18.8869 31.4365 19.0017 31.4799 19.1165 31.4799C19.2308 31.4799 19.3456 31.4365 19.4334 31.3488L20.7914 29.9934L22.3111 31.5104L21.1298 32.69C20.9545 32.8645 20.9545 33.1478 21.1298 33.3227C21.2173 33.41 21.332 33.4538 21.4468 33.4538C21.5616 33.4538 21.6759 33.41 21.7638 33.3227L22.9455 32.1431L24.1667 33.3626C24.2541 33.4498 24.3689 33.4932 24.4837 33.4932C24.5984 33.4932 24.7132 33.4498 24.8006 33.3626C24.9759 33.1876 24.9759 32.9043 24.8006 32.7293L23.5794 31.5104L25.4067 29.6864L26.8301 31.1067C26.9176 31.1944 27.0323 31.2378 27.1471 31.2378C27.2614 31.2378 27.3762 31.1944 27.4641 31.1067C27.6389 30.9322 27.6389 30.6489 27.4641 30.474L26.0407 29.0536L28.7193 26.3794C28.9668 27.4843 29.1035 28.6321 29.1035 29.7549C29.1035 34.5663 26.6947 34.9382 23.2916 34.9382ZM20.1991 16.722C20.0821 16.5949 19.5984 16.0495 19.5361 15.9649C19.2254 15.5111 19.0008 14.8743 18.865 14.4121C19.4778 14.4935 20.1462 14.6721 20.7044 15.0994C21.0931 15.397 21.4172 15.7425 21.6418 16.0978C21.6889 16.1721 21.7566 16.2204 21.8301 16.2557C21.7539 16.5207 21.7014 16.7851 21.688 17.0362C21.6745 17.2899 21.6817 17.5392 21.7001 17.7839C21.2549 17.4582 20.7761 17.2483 20.2996 17.1114C20.3269 16.9762 20.2991 16.8317 20.1991 16.722ZM25.3184 16.0978C25.543 15.7425 25.8676 15.397 26.2563 15.0994C26.814 14.6721 27.4829 14.4935 28.0957 14.4121C27.9603 14.8739 27.7366 15.5093 27.4277 15.9604C27.3623 16.0495 26.8786 16.5949 26.7615 16.722C26.6674 16.8254 26.6369 16.9597 26.6553 17.0876C26.1734 17.2183 25.6865 17.4264 25.2324 17.7468C25.2386 17.4761 25.2288 17.1995 25.1951 16.9198C25.1687 16.6988 25.1194 16.4898 25.062 16.2857C25.1642 16.2566 25.2575 16.1953 25.3184 16.0978ZM27.8169 26.0147L26.2971 24.4977L27.6089 23.1883C27.6147 23.1825 27.616 23.1753 27.6214 23.1695C27.9496 23.8546 28.2316 24.5993 28.4593 25.3788C28.4548 25.3828 28.4481 25.3842 28.4436 25.3891L27.8169 26.0147ZM23.4579 22.9297L25.0293 24.4977L23.2531 26.2707L21.6817 24.7026L23.4579 22.9297ZM24.7728 29.0536L22.9455 30.8776L21.4253 29.3606L23.2531 27.5362L24.7728 29.0536ZM23.887 26.9034L25.6632 25.1304L27.183 26.6475L25.4067 28.4209L23.887 26.9034ZM27.0749 20.485C27.196 20.485 27.317 20.4362 27.4053 20.34C28.2683 19.4025 28.6705 17.4729 28.6871 17.3915C28.7153 17.255 28.6781 17.1136 28.5871 17.0089C28.4956 16.9042 28.3652 16.8455 28.2222 16.8549C28.0917 16.8621 27.955 16.8728 27.8155 16.8863C27.9702 16.7104 28.1208 16.5341 28.1652 16.4696C28.8081 15.5304 29.1138 14.0608 29.1268 13.999C29.1546 13.8625 29.1174 13.7216 29.0264 13.6164C28.9359 13.5113 28.8081 13.4553 28.6619 13.4625C27.7855 13.5126 26.6584 13.6634 25.7107 14.3892C25.5148 14.5396 25.335 14.7025 25.1673 14.8716C25.2467 14.391 25.2593 13.8684 25.1951 13.3367C25.0382 12.0412 24.2918 11.0442 23.6592 10.3202C23.5682 10.2155 23.4342 10.1577 23.2938 10.1676C23.1549 10.1761 23.028 10.2486 22.95 10.3631C22.9155 10.4146 22.0995 11.6264 21.7983 12.7854C21.736 13.0248 21.8799 13.2692 22.1197 13.3309C22.3587 13.3931 22.6039 13.2499 22.6658 13.0105C22.8173 12.4288 23.1334 11.8077 23.3754 11.3839C23.8049 11.9455 24.2075 12.6369 24.3048 13.4437C24.3581 13.8831 24.3496 14.3109 24.2882 14.7016C24.0824 14.4071 23.865 14.1391 23.6592 13.9033C23.5682 13.7986 23.4342 13.7413 23.2938 13.7507C23.1549 13.7592 23.028 13.8312 22.95 13.9467C22.9222 13.9883 22.5281 14.5754 22.187 15.3178C21.9314 14.984 21.6136 14.6671 21.2495 14.3892C20.3023 13.6634 19.1747 13.5126 18.2987 13.4625C18.1535 13.4558 18.0248 13.5117 17.9343 13.6164C17.8433 13.7216 17.806 13.8625 17.8338 13.999C17.8464 14.0608 18.1526 15.5304 18.7955 16.4696C18.8403 16.5354 18.9968 16.7171 19.1541 16.8961C18.9824 16.8782 18.8143 16.8639 18.6556 16.8549C18.5153 16.8455 18.3821 16.9037 18.2911 17.0089C18.2001 17.1136 18.1629 17.255 18.1907 17.3915C18.2073 17.4729 18.6099 19.4025 19.4724 20.34C19.5164 20.3879 19.5684 20.4237 19.6244 20.4479C17.8038 22.624 16.5835 26.2751 16.5835 29.7549C16.5835 35.8332 20.9474 35.8332 23.2916 35.8332C26.827 35.8332 30.0002 35.3682 30.0002 29.7549C30.0002 26.319 28.779 22.6437 26.9714 20.4662C27.0059 20.4743 27.04 20.485 27.0749 20.485Z" fill="#5DCBEE"/>
<path fill-rule="evenodd" clip-rule="evenodd" d="M23.2916 34.9382C20.2292 34.9382 17.4801 34.5417 17.4801 29.7549C17.4801 26.076 18.8995 22.215 20.9317 20.3669C21.115 20.2004 21.128 19.9176 20.9613 19.7346C20.7949 19.552 20.5116 19.539 20.3278 19.705C20.2825 19.7462 20.239 19.7936 20.1947 19.8366C20.1767 19.8017 20.161 19.7654 20.1328 19.735C19.7185 19.2844 19.4016 18.4292 19.2191 17.8027C19.8844 17.8869 20.6165 18.0757 21.2267 18.5424C21.6418 18.8606 21.9884 19.2298 22.2282 19.6097C22.3596 19.8187 22.6362 19.8818 22.8464 19.7498C23.0558 19.6182 23.1186 19.3417 22.9863 19.1327C22.9182 19.0239 22.8415 18.917 22.7604 18.8114C22.7725 18.7438 22.7738 18.6736 22.7518 18.6037C22.6124 18.1554 22.5541 17.6296 22.5837 17.0841C22.6182 16.4365 23.0374 15.5608 23.375 14.9665C23.8049 15.5281 24.2075 16.2195 24.3048 17.0268C24.3702 17.5691 24.3469 18.0972 24.238 18.5541C24.229 18.5935 24.2331 18.6319 24.2344 18.67C24.1084 18.8212 23.991 18.9752 23.8914 19.1327C23.7592 19.3417 23.8224 19.6182 24.0313 19.7498C24.2416 19.8818 24.5182 19.8191 24.6495 19.6097C24.8894 19.2298 25.2359 18.8606 25.6515 18.5424C26.2612 18.0757 26.9929 17.8869 27.6586 17.8027C27.4762 18.4292 27.1592 19.2844 26.745 19.735C26.654 19.8339 26.6208 19.9614 26.6338 20.085C26.5656 20.0125 26.4979 19.9364 26.4285 19.8684C26.2523 19.6961 25.9685 19.6988 25.7945 19.876C25.6215 20.0527 25.6251 20.336 25.8026 20.5087C26.3303 21.0233 26.8127 21.6821 27.2386 22.4347C27.1426 22.4464 27.0485 22.4822 26.9749 22.5556L25.6632 23.8649L23.7834 21.9886C23.7803 21.9855 23.7798 21.9814 23.7767 21.9787C23.6014 21.8038 23.3181 21.8038 23.1428 21.9787L23.1419 21.9796L23.141 21.9801L23.1405 21.981L21.0478 24.0699L20.1884 23.212C20.0135 23.0371 19.7298 23.0371 19.5545 23.212C19.3792 23.387 19.3792 23.6698 19.5545 23.8448L20.4139 24.7026L19.0403 26.0738C18.865 26.2487 18.865 26.5316 19.0403 26.7065C19.1277 26.7938 19.2424 26.8376 19.3572 26.8376C19.4715 26.8376 19.5863 26.7938 19.6742 26.7065L21.0478 25.3354L22.6191 26.9034L20.7914 28.7279L20.6981 28.6348C20.5228 28.4598 20.239 28.4598 20.0642 28.6348C19.8889 28.8093 19.8889 29.0926 20.0642 29.2675L20.1574 29.3606L18.7991 30.7161C18.6242 30.891 18.6242 31.1743 18.7991 31.3488C18.8869 31.4365 19.0017 31.4799 19.1165 31.4799C19.2308 31.4799 19.3456 31.4365 19.4334 31.3488L20.7914 29.9934L22.3111 31.5104L21.1298 32.69C20.9545 32.8645 20.9545 33.1478 21.1298 33.3227C21.2173 33.41 21.332 33.4538 21.4468 33.4538C21.5616 33.4538 21.6759 33.41 21.7638 33.3227L22.9455 32.1431L24.1667 33.3626C24.2541 33.4498 24.3689 33.4932 24.4837 33.4932C24.5984 33.4932 24.7132 33.4498 24.8006 33.3626C24.9759 33.1876 24.9759 32.9043 24.8006 32.7293L23.5794 31.5104L25.4067 29.6864L26.8301 31.1067C26.9176 31.1944 27.0323 31.2378 27.1471 31.2378C27.2614 31.2378 27.3762 31.1944 27.4641 31.1067C27.6389 30.9322 27.6389 30.6489 27.4641 30.474L26.0407 29.0536L28.7193 26.3794C28.9668 27.4843 29.1035 28.6321 29.1035 29.7549C29.1035 34.5663 26.6947 34.9382 23.2916 34.9382ZM20.1991 16.722C20.0821 16.5949 19.5984 16.0495 19.5361 15.9649C19.2254 15.5111 19.0008 14.8743 18.865 14.4121C19.4778 14.4935 20.1462 14.6721 20.7044 15.0994C21.0931 15.397 21.4172 15.7425 21.6418 16.0978C21.6889 16.1721 21.7566 16.2204 21.8301 16.2557C21.7539 16.5207 21.7014 16.7851 21.688 17.0362C21.6745 17.2899 21.6817 17.5392 21.7001 17.7839C21.2549 17.4582 20.7761 17.2483 20.2996 17.1114C20.3269 16.9762 20.2991 16.8317 20.1991 16.722ZM25.3184 16.0978C25.543 15.7425 25.8676 15.397 26.2563 15.0994C26.814 14.6721 27.4829 14.4935 28.0957 14.4121C27.9603 14.8739 27.7366 15.5093 27.4277 15.9604C27.3623 16.0495 26.8786 16.5949 26.7615 16.722C26.6674 16.8254 26.6369 16.9597 26.6553 17.0876C26.1734 17.2183 25.6865 17.4264 25.2324 17.7468C25.2386 17.4761 25.2288 17.1995 25.1951 16.9198C25.1687 16.6988 25.1194 16.4898 25.062 16.2857C25.1642 16.2566 25.2575 16.1953 25.3184 16.0978ZM27.8169 26.0147L26.2971 24.4977L27.6089 23.1883C27.6147 23.1825 27.616 23.1753 27.6214 23.1695C27.9496 23.8546 28.2316 24.5993 28.4593 25.3788C28.4548 25.3828 28.4481 25.3842 28.4436 25.3891L27.8169 26.0147ZM23.4579 22.9297L25.0293 24.4977L23.2531 26.2707L21.6817 24.7026L23.4579 22.9297ZM24.7728 29.0536L22.9455 30.8776L21.4253 29.3606L23.2531 27.5362L24.7728 29.0536ZM23.887 26.9034L25.6632 25.1304L27.183 26.6475L25.4067 28.4209L23.887 26.9034ZM27.0749 20.485C27.196 20.485 27.317 20.4362 27.4053 20.34C28.2683 19.4025 28.6705 17.4729 28.6871 17.3915C28.7153 17.255 28.6781 17.1136 28.5871 17.0089C28.4956 16.9042 28.3652 16.8455 28.2222 16.8549C28.0917 16.8621 27.955 16.8728 27.8155 16.8863C27.9702 16.7104 28.1208 16.5341 28.1652 16.4696C28.8081 15.5304 29.1138 14.0608 29.1268 13.999C29.1546 13.8625 29.1174 13.7216 29.0264 13.6164C28.9359 13.5113 28.8081 13.4553 28.6619 13.4625C27.7855 13.5126 26.6584 13.6634 25.7107 14.3892C25.5148 14.5396 25.335 14.7025 25.1673 14.8716C25.2467 14.391 25.2593 13.8684 25.1951 13.3367C25.0382 12.0412 24.2918 11.0442 23.6592 10.3202C23.5682 10.2155 23.4342 10.1577 23.2938 10.1676C23.1549 10.1761 23.028 10.2486 22.95 10.3631C22.9155 10.4146 22.0995 11.6264 21.7983 12.7854C21.736 13.0248 21.8799 13.2692 22.1197 13.3309C22.3587 13.3931 22.6039 13.2499 22.6658 13.0105C22.8173 12.4288 23.1334 11.8077 23.3754 11.3839C23.8049 11.9455 24.2075 12.6369 24.3048 13.4437C24.3581 13.8831 24.3496 14.3109 24.2882 14.7016C24.0824 14.4071 23.865 14.1391 23.6592 13.9033C23.5682 13.7986 23.4342 13.7413 23.2938 13.7507C23.1549 13.7592 23.028 13.8312 22.95 13.9467C22.9222 13.9883 22.5281 14.5754 22.187 15.3178C21.9314 14.984 21.6136 14.6671 21.2495 14.3892C20.3023 13.6634 19.1747 13.5126 18.2987 13.4625C18.1535 13.4558 18.0248 13.5117 17.9343 13.6164C17.8433 13.7216 17.806 13.8625 17.8338 13.999C17.8464 14.0608 18.1526 15.5304 18.7955 16.4696C18.8403 16.5354 18.9968 16.7171 19.1541 16.8961C18.9824 16.8782 18.8143 16.8639 18.6556 16.8549C18.5153 16.8455 18.3821 16.9037 18.2911 17.0089C18.2001 17.1136 18.1629 17.255 18.1907 17.3915C18.2073 17.4729 18.6099 19.4025 19.4724 20.34C19.5164 20.3879 19.5684 20.4237 19.6244 20.4479C17.8038 22.624 16.5835 26.2751 16.5835 29.7549C16.5835 35.8332 20.9474 35.8332 23.2916 35.8332C26.827 35.8332 30.0002 35.3682 30.0002 29.7549C30.0002 26.319 28.779 22.6437 26.9714 20.4662C27.0059 20.4743 27.04 20.485 27.0749 20.485Z" stroke="#5DCBEE" stroke-width="0.6" mask="url(#path-4-outside-1)"/>
</g>
</svg>
