<svg width="46" height="46" viewBox="0 0 46 46" fill="none" xmlns="http://www.w3.org/2000/svg">
<rect width="46" height="46" rx="10" fill="white"/>
<rect x="3" y="3" width="40" height="40" fill="white"/>
<g clip-path="url(#clip0)">
<path d="M26.4931 32.5679L26.4931 32.5679C27.0067 32.1506 27.7642 32.2289 28.1819 32.7429C28.599 33.2565 28.5206 34.0142 28.0069 34.4316C27.4933 34.849 26.7355 34.7706 26.3181 34.2569C25.9007 33.7433 25.9792 32.9854 26.4931 32.5679ZM29.2171 31.9019L29.2171 31.9019C28.3356 30.8172 26.7368 30.6515 25.6521 31.5328C24.5675 32.414 24.4018 34.0132 25.283 35.098C26.1642 36.1827 27.7634 36.348 28.848 35.4668C29.9329 34.5855 30.0983 32.9866 29.2171 31.9019Z" fill="#5DCBEE" stroke="#5DCBEE" stroke-width="0.4"/>
<mask id="mask0" mask-type="alpha" maskUnits="userSpaceOnUse" x="12" y="10" width="20" height="22">
<path d="M12 10H32V32H12V10Z" fill="white"/>
</mask>
<g mask="url(#mask0)">
<path d="M27.8619 26.4906L27.8619 26.4906C27.3062 26.9211 27.2241 27.6969 27.6723 28.2236L27.8619 26.4906ZM27.8619 26.4906C28.4228 26.0555 29.2511 26.1392 29.7037 26.6712L29.7038 26.6713M27.8619 26.4906L29.7038 26.6713M29.7038 26.6713C30.1522 27.1977 30.0702 27.9734 29.5145 28.4043M29.7038 26.6713L29.5145 28.4043M28.4772 23.1359L28.4773 23.1359C29.2082 22.9575 29.6342 22.2496 29.4478 21.567C29.26 20.8801 28.516 20.4514 27.7815 20.6306L28.4772 23.1359ZM28.4772 23.1359C28.1228 23.2225 27.7543 23.1716 27.4384 22.9931L27.4384 22.9931M28.4772 23.1359L27.4384 22.9931M27.4384 22.9931C26.3981 22.4053 26.6144 20.9155 27.7814 20.6306L27.4384 22.9931ZM17.637 19.053C16.4652 18.9413 15.3595 18.592 14.4998 18.2273C14.0333 18.0293 13.6364 17.8257 13.3378 17.6505C13.1885 17.563 13.0623 17.4817 12.9635 17.411C12.8688 17.3433 12.787 17.2768 12.7371 17.2181L17.637 19.053ZM17.637 19.053C17.188 20.11 17.4152 21.288 18.1227 22.1199L18.1228 22.12C18.3593 22.3975 18.6476 22.6354 18.9779 22.8221C19.3325 23.0226 19.716 23.1528 20.1103 23.2111C19.8998 23.7072 19.8482 24.2715 20.0011 24.8309L20.0011 24.831C20.1025 25.2014 20.2828 25.5322 20.5204 25.8115C20.5667 25.8659 20.6154 25.9171 20.6655 25.9655C19.8865 26.8254 19.5664 28.0123 19.8573 29.1432L19.8574 29.1434C19.8834 29.244 19.9313 29.3349 19.9962 29.4109M17.637 19.053L19.9962 29.4109M19.9962 29.4109C19.9962 29.4109 19.9961 29.4108 19.9961 29.4108L20.1484 29.2811L19.9962 29.4109ZM19.9962 29.4109C20.1633 29.607 20.4355 29.7017 20.7032 29.6391L20.7033 29.6391C21.0738 29.5523 21.3144 29.1884 21.2191 28.8157L21.2191 28.8155C21.0096 27.9996 21.3142 27.1261 22.0026 26.5924L22.0026 26.5924C22.9928 25.8245 24.4541 25.9705 25.2561 26.9127C26.0529 27.8489 25.9052 29.229 24.9205 29.9927C24.2988 30.4748 23.4734 30.6162 22.7113 30.3681L19.9962 29.4109ZM26.9665 29.4471C27.9394 30.2164 29.3756 30.2519 30.3923 29.4637L30.3923 29.4637C31.5542 28.5626 31.7341 26.9209 30.787 25.808C29.8446 24.7008 28.1406 24.534 26.9838 25.4312L26.9838 25.4312C26.7791 25.59 26.6056 25.7722 26.4633 25.9705C26.4513 25.9228 26.4394 25.8754 26.4275 25.8283C26.1911 24.8894 25.981 24.0546 25.8377 23.2218C26.0607 23.5719 26.3748 23.8776 26.7736 24.1031L26.7736 24.1031C27.8013 24.684 28.9411 24.5252 29.7464 23.9466C30.5525 23.3673 31.0346 22.3575 30.73 21.243C30.3121 19.7139 28.5689 18.8929 27.0601 19.5114C26.7613 19.2096 26.3067 18.619 26.0884 17.6698C27.0226 14.2611 29.2319 12.2865 29.7473 11.9087L29.7475 11.9085C30.0403 11.6932 30.0958 11.2855 29.8678 11.0016C29.644 10.7214 29.2303 10.6721 28.9431 10.8826L28.9426 10.883C28.8947 10.9183 28.3092 11.355 27.5689 12.1982C27.3908 12.3313 26.662 12.8482 25.3471 13.447C24.5563 13.1006 22.56 12.362 20.0914 12.4524C19.7331 12.4654 19.4395 12.7573 19.4569 13.1213L19.6567 13.1118M26.9665 29.4471L20.14 13.5372C19.8844 13.5464 19.668 13.3561 19.6567 13.1118M26.9665 29.4471C26.7492 30.0571 26.3582 30.6177 25.7979 31.052L26.9665 29.4471ZM19.6567 13.1118L19.4569 13.121C19.4737 13.4833 19.7905 13.7499 20.1472 13.737L20.1474 13.737C21.4831 13.6881 22.6641 13.9134 23.5408 14.1662C21.8034 14.7689 19.4916 15.3377 16.5699 15.59L20.0987 12.6523C19.843 12.6615 19.645 12.8674 19.6567 13.1118ZM29.5145 28.4043C28.9533 28.8393 28.1253 28.7557 27.6724 28.2237L29.5145 28.4043ZM12.8023 15.6929C12.3725 16.1183 12.3609 16.7762 12.737 17.2179L17.8083 12.7816C15.9533 13.2589 14.269 14.2403 12.8023 15.6929ZM12.8023 15.6929L12.943 15.8351L12.8023 15.693C12.8023 15.693 12.8023 15.6929 12.8023 15.6929ZM18.793 20.6372L18.793 20.6371C18.4484 19.3769 19.6198 18.1664 21.0605 18.5186C22.8762 19.0034 22.8542 21.464 21.0463 21.9055C20.5675 22.0223 20.0696 21.9536 19.6431 21.7125C19.2168 21.4714 18.9164 21.0891 18.793 20.6372ZM22.2538 22.9377L22.2538 22.9377C22.8409 22.7944 23.375 23.027 23.6869 23.4204C23.9801 23.7901 24.072 24.2937 23.8281 24.7629C23.1121 24.6948 22.3762 24.8248 21.7161 25.1623C21.51 24.9945 21.3553 24.7701 21.2833 24.5063L21.2833 24.5063C21.0969 23.8241 21.5228 23.1161 22.2538 22.9377ZM22.7113 30.3681C22.3522 30.251 21.9527 30.4311 21.8244 30.7893L21.8243 30.7895C21.6948 31.1527 21.9011 31.5367 22.2635 31.6547C23.4784 32.0503 24.8 31.8258 25.7979 31.052L22.7113 30.3681ZM16.1201 16.6377C16.2562 16.7977 16.468 16.8898 16.6928 16.8705L16.6929 16.8705C19.4389 16.6333 21.6704 16.1344 23.4234 15.5763C22.7162 16.3023 21.9563 16.8516 21.1511 17.2217C20.2628 17.0595 19.3335 17.2727 18.6209 17.8035C17.3474 17.8349 16.1295 17.4924 15.2197 17.1267C14.7583 16.9413 14.3792 16.7512 14.1164 16.604C14.0227 16.5516 13.9445 16.505 13.883 16.4665C15.1545 15.2459 16.5909 14.4261 18.1542 14.0239L18.1543 14.0239C18.5032 13.9339 18.7209 13.5835 18.6203 13.2326L18.6202 13.2324C18.5205 12.8862 18.1534 12.6926 17.8085 12.7816L16.1201 16.6377ZM26.0044 20.2908C25.853 20.477 25.7329 20.6767 25.6432 20.8841C25.6471 20.573 25.663 20.2513 25.6926 19.915C25.7896 20.0451 25.8936 20.1708 26.0044 20.2908ZM23.3378 21.7136C23.7134 21.0784 23.8443 20.3309 23.6743 19.5822C23.8961 19.4825 24.1561 19.3435 24.4348 19.1518C24.3009 20.1827 24.2871 21.2226 24.3783 22.2636C24.0782 22.0091 23.7221 21.8208 23.3378 21.7136ZM25.0201 16.6195C24.3581 17.716 23.587 18.2047 23.125 18.4132C22.9796 18.2239 22.8113 18.0513 22.6229 17.8983C23.8199 17.1531 24.8958 16.0661 25.835 14.6597C25.8497 14.653 25.8644 14.6464 25.8791 14.6397C25.5376 15.276 25.2513 15.9362 25.0201 16.6195Z" fill="#5DCBEE" stroke="#5DCBEE" stroke-width="0.4"/>
</g>
</g>
<defs>
<clipPath id="clip0">
<rect width="26" height="28" fill="white" transform="translate(10 9)"/>
</clipPath>
</defs>
</svg>
