<svg width="46" height="46" viewBox="0 0 46 46" fill="none" xmlns="http://www.w3.org/2000/svg">
<rect width="46" height="46" rx="10" fill="white"/>
<rect x="3" y="3" width="40" height="40" fill="white"/>
<path d="M25.1551 20.4841C25.1954 20.4953 25.2357 20.5005 25.276 20.5005C25.4687 20.5005 25.6467 20.3764 25.7021 20.1863C25.9625 19.2878 26.0546 18.2522 25.9683 17.1912L22.8894 12.1755C22.8026 12.2905 20.7525 15.015 20.5443 17.1512C20.4416 18.2091 20.5173 19.246 20.7631 20.1497C20.826 20.3794 21.0713 20.5164 21.3047 20.4557M25.1551 20.4841C24.92 20.4195 24.7831 20.1812 24.8491 19.9523C25.0816 19.1508 25.1636 18.2195 25.0852 17.2593M25.1551 20.4841L25.1021 20.677C25.102 20.6769 25.1019 20.6769 25.1018 20.6769M25.1551 20.4841L25.1016 20.6768C25.1016 20.6768 25.1017 20.6768 25.1018 20.6769M25.0852 17.2593C24.9582 15.7069 24.188 14.3819 23.3955 13.3275C23.3582 13.3828 23.3188 13.4417 23.2778 13.504M25.0852 17.2593L24.8858 17.2756M25.0852 17.2593L24.8858 17.2756C24.8858 17.2756 24.8858 17.2756 24.8858 17.2756M23.2778 13.504C23.2353 13.4469 23.1926 13.3904 23.1499 13.3347C22.5507 14.2372 21.5549 15.9105 21.4257 17.2322C21.3326 18.1902 21.4 19.1223 21.6196 19.9286C21.6825 20.1587 21.5412 20.3945 21.3047 20.4557M23.2778 13.504C24.0455 14.5364 24.7656 15.8052 24.8858 17.2756M23.2778 13.504C23.0072 13.9149 22.6652 14.4706 22.3611 15.0734C21.9932 15.8025 21.6902 16.5826 21.6247 17.2516C21.6247 17.2516 21.6247 17.2515 21.6247 17.2515L21.4257 17.2322L21.6247 17.2517C21.5337 18.189 21.6002 19.0963 21.8126 19.8759L21.8126 19.8761C21.9061 20.2186 21.6942 20.5615 21.3548 20.6493M21.3047 20.4557L21.3551 20.6492C21.355 20.6492 21.3549 20.6493 21.3548 20.6493M21.3047 20.4557L21.3548 20.6493M21.3548 20.6493C21.0199 20.7363 20.6631 20.5419 20.5702 20.2025L20.5701 20.2022C20.3172 19.2722 20.2405 18.2107 20.3453 17.1318L20.3453 17.1318C20.4537 16.0193 21.0367 14.7733 21.5887 13.8062C22.1441 12.8332 22.6839 12.1157 22.7297 12.055L22.7304 12.0541C22.8496 11.8979 23.0354 11.8043 23.2328 11.8005L23.2366 11.8005V11.8005C23.4278 11.8005 23.6182 11.8798 23.7457 12.0345M23.7457 12.0345L23.5913 12.1617L23.7456 12.0344C23.7457 12.0344 23.7457 12.0345 23.7457 12.0345ZM23.7457 12.0345C24.7664 13.2724 25.9901 14.9984 26.1676 17.175L26.1676 17.175C26.2557 18.2569 26.1622 19.3172 25.8942 20.242L25.8941 20.2423C25.8124 20.5228 25.5522 20.7005 25.276 20.7005C25.2185 20.7005 25.1602 20.6931 25.1018 20.6769M25.1018 20.6769C24.7634 20.5837 24.559 20.2367 24.6569 19.8969L24.657 19.8966C24.8818 19.1217 24.9625 18.2152 24.8858 17.2756" fill="#5DCBEE" stroke="#5DCBEE" stroke-width="0.4"/>
<path d="M24.543 20.3099L24.5431 20.31C24.7452 20.5702 24.6475 20.9124 24.366 21.0683L24.543 20.3099ZM24.543 20.3099C24.2761 19.9663 23.9761 19.6792 23.6501 19.4576M24.543 20.3099L23.2643 19.35M23.2643 19.35L23.2643 19.3506C23.266 19.3507 23.2679 19.3508 23.2701 19.3509C23.2832 19.3514 23.3042 19.3522 23.326 19.355C23.4298 19.3619 23.5462 19.3869 23.6501 19.4576M23.2643 19.35L23.2504 19.3507M23.2643 19.35L23.2504 19.3507M23.6501 19.4576C23.6501 19.4576 23.6502 19.4576 23.6502 19.4576L23.5658 19.5816L23.6501 19.4576C23.6501 19.4576 23.6501 19.4576 23.6501 19.4576ZM23.2504 19.3507C23.2492 19.3507 23.2474 19.3508 23.245 19.3509M23.2504 19.3507L23.245 19.3509M24.0425 21.1505C23.8556 21.1505 23.6617 21.0739 23.541 20.9177C23.4489 20.7992 23.3514 20.6945 23.2502 20.5981C23.1471 20.6936 23.0475 20.7972 22.9533 20.9144C22.8319 21.0658 22.6409 21.1401 22.4571 21.1401C22.3452 21.1401 22.2298 21.1132 22.1263 21.0537C21.8466 20.8938 21.7553 20.55 21.9617 20.293L24.0425 21.1505ZM24.0425 21.1505C24.1519 21.1505 24.2646 21.1245 24.366 21.0683L24.0425 21.1505ZM23.245 19.3509C23.2355 19.3512 23.2172 19.3518 23.2001 19.3536M23.245 19.3509L23.2001 19.3536M23.2001 19.3536C23.0947 19.3586 22.9768 19.3821 22.8705 19.4522L22.9531 19.5774M23.2001 19.3536L22.9531 19.5774M22.9531 19.5774L22.8706 19.4521C22.5405 19.6695 22.2349 19.9525 21.9617 20.2929L22.9531 19.5774Z" fill="#5DCBEE" stroke="#5DCBEE" stroke-width="0.3"/>
<mask id="mask0" mask-type="alpha" maskUnits="userSpaceOnUse" x="11" y="18" width="10" height="8">
<path d="M11 18.3845H20.6881V25.7691H11V18.3845Z" fill="white"/>
</mask>
<g mask="url(#mask0)">
<path d="M18.9758 25.092L18.9754 25.092C18.0209 25.04 16.9941 24.7844 16.005 24.3559C14.986 23.9149 13.9822 22.996 13.2325 22.1907C12.4786 21.3809 11.9615 20.6637 11.9172 20.6017L18.9758 25.092ZM18.9758 25.092C18.9893 25.0927 19.0016 25.0927 19.0091 25.0927H19.0103C19.3417 25.0927 19.6191 24.8338 19.6373 24.4986L19.6373 24.4986M18.9758 25.092L19.6373 24.4986M19.6373 24.4986C19.6561 24.1519 19.3909 23.8557 19.044 23.8367C18.2433 23.7928 17.3643 23.5749 16.5042 23.2024L16.5042 23.2023C15.8905 22.9366 15.243 22.4177 14.6633 21.8552C14.188 21.3938 13.7676 20.9124 13.4603 20.5385M19.6373 24.4986L13.4603 20.5385M13.4603 20.5385C14.6645 20.1507 16.0759 19.88 17.4984 20.2212L17.4984 20.2212C18.4107 20.4398 19.2444 20.7926 19.9101 21.2378L19.9105 21.2381C20.1993 21.4304 20.5892 21.3539 20.782 21.0644M13.4603 20.5385L12.0182 20.112L11.8267 20.0542C11.8833 19.8668 12.0235 19.7172 12.2057 19.6482L12.2058 19.6481C13.6828 19.089 15.6821 18.4936 17.7913 18.9987L17.7913 18.9987C18.8402 19.2499 19.8145 19.6618 20.6086 20.1926L20.6086 20.1926C20.8969 20.3854 20.9751 20.7757 20.782 21.0644M20.782 21.0644C20.782 21.0644 20.782 21.0645 20.782 21.0645L20.6158 20.9533L20.7823 21.0641C20.7822 21.0642 20.7821 21.0643 20.782 21.0644ZM17.7447 19.1932L17.7447 19.1931L17.7447 19.1932ZM19.0103 24.8927C19.2362 24.8927 19.4252 24.7162 19.4376 24.4877L18.9863 24.8923C18.9945 24.8927 19.0022 24.8927 19.0103 24.8927Z" fill="#5DCBEE" stroke="#5DCBEE" stroke-width="0.4"/>
</g>
<path d="M20.3773 21.3717L20.3773 21.3717C20.7034 21.2818 21.0399 21.4785 21.1282 21.8097C21.216 22.1384 21.0277 22.4823 20.7001 22.5738M20.3773 21.3717L20.6596 22.4293M20.3773 21.3717L20.3768 21.3718C19.9052 21.5036 19.4868 21.6899 19.1345 21.9262M20.3773 21.3717L19.2179 22.0509M20.7001 22.5738C20.7 22.5738 20.7 22.5738 20.7 22.5738L20.6596 22.4293M20.7001 22.5738C20.7001 22.5738 20.7001 22.5738 20.7001 22.5738L20.6596 22.4293M20.7001 22.5738C20.5384 22.6191 20.3907 22.6745 20.2515 22.7363M20.6596 22.4293C20.4862 22.478 20.3285 22.5376 20.1809 22.6036C20.2036 22.6479 20.227 22.6921 20.2515 22.7363M20.2515 22.7363C20.3273 22.8729 20.4134 23.0094 20.517 23.1465M20.2515 22.7363C20.2053 22.7569 20.1599 22.7781 20.1153 22.7999C20.1951 22.9446 20.2865 23.0902 20.3973 23.2369L20.517 23.1465M20.517 23.1465C20.7218 23.417 20.6749 23.8063 20.4097 24.0179L20.4092 24.0183C20.298 24.1062 20.1655 24.15 20.0335 24.15C19.8505 24.15 19.6698 24.0666 19.5494 23.9081L19.5492 23.9078C19.2506 23.5126 19.0249 23.1074 18.8815 22.7017L18.8813 22.7012C18.837 22.5743 18.8446 22.4496 18.8718 22.3417M20.517 23.1465L19.0501 22.2746M18.8718 22.3417C18.8713 22.3448 18.8708 22.3478 18.8704 22.3509L19.0188 22.3726L18.8737 22.3346C18.873 22.337 18.8724 22.3394 18.8718 22.3417ZM18.8718 22.3417C18.8761 22.3172 18.8829 22.2948 18.8869 22.2814C18.8876 22.2792 18.8881 22.2773 18.8886 22.2756L18.8907 22.2686L18.8908 22.2687L18.8909 22.2686C18.8954 22.2555 18.9023 22.2355 18.9129 22.2137M18.9129 22.2137C18.9119 22.2161 18.911 22.2184 18.9101 22.2208L19.0501 22.2746M18.9129 22.2137C18.9142 22.211 18.9156 22.2082 18.917 22.2055L19.0501 22.2746M18.9129 22.2137C18.9537 22.1104 19.0202 22.0025 19.1345 21.9262M19.0501 22.2746C19.0838 22.1871 19.135 22.1062 19.2179 22.0509M19.1345 21.9262C19.1345 21.9262 19.1344 21.9263 19.1344 21.9263L19.2179 22.0509M19.1345 21.9262C19.1346 21.9262 19.1347 21.9261 19.1347 21.9261L19.2179 22.0509" fill="#5DCBEE" stroke="#5DCBEE" stroke-width="0.3"/>
<path d="M15.8227 32.6096C15.8319 32.8048 15.9347 32.982 16.0951 33.0906L16.0954 33.0908C16.2028 33.1632 16.3284 33.2002 16.4547 33.2002C16.5169 33.2002 16.5809 33.1914 16.6435 33.1717C16.7165 33.1493 17.5665 32.8844 18.5793 32.4266C19.586 31.9716 20.7812 31.3139 21.5226 30.4971C22.2429 29.7038 22.8084 28.8233 23.1564 27.9481C23.2852 27.6242 23.1179 27.2653 22.7936 27.1435C22.4728 27.0222 22.1055 27.1762 21.9778 27.4972L21.9778 27.4972C21.6865 28.2299 21.203 28.9829 20.5775 29.6726C20.1309 30.1644 19.4306 30.6112 18.7094 30.9816C18.1161 31.2862 17.5207 31.533 17.0653 31.7062C17.0691 30.4679 17.2499 29.0722 18.0188 27.8504C18.5128 27.0673 19.1113 26.3962 19.747 25.9094L19.7472 25.9093C20.0226 25.6979 20.0724 25.3051 19.8526 25.0341C19.6358 24.7667 19.2413 24.7235 18.9687 24.9312L18.9682 24.9315C18.2104 25.5122 17.5109 26.2965 16.9427 27.1984L16.9426 27.1985C15.7985 29.0152 15.7466 31.0619 15.8227 32.6096ZM15.8227 32.6096C15.8227 32.6095 15.8227 32.6095 15.8227 32.6094L16.0225 32.6001L15.8228 32.6099C15.8228 32.6098 15.8228 32.6097 15.8227 32.6096Z" fill="#5DCBEE" stroke="#5DCBEE" stroke-width="0.4"/>
<path d="M21.0672 27.1503V27.1502H21.0671H21.0671H21.0671H21.067H21.067H21.067H21.067H21.0669H21.0669H21.0669H21.0668H21.0668H21.0668H21.0668H21.0667H21.0667H21.0667H21.0666H21.0666H21.0666H21.0666H21.0665H21.0665H21.0665H21.0664H21.0664H21.0664H21.0663H21.0663H21.0663H21.0663H21.0662H21.0662H21.0662H21.0661H21.0661H21.0661H21.0661H21.066H21.066H21.066H21.0659H21.0659H21.0659H21.0659H21.0658H21.0658H21.0658H21.0657H21.0657H21.0657H21.0657H21.0656H21.0656H21.0656H21.0655H21.0655H21.0655H21.0655H21.0654H21.0654H21.0654H21.0653H21.0653H21.0653H21.0652H21.0652H21.0652H21.0652H21.0651H21.0651H21.0651H21.065H21.065H21.065H21.065H21.0649H21.0649H21.0649H21.0648H21.0648H21.0648H21.0648H21.0647H21.0647H21.0647H21.0646H21.0646H21.0646H21.0646H21.0645H21.0645H21.0645H21.0644H21.0644H21.0644H21.0644H21.0643H21.0643H21.0643H21.0642H21.0642H21.0642H21.0642H21.0641H21.0641H21.0641H21.064H21.064H21.064H21.064H21.0639H21.0639H21.0639H21.0638H21.0638H21.0638H21.0638H21.0637H21.0637H21.0637H21.0636H21.0636H21.0636H21.0636H21.0635H21.0635H21.0635H21.0634H21.0634H21.0634H21.0634H21.0633H21.0633H21.0633H21.0633H21.0632H21.0632H21.0632H21.0631H21.0631H21.0631H21.0631H21.063H21.063H21.063H21.0629H21.0629H21.0629H21.0629H21.0628H21.0628H21.0628H21.0627H21.0627H21.0627H21.0627H21.0626H21.0626H21.0626H21.0625H21.0625H21.0625H21.0625H21.0624H21.0624H21.0624H21.0623H21.0623H21.0623H21.0623H21.0622H21.0622H21.0622H21.0621H21.0621H21.0621H21.0621H21.062H21.062H21.062H21.0619H21.0619H21.0619H21.0619H21.0618H21.0618H21.0618H21.0618H21.0617H21.0617H21.0617H21.0616H21.0616H21.0616H21.0616H21.0615H21.0615H21.0615H21.0614H21.0614H21.0614H21.0614H21.0613H21.0613H21.0613H21.0612H21.0612H21.0612H21.0612H21.0611H21.0611H21.0611H21.061H21.061H21.061H21.061H21.0609H21.0609H21.0609H21.0609H21.0608H21.0608H21.0608H21.0607H21.0607H21.0607H21.0607H21.0606H21.0606H21.0606H21.0605H21.0605H21.0605H21.0605H21.0604H21.0604H21.0604H21.0603H21.0603H21.0603H21.0603H21.0602H21.0602H21.0602H21.0601H21.0601H21.0601H21.0601H21.06H21.06H21.06H21.06H21.0599H21.0599H21.0599H21.0598H21.0598H21.0598H21.0598H21.0597H21.0597H21.0597H21.0596H21.0596H21.0596H21.0596H21.0595H21.0595H21.0595H21.0594H21.0594H21.0594H21.0594H21.0593H21.0593H21.0593H21.0593H21.0592H21.0592H21.0592H21.0591H21.0591H21.0591H21.0591H21.059H21.059H21.059H21.0589H21.0589H21.0589H21.0589H21.0588H21.0588H21.0588H21.0587H21.0587H21.0587H21.0587H21.0586H21.0586H21.0586H21.0585H21.0585H21.0585H21.0585H21.0584H21.0584H21.0584H21.0584H21.0583H21.0583H21.0583H21.0582H21.0582H21.0582H21.0582H21.0581H21.0581H21.0581H21.058H21.058H21.058H21.058H21.0579H21.0579H21.0579H21.0578H21.0578H21.0578H21.0578H21.0577H21.0577H21.0577H21.0576H21.0576H21.0576H21.0576H21.0575H21.0575H21.0575H21.0574H21.0574H21.0574H21.0574H21.0573H21.0573H21.0573H21.0573H21.0572H21.0572H21.0572H21.0571H21.0571H21.0571H21.0571H21.057H21.057H21.057H21.0569H21.0569H21.0569H21.0569H21.0568H21.0568H21.0568H21.0567H21.0567H21.0567H21.0567H21.0566H21.0566H21.0566H21.0565H21.0565H21.0565H21.0565H21.0564H21.0564H21.0564H21.0563H21.0563H21.0563H21.0563H21.0562H21.0562H21.0562H21.0561H21.0561H21.0561H21.0561H21.056H21.056H21.056H21.0559H21.0559H21.0559H21.0559H21.0558H21.0558H21.0558H21.0557H21.0557H21.0557H21.0557H21.0556H21.0556H21.0556H21.0555H21.0555H21.0555H21.0555H21.0554H21.0554H21.0554H21.0553H21.0553H21.0553H21.0553H21.0552H21.0552H21.0552H21.0551H21.0551H21.0551H21.0551H21.055H21.055H21.055H21.0549H21.0549H21.0549H21.0549H21.0548H21.0548H21.0548H21.0547H21.0547H21.0547H21.0547H21.0546H21.0546H21.0546H21.0545H21.0545H21.0545H21.0545H21.0544H21.0544H21.0544H21.0543H21.0543H21.0543H21.0543H21.0542H21.0542H21.0542H21.0541H21.0541H21.0541H21.0541H21.054H21.054H21.054H21.0539H21.0539H21.0539H21.0539H21.0538H21.0538H21.0538H21.0537H21.0537H21.0537H21.0537H21.0536H21.0536H21.0536H21.0535H21.0535H21.0535H21.0534H21.0534H21.0534H21.0534H21.0533H21.0533H21.0533H21.0532H21.0532H21.0532H21.0532H21.0531H21.0531H21.0531H21.053H21.053H21.053H21.053H21.0529H21.0529H21.0529H21.0528H21.0528H21.0528H21.0527H21.0527H21.0527H21.0527H21.0526H21.0526H21.0526C20.921 27.1502 20.8103 27.0979 20.7237 27.0325C20.608 26.9584 20.5116 26.8424 20.4724 26.6891M21.0672 27.1503L20.3553 25.4098C20.3343 25.8729 20.3731 26.3034 20.4724 26.6891M21.0672 27.1503L21.0726 27.1501C21.4565 27.1363 21.8621 27.0476 22.2779 26.8896L22.2779 26.8896C22.5746 26.7768 22.7197 26.4393 22.6166 26.1399L22.6166 26.1398C22.5122 25.8375 22.1878 25.6728 21.8882 25.7857L21.8879 25.7858C21.7537 25.8367 21.6242 25.8739 21.4973 25.9025C21.4854 25.7636 21.4809 25.6192 21.488 25.4656L21.488 25.4653C21.5023 25.148 21.268 24.8669 20.9489 24.8505L20.9489 24.8504L20.9436 24.8503C20.6408 24.8456 20.3699 25.0862 20.3553 25.4098L21.0672 27.1503ZM20.4724 26.6891C20.4724 26.689 20.4724 26.689 20.4724 26.6889L20.6177 26.6518L20.4724 26.6892C20.4724 26.6892 20.4724 26.6891 20.4724 26.6891Z" fill="#5DCBEE" stroke="#5DCBEE" stroke-width="0.3"/>
<path d="M26.2925 25.905L26.2923 25.9048C26.0193 25.689 25.9757 25.2949 26.2006 25.0272C26.422 24.7629 26.8179 24.7247 27.0881 24.9377C27.8395 25.5303 28.5285 26.3255 29.0845 27.2376M26.2925 25.905L25.3986 29.6601C24.7821 28.9606 24.3092 28.1993 24.0287 27.4617L24.0284 27.4611C23.9043 27.1381 23.5391 26.9796 23.216 27.0954C22.8904 27.212 22.7157 27.5683 22.84 27.8951L22.84 27.8952C23.1757 28.7767 23.7294 29.6665 24.4388 30.4714L24.4388 30.4714C25.8673 32.0909 27.8576 32.7709 29.4 33.1789L29.4015 33.1793C29.4547 33.1929 29.51 33.2002 29.5658 33.2002C29.701 33.2002 29.8353 33.1578 29.9466 33.0758L29.828 32.9148L29.946 33.0763C30.1036 32.961 30.1984 32.7795 30.1999 32.5846M26.2925 25.905C26.9226 26.4018 27.513 27.0824 27.9959 27.8739C28.34 28.4386 28.5613 29.2236 28.7012 30.0046C28.8156 30.6437 28.8734 31.2671 28.9024 31.7407C27.6837 31.3536 26.3629 30.7533 25.3987 29.6602L26.2925 25.905ZM29.0845 27.2376L28.9137 27.3417M29.0845 27.2376L28.9137 27.3417M29.0845 27.2376C29.6574 28.1773 29.9331 29.4882 30.0681 30.5612C30.2038 31.6406 30.2006 32.5098 30.1999 32.5846M28.9137 27.3417C28.3685 26.4474 27.6948 25.6709 26.9642 25.0947C26.778 24.9479 26.5049 24.9752 26.3539 25.1558C26.2024 25.3359 26.2306 25.601 26.4164 25.7479C27.0675 26.2614 27.6731 26.9609 28.1667 27.7698L28.9137 27.3417ZM30.1999 32.5846L29.9999 32.5827L30.1999 32.5841C30.1999 32.5843 30.1999 32.5844 30.1999 32.5846Z" fill="#5DCBEE" stroke="#5DCBEE" stroke-width="0.4"/>
<path d="M24.0271 26.1659C23.9458 26.3919 24.0536 26.645 24.2676 26.7309C24.6674 26.8907 25.0539 26.9814 25.416 26.9998C25.4226 27.0002 25.4296 27.0002 25.4367 27.0002H25.4367C25.5263 27.0002 25.6063 26.9643 25.6748 26.9122C25.7643 26.8575 25.8365 26.7721 25.8676 26.6586C25.968 26.2907 26.0115 25.8751 25.9974 25.4248L25.5694 25.0013C25.3405 25.0092 25.1609 25.2119 25.1688 25.4537C25.1741 25.6211 25.1664 25.7777 25.1505 25.9273C25.1017 25.9177 25.0526 25.9071 25.0031 25.895M24.0271 26.1659C24.1084 25.9394 24.3489 25.8256 24.5617 25.9114M24.0271 26.1659L23.8859 26.1152M24.0271 26.1659L23.8859 26.1152M24.5617 25.9114C24.7076 25.97 24.8481 26.0124 24.9849 26.0449C24.9918 25.9956 24.9979 25.9457 25.0031 25.895M24.5617 25.9114L24.6175 25.7722C24.6176 25.7722 24.6176 25.7722 24.6177 25.7723M24.5617 25.9114L24.6178 25.7723C24.6177 25.7723 24.6177 25.7723 24.6177 25.7723M25.0031 25.895C25.0171 25.7562 25.0237 25.6119 25.0189 25.4584C25.0087 25.1428 25.2437 24.8641 25.5613 24.8515M25.0031 25.895C24.8777 25.8645 24.7498 25.8253 24.6177 25.7723M25.5613 24.8515L23.8859 26.1151C23.9938 25.8148 24.3201 25.6523 24.6177 25.7723M25.5613 24.8515C25.8894 24.8288 26.1372 25.1099 26.1473 25.4199L26.1473 25.4201C26.1618 25.8826 26.1173 26.3134 26.0123 26.6981L26.0123 26.6983C25.9708 26.8494 25.8753 26.9634 25.7596 27.0361C25.6742 27.0997 25.5651 27.1502 25.4367 27.1502L25.4356 27.1502L25.5613 24.8515ZM23.8859 26.1152C23.7792 26.412 23.9179 26.7522 24.2118 26.8701L24.2119 26.8702C24.6239 27.0349 25.0264 27.1301 25.4075 27.1496L23.8859 26.1152Z" fill="#5DCBEE" stroke="#5DCBEE" stroke-width="0.3"/>
<mask id="mask1" mask-type="alpha" maskUnits="userSpaceOnUse" x="25" y="18" width="10" height="8">
<path d="M25.5457 18.3845H35V25.7691H25.5457V18.3845Z" fill="white"/>
</mask>
<g mask="url(#mask1)">
<path d="M33.9831 19.7025L33.9835 19.7027C34.1677 19.7647 34.3134 19.9082 34.3776 20.0922C34.4425 20.2771 34.4165 20.4809 34.3098 20.6435C34.3098 20.6435 34.3098 20.6435 34.3097 20.6435L34.1425 20.5338C33.2803 21.8482 32.0413 23.4601 30.0964 24.2671L33.9831 19.7025ZM33.9831 19.7025C33.9113 19.6785 33.0711 19.4024 31.9848 19.1904C30.9049 18.9797 29.5525 18.8263 28.4689 19.0679L28.4688 19.0679C27.4165 19.3029 26.4356 19.6995 25.6331 20.2184C25.3415 20.4069 25.2579 20.796 25.4464 21.0877L25.4466 21.0878C25.6352 21.379 26.023 21.4621 26.3151 21.2747L26.3157 21.2743C26.989 20.839 27.8281 20.4992 28.7424 20.2949C29.3958 20.1492 30.2248 20.1883 31.0244 20.3027C31.6801 20.3965 32.303 20.5389 32.7711 20.6609M33.9831 19.7025L29.6915 23.2908M27.15 24.0862C26.9134 24.0952 26.7295 24.2945 26.7385 24.5311M27.15 24.0862C27.9784 24.0532 28.8835 23.8424 29.7681 23.4755M27.15 24.0862L27.1424 23.8864C27.1423 23.8864 27.1423 23.8864 27.1422 23.8864M27.15 24.0862L27.142 23.8864C27.1421 23.8864 27.1421 23.8864 27.1422 23.8864M26.7385 24.5311L28.6988 20.0996C29.9864 19.8126 31.8627 20.213 32.8962 20.487C32.8552 20.5449 32.8135 20.6028 32.7711 20.6609M26.7385 24.5311C26.7475 24.7616 26.9374 24.9429 27.1663 24.9429M26.7385 24.5311L27.1663 24.9429M29.7681 23.4755C31.1958 22.8829 32.2178 21.7687 32.9781 20.7162C32.9132 20.6985 32.844 20.68 32.7711 20.6609M29.7681 23.4755L29.6915 23.2908M29.7681 23.4755L29.6914 23.2908M32.7711 20.6609C32.025 21.6817 31.0421 22.7301 29.6915 23.2908M29.6915 23.2908L29.6914 23.2908M29.6914 23.2908C28.8255 23.6499 27.9437 23.8544 27.1422 23.8864M29.6914 23.2908L27.1422 23.8864M27.1663 24.9429C27.1694 24.9429 27.1725 24.9428 27.1755 24.9427M27.1663 24.9429L27.1755 24.9427M27.1755 24.9427C27.1783 24.9426 27.1809 24.9425 27.1834 24.9425L27.1755 24.9427Z" fill="#5DCBEE" stroke="#5DCBEE" stroke-width="0.4"/>
</g>
<path d="M27.614 22.2949L27.616 22.3021C27.6163 22.3034 27.6167 22.305 27.6173 22.3069C27.6204 22.3182 27.6267 22.3407 27.6303 22.3652C27.6554 22.472 27.6625 22.597 27.6153 22.7239L27.6152 22.7241C27.4654 23.1257 27.2328 23.5267 26.9257 23.9165L26.9255 23.9167C26.8046 24.0696 26.6265 24.15 26.4462 24.15C26.3106 24.15 26.175 24.1046 26.0619 24.0119C25.7985 23.7972 25.7571 23.407 25.9677 23.1404L27.614 22.2949ZM27.614 22.2949L27.6114 22.2879C27.6111 22.2871 27.6106 22.2856 27.6099 22.2837C27.6067 22.2746 27.5995 22.2542 27.5911 22.2358C27.5513 22.1323 27.4858 22.024 27.3727 21.9464M27.614 22.2949L27.3727 21.9464M27.4747 22.6716C27.5094 22.5783 27.5048 22.4825 27.4826 22.3925C27.481 22.3775 27.4772 22.3636 27.4733 22.3492L27.4747 22.6716ZM27.4747 22.6716C27.3311 23.0564 27.107 23.444 26.8079 23.8236L27.4747 22.6716ZM27.3727 21.9464C27.0224 21.705 26.605 21.5129 26.1338 21.3743L26.1338 21.3743L26.1333 21.3742C25.806 21.2792 25.4681 21.4718 25.374 21.7994L25.374 21.7994L25.3739 21.7998C25.2812 22.127 25.4664 22.4725 25.7926 22.5684C25.954 22.616 26.1014 22.6733 26.2404 22.7371M27.3727 21.9464L26.2404 22.7371M26.2404 22.7371C26.1624 22.8716 26.0738 23.0057 25.9677 23.1403L26.2404 22.7371Z" fill="#5DCBEE" stroke="#5DCBEE" stroke-width="0.3"/>
</svg>
