<svg width="46" height="46" viewBox="0 0 46 46" fill="none" xmlns="http://www.w3.org/2000/svg">
<rect width="46" height="46" rx="10" fill="white"/>
<rect x="3" y="3" width="40" height="40" fill="white"/>
<mask id="mask0" mask-type="alpha" maskUnits="userSpaceOnUse" x="9" y="9" width="28" height="28">
<path d="M9 9H37V37H9V9Z" fill="white"/>
</mask>
<g mask="url(#mask0)">
<mask id="path-4-outside-1" maskUnits="userSpaceOnUse" x="8.875" y="8.875" width="28" height="28" fill="black">
<rect fill="white" x="8.875" y="8.875" width="28" height="28"/>
<path fill-rule="evenodd" clip-rule="evenodd" d="M30.5507 16.5994C30.5484 16.6001 30.5461 16.6013 30.5434 16.6021L30.3843 16.3855L31.5463 15.1428C31.7297 14.9428 31.7385 14.6328 31.5482 14.4332C31.3444 14.2194 31.002 14.2279 30.8001 14.4386L29.6493 15.6694L29.4405 15.4926L30.826 11.0746C30.8287 11.0653 30.8318 11.0561 30.8345 11.0468C31.5328 11.3224 32.1902 11.7012 32.7785 12.1671C33.3622 12.6285 33.8752 13.177 34.2999 13.7878C34.5396 14.1325 34.7511 14.4969 34.9314 14.8764L30.5507 16.5994ZM31.2614 19.782C31.5351 20.4853 31.7185 21.2235 31.8057 21.9732C31.8567 22.409 31.8748 22.8487 31.8605 23.2873C31.5965 23.3749 31.3301 23.4541 31.0603 23.5232C30.9259 23.5579 30.7874 23.5838 30.6538 23.6216C30.5554 23.6494 30.4662 23.7069 30.4006 23.7849C30.2662 23.9447 30.2427 24.1764 30.3427 24.3605C30.4415 24.542 30.6468 24.6485 30.8522 24.6242C31.0043 24.6064 31.1576 24.5574 31.3054 24.5196C31.4564 24.481 31.6065 24.4393 31.7559 24.3949C31.6293 25.2009 31.3919 25.9881 31.0491 26.7282C30.7059 27.469 30.2581 28.1608 29.7246 28.7789C29.5891 28.936 29.4482 29.0885 29.3023 29.2352C29.2313 29.3066 29.1595 29.3765 29.0865 29.4452C29.0552 29.4749 29.056 29.4826 29.0159 29.4625C28.9931 29.4514 28.9703 29.4394 28.9479 29.4282C28.8916 29.3996 28.836 29.3707 28.78 29.3406C28.3554 29.1139 27.9446 28.8599 27.552 28.5812C26.7896 28.0396 26.0936 27.4022 25.4914 26.6865C24.8899 25.973 24.3827 25.1809 23.997 24.3304C23.9503 24.2269 23.9059 24.1223 23.8631 24.0173C24.3097 24.2215 24.7749 24.3817 25.2486 24.5122C25.4887 24.5782 25.7315 24.6362 25.9755 24.686C26.0967 24.7103 26.2175 24.7331 26.3395 24.7535C26.463 24.7744 26.5904 24.8029 26.7155 24.8079C26.9104 24.8161 27.0957 24.7107 27.1892 24.5389C27.2806 24.3706 27.2679 24.1594 27.1587 24.0026C27.11 23.9328 27.0436 23.8752 26.9676 23.8374C26.8726 23.7895 26.7668 23.7826 26.6634 23.7668C26.4167 23.7293 26.1712 23.6826 25.928 23.6266C25.3906 23.5027 24.8594 23.339 24.3549 23.1143C24.5919 23.0267 24.8216 22.9128 25.0482 22.8013C25.2771 22.6881 25.5018 22.5662 25.7222 22.4376C26.1812 22.1689 26.6201 21.867 27.0371 21.5373C27.8693 20.8799 28.6055 20.1051 29.2382 19.2546C29.5833 18.7902 29.8968 18.2995 30.1747 17.7915C30.6206 18.4049 30.9862 19.0755 31.2614 19.782ZM26.297 31.2291C25.6331 31.4951 24.937 31.6804 24.2283 31.7792C23.8214 31.8364 23.4111 31.8649 22.9999 31.8649C22.9335 31.8649 22.8671 31.8642 22.8003 31.8626C22.7826 31.8622 22.7143 31.8711 22.6992 31.8595C22.6853 31.8491 22.6741 31.7858 22.6687 31.7707C22.6301 31.6542 22.5938 31.5368 22.5587 31.4194C22.485 31.1728 22.4201 30.9237 22.3641 30.6728C22.2526 30.1756 22.1773 29.6714 22.1298 29.1637C22.0329 28.1218 22.1036 27.064 22.3398 26.0441C22.4745 25.4635 22.6571 24.8944 22.886 24.3435C23.2744 25.3225 23.8137 26.2371 24.4661 27.0632C25.1154 27.8848 25.8763 28.6159 26.7155 29.2417C27.1841 29.5907 27.6771 29.9073 28.1897 30.1876C27.6045 30.6103 26.9676 30.9608 26.297 31.2291ZM21.2018 30.0335C21.289 30.6149 21.4187 31.1901 21.5878 31.753C21.0099 31.6611 20.4417 31.5121 19.8935 31.3079C19.3488 31.1048 18.8254 30.8477 18.332 30.5412C18.051 30.3663 17.7796 30.176 17.5202 29.971C17.4125 29.8687 17.289 29.781 17.1766 29.683C17.0658 29.5865 16.9577 29.4873 16.8524 29.3857C16.7477 29.2854 16.6454 29.1834 16.5474 29.0777C16.5327 29.0618 16.5269 29.0611 16.5292 29.0421C16.5304 29.0333 16.5416 29.017 16.5462 29.0082C16.5632 28.9742 16.5802 28.9402 16.5972 28.9066C16.6315 28.8399 16.6667 28.7731 16.7026 28.7063C16.9801 28.1894 17.299 27.696 17.6522 27.2273C18.0012 26.7644 18.3764 26.3193 18.7941 25.9167C19.223 25.5028 19.6893 25.1307 20.1873 24.8037C20.7497 24.4354 21.3481 24.127 21.9704 23.8737C21.5658 24.8315 21.2856 25.841 21.1508 26.8725C21.0142 27.9238 21.0451 28.9865 21.2018 30.0335ZM16.557 30.5794L15.1658 34.9518C14.4674 34.6762 13.81 34.2974 13.2213 33.8315C12.638 33.3701 12.125 32.8216 11.7004 32.2108C11.4606 31.8661 11.2491 31.5017 11.0688 31.1222L15.4661 29.4054L15.6271 29.5896C15.6294 29.6092 15.6005 29.6343 15.5862 29.6509C15.5418 29.7031 15.4893 29.7482 15.4426 29.7984C15.3407 29.9073 15.2387 30.0161 15.1368 30.1254C14.9083 30.3698 14.6798 30.6145 14.4512 30.8593C14.3088 31.0118 14.1042 31.1766 14.0644 31.3909C14.0169 31.6515 14.1822 31.9128 14.4389 31.98C14.6323 32.0306 14.8238 31.9615 14.9577 31.8186C15.1195 31.6464 15.28 31.4735 15.4418 31.3009C15.668 31.0585 15.8946 30.816 16.1216 30.5736C16.1903 30.5003 16.261 30.4284 16.3274 30.3524C16.3486 30.3285 16.3513 30.3188 16.3779 30.3408L16.5451 30.4948C16.5787 30.5223 16.5725 30.5404 16.557 30.5794ZM14.7361 26.2093C14.4632 25.5063 14.2806 24.769 14.1938 24.0196C14.1436 23.5849 14.125 23.146 14.1397 22.7086C15.36 22.2832 16.6617 22.0407 17.9572 22.0813C18.1394 22.0871 18.3228 22.089 18.5034 22.1149C18.632 22.133 18.7605 22.1515 18.8887 22.1701C19.1384 22.2052 19.389 22.2357 19.6372 22.277C19.975 22.333 20.3093 22.4384 20.6366 22.5368C20.8142 22.5901 20.991 22.6445 21.1682 22.6982C21.3373 22.7495 21.5002 22.819 21.6612 22.8908C20.6803 23.2819 19.7522 23.8027 18.918 24.4508C18.0892 25.0948 17.3789 25.8704 16.7566 26.7123C16.4088 27.1833 16.0926 27.6771 15.8143 28.1921C15.3727 27.5806 15.0091 26.9127 14.7361 26.2093ZM14.889 19.4083C15.1959 18.7138 15.5939 18.0602 16.0687 17.468C16.3389 17.1306 16.6342 16.8136 16.9504 16.5187C17.8394 16.9607 18.6721 17.5178 19.4164 18.1756C20.1695 18.8423 20.8324 19.6136 21.3655 20.4668C21.6646 20.9459 21.9221 21.4524 22.1314 21.9778C21.9866 21.9122 21.8399 21.8504 21.6913 21.7929C21.5311 21.7307 21.3643 21.6863 21.2002 21.6362C20.8829 21.5389 20.5656 21.4427 20.2437 21.3628C20.0707 21.32 19.8962 21.2783 19.7198 21.2528C19.5762 21.2323 19.4326 21.2119 19.289 21.1914C19.0296 21.154 18.7679 21.1023 18.5065 21.0826C17.8275 21.0312 17.1434 21.0455 16.4671 21.1231C15.7942 21.1999 15.1291 21.3362 14.4786 21.5246C14.4007 21.547 14.3231 21.5701 14.2459 21.5941C14.3648 20.8417 14.5806 20.1051 14.889 19.4083ZM19.7032 14.7691C20.3672 14.5031 21.0636 14.3182 21.772 14.219C22.1788 14.1622 22.5892 14.1337 22.9999 14.1337C23.0648 14.1337 23.1292 14.1344 23.1941 14.136C23.2111 14.1364 23.2794 14.129 23.2925 14.1387C23.3095 14.1514 23.3238 14.234 23.33 14.2537C23.3674 14.3699 23.4026 14.4861 23.4365 14.6035C23.5099 14.8567 23.5736 15.1131 23.6272 15.371C23.7303 15.8628 23.8036 16.3604 23.8423 16.8619C23.9225 17.9158 23.8515 18.9755 23.6276 20.0086C23.5052 20.5734 23.3308 21.1277 23.1099 21.662C22.7282 20.6849 22.1935 19.7684 21.5454 18.9442C20.9026 18.127 20.1475 17.3857 19.3091 16.7696C18.8308 16.4179 18.3336 16.094 17.8113 15.8103C18.3965 15.3876 19.0334 15.0374 19.7032 14.7691ZM24.7776 15.9882C24.6935 15.3991 24.5672 14.815 24.3997 14.2437C24.9799 14.3352 25.5508 14.4842 26.1013 14.6888C26.6479 14.8919 27.1737 15.1501 27.6686 15.4574C27.9496 15.6323 28.2202 15.8226 28.4797 16.0276C28.5866 16.1295 28.7101 16.2168 28.8221 16.3145C28.9371 16.4144 29.0491 16.5175 29.1591 16.6233C29.2093 16.6716 29.2587 16.7206 29.3077 16.7704C29.3347 16.7974 29.361 16.8244 29.3872 16.8518C29.4065 16.8715 29.4432 16.8993 29.4559 16.9244C29.4667 16.946 29.4621 16.9453 29.4494 16.9692C29.4413 16.9858 29.4328 17.0024 29.4239 17.019C29.4069 17.0526 29.3899 17.0854 29.3726 17.1186C29.3363 17.1865 29.3 17.2545 29.2625 17.322C28.9761 17.8428 28.6499 18.3462 28.2843 18.8157C27.5682 19.7349 26.7263 20.5529 25.7577 21.2038C25.481 21.3902 25.1961 21.562 24.9027 21.7219C24.6189 21.8767 24.3232 22.0299 24.0206 22.1438C24.429 21.1806 24.6923 20.1576 24.8166 19.1191C24.9409 18.0799 24.9247 17.0248 24.7776 15.9882ZM35.1295 13.1851C34.7411 12.6296 34.2887 12.1189 33.781 11.6691C33.2688 11.2155 32.7025 10.8241 32.0987 10.5029C31.7957 10.3419 31.4826 10.1987 31.1626 10.0743C31.0028 10.0126 30.8414 9.95506 30.6777 9.90294C30.5461 9.86125 30.4083 9.86434 30.2828 9.92495C30.1454 9.99173 30.0558 10.1114 30.0107 10.2539L28.5627 14.8166C27.8068 14.3004 26.9784 13.8912 26.1086 13.6048C25.2269 13.3145 24.3047 13.1516 23.3771 13.1156C22.4749 13.0809 21.5685 13.1709 20.6911 13.3816C19.8314 13.5878 19.0002 13.9094 18.2259 14.3363C17.4577 14.7598 16.7477 15.286 16.117 15.8956C15.5144 16.4785 14.9851 17.1367 14.5477 17.8525C14.115 18.5613 13.773 19.3253 13.5329 20.1205C13.2854 20.9401 13.1472 21.7913 13.1159 22.6472C13.082 23.5834 13.1831 24.5246 13.4132 25.4326C13.6394 26.3244 13.9911 27.1837 14.4543 27.9786C14.567 28.1724 14.6863 28.3623 14.8122 28.548C14.5416 28.6542 14.271 28.7607 14.0003 28.8673C13.4232 29.0943 12.8457 29.3213 12.2686 29.5483C11.7367 29.7575 11.2047 29.9667 10.6727 30.176C10.5334 30.2308 10.3944 30.2856 10.2558 30.34C10.2327 30.3493 10.2095 30.3578 10.1867 30.3675C9.97827 30.4566 9.85011 30.679 9.87906 30.9044C9.89528 31.0295 9.95974 31.1515 10.0092 31.2662C10.064 31.3932 10.1211 31.519 10.1817 31.6433C10.306 31.8974 10.4423 32.1452 10.5901 32.3861C10.8835 32.8629 11.2225 33.3115 11.6012 33.723C12.3651 34.5526 13.2939 35.2263 14.3154 35.7019C14.569 35.8196 14.8276 35.925 15.0909 36.0177C15.2191 36.0628 15.3561 36.125 15.4939 36.125C15.6082 36.125 15.7209 36.0856 15.8105 36.0154C15.9409 35.9127 15.9815 35.7702 16.0286 35.622C16.1714 35.1715 16.3146 34.7209 16.4574 34.2704C16.6524 33.6554 16.8477 33.0408 17.0427 32.4263C17.1681 32.0309 17.2932 31.6356 17.4187 31.2407C17.4248 31.221 17.4314 31.2017 17.4372 31.182C18.1927 31.6974 19.0199 32.1062 19.8885 32.3927C20.7702 32.6834 21.6928 32.8467 22.6205 32.8826C23.5234 32.9177 24.4306 32.8277 25.3088 32.617C26.1681 32.4108 26.9996 32.0892 27.7736 31.6626C28.5422 31.2388 29.2517 30.713 29.8825 30.103C30.4851 29.5205 31.0144 28.8626 31.4513 28.1473C31.8845 27.4385 32.2265 26.6749 32.4666 25.88C32.7141 25.06 32.8526 24.2084 32.8839 23.3525C32.9183 22.416 32.8171 21.4744 32.5863 20.5656C32.3601 19.6743 32.0088 18.8149 31.5455 18.02C31.4324 17.8262 31.3135 17.6363 31.1873 17.4506L35.749 15.6566C35.9162 15.5906 36.0548 15.4794 36.1061 15.2976C36.1362 15.1911 36.1301 15.0752 36.0895 14.9718C35.8413 14.3414 35.5174 13.7407 35.1295 13.1851Z"/>
</mask>
<path fill-rule="evenodd" clip-rule="evenodd" d="M30.5507 16.5994C30.5484 16.6001 30.5461 16.6013 30.5434 16.6021L30.3843 16.3855L31.5463 15.1428C31.7297 14.9428 31.7385 14.6328 31.5482 14.4332C31.3444 14.2194 31.002 14.2279 30.8001 14.4386L29.6493 15.6694L29.4405 15.4926L30.826 11.0746C30.8287 11.0653 30.8318 11.0561 30.8345 11.0468C31.5328 11.3224 32.1902 11.7012 32.7785 12.1671C33.3622 12.6285 33.8752 13.177 34.2999 13.7878C34.5396 14.1325 34.7511 14.4969 34.9314 14.8764L30.5507 16.5994ZM31.2614 19.782C31.5351 20.4853 31.7185 21.2235 31.8057 21.9732C31.8567 22.409 31.8748 22.8487 31.8605 23.2873C31.5965 23.3749 31.3301 23.4541 31.0603 23.5232C30.9259 23.5579 30.7874 23.5838 30.6538 23.6216C30.5554 23.6494 30.4662 23.7069 30.4006 23.7849C30.2662 23.9447 30.2427 24.1764 30.3427 24.3605C30.4415 24.542 30.6468 24.6485 30.8522 24.6242C31.0043 24.6064 31.1576 24.5574 31.3054 24.5196C31.4564 24.481 31.6065 24.4393 31.7559 24.3949C31.6293 25.2009 31.3919 25.9881 31.0491 26.7282C30.7059 27.469 30.2581 28.1608 29.7246 28.7789C29.5891 28.936 29.4482 29.0885 29.3023 29.2352C29.2313 29.3066 29.1595 29.3765 29.0865 29.4452C29.0552 29.4749 29.056 29.4826 29.0159 29.4625C28.9931 29.4514 28.9703 29.4394 28.9479 29.4282C28.8916 29.3996 28.836 29.3707 28.78 29.3406C28.3554 29.1139 27.9446 28.8599 27.552 28.5812C26.7896 28.0396 26.0936 27.4022 25.4914 26.6865C24.8899 25.973 24.3827 25.1809 23.997 24.3304C23.9503 24.2269 23.9059 24.1223 23.8631 24.0173C24.3097 24.2215 24.7749 24.3817 25.2486 24.5122C25.4887 24.5782 25.7315 24.6362 25.9755 24.686C26.0967 24.7103 26.2175 24.7331 26.3395 24.7535C26.463 24.7744 26.5904 24.8029 26.7155 24.8079C26.9104 24.8161 27.0957 24.7107 27.1892 24.5389C27.2806 24.3706 27.2679 24.1594 27.1587 24.0026C27.11 23.9328 27.0436 23.8752 26.9676 23.8374C26.8726 23.7895 26.7668 23.7826 26.6634 23.7668C26.4167 23.7293 26.1712 23.6826 25.928 23.6266C25.3906 23.5027 24.8594 23.339 24.3549 23.1143C24.5919 23.0267 24.8216 22.9128 25.0482 22.8013C25.2771 22.6881 25.5018 22.5662 25.7222 22.4376C26.1812 22.1689 26.6201 21.867 27.0371 21.5373C27.8693 20.8799 28.6055 20.1051 29.2382 19.2546C29.5833 18.7902 29.8968 18.2995 30.1747 17.7915C30.6206 18.4049 30.9862 19.0755 31.2614 19.782ZM26.297 31.2291C25.6331 31.4951 24.937 31.6804 24.2283 31.7792C23.8214 31.8364 23.4111 31.8649 22.9999 31.8649C22.9335 31.8649 22.8671 31.8642 22.8003 31.8626C22.7826 31.8622 22.7143 31.8711 22.6992 31.8595C22.6853 31.8491 22.6741 31.7858 22.6687 31.7707C22.6301 31.6542 22.5938 31.5368 22.5587 31.4194C22.485 31.1728 22.4201 30.9237 22.3641 30.6728C22.2526 30.1756 22.1773 29.6714 22.1298 29.1637C22.0329 28.1218 22.1036 27.064 22.3398 26.0441C22.4745 25.4635 22.6571 24.8944 22.886 24.3435C23.2744 25.3225 23.8137 26.2371 24.4661 27.0632C25.1154 27.8848 25.8763 28.6159 26.7155 29.2417C27.1841 29.5907 27.6771 29.9073 28.1897 30.1876C27.6045 30.6103 26.9676 30.9608 26.297 31.2291ZM21.2018 30.0335C21.289 30.6149 21.4187 31.1901 21.5878 31.753C21.0099 31.6611 20.4417 31.5121 19.8935 31.3079C19.3488 31.1048 18.8254 30.8477 18.332 30.5412C18.051 30.3663 17.7796 30.176 17.5202 29.971C17.4125 29.8687 17.289 29.781 17.1766 29.683C17.0658 29.5865 16.9577 29.4873 16.8524 29.3857C16.7477 29.2854 16.6454 29.1834 16.5474 29.0777C16.5327 29.0618 16.5269 29.0611 16.5292 29.0421C16.5304 29.0333 16.5416 29.017 16.5462 29.0082C16.5632 28.9742 16.5802 28.9402 16.5972 28.9066C16.6315 28.8399 16.6667 28.7731 16.7026 28.7063C16.9801 28.1894 17.299 27.696 17.6522 27.2273C18.0012 26.7644 18.3764 26.3193 18.7941 25.9167C19.223 25.5028 19.6893 25.1307 20.1873 24.8037C20.7497 24.4354 21.3481 24.127 21.9704 23.8737C21.5658 24.8315 21.2856 25.841 21.1508 26.8725C21.0142 27.9238 21.0451 28.9865 21.2018 30.0335ZM16.557 30.5794L15.1658 34.9518C14.4674 34.6762 13.81 34.2974 13.2213 33.8315C12.638 33.3701 12.125 32.8216 11.7004 32.2108C11.4606 31.8661 11.2491 31.5017 11.0688 31.1222L15.4661 29.4054L15.6271 29.5896C15.6294 29.6092 15.6005 29.6343 15.5862 29.6509C15.5418 29.7031 15.4893 29.7482 15.4426 29.7984C15.3407 29.9073 15.2387 30.0161 15.1368 30.1254C14.9083 30.3698 14.6798 30.6145 14.4512 30.8593C14.3088 31.0118 14.1042 31.1766 14.0644 31.3909C14.0169 31.6515 14.1822 31.9128 14.4389 31.98C14.6323 32.0306 14.8238 31.9615 14.9577 31.8186C15.1195 31.6464 15.28 31.4735 15.4418 31.3009C15.668 31.0585 15.8946 30.816 16.1216 30.5736C16.1903 30.5003 16.261 30.4284 16.3274 30.3524C16.3486 30.3285 16.3513 30.3188 16.3779 30.3408L16.5451 30.4948C16.5787 30.5223 16.5725 30.5404 16.557 30.5794ZM14.7361 26.2093C14.4632 25.5063 14.2806 24.769 14.1938 24.0196C14.1436 23.5849 14.125 23.146 14.1397 22.7086C15.36 22.2832 16.6617 22.0407 17.9572 22.0813C18.1394 22.0871 18.3228 22.089 18.5034 22.1149C18.632 22.133 18.7605 22.1515 18.8887 22.1701C19.1384 22.2052 19.389 22.2357 19.6372 22.277C19.975 22.333 20.3093 22.4384 20.6366 22.5368C20.8142 22.5901 20.991 22.6445 21.1682 22.6982C21.3373 22.7495 21.5002 22.819 21.6612 22.8908C20.6803 23.2819 19.7522 23.8027 18.918 24.4508C18.0892 25.0948 17.3789 25.8704 16.7566 26.7123C16.4088 27.1833 16.0926 27.6771 15.8143 28.1921C15.3727 27.5806 15.0091 26.9127 14.7361 26.2093ZM14.889 19.4083C15.1959 18.7138 15.5939 18.0602 16.0687 17.468C16.3389 17.1306 16.6342 16.8136 16.9504 16.5187C17.8394 16.9607 18.6721 17.5178 19.4164 18.1756C20.1695 18.8423 20.8324 19.6136 21.3655 20.4668C21.6646 20.9459 21.9221 21.4524 22.1314 21.9778C21.9866 21.9122 21.8399 21.8504 21.6913 21.7929C21.5311 21.7307 21.3643 21.6863 21.2002 21.6362C20.8829 21.5389 20.5656 21.4427 20.2437 21.3628C20.0707 21.32 19.8962 21.2783 19.7198 21.2528C19.5762 21.2323 19.4326 21.2119 19.289 21.1914C19.0296 21.154 18.7679 21.1023 18.5065 21.0826C17.8275 21.0312 17.1434 21.0455 16.4671 21.1231C15.7942 21.1999 15.1291 21.3362 14.4786 21.5246C14.4007 21.547 14.3231 21.5701 14.2459 21.5941C14.3648 20.8417 14.5806 20.1051 14.889 19.4083ZM19.7032 14.7691C20.3672 14.5031 21.0636 14.3182 21.772 14.219C22.1788 14.1622 22.5892 14.1337 22.9999 14.1337C23.0648 14.1337 23.1292 14.1344 23.1941 14.136C23.2111 14.1364 23.2794 14.129 23.2925 14.1387C23.3095 14.1514 23.3238 14.234 23.33 14.2537C23.3674 14.3699 23.4026 14.4861 23.4365 14.6035C23.5099 14.8567 23.5736 15.1131 23.6272 15.371C23.7303 15.8628 23.8036 16.3604 23.8423 16.8619C23.9225 17.9158 23.8515 18.9755 23.6276 20.0086C23.5052 20.5734 23.3308 21.1277 23.1099 21.662C22.7282 20.6849 22.1935 19.7684 21.5454 18.9442C20.9026 18.127 20.1475 17.3857 19.3091 16.7696C18.8308 16.4179 18.3336 16.094 17.8113 15.8103C18.3965 15.3876 19.0334 15.0374 19.7032 14.7691ZM24.7776 15.9882C24.6935 15.3991 24.5672 14.815 24.3997 14.2437C24.9799 14.3352 25.5508 14.4842 26.1013 14.6888C26.6479 14.8919 27.1737 15.1501 27.6686 15.4574C27.9496 15.6323 28.2202 15.8226 28.4797 16.0276C28.5866 16.1295 28.7101 16.2168 28.8221 16.3145C28.9371 16.4144 29.0491 16.5175 29.1591 16.6233C29.2093 16.6716 29.2587 16.7206 29.3077 16.7704C29.3347 16.7974 29.361 16.8244 29.3872 16.8518C29.4065 16.8715 29.4432 16.8993 29.4559 16.9244C29.4667 16.946 29.4621 16.9453 29.4494 16.9692C29.4413 16.9858 29.4328 17.0024 29.4239 17.019C29.4069 17.0526 29.3899 17.0854 29.3726 17.1186C29.3363 17.1865 29.3 17.2545 29.2625 17.322C28.9761 17.8428 28.6499 18.3462 28.2843 18.8157C27.5682 19.7349 26.7263 20.5529 25.7577 21.2038C25.481 21.3902 25.1961 21.562 24.9027 21.7219C24.6189 21.8767 24.3232 22.0299 24.0206 22.1438C24.429 21.1806 24.6923 20.1576 24.8166 19.1191C24.9409 18.0799 24.9247 17.0248 24.7776 15.9882ZM35.1295 13.1851C34.7411 12.6296 34.2887 12.1189 33.781 11.6691C33.2688 11.2155 32.7025 10.8241 32.0987 10.5029C31.7957 10.3419 31.4826 10.1987 31.1626 10.0743C31.0028 10.0126 30.8414 9.95506 30.6777 9.90294C30.5461 9.86125 30.4083 9.86434 30.2828 9.92495C30.1454 9.99173 30.0558 10.1114 30.0107 10.2539L28.5627 14.8166C27.8068 14.3004 26.9784 13.8912 26.1086 13.6048C25.2269 13.3145 24.3047 13.1516 23.3771 13.1156C22.4749 13.0809 21.5685 13.1709 20.6911 13.3816C19.8314 13.5878 19.0002 13.9094 18.2259 14.3363C17.4577 14.7598 16.7477 15.286 16.117 15.8956C15.5144 16.4785 14.9851 17.1367 14.5477 17.8525C14.115 18.5613 13.773 19.3253 13.5329 20.1205C13.2854 20.9401 13.1472 21.7913 13.1159 22.6472C13.082 23.5834 13.1831 24.5246 13.4132 25.4326C13.6394 26.3244 13.9911 27.1837 14.4543 27.9786C14.567 28.1724 14.6863 28.3623 14.8122 28.548C14.5416 28.6542 14.271 28.7607 14.0003 28.8673C13.4232 29.0943 12.8457 29.3213 12.2686 29.5483C11.7367 29.7575 11.2047 29.9667 10.6727 30.176C10.5334 30.2308 10.3944 30.2856 10.2558 30.34C10.2327 30.3493 10.2095 30.3578 10.1867 30.3675C9.97827 30.4566 9.85011 30.679 9.87906 30.9044C9.89528 31.0295 9.95974 31.1515 10.0092 31.2662C10.064 31.3932 10.1211 31.519 10.1817 31.6433C10.306 31.8974 10.4423 32.1452 10.5901 32.3861C10.8835 32.8629 11.2225 33.3115 11.6012 33.723C12.3651 34.5526 13.2939 35.2263 14.3154 35.7019C14.569 35.8196 14.8276 35.925 15.0909 36.0177C15.2191 36.0628 15.3561 36.125 15.4939 36.125C15.6082 36.125 15.7209 36.0856 15.8105 36.0154C15.9409 35.9127 15.9815 35.7702 16.0286 35.622C16.1714 35.1715 16.3146 34.7209 16.4574 34.2704C16.6524 33.6554 16.8477 33.0408 17.0427 32.4263C17.1681 32.0309 17.2932 31.6356 17.4187 31.2407C17.4248 31.221 17.4314 31.2017 17.4372 31.182C18.1927 31.6974 19.0199 32.1062 19.8885 32.3927C20.7702 32.6834 21.6928 32.8467 22.6205 32.8826C23.5234 32.9177 24.4306 32.8277 25.3088 32.617C26.1681 32.4108 26.9996 32.0892 27.7736 31.6626C28.5422 31.2388 29.2517 30.713 29.8825 30.103C30.4851 29.5205 31.0144 28.8626 31.4513 28.1473C31.8845 27.4385 32.2265 26.6749 32.4666 25.88C32.7141 25.06 32.8526 24.2084 32.8839 23.3525C32.9183 22.416 32.8171 21.4744 32.5863 20.5656C32.3601 19.6743 32.0088 18.8149 31.5455 18.02C31.4324 17.8262 31.3135 17.6363 31.1873 17.4506L35.749 15.6566C35.9162 15.5906 36.0548 15.4794 36.1061 15.2976C36.1362 15.1911 36.1301 15.0752 36.0895 14.9718C35.8413 14.3414 35.5174 13.7407 35.1295 13.1851Z" fill="#5DCBEE"/>
<path fill-rule="evenodd" clip-rule="evenodd" d="M30.5507 16.5994C30.5484 16.6001 30.5461 16.6013 30.5434 16.6021L30.3843 16.3855L31.5463 15.1428C31.7297 14.9428 31.7385 14.6328 31.5482 14.4332C31.3444 14.2194 31.002 14.2279 30.8001 14.4386L29.6493 15.6694L29.4405 15.4926L30.826 11.0746C30.8287 11.0653 30.8318 11.0561 30.8345 11.0468C31.5328 11.3224 32.1902 11.7012 32.7785 12.1671C33.3622 12.6285 33.8752 13.177 34.2999 13.7878C34.5396 14.1325 34.7511 14.4969 34.9314 14.8764L30.5507 16.5994ZM31.2614 19.782C31.5351 20.4853 31.7185 21.2235 31.8057 21.9732C31.8567 22.409 31.8748 22.8487 31.8605 23.2873C31.5965 23.3749 31.3301 23.4541 31.0603 23.5232C30.9259 23.5579 30.7874 23.5838 30.6538 23.6216C30.5554 23.6494 30.4662 23.7069 30.4006 23.7849C30.2662 23.9447 30.2427 24.1764 30.3427 24.3605C30.4415 24.542 30.6468 24.6485 30.8522 24.6242C31.0043 24.6064 31.1576 24.5574 31.3054 24.5196C31.4564 24.481 31.6065 24.4393 31.7559 24.3949C31.6293 25.2009 31.3919 25.9881 31.0491 26.7282C30.7059 27.469 30.2581 28.1608 29.7246 28.7789C29.5891 28.936 29.4482 29.0885 29.3023 29.2352C29.2313 29.3066 29.1595 29.3765 29.0865 29.4452C29.0552 29.4749 29.056 29.4826 29.0159 29.4625C28.9931 29.4514 28.9703 29.4394 28.9479 29.4282C28.8916 29.3996 28.836 29.3707 28.78 29.3406C28.3554 29.1139 27.9446 28.8599 27.552 28.5812C26.7896 28.0396 26.0936 27.4022 25.4914 26.6865C24.8899 25.973 24.3827 25.1809 23.997 24.3304C23.9503 24.2269 23.9059 24.1223 23.8631 24.0173C24.3097 24.2215 24.7749 24.3817 25.2486 24.5122C25.4887 24.5782 25.7315 24.6362 25.9755 24.686C26.0967 24.7103 26.2175 24.7331 26.3395 24.7535C26.463 24.7744 26.5904 24.8029 26.7155 24.8079C26.9104 24.8161 27.0957 24.7107 27.1892 24.5389C27.2806 24.3706 27.2679 24.1594 27.1587 24.0026C27.11 23.9328 27.0436 23.8752 26.9676 23.8374C26.8726 23.7895 26.7668 23.7826 26.6634 23.7668C26.4167 23.7293 26.1712 23.6826 25.928 23.6266C25.3906 23.5027 24.8594 23.339 24.3549 23.1143C24.5919 23.0267 24.8216 22.9128 25.0482 22.8013C25.2771 22.6881 25.5018 22.5662 25.7222 22.4376C26.1812 22.1689 26.6201 21.867 27.0371 21.5373C27.8693 20.8799 28.6055 20.1051 29.2382 19.2546C29.5833 18.7902 29.8968 18.2995 30.1747 17.7915C30.6206 18.4049 30.9862 19.0755 31.2614 19.782ZM26.297 31.2291C25.6331 31.4951 24.937 31.6804 24.2283 31.7792C23.8214 31.8364 23.4111 31.8649 22.9999 31.8649C22.9335 31.8649 22.8671 31.8642 22.8003 31.8626C22.7826 31.8622 22.7143 31.8711 22.6992 31.8595C22.6853 31.8491 22.6741 31.7858 22.6687 31.7707C22.6301 31.6542 22.5938 31.5368 22.5587 31.4194C22.485 31.1728 22.4201 30.9237 22.3641 30.6728C22.2526 30.1756 22.1773 29.6714 22.1298 29.1637C22.0329 28.1218 22.1036 27.064 22.3398 26.0441C22.4745 25.4635 22.6571 24.8944 22.886 24.3435C23.2744 25.3225 23.8137 26.2371 24.4661 27.0632C25.1154 27.8848 25.8763 28.6159 26.7155 29.2417C27.1841 29.5907 27.6771 29.9073 28.1897 30.1876C27.6045 30.6103 26.9676 30.9608 26.297 31.2291ZM21.2018 30.0335C21.289 30.6149 21.4187 31.1901 21.5878 31.753C21.0099 31.6611 20.4417 31.5121 19.8935 31.3079C19.3488 31.1048 18.8254 30.8477 18.332 30.5412C18.051 30.3663 17.7796 30.176 17.5202 29.971C17.4125 29.8687 17.289 29.781 17.1766 29.683C17.0658 29.5865 16.9577 29.4873 16.8524 29.3857C16.7477 29.2854 16.6454 29.1834 16.5474 29.0777C16.5327 29.0618 16.5269 29.0611 16.5292 29.0421C16.5304 29.0333 16.5416 29.017 16.5462 29.0082C16.5632 28.9742 16.5802 28.9402 16.5972 28.9066C16.6315 28.8399 16.6667 28.7731 16.7026 28.7063C16.9801 28.1894 17.299 27.696 17.6522 27.2273C18.0012 26.7644 18.3764 26.3193 18.7941 25.9167C19.223 25.5028 19.6893 25.1307 20.1873 24.8037C20.7497 24.4354 21.3481 24.127 21.9704 23.8737C21.5658 24.8315 21.2856 25.841 21.1508 26.8725C21.0142 27.9238 21.0451 28.9865 21.2018 30.0335ZM16.557 30.5794L15.1658 34.9518C14.4674 34.6762 13.81 34.2974 13.2213 33.8315C12.638 33.3701 12.125 32.8216 11.7004 32.2108C11.4606 31.8661 11.2491 31.5017 11.0688 31.1222L15.4661 29.4054L15.6271 29.5896C15.6294 29.6092 15.6005 29.6343 15.5862 29.6509C15.5418 29.7031 15.4893 29.7482 15.4426 29.7984C15.3407 29.9073 15.2387 30.0161 15.1368 30.1254C14.9083 30.3698 14.6798 30.6145 14.4512 30.8593C14.3088 31.0118 14.1042 31.1766 14.0644 31.3909C14.0169 31.6515 14.1822 31.9128 14.4389 31.98C14.6323 32.0306 14.8238 31.9615 14.9577 31.8186C15.1195 31.6464 15.28 31.4735 15.4418 31.3009C15.668 31.0585 15.8946 30.816 16.1216 30.5736C16.1903 30.5003 16.261 30.4284 16.3274 30.3524C16.3486 30.3285 16.3513 30.3188 16.3779 30.3408L16.5451 30.4948C16.5787 30.5223 16.5725 30.5404 16.557 30.5794ZM14.7361 26.2093C14.4632 25.5063 14.2806 24.769 14.1938 24.0196C14.1436 23.5849 14.125 23.146 14.1397 22.7086C15.36 22.2832 16.6617 22.0407 17.9572 22.0813C18.1394 22.0871 18.3228 22.089 18.5034 22.1149C18.632 22.133 18.7605 22.1515 18.8887 22.1701C19.1384 22.2052 19.389 22.2357 19.6372 22.277C19.975 22.333 20.3093 22.4384 20.6366 22.5368C20.8142 22.5901 20.991 22.6445 21.1682 22.6982C21.3373 22.7495 21.5002 22.819 21.6612 22.8908C20.6803 23.2819 19.7522 23.8027 18.918 24.4508C18.0892 25.0948 17.3789 25.8704 16.7566 26.7123C16.4088 27.1833 16.0926 27.6771 15.8143 28.1921C15.3727 27.5806 15.0091 26.9127 14.7361 26.2093ZM14.889 19.4083C15.1959 18.7138 15.5939 18.0602 16.0687 17.468C16.3389 17.1306 16.6342 16.8136 16.9504 16.5187C17.8394 16.9607 18.6721 17.5178 19.4164 18.1756C20.1695 18.8423 20.8324 19.6136 21.3655 20.4668C21.6646 20.9459 21.9221 21.4524 22.1314 21.9778C21.9866 21.9122 21.8399 21.8504 21.6913 21.7929C21.5311 21.7307 21.3643 21.6863 21.2002 21.6362C20.8829 21.5389 20.5656 21.4427 20.2437 21.3628C20.0707 21.32 19.8962 21.2783 19.7198 21.2528C19.5762 21.2323 19.4326 21.2119 19.289 21.1914C19.0296 21.154 18.7679 21.1023 18.5065 21.0826C17.8275 21.0312 17.1434 21.0455 16.4671 21.1231C15.7942 21.1999 15.1291 21.3362 14.4786 21.5246C14.4007 21.547 14.3231 21.5701 14.2459 21.5941C14.3648 20.8417 14.5806 20.1051 14.889 19.4083ZM19.7032 14.7691C20.3672 14.5031 21.0636 14.3182 21.772 14.219C22.1788 14.1622 22.5892 14.1337 22.9999 14.1337C23.0648 14.1337 23.1292 14.1344 23.1941 14.136C23.2111 14.1364 23.2794 14.129 23.2925 14.1387C23.3095 14.1514 23.3238 14.234 23.33 14.2537C23.3674 14.3699 23.4026 14.4861 23.4365 14.6035C23.5099 14.8567 23.5736 15.1131 23.6272 15.371C23.7303 15.8628 23.8036 16.3604 23.8423 16.8619C23.9225 17.9158 23.8515 18.9755 23.6276 20.0086C23.5052 20.5734 23.3308 21.1277 23.1099 21.662C22.7282 20.6849 22.1935 19.7684 21.5454 18.9442C20.9026 18.127 20.1475 17.3857 19.3091 16.7696C18.8308 16.4179 18.3336 16.094 17.8113 15.8103C18.3965 15.3876 19.0334 15.0374 19.7032 14.7691ZM24.7776 15.9882C24.6935 15.3991 24.5672 14.815 24.3997 14.2437C24.9799 14.3352 25.5508 14.4842 26.1013 14.6888C26.6479 14.8919 27.1737 15.1501 27.6686 15.4574C27.9496 15.6323 28.2202 15.8226 28.4797 16.0276C28.5866 16.1295 28.7101 16.2168 28.8221 16.3145C28.9371 16.4144 29.0491 16.5175 29.1591 16.6233C29.2093 16.6716 29.2587 16.7206 29.3077 16.7704C29.3347 16.7974 29.361 16.8244 29.3872 16.8518C29.4065 16.8715 29.4432 16.8993 29.4559 16.9244C29.4667 16.946 29.4621 16.9453 29.4494 16.9692C29.4413 16.9858 29.4328 17.0024 29.4239 17.019C29.4069 17.0526 29.3899 17.0854 29.3726 17.1186C29.3363 17.1865 29.3 17.2545 29.2625 17.322C28.9761 17.8428 28.6499 18.3462 28.2843 18.8157C27.5682 19.7349 26.7263 20.5529 25.7577 21.2038C25.481 21.3902 25.1961 21.562 24.9027 21.7219C24.6189 21.8767 24.3232 22.0299 24.0206 22.1438C24.429 21.1806 24.6923 20.1576 24.8166 19.1191C24.9409 18.0799 24.9247 17.0248 24.7776 15.9882ZM35.1295 13.1851C34.7411 12.6296 34.2887 12.1189 33.781 11.6691C33.2688 11.2155 32.7025 10.8241 32.0987 10.5029C31.7957 10.3419 31.4826 10.1987 31.1626 10.0743C31.0028 10.0126 30.8414 9.95506 30.6777 9.90294C30.5461 9.86125 30.4083 9.86434 30.2828 9.92495C30.1454 9.99173 30.0558 10.1114 30.0107 10.2539L28.5627 14.8166C27.8068 14.3004 26.9784 13.8912 26.1086 13.6048C25.2269 13.3145 24.3047 13.1516 23.3771 13.1156C22.4749 13.0809 21.5685 13.1709 20.6911 13.3816C19.8314 13.5878 19.0002 13.9094 18.2259 14.3363C17.4577 14.7598 16.7477 15.286 16.117 15.8956C15.5144 16.4785 14.9851 17.1367 14.5477 17.8525C14.115 18.5613 13.773 19.3253 13.5329 20.1205C13.2854 20.9401 13.1472 21.7913 13.1159 22.6472C13.082 23.5834 13.1831 24.5246 13.4132 25.4326C13.6394 26.3244 13.9911 27.1837 14.4543 27.9786C14.567 28.1724 14.6863 28.3623 14.8122 28.548C14.5416 28.6542 14.271 28.7607 14.0003 28.8673C13.4232 29.0943 12.8457 29.3213 12.2686 29.5483C11.7367 29.7575 11.2047 29.9667 10.6727 30.176C10.5334 30.2308 10.3944 30.2856 10.2558 30.34C10.2327 30.3493 10.2095 30.3578 10.1867 30.3675C9.97827 30.4566 9.85011 30.679 9.87906 30.9044C9.89528 31.0295 9.95974 31.1515 10.0092 31.2662C10.064 31.3932 10.1211 31.519 10.1817 31.6433C10.306 31.8974 10.4423 32.1452 10.5901 32.3861C10.8835 32.8629 11.2225 33.3115 11.6012 33.723C12.3651 34.5526 13.2939 35.2263 14.3154 35.7019C14.569 35.8196 14.8276 35.925 15.0909 36.0177C15.2191 36.0628 15.3561 36.125 15.4939 36.125C15.6082 36.125 15.7209 36.0856 15.8105 36.0154C15.9409 35.9127 15.9815 35.7702 16.0286 35.622C16.1714 35.1715 16.3146 34.7209 16.4574 34.2704C16.6524 33.6554 16.8477 33.0408 17.0427 32.4263C17.1681 32.0309 17.2932 31.6356 17.4187 31.2407C17.4248 31.221 17.4314 31.2017 17.4372 31.182C18.1927 31.6974 19.0199 32.1062 19.8885 32.3927C20.7702 32.6834 21.6928 32.8467 22.6205 32.8826C23.5234 32.9177 24.4306 32.8277 25.3088 32.617C26.1681 32.4108 26.9996 32.0892 27.7736 31.6626C28.5422 31.2388 29.2517 30.713 29.8825 30.103C30.4851 29.5205 31.0144 28.8626 31.4513 28.1473C31.8845 27.4385 32.2265 26.6749 32.4666 25.88C32.7141 25.06 32.8526 24.2084 32.8839 23.3525C32.9183 22.416 32.8171 21.4744 32.5863 20.5656C32.3601 19.6743 32.0088 18.8149 31.5455 18.02C31.4324 17.8262 31.3135 17.6363 31.1873 17.4506L35.749 15.6566C35.9162 15.5906 36.0548 15.4794 36.1061 15.2976C36.1362 15.1911 36.1301 15.0752 36.0895 14.9718C35.8413 14.3414 35.5174 13.7407 35.1295 13.1851Z" stroke="#5DCBEE" stroke-width="0.8" mask="url(#path-4-outside-1)"/>
</g>
</svg>
