<svg width="46" height="46" viewBox="0 0 46 46" fill="none" xmlns="http://www.w3.org/2000/svg">
<rect width="46" height="46" rx="10" fill="white"/>
<rect x="3" y="3" width="40" height="40" fill="white"/>
<path d="M16.8567 33.8692C13.7637 33.8692 10.9566 33.1489 9.63259 31.0516C8.23438 28.8166 7.89542 26.0837 8.67927 23.3508C9.7597 19.5905 12.8527 16.328 17.3863 14.1354C22.3118 11.7627 27.4174 11.4025 31.3896 13.1503C34.0271 14.3154 35.8914 16.328 36.6434 18.8067C38.0734 23.5627 35.1711 28.0115 28.4872 31.3376C26.4535 32.3544 21.3479 33.8692 16.8567 33.8692ZM25.8921 13.6587C23.4134 13.6587 20.7229 14.3049 18.0748 15.5865C13.9543 17.5673 11.1685 20.4909 10.2152 23.7957C9.55844 26.0837 9.83385 28.3611 10.9884 30.2042C13.3506 33.9645 23.9324 31.8248 27.7669 29.9182C31.1883 28.2128 36.6964 24.569 35.1075 19.2833C34.4931 17.2496 32.9466 15.5971 30.7434 14.6226C29.2816 13.9765 27.6398 13.6587 25.8921 13.6587Z" fill="#5DCBEE"/>
<path d="M30.2033 25.427C30.1927 25.427 30.1821 25.427 30.1715 25.427C29.7266 25.4164 29.3876 25.0457 29.3982 24.6008C29.6842 16.434 23.6889 14.1884 23.4347 14.093C23.0216 13.9447 22.7991 13.4893 22.9474 13.0761C23.0957 12.663 23.5512 12.4406 23.9643 12.5889C24.0384 12.6207 25.8603 13.2668 27.6293 15.0993C29.2499 16.7729 31.1566 19.7918 30.9871 24.6643C30.9871 25.088 30.6376 25.427 30.2033 25.427Z" fill="#5DCBEE"/>
<path d="M25.1824 27.5031C24.7693 27.5031 24.4303 27.1959 24.3879 26.7828C23.7736 20.1413 19.8332 17.3449 18.5409 16.4234C18.096 16.1056 17.7147 15.8302 17.8206 15.2794C17.8841 14.9616 18.1384 14.7074 18.4561 14.6438C18.8057 14.5697 19.1447 14.7286 19.3141 15.0146C19.3565 15.0463 19.4095 15.0887 19.4624 15.1205C23.3287 17.8745 25.5213 21.7514 25.9768 26.6345C26.0192 27.0688 25.6908 27.4607 25.2565 27.5031C25.2247 27.5031 25.2036 27.5031 25.1824 27.5031Z" fill="#5DCBEE"/>
<path d="M19.6639 30.4584C19.3037 30.4584 18.9859 30.2148 18.8906 29.8546C16.7933 21.709 13.2766 19.0397 13.2448 19.0185C12.8953 18.7537 12.8105 18.2558 13.0753 17.9063C13.3296 17.5461 13.8274 17.472 14.1875 17.7262C14.3464 17.8427 18.1809 20.6815 20.4477 29.4627C20.5536 29.8864 20.2994 30.3207 19.8757 30.4372C19.8016 30.4478 19.7274 30.4584 19.6639 30.4584Z" fill="#5DCBEE"/>
<path d="M11.8781 25.8083C11.698 25.8083 11.518 25.7448 11.3591 25.6177C11.0201 25.3317 10.9778 24.8338 11.2638 24.4948C11.5497 24.1559 18.4349 16.148 30.6374 15.862C31.0823 15.8408 31.4424 16.2009 31.453 16.6458C31.4636 17.0907 31.1141 17.4508 30.6692 17.4614C19.2081 17.7262 12.5454 25.4482 12.4713 25.5223C12.3336 25.713 12.1111 25.8083 11.8781 25.8083Z" fill="#5DCBEE"/>
<path d="M13.9331 29.1555C13.7319 29.1555 13.5306 29.0814 13.3823 28.9331C13.0645 28.6259 13.0539 28.1175 13.3611 27.7997C13.6471 27.5031 20.4899 20.5438 32.6606 20.2578C33.0949 20.2367 33.4657 20.5968 33.4763 21.0417C33.4868 21.4866 33.1373 21.8467 32.6924 21.8573C21.2102 22.1221 14.5793 28.8378 14.5051 28.9119C14.3568 29.0708 14.145 29.1555 13.9331 29.1555Z" fill="#5DCBEE"/>
</svg>
