<svg width="46" height="46" viewBox="0 0 46 46" fill="none" xmlns="http://www.w3.org/2000/svg">
<rect width="46" height="46" rx="10" fill="white"/>
<rect x="3" y="3" width="40" height="40" fill="white"/>
<path fill-rule="evenodd" clip-rule="evenodd" d="M33.9898 15.4079V18.7219C34.0007 19.623 33.6604 20.4916 33.044 21.1366C32.4275 21.7815 31.5852 22.1501 30.7025 22.1611H29.355C28.8984 22.1112 28.5522 21.7179 28.5522 21.2492C28.5522 20.7805 28.8984 20.3872 29.355 20.3373H30.6617C31.075 20.3345 31.4702 20.1636 31.7596 19.8623C32.049 19.561 32.2087 19.1543 32.2032 18.7324V15.4079C32.1922 14.5434 31.5085 13.8454 30.6617 13.8342H27.4051C26.5537 13.8342 25.8636 14.5388 25.8636 15.4079V20.379C25.8469 20.883 25.4388 21.2812 24.9448 21.2752C24.7074 21.2698 24.482 21.1676 24.3189 20.9913C24.1559 20.8151 24.0688 20.5795 24.077 20.3373V15.4079C24.0743 14.505 24.4237 13.6382 25.0482 12.9988C25.6726 12.3594 26.5207 12 27.4051 12H30.6617C32.4855 12.0442 33.9521 13.546 33.9898 15.4079ZM18.5949 12H15.3383C13.4992 12.0114 12.0111 13.5305 12 15.4079V18.7324C12.0112 20.608 13.5009 22.1241 15.3383 22.1298H18.5949C19.4793 22.1326 20.3285 21.7758 20.9548 21.1384C21.5811 20.501 21.9332 19.6352 21.9332 18.7324V15.4079C21.9276 13.5281 20.4363 12.0057 18.5949 12ZM20.1363 18.7324C20.1417 19.1543 19.9821 19.561 19.6927 19.8623C19.4033 20.1636 19.0081 20.3345 18.5948 20.3373H15.3381C14.9187 20.3459 14.5139 20.1796 14.2172 19.8767C13.9205 19.5738 13.7576 19.1606 13.766 18.7324V15.4079C13.7659 14.985 13.9325 14.58 14.2283 14.2839C14.524 13.9879 14.924 13.8258 15.3381 13.8342H18.5948C19.4438 13.8399 20.1307 14.5411 20.1363 15.4079V18.7324ZM27.4051 23.8702H30.6617C32.4991 23.8759 33.9888 25.392 34 27.2676V30.5921C33.9889 32.4695 32.5008 33.9886 30.6617 34H27.4051C25.5678 33.9886 24.0826 32.4678 24.077 30.5921V27.2676C24.077 25.3913 25.5671 23.8702 27.4051 23.8702ZM31.7548 31.708C32.0445 31.4122 32.206 31.0103 32.2032 30.5921V27.2676C32.2032 26.8503 32.0408 26.45 31.7517 26.1549C31.4627 25.8598 31.0706 25.694 30.6617 25.694H27.4051C26.5537 25.694 25.8636 26.3985 25.8636 27.2676V30.5921C25.8608 31.0103 26.0224 31.4122 26.3121 31.708C26.6017 32.0037 26.9954 32.1686 27.4051 32.1658H30.6617C31.0714 32.1686 31.4651 32.0037 31.7548 31.708ZM12 30.5817V27.2677C12 26.3648 12.352 25.4991 12.9784 24.8616C13.6047 24.2242 14.4539 23.8675 15.3383 23.8702H16.6756C17.0176 23.8329 17.3504 23.998 17.5328 24.2956C17.7153 24.5932 17.7153 24.971 17.5328 25.2686C17.3504 25.5662 17.0176 25.7314 16.6756 25.694H15.3383C14.4853 25.694 13.7922 26.3969 13.7865 27.2677V30.5505C13.8082 31.4143 14.492 32.1077 15.3383 32.1241H18.6153C19.0259 32.1269 19.4206 31.9623 19.7119 31.6669C20.0033 31.3715 20.1671 30.9696 20.1671 30.5505V25.621C20.1005 25.2529 20.2597 24.8805 20.5694 24.68C20.8791 24.4795 21.2771 24.4914 21.5748 24.7098C21.8726 24.9283 22.0104 25.3096 21.923 25.6732V30.5817C21.923 32.4638 20.4284 33.9896 18.5847 33.9896H15.3383C13.5105 33.9509 12.0379 32.4476 12 30.5817Z" fill="#5DCBEE"/>
</svg>
