<svg width="46" height="46" viewBox="0 0 46 46" fill="none" xmlns="http://www.w3.org/2000/svg">
<rect width="46" height="46" rx="10" fill="white"/>
<rect x="3" y="3" width="40" height="40" fill="white"/>
<path d="M18.0954 23.4089C18.6382 23.107 19.0582 22.6243 19.2821 22.0449C19.5061 21.4655 19.52 20.8259 19.3213 20.2373C19.3038 20.1647 19.2714 20.0965 19.2262 20.0371C19.181 19.9776 19.1239 19.9282 19.0586 19.8919C18.9933 19.8557 18.9212 19.8334 18.8468 19.8264C18.7725 19.8195 18.6975 19.8281 18.6266 19.8516C18.5557 19.8751 18.4904 19.9131 18.435 19.9632C18.3795 20.0132 18.3351 20.0742 18.3044 20.1423C18.2738 20.2104 18.2576 20.2842 18.2569 20.3588C18.2562 20.4335 18.271 20.5076 18.3004 20.5762C18.399 20.9318 18.3773 21.31 18.2387 21.652C18.1 21.994 17.8523 22.2806 17.5339 22.4672C17.2156 22.6538 16.8445 22.73 16.4784 22.6839C16.1123 22.6378 15.7717 22.472 15.5095 22.2123C15.413 22.1074 15.2787 22.0452 15.1363 22.0393C14.9939 22.0334 14.855 22.0843 14.7501 22.1809C14.6452 22.2774 14.583 22.4117 14.5771 22.5541C14.5712 22.6965 14.6222 22.8354 14.7187 22.9403C14.961 23.2136 15.2587 23.4322 15.592 23.5815C15.9253 23.7308 16.2866 23.8075 16.6518 23.8064C17.1616 23.7976 17.6599 23.6532 18.0954 23.388V23.4089Z" fill="#5DCBEE" stroke="#5DCBEE" stroke-width="0.6"/>
<path d="M29.8865 26.5262C29.7546 26.5745 29.6467 26.6723 29.5858 26.7989C29.5249 26.9254 29.5157 27.0708 29.5602 27.204C29.6587 27.5596 29.637 27.9378 29.4984 28.2798C29.3598 28.6218 29.1121 28.9084 28.7937 29.095C28.4754 29.2816 28.1043 29.3578 27.7382 29.3117C27.372 29.2656 27.0314 29.0998 26.7693 28.84C26.7215 28.7881 26.6639 28.7461 26.5999 28.7164C26.5359 28.6868 26.4666 28.67 26.3961 28.6671C26.3256 28.6642 26.2552 28.6752 26.1889 28.6995C26.1226 28.7237 26.0618 28.7609 26.0099 28.8087C25.9579 28.8565 25.9159 28.914 25.8863 28.9781C25.8566 29.0421 25.8398 29.1114 25.8369 29.1819C25.834 29.2524 25.845 29.3228 25.8693 29.3891C25.8936 29.4553 25.9307 29.5162 25.9785 29.5681C26.2178 29.8388 26.5113 30.0561 26.84 30.2061C27.1687 30.356 27.5252 30.4352 27.8865 30.4384C28.3941 30.4344 28.8919 30.2973 29.33 30.0409C29.8727 29.7376 30.2922 29.2542 30.5161 28.6742C30.7399 28.0943 30.7541 27.4543 30.556 26.8651C30.5338 26.7983 30.4986 26.7366 30.4525 26.6834C30.4064 26.6302 30.3503 26.5866 30.2873 26.5551C30.2244 26.5237 30.1558 26.5049 30.0856 26.4999C30.0154 26.495 29.9449 26.5039 29.8782 26.5262H29.8865Z" fill="#5DCBEE" stroke="#5DCBEE" stroke-width="0.6"/>
<path d="M21.1919 28.3296C21.057 28.2827 20.9091 28.2912 20.7805 28.3532C20.6519 28.4151 20.5531 28.5255 20.5057 28.6601C20.3672 29.0042 20.1183 29.2925 19.7982 29.4797C19.478 29.667 19.1047 29.7426 18.737 29.6948C18.3692 29.6469 18.0277 29.4782 17.7662 29.2152C17.5047 28.9522 17.338 28.6098 17.2922 28.2417C17.287 28.1711 17.2676 28.1022 17.2354 28.0391C17.2032 27.9761 17.1586 27.9201 17.1045 27.8745C17.0503 27.8289 16.9875 27.7946 16.9199 27.7735C16.8522 27.7525 16.7811 27.7453 16.7106 27.7522C16.5688 27.7649 16.4377 27.8332 16.3461 27.9422C16.2544 28.0511 16.2094 28.1918 16.221 28.3338C16.273 28.9542 16.5395 29.5372 16.9748 29.9824C17.4101 30.4276 17.9869 30.7072 18.606 30.7731C18.7259 30.7795 18.846 30.7795 18.9659 30.7731C19.5254 30.7855 20.0744 30.6194 20.5333 30.2989C20.9922 29.9785 21.3371 29.5203 21.5182 28.9907C21.5589 28.8596 21.5476 28.718 21.4869 28.595C21.4262 28.472 21.3206 28.377 21.1919 28.3296Z" fill="#5DCBEE" stroke="#5DCBEE" stroke-width="0.6"/>
<path d="M23.4639 25.7563C23.5834 25.7696 23.7035 25.7766 23.8238 25.7772C24.3833 25.7895 24.9323 25.6234 25.3912 25.303C25.8501 24.9825 26.195 24.5243 26.3761 23.9947C26.4112 23.9268 26.4314 23.8522 26.4352 23.7759C26.4391 23.6995 26.4265 23.6233 26.3985 23.5522C26.3704 23.4811 26.3274 23.4168 26.2725 23.3637C26.2175 23.3106 26.1518 23.2699 26.0798 23.2443C26.0078 23.2187 25.9311 23.2088 25.855 23.2152C25.7788 23.2217 25.7049 23.2444 25.6383 23.2818C25.5716 23.3192 25.5137 23.3704 25.4685 23.4321C25.4233 23.4937 25.3918 23.5643 25.3761 23.6391C25.2376 23.9831 24.9887 24.2714 24.6686 24.4587C24.3485 24.646 23.9752 24.7216 23.6074 24.6737C23.2396 24.6258 22.8982 24.4571 22.6367 24.1941C22.3752 23.9311 22.2084 23.5887 22.1627 23.2206C22.1574 23.15 22.1381 23.0811 22.1059 23.0181C22.0736 22.955 22.0291 22.899 21.9749 22.8534C21.9207 22.8078 21.858 22.7735 21.7903 22.7525C21.7227 22.7315 21.6515 22.7242 21.581 22.7311C21.5106 22.7369 21.442 22.7566 21.3792 22.789C21.3165 22.8214 21.2607 22.8659 21.2152 22.92C21.1697 22.974 21.1353 23.0366 21.1141 23.104C21.0929 23.1714 21.0852 23.2423 21.0915 23.3127C21.1427 23.9334 21.4089 24.5169 21.8444 24.9622C22.2798 25.4076 22.8571 25.6869 23.4765 25.7521L23.4639 25.7563Z" fill="#5DCBEE" stroke="#5DCBEE" stroke-width="0.6"/>
<path d="M25.1962 31.359C25.0595 31.3988 24.944 31.4911 24.8751 31.6158C24.8061 31.7404 24.7892 31.8872 24.828 32.0242C24.9135 32.3838 24.8776 32.7614 24.7259 33.0984C24.5742 33.4354 24.3153 33.7127 23.9895 33.887C23.6637 34.0614 23.2893 34.1231 22.9248 34.0624C22.5603 34.0017 22.2261 33.822 21.9744 33.5515C21.9285 33.4979 21.8725 33.4539 21.8096 33.4219C21.7467 33.39 21.6782 33.3708 21.6078 33.3653C21.5375 33.3599 21.4668 33.3684 21.3998 33.3902C21.3327 33.4121 21.2706 33.447 21.217 33.4929C21.1635 33.5388 21.1194 33.5948 21.0875 33.6577C21.0556 33.7205 21.0363 33.7891 21.0309 33.8594C21.0255 33.9298 21.0339 34.0005 21.0558 34.0675C21.0777 34.1346 21.1126 34.1967 21.1585 34.2502C21.4007 34.5461 21.706 34.7842 22.052 34.9471C22.3981 35.1099 22.7761 35.1935 23.1585 35.1917C23.6316 35.1898 24.0971 35.072 24.5142 34.8486C25.0682 34.5678 25.5063 34.1018 25.7524 33.5316C25.9986 32.9613 26.0372 32.3229 25.8615 31.7272C25.8422 31.6591 25.8097 31.5956 25.7658 31.5402C25.7218 31.4849 25.6674 31.4387 25.6055 31.4045C25.5437 31.3703 25.4757 31.3486 25.4054 31.3408C25.3352 31.333 25.2641 31.3392 25.1962 31.359Z" fill="#5DCBEE" stroke="#5DCBEE" stroke-width="0.6"/>
<path d="M30.8487 21.1327C30.5877 21.395 30.2471 21.5634 29.8802 21.6116C29.5134 21.6598 29.1409 21.585 28.821 21.399C28.5011 21.213 28.2519 20.9263 28.1123 20.5836C27.9727 20.2409 27.9506 19.8616 28.0494 19.5051C28.0678 19.3807 28.0418 19.2538 27.9761 19.1466C27.9103 19.0394 27.8089 18.9588 27.6896 18.9189C27.5704 18.879 27.4409 18.8823 27.3238 18.9282C27.2068 18.9742 27.1096 19.0599 27.0494 19.1703C26.8538 19.7629 26.8723 20.4053 27.1016 20.9857C27.331 21.566 27.7568 22.0475 28.3047 22.3461C28.7386 22.5966 29.2305 22.7293 29.7315 22.7311C30.0956 22.7291 30.4551 22.6497 30.7862 22.4982C31.1173 22.3467 31.4125 22.1266 31.652 21.8524C31.7475 21.747 31.7971 21.608 31.7901 21.4659C31.783 21.3239 31.7198 21.1905 31.6144 21.0951C31.509 20.9996 31.3699 20.95 31.2279 20.957C31.0859 20.9641 30.9525 21.0273 30.857 21.1327H30.8487Z" fill="#5DCBEE" stroke="#5DCBEE" stroke-width="0.6"/>
<path d="M34.9997 27.84C34.9974 26.9377 34.6466 26.0712 34.0206 25.4215C34.3804 25.0492 34.6527 24.6013 34.8178 24.1105C34.9828 23.6197 35.0364 23.0983 34.9747 22.5842C34.913 22.07 34.7375 21.5761 34.461 21.1383C34.1845 20.7005 33.8139 20.3298 33.3762 20.0532C33.3249 19.374 33.0762 18.7246 32.6606 18.1849C32.2451 17.6451 31.6808 17.2387 31.0372 17.0155C30.9967 16.9052 30.9492 16.7976 30.895 16.6933C32.0384 15.8023 32.8988 14.5989 33.372 13.2288C33.3943 13.1623 33.4031 13.0921 33.3981 13.0222C33.3931 12.9522 33.3743 12.884 33.3428 12.8214C33.3113 12.7588 33.2677 12.703 33.2145 12.6573C33.1614 12.6116 33.0997 12.5769 33.0331 12.5551C29.3719 11.2999 27.2924 11.94 26.2631 12.5551C25.6689 9.46299 23.6563 8.20772 22.8655 7.83951C22.8162 7.78821 22.7571 7.74732 22.6917 7.71929C22.6263 7.69126 22.5559 7.67665 22.4847 7.67633H22.3718C22.3067 7.67641 22.2423 7.68981 22.1825 7.71572C22.1228 7.74163 22.069 7.77948 22.0245 7.82696C21.242 8.19099 19.1876 9.42533 18.5851 12.5593C17.5516 11.9275 15.472 11.304 11.815 12.5593C11.6804 12.6026 11.5682 12.697 11.5025 12.8222C11.4367 12.9474 11.4228 13.0934 11.4635 13.2288C11.9962 14.7511 12.9927 16.0682 14.313 16.9946C13.5007 17.2503 12.8109 17.7958 12.375 18.5273C11.939 19.2588 11.7874 20.1251 11.9489 20.9612C11.5982 21.2803 11.3164 21.6676 11.1208 22.0995C10.9251 22.5314 10.8197 22.9987 10.8111 23.4728C10.8025 23.9468 10.8908 24.4176 11.0706 24.8564C11.2505 25.2951 11.518 25.6924 11.8569 26.0241C11.5882 26.4666 11.4212 26.9634 11.368 27.4784C11.3148 27.9934 11.3768 28.5137 11.5494 29.0019C11.722 29.49 12.0009 29.9336 12.3659 30.3008C12.731 30.6679 13.1731 30.9493 13.6602 31.1246C13.3983 31.9887 13.4806 32.9207 13.89 33.7255C14.2995 34.5303 15.0043 35.1456 15.857 35.4427C16.0185 35.9047 16.2752 36.3276 16.6104 36.6842C16.9456 37.0407 17.352 37.323 17.8031 37.5126C18.2543 37.7023 18.7402 37.7952 19.2295 37.7854C19.7188 37.7755 20.2006 37.663 20.6437 37.4553C20.9581 37.8794 21.3646 38.2266 21.8327 38.4708C22.3007 38.715 22.818 38.8499 23.3457 38.8652C23.8734 38.8805 24.3977 38.7759 24.8791 38.5592C25.3606 38.3425 25.7865 38.0194 26.125 37.6143C26.4757 37.7313 26.8431 37.7906 27.2129 37.79C28.0121 37.7857 28.786 37.5095 29.4073 37.0069C30.0286 36.5042 30.4603 35.805 30.6314 35.0243C31.4121 34.8532 32.1113 34.4215 32.614 33.8002C33.1166 33.1789 33.3928 32.405 33.3971 31.6058C33.4023 31.3487 33.3785 31.0918 33.326 30.8401C33.8403 30.5271 34.2648 30.0863 34.5581 29.5606C34.8514 29.0348 35.0036 28.442 34.9997 27.84ZM12.677 13.392C17.0871 12.0656 18.5348 13.8899 18.5348 13.9024C18.5961 13.9966 18.6854 14.0691 18.7901 14.1097C18.8948 14.1504 19.0097 14.157 19.1184 14.1288C19.2271 14.1006 19.3242 14.0389 19.3959 13.9525C19.4677 13.866 19.5104 13.7592 19.5181 13.6472C19.7817 10.4128 21.7525 9.17009 22.4471 8.83954C23.1207 9.17009 25.0915 10.4128 25.376 13.6472C25.385 13.7558 25.4272 13.859 25.4968 13.9428C25.5664 14.0266 25.6601 14.087 25.7651 14.1158C25.8706 14.146 25.9827 14.1434 26.0866 14.1082C26.1905 14.0731 26.2813 14.0072 26.3468 13.9192C26.3468 13.9192 27.7987 12.0781 32.2046 13.4045C31.7833 14.3357 31.1534 15.1575 30.3636 15.8062C30.3636 15.7811 30.3176 15.7602 30.2925 15.7351L30.1711 15.6179C30.0756 15.5272 29.975 15.442 29.8699 15.3627L29.7527 15.3209C29.635 15.2377 29.512 15.1622 29.3845 15.0949L29.2631 15.0363C29.1275 14.9715 28.9877 14.9156 28.8447 14.869H28.8154C28.6639 14.8199 28.5085 14.7836 28.351 14.7602H28.2296C28.0677 14.7352 27.904 14.7226 27.7401 14.7225C27.1611 14.7186 26.5902 14.8588 26.0789 15.1306C25.5676 15.4023 25.1319 15.797 24.8112 16.2791C24.1725 15.6293 23.3051 15.2551 22.3943 15.2363C21.4835 15.2176 20.6014 15.5558 19.9366 16.1786C19.2864 15.5537 18.4198 15.2044 17.5181 15.2037C17.3781 15.2047 17.2384 15.2145 17.0997 15.233H16.9658L16.7147 15.3209L16.5683 15.3585C16.4804 15.3836 16.4009 15.4129 16.3172 15.4422L16.0076 15.5761L15.8779 15.6431C15.796 15.6864 15.7164 15.7339 15.6394 15.7853L15.5766 15.8272C15.3947 15.9499 15.2252 16.0901 15.0703 16.2456C14.0281 15.5295 13.2006 14.543 12.677 13.392ZM32.4599 30.0702L31.9829 30.271L32.1628 30.7564C32.2655 31.0236 32.3193 31.307 32.3218 31.5932C32.3182 32.1975 32.09 32.7787 31.6818 33.2242C31.2735 33.6696 30.7142 33.9473 30.1125 34.0033L29.6606 34.041L29.623 34.4929C29.5669 35.0945 29.2892 35.6538 28.8438 36.0621C28.3984 36.4704 27.8171 36.6985 27.2129 36.7021C26.852 36.7023 26.4958 36.6208 26.171 36.4636L25.7526 36.2586L25.4932 36.677C25.265 37.0356 24.9463 37.3276 24.5692 37.5235C24.192 37.7194 23.7699 37.8122 23.3453 37.7927C22.9208 37.7732 22.5089 37.6419 22.1514 37.4123C21.7938 37.1826 21.5032 36.8626 21.309 36.4846L21.0286 35.9448L20.5265 36.2921C20.2051 36.5141 19.8345 36.6549 19.4467 36.7022C19.0589 36.7495 18.6654 36.7019 18.3 36.5637C17.9346 36.4254 17.6082 36.2005 17.3488 35.9084C17.0895 35.6162 16.9049 35.2654 16.811 34.8862L16.7231 34.5682L16.4093 34.4887C15.8857 34.3595 15.4205 34.0584 15.0883 33.6336C14.756 33.2088 14.5759 32.6848 14.5766 32.1455C14.5741 31.7501 14.6704 31.3603 14.8569 31.0116L15.2126 30.3463L14.4678 30.2292C14.0446 30.1623 13.6469 29.9841 13.3151 29.713C12.9834 29.4419 12.7297 29.0875 12.5799 28.6862C12.43 28.2848 12.3895 27.8508 12.4625 27.4287C12.5354 27.0065 12.7192 26.6113 12.995 26.2835L13.3674 25.84L12.8945 25.501C12.5846 25.2796 12.3315 24.9878 12.1561 24.6496C11.9807 24.3114 11.888 23.9365 11.8856 23.5555C11.8831 23.1746 11.971 22.7985 12.142 22.458C12.313 22.1176 12.5623 21.8226 12.8694 21.5972L13.1749 21.3712L13.0661 21.0114C12.9985 20.7846 12.9632 20.5493 12.9615 20.3126C12.9604 19.7423 13.1617 19.1901 13.5294 18.7542C13.8972 18.3183 14.4076 18.0269 14.9699 17.9318L15.2419 17.8858L15.3632 17.6389C15.427 17.5082 15.5026 17.3835 15.5892 17.2665C15.8111 16.9727 16.0973 16.7337 16.426 16.5678L16.4804 16.5385L16.6561 16.459L16.7817 16.4129L16.9281 16.3711C16.9886 16.3545 17.0501 16.342 17.1122 16.3334H17.2252C17.3303 16.3166 17.4367 16.3082 17.5432 16.3083C17.9285 16.3069 18.3085 16.3973 18.6519 16.5719C18.9954 16.7465 19.2923 17.0004 19.5181 17.3125L19.9366 17.936L20.3759 17.3125C20.6093 16.9773 20.9239 16.7068 21.2903 16.5263C21.6567 16.3457 22.063 16.2611 22.471 16.2804C22.879 16.2996 23.2755 16.422 23.6233 16.6362C23.9711 16.8504 24.2589 17.1493 24.4597 17.505L25.058 18.5553L25.4346 17.4046C25.5926 16.9185 25.9003 16.4949 26.3136 16.1943C26.727 15.8937 27.2248 15.7315 27.7359 15.7309C27.8578 15.7324 27.9794 15.7421 28.0999 15.7602L28.2087 15.7811C28.2954 15.797 28.3807 15.8194 28.464 15.8481L28.5686 15.8816C28.6779 15.9212 28.7842 15.9687 28.8866 16.0238L28.941 16.0573C29.0222 16.104 29.1004 16.1557 29.1753 16.2121C29.2148 16.2405 29.2525 16.2712 29.2882 16.3042C29.3414 16.3469 29.3917 16.393 29.4389 16.4422L29.5602 16.5761C29.6104 16.6347 29.6565 16.6975 29.7025 16.7602C29.7285 16.7881 29.7509 16.819 29.7694 16.8523C29.9148 17.0773 30.0222 17.3247 30.0874 17.5845L30.1669 17.8983L30.4807 17.9778C31.0083 18.1078 31.4765 18.4118 31.8099 18.8408C32.1432 19.2698 32.3221 19.7987 32.3176 20.3419V20.6808L32.6189 20.8356C32.9905 21.0249 33.307 21.3071 33.5374 21.6548C33.7678 22.0024 33.9044 22.4038 33.9338 22.8199C33.9633 23.2359 33.8847 23.6525 33.7056 24.0292C33.5265 24.4059 33.253 24.7299 32.9118 24.9696L32.2841 25.3881L32.9118 25.8065C33.2659 26.0541 33.5471 26.392 33.7264 26.7851C33.9056 27.1782 33.9763 27.6122 33.931 28.0419C33.8858 28.4716 33.7262 28.8813 33.4689 29.2284C33.2117 29.5756 32.8662 29.8474 32.4682 30.0158L32.4599 30.0702Z" fill="#5DCBEE" stroke="#5DCBEE" stroke-width="0.6"/>
</svg>
