<svg width="46" height="46" viewBox="0 0 46 46" fill="none" xmlns="http://www.w3.org/2000/svg">
<rect width="46" height="46" rx="10" fill="white"/>
<rect x="3" y="3" width="40" height="40" fill="white"/>
<path fill-rule="evenodd" clip-rule="evenodd" d="M10.869 19.4942L24.5068 14.3083C25.7282 13.8439 27.0679 13.7909 28.3221 14.1574L34.6782 16.0145C36.2147 16.4635 37.0964 18.073 36.6474 19.6095C36.3927 20.4811 35.7443 21.183 34.8955 21.5058L27.51 24.3142L22.9932 26.0317L21.2577 26.6917C20.0363 27.1561 18.6966 27.2091 17.4423 26.8426L11.0863 24.9855C9.54978 24.5366 8.66813 22.927 9.11708 21.3905C9.37176 20.5189 10.0202 19.817 10.869 19.4942Z" stroke="#5DCBEE" stroke-width="2" stroke-linejoin="round"/>
<path d="M9.89452 23.9463C9.76497 26.9023 10.6673 29.2895 12.6016 31.1077C13.8889 32.3177 15.6783 33.2144 17.9698 33.7978C20.1175 34.3446 22.3802 34.2299 24.4616 33.4687L29.4218 31.6548C32.4181 30.559 34.6104 27.9589 35.184 24.8205L35.8823 21" stroke="#5DCBEE" stroke-width="2" stroke-linejoin="round"/>
<path d="M20.0332 30.8205L20.7315 27" stroke="#5DCBEE" stroke-width="2" stroke-linecap="round" stroke-linejoin="round"/>
<path fill-rule="evenodd" clip-rule="evenodd" d="M25.3823 19C27.3153 19 28.8823 17.433 28.8823 15.5C28.8823 13.567 27.3153 12 25.3823 12C23.4493 12 21.8823 13.567 21.8823 15.5" fill="white"/>
<path d="M25.3823 19C27.3153 19 28.8823 17.433 28.8823 15.5C28.8823 13.567 27.3153 12 25.3823 12C23.4493 12 21.8823 13.567 21.8823 15.5" stroke="#5DCBEE" stroke-width="2" stroke-linecap="round" stroke-linejoin="round"/>
<path d="M20.3823 20C22.3153 20 23.8823 18.433 23.8823 16.5C23.8823 14.567 22.3153 13 20.3823 13C18.4493 13 16.8823 14.567 16.8823 16.5C16.8823 18.433 18.4493 20 20.3823 20Z" fill="white" stroke="#5DCBEE" stroke-width="2" stroke-linecap="round" stroke-linejoin="round"/>
</svg>
