<svg width="46" height="46" viewBox="0 0 46 46" fill="none" xmlns="http://www.w3.org/2000/svg">
<rect width="46" height="46" rx="10" fill="white"/>
<rect x="3" y="3" width="40" height="40" fill="white"/>
<path fill-rule="evenodd" clip-rule="evenodd" d="M10.9867 19.4942L24.6245 14.3083C25.8459 13.8438 27.1855 13.7908 28.4398 14.1573L34.7959 16.0144C36.3324 16.4634 37.214 18.0729 36.7651 19.6094C36.5104 20.4811 35.8619 21.183 35.0132 21.5057L27.6277 24.3141L23.1109 26.0317L21.3753 26.6916C20.1539 27.1561 18.8143 27.2091 17.56 26.8426L11.204 24.9854C9.66746 24.5365 8.78581 22.927 9.23476 21.3905C9.48943 20.5188 10.1379 19.8169 10.9867 19.4942Z" stroke="#5DCBEE" stroke-width="2" stroke-linejoin="round"/>
<path d="M10.0122 23.9463C9.88265 26.9023 10.785 29.2895 12.7193 31.1077C14.0065 32.3177 15.7959 33.2144 18.0875 33.7978C20.2352 34.3446 22.4979 34.2299 24.5793 33.4687L29.5394 31.6548C32.5357 30.559 34.728 27.9589 35.3017 24.8205L36 21" stroke="#5DCBEE" stroke-width="2" stroke-linejoin="round"/>
<path d="M20.1509 30.8205L20.8492 27" stroke="#5DCBEE" stroke-width="2" stroke-linecap="round" stroke-linejoin="round"/>
<path d="M17.2894 19.9388C16.7033 19.7789 16.0986 20.1245 15.9388 20.7106C15.7789 21.2967 16.1245 21.9014 16.7106 22.0612L17.2894 19.9388ZM22.2106 23.5612C22.7967 23.7211 23.4014 23.3755 23.5612 22.7894C23.7211 22.2033 23.3755 21.5986 22.7894 21.4388L22.2106 23.5612ZM16.7106 22.0612L22.2106 23.5612L22.7894 21.4388L17.2894 19.9388L16.7106 22.0612Z" fill="#5DCBEE"/>
<path d="M23.2894 17.9388C22.7033 17.7789 22.0986 18.1245 21.9388 18.7106C21.7789 19.2967 22.1245 19.9014 22.7106 20.0612L23.2894 17.9388ZM28.2106 21.5612C28.7967 21.7211 29.4014 21.3755 29.5612 20.7894C29.7211 20.2033 29.3755 19.5986 28.7894 19.4388L28.2106 21.5612ZM22.7106 20.0612L28.2106 21.5612L28.7894 19.4388L23.2894 17.9388L22.7106 20.0612Z" fill="#5DCBEE"/>
</svg>
