<svg width="46" height="46" viewBox="0 0 46 46" fill="none" xmlns="http://www.w3.org/2000/svg">
<rect width="46" height="46" rx="10" fill="white"/>
<rect x="3" y="3" width="40" height="40" fill="white"/>
<path d="M22.9531 29.7969C22.4353 29.7969 22.0156 29.3772 22.0156 28.8594C22.0156 28.3416 22.4353 27.9219 22.9531 27.9219C23.4709 27.9219 23.8906 28.3416 23.8906 28.8594C23.8906 29.3772 23.4709 29.7969 22.9531 29.7969ZM23.8906 25.5781V24.3193C25.7034 23.8807 26.9593 22.2361 26.8877 20.3763C26.8099 18.3511 25.1484 16.7045 23.1051 16.6279C22.0134 16.5865 20.9825 16.9777 20.2032 17.7282C19.4373 18.4659 19.0156 19.4558 19.0156 20.5156C19.0156 21.0334 19.4353 21.4531 19.9531 21.4531C20.4709 21.4531 20.8906 21.0334 20.8906 20.5156C20.8906 19.97 21.1083 19.4597 21.5038 19.0788C21.9129 18.6849 22.4562 18.48 23.0348 18.5015C24.1043 18.5417 24.9737 19.3969 25.0142 20.4484C25.0517 21.4284 24.3753 22.2943 23.4054 22.5071C22.5871 22.6867 22.0156 23.3939 22.0156 24.227V25.5781C22.0156 26.0959 22.4353 26.5156 22.9531 26.5156C23.4709 26.5156 23.8906 26.0959 23.8906 25.5781ZM29.2091 33.2706C29.652 33.0023 29.7936 32.4259 29.5253 31.9832C29.2569 31.5402 28.6805 31.3987 28.2377 31.6669C26.663 32.6207 24.8517 33.125 23 33.125C17.4171 33.125 12.875 28.5829 12.875 23C12.875 17.4171 17.4171 12.875 23 12.875C28.5829 12.875 33.125 17.4171 33.125 23C33.125 24.9964 32.5314 26.9395 31.4082 28.6197C31.1204 29.05 31.2361 29.6323 31.6664 29.9201C32.0969 30.2079 32.6791 30.0922 32.9668 29.6617C34.2971 27.6723 35 25.3687 35 23C35 19.7947 33.7518 16.7812 31.4853 14.5147C29.2188 12.2482 26.2053 11 23 11C19.7947 11 16.7812 12.2482 14.5147 14.5147C12.2482 16.7812 11 19.7947 11 23C11 26.2053 12.2482 29.2188 14.5147 31.4853C16.7812 33.7518 19.7947 35 23 35C25.1943 35 27.3414 34.402 29.2091 33.2706Z" fill="#5DCBEE"/>
</svg>
