<svg width="46" height="46" viewBox="0 0 46 46" fill="none" xmlns="http://www.w3.org/2000/svg">
<rect width="46" height="46" rx="10" fill="white"/>
<rect x="3" y="3" width="40" height="40" fill="white"/>
<path d="M36.5126 18.1392C35.601 15.8206 33.3622 13.9275 30.8949 13.1267C31.3991 12.3267 31.7833 11.512 32.0235 10.6962C32.102 10.4329 31.96 10.1429 31.6148 9.85765C31.2494 9.55571 30.6782 9.27936 30.2709 9.48884C29.3381 9.97126 26.6163 11.4642 24.6562 12.8555C24.3376 11.7099 23.5089 10.8586 22.206 10.368C18.7489 9.06511 12.8466 10.6556 10.9661 12.7941C9.93303 13.9691 9.62905 15.8698 10.2097 17.5237C10.757 19.0832 11.9616 20.1354 13.515 20.4107C14.0649 20.5083 14.6446 20.5561 15.2324 20.5714C12.4007 21.3414 9.69182 22.7099 8.03476 26.1847C7.98324 26.2925 7.99006 26.4198 8.05352 26.5218C8.11629 26.6238 8.22718 26.6869 8.34727 26.6893C8.79625 26.6985 9.22646 26.7036 9.64508 26.7036C11.4332 26.7036 13.0182 26.602 14.8994 26.286C14.9885 27.9206 15.6046 29.1853 16.7438 29.9161C17.4135 30.346 18.2173 30.5537 19.0679 30.5537C20.4786 30.5537 22.0163 29.9775 23.2922 28.9038C24.6931 31.4554 25.7463 33.3165 29.9966 35.6928C30.0505 35.7232 30.1095 35.7382 30.1692 35.7382C30.231 35.7382 30.2931 35.7218 30.3483 35.6894C30.4561 35.6263 30.5234 35.5099 30.5234 35.3847C30.5234 30.8997 30.3695 27.3536 28.6169 23.9316C29.797 24.5989 31.0245 24.9149 32.161 24.9149C33.1279 24.9149 34.0272 24.6934 34.7726 24.2875C36.427 23.3854 37.7528 21.2968 36.5126 18.1392ZM30.5796 10.1227C30.7352 10.0903 31.2098 10.3813 31.3254 10.5635C31.0842 11.3547 30.6963 12.1486 30.1832 12.9289C29.4224 12.7511 28.651 12.674 27.898 12.7303C26.8087 12.8125 25.8879 13.2584 25.2369 14.0196C25.0476 14.2407 24.8828 14.489 24.7422 14.7579C24.7794 14.5051 24.8074 14.2495 24.8074 13.9868C24.8074 13.8654 24.7927 13.7514 24.7838 13.6347C26.7115 12.2199 29.695 10.5826 30.5796 10.1227ZM23.8569 16.9502C24.0073 16.7319 24.1414 16.5084 24.2557 16.2788C24.2124 16.5524 24.1865 16.8346 24.1827 17.1232C24.0783 17.0598 23.9688 17.0038 23.8569 16.9502ZM13.6388 19.7147C12.3437 19.4855 11.3373 18.6015 10.877 17.2897C10.3786 15.8691 10.628 14.2495 11.4976 13.2601C13.2031 11.3219 18.7895 9.83615 21.9569 11.0296C23.3792 11.5649 24.0998 12.5604 24.0998 13.9868C24.0998 14.9721 23.7811 15.8803 23.1756 16.6978C23.1223 16.6834 23.0729 16.663 23.0186 16.6504C20.9614 16.1754 18.4763 17.564 16.8363 19.8096C15.7476 19.9249 14.6432 19.8932 13.6388 19.7147ZM8.92623 25.9916C10.6795 22.7536 13.4525 21.7096 16.0437 21.0917C15.8015 21.5635 15.5934 22.0569 15.4351 22.57C15.0987 23.6587 14.9336 24.659 14.9008 25.5726C12.7624 25.9404 11.0251 26.0168 8.92623 25.9916ZM17.1259 29.3214C15.5156 28.288 15.1454 25.9026 16.1099 22.7785C17.0529 19.7257 19.8502 17.2631 22.1783 17.2631C22.4107 17.2631 22.6389 17.2873 22.8596 17.3385C24.4457 17.7049 25.0841 18.9724 25.3403 19.9713C26.0144 22.6014 24.892 26.5433 22.9866 28.2416C21.1562 29.8728 18.6929 30.3258 17.1259 29.3214ZM27.3474 23.1217C29.5421 26.6064 29.7977 30.1842 29.8151 34.774C26.1352 32.613 25.1755 30.8642 23.8685 28.4835L23.8262 28.4064C25.2472 26.881 26.1721 24.298 26.2383 21.9498C26.5811 22.3479 26.938 22.7048 27.3082 23.018C27.3167 23.0531 27.3269 23.0889 27.3474 23.1217ZM34.4335 23.6662C32.2964 24.832 28.6998 24.2356 26.2468 20.8362C26.2328 20.8167 26.2133 20.8051 26.1966 20.7898C26.1605 20.4466 26.1066 20.1122 26.0254 19.7956C25.8029 18.9277 25.4229 18.2218 24.9026 17.6892C24.9026 17.68 24.9067 17.6715 24.906 17.6619C24.8043 16.4023 25.1209 15.242 25.7749 14.4785C26.3089 13.8545 27.041 13.5034 27.952 13.4341C31.0972 13.1987 34.7044 15.4709 35.8538 18.3971C36.7644 20.7157 36.2335 22.6857 34.4335 23.6662Z" fill="#5DCBEE" stroke="#5DCBEE" stroke-width="0.7"/>
<path d="M34.7918 20.4844C34.2319 20.5711 33.7218 21.121 33.4551 21.5656C33.2954 21.8317 33.0508 22.3448 33.2067 22.7918C33.3159 23.1039 33.5571 23.282 33.8491 23.282C33.9204 23.282 33.9938 23.2714 34.0692 23.2496C34.7849 23.0476 35.8303 21.6966 35.6713 20.9706C35.6085 20.6799 35.3445 20.4012 34.7918 20.4844ZM34.5198 22.0316C34.2026 22.4209 33.9242 22.5772 33.8744 22.5577C33.8406 22.4608 33.8842 22.223 34.0613 21.9289C34.2937 21.5414 34.6539 21.221 34.8992 21.1831C34.9337 21.1777 34.9603 21.1756 34.9804 21.1753C34.9637 21.3179 34.8334 21.6468 34.5198 22.0316Z" fill="#5DCBEE" stroke="#5DCBEE" stroke-width="0.7"/>
<path d="M11.9676 14.2765C11.7148 14.2966 11.4872 14.4379 11.3276 14.6733C10.9943 15.1652 10.9844 16.0018 11.3006 17.0301C11.535 17.7916 11.9127 17.9563 12.1955 17.9563C12.2017 17.9563 12.2078 17.956 12.2139 17.956C12.6912 17.9441 13.0321 17.4511 13.147 16.998C13.3872 16.0492 13.2733 15.2069 12.8338 14.6886C12.5913 14.4014 12.276 14.2546 11.9676 14.2765ZM12.4613 16.8243C12.3927 17.0952 12.2399 17.2402 12.2064 17.2508C12.1778 17.2395 12.0734 17.1362 11.9768 16.8226C11.6885 15.8861 11.7547 15.3031 11.9134 15.07C11.9345 15.0383 11.9779 14.9851 12.0253 14.9813C12.088 14.9721 12.1928 15.0257 12.2941 15.1451C12.4009 15.271 12.7295 15.7657 12.4613 16.8243Z" fill="#5DCBEE" stroke="#5DCBEE" stroke-width="0.7"/>
<path d="M17.1035 27.168C16.7085 27.4252 16.6703 27.7589 16.6825 27.9343C16.719 28.4661 17.267 28.9076 17.7675 29.1434C18.0807 29.2908 18.4669 29.3999 18.8445 29.3999C19.1485 29.3999 19.4467 29.3286 19.6968 29.1505C20.1198 28.8472 20.2041 28.3757 19.9124 27.9486C19.4487 27.2693 17.9159 26.6395 17.1035 27.168ZM19.284 28.5753C19.0335 28.7565 18.544 28.7278 18.0684 28.5033C17.6184 28.2921 17.3959 28.0097 17.3874 27.8851C17.3864 27.8715 17.3833 27.8288 17.4891 27.7603C17.5784 27.7019 17.702 27.6767 17.8439 27.6767C18.3526 27.6767 19.095 28.0066 19.3276 28.3474C19.4051 28.4597 19.3986 28.4941 19.284 28.5753Z" fill="#5DCBEE" stroke="#5DCBEE" stroke-width="0.7"/>
</svg>
