<svg width="46" height="46" viewBox="0 0 46 46" fill="none" xmlns="http://www.w3.org/2000/svg">
<rect width="46" height="46" rx="10" fill="white"/>
<rect x="3" y="3" width="40" height="40" fill="white"/>
<path d="M19.7892 23.6546C19.7892 23.1646 19.3912 22.7656 18.9002 22.7656C18.4102 22.7656 18.0122 23.1636 18.0122 23.6546C18.0122 24.1456 18.4102 24.5436 18.9002 24.5436C19.3902 24.5436 19.7892 24.1456 19.7892 23.6546ZM18.7892 23.6546C18.7892 23.5926 18.8392 23.5436 18.9002 23.5436C18.9612 23.5436 19.0122 23.5936 19.0122 23.6546C19.0122 23.7776 18.7892 23.7776 18.7892 23.6546Z" fill="#5DCBEE" stroke="#5DCBEE" stroke-width="0.4"/>
<path d="M16.7572 26.0737C16.2672 26.0737 15.8682 26.4717 15.8682 26.9627C15.8682 27.4517 16.2662 27.8507 16.7572 27.8507C17.2482 27.8507 17.6462 27.4527 17.6462 26.9627C17.6462 26.4727 17.2472 26.0737 16.7572 26.0737ZM16.6462 26.9627C16.6462 26.9007 16.6962 26.8507 16.7572 26.8507C16.8182 26.8507 16.8682 26.9017 16.8682 26.9627C16.8682 27.0857 16.6462 27.0857 16.6462 26.9627Z" fill="#5DCBEE" stroke="#5DCBEE" stroke-width="0.4"/>
<path d="M19.8621 31.3517C19.3721 31.3517 18.9741 31.7497 18.9741 32.2407C18.9741 32.7317 19.3721 33.1297 19.8621 33.1297C20.3521 33.1297 20.7511 32.7317 20.7511 32.2407C20.7511 31.7497 20.3531 31.3517 19.8621 31.3517ZM19.7511 32.2397C19.7511 32.1777 19.8011 32.1287 19.8621 32.1287C19.9231 32.1287 19.9741 32.1787 19.9741 32.2397C19.9741 32.3627 19.7511 32.3627 19.7511 32.2397Z" fill="#5DCBEE" stroke="#5DCBEE" stroke-width="0.4"/>
<path d="M26.7752 30.5737C26.2852 30.5737 25.8862 30.9717 25.8862 31.4627C25.8862 31.9537 26.2842 32.3517 26.7752 32.3517C27.2662 32.3517 27.6642 31.9537 27.6642 31.4627C27.6642 30.9717 27.2652 30.5737 26.7752 30.5737ZM26.6642 31.4627C26.6642 31.4007 26.7142 31.3517 26.7752 31.3517C26.8362 31.3517 26.8862 31.4017 26.8862 31.4627C26.8862 31.5857 26.6642 31.5857 26.6642 31.4627Z" fill="#5DCBEE" stroke="#5DCBEE" stroke-width="0.4"/>
<path d="M28.7581 26.4626C28.2681 26.4626 27.8691 26.8606 27.8691 27.3506C27.8691 27.8406 28.2671 28.2396 28.7581 28.2396C29.2491 28.2396 29.6471 27.8416 29.6471 27.3506C29.6461 26.8606 29.2481 26.4626 28.7581 26.4626ZM28.6461 27.3506C28.6461 27.2886 28.6961 27.2396 28.7571 27.2396C28.8181 27.2396 28.8681 27.2896 28.8681 27.3506C28.8691 27.4736 28.6461 27.4736 28.6461 27.3506Z" fill="#5DCBEE" stroke="#5DCBEE" stroke-width="0.4"/>
<path d="M27.1281 23.2667C27.1281 22.7767 26.7301 22.3777 26.2401 22.3777C25.7501 22.3777 25.3511 22.7757 25.3511 23.2667C25.3511 23.7577 25.7491 24.1557 26.2401 24.1557C26.7291 24.1547 27.1281 23.7567 27.1281 23.2667ZM26.1281 23.2667C26.1281 23.2047 26.1791 23.1557 26.2401 23.1557C26.3011 23.1557 26.3511 23.2057 26.3511 23.2667C26.3511 23.3897 26.1281 23.3897 26.1281 23.2667Z" fill="#5DCBEE" stroke="#5DCBEE" stroke-width="0.4"/>
<path d="M22.5702 23.0827C23.0602 23.0827 23.4582 22.6847 23.4582 22.1947C23.4582 21.7047 23.0602 21.3057 22.5702 21.3057C22.0802 21.3057 21.6812 21.7037 21.6812 22.1947C21.6812 22.6847 22.0802 23.0827 22.5702 23.0827ZM22.5702 22.0827C22.6322 22.0827 22.6812 22.1337 22.6812 22.1947C22.6812 22.3177 22.4582 22.3177 22.4582 22.1947C22.4582 22.1337 22.5082 22.0827 22.5702 22.0827Z" fill="#5DCBEE" stroke="#5DCBEE" stroke-width="0.4"/>
<path d="M20.1769 28.6967C20.1769 28.2067 19.7789 27.8077 19.2879 27.8077C18.7969 27.8077 18.3989 28.2057 18.3989 28.6967C18.3989 29.1877 18.7969 29.5857 19.2879 29.5857C19.7789 29.5857 20.1769 29.1877 20.1769 28.6967ZM19.1769 28.6967C19.1769 28.6347 19.2269 28.5857 19.2879 28.5857C19.3489 28.5857 19.3989 28.6357 19.3989 28.6967C19.3999 28.8197 19.1769 28.8197 19.1769 28.6967Z" fill="#5DCBEE" stroke="#5DCBEE" stroke-width="0.4"/>
<path d="M23.8958 27.4197C23.4058 27.4197 23.0068 27.8177 23.0068 28.3087C23.0068 28.7997 23.4048 29.1977 23.8958 29.1977C24.3868 29.1977 24.7848 28.7997 24.7848 28.3087C24.7848 27.8177 24.3858 27.4197 23.8958 27.4197ZM23.7848 28.3087C23.7848 28.2467 23.8348 28.1977 23.8958 28.1977C23.9568 28.1977 24.0068 28.2477 24.0068 28.3087C24.0078 28.4327 23.7838 28.4327 23.7848 28.3087Z" fill="#5DCBEE" stroke="#5DCBEE" stroke-width="0.4"/>
<path d="M23.8958 24.4266C23.4058 24.4266 23.0068 24.8246 23.0068 25.3156C23.0068 25.8066 23.4048 26.2046 23.8958 26.2046C24.3868 26.2046 24.7848 25.8066 24.7848 25.3156C24.7848 24.8246 24.3858 24.4266 23.8958 24.4266ZM23.7848 25.3146C23.7848 25.2526 23.8348 25.2036 23.8958 25.2036C23.9568 25.2036 24.0068 25.2536 24.0068 25.3146C24.0078 25.4386 23.7848 25.4386 23.7848 25.3146Z" fill="#5DCBEE" stroke="#5DCBEE" stroke-width="0.4"/>
<path d="M21.1639 25.6857C20.6739 25.6857 20.2759 26.0837 20.2759 26.5747C20.2759 27.0657 20.6739 27.4637 21.1639 27.4637C21.6539 27.4637 22.0529 27.0657 22.0529 26.5747C22.0529 26.0837 21.6539 25.6857 21.1639 25.6857ZM21.0519 26.5737C21.0519 26.5117 21.1019 26.4627 21.1629 26.4627C21.2239 26.4627 21.2749 26.5127 21.2749 26.5737C21.2759 26.6967 21.0519 26.6967 21.0519 26.5737Z" fill="#5DCBEE" stroke="#5DCBEE" stroke-width="0.4"/>
<path d="M22.8202 30.1857C22.3302 30.1857 21.9312 30.5837 21.9312 31.0747C21.9312 31.5657 22.3302 31.9627 22.8202 31.9627C23.3102 31.9627 23.7092 31.5647 23.7092 31.0737C23.7092 30.5827 23.3102 30.1857 22.8202 30.1857ZM22.7092 31.0737C22.7092 31.0117 22.7592 30.9627 22.8202 30.9627C22.8812 30.9627 22.9312 31.0127 22.9312 31.0737C22.9312 31.1967 22.7092 31.1967 22.7092 31.0737Z" fill="#5DCBEE" stroke="#5DCBEE" stroke-width="0.4"/>
<path d="M23.874 16.4467C24.141 12.5997 26.78 10.2667 26.808 10.2417C26.921 10.1437 26.986 9.99968 26.981 9.84968C26.977 9.69968 26.907 9.55968 26.789 9.46668L25.033 8.10468C24.836 7.95168 24.558 7.96868 24.379 8.14068C21.763 10.6737 21.49 15.0617 21.472 16.4857C16.141 17.1537 12 21.7047 12 27.2137C12 33.1817 16.854 38.0357 22.821 38.0357C28.788 38.0357 33.642 33.1817 33.642 27.2137C33.641 21.6037 29.348 16.9787 23.874 16.4467ZM24.774 9.17168L25.721 9.90568C24.877 10.7977 23.109 13.0707 22.886 16.3967C22.863 16.3967 22.842 16.3937 22.819 16.3937C22.702 16.3937 22.589 16.4077 22.473 16.4117C22.507 15.0797 22.785 11.4077 24.774 9.17168ZM22.82 37.0367C17.404 37.0367 12.999 32.6307 12.999 27.2147C12.999 21.7997 17.405 17.3937 22.82 17.3937C28.235 17.3937 32.641 21.7997 32.641 27.2147C32.641 32.6307 28.235 37.0367 22.82 37.0367Z" fill="#5DCBEE" stroke="#5DCBEE" stroke-width="0.4"/>
<path d="M22.8198 18.6517C18.0988 18.6517 14.2578 22.4927 14.2578 27.2137C14.2578 31.9347 18.0988 35.7757 22.8198 35.7757C27.5418 35.7757 31.3818 31.9347 31.3818 27.2137C31.3818 22.4927 27.5418 18.6517 22.8198 18.6517ZM22.8198 34.7767C18.6498 34.7767 15.2578 31.3837 15.2578 27.2147C15.2578 23.0457 18.6498 19.6517 22.8198 19.6517C26.9898 19.6517 30.3818 23.0447 30.3818 27.2137C30.3818 31.3827 26.9898 34.7767 22.8198 34.7767Z" fill="#5DCBEE" stroke="#5DCBEE" stroke-width="0.4"/>
</svg>
