<svg width="46" height="46" viewBox="0 0 46 46" fill="none" xmlns="http://www.w3.org/2000/svg">
<rect width="46" height="46" rx="10" fill="white"/>
<rect x="3" y="3" width="40" height="40" fill="white"/>
<path d="M33.629 23.4332C33.7633 23.407 33.879 23.3223 33.9444 23.2019C34.0095 23.0815 34.0174 22.9384 33.9659 22.8116C32.6475 19.5694 30.0544 17.5552 27.198 17.5552C26.2901 17.5552 25.4021 17.7581 24.5606 18.1575C24.4175 18.2251 24.268 18.2757 24.1147 18.3108C24.1033 17.4572 24.0578 16.5373 23.9378 15.5978L23.9504 15.5982C24.8226 15.5982 27.0059 15.4471 28.4162 14.0396C30.1741 12.2848 29.9763 9.33176 29.9668 9.20693C29.9501 8.98099 29.7703 8.8015 29.5443 8.78475C29.4189 8.77401 26.462 8.57777 24.7041 10.3322C23.9529 11.0821 23.5604 12.05 23.356 12.9235C23.0751 12.0567 22.6949 11.2098 22.177 10.4198C22.0379 10.2087 21.7545 10.1493 21.5431 10.288C21.332 10.4267 21.2729 10.7105 21.4113 10.9219C22.8918 13.1788 23.1689 16.0042 23.1996 18.3285C23.0141 18.294 22.8324 18.239 22.6605 18.1578C21.818 17.7584 20.9303 17.5555 20.0224 17.5555C15.8132 17.5555 12.3887 21.9635 12.3887 27.3817C12.3887 32.7997 15.8132 37.2076 20.0224 37.2076C20.9306 37.2076 21.8183 37.0048 22.6601 36.6056C23.2555 36.3238 23.9656 36.3238 24.5609 36.6056C25.4028 37.0048 26.2898 37.2076 27.1983 37.2076C30.0547 37.2076 32.6478 35.1937 33.9662 31.9515C34.0177 31.8248 34.0098 31.6816 33.9447 31.5612C33.8793 31.4408 33.7637 31.3561 33.6294 31.3299C31.7314 30.9618 30.3546 29.3011 30.3546 27.3817C30.3546 25.4623 31.7311 23.8014 33.629 23.4332ZM25.3506 10.98C26.4595 9.87276 28.2535 9.70686 29.0605 9.69137C29.0466 10.4959 28.882 12.281 27.769 13.3915C26.6602 14.4988 24.8659 14.6647 24.0588 14.6802C24.0733 13.8753 24.238 12.0905 25.3506 10.98ZM29.4385 27.3814C29.4385 29.5492 30.8668 31.4471 32.9067 32.0893C31.684 34.6951 29.5333 36.2918 27.198 36.2918C26.426 36.2918 25.6707 36.1193 24.9525 35.7783C24.5325 35.5793 24.0711 35.4794 23.6101 35.4794C23.149 35.4794 22.688 35.5793 22.2677 35.7783C21.5494 36.1193 20.7935 36.2918 20.0221 36.2918C16.3176 36.2918 13.3038 32.2947 13.3038 27.3814C13.3038 22.4678 16.3176 18.4707 20.0221 18.4707C20.7935 18.4707 21.5487 18.6435 22.268 18.9845C22.6933 19.1861 23.1601 19.285 23.6265 19.2822L23.6606 19.2856C23.6935 19.2856 23.7254 19.2818 23.7564 19.2752C24.1681 19.2563 24.5767 19.1624 24.9525 18.9845C25.6711 18.6435 26.4266 18.4707 27.198 18.4707C29.5333 18.4707 31.6837 20.0674 32.9067 22.6732C30.8671 23.3157 29.4385 25.2136 29.4385 27.3814Z" fill="#5DCBEE" stroke="#5DCBEE" stroke-width="0.7"/>
<path d="M18.8073 23.1333C18.6004 22.9896 18.315 23.0398 18.1703 23.2474C17.3518 24.423 16.9009 25.9395 16.9009 27.5179C16.9009 27.7704 17.106 27.9758 17.3588 27.9758C17.6113 27.9758 17.8167 27.7707 17.8167 27.5179C17.8167 26.1247 18.2091 24.7939 18.9217 23.7707C19.0655 23.5631 19.0146 23.2781 18.8073 23.1333Z" fill="#5DCBEE" stroke="#5DCBEE" stroke-width="0.7"/>
</svg>
