<svg width="46" height="46" viewBox="0 0 46 46" fill="none" xmlns="http://www.w3.org/2000/svg">
<rect width="46" height="46" rx="10" fill="white"/>
<rect x="3" y="3" width="40" height="40" fill="white"/>
<path d="M35.5925 20.329C37.454 18.4968 37.1313 17.1026 36.5317 16.2555C35.4215 14.6847 33.5479 14.6944 32.4208 15.8271C32.362 15.8975 32.2888 15.9543 32.2062 15.9936C32.1235 16.033 32.0334 16.0539 31.942 16.0551C31.8505 16.0562 31.7599 16.0375 31.6763 16.0003C31.5927 15.963 31.5181 15.9081 31.4576 15.8392C31.0361 15.4399 31.183 15.1712 31.4792 14.8275C32.168 14.0385 32.3366 12.32 31.5298 11.197C30.4268 9.67457 27.944 9.39139 25.7645 11.6084C13.3863 23.8046 11.8836 25.2714 11.3104 25.8498C9.25137 27.9023 9.62465 32.1839 12.3893 34.9794C15.1539 37.7749 19.8548 37.5232 22.0438 35.1246C25.4996 31.361 35.5925 20.329 35.5925 20.329ZM35.7466 16.817C36.4691 17.836 35.7466 18.7533 34.8941 19.6634L23.1203 32.5227C23.1034 31.0076 21.8704 29.766 20.4857 29.5263L33.0903 16.5242C33.82 15.7908 35.0025 15.7593 35.7466 16.817ZM19.3972 32.288C18.4893 31.2303 19.4333 29.8676 20.9866 30.7147L19.3972 32.288ZM26.4436 12.2958C27.7537 10.9695 29.7357 10.3813 30.7423 11.7754C31.2553 12.487 31.1734 13.6948 30.7423 14.1958L18.1449 27.348C17.9884 25.3778 16.0714 24.2475 14.0943 24.463L26.4436 12.2958ZM16.7265 28.8269C16.2159 29.369 15.3514 29.4997 14.6337 28.8269C14.3927 28.6062 14.2183 28.3219 14.1304 28.0064L16.1389 25.828C17.3936 26.5759 17.4225 28.0499 16.7457 28.8051L16.7265 28.8269ZM13.0708 34.2969C10.4772 31.6926 10.4386 28.4469 11.8233 26.6824C12.2109 26.1866 12.7284 25.8093 13.3176 25.593C13.9068 25.3766 14.5445 25.3298 15.1587 25.4577L13.2731 27.4981C13.1908 27.5877 13.1452 27.7053 13.1455 27.8272C13.1653 28.1504 13.2484 28.4665 13.3902 28.7572C13.5319 29.048 13.7295 29.3077 13.9715 29.5215C14.407 29.9778 15.0049 30.2417 15.6339 30.2553C16.2628 30.2689 16.8715 30.0311 17.3261 29.5941C17.4225 29.5142 16.5097 30.4485 30.369 15.9796C30.5802 16.3966 30.9174 16.7355 31.3323 16.9477L18.7036 29.9765C17.6392 30.964 18.0317 32.6607 19.1708 33.365C19.2606 33.4196 19.3656 33.4432 19.4699 33.4322C19.5742 33.4213 19.6722 33.3765 19.7488 33.3045L21.7139 31.3682C22.4075 32.2589 22.2533 33.3844 21.3165 34.5147C19.6597 36.4703 15.4742 36.7124 13.0708 34.2969Z" fill="#5DCBEE" stroke="#5DCBEE" stroke-width="0.6"/>
</svg>
