<svg width="46" height="46" viewBox="0 0 46 46" fill="none" xmlns="http://www.w3.org/2000/svg">
<rect width="46" height="46" rx="10" fill="white"/>
<rect x="3" y="3" width="40" height="40" fill="white"/>
<path d="M17.8588 24.1544C18.0008 24.1544 18.1436 24.1081 18.2628 24.0129C18.5399 23.7907 18.585 23.3862 18.3628 23.1087C18.1414 22.8311 17.7374 22.7861 17.4586 23.0083L17.4543 23.0117C17.1772 23.2339 17.1343 23.6371 17.356 23.9142C17.483 24.0725 17.67 24.1544 17.8588 24.1544Z" fill="#5DCBEE" stroke="#5DCBEE" stroke-width="0.5"/>
<path d="M14.5917 21.9518C14.7337 21.9518 14.8765 21.9055 14.9957 21.8102C15.2728 21.588 15.3179 21.1835 15.0957 20.906C14.8744 20.6289 14.4703 20.5834 14.1915 20.8056L14.1872 20.8091C13.9101 21.0313 13.8672 21.4345 14.089 21.7116C14.2159 21.8699 14.4025 21.9518 14.5917 21.9518Z" fill="#5DCBEE" stroke="#5DCBEE" stroke-width="0.5"/>
<path d="M17.8588 28.3864C18.0008 28.3864 18.1436 28.3401 18.2628 28.2449C18.5399 28.0227 18.585 27.6182 18.3628 27.3406C18.1414 27.0635 17.7374 27.0181 17.4586 27.2403L17.4543 27.2437C17.1772 27.4659 17.1343 27.8691 17.356 28.1462C17.483 28.3041 17.67 28.3864 17.8588 28.3864Z" fill="#5DCBEE" stroke="#5DCBEE" stroke-width="0.5"/>
<path d="M15.0838 25.123C14.8539 24.8528 14.4485 24.8193 14.177 25.0497L14.1727 25.0531C13.902 25.2834 13.8711 25.6875 14.1015 25.9582C14.2285 26.1074 14.409 26.1838 14.5913 26.1838C14.7402 26.1838 14.889 26.1332 15.0109 26.0298C15.2811 25.7999 15.3141 25.3937 15.0838 25.123Z" fill="#5DCBEE" stroke="#5DCBEE" stroke-width="0.5"/>
<path d="M23.4881 36.0118C27.0973 36.0118 30.4907 34.6061 33.0424 32.0539C35.5947 29.5021 36.9999 26.1092 36.9999 22.5C36.9999 18.8909 35.5947 15.4983 33.0424 12.947C30.4902 10.3939 27.0973 8.98822 23.4881 8.98822C19.8794 8.98822 16.4869 10.3934 13.9346 12.9457C8.66632 18.214 8.66632 26.786 13.9346 32.0548C16.486 34.6066 19.879 36.0118 23.4881 36.0118ZM14.8444 13.8559C17.1534 11.5469 20.2234 10.2751 23.4881 10.2751C26.7532 10.2751 29.8236 11.5469 32.1327 13.8563C34.4412 16.1649 35.7131 19.2344 35.7131 22.5C35.7131 25.7656 34.4417 28.8355 32.1327 31.1446C29.8236 33.4536 26.7532 34.725 23.4881 34.725C20.2225 34.725 17.1526 33.4536 14.8444 31.145C10.0776 26.3781 10.0776 18.6223 14.8444 13.8559Z" fill="#5DCBEE" stroke="#5DCBEE" stroke-width="0.5"/>
<path d="M26.6359 18.4427L25.253 19.8251C25.0016 20.0761 25.0016 20.4836 25.253 20.7349C25.3787 20.8606 25.5434 20.9232 25.7081 20.9232C25.8728 20.9232 26.0375 20.8606 26.1632 20.7349L27.5465 19.352L28.9299 20.7349C29.0556 20.8602 29.2203 20.9232 29.385 20.9232C29.5497 20.9232 29.7144 20.8606 29.8401 20.7349C30.0915 20.4836 30.0915 20.0761 29.8401 19.8247L28.4568 18.4418L29.8401 17.0589C30.0915 16.8079 30.0915 16.4004 29.8401 16.1491C29.5888 15.8977 29.1817 15.8977 28.9303 16.1491L27.547 17.532L26.1632 16.1486C25.9118 15.8977 25.5048 15.8977 25.2534 16.1486C25.002 16.3996 25.002 16.8075 25.2534 17.0589L26.6359 18.4427Z" fill="#5DCBEE" stroke="#5DCBEE" stroke-width="0.5"/>
</svg>
