<svg width="46" height="46" viewBox="0 0 46 46" fill="none" xmlns="http://www.w3.org/2000/svg">
<rect width="46" height="46" rx="10" fill="white"/>
<rect x="3" y="3" width="40" height="40" fill="white"/>
<path d="M16.5427 19.8649C15.6705 21.0501 15.2 22.4832 15.2 23.9547V33.0222L20 34.5856V25.033C20 23.569 19.5344 22.143 18.6704 20.9611L17.2081 18.9607L16.5427 19.8649ZM16.3252 16.4488C16.7656 15.8503 17.6606 15.8517 18.0991 16.4516L20.4465 19.6628C21.5859 21.2215 22.2 23.1022 22.2 25.033V36.1008C22.2 36.8484 21.4702 37.3783 20.7593 37.1467L13.7593 34.8667C13.3065 34.7192 13 34.2971 13 33.8208V23.9547C13 22.014 13.6205 20.1241 14.7708 18.561L16.3252 16.4488Z" fill="#5DCBEE"/>
<path d="M27.3845 12.0534C27.9026 11.8872 28.4643 12.1247 28.706 12.6122L31.2525 17.7475C31.8756 19.0041 32.1998 20.3877 32.1998 21.7902V32.6934C32.1998 33.1714 31.8912 33.5947 31.436 33.7408L23.936 36.1482V33.7408L29.9998 31.8912V21.7902C29.9998 20.7268 29.754 19.6777 29.2816 18.7249L27.1555 14.4374L27.3845 12.0534Z" fill="#5DCBEE"/>
<path d="M18.2 14.7383L26.5 11.9021V11.6127L18.2 14.2976V14.7383ZM16 16.2766V13.4973C16 13.0202 16.3075 12.5975 16.7615 12.4507L27.2614 9.0542C27.9719 8.82439 28.7 9.35411 28.7 10.1008V12.6887C28.7 13.1591 28.4008 13.5775 27.9557 13.7296L17.4557 17.3175C16.7419 17.5614 16 17.0309 16 16.2766Z" fill="#5DCBEE"/>
</svg>
