<svg width="46" height="46" viewBox="0 0 46 46" fill="none" xmlns="http://www.w3.org/2000/svg">
<rect width="46" height="46" rx="10" fill="white"/>
<rect x="3" y="3" width="40" height="40" fill="white"/>
<path d="M31.9795 9.47559C31.8389 9.33497 31.6484 9.25586 31.4492 9.25586C31.25 9.25586 31.0596 9.33496 30.9189 9.47559L27.6143 12.7803L12.7422 27.6523L9.4375 30.957C9.14453 31.25 9.14453 31.7246 9.4375 32.0176C12.4482 35.0283 16.4502 36.6865 20.708 36.6865C24.9658 36.6865 28.9688 35.0283 31.9795 32.0176C38.1943 25.8037 38.1943 15.6914 31.9795 9.47559ZM28.124 14.3916C29.5151 16.0123 30.2801 17.9855 30.4338 19.9971H22.5186L28.124 14.3916ZM21.458 22.5576L27.0583 28.157C25.4374 29.5472 23.4687 30.3162 21.458 30.4699V22.5576ZM28.1189 27.0965L22.5187 21.4971H30.431C30.2773 23.5077 29.5088 25.4762 28.1189 27.0965ZM19.958 22.5576V30.4726C17.947 30.3189 15.9743 29.5537 14.3535 28.1621L19.958 22.5576ZM30.9189 30.957C28.1914 33.6846 24.5654 35.1865 20.708 35.1865C17.1025 35.1865 13.6982 33.874 11.042 31.4736L13.2993 29.2163C15.4105 31.0648 18.0457 32.0025 20.689 32.0069C20.6957 32.0071 20.7013 32.0108 20.708 32.0108C20.7147 32.0108 20.7203 32.0071 20.727 32.0069C23.6064 32.002 26.4833 30.9044 28.6748 28.7129C30.8685 26.5192 31.9662 23.6384 31.9687 20.7567C31.9688 20.7533 31.9707 20.7505 31.9707 20.7471C31.9707 20.7438 31.9688 20.741 31.9688 20.7377C31.9667 18.0908 31.029 15.4513 29.1782 13.3374L31.4355 11.0801C36.542 16.7422 36.3701 25.5059 30.9189 30.957Z" fill="#5DCBEE"/>
</svg>
