<svg width="1681" height="2247" viewBox="0 0 1681 2247" fill="none" xmlns="http://www.w3.org/2000/svg">
<mask id="mask0" mask-type="alpha" maskUnits="userSpaceOnUse" x="0" y="0" width="1681" height="2247">
<path d="M1680.71 2246.5H0.714844V56.5547C0.714844 56.5547 194.715 0 420.715 0C750.76 0 930.67 104.15 1260.71 104.15C1492.21 104.15 1680.71 56.5547 1680.71 56.5547V2246.5Z" fill="url(#paint0_linear)"/>
</mask>
<g mask="url(#mask0)">
<path d="M1681 2246.5H1V56.5547C1 56.5547 195 0 421 0C751.045 0 930.955 104.15 1261 104.15C1492.5 104.15 1681 56.5547 1681 56.5547V2246.5Z" fill="url(#paint1_linear)"/>
<path d="M1263.19 557C1232.44 352.37 1692.19 246 1692.19 246V1107C1692.19 1107 1501.69 1093.92 1454.69 1004.5C1416.77 932.341 1484.72 875.02 1464.69 796C1434.7 677.66 1281.33 677.725 1263.19 557Z" fill="#B6EDFF"/>
<path opacity="0.8" d="M1019.67 1981.49C1232.61 2201.4 937.289 2687.25 937.289 2687.25L-69 2065.76C-69 2065.76 409.453 1529.86 636.951 1650.76C743.887 1707.59 680.106 1883.74 784.833 1932.93C858.135 1967.35 962.446 1922.39 1019.67 1981.49Z" fill="#BDF0FF"/>
</g>
<defs>
<linearGradient id="paint0_linear" x1="1680.71" y1="1622.5" x2="0.714837" y2="69" gradientUnits="userSpaceOnUse">
<stop stop-color="#E4F9FF"/>
<stop offset="1" stop-color="#A0E8FF"/>
</linearGradient>
<linearGradient id="paint1_linear" x1="1681" y1="1622.5" x2="0.999994" y2="69" gradientUnits="userSpaceOnUse">
<stop stop-color="#E4F9FF"/>
<stop offset="1" stop-color="#A0E8FF"/>
</linearGradient>
</defs>
</svg>
