<svg width="1680" height="2095" viewBox="0 0 1680 2095" fill="none" xmlns="http://www.w3.org/2000/svg">
<path d="M2229 456.116C2229 1033.81 1646.29 1721.12 898.5 1721.12C150.706 1721.12 -480 1012.81 -480 435.116C-480 -142.574 92.2064 2.1164 840 2.1164C1587.79 2.1164 2229 -121.574 2229 456.116Z" fill="url(#paint0_linear)"/>
<mask id="mask0" mask-type="alpha" maskUnits="userSpaceOnUse" x="-516" y="-9" width="2733" height="2104">
<path d="M2217 459.117C2217 1036.81 1587.79 2094.12 840 2094.12C92.2064 2094.12 -516 1105.31 -516 527.616C-516 -50.0736 92.2064 2.11649 840 2.11649C1587.79 2.11649 2217 -118.573 2217 459.117Z" fill="url(#paint1_linear)"/>
</mask>
<g mask="url(#mask0)">
<path d="M234.896 586.265C45.9347 775.315 -262.473 576.851 -262.473 576.851L329.167 -282.884C329.167 -282.884 647.596 58.8951 527.982 251.681C471.757 342.301 353.773 305.176 303.375 393.403C268.1 455.156 285.678 535.46 234.896 586.265Z" fill="#65CDF1"/>
<g style="mix-blend-mode:multiply" opacity="0.15" filter="url(#filter0_f)">
<path d="M-241.199 292.807C-247.252 38.588 -536.61 -72.6609 -358.429 -76.9032C-180.248 -81.1455 516.508 -165.237 522.561 88.9819C528.614 343.201 430.582 490.171 252.4 494.413C74.219 498.655 -235.146 547.026 -241.199 292.807Z" fill="#229ADA"/>
</g>
<g opacity="0.2" filter="url(#filter1_f)">
<path d="M899.904 958.399C895.088 756.089 664.813 667.556 806.611 664.18C948.41 660.803 1502.9 593.882 1507.71 796.193C1512.53 998.503 1434.51 1115.46 1292.72 1118.84C1150.92 1122.22 904.721 1160.71 899.904 958.399Z" fill="white"/>
</g>
</g>
<defs>
<filter id="filter0_f" x="-601" y="-289.884" width="1317.11" height="986.334" filterUnits="userSpaceOnUse" color-interpolation-filters="sRGB">
<feFlood flood-opacity="0" result="BackgroundImageFix"/>
<feBlend mode="normal" in="SourceGraphic" in2="BackgroundImageFix" result="shape"/>
<feGaussianBlur stdDeviation="92" result="effect1_foregroundBlur"/>
</filter>
<filter id="filter1_f" x="576" y="457.117" width="1123.32" height="860.077" filterUnits="userSpaceOnUse" color-interpolation-filters="sRGB">
<feFlood flood-opacity="0" result="BackgroundImageFix"/>
<feBlend mode="normal" in="SourceGraphic" in2="BackgroundImageFix" result="shape"/>
<feGaussianBlur stdDeviation="92" result="effect1_foregroundBlur"/>
</filter>
<linearGradient id="paint0_linear" x1="-514" y1="2.11614" x2="2379.7" y2="1310.37" gradientUnits="userSpaceOnUse">
<stop stop-color="#5ACAEF"/>
<stop offset="1" stop-color="#A5E9FF"/>
</linearGradient>
<linearGradient id="paint1_linear" x1="-514" y1="2.11592" x2="2548.51" y2="1139.83" gradientUnits="userSpaceOnUse">
<stop stop-color="#AFD8F0"/>
<stop offset="1" stop-color="#D0EFFF"/>
</linearGradient>
</defs>
</svg>
