<svg width="1680" height="179" viewBox="0 0 1680 179" fill="none" xmlns="http://www.w3.org/2000/svg">
<path class="cloud-1" d="M1184 61H1027C1027 61 1037.68 39.269 1065.1 43.4944C1065.1 43.4944 1091.55 20.3549 1118.14 39.7384C1118.14 39.7384 1152.86 33.2325 1152.86 53.488C1152.93 53.5551 1184 45.3054 1184 61Z" fill="white"/>
<path d="M774 144C813.765 144 846 111.765 846 72C846 32.2355 813.765 0 774 0C734.235 0 702 32.2355 702 72C702 111.765 734.235 144 774 144Z" fill="#F3F0DA"/>
<path class="cloud-2" d="M625 101H779C779 101 778.04 73.2151 744.443 85.1426C744.443 85.1426 719.759 62.3217 696.035 85.1426C696.035 85.1426 671.351 73.2151 656.541 92.1061C656.609 92.1061 628.977 87.142 625 101Z" fill="white"/>
<path d="M442.011 88H499C499 88 492.53 73.24 476.7 78.4617C476.7 78.4617 466.307 65.1638 457.635 76.7212C457.635 76.7212 441.529 75.9553 442.011 88Z" fill="white"/>
<path d="M1529 107H1582C1582 107 1575.12 92.3003 1563.88 98.958C1563.88 98.958 1554.07 89.4659 1544.74 99.8809C1544.74 99.8809 1531.45 96.1236 1529 107Z" fill="white"/>
<path d="M345 178H398C398 178 391.12 163.3 379.879 169.958C379.879 169.958 370.069 160.466 360.737 170.881C360.737 170.881 347.452 167.124 345 178Z" fill="white"/>
</svg>
