<svg width="176" height="175" viewBox="0 0 176 175" fill="none" xmlns="http://www.w3.org/2000/svg">
<path d="M34.3311 121.49C14.2222 91.1011 21.6434 57.9177 52.0323 37.8088C82.6083 10.4513 121.013 23.1433 141.122 53.5322C161.231 83.9211 159.666 115.06 129.277 135.169C98.8883 155.278 54.4399 151.879 34.3311 121.49Z" fill="url(#paint0_linear)"/>
<path d="M104.4 62.7991C109.251 56.1799 110.416 48.8958 105.822 46.5408C100.649 43.8911 94.6507 48.1666 90.4789 57.427C78.2095 55.1979 63.3696 58.7142 59.377 71.3154C55.0851 84.8613 69.8291 91.6204 75.2002 82.2615C65.1956 78.2912 71.9849 58.8943 89.3391 60.2095C88.168 63.3494 87.1957 66.9483 86.4994 70.944C84.1425 71.5009 81.6072 71.9229 78.8923 72.2385L77.4728 76.7189L77.4716 76.7226C80.5485 76.2989 83.3172 75.7487 85.8439 75.0435C83.9962 85.8942 79.294 101.278 71.626 107.422C68.9567 104.851 66.2463 102.165 62.5181 100.984C52.1192 97.6887 48.4056 108.633 59.9777 112.3C63.9332 113.553 67.8276 113.24 71.542 111.917C86.2489 127.369 112.503 123.657 120.086 99.726C124.265 86.5238 117.702 71.1227 104.4 62.7991ZM61.2438 109.714C55.5601 107.913 57.4562 102.136 62.8382 103.841C64.9575 104.512 67.2053 106.809 69.1208 109.029C66.7544 110.185 64.0968 110.618 61.2438 109.714ZM103.002 51.4811C105.386 52.7274 104.602 57.0664 101.742 61.2802C99.2685 59.9932 96.599 58.937 93.7477 58.1697C96.4879 53.2208 100.255 50.0496 103.002 51.4811ZM92.5202 60.6729C95.0608 61.2303 97.5604 62.2409 99.8676 63.6774C97.3995 66.4352 94.0701 68.8458 90.2185 69.8904C90.4187 66.7235 91.2823 63.5192 92.5202 60.6729ZM74.5801 110.594C85.5956 104.97 94.6452 91.3228 98.3581 85.2959C93.1675 82.7024 90.8245 78.313 90.2941 73.5325C95.0591 71.8037 99.1611 68.8045 102.275 65.3932C109.646 71.3508 114.095 82.1958 109.452 96.8478C104.312 113.071 86.501 121.244 74.5801 110.594Z" fill="white"/>
<defs>
<linearGradient id="paint0_linear" x1="39.3078" y1="45.7337" x2="139.183" y2="124.802" gradientUnits="userSpaceOnUse">
<stop stop-color="#87E2FF"/>
<stop offset="1" stop-color="#69C7F7"/>
</linearGradient>
</defs>
</svg>
