<svg width="1680" height="931" viewBox="0 0 1680 931" fill="none" xmlns="http://www.w3.org/2000/svg">
<rect width="1680" height="931" fill="url(#paint0_linear)"/>
<g opacity="0.5" filter="url(#filter0_f)">
<path d="M106.001 541.569C60.0866 404.638 -104.383 389.04 -15.3724 359.194C73.638 329.347 410.32 176.03 456.234 312.96C502.148 449.89 477.565 544.749 388.554 574.595C299.544 604.441 151.915 678.499 106.001 541.569Z" fill="white"/>
</g>
<g opacity="0.5" filter="url(#filter1_f)">
<path d="M705.305 96.5687C659.391 -40.3614 494.921 -55.9602 583.932 -85.8063C672.942 -115.653 1009.62 -268.97 1055.54 -132.04C1101.45 4.89054 1076.87 99.7487 987.859 129.595C898.848 159.441 751.219 233.499 705.305 96.5687Z" fill="white"/>
</g>
<defs>
<filter id="filter0_f" x="-230" y="23.9999" width="942.696" height="845.667" filterUnits="userSpaceOnUse" color-interpolation-filters="sRGB">
<feFlood flood-opacity="0" result="BackgroundImageFix"/>
<feBlend mode="normal" in="SourceGraphic" in2="BackgroundImageFix" result="shape"/>
<feGaussianBlur stdDeviation="92" result="effect1_foregroundBlur"/>
</filter>
<filter id="filter1_f" x="369.304" y="-421" width="942.696" height="845.667" filterUnits="userSpaceOnUse" color-interpolation-filters="sRGB">
<feFlood flood-opacity="0" result="BackgroundImageFix"/>
<feBlend mode="normal" in="SourceGraphic" in2="BackgroundImageFix" result="shape"/>
<feGaussianBlur stdDeviation="92" result="effect1_foregroundBlur"/>
</filter>
<linearGradient id="paint0_linear" x1="0" y1="0" x2="1704.9" y2="882.926" gradientUnits="userSpaceOnUse">
<stop stop-color="#5ACAEF"/>
<stop offset="1" stop-color="#A5E9FF"/>
</linearGradient>
</defs>
</svg>
