<svg width="335" height="52" viewBox="0 0 335 52" fill="none" xmlns="http://www.w3.org/2000/svg">
<path d="M210 13.7915H282.87C282.87 13.7915 282.416 0.644179 266.518 6.28807C266.518 6.28807 254.838 -4.51036 243.612 6.28807C243.612 6.28807 231.932 0.644179 224.924 9.58306C224.957 9.58306 211.882 7.23416 210 13.7915Z" fill="white"/>
<path d="M78.005 7.57092H104.971C104.971 7.57092 101.91 0.586764 94.4193 3.05757C94.4193 3.05757 89.5016 -3.23475 85.398 2.23397C85.398 2.23397 77.777 1.87159 78.005 7.57092Z" fill="white"/>
<path d="M309.24 51.5197H334.319C334.319 51.5197 331.063 44.5641 325.744 47.7144C325.744 47.7144 321.103 43.2229 316.686 48.1511C316.686 48.1511 310.401 46.3732 309.24 51.5197Z" fill="white"/>
<path d="M0 20.2265H25.0787C25.0787 20.2265 21.823 13.2709 16.5042 16.4212C16.5042 16.4212 11.8624 11.9297 7.44624 16.8579C7.44624 16.8579 1.16045 15.08 0 20.2265Z" fill="white"/>
</svg>
