<svg width="1680" height="2505" viewBox="0 0 1680 2505" fill="none" xmlns="http://www.w3.org/2000/svg">
<path d="M1680 2505H0V56.5547C0 56.5547 194 0 420 0C750.045 0 929.955 104.15 1260 104.15C1491.5 104.15 1680 56.5547 1680 56.5547V2505Z" fill="url(#paint0_linear)"/>
<path d="M1124 2132.5C1259.07 2177.76 1155.5 2501 1155.5 2501H-41.5V2011.5C-41.5 2011.5 349 1370 690.5 1747.5C802.076 1870.84 644.074 2103.83 804 2149.5C900.505 2177.06 1028.84 2100.61 1124 2132.5Z" fill="#9AE7FF"/>
<path d="M1313.48 436C1282.73 231.37 1742.48 125 1742.48 125V986C1742.48 986 1551.97 972.921 1504.98 883.5C1467.05 811.341 1535 754.02 1514.98 675C1484.99 556.66 1331.62 556.725 1313.48 436Z" fill="#9FE8FF"/>
<defs>
<linearGradient id="paint0_linear" x1="1697.5" y1="1440.5" x2="-0.00303477" y2="69.0004" gradientUnits="userSpaceOnUse">
<stop stop-color="#A0E8FF"/>
<stop offset="1" stop-color="#DFF7FF"/>
</linearGradient>
</defs>
</svg>
