<svg width="54" height="61" viewBox="0 0 54 61" fill="none" xmlns="http://www.w3.org/2000/svg">
<path d="M19.1584 50.6892C14.0792 50.6892 9.26733 48.8179 5.61386 45.4317C1.9604 42.0456 0 37.501 0 32.6001C0 29.6595 0.712872 26.808 2.13861 24.3129C1.42574 23.2436 0.980202 21.9961 0.980202 20.5704C0.980202 16.9169 3.92079 13.9763 7.57426 13.9763C9.35644 13.9763 10.9604 14.6892 12.2079 15.8476C13.9901 15.2238 15.8614 14.7783 17.8218 14.6892L16.3069 10.5902C16.1287 10.1446 16.1287 9.69906 16.396 9.25352C16.5743 8.89708 16.7525 8.62976 17.1089 8.45154L15.7723 4.97629C15.4158 4.0852 15.8614 3.0159 16.8416 2.65946L22.4554 0.520848C23.3465 0.164412 24.4158 0.609955 24.7723 1.59015L26.1089 5.0654C26.9109 4.88718 27.802 5.42184 28.0693 6.22382L35.7327 26.7189C36 27.5208 35.7327 28.4119 35.0198 28.8575L36.3564 32.3327C36.5347 32.7783 36.5347 33.2238 36.2673 33.6694C36 34.1149 35.7327 34.4713 35.2871 34.5605L29.6733 36.6991C29.4951 36.7882 29.2277 36.7882 29.0495 36.7882C28.3366 36.7882 27.6238 36.3426 27.3564 35.6298L26.0198 32.1545C25.9307 32.1545 25.8416 32.1545 25.7525 32.1545C25.0396 32.1545 24.3267 31.709 24.0594 30.9961L19.0693 18.1644C17.2871 18.1644 15.5941 18.4317 13.901 18.9664C13.9901 19.501 14.0792 20.0357 14.0792 20.5704C14.0792 24.2238 11.1386 27.1644 7.48515 27.1644C6.59406 27.1644 5.70297 26.9862 4.90099 26.6298C4.0099 28.501 3.47525 30.5505 3.47525 32.6001C3.47525 36.4317 5.07921 40.0852 8.0198 42.7585C10.9604 45.5208 14.8812 47.0357 19.0693 47.0357H27.3564H34.396H52.2178C53.198 47.0357 54 47.8377 54 48.8179C54 49.7981 53.198 50.6001 52.2178 50.6001H36.1782V57.3723H46.4257C47.4059 57.3723 48.2079 58.1743 48.2079 59.1545C48.2079 60.1347 47.4059 60.9367 46.4257 60.9367H34.4852H27.4455H15.4158C14.4356 60.9367 13.6337 60.1347 13.6337 59.1545C13.6337 58.1743 14.4356 57.3723 15.4158 57.3723H25.5743V50.6892H19.1584ZM21.9208 4.44164L19.604 5.33273L20.2277 7.11491L22.5446 6.22382L21.9208 4.44164ZM29.8515 32.6001L32.1683 31.709L31.5446 29.9268L29.2277 30.8179L29.8515 32.6001ZM26.5545 28.0555L31.6337 26.1842L25.2178 9.0753L20.2277 10.9466L26.5545 28.0555ZM10.604 20.5704C10.604 18.8773 9.26733 17.5406 7.57426 17.5406C5.88119 17.5406 4.54456 18.8773 4.54456 20.5704C4.54456 22.2634 5.88119 23.6001 7.57426 23.6001C9.26733 23.6001 10.604 22.2634 10.604 20.5704ZM29.1386 57.3723H32.6139V50.6892H29.1386V57.3723Z" fill="#083645"/>
</svg>
