<svg width="120" height="19" viewBox="0 0 120 19" fill="none" xmlns="http://www.w3.org/2000/svg">
<g clip-path="url(#clip0)">
<path d="M9.69819 0C14.8893 0 19.3913 3.90017 19.3913 9.4711C19.3913 15.042 14.8893 18.9474 9.69819 18.9474C4.50704 18.9474 0 15.0472 0 9.4711C0 3.895 4.52716 0 9.69819 0ZM9.74849 13.7644C10.2958 13.7746 10.8394 13.67 11.346 13.4568C11.8526 13.2436 12.3116 12.9263 12.6948 12.5244C13.0781 12.1226 13.3776 11.6445 13.5751 11.1195C13.7725 10.5945 13.8637 10.0336 13.8431 9.4711C13.8644 8.90818 13.7737 8.34672 13.5766 7.82111C13.3795 7.29549 13.0801 6.8168 12.6967 6.41436C12.3134 6.01193 11.8541 5.69421 11.3472 5.4807C10.8402 5.26718 10.2962 5.16235 9.74849 5.17264C9.20121 5.16171 8.65752 5.26571 8.15068 5.47828C7.64383 5.69085 7.18448 6.00751 6.80074 6.4089C6.41699 6.8103 6.11692 7.28798 5.91886 7.81272C5.72081 8.33747 5.62895 8.89824 5.64889 9.46075C5.63048 10.0236 5.72328 10.5844 5.92169 11.1093C6.1201 11.6342 6.41999 12.1123 6.80322 12.5146C7.18644 12.9169 7.64505 13.2351 8.15129 13.4499C8.65753 13.6647 9.20089 13.7717 9.74849 13.7644Z" fill="white"/>
<path d="M19.9494 15.554L24.6073 4.3294C24.7339 3.99597 24.9541 3.70877 25.2398 3.5043C25.5255 3.29983 25.8639 3.18733 26.2119 3.18108C26.5368 3.17376 26.8567 3.26376 27.1326 3.4401C27.4086 3.61643 27.6288 3.8715 27.7663 4.17422L29.8538 8.8865L31.9162 4.23112C32.0528 3.92024 32.2743 3.65691 32.5539 3.47323C32.8334 3.28954 33.1589 3.19343 33.4906 3.19659C33.8433 3.21053 34.1846 3.3287 34.4736 3.53694C34.7627 3.74519 34.9872 4.03469 35.1204 4.37078L38.5057 12.5642C38.6349 12.8787 38.7032 13.216 38.7069 13.5574C38.7003 14.1038 38.5093 14.6308 38.1667 15.0485C37.8242 15.4662 37.3512 15.7486 36.8286 15.8475C36.306 15.9465 35.7663 15.8558 35.3015 15.5909C34.8367 15.326 34.4758 14.9035 34.2804 14.3954L32.9826 11.1521L31.4282 14.7109C31.2917 15.0246 31.0712 15.292 30.7924 15.4816C30.5135 15.6712 30.188 15.7753 29.8538 15.7816C29.5182 15.7788 29.1905 15.6762 28.9102 15.4862C28.63 15.2962 28.4092 15.027 28.2743 14.7109L26.6948 11.2297L24.1445 17.3851C23.9753 17.8359 23.679 18.2244 23.2936 18.5009C22.9083 18.7773 22.4514 18.9292 21.9816 18.9369C21.6829 18.9404 21.3867 18.8824 21.1102 18.7663C20.8337 18.6503 20.5826 18.4785 20.3716 18.2611C20.1607 18.0437 19.9942 17.7851 19.8819 17.5005C19.7697 17.2159 19.7139 16.9111 19.718 16.6041C19.7289 16.242 19.8075 15.8855 19.9494 15.554Z" fill="white"/>
<path d="M46.2771 2.99487C50.1201 2.99487 52.9722 5.9019 52.9722 9.43481C52.9722 12.9677 50.1352 15.8696 46.2771 15.8696C42.4189 15.8696 39.5869 12.9677 39.5869 9.43481C39.5869 5.9019 42.4491 2.99487 46.2771 2.99487ZM46.2771 11.2711C46.6292 11.2711 46.9735 11.1637 47.2664 10.9625C47.5592 10.7613 47.7874 10.4753 47.9222 10.1407C48.057 9.80612 48.0922 9.43795 48.0235 9.08275C47.9548 8.72754 47.7852 8.40127 47.5362 8.14519C47.2872 7.8891 46.9699 7.7147 46.6245 7.64405C46.279 7.5734 45.921 7.60966 45.5956 7.74825C45.2702 7.88684 44.9921 8.12154 44.7965 8.42267C44.6008 8.72379 44.4964 9.07782 44.4964 9.43998C44.495 9.68059 44.5402 9.91907 44.6293 10.1416C44.7184 10.3641 44.8496 10.5661 45.0152 10.736C45.1809 10.9059 45.3778 11.0403 45.5944 11.1312C45.811 11.2222 46.0431 11.268 46.2771 11.2659V11.2711Z" fill="white"/>
<path d="M55.1515 12.2333C55.4259 11.3773 55.5949 10.4893 55.6545 9.59007L55.9362 5.85025C55.9481 5.17242 56.2183 4.52648 56.6887 4.05147C57.1591 3.57647 57.792 3.31038 58.4513 3.31049H65.3929C65.7258 3.30638 66.0561 3.37025 66.3647 3.49838C66.6733 3.62652 66.9542 3.81637 67.1909 4.05694C67.4277 4.29751 67.6156 4.58402 67.7439 4.89984C67.8722 5.21567 67.9382 5.55454 67.9382 5.89681V13.2523C67.9382 13.943 67.6714 14.6055 67.1964 15.0939C66.7214 15.5823 66.0772 15.8567 65.4055 15.8567C64.7338 15.8567 64.0896 15.5823 63.6146 15.0939C63.1397 14.6055 62.8728 13.943 62.8728 13.2523V7.3917H61.0418L60.8658 9.82801C60.781 11.3509 60.4407 12.8471 59.8597 14.2506C59.6591 14.8381 59.259 15.3315 58.733 15.64C58.207 15.9486 57.5904 16.0516 56.9965 15.9302C56.4025 15.8088 55.8711 15.4711 55.4998 14.9792C55.1286 14.4872 54.9424 13.8741 54.9754 13.2523C54.9812 12.9052 55.0406 12.5612 55.1515 12.2333Z" fill="white"/>
<path d="M76.605 2.99487C80.4481 2.99487 83.3002 5.9019 83.3002 9.43481C83.3002 12.9677 80.4481 15.8696 76.605 15.8696C72.762 15.8696 69.9199 12.9677 69.9199 9.43481C69.9199 5.9019 72.762 2.99487 76.605 2.99487ZM76.605 11.2711C76.9572 11.2711 77.3015 11.1637 77.5943 10.9625C77.8872 10.7613 78.1154 10.4753 78.2502 10.1407C78.3849 9.80612 78.4202 9.43795 78.3515 9.08275C78.2828 8.72754 78.1132 8.40127 77.8642 8.14519C77.6151 7.8891 77.2978 7.7147 76.9524 7.64405C76.607 7.5734 76.249 7.60966 75.9236 7.74825C75.5982 7.88684 75.3201 8.12154 75.1244 8.42267C74.9288 8.72379 74.8243 9.07782 74.8243 9.43998C74.823 9.68059 74.8682 9.91907 74.9573 10.1416C75.0463 10.3641 75.1775 10.5661 75.3432 10.736C75.5089 10.9059 75.7058 11.0403 75.9224 11.1312C76.139 11.2222 76.371 11.268 76.605 11.2659V11.2711Z" fill="white"/>
<path d="M85.2613 5.2708C85.2904 4.59744 85.5711 3.9616 86.0447 3.4957C86.5184 3.0298 87.1486 2.76978 87.8041 2.76978C88.4595 2.76978 89.0897 3.0298 89.5634 3.4957C90.0371 3.9616 90.3177 4.59744 90.3468 5.2708V7.28813L93.7321 3.78108C93.9425 3.55503 94.1956 3.37556 94.4759 3.2537C94.7561 3.13184 95.0576 3.07016 95.3619 3.07243C95.9756 3.07516 96.5634 3.32744 96.9969 3.77419C97.4304 4.22094 97.6745 4.8259 97.6758 5.45702C97.675 5.77379 97.6092 6.08682 97.4826 6.37562C97.3561 6.66443 97.1716 6.9225 96.9414 7.13295L94.6225 9.17097L100.055 14.6953C100.313 14.9292 100.523 15.2142 100.672 15.5333C100.82 15.8523 100.905 16.1989 100.92 16.5523C100.919 16.8634 100.858 17.1712 100.741 17.4581C100.624 17.7451 100.453 18.0055 100.238 18.2245C100.024 18.4435 99.7688 18.6169 99.4888 18.7347C99.2088 18.8525 98.9089 18.9124 98.6064 18.911C98.2546 18.9028 97.9088 18.8161 97.5927 18.6572C97.2766 18.4982 96.9978 18.2707 96.7754 17.9903L90.3468 10.8624V13.6091C90.3621 13.9623 90.3077 14.3149 90.1868 14.6459C90.0659 14.9768 89.881 15.2791 89.6434 15.5346C89.4058 15.79 89.1203 15.9934 88.8042 16.1323C88.488 16.2712 88.1478 16.3428 87.8041 16.3428C87.4603 16.3428 87.1201 16.2712 86.804 16.1323C86.4878 15.9934 86.2023 15.79 85.9647 15.5346C85.7271 15.2791 85.5423 14.9768 85.4214 14.6459C85.3005 14.3149 85.246 13.9623 85.2613 13.6091V5.2708Z" fill="white"/>
<path d="M110.302 0C115.493 0 120 3.90017 120 9.4711C120 15.042 115.473 18.9474 110.302 18.9474C105.131 18.9474 100.604 15.0472 100.604 9.4711C100.604 3.895 105.131 0 110.302 0ZM110.352 13.7644C110.899 13.7716 111.441 13.665 111.947 13.4508C112.452 13.2366 112.91 12.9193 113.294 12.5182C113.677 12.117 113.977 11.6402 114.176 11.1165C114.375 10.5928 114.469 10.0331 114.452 9.4711C114.471 8.9054 114.379 8.34151 114.182 7.81304C113.985 7.28458 113.686 6.80237 113.304 6.39517C112.921 5.98797 112.463 5.66412 111.956 5.44293C111.45 5.22174 110.905 5.10775 110.355 5.10775C109.804 5.10775 109.259 5.22174 108.753 5.44293C108.246 5.66412 107.788 5.98797 107.405 6.39517C107.023 6.80237 106.724 7.28458 106.527 7.81304C106.33 8.34151 106.238 8.9054 106.257 9.4711C106.237 10.0336 106.328 10.5945 106.525 11.1195C106.723 11.6445 107.022 12.1226 107.406 12.5244C107.789 12.9263 108.248 13.2436 108.755 13.4568C109.261 13.67 109.805 13.7746 110.352 13.7644Z" fill="white"/>
</g>
<defs>
<clipPath id="clip0">
<rect width="120" height="18.9474" fill="white"/>
</clipPath>
</defs>
</svg>
