<svg width="96" height="102" viewBox="0 0 96 102" fill="none" xmlns="http://www.w3.org/2000/svg">
<path d="M40.9846 33.9928C29.9086 38.0993 15.6418 35.9045 7.43204 49.5959C-6.98283 73.6356 17.7608 107.501 55.4638 95.987C98.7197 82.7776 101.794 16.2597 70.7887 16.9671C55.8613 17.3076 54.9993 28.7966 40.9846 33.9928Z" fill="#99E7FF"/>
<g clip-path="url(#clip0)">
<path d="M60.3703 34.0662C60.0977 33.6984 59.6668 33.4814 59.209 33.4814H58.498C59.5983 31.8286 60.2234 29.8167 60.2234 27.7781C60.1442 25.412 59.0231 23.1661 57.1482 21.6585C56.8201 21.3946 56.4749 21.1597 56.1173 20.9516C56.4702 20.0288 56.6506 19.0575 56.6506 18.0582C56.6506 16.9638 56.436 15.9015 56.0127 14.9005C54.9394 12.3631 52.6149 10.6311 49.9699 10.183C50.0143 9.82804 50.037 9.4696 50.037 9.10871C50.0372 4.37748 46.1879 0.52832 41.4566 0.52832C40.6584 0.52832 40.0113 1.17539 40.0113 1.97363C40.0113 2.96786 39.2024 3.77695 38.208 3.77695H34.8557C30.1379 3.77695 26.2366 7.56063 26.1591 12.2112C26.1448 13.0668 26.2541 13.9011 26.4832 14.7052C24.1444 16.0907 22.6504 18.6366 22.6504 21.4218C22.6504 23.0209 23.1299 24.5457 24.0182 25.8347C22.6999 27.0001 21.8488 28.6833 21.7754 30.5272C21.7746 30.5463 21.7742 30.5655 21.7742 30.5847C21.7742 31.6171 22.0069 32.6211 22.4317 33.5278C22.1136 33.6094 21.8286 33.7968 21.6288 34.0664C21.3562 34.4342 21.274 34.9096 21.4074 35.3476L24.2223 44.5976C24.4074 45.2063 24.9689 45.6222 25.605 45.6222H27.2491L31.4064 73.2978C31.5126 74.0053 32.1203 74.5285 32.8356 74.5285H49.1636C49.8789 74.5285 50.4866 74.0053 50.5929 73.2978L51.7977 65.2767C51.9162 64.4874 51.3725 63.7514 50.583 63.6327C49.7942 63.5143 49.0577 64.0579 48.939 64.8473L47.9191 71.6377H34.0799L30.1719 45.6221H51.8269L50.8714 51.983C50.7529 52.7723 51.2966 53.5084 52.086 53.6271C52.8749 53.7454 53.6114 53.2019 53.7301 52.4124L54.75 45.6221H56.3941C57.0302 45.6221 57.5917 45.2061 57.7768 44.5975L60.5917 35.3475C60.7249 34.9094 60.6429 34.4342 60.3703 34.0662ZM34.8559 6.66757H38.2081C40.2469 6.66757 41.9863 5.36101 42.6328 3.54122C45.2078 4.08451 47.1465 6.37461 47.1465 9.10885C47.1465 9.48463 47.1095 9.85593 47.0377 10.2197C47.0261 10.222 29.229 13.7797 29.229 13.7797C29.1024 13.2883 29.0408 12.7802 29.0495 12.2595C29.1008 9.17606 31.7055 6.66757 34.8559 6.66757ZM28.7119 16.8307L47.5697 13.0602C49.988 12.5767 52.4189 13.8243 53.3504 16.0266C53.6221 16.6693 53.76 17.3528 53.76 18.0582C53.76 18.7173 53.6383 19.3563 53.4011 19.9613C52.4771 19.8014 51.5266 19.8 50.5893 19.9733L27.1197 24.3131C26.9361 24.3471 26.7553 24.389 26.5777 24.4383C25.9062 23.5796 25.5408 22.529 25.5408 21.4218C25.5408 19.3836 26.8124 17.5508 28.7119 16.8307ZM55.3231 42.7314H26.6758L24.7406 36.3721H57.2584L55.3231 42.7314ZM54.6224 33.4814H25.8973C25.1353 32.7589 24.6728 31.6985 24.6648 30.6137C24.7453 28.9396 26.0218 27.4558 27.6454 27.1556L51.1149 22.8158C52.5929 22.5423 54.1316 22.9418 55.3368 23.9112C56.5487 24.8857 57.2756 26.3117 57.3331 27.8268C57.3257 30.0426 56.2984 32.1645 54.6224 33.4814Z" fill="#083645"/>
<path d="M51.335 60.0752C52.1332 60.0752 52.7803 59.4281 52.7803 58.6299C52.7803 57.8317 52.1332 57.1846 51.335 57.1846C50.5367 57.1846 49.8896 57.8317 49.8896 58.6299C49.8896 59.4281 50.5367 60.0752 51.335 60.0752Z" fill="#083645"/>
</g>
<defs>
<clipPath id="clip0">
<rect width="74" height="74" fill="white" transform="translate(4 0.52832)"/>
</clipPath>
</defs>
</svg>
