<svg width="114" height="115" viewBox="0 0 114 115" fill="none" xmlns="http://www.w3.org/2000/svg">
<path d="M38.4355 43.0266C45.9774 33.9347 48.6297 19.7458 64.2669 16.5318C91.7232 10.8886 115.487 45.4486 92.1401 77.2136C65.3549 113.657 1.57025 94.5363 12.5027 65.5132C17.766 51.5404 28.8925 54.5307 38.4355 43.0266Z" fill="#99E7FF"/>
<g clip-path="url(#clip0)">
<path d="M65.0726 42.9563C64.4837 42.3238 63.7545 41.7927 62.9391 41.3721C63.8616 35.2398 60.5994 29.2057 54.7718 26.1451C56.0094 24.226 56.3581 22.0655 55.7195 20.0049C54.9912 17.6547 53.1092 15.747 50.7565 14.8801C50.7809 12.4223 49.624 8.69743 44.2255 4.49174C40.3525 1.47367 38.19 0.628165 36.7606 1.57166C36.2396 1.91578 35.4421 2.78383 35.9575 4.73513C36.1931 5.6146 36.2023 6.49479 35.9828 7.1511C35.4083 8.87245 34.4234 10.1099 33.2053 11.1039C33.0148 10.4919 32.7411 9.9031 32.3851 9.35027C31.3523 7.74757 29.7567 6.64336 27.8923 6.24085C26.5734 5.95612 25.2329 6.04862 23.9936 6.4919C23.5454 5.18346 23.8172 4.27943 24.4686 3.18432C24.8768 2.49824 24.6516 1.6114 23.9655 1.20325C23.2796 0.794952 22.3927 1.02042 21.9846 1.70636C20.7085 3.85119 20.5431 5.79598 21.4896 8.02608C19.0366 10.3396 18.4982 14.1521 20.3906 17.0842C20.7802 17.6888 21.2576 18.2238 21.801 18.6801C20.4001 20.6587 19.6749 23.3878 20.2935 27.4489C19.9288 27.5661 19.5828 27.6839 19.2583 27.803C16.2203 28.9152 13.8545 30.7439 12.4164 33.0915C10.9559 35.4757 10.5463 38.29 11.2087 41.2956C10.3323 41.7276 9.55024 42.2861 8.92529 42.9574C7.34688 44.6531 6.95231 46.8551 7.84204 48.9981L15.6104 67.736C16.8117 70.6283 18.627 74.9993 23.3163 74.9993H28.8024C28.8225 74.9996 28.8426 74.9996 28.8629 74.9993H45.1331C45.1434 74.9995 45.1535 74.9996 45.1636 74.9996C45.1737 74.9996 45.184 74.9996 45.194 74.9993H50.6841C55.3734 74.9993 57.1888 70.6283 58.3903 67.7351L66.1586 48.9983C67.0478 46.8541 66.6518 44.6519 65.0726 42.9563ZM38.7244 8.06727C39.1906 6.67386 39.0367 5.26556 38.8436 4.37496C39.5022 4.68773 40.6291 5.35372 42.4488 6.77171C46.099 9.61548 47.971 12.4621 47.8621 15.0039C47.7604 17.3789 45.9052 19.0691 44.3667 20.0686C40.7705 22.4054 34.003 24.014 28.032 25.4331C26.3014 25.8445 24.6204 26.2441 23.0955 26.6447C22.6127 23.0907 23.3704 21.0072 24.872 19.495C25.1051 19.3087 25.3072 19.0822 25.5412 18.8936C25.7662 18.7121 25.9998 18.5412 26.2388 18.3788C26.7659 18.0205 27.3195 17.7027 27.8813 17.4025C29.1185 16.7415 30.397 16.162 31.6386 15.5097C33.5872 14.4861 35.4642 13.2589 36.8547 11.5244C37.6806 10.4947 38.3067 9.31847 38.7244 8.06727ZM27.2826 9.06641C28.3919 9.3059 29.3412 9.96279 29.9551 10.9155C30.3231 11.4871 30.5438 12.1226 30.611 12.7834C29.947 13.141 29.2575 13.4796 28.5597 13.8225C26.9434 14.6162 25.2536 15.4463 23.811 16.5914C23.4237 16.2957 23.0878 15.9336 22.8197 15.5177C21.5504 13.5509 22.1177 10.9178 24.0833 9.64872C25.0372 9.03375 26.1737 8.82707 27.2826 9.06641ZM20.2528 30.5173C22.2978 29.7673 25.4079 29.0282 28.7006 28.2456C34.8998 26.7721 41.926 25.102 45.9418 22.4925C47.9965 21.1572 49.4221 19.5529 50.1633 17.7664C51.4852 18.3853 52.5445 19.5252 52.9581 20.8605C53.4659 22.4986 52.9464 24.1633 51.4567 25.6736C51.4552 25.6752 51.4534 25.6768 51.4518 25.6786C51.4504 25.68 51.4491 25.6812 51.4476 25.6826C48.4238 28.7397 42.8579 31.2714 38.3846 33.3061C37.7164 33.6101 37.3771 34.3949 37.6155 35.0895C37.8888 35.8853 38.8137 36.2865 39.5814 35.9373C43.9572 33.947 49.3297 31.5025 52.79 28.3925C57.1534 30.4423 60.7386 34.9678 60.1498 40.4313C58.4977 40.1265 56.7454 40.2034 55.1748 40.7275C53.3891 41.3234 51.9749 42.3939 50.9932 43.8587C49.492 41.563 46.8988 40.043 43.9574 40.043C41.0663 40.043 38.5113 41.51 36.9984 43.7382C35.4862 41.51 32.9325 40.043 30.0427 40.043C27.1013 40.043 24.5079 41.5631 23.0067 43.8587C22.0248 42.3938 20.6101 41.3229 18.8236 40.7272C17.2927 40.2166 15.5894 40.131 13.9746 40.4091C12.6824 33.864 18.3784 31.2035 20.2528 30.5173ZM23.3164 72.109C20.9834 72.109 19.7901 70.2631 18.2803 66.6284L10.5121 47.8907C10.0558 46.7917 10.2339 45.7945 11.0414 44.9271C11.6107 44.3154 13.3218 43.0103 15.751 43.1339C16.4896 43.1715 17.2275 43.242 17.9096 43.4695C19.4182 43.9726 21.29 45.2672 21.6486 48.5773C21.6519 48.6133 27.0209 72.1091 27.0209 72.1091H23.3164V72.109ZM44.0108 72.109H38.4437V67.4679C38.4437 66.6696 37.7965 66.0226 36.9984 66.0226C36.2003 66.0226 35.5531 66.6696 35.5531 67.4679V72.109H29.9859L24.5351 48.2909C24.6169 45.3229 27.0563 42.9337 30.0429 42.9337C33.081 42.9337 35.5529 45.4061 35.5529 48.4449V54.5272C35.5529 55.3254 36.2001 55.9725 36.9982 55.9725C37.7963 55.9725 38.4435 55.3254 38.4435 54.5272V48.4448C38.4435 45.4059 40.917 42.9336 43.9575 42.9336C46.9441 42.9336 49.3835 45.3228 49.4653 48.2907L44.0108 72.109ZM63.4886 47.8912L55.7208 66.6276C54.2109 70.2631 53.0174 72.109 50.6844 72.109H46.9763C46.9763 72.109 52.3491 48.6139 52.3524 48.5769C52.7111 45.2674 54.5821 43.9727 56.0899 43.4695C57.5475 42.9834 59.2221 42.932 60.9089 43.6121C61.7169 43.9175 62.4318 44.362 62.9574 44.9264C63.7658 45.7943 63.9444 46.7918 63.4886 47.8912Z" fill="#083645"/>
<path d="M36.9985 59.5522C36.2004 59.5522 35.5532 60.1993 35.5532 60.9976V61.0057C35.5532 61.8039 36.2004 62.4469 36.9985 62.4469C37.7966 62.4469 38.4438 61.7958 38.4438 60.9976C38.4438 60.1993 37.7968 59.5522 36.9985 59.5522Z" fill="#083645"/>
</g>
<defs>
<clipPath id="clip0">
<rect width="74" height="74" fill="white" transform="translate(0 1)"/>
</clipPath>
</defs>
</svg>
