<svg width="109" height="114" viewBox="0 0 109 114" fill="none" xmlns="http://www.w3.org/2000/svg">
<path d="M33.4357 42.5549C40.9776 33.463 43.6299 19.2741 59.2672 16.0602C86.7235 10.417 110.487 44.9769 87.1403 76.7419C60.3552 113.185 -3.42951 94.0646 7.50299 65.0415C12.7663 51.0687 23.8928 54.059 33.4357 42.5549Z" fill="#99E7FF"/>
<path d="M80.5939 35.8001C79.168 35.3799 78.0869 34.3282 77.6275 32.9145C77.1682 31.5009 77.4248 30.0144 78.3314 28.8365C80.4197 26.1235 80.4686 22.5807 78.4563 19.8109C76.4439 17.0411 73.0593 15.9928 69.8339 17.1406C68.4335 17.639 66.9406 17.4236 65.7379 16.5498C64.5353 15.676 63.8692 14.3229 63.9102 12.837C64.005 9.41467 61.9622 6.5196 58.7061 5.46174C55.4503 4.40388 52.0959 5.54522 50.1609 8.36962C49.3207 9.59597 47.9863 10.2991 46.5 10.2991C45.0135 10.2991 43.6793 9.59582 42.8392 8.36947C40.9041 5.54506 37.5499 4.40388 34.2939 5.46159C31.0379 6.5196 28.995 9.41452 29.0898 12.837C29.131 14.3227 28.4649 15.676 27.2623 16.5497C26.0597 17.4235 24.5669 17.6387 23.1663 17.1405C19.9407 15.993 16.5562 17.0409 14.5439 19.8107C12.5315 22.5805 12.5806 26.1233 14.6687 28.8363C15.5754 30.0144 15.832 31.5007 15.3726 32.9144C14.9133 34.3281 13.8321 35.3797 12.4063 35.7999C9.12204 36.7675 7 39.6049 7 43.0284C7 46.4521 9.12189 49.2895 12.4061 50.257C13.832 50.6772 14.9131 51.7287 15.3725 53.1426C15.8318 54.5564 15.5754 56.0426 14.6687 57.2205C12.5805 59.9335 12.5314 63.4763 14.5437 66.2461C16.5562 69.0158 19.9406 70.0637 23.1663 68.9163C24.5669 68.4181 26.0597 68.6333 27.2621 69.5071C28.4647 70.3808 29.1308 71.7341 29.0898 73.22C28.995 76.6423 31.0379 79.5372 34.2939 80.5952C35.1005 80.8574 35.9131 80.9845 36.7086 80.9843C39.1246 80.9843 41.3835 79.812 42.8392 77.6873C43.6793 76.4611 45.0137 75.7579 46.5 75.7579C47.9865 75.7579 49.3209 76.4611 50.161 77.6873C52.096 80.5117 55.4501 81.6531 58.7063 80.5952C61.9622 79.5372 64.0051 76.6423 63.9104 73.22C63.8694 71.7341 64.5355 70.3808 65.738 69.507C66.9406 68.6335 68.4331 68.4178 69.834 68.9163C73.0599 70.0638 76.4441 69.0158 78.4564 66.2461C80.4688 63.4763 80.4199 59.9335 78.3314 57.2205C77.4248 56.0426 77.1684 54.5561 77.6277 53.1424C78.087 51.7287 79.1682 50.677 80.5941 50.2569C83.8781 49.2895 86 46.4522 86 43.0284C86 39.6049 83.878 36.7675 80.5939 35.8001ZM79.7184 47.2853C77.3327 47.9881 75.4496 49.8199 74.6811 52.1851C73.9125 54.5504 74.3594 57.1392 75.8764 59.1101C77.3689 61.0492 76.8929 63.1271 75.9499 64.4252C75.007 65.7233 73.1776 66.8179 70.8723 65.9976C68.529 65.164 65.9291 65.5388 63.917 67.0007C61.905 68.4625 60.7448 70.8196 60.8135 73.3058C60.8812 75.7517 59.2749 77.153 57.749 77.6489C56.2227 78.1448 54.0997 77.9552 52.7168 75.9365C51.3111 73.8848 48.9871 72.6599 46.5002 72.6599C44.0132 72.6599 41.6892 73.8848 40.2835 75.9365C38.9006 77.955 36.7776 78.1448 35.2513 77.6489C33.7255 77.1532 32.1189 75.7518 32.1867 73.3058C32.2555 70.8196 31.0953 68.4627 29.0833 67.0009C27.7776 66.0521 26.2243 65.5613 24.6543 65.5613C23.8049 65.5613 22.9506 65.7049 22.1279 65.9976C19.8225 66.8179 17.9933 65.7232 17.0503 64.4252C16.1072 63.1271 15.6312 61.0493 17.1239 59.1101C18.6408 57.1393 19.0876 54.5505 18.3191 52.1851C17.5505 49.8199 15.6675 47.9881 13.2817 47.2854C10.9344 46.5939 10.0981 44.6331 10.0981 43.0287C10.0981 41.4243 10.9344 39.4635 13.2816 38.772C15.6673 38.0691 17.5504 36.2375 18.3189 33.8723C19.0875 31.5071 18.6406 28.9181 17.1237 26.9473C15.6312 25.0082 16.1071 22.9303 17.0503 21.6322C17.9932 20.3341 19.8225 19.2397 22.1279 20.0598C24.4709 20.8934 27.0711 20.5185 29.0833 19.0565C31.0953 17.5946 32.2555 15.2377 32.1867 12.7517C32.1189 10.3056 33.7255 8.90426 35.2513 8.4085C36.777 7.9129 38.9004 8.10222 40.2835 10.1209C41.6892 12.1726 44.0132 13.3975 46.5002 13.3975C48.9873 13.3975 51.3111 12.1726 52.7168 10.1209C54.0996 8.10222 56.2229 7.91275 57.7489 8.4085C59.2749 8.90426 60.8812 10.3056 60.8135 12.7518C60.7447 15.2378 61.905 17.5949 63.9169 19.0567C65.9291 20.5185 68.529 20.8936 70.8723 20.0598C73.1778 19.2395 75.0068 20.3343 75.9499 21.6324C76.8929 22.9303 77.3689 25.0082 75.8764 26.9474C74.3595 28.9183 73.9127 31.5071 74.6812 33.8723C75.4498 36.2376 77.3328 38.0693 79.7186 38.7721C82.0657 39.4635 82.902 41.4243 82.902 43.0289C82.902 44.6334 82.0656 46.5937 79.7184 47.2853Z" fill="#083645"/>
<path d="M46.5004 18.5671C41.1145 18.5671 36.0056 20.2837 31.726 23.5313C27.586 26.673 24.5 31.1343 23.0364 36.0934C22.7942 36.914 23.2631 37.7754 24.0837 38.0175C24.2301 38.0607 24.3776 38.0812 24.5228 38.0812C25.1917 38.0812 25.8089 37.6446 26.0077 36.9703C27.2856 32.6406 29.9815 28.7442 33.5988 25.9992C37.3351 23.1638 41.7963 21.6651 46.5004 21.6651C47.3559 21.6651 48.0494 20.9715 48.0494 20.1161C48.0494 19.2605 47.3558 18.5671 46.5004 18.5671Z" fill="#083645"/>
<path d="M65.3381 56.1658C64.6712 55.6297 63.6961 55.7357 63.1604 56.4026C59.0791 61.4799 53.0065 64.3918 46.5002 64.3918C45.6446 64.3918 44.9512 65.0854 44.9512 65.9408C44.9512 66.7962 45.6447 67.4898 46.5002 67.4898C53.9499 67.4898 60.9024 64.156 65.575 58.3434C66.111 57.6768 66.005 56.7016 65.3381 56.1658Z" fill="#083645"/>
<path d="M67.4136 54.2328C68.2833 54.2328 68.9884 53.5277 68.9884 52.658C68.9884 51.7883 68.2833 51.0833 67.4136 51.0833C66.5439 51.0833 65.8389 51.7883 65.8389 52.658C65.8389 53.5277 66.5439 54.2328 67.4136 54.2328Z" fill="#083645"/>
<path d="M43.4777 55.1117L32.9823 44.6161C32.5303 44.1642 31.8036 44.503 31.2868 45.0198C30.7541 45.5526 30.4311 46.2631 30.8832 46.7152L37.3743 53.2063L28.2352 50.2998C26.7818 49.8477 26.3135 49.9931 25.5547 50.7519C25.0219 51.2847 24.715 52.0114 25.1671 52.4635L35.6467 62.9429C36.0825 63.3788 36.8253 63.0881 37.3581 62.5553C37.875 62.0386 38.1817 61.2798 37.7457 60.8437L31.2547 54.3526L41.2174 57.372C41.9926 57.5982 42.5899 57.3236 43.0901 56.8232C43.607 56.3066 43.9137 55.5478 43.4777 55.1117Z" fill="#083645"/>
<path d="M52.5043 45.6008C52.0038 45.1002 51.3258 44.9064 50.906 45.3263L46.3365 49.8958L43.0908 46.6503L45.5451 44.196C45.9973 43.744 45.7713 43.0981 45.3999 42.7267C44.9638 42.2908 44.3181 42.1292 43.8983 42.5491L41.444 45.0033L38.2143 41.7737L42.7838 37.2042C43.2036 36.7844 43.0098 36.1063 42.5093 35.6057C42.0734 35.1698 41.3953 34.9114 40.9432 35.3635L35.1947 41.1118C34.7265 41.5801 34.5005 42.2582 34.9364 42.6943L45.4159 53.1737C45.8518 53.6097 46.5301 53.3837 46.9982 52.9154L52.7466 47.167C53.1987 46.7149 52.9404 46.0368 52.5043 45.6008Z" fill="#083645"/>
<path d="M63.9365 34.7499L56.9771 21.3965C56.9449 21.3319 56.8802 21.2352 56.8156 21.1705C56.3473 20.7022 55.2331 21.0736 54.6357 21.671C54.3129 21.994 54.1353 22.3976 54.3613 22.7852L60.5618 34.0881L53.5701 29.8414C53.0697 29.5346 52.4238 29.8253 51.9717 30.2774C51.5035 30.7457 51.2129 31.3914 51.5195 31.8921L55.7661 38.8838L44.4632 32.6832C44.0756 32.4572 43.6721 32.6348 43.349 32.9577C42.7516 33.5551 42.3802 34.6693 42.8485 35.1376C42.9131 35.2023 43.01 35.2668 43.0745 35.299L56.4282 42.2584C57.0578 42.5974 57.8975 42.21 58.5112 41.5963C59.1086 40.9989 59.5122 40.1432 59.1408 39.5457L55.8307 34.1364L61.2237 37.4627C61.8213 37.8339 62.6772 37.4303 63.2745 36.8329C63.8881 36.2191 64.2593 35.3957 63.9365 34.7499Z" fill="#083645"/>
</svg>
