<svg width="109" height="115" viewBox="0 0 109 115" fill="none" xmlns="http://www.w3.org/2000/svg">
<path d="M33.4357 43.0832C40.9776 33.9914 43.6299 19.8025 59.2672 16.5885C86.7235 10.9453 110.487 45.5053 87.1403 77.2702C60.3552 113.714 -3.42951 94.5929 7.50299 65.5698C12.7663 51.5971 23.8928 54.5873 33.4357 43.0832Z" fill="#99E7FF"/>
<g clip-path="url(#clip0)">
<path d="M61.558 21.4049L52.4425 9.86335V4.73923C52.4425 2.41734 50.5673 0.52832 48.2625 0.52832H24.6307C22.3259 0.52832 20.4507 2.41734 20.4507 4.73923V9.86349L11.3351 21.4052C8.90591 24.4808 7.18652 27.071 7.18652 32.4152V66.8773C7.18652 69.9198 9.53667 72.395 12.4255 72.395H60.4676C63.3562 72.395 65.7065 69.9198 65.7065 66.8773V32.4152C65.7065 27.071 63.987 24.4808 61.558 21.4049ZM62.9198 33.8188V61.1655H36.5016V33.8188H62.9198ZM62.8695 31.0115H36.4585C36.1797 26.5918 34.5591 24.1984 32.3529 21.405L24.7333 11.7574H50.3771L59.3773 23.1529C61.3355 25.6322 62.6094 27.5016 62.8695 31.0115ZM23.2374 4.73923C23.2374 3.96527 23.8624 3.3356 24.6307 3.3356H48.2623C49.0306 3.3356 49.6557 3.96527 49.6557 4.73923V8.95015H23.2374V4.73923ZM13.5158 23.153L21.844 12.6083L30.1722 23.153C32.1304 25.6322 33.4043 27.5016 33.6644 31.0115H28.4171C27.6477 31.0115 27.0238 31.6401 27.0238 32.4152C27.0238 33.1903 27.6477 33.8188 28.4171 33.8188H33.7147V61.1655H9.9732V33.8188H15.8772C16.6466 33.8188 17.2705 33.1903 17.2705 32.4152C17.2705 31.6401 16.6466 31.0115 15.8772 31.0115H10.0235C10.2836 27.5016 11.5576 25.6322 13.5158 23.153ZM9.9732 66.8772V63.9727H33.7149V69.5876H12.4255C11.0732 69.5876 9.9732 68.3717 9.9732 66.8772ZM60.4676 69.5876H36.5016V63.9727H62.9198V66.8772C62.9198 68.3717 61.8197 69.5876 60.4676 69.5876Z" fill="#083645"/>
<path d="M52.8166 58.4869C57.0292 58.4869 60.4564 55.0596 60.4564 50.8469C60.4564 46.6343 57.0292 43.207 52.8166 43.207C48.604 43.207 45.1768 46.6343 45.1768 50.8469C45.1768 55.0596 48.6042 58.4869 52.8166 58.4869ZM52.8166 46.2148C55.3707 46.2148 57.4486 48.2926 57.4486 50.8469C57.4486 53.4011 55.3708 55.4791 52.8166 55.4791C50.2624 55.4791 48.1846 53.4011 48.1846 50.8469C48.1846 48.2926 50.2625 46.2148 52.8166 46.2148Z" fill="#083645"/>
<path d="M23.066 36.1968C23.8965 36.1968 24.5699 35.5233 24.5699 34.6929C24.5699 33.8624 23.8965 33.189 23.066 33.189H23.0648C22.2344 33.189 21.5615 33.8624 21.5615 34.6929C21.5615 35.5233 22.2354 36.1968 23.066 36.1968Z" fill="#083645"/>
</g>
<defs>
<clipPath id="clip0">
<rect width="77" height="77" fill="white" transform="translate(0 0.52832)"/>
</clipPath>
</defs>
</svg>
