<svg width="94" height="99" viewBox="0 0 94 99" fill="none" xmlns="http://www.w3.org/2000/svg">
<path d="M47.6276 17.464C68.1284 21.4005 84.2075 20.8104 86.7595 41.529C88.6067 56.5257 81.6699 73.7545 69.2195 82.316C44.035 99.634 25.3539 97.3288 11.2762 76.1995C-5.93496 50.3671 17.1437 11.6107 47.6276 17.464Z" fill="#99E7FF"/>
<g clip-path="url(#clip0)">
<path d="M73.4478 65.8063L62.5791 46.9813C62.9695 46.5264 63.5 46.19 64.1192 46.044C65.8312 45.6406 67.2509 44.5003 68.014 42.9156C68.7773 41.3308 68.7835 39.5099 68.0315 37.92C67.4559 36.7031 67.7848 35.2617 68.8315 34.4151C70.199 33.3087 70.9833 31.6655 70.9833 29.9066C70.9833 28.1477 70.199 26.5043 68.8315 25.3981C67.7848 24.5514 67.4559 23.1101 68.0315 21.8931C68.7836 20.3031 68.7773 18.4822 68.014 16.8974C67.2509 15.3127 65.8312 14.1724 64.119 13.769C62.8088 13.4603 61.887 12.3045 61.8776 10.9583C61.8654 9.19936 61.0695 7.56158 59.6943 6.46492C58.3192 5.36825 56.5451 4.95678 54.8278 5.33631C53.5131 5.62652 52.1813 4.98525 51.5887 3.77643C50.8145 2.19704 49.387 1.0667 47.672 0.67532C45.9569 0.283797 44.1804 0.68298 42.7976 1.76997C41.7394 2.60201 40.261 2.60201 39.2026 1.76997C37.8198 0.68298 36.0433 0.284086 34.3283 0.67532C32.6134 1.0667 31.1859 2.19704 30.4116 3.77643C29.8191 4.98525 28.4867 5.62695 27.1727 5.33631C25.4551 4.95707 23.6812 5.36825 22.3061 6.46492C20.931 7.56158 20.1352 9.19936 20.1229 10.9583C20.1135 12.3044 19.1917 13.4603 17.8813 13.769C16.1693 14.1724 14.7496 15.3127 13.9865 16.8974C13.2232 18.4822 13.217 20.3031 13.969 21.893C14.5446 23.1099 14.2157 24.5513 13.169 25.3979C11.8015 26.5043 11.0172 28.1475 11.0172 29.9064C11.0172 31.6653 11.8015 33.3087 13.169 34.4149C14.2157 35.2616 14.5446 36.7029 13.969 37.9199C13.2169 39.5099 13.2232 41.3308 13.9865 42.9156C14.7496 44.5003 16.1693 45.6406 17.8815 46.044C18.5006 46.1898 19.0312 46.5264 19.4215 46.9813L8.55298 65.8063C8.26032 66.3133 8.30237 66.9468 8.65935 67.4105C9.01648 67.8743 9.618 68.0768 10.183 67.9238L17.7528 65.87L19.7593 73.4526C19.909 74.0186 20.3854 74.4382 20.9657 74.5155C21.0297 74.524 21.0936 74.5282 21.157 74.5282C21.6682 74.5282 22.1477 74.2565 22.4082 73.8056L31.6822 57.7427C32.4167 58.4226 33.3224 58.9082 34.3286 59.1378C36.0433 59.5289 37.8201 59.1302 39.2031 58.0432C40.2613 57.2111 41.7396 57.2111 42.798 58.0432C43.8328 58.8566 45.0879 59.2848 46.3729 59.2848C46.805 59.2848 47.2408 59.2364 47.6723 59.1378C48.6785 58.9082 49.5844 58.4226 50.3188 57.7427L59.5927 73.8056C59.8532 74.2566 60.3327 74.5282 60.8439 74.5282C60.9072 74.5282 60.9712 74.524 61.0353 74.5155C61.6155 74.4382 62.0919 74.0184 62.2416 73.4526L64.2481 65.87L71.818 67.9238C72.3829 68.0772 72.9846 67.8743 73.3416 67.4105C73.6986 66.9468 73.7406 66.3133 73.4478 65.8063ZM21.6572 69.3252L20.1752 63.7248C20.0767 63.3528 19.834 63.0353 19.5007 62.8429C19.1673 62.6504 18.7712 62.599 18.3997 62.6997L12.8086 64.2165L20.5052 50.8856C20.8694 51.8401 21.4831 52.6915 22.3064 53.3482C23.6816 54.4449 25.4557 54.8564 27.1729 54.4768C28.1429 54.2627 29.1214 54.5569 29.8064 55.2109L21.6572 69.3252ZM47.029 56.3198C46.1685 56.516 45.2778 56.3159 44.5844 55.7709C43.5292 54.9414 42.265 54.5267 41.0004 54.5267C39.7361 54.5267 38.4713 54.9415 37.4164 55.7709C36.723 56.3161 35.8323 56.5163 34.9717 56.3198C34.1117 56.1236 33.3957 55.5566 33.0073 54.7645C31.826 52.3543 29.17 51.0754 26.5493 51.6544C25.6878 51.8447 24.7982 51.6383 24.1085 51.0883C23.4189 50.5382 23.0197 49.7169 23.0135 48.8347C22.9948 46.1507 21.157 43.8462 18.5444 43.2306C17.6856 43.0283 16.9737 42.4564 16.5908 41.6615C16.2081 40.8666 16.205 39.9535 16.5822 39.1559C17.7297 36.7295 17.0738 33.8559 14.987 32.1678C14.3011 31.613 13.9078 30.7888 13.9078 29.9066C13.9078 29.0244 14.3012 28.2001 14.9872 27.6453C17.0738 25.9572 17.7299 23.0836 16.5822 20.6572C16.205 19.8597 16.2081 18.9464 16.591 18.1516C16.9737 17.3567 17.6858 16.7848 18.5444 16.5825C21.157 15.967 22.9948 13.6625 23.0135 10.9785C23.0197 10.0963 23.4187 9.27481 24.1085 8.72488C24.7982 8.17481 25.6876 7.96828 26.5495 8.15877C29.1699 8.73731 31.826 7.45883 33.0073 5.0487C33.3957 4.25655 34.1117 3.68957 34.9717 3.4933C35.8321 3.29718 36.723 3.49706 37.4164 4.04221C39.5267 5.70124 42.4741 5.70124 44.5844 4.04221C45.278 3.49706 46.1687 3.29718 47.029 3.4933C47.8891 3.68957 48.6051 4.25655 48.9934 5.0487C50.1748 7.45883 52.8306 8.73731 55.4515 8.15877C56.3127 7.96814 57.2026 8.17481 57.8922 8.72488C58.5819 9.27495 58.9811 10.0963 58.9873 10.9785C59.006 13.6625 60.8438 15.967 63.4564 16.5825C64.3152 16.7848 65.0271 17.3567 65.4099 18.1516C65.7927 18.9465 65.7958 19.8597 65.4186 20.6573C64.2711 23.0836 64.9269 25.9572 67.0138 27.6453C67.6997 28.2001 68.0929 29.0244 68.0929 29.9066C68.0929 30.7888 67.6995 31.613 67.0136 32.1678C64.9269 33.8559 64.2709 36.7295 65.4186 39.156C65.7958 39.9535 65.7927 40.8668 65.4098 41.6615C65.0271 42.4564 64.315 43.0283 63.4564 43.2306C60.8438 43.8462 59.006 46.1507 58.9873 48.8347C58.9811 49.7169 58.5821 50.5383 57.8922 51.0883C57.2026 51.6383 56.313 51.8446 55.4513 51.6544C52.8306 51.0753 50.1748 52.3543 48.9934 54.7645C48.6051 55.5566 47.8891 56.1234 47.029 56.3198ZM63.6011 62.6997C63.2295 62.599 62.8333 62.6506 62.5 62.8429C62.1668 63.0354 61.924 63.3528 61.8255 63.7248L60.3436 69.3252L52.1946 55.2109C52.8796 54.5568 53.8582 54.2624 54.8278 54.4768C56.5455 54.8562 58.3192 54.4449 59.6943 53.3482C60.5177 52.6916 61.1314 51.8401 61.4956 50.8856L69.1922 64.2165L63.6011 62.6997Z" fill="#083645"/>
<path d="M47.877 40.836C48.1751 40.836 48.4733 40.7439 48.7265 40.5599C49.2318 40.1928 49.4441 39.5426 49.2529 38.9482L46.9747 31.8652L52.9825 27.4509C53.4859 27.0811 53.6948 26.4296 53.5002 25.836C53.3055 25.2424 52.7516 24.8411 52.1269 24.8411H44.6925L42.3741 17.7773C42.1793 17.1839 41.6255 16.7827 41.001 16.7827C40.3765 16.7827 39.8225 17.1839 39.6278 17.7773L37.3095 24.8411H29.875C29.2504 24.8411 28.6963 25.2424 28.5017 25.836C28.3071 26.4296 28.5159 27.0811 29.0194 27.4509L35.0273 31.8652L32.7491 38.9482C32.5579 39.5428 32.7702 40.1928 33.2755 40.5599C33.7809 40.927 34.4648 40.9279 34.971 40.5624L41.0013 36.2084L47.0315 40.5624C47.2836 40.7448 47.5801 40.836 47.877 40.836ZM41.8467 33.2541C41.5941 33.0717 41.2974 32.9805 41.0007 32.9805C40.704 32.9805 40.4073 33.0717 40.1546 33.2541L36.8487 35.6411L38.0973 31.7593C38.2876 31.1675 38.0782 30.5201 37.5771 30.152L34.2827 27.7313H38.356C38.9805 27.7313 39.5345 27.3301 39.7291 26.7367L41.0007 22.8624L42.2722 26.7367C42.4671 27.3301 43.0209 27.7313 43.6454 27.7313H47.7187L44.4242 30.152C43.9232 30.5201 43.7137 31.1673 43.9041 31.7593L45.1527 35.6411L41.8467 33.2541Z" fill="#083645"/>
<path d="M61.2341 29.9066C61.2341 18.7497 52.1572 9.67285 41.0003 9.67285C29.8435 9.67285 20.7666 18.7497 20.7666 29.9066C20.7666 38.3942 26.1252 46.0404 34.1009 48.9331C34.8512 49.2051 35.6802 48.8176 35.9525 48.0672C36.2246 47.3169 35.837 46.488 35.0866 46.2157C28.2503 43.7364 23.6573 37.1822 23.6573 29.9066C23.6573 20.3435 31.4374 12.5634 41.0005 12.5634C50.5635 12.5634 58.3437 20.3435 58.3437 29.9066C58.3437 37.1826 53.7502 43.7369 46.9135 46.2161C46.1631 46.4883 45.7754 47.3172 46.0475 48.0675C46.2607 48.6552 46.8152 49.0205 47.4062 49.0205C47.5698 49.0205 47.7362 48.9925 47.8989 48.9335C55.875 46.0411 61.2341 38.3948 61.2341 29.9066Z" fill="#083645"/>
<path d="M41 47.2495C40.6199 47.2495 40.247 47.4042 39.9782 47.673C39.7093 47.9418 39.5547 48.3147 39.5547 48.6948C39.5547 49.0749 39.7093 49.4478 39.9782 49.7167C40.247 49.9855 40.6199 50.1401 41 50.1401C41.3801 50.1401 41.753 49.9855 42.0218 49.7167C42.2907 49.4478 42.4453 49.0749 42.4453 48.6948C42.4453 48.3147 42.2907 47.9418 42.0218 47.673C41.753 47.4042 41.3801 47.2495 41 47.2495Z" fill="#083645"/>
</g>
<defs>
<clipPath id="clip0">
<rect width="74" height="74" fill="white" transform="translate(4 0.52832)"/>
</clipPath>
</defs>
</svg>
