<svg width="102" height="110" viewBox="0 0 102 110" fill="none" xmlns="http://www.w3.org/2000/svg">
<path d="M55.6276 28.9357C76.1284 32.8722 92.2075 32.282 94.7595 53.0007C96.6067 67.9974 89.6699 85.2261 77.2195 93.7877C52.035 111.106 33.3539 108.8 19.2762 87.6711C2.06504 61.8388 25.1437 23.0823 55.6276 28.9357Z" fill="#99E7FF"/>
<path d="M79.6472 51.302H1.35263C0.607495 51.302 0.00268555 51.9054 0.00268555 52.6519C0.00268555 68.2826 12.7189 81 28.3507 81H52.6491C68.2797 81 80.9972 68.2826 80.9972 52.6519C80.9972 51.9054 80.3938 51.302 79.6472 51.302ZM52.6491 78.3001H28.3507C14.6613 78.3001 3.44217 67.5197 2.73754 54.0017H78.2621C77.5577 67.5197 66.3386 78.3001 52.6491 78.3001Z" fill="#083645"/>
<path d="M68.8533 18.9122C68.8533 18.8136 68.8519 18.7151 68.8426 18.5652C68.6347 16.3271 67.0959 14.4885 65.0642 13.7987L66.5923 12.2707C69.2422 9.67487 69.5081 5.52252 67.1889 2.59054C64.7051 -0.427807 60.2287 -0.85717 57.2117 1.62535C57.0402 1.7671 56.8742 1.91692 56.7081 2.08303L55.0478 3.76773C54.3512 1.74685 52.5086 0.218768 50.2381 0.00819974C47.248 -0.155066 44.717 2.13967 44.5564 5.11214C44.551 5.2107 44.5496 5.30926 44.5496 5.4064V7.47585C43.7559 7.01548 42.8366 6.75096 41.8552 6.74954C41.7581 6.74954 41.6581 6.75223 41.5083 6.7603C38.6222 7.02893 36.4017 9.50875 36.4502 12.3839V14.2199C35.6402 13.7514 34.717 13.5004 33.7559 13.4989C33.6587 13.4989 33.5602 13.5016 33.4104 13.5097C30.5228 13.7783 28.3023 16.2582 28.3509 19.1335V39.1526C28.3509 39.8992 28.9557 40.5026 29.7008 40.5026H52.6493C55.6271 40.5026 58.0489 38.0808 58.0474 35.1057C58.0474 34.1229 57.7842 33.2009 57.3226 32.4059H59.1463C62.0459 32.4855 64.5257 30.2325 64.797 27.2938C64.8551 26.1949 64.5796 25.1555 64.0587 24.2727C65.2708 24.1378 66.3926 23.6018 67.2673 22.7298C68.2876 21.7119 68.8519 20.3566 68.8533 18.9122ZM65.361 20.8182C64.8508 21.3257 64.1745 21.6053 63.4523 21.6053C63.4509 21.6053 63.4496 21.6053 63.4482 21.6053H59.3985C58.6519 21.6053 58.0486 22.2101 58.0486 22.9552C58.0486 23.7003 58.6519 24.3051 59.3985 24.3051L59.5471 24.3093C61.0346 24.3888 62.1794 25.6632 62.1038 27.0968C61.9661 28.5844 60.704 29.7359 59.1691 29.7048H52.6491C51.9025 29.7048 51.2991 30.3096 51.2991 31.0547C51.2991 31.7999 51.9025 32.4047 52.6491 32.4047C54.1381 32.4047 55.349 33.6155 55.349 35.1045C55.349 36.5936 54.1381 37.8044 52.6491 37.8044H31.0505V19.1106C31.0248 17.6162 32.1723 16.3379 33.6072 16.2028L33.7543 16.1987C35.2406 16.1999 36.4486 17.4096 36.4501 18.8945V18.9039C36.4501 19.6491 37.0535 20.2539 37.7986 20.2539C37.8 20.2539 37.8 20.2539 37.8 20.2539C38.5452 20.2539 39.1485 19.6505 39.15 18.9054V18.9041V12.361C39.1243 10.8666 40.2718 9.58833 41.7067 9.45323L41.8525 9.44911C43.3401 9.4518 44.5483 10.6613 44.5497 12.1476V12.1556C44.5497 12.9008 45.1531 13.5056 45.8983 13.5056C45.8997 13.5056 45.8997 13.5056 45.8997 13.5056C46.6448 13.5056 47.2482 12.9022 47.2496 12.1571V12.1556V5.40624L47.2537 5.25642C47.3321 3.7701 48.5766 2.62551 50.04 2.6997C51.5303 2.83876 52.6763 4.11704 52.648 5.63706V6.75745C52.648 7.3042 52.9788 7.79827 53.4863 8.00614C53.9899 8.21402 54.5757 8.09521 54.959 7.70382L58.6212 3.98748C58.7211 3.88892 58.8237 3.79573 58.9304 3.70809C60.7986 2.17194 63.5673 2.43914 65.09 4.28585C66.5317 6.11087 66.3656 8.71347 64.6945 10.351L61.1443 13.9013C60.7583 14.2873 60.6421 14.8677 60.8513 15.3727C61.0592 15.8763 61.5532 16.2056 62.0985 16.2056H63.2189C63.2473 16.2056 63.2675 16.2056 63.2904 16.2056C64.7646 16.2056 66.0172 17.3423 66.1495 18.7624L66.1536 18.9109C66.152 19.6317 65.8714 20.3093 65.361 20.8182Z" fill="#083645"/>
<path d="M58.4454 8.4975L20.6487 46.2942L22.5577 48.2032L60.3543 10.4065L58.4454 8.4975Z" fill="#083645"/>
<path d="M52.6467 10.813H49.9468V17.5626H52.6467V10.813Z" fill="#083645"/>
<path d="M44.5471 17.5625H41.8472V25.662H44.5471V17.5625Z" fill="#083645"/>
<path d="M36.4474 24.2983H33.7476V33.7476H36.4474V24.2983Z" fill="#083645"/>
<path d="M58.0459 16.2124H51.2964V18.9121H58.0459V16.2124Z" fill="#083645"/>
<path d="M51.2965 24.2983H43.197V26.9981H51.2965V24.2983Z" fill="#083645"/>
<path d="M44.5469 32.3977H35.0977V35.0976H44.5469V32.3977Z" fill="#083645"/>
<path d="M25.1986 6.24473C25.1973 6.24204 25.1945 6.23935 25.1932 6.23666C23.2884 3.38426 19.4169 2.60938 16.5659 4.51414C16.4769 4.5722 16.3891 4.63422 16.2892 4.70858L15.8032 5.07845L15.3362 4.74227C12.8659 2.43805 8.98216 2.53123 6.63063 4.97183C5.47923 6.16515 4.86097 7.73642 4.89198 9.39549C4.92299 11.0546 5.59662 12.6015 6.78867 13.7516C7.13561 14.0864 7.52163 14.3806 7.93739 14.6263L9.07407 15.5146V16.2058C9.07407 19.9275 12.1019 22.9554 15.8236 22.9554C19.5454 22.9554 22.5732 19.9261 22.5718 16.2045V15.5134L23.7665 14.5806C26.3514 12.619 26.9792 8.9568 25.1986 6.24473ZM22.1195 12.4422L20.3916 13.7921C20.0649 14.0473 19.8732 14.4401 19.8732 14.8559V16.2058C19.8732 18.4385 18.0562 20.2555 15.8235 20.2555C13.5908 20.2555 11.7738 18.4385 11.7738 16.2058V14.8559C11.7738 14.4401 11.5835 14.0473 11.2554 13.7921L9.52748 12.4422C9.47622 12.4017 9.42085 12.3653 9.36422 12.3328C9.11046 12.1884 8.87553 12.013 8.66496 11.809C7.99007 11.1583 7.60927 10.2836 7.59171 9.34677C7.57415 8.40989 7.92378 7.52174 8.57447 6.84669C9.26154 6.13398 10.1809 5.77486 11.1014 5.77486C11.9788 5.77486 12.8577 6.10013 13.5381 6.75762C13.584 6.80081 13.6325 6.84273 13.6852 6.88038L15.0352 7.85238C15.5158 8.19932 16.1677 8.19125 16.6403 7.83213L18.0632 6.76173C18.8461 6.23792 19.7842 6.05441 20.7077 6.23666C21.6283 6.42017 22.4234 6.95078 22.9458 7.73104C23.9474 9.26181 23.5909 11.3245 22.1195 12.4422Z" fill="#083645"/>
<path d="M32.3979 1.3501H29.698V4.04983H32.3979V1.3501Z" fill="#083645"/>
<path d="M40.4973 44.5471H37.7976V47.2468H40.4973V44.5471Z" fill="#083645"/>
<path d="M72.8977 8.1062V10.8061C74.3867 10.8061 75.5976 12.017 75.5976 13.5058C75.5976 14.9947 74.3867 16.2057 72.8977 16.2057V18.9054C75.8756 18.9054 78.2973 16.4837 78.2973 13.5058C78.2973 10.528 75.8756 8.1062 72.8977 8.1062Z" fill="#083645"/>
<path d="M5.39968 20.2622H2.69995V22.9621H5.39968V20.2622Z" fill="#083645"/>
<path d="M2.70242 14.8625H0.00268555V17.5624H2.70242V14.8625Z" fill="#083645"/>
<path d="M52.6491 43.2026C49.6713 43.2026 47.2495 45.6244 47.2495 48.6023H49.9494C49.9494 47.1133 51.1603 45.9024 52.6491 45.9024C54.1381 45.9024 55.349 47.1133 55.349 48.6023H58.0487C58.0487 45.6244 55.627 43.2026 52.6491 43.2026Z" fill="#083645"/>
<path d="M16.2015 31.0533H16.0315C15.4294 28.7274 13.314 27.0037 10.8019 27.0037C8.28982 27.0037 6.17307 28.7274 5.57237 31.0533H5.40231C2.42445 31.0533 0.00268555 33.4751 0.00268555 36.453C0.00268555 39.4308 2.42445 41.8526 5.40231 41.8526H16.2015C19.1794 41.8526 21.6012 39.4308 21.6012 36.453C21.6012 33.4751 19.1794 31.0533 16.2015 31.0533ZM16.2015 39.1541H5.40215C3.91314 39.1541 2.70226 37.9432 2.70226 36.4544C2.70226 34.9654 3.91314 33.7545 5.40215 33.7545H6.75209C7.49723 33.7545 8.10204 33.1497 8.10204 32.4045C8.10204 30.9155 9.31292 29.7048 10.8019 29.7048C12.2909 29.7048 13.5018 30.9157 13.5018 32.4045C13.5018 33.1497 14.1066 33.7545 14.8518 33.7545H16.2017C17.6907 33.7545 18.9016 34.9654 18.9016 36.4544C18.9013 37.9434 17.6904 39.1541 16.2015 39.1541Z" fill="#083645"/>
<path d="M13.5018 39.1528H8.10214C7.35701 39.1528 6.7522 39.7576 6.7522 40.5028V45.9024C6.7522 46.6489 7.35701 47.2523 8.10214 47.2523H13.5018C14.2469 47.2523 14.8517 46.6489 14.8517 45.9024V40.5028C14.8517 39.7576 14.2469 39.1528 13.5018 39.1528ZM12.1518 44.5524H9.45209V41.8527H12.152V44.5524H12.1518Z" fill="#083645"/>
<path d="M71.5477 35.1033C69.315 35.1033 67.498 36.9202 67.498 39.1529C67.498 41.3857 69.315 43.2026 71.5477 43.2026C73.7804 43.2026 75.5974 41.3857 75.5974 39.1529C75.5974 36.9202 73.7804 35.1033 71.5477 35.1033ZM71.5477 40.5042C70.8026 40.5042 70.1978 39.8981 70.1978 39.1542C70.1978 38.4103 70.8026 37.8043 71.5477 37.8043C72.2929 37.8043 72.8977 38.4091 72.8977 39.1542C72.8977 39.8995 72.2929 40.5042 71.5477 40.5042Z" fill="#083645"/>
<path d="M71.5479 29.7034C66.3386 29.7034 62.0986 33.9421 62.0986 39.1527C62.0986 44.3632 66.3386 48.602 71.5479 48.602C76.7572 48.602 80.9972 44.3632 80.9972 39.1527C80.9972 33.9421 76.7572 29.7034 71.5479 29.7034ZM71.5479 45.9035C67.8262 45.9035 64.7984 42.8744 64.7984 39.1539C64.7984 35.4322 67.8262 32.4044 71.5479 32.4044C75.2697 32.4044 78.2975 35.4322 78.2975 39.1539C78.2975 42.8757 75.2697 45.9035 71.5479 45.9035Z" fill="#083645"/>
</svg>
