<svg width="120" height="117" viewBox="0 0 120 117" fill="none" xmlns="http://www.w3.org/2000/svg">
<path d="M44.4355 45.0266C51.9774 35.9347 54.6297 21.7458 70.2669 18.5318C97.7232 12.8886 121.487 47.4486 98.1401 79.2136C71.3549 115.657 7.57025 96.5363 18.5027 67.5132C23.766 53.5404 34.8925 56.5307 44.4355 45.0266Z" fill="#99E7FF"/>
<path d="M68.2844 11.7158C60.7292 4.16063 50.6844 0 40 0C29.3156 0 19.2708 4.16063 11.7156 11.7158C4.16078 19.2708 0 29.3156 0 40C0 50.6844 4.16078 60.7292 11.7156 68.2842C19.2708 75.8394 29.3156 80 40 80C50.6844 80 60.7292 75.8394 68.2844 68.2842C75.8392 60.7292 80 50.6844 80 40C80 29.3156 75.8392 19.2708 68.2844 11.7158ZM40 76.875C19.667 76.875 3.125 60.333 3.125 40C3.125 19.667 19.667 3.125 40 3.125C60.333 3.125 76.875 19.667 76.875 40C76.875 60.333 60.333 76.875 40 76.875Z" fill="#083645"/>
<path d="M48.7116 7.39576C47.8782 7.17358 47.0219 7.6692 46.7994 8.50311C46.5773 9.33701 47.073 10.1931 47.907 10.4153C61.2771 13.979 70.6152 26.1448 70.6152 40.0001C70.6152 56.8815 56.8813 70.6154 39.9999 70.6154C23.1185 70.6154 9.38477 56.8815 9.38477 40.0001C9.38477 26.0647 18.7901 13.8812 32.257 10.3722C33.0921 10.1545 33.5926 9.30123 33.3749 8.46623C33.1574 7.63108 32.3034 7.13061 31.469 7.34826C16.626 11.2158 6.25977 24.6428 6.25977 40.0001C6.25977 49.0125 9.7693 57.4855 16.142 63.8581C22.5146 70.2308 30.9876 73.7404 39.9999 73.7404C49.0123 73.7404 57.4852 70.2309 63.8579 63.8581C70.2305 57.4853 73.7402 49.0125 73.7402 40.0001C73.7402 24.7311 63.448 11.3236 48.7116 7.39576Z" fill="#083645"/>
<path d="M39.9998 6.25977H39.9263C39.0633 6.26273 38.3661 6.96461 38.3689 7.82758C38.3719 8.68867 39.0709 9.38477 39.9314 9.38477C39.9333 9.38477 39.935 9.38477 39.9367 9.38477H39.9998C40.8627 9.38477 41.5624 8.68523 41.5624 7.82227C41.5624 6.9593 40.8627 6.25977 39.9998 6.25977Z" fill="#083645"/>
<path d="M58.6732 20.7727C58.3341 20.4321 57.856 20.2666 57.3802 20.3235L34.8786 23.0154C34.8366 23.0204 34.7954 23.0271 34.7544 23.0354C30.299 23.4934 26.1083 25.4852 22.9375 28.656C19.2391 32.3541 17.2065 37.2749 17.2136 42.5116C17.2208 47.7466 19.2661 52.671 22.9724 56.3774C23.1166 56.5216 23.2633 56.6626 23.4113 56.8018C22.9465 58.3998 22.7047 60.0727 22.7047 61.7832C22.7047 62.6462 23.4044 63.3457 24.2672 63.3457C25.13 63.3457 25.8297 62.6462 25.8297 61.7832C25.8297 60.8148 25.9235 59.8607 26.1065 58.9313C29.27 61.0112 32.969 62.131 36.8383 62.1363C36.8475 62.1363 36.8568 62.1363 36.866 62.1363C42.0922 62.1363 47.0021 60.1043 50.6938 56.4126C53.8582 53.2482 55.8522 49.0584 56.3122 44.6095C56.313 44.6037 56.3138 44.598 56.3146 44.5924L59.1163 22.0679C59.1755 21.591 59.0121 21.1134 58.6732 20.7727ZM53.2199 44.1537C53.2154 44.1829 53.2115 44.2123 53.2085 44.2421C52.8311 47.9962 51.1533 51.5337 48.4841 54.2027C45.3825 57.3043 41.2579 59.0113 36.866 59.0112C36.8585 59.0112 36.8502 59.0112 36.8429 59.0112C33.2905 59.0063 29.9085 57.8845 27.0968 55.8137C27.8157 54.208 28.8291 52.7307 30.1104 51.4495L30.5921 50.9677H43.2849C44.1477 50.9677 44.8474 50.2682 44.8474 49.4052C44.8474 48.5423 44.1477 47.8427 43.2849 47.8427H33.7171L38.7957 42.7641H47.346C48.2088 42.7641 48.9085 42.0646 48.9085 41.2016C48.9085 40.3387 48.2088 39.6391 47.346 39.6391H41.9207L50.8654 30.6946C51.4755 30.0845 51.4755 29.0951 50.8654 28.4848C50.2552 27.8748 49.2658 27.8746 48.6555 28.4848L39.7108 37.4295V32.004C39.7108 31.141 39.0111 30.4415 38.1483 30.4415C37.2855 30.4415 36.5858 31.141 36.5858 32.004V40.5545L31.5072 45.633V39.9266C31.5072 39.0637 30.8075 38.3641 29.9447 38.3641C29.0819 38.3641 28.3822 39.0637 28.3822 39.9266V48.758L27.9005 49.2398C26.5875 50.5527 25.5071 52.0359 24.6769 53.6385C21.8802 50.5891 20.3447 46.6648 20.339 42.5073C20.3329 38.1068 22.0407 33.9724 25.1474 30.8657C27.8449 28.1679 31.4213 26.486 35.2174 26.1298C35.2841 26.1235 35.3497 26.113 35.4138 26.0985L55.7686 23.6635L53.2199 44.1537Z" fill="#083645"/>
<path d="M31.05 32.9578C30.7578 32.6672 30.3564 32.5 29.9453 32.5C29.5328 32.5 29.1312 32.6672 28.8391 32.9578C28.5486 33.2484 28.3828 33.6516 28.3828 34.0625C28.3828 34.4734 28.5486 34.8766 28.8391 35.1672C29.1312 35.4578 29.533 35.625 29.9453 35.625C30.3564 35.625 30.7578 35.4578 31.05 35.1672C31.3406 34.8766 31.5078 34.4734 31.5078 34.0625C31.5078 33.6516 31.3408 33.2484 31.05 32.9578Z" fill="#083645"/>
</svg>
