<svg width="96" height="104" viewBox="0 0 96 104" fill="none" xmlns="http://www.w3.org/2000/svg">
<path d="M40.9846 36.4644C29.9086 40.571 15.6418 38.3762 7.43204 52.0676C-6.98283 76.1072 17.7608 109.972 55.4638 98.4587C98.7197 85.2493 101.794 18.7314 70.7887 19.4388C55.8613 19.7793 54.9993 31.2683 40.9846 36.4644Z" fill="#99E7FF"/>
<g clip-path="url(#clip0)">
<path d="M40.5725 24.2651C41.1369 23.7007 41.1369 22.7855 40.5724 22.2211C40.0081 21.6568 39.0928 21.6568 38.5284 22.2211C38.3499 22.3998 38.1412 22.4264 38.0328 22.4264C37.9244 22.4264 37.7158 22.3996 37.5372 22.2211C36.973 21.6568 36.0579 21.6568 35.4932 22.2211C34.9287 22.7855 34.9287 23.7007 35.4931 24.2651C36.1714 24.9435 37.0734 25.3171 38.0327 25.3171C38.9919 25.3171 39.8942 24.9435 40.5725 24.2651Z" fill="#083645"/>
<path d="M36.984 65.3281H23.6257C23.2424 65.3281 22.8749 65.4805 22.6038 65.7515L16.8222 71.5328C16.2578 72.0972 16.2578 73.0124 16.8222 73.5768C17.1045 73.8591 17.4743 74.0001 17.8442 74.0001C18.2141 74.0001 18.5839 73.8589 18.8662 73.5768L24.2245 68.2187H36.984C37.7821 68.2187 38.4294 67.5717 38.4294 66.7734C38.4294 65.9752 37.7821 65.3281 36.984 65.3281Z" fill="#083645"/>
<path d="M74.9443 44.9158C74.798 43.3439 73.985 41.9052 72.7139 40.969C70.4304 39.2869 67.2629 39.5946 65.346 41.685L59.6806 47.8627V46.7671C59.6806 40.2903 55.0698 34.6736 48.7172 33.412L45.7006 32.8128C44.6962 32.6133 43.8256 32.052 43.2312 31.2615C46.9695 29.7784 49.9345 26.7542 51.339 22.9773C51.5779 23.2854 51.8365 23.5816 52.1167 23.8618C53.8927 25.6377 56.2681 26.6128 58.751 26.6128C59.0765 26.6128 59.404 26.5961 59.7321 26.5621C60.1531 26.5186 60.5338 26.2927 60.7739 25.9442C61.0139 25.5956 61.0891 25.1593 60.9795 24.7504L60.7124 23.754L61.7091 24.021C62.1176 24.1305 62.5543 24.0555 62.9028 23.8153C63.2514 23.5752 63.4773 23.1945 63.5208 22.7735C63.8134 19.9424 62.8291 17.1668 60.8204 15.1581C58.5316 12.8694 55.2403 11.9419 52.1358 12.6296C51.3403 5.53425 45.3053 0 38.0009 0C30.6966 0 24.6616 5.53425 23.8661 12.6296C20.7615 11.9419 17.4703 12.8692 15.1815 15.1581C13.1728 17.167 12.1885 19.9427 12.4812 22.7735C12.5249 23.1945 12.7506 23.5752 13.0992 23.8153C13.4477 24.0553 13.884 24.1304 14.2929 24.021L15.2894 23.754L15.0224 24.7504C14.9128 25.1593 14.988 25.5956 15.228 25.9442C15.4681 26.2928 15.8488 26.5187 16.2698 26.5621C16.598 26.5961 16.9253 26.6128 17.251 26.6128C19.7339 26.6127 22.1094 25.6375 23.8852 23.8618C24.1654 23.5816 24.424 23.2854 24.6629 22.9773C26.0676 26.7542 29.0325 29.7784 32.7708 31.2615C32.1765 32.052 31.3058 32.6133 30.3016 32.8128L27.285 33.412C20.9584 34.6684 16.361 40.2443 16.3231 46.6872C14.4345 47.596 12.6925 48.8267 11.1667 50.3524L1.45723 60.0618C0.892837 60.6262 0.892837 61.5414 1.45723 62.1058C1.7395 62.3881 2.10936 62.5291 2.47921 62.5291C2.84907 62.5291 3.21892 62.3881 3.50119 62.1058L13.2105 52.3965C16.2195 49.3873 20.2204 47.7301 24.476 47.7301C27.3396 47.7301 30.0315 48.8452 32.0562 50.8701C32.3274 51.1411 32.6949 51.2934 33.0782 51.2934H42.5563C43.9591 51.2934 45.1005 52.4346 45.1005 53.8375C45.1005 55.2403 43.9592 56.3815 42.5563 56.3815H31.5692C30.7711 56.3815 30.1238 57.0286 30.1238 57.8268C30.1238 58.6251 30.7711 59.2721 31.5692 59.2721H42.8497C49.3887 59.2721 55.6739 56.5081 60.0937 51.6889L67.4762 43.6388C68.3928 42.6393 69.9075 42.4922 70.9995 43.2965C71.6162 43.7508 71.995 44.421 72.0658 45.1837C72.1368 45.9465 71.8882 46.6751 71.3657 47.2354L62.0035 57.2767C58.6533 60.8699 54.3625 63.3956 49.5949 64.5809C48.8203 64.7736 48.3484 65.5575 48.5409 66.3322C48.7045 66.9898 49.2942 67.4292 49.9424 67.4292C50.0579 67.4292 50.1751 67.4152 50.2922 67.3861C55.6043 66.0655 60.3851 63.2515 64.1179 59.248L73.48 49.2067C74.5569 48.0517 75.0904 46.4879 74.9443 44.9158ZM52.4795 15.5208C54.7108 14.9208 57.1223 15.5477 58.7764 17.2021C59.7486 18.1741 60.3739 19.4059 60.5931 20.7292L59.0425 20.3139C58.5435 20.1799 58.0116 20.323 57.6465 20.6879C57.2814 21.053 57.1388 21.5852 57.2725 22.0841L57.6878 23.6345C56.3647 23.4152 55.1325 22.7898 54.1607 21.818C52.5064 20.1634 51.8794 17.7521 52.4795 15.5208ZM49.2913 13.2607C45.8048 12.9361 42.5034 11.4262 39.9768 8.98681C41.0776 7.44163 41.9315 5.70002 42.4771 3.81389C46.2259 5.43177 48.9318 9.01658 49.2913 13.2607ZM38.0009 2.89062C38.5772 2.89062 39.1433 2.93456 39.6967 3.01796C38.0116 8.82811 32.8046 12.9853 26.7071 13.306C27.1769 7.48484 32.061 2.89062 38.0009 2.89062ZM21.8412 21.8179C20.8692 22.7898 19.6375 23.4152 18.3141 23.6343L18.7294 22.0839C18.8631 21.5852 18.7205 21.053 18.3554 20.6878C18.0808 20.4132 17.7116 20.2644 17.3333 20.2644C17.2087 20.2644 17.0831 20.2805 16.9594 20.3137L15.409 20.7291C15.6281 19.4058 16.2535 18.1739 17.2254 17.202C18.8799 15.5474 21.292 14.9207 23.5225 15.5206C24.1228 17.7521 23.4956 20.1634 21.8412 21.8179ZM26.6667 18.033V16.2033C31.0854 16.0204 35.1275 14.1602 38.1049 11.1945C41.1614 14.0853 45.1447 15.8479 49.3352 16.166V18.033C49.3352 24.2827 44.2506 29.3673 38.0009 29.3673C31.7513 29.3673 26.6667 24.2827 26.6667 18.033ZM38.0009 32.2578C38.7941 32.2578 39.572 32.1914 40.3302 32.066C40.7661 32.8917 41.3596 33.6136 42.0705 34.197C41.0789 35.3947 39.6058 36.1051 38.0011 36.1051C36.3964 36.1051 34.9233 35.3947 33.9318 34.197C34.6428 33.6136 35.2362 32.8917 35.6721 32.066C36.43 32.1916 37.2079 32.2578 38.0009 32.2578ZM42.5566 48.4028H33.6582C31.1441 46.1004 27.907 44.8397 24.4763 44.8397C22.6942 44.8397 20.9503 45.0868 19.2826 45.5628C19.802 40.9828 23.2427 37.162 27.8482 36.2474L30.8649 35.6482C31.0186 35.6177 31.1705 35.5817 31.3206 35.5414C32.8402 37.6982 35.3012 38.9958 38.0011 38.9958C40.7011 38.9958 43.1622 37.6982 44.6818 35.5414C44.8318 35.5817 44.9837 35.6177 45.1375 35.6482L48.1541 36.2474C53.1581 37.2411 56.79 41.6653 56.79 46.7671V50.9132C54.1967 53.3144 51.0264 54.9986 47.6165 55.8167C47.8574 55.2028 47.9912 54.5357 47.9912 53.8375C47.9912 50.8407 45.5533 48.4028 42.5566 48.4028Z" fill="#083645"/>
<path d="M43.4875 65.3281C43.1073 65.3281 42.7345 65.4828 42.4657 65.7516C42.1969 66.0204 42.0422 66.3933 42.0422 66.7734C42.0422 67.1536 42.1967 67.5264 42.4657 67.7953C42.7347 68.0641 43.1073 68.2188 43.4875 68.2188C43.8677 68.2188 44.2406 68.0641 44.5092 67.7953C44.7781 67.5264 44.9329 67.1536 44.9329 66.7734C44.9329 66.3933 44.7782 66.0204 44.5092 65.7516C44.2406 65.4828 43.8677 65.3281 43.4875 65.3281Z" fill="#083645"/>
</g>
<defs>
<clipPath id="clip0">
<rect width="74" height="74" fill="white" transform="translate(1)"/>
</clipPath>
</defs>
</svg>
