<svg width="149" height="142" viewBox="0 0 149 142" fill="none" xmlns="http://www.w3.org/2000/svg">
<path d="M82.8502 114.152C101.244 108.084 124.254 113.413 138.859 90.2156C164.504 49.4849 127.339 -12.5483 64.9509 3.77713C-6.62594 22.5069 -17.6974 139.013 32.8095 140.974C57.1253 141.918 59.576 121.83 82.8502 114.152Z" fill="#EBFAFF"/>
<path d="M119.226 63.4045C121.037 60.6476 121.987 57.4699 121.987 54.1289C121.987 49.6928 120.286 45.4976 117.196 42.3158C114.613 39.6553 111.294 37.9422 107.686 37.3745C107.844 36.6269 107.923 35.862 107.923 35.0855C107.923 28.9731 102.95 24 96.8374 24C90.7246 24 85.7517 28.9731 85.7517 35.0855C85.7517 36.3946 85.978 37.6723 86.4169 38.876C77.9183 39.3743 71.1562 46.4462 71.1562 55.0675C71.1562 59.0879 72.5987 62.8612 75.2445 65.8297C74.0644 67.929 73.4461 70.2863 73.4461 72.7211C73.4461 80.4979 79.7728 86.8246 87.5497 86.8246C90.9693 86.8246 94.2251 85.5738 96.75 83.4023V104.719H79.3594V98.6437C81.2922 97.7664 82.6406 95.8195 82.6406 93.5625C82.6406 90.4867 80.1383 87.9844 77.0625 87.9844H44.5781C41.5023 87.9844 39 90.4867 39 93.5625C39 95.8197 40.3484 97.7666 42.2812 98.6437V106.359C42.2812 107.265 43.0159 108 43.9219 108H50.4844C51.3903 108 52.125 107.265 52.125 106.359V99.1406H69.5156V104.719H67.957C67.0511 104.719 66.3164 105.453 66.3164 106.359C66.3164 107.265 67.0511 108 67.957 108H105.773C106.679 108 107.414 107.265 107.414 106.359C107.414 105.453 106.679 104.719 105.773 104.719H100.031V83.4558C102.517 85.5942 105.721 86.8248 109.098 86.8248C116.764 86.8248 123 80.5886 123 72.9233C123 69.3648 121.64 65.9715 119.226 63.4045ZM48.8438 104.719H45.5625V99.1406H48.8438V104.719ZM76.0781 104.719H72.7969V99.1406H76.0781V104.719ZM77.0625 95.8594H71.1562H50.4844H44.5781C43.3116 95.8594 42.2812 94.8291 42.2812 93.5625C42.2812 92.2959 43.3116 91.2656 44.5781 91.2656H77.0625C78.3291 91.2656 79.3594 92.2959 79.3594 93.5625C79.3594 94.8291 78.3291 95.8594 77.0625 95.8594ZM109.098 83.5435C105.392 83.5435 101.957 81.6022 100.031 78.45V70.8072C100.045 70.7947 100.059 70.7836 100.072 70.7706L109.396 61.4466C110.036 60.8059 110.036 59.7671 109.396 59.1263C108.755 58.4858 107.717 58.4856 107.075 59.1263L100.031 66.1706V50.8629C100.031 49.9568 99.2966 49.2223 98.3906 49.2223C97.4847 49.2223 96.75 49.9568 96.75 50.8629V55.1204L95.4428 53.8131C94.8023 53.1724 93.7637 53.1724 93.1224 53.8131C92.4818 54.4538 92.4818 55.4926 93.1224 56.1333L96.75 59.7607V70.2829L92.2613 65.7943C92.2598 65.7928 92.2583 65.7911 92.2568 65.7897L88.2919 61.8248C87.6511 61.1841 86.6126 61.1841 85.9716 61.8248C85.3309 62.4654 85.3309 63.5043 85.9716 64.1449L88.4086 66.5818L83.9546 69.0164C83.1596 69.4511 82.8674 70.4479 83.302 71.2429C83.5999 71.7883 84.1625 72.0971 84.7429 72.0971C85.0089 72.0971 85.2787 72.0322 85.5285 71.8956L90.8264 68.9996L96.75 74.9234V78.4153C94.7812 81.5884 91.2933 83.5434 87.5497 83.5434C81.5823 83.5434 76.7273 78.6886 76.7273 72.7211C76.7273 70.5024 77.3962 68.3682 78.6615 66.5498C79.1235 65.886 79.0327 64.9843 78.4475 64.4258C75.8617 61.958 74.4375 58.6344 74.4375 55.0675C74.4375 47.9334 80.2415 42.1294 87.3756 42.1294C87.8924 42.1294 88.4151 42.1629 88.9733 42.2316C89.6215 42.311 90.2538 42 90.5857 41.4387C90.9177 40.8773 90.8859 40.1726 90.5043 39.6437C89.5417 38.309 89.0328 36.7329 89.0328 35.0859C89.0328 30.7825 92.5339 27.2816 96.8373 27.2816C101.14 27.2816 104.642 30.7825 104.642 35.0859C104.642 36.1549 104.429 37.1913 104.009 38.1666C103.794 38.6652 103.84 39.2375 104.131 39.6954C104.422 40.1533 104.921 40.4377 105.464 40.455C112.889 40.6917 118.705 46.698 118.705 54.1289C118.705 57.2286 117.691 60.1538 115.773 62.5888C115.228 63.2803 115.326 64.2787 115.995 64.8509C118.362 66.8749 119.719 69.8172 119.719 72.9231C119.719 78.7793 114.955 83.5435 109.098 83.5435Z" fill="#17A3D0"/>
<path d="M113.658 105.199C113.353 104.894 112.93 104.719 112.499 104.719C112.067 104.719 111.644 104.894 111.339 105.199C111.033 105.505 110.858 105.928 110.858 106.359C110.858 106.791 111.033 107.214 111.339 107.519C111.644 107.824 112.067 108 112.499 108C112.93 108 113.353 107.824 113.658 107.519C113.963 107.214 114.139 106.791 114.139 106.359C114.139 105.928 113.964 105.505 113.658 105.199Z" fill="#17A3D0"/>
<path d="M56.1718 52.2165C53.7349 51.4834 51.198 52.2347 49.537 53.9465C49.0691 53.4632 48.5241 53.0501 47.9146 52.7224C46.3642 51.889 44.5818 51.7095 42.8964 52.2165C42.0288 52.4775 41.537 53.3925 41.798 54.2602C42.0589 55.1276 42.9742 55.6191 43.8417 55.3584C44.688 55.104 45.5828 55.194 46.3611 55.6124C47.1396 56.0308 47.7084 56.7272 47.963 57.5734C48.1715 58.2669 48.81 58.7416 49.534 58.7416C50.2581 58.7416 50.8966 58.2669 51.1051 57.5736C51.6308 55.8268 53.4796 54.8331 55.2265 55.3586C56.0942 55.6196 57.0091 55.1279 57.2702 54.2602C57.5313 53.3925 57.0394 52.4775 56.1718 52.2165Z" fill="#17A3D0"/>
<path d="M66.6375 40.1152C64.9524 39.6082 63.1701 39.7877 61.6195 40.621C61.0112 40.948 60.4671 41.3603 59.9999 41.8423C59.5326 41.3603 58.9886 40.948 58.3803 40.621C56.8297 39.7876 55.047 39.6081 53.3622 40.1152C52.4945 40.3762 52.0028 41.2912 52.2638 42.1591C52.5249 43.0268 53.4405 43.5182 54.3076 43.2575C55.1533 43.003 56.0483 43.0929 56.8267 43.5114C57.6052 43.9298 58.1742 44.6263 58.4288 45.4726C58.6373 46.166 59.2759 46.6406 59.9999 46.6406C60.7239 46.6406 61.3624 46.166 61.5709 45.4726C61.8256 44.6264 62.3945 43.93 63.173 43.5114C63.9513 43.0931 64.846 43.003 65.6922 43.2575C66.5598 43.5183 67.4746 43.0266 67.7359 42.1591C67.9969 41.2914 67.5052 40.3764 66.6375 40.1152Z" fill="#17A3D0"/>
<path d="M87.3755 45.4653H87.3627C86.4568 45.4653 85.7285 46.1998 85.7285 47.1059C85.7285 48.012 86.4696 48.7465 87.3755 48.7465C88.2815 48.7465 89.0162 48.012 89.0162 47.1059C89.0162 46.1998 88.2817 45.4653 87.3755 45.4653Z" fill="#17A3D0"/>
<path d="M82.7439 48.3878C82.0881 47.7623 81.0494 47.7875 80.4244 48.4432C78.7148 50.2366 77.7734 52.5892 77.7734 55.0676C77.7734 55.9737 78.5081 56.7082 79.4141 56.7082C80.32 56.7082 81.0547 55.9737 81.0547 55.0676C81.0547 53.4361 81.6742 51.8875 82.7995 50.7073C83.4247 50.0513 83.3998 49.0128 82.7439 48.3878Z" fill="#17A3D0"/>
</svg>
