<svg width="149" height="142" viewBox="0 0 149 142" fill="none" xmlns="http://www.w3.org/2000/svg">
<path d="M82.8502 114.152C101.244 108.084 124.254 113.413 138.859 90.2156C164.504 49.4849 127.339 -12.5483 64.9509 3.77713C-6.62594 22.5069 -17.6974 139.013 32.8095 140.974C57.1253 141.918 59.576 121.83 82.8502 114.152Z" fill="#EBFAFF"/>
<path d="M103.473 35.7676H100.69V33.8877C100.69 31.1927 98.4978 29 95.8027 29C93.1075 29 90.915 31.1925 90.915 33.8877V35.7676H90.9148H87.1552V33.8877C87.1552 31.1927 84.9627 29 82.2676 29C79.5724 29 77.3799 31.1925 77.3799 33.8877V35.7676H77.3797H73.6201V33.8877C73.6201 31.1927 71.4274 29 68.7325 29C66.0375 29 63.8448 31.1925 63.8448 33.8877V35.7676H60.0852V33.8877C60.0852 31.1927 57.8925 29 55.1975 29C52.5025 29 50.3098 31.1925 50.3098 33.8877V35.7676H47.5273C41.7225 35.7676 37 40.4901 37 46.2949V95.4727C37 101.277 41.7225 106 47.5273 106H103.473C109.277 106 114 101.277 114 95.4727V46.2949C114 40.4901 109.277 35.7676 103.473 35.7676ZM93.9228 33.8877C93.9228 32.8512 94.766 32.0078 95.8027 32.0078C96.8393 32.0078 97.6825 32.851 97.6825 33.8877V40.6552C97.6825 41.6919 96.8393 42.5351 95.8027 42.5351C94.766 42.5351 93.9228 41.6919 93.9228 40.6552V33.8877ZM80.3877 33.8877C80.3877 32.8512 81.2309 32.0078 82.2676 32.0078C83.3042 32.0078 84.1474 32.851 84.1474 33.8877V40.6552C84.1474 41.6919 83.3042 42.5351 82.2676 42.5351C81.2309 42.5351 80.3877 41.6919 80.3877 40.6552V33.8877ZM66.8526 33.8877C66.8526 32.8512 67.6958 32.0078 68.7325 32.0078C69.7691 32.0078 70.6123 32.851 70.6123 33.8877V40.6552C70.6123 41.6919 69.7691 42.5351 68.7325 42.5351C67.6958 42.5351 66.8526 41.6919 66.8526 40.6552V33.8877ZM53.3175 33.8877C53.3175 32.8512 54.1607 32.0078 55.1973 32.0078C56.234 32.0078 57.0772 32.851 57.0772 33.8877V40.6552C57.0772 41.6919 56.234 42.5351 55.1973 42.5351C54.1607 42.5351 53.3175 41.6919 53.3175 40.6552V33.8877ZM110.992 95.4727C110.992 99.6189 107.619 102.992 103.473 102.992H47.5273C43.381 102.992 40.0078 99.6189 40.0078 95.4727V46.2949C40.0078 42.1486 43.381 38.7754 47.5273 38.7754H50.3095V40.6552C50.3095 43.3502 52.5022 45.5429 55.1972 45.5429C57.8922 45.5429 60.0849 43.3502 60.0849 40.6552V38.7754H63.8446V40.6552C63.8446 43.3502 66.0373 45.5429 68.7323 45.5429C71.4273 45.5429 73.62 43.3502 73.62 40.6552V38.7754H77.3797H77.3799V40.6552C77.3799 43.3502 79.5724 45.5429 82.2676 45.5429C84.9627 45.5429 87.1552 43.3502 87.1552 40.6552V38.7754H90.9148H90.915V40.6552C90.915 43.3502 93.1075 45.5429 95.8027 45.5429C98.4978 45.5429 100.69 43.3502 100.69 40.6552V38.7754H103.473C107.619 38.7754 110.992 42.1486 110.992 46.2949V95.4727Z" fill="#17A3D0"/>
<path d="M103.473 49.3027H68.7325C67.9019 49.3027 67.2286 49.976 67.2286 50.8066C67.2286 51.6372 67.9019 52.3105 68.7325 52.3105H103.473C103.866 52.3105 104.225 52.6689 104.225 53.0625V95.4728C104.225 95.8663 103.866 96.2247 103.473 96.2247H47.5273C47.1338 96.2247 46.7754 95.8663 46.7754 95.4728V53.0625C46.7754 52.6689 47.1338 52.3105 47.5273 52.3105H55.1974C56.028 52.3105 56.7013 51.6372 56.7013 50.8066C56.7013 49.976 56.028 49.3027 55.1974 49.3027H47.5273C45.4542 49.3027 43.7676 50.9894 43.7676 53.0625V95.4728C43.7676 97.5459 45.4542 99.2325 47.5273 99.2325H103.473C105.546 99.2325 107.232 97.5459 107.232 95.4728V53.0625C107.232 50.9892 105.546 49.3027 103.473 49.3027Z" fill="#17A3D0"/>
<path d="M61.5547 70.853C61.2317 71.8284 61.4705 72.8972 62.1769 73.6415L66.6463 78.36L65.7632 84.5987C65.6103 85.6217 66.0291 86.6383 66.8564 87.2522C67.3458 87.6154 67.9275 87.8014 68.5139 87.8014C68.9183 87.8014 69.3251 87.7128 69.705 87.5327L75.5829 84.7357L81.1972 87.4808C82.1121 87.9617 83.2072 87.8968 84.0647 87.3083C84.9295 86.7148 85.3825 85.6997 85.2467 84.6589L84.4039 78.2115L88.8008 73.6669C89.5173 72.9321 89.7682 71.8645 89.4555 70.881C89.1446 69.9025 88.3232 69.1787 87.3141 68.9922L80.9264 67.8023L77.9635 62.2165C77.4866 61.3087 76.5508 60.7401 75.5212 60.7324C74.4922 60.7261 73.5506 61.2802 73.0596 62.1821L69.9534 67.8904L63.7169 68.9839C62.7072 69.1593 61.8785 69.8755 61.5547 70.853ZM71.1877 70.7279C71.6392 70.6488 72.0299 70.368 72.249 69.9654L75.5001 63.9907L78.6096 69.8527C78.8244 70.2576 79.2121 70.5424 79.6628 70.6265L86.3522 71.8726L81.738 76.6414C81.4194 76.9707 81.2682 77.4276 81.3276 77.8821L82.2094 84.6277L76.2524 81.7151C75.8408 81.5139 75.3595 81.5113 74.9456 81.7082L68.7962 84.6345L69.7262 78.0633C69.7904 77.6094 69.6442 77.1512 69.329 76.8184L64.6464 71.8749L71.1877 70.7279Z" fill="#17A3D0"/>
<path d="M61.9653 52.3105C62.7959 52.3105 63.4692 51.6372 63.4692 50.8066C63.4692 49.976 62.7959 49.3027 61.9653 49.3027H61.9642C61.1336 49.3027 60.4609 49.976 60.4609 50.8066C60.4609 51.6372 61.1347 52.3105 61.9653 52.3105Z" fill="#17A3D0"/>
</svg>
