<svg width="149" height="142" viewBox="0 0 149 142" fill="none" xmlns="http://www.w3.org/2000/svg">
<path d="M82.8502 114.152C101.244 108.084 124.254 113.413 138.859 90.2156C164.504 49.4849 127.339 -12.5483 64.9509 3.77713C-6.62594 22.5069 -17.6974 139.013 32.8095 140.974C57.1253 141.918 59.576 121.83 82.8502 114.152Z" fill="#EBFAFF"/>
<g clip-path="url(#clip0)">
<path d="M100.506 84.2624C101.391 84.2624 102.108 83.5453 102.108 82.6608C102.108 81.7763 101.391 81.0593 100.506 81.0593C99.6218 81.0593 98.9048 81.7763 98.9048 82.6608C98.9048 83.5453 99.6218 84.2624 100.506 84.2624Z" fill="#17A3D0"/>
<path d="M115.76 41.3933C114.966 39.5161 113.831 37.8311 112.383 36.3834C110.936 34.9374 109.25 33.8007 107.373 33.0072C105.43 32.1848 103.368 31.7679 101.239 31.7679H101.236C99.9064 31.7679 98.5835 31.9346 97.3038 32.2632C96.0644 32.5823 94.8648 33.0536 93.7371 33.6644C89.6213 28.7942 83.6041 26 77.2314 26C75.4905 26 73.7609 26.2068 72.0856 26.6171C70.4584 27.0148 68.8761 27.6046 67.3836 28.371C65.9182 29.1229 64.5344 30.0446 63.274 31.1122C62.0216 32.1735 60.8877 33.379 59.9073 34.692C58.6022 33.7605 57.1703 33.0376 55.6488 32.5422C54.0744 32.0275 52.4312 31.7679 50.764 31.7679H50.7608C48.6323 31.7679 46.5695 32.1848 44.6267 33.0072C42.7496 33.8007 41.0632 34.9374 39.6171 36.3834C38.1693 37.8311 37.0321 39.5159 36.2394 41.3933C35.4178 43.3361 35 45.401 35 47.53C35 51.6147 36.5582 55.4894 39.3835 58.4361C40.7592 59.8708 42.3672 61.0188 44.1641 61.8476C46.0157 62.702 47.9919 63.1814 50.0387 63.2744L53.1363 106.511C53.1651 106.918 53.3445 107.293 53.6422 107.57C53.9386 107.848 54.3262 108 54.733 108H98.8062C99.213 108 99.6006 107.848 99.8971 107.57C100.195 107.293 100.374 106.918 100.403 106.511L101.588 89.9698C101.619 89.5417 101.481 89.1297 101.201 88.8059C100.92 88.4821 100.531 88.2865 100.105 88.2559C100.067 88.2527 100.027 88.2511 99.9884 88.2511C99.1538 88.2511 98.4541 88.9052 98.393 89.7388V89.7404L97.7854 98.2277H88.2142L88.5846 92.9243C88.6464 92.0411 87.981 91.275 87.0987 91.2132C86.2167 91.1506 85.451 91.8173 85.3893 92.7006L85.0032 98.2277H68.4706L68.0844 92.7006C68.0228 91.8175 67.2585 91.1509 66.3751 91.2132C65.4926 91.275 64.8273 92.0411 64.8892 92.9243L65.2596 98.2277H55.8203C55.7979 98.2277 55.7759 98.2301 55.7537 98.2311L53.2354 63.0736C54.8518 62.7877 56.4991 62.2307 58.0037 61.4506C58.7891 61.0433 59.0961 60.076 58.6894 59.2898C58.2826 58.5039 57.3167 58.1964 56.5306 58.6035C54.9098 59.4438 53.1007 59.9627 51.4325 60.0672C51.2016 60.0779 50.9765 60.0843 50.761 60.0843C47.4073 60.0843 44.2538 58.7777 41.8803 56.4068C39.51 54.0323 38.2031 50.8804 38.2031 47.53C38.2031 44.1777 39.51 41.0244 41.8803 38.6519C44.2538 36.2809 47.4073 34.9744 50.761 34.9744C53.4508 34.9744 56.0466 35.8344 58.1945 37.4137C57.6176 38.4557 57.1711 39.4262 56.8453 40.3513C56.5514 41.1863 56.9893 42.1019 57.8235 42.3962C57.9996 42.4583 58.1793 42.4878 58.3557 42.4878C59.0161 42.4878 59.6343 42.0758 59.8663 41.417C60.2435 40.3454 61.737 37.6986 61.7663 37.6326C65.1826 32.3512 70.9403 29.2063 77.2313 29.2063C83.0848 29.2063 88.4427 31.891 91.9588 36.5766C91.9738 36.5995 93.9998 39.7643 94.5459 41.2755C94.7817 41.928 95.3967 42.3339 96.052 42.3339C96.2329 42.3339 96.4167 42.3029 96.5966 42.2378C97.4283 41.9367 97.8588 41.0175 97.5578 40.1849C97.0926 38.8972 96.4452 37.5944 95.6318 36.2947C97.3642 35.4284 99.2744 34.9744 101.239 34.9744C104.592 34.9744 107.746 36.2809 110.119 38.6519C112.49 41.0244 113.795 44.1777 113.797 47.53C113.8 54.2022 108.583 59.7089 101.922 60.0665C101.88 60.0688 101.379 60.0665 101.144 60.0665C99.0247 60.0665 97.0311 59.5197 95.0496 58.3946C94.2806 57.9579 93.3028 58.2281 92.8664 58.9981C92.43 59.7681 92.7 60.7467 93.4694 61.1834C95.6478 62.4203 97.9382 63.1116 100.289 63.2466L99.4225 75.3489C99.3599 76.2306 100.025 76.9986 100.906 77.0628C100.944 77.066 100.982 77.0676 101.021 77.0676H101.023C101.857 77.0676 102.559 76.4135 102.618 75.5783L103.51 63.1268C107.222 62.5914 110.633 60.7332 113.113 57.8926C114.341 56.4881 115.299 54.8964 115.964 53.1601C116.651 51.3646 117 49.4696 117 47.53C117 45.401 116.582 43.3361 115.76 41.3933ZM97.5558 101.434L97.3152 104.794H56.2239L55.9832 101.434H97.5558Z" fill="#17A3D0"/>
</g>
<defs>
<clipPath id="clip0">
<rect width="82" height="82" fill="white" transform="translate(35 26)"/>
</clipPath>
</defs>
</svg>
