<svg width="149" height="142" viewBox="0 0 149 142" fill="none" xmlns="http://www.w3.org/2000/svg">
<path d="M82.8502 114.152C101.244 108.084 124.254 113.413 138.859 90.2156C164.504 49.4849 127.339 -12.5483 64.9509 3.77713C-6.62594 22.5069 -17.6974 139.013 32.8095 140.974C57.1253 141.918 59.576 121.83 82.8502 114.152Z" fill="#EBFAFF"/>
<g clip-path="url(#clip0)">
<path d="M79.6875 31H57.2292C51.037 31 46 36.037 46 42.2292V96.7709C46 102.963 51.037 108 57.2292 108H60.4375C61.323 108 62.0417 107.281 62.0417 106.396C62.0417 105.51 61.323 104.792 60.4375 104.792H57.2292C52.8082 104.792 49.2084 101.192 49.2084 96.7708V42.2292C49.2084 37.8082 52.8082 34.2084 57.2292 34.2084H79.6875C84.1085 34.2084 87.7083 37.8082 87.7083 42.2292V58.2709C87.7083 59.1564 88.427 59.8752 89.3125 59.8752C90.198 59.8752 90.9167 59.1564 90.9167 58.2709V42.2292C90.9167 36.037 85.8795 31 79.6875 31Z" fill="#17A3D0"/>
<path d="M89.3125 43.8333H47.6042C46.7187 43.8333 46 44.552 46 45.4375C46 46.323 46.7187 47.0417 47.6042 47.0417H89.3125C90.198 47.0417 90.9167 46.323 90.9167 45.4375C90.9167 44.552 90.198 43.8333 89.3125 43.8333Z" fill="#17A3D0"/>
<path d="M74.875 88.75H47.6042C46.7187 88.75 46 89.4687 46 90.3542C46 91.2397 46.7187 91.9584 47.6042 91.9584H74.875C75.7605 91.9584 76.4792 91.2397 76.4792 90.3542C76.4792 89.4687 75.7605 88.75 74.875 88.75Z" fill="#17A3D0"/>
<path d="M73.2707 37.4167H63.6457C62.7602 37.4167 62.0415 38.1354 62.0415 39.0209C62.0415 39.9064 62.7602 40.625 63.6457 40.625H73.2707C74.1562 40.625 74.8749 39.9063 74.8749 39.0208C74.8749 38.1353 74.1562 37.4167 73.2707 37.4167Z" fill="#17A3D0"/>
<path d="M79.7515 37.4167H79.7195C78.834 37.4167 78.1313 38.1354 78.1313 39.0209C78.1313 39.9064 78.866 40.625 79.7515 40.625C80.637 40.625 81.3557 39.9063 81.3557 39.0208C81.3557 38.1353 80.637 37.4167 79.7515 37.4167Z" fill="#17A3D0"/>
<path d="M118.412 73.4623L106.349 60.2055C103.962 57.8185 100.073 57.8154 97.6637 60.2248C96.9002 60.9883 96.3804 61.9027 96.1109 62.8781C93.7111 61.0429 90.2493 61.2226 88.0387 63.4332C87.2783 64.1968 86.7586 65.1111 86.4826 66.0833C84.0828 64.248 80.621 64.4278 78.4137 66.6415C77.6661 67.3891 77.1528 68.2842 76.8737 69.2306L71.1885 63.5454C68.8015 61.1584 64.913 61.1553 62.5036 63.5647C60.1134 65.9517 60.1134 69.8402 62.5036 72.2303L84.3458 94.0726L71.3906 96.1067C67.8902 96.6072 65.2498 99.6487 65.2498 103.187C65.2498 105.841 67.409 108 70.0623 108H100.314C105.027 108 109.457 106.165 112.791 102.831L117.838 97.7847C121.168 94.4576 123 90.0301 123 85.3235C123 80.928 121.37 76.7156 118.412 73.4623ZM115.569 95.5164L110.523 100.563C107.796 103.29 104.17 104.792 100.314 104.792H70.0623C69.1768 104.792 68.4581 104.073 68.4581 103.187C68.4581 101.237 69.9147 99.5587 71.8654 99.2764L87.9552 96.7482C88.552 96.6551 89.0428 96.2349 89.2322 95.6606C89.4182 95.0896 89.2675 94.4575 88.8407 94.0308L64.7686 69.9588C63.6297 68.8199 63.6297 66.9686 64.7878 65.8104C65.3589 65.2426 66.1065 64.957 66.8541 64.957C67.6017 64.957 68.3491 65.2426 68.9203 65.8136L84.9716 81.865C85.5972 82.4906 86.6143 82.4906 87.24 81.865C87.5511 81.5505 87.7084 81.1399 87.7084 80.7292C87.7084 80.3185 87.5513 79.9079 87.24 79.5966L80.6853 73.042C79.5464 71.9031 79.5464 70.0518 80.7046 68.8936C81.8403 67.7579 83.698 67.7579 84.8337 68.8936L91.3883 75.4482C92.014 76.0739 93.0311 76.0739 93.6567 75.4482C93.9678 75.1338 94.1251 74.7232 94.1251 74.3125C94.1251 73.9018 93.968 73.4912 93.6696 73.1928L90.3233 69.8465C89.1844 68.7076 89.1844 66.8563 90.3425 65.6981C91.4783 64.5624 93.3359 64.5624 94.4716 65.6981L97.818 69.0444C97.8211 69.0476 97.8211 69.0476 97.8211 69.0476L97.8243 69.0508C97.8275 69.0539 97.8275 69.0539 97.8275 69.0539C97.8306 69.0571 97.8306 69.0571 97.8306 69.0571H97.8338C97.8369 69.0571 97.8369 69.0602 97.8369 69.0602C98.4657 69.6538 99.4571 69.6442 100.073 69.0282C100.699 68.4026 100.699 67.3855 100.073 66.7599L99.9352 66.622C99.3834 66.0702 99.0786 65.3354 99.0786 64.5557C99.0786 63.7761 99.3801 63.0446 99.9513 62.4736C101.09 61.3378 102.941 61.341 104.029 62.419L116.041 75.6213C118.457 78.281 119.792 81.7267 119.792 85.3233C119.792 89.1735 118.293 92.7925 115.569 95.5164Z" fill="#17A3D0"/>
</g>
<defs>
<clipPath id="clip0">
<rect width="77" height="77" fill="white" transform="translate(46 31)"/>
</clipPath>
</defs>
</svg>
