<svg width="190" height="30" viewBox="0 0 190 30" fill="none" xmlns="http://www.w3.org/2000/svg">
<path d="M15.3555 0C23.5748 0 30.703 6.17526 30.703 14.9959C30.703 23.8165 23.5748 30 15.3555 30C7.13615 30 0 23.8247 0 14.9959C0 6.16708 7.16801 0 15.3555 0ZM15.4351 21.7936C16.3017 21.8098 17.1623 21.6441 17.9645 21.3065C18.7666 20.969 19.4933 20.4667 20.1001 19.8304C20.707 19.194 21.1812 18.4371 21.4938 17.6059C21.8064 16.7746 21.9508 15.8865 21.9182 14.9959C21.9519 14.1046 21.8084 13.2156 21.4963 12.3834C21.1842 11.5512 20.7101 10.7933 20.1031 10.1561C19.4962 9.51888 18.7691 9.01584 17.9664 8.67777C17.1637 8.3397 16.3024 8.17372 15.4351 8.19001C14.5686 8.17271 13.7077 8.33737 12.9052 8.67394C12.1027 9.01051 11.3754 9.51189 10.7678 10.1474C10.1602 10.783 9.68512 11.5393 9.37153 12.3701C9.05795 13.201 8.9125 14.0889 8.94408 14.9795C8.91492 15.8707 9.06186 16.7587 9.37601 17.5898C9.69015 18.4209 10.165 19.1778 10.7718 19.8148C11.3785 20.4517 12.1047 20.9555 12.9062 21.2957C13.7078 21.6358 14.5681 21.8052 15.4351 21.7936Z" fill="white"/>
<path d="M31.587 24.6273L38.9621 6.85497C39.1626 6.32703 39.5112 5.8723 39.9636 5.54856C40.4159 5.22482 40.9517 5.04668 41.5028 5.03679C42.0171 5.02521 42.5236 5.1677 42.9606 5.4469C43.3975 5.7261 43.7461 6.12996 43.9638 6.60927L47.269 14.0704L50.5345 6.69936C50.7507 6.20712 51.1015 5.79019 51.5442 5.49936C51.9868 5.20853 52.5021 5.05634 53.0273 5.06136C53.5857 5.08342 54.1261 5.27052 54.5838 5.60024C55.0414 5.92996 55.397 6.38834 55.6078 6.92049L60.9679 19.8935C61.1724 20.3914 61.2806 20.9255 61.2865 21.4659C61.2759 22.331 60.9736 23.1655 60.4312 23.8269C59.8888 24.4882 59.1399 24.9354 58.3125 25.092C57.4851 25.2487 56.6304 25.105 55.8946 24.6857C55.1587 24.2663 54.5872 23.5972 54.2778 22.7927L52.2229 17.6576L49.7619 23.2923C49.5458 23.7891 49.1965 24.2124 48.7551 24.5126C48.3136 24.8128 47.7982 24.9776 47.269 24.9876C46.7376 24.9831 46.2188 24.8207 45.7751 24.5199C45.3313 24.2191 44.9817 23.7928 44.7682 23.2923L42.2674 17.7804L38.2294 27.5266C37.9614 28.2402 37.4922 28.8554 36.8821 29.2931C36.2719 29.7309 35.5486 29.9713 34.8047 29.9836C34.3318 29.9891 33.8627 29.8972 33.425 29.7134C32.9872 29.5297 32.5896 29.2577 32.2556 28.9135C31.9216 28.5693 31.658 28.1598 31.4803 27.7092C31.3025 27.2586 31.2143 26.7761 31.2207 26.2899C31.238 25.7166 31.3624 25.1522 31.587 24.6273Z" fill="white"/>
<path d="M73.273 4.74219C79.3578 4.74219 83.8737 9.34497 83.8737 14.9387C83.8737 20.5325 79.3817 25.1271 73.273 25.1271C67.1642 25.1271 62.6802 20.5325 62.6802 14.9387C62.6802 9.34497 67.212 4.74219 73.273 4.74219ZM73.273 17.8462C73.8306 17.8462 74.3757 17.6762 74.8394 17.3576C75.303 17.039 75.6644 16.5862 75.8778 16.0564C76.0912 15.5267 76.147 14.9437 76.0382 14.3813C75.9294 13.8189 75.6609 13.3023 75.2666 12.8968C74.8723 12.4914 74.3699 12.2153 73.823 12.1034C73.2761 11.9915 72.7092 12.0489 72.194 12.2684C71.6788 12.4878 71.2385 12.8594 70.9287 13.3362C70.6189 13.813 70.4535 14.3735 70.4535 14.9469C70.4514 15.3279 70.523 15.7055 70.664 16.0578C70.805 16.4101 71.0128 16.73 71.2751 16.999C71.5374 17.268 71.8491 17.4807 72.1921 17.6247C72.5351 17.7688 72.9025 17.8413 73.273 17.838V17.8462Z" fill="white"/>
<path d="M87.3223 19.3693C87.7568 18.0139 88.0243 16.6079 88.1187 15.1842L88.5647 9.2628C88.5835 8.18956 89.0113 7.16682 89.7561 6.41473C90.5009 5.66264 91.5031 5.24133 92.5469 5.24151H103.538C104.065 5.235 104.588 5.33612 105.076 5.539C105.565 5.74188 106.01 6.04249 106.385 6.42339C106.76 6.8043 107.057 7.25793 107.26 7.75799C107.463 8.25804 107.568 8.79459 107.568 9.33651V20.9827C107.568 22.0764 107.145 23.1252 106.393 23.8986C105.641 24.6719 104.621 25.1064 103.558 25.1064C102.494 25.1064 101.474 24.6719 100.722 23.8986C99.9702 23.1252 99.5477 22.0764 99.5477 20.9827V11.7034H96.6486L96.3699 15.5609C96.2357 17.9721 95.6968 20.3412 94.777 22.5634C94.4592 23.4936 93.8258 24.2747 92.993 24.7633C92.1601 25.2518 91.1839 25.415 90.2435 25.2227C89.3031 25.0305 88.4617 24.4959 87.8738 23.717C87.286 22.938 86.9912 21.9672 87.0435 20.9827C87.0527 20.4331 87.1468 19.8885 87.3223 19.3693Z" fill="white"/>
<path d="M121.291 4.74219C127.376 4.74219 131.891 9.34497 131.891 14.9387C131.891 20.5325 127.376 25.1271 121.291 25.1271C115.206 25.1271 110.706 20.5325 110.706 14.9387C110.706 9.34497 115.206 4.74219 121.291 4.74219ZM121.291 17.8462C121.848 17.8462 122.393 17.6762 122.857 17.3576C123.321 17.039 123.682 16.5862 123.895 16.0564C124.109 15.5267 124.165 14.9437 124.056 14.3813C123.947 13.8189 123.679 13.3023 123.284 12.8968C122.89 12.4914 122.388 12.2153 121.841 12.1034C121.294 11.9915 120.727 12.0489 120.212 12.2684C119.697 12.4878 119.256 12.8594 118.946 13.3362C118.637 13.813 118.471 14.3735 118.471 14.9469C118.469 15.3279 118.541 15.7055 118.682 16.0578C118.823 16.4101 119.03 16.73 119.293 16.999C119.555 17.268 119.867 17.4807 120.21 17.6247C120.553 17.7688 120.92 17.8413 121.291 17.838V17.8462Z" fill="white"/>
<path d="M134.997 8.3457C135.044 7.27955 135.488 6.27279 136.238 5.53512C136.988 4.79745 137.986 4.38574 139.024 4.38574C140.061 4.38574 141.059 4.79745 141.809 5.53512C142.559 6.27279 143.003 7.27955 143.05 8.3457V11.5398L148.41 5.98698C148.743 5.62906 149.143 5.3449 149.587 5.15196C150.031 4.95901 150.508 4.86135 150.99 4.86495C151.962 4.86927 152.892 5.2687 153.579 5.97606C154.265 6.68342 154.652 7.64127 154.654 8.64054C154.652 9.1421 154.548 9.63773 154.348 10.095C154.148 10.5523 153.855 10.9609 153.491 11.2941L149.819 14.521L158.421 23.2679C158.83 23.6382 159.162 24.0894 159.397 24.5946C159.632 25.0998 159.766 25.6485 159.791 26.2081C159.789 26.7007 159.692 27.188 159.507 27.6423C159.322 28.0966 159.051 28.5089 158.711 28.8557C158.371 29.2025 157.968 29.477 157.524 29.6635C157.081 29.85 156.606 29.9449 156.127 29.9428C155.57 29.9296 155.023 29.7925 154.522 29.5408C154.022 29.2892 153.58 28.9289 153.228 28.4849L143.05 17.1991V21.548C143.074 22.1072 142.988 22.6656 142.796 23.1896C142.605 23.7135 142.312 24.1922 141.936 24.5967C141.56 25.0012 141.108 25.3231 140.607 25.543C140.106 25.7629 139.568 25.8763 139.024 25.8763C138.479 25.8763 137.941 25.7629 137.44 25.543C136.939 25.3231 136.487 25.0012 136.111 24.5967C135.735 24.1922 135.442 23.7135 135.251 23.1896C135.059 22.6656 134.973 22.1072 134.997 21.548V8.3457Z" fill="white"/>
<path d="M174.645 0C182.864 0 190 6.17526 190 14.9959C190 23.8165 182.832 30 174.645 30C166.457 30 159.289 23.8247 159.289 14.9959C159.289 6.16708 166.457 0 174.645 0ZM174.724 21.7936C175.59 21.8051 176.449 21.6362 177.249 21.2971C178.05 20.9579 178.775 20.4556 179.382 19.8204C179.988 19.1852 180.463 18.4303 180.778 17.6011C181.094 16.7719 181.242 15.8857 181.215 14.9959C181.246 14.1002 181.101 13.2074 180.788 12.3707C180.476 11.5339 180.003 10.7704 179.398 10.1257C178.792 9.48095 178.067 8.96818 177.265 8.61797C176.462 8.26776 175.6 8.08727 174.728 8.08727C173.857 8.08727 172.994 8.26776 172.192 8.61797C171.389 8.96818 170.664 9.48095 170.059 10.1257C169.453 10.7704 168.98 11.5339 168.668 12.3707C168.356 13.2074 168.211 14.1002 168.241 14.9959C168.208 15.8865 168.353 16.7746 168.665 17.6059C168.978 18.4371 169.452 19.194 170.059 19.8304C170.666 20.4667 171.393 20.969 172.195 21.3065C172.997 21.6441 173.858 21.8098 174.724 21.7936Z" fill="white"/>
</svg>
