<svg width="118" height="112" viewBox="0 0 118 112" fill="none" xmlns="http://www.w3.org/2000/svg">
<path d="M71.6276 30.4587C92.1284 34.3951 108.207 33.805 110.76 54.5237C112.607 69.5204 105.67 86.7491 93.2195 95.3106C68.035 112.629 49.3539 110.323 35.2762 89.1941C18.065 63.3617 41.1437 24.6053 71.6276 30.4587Z" fill="#99E7FF"/>
<path d="M105.224 30.4343L53.7765 0.731016C53.2962 0.453594 52.704 0.453594 52.2237 0.731016L0.776369 30.4343C0.296055 30.7117 0 31.2241 0 31.7789C0 32.3338 0.296055 32.8462 0.776369 33.1236L18.8525 43.5597C19.5949 43.9882 20.5448 43.7342 20.9735 42.9914C21.4023 42.2487 21.1479 41.2991 20.4052 40.8703L4.65821 31.7789L53.0001 3.86858L101.342 31.7789L53.0001 59.6893L33.4872 48.4234L55.3292 35.8131C56.7875 34.9712 57.6583 33.4629 57.6583 31.7791C57.6583 30.0954 56.7875 28.5871 55.3292 27.7451C53.8928 26.9156 52.1076 26.9156 50.671 27.7451L26.4998 41.7001C24.1055 43.0827 22.618 45.659 22.618 48.4239V76.1839C20.7336 77.6019 19.5125 79.856 19.5125 82.3905V105.164C19.5125 106.022 20.2077 106.717 21.0653 106.717H33.4872C34.3447 106.717 35.0399 106.022 35.0399 105.164V82.3905C35.0399 79.856 33.8188 77.6014 31.9344 76.1837V65.4417C39.2758 68.3807 46.1556 72.7401 51.9399 78.1443C52.2382 78.4232 52.6192 78.5625 52.9999 78.5625C53.3806 78.5625 53.7616 78.4232 54.0599 78.1443C61.2012 71.4727 69.8854 66.4588 79.1739 63.644C79.8287 63.4457 80.2763 62.8422 80.2763 62.1579V47.527L105.224 33.1238C105.704 32.8464 106 32.334 106 31.7791C106 31.2243 105.704 30.7115 105.224 30.4343ZM22.6182 87.8903H25.7237V103.611H22.6182V87.8903ZM28.8292 103.611V87.8903H31.9346V103.611H28.8292ZM31.9346 84.7848H22.6182V82.3903C22.6182 79.8219 24.7078 77.7321 27.2764 77.7321C29.8451 77.7321 31.9346 79.8219 31.9346 82.3903V84.7848ZM27.2764 74.6266C26.7448 74.6266 26.2255 74.6806 25.7237 74.7829V48.4237C25.7237 46.7647 26.6162 45.219 28.0528 44.3894L52.2237 30.4345C52.7026 30.1579 53.2976 30.1579 53.7765 30.4345C54.4773 30.839 54.5528 31.5096 54.5528 31.7791C54.5528 32.0487 54.4773 32.7193 53.7765 33.1238L29.6055 47.0788C29.1252 47.3562 28.8292 47.8686 28.8292 48.4234V74.7829C28.3271 74.6804 27.8079 74.6266 27.2764 74.6266ZM31.9344 51.1126L51.4472 62.3784V73.5654C45.6497 68.6958 38.9801 64.7758 31.9344 62.1082V51.1126ZM77.1711 61.0164C68.9463 63.6688 61.2077 67.9685 54.5528 73.5633V62.3784L77.1711 49.3197V61.0164Z" fill="#083645"/>
</svg>
