<svg width="103" height="104" viewBox="0 0 103 104" fill="none" xmlns="http://www.w3.org/2000/svg">
<path d="M47.9846 36.4644C36.9086 40.571 22.6418 38.3762 14.432 52.0676C0.0171669 76.1072 24.7608 109.972 62.4638 98.4587C105.72 85.2493 108.794 18.7314 77.7887 19.4388C62.8613 19.7793 61.9993 31.2683 47.9846 36.4644Z" fill="#99E7FF"/>
<path d="M87.5167 0H1.48333C0.664162 0 0 0.664162 0 1.48333V60.8167C0 61.6358 0.664162 62.3 1.48333 62.3H28.2679C28.3124 62.7939 28.3851 63.2805 28.4726 63.7626L20.3365 73.4591C19.8095 74.0864 19.8909 75.022 20.5182 75.549C20.6949 75.6975 20.9041 75.8026 21.1286 75.8562L30.085 77.9952L33.7473 86.4502C34.0729 87.2018 34.9462 87.5474 35.6979 87.2219C35.9096 87.1303 36.0969 86.9905 36.2453 86.8136L44.368 77.1333C44.4125 77.1333 44.4555 77.1333 44.5 77.1333C44.5445 77.1333 44.5875 77.1333 44.632 77.1333L52.7547 86.8136C53.281 87.4414 54.2166 87.5237 54.8444 86.9975C55.0211 86.8494 55.1609 86.6619 55.2527 86.4502L58.915 77.9952L67.8714 75.8562C68.6683 75.6663 69.1606 74.8664 68.9707 74.0695C68.9172 73.845 68.812 73.6358 68.6635 73.4591L60.5274 63.7626C60.6149 63.2805 60.6876 62.7939 60.7321 62.3H87.5167C88.3358 62.3 89 61.6358 89 60.8167V1.48333C89 0.663977 88.3358 0 87.5167 0ZM35.5155 83.0667L32.5117 76.1395C32.3261 75.7112 31.9497 75.3952 31.4956 75.2866L24.1531 73.5318L29.4783 67.1846C29.5065 67.2499 29.5436 67.3092 29.5717 67.3745C29.7646 67.8195 29.9737 68.2422 30.2051 68.662C30.3001 68.8371 30.4009 69.0091 30.5018 69.1797C30.7056 69.5188 30.921 69.8511 31.1485 70.1765C31.3072 70.4035 31.4734 70.6215 31.644 70.844C31.8427 71.0962 32.0474 71.3424 32.2625 71.5857C32.4776 71.8289 32.7283 72.0974 32.976 72.3437C33.1584 72.5261 33.3468 72.7026 33.5396 72.8762C33.6999 73.0245 33.8437 73.1803 34.0114 73.3212C34.179 73.4621 34.3362 73.557 34.4964 73.6816C34.5691 73.738 34.6314 73.8033 34.7056 73.8581C34.8391 73.959 34.98 74.0465 35.1164 74.1429C35.33 74.2913 35.5407 74.4515 35.7617 74.5879C36.1829 74.8579 36.6176 75.1041 37.0581 75.3296C37.2272 75.4156 37.3993 75.4943 37.5714 75.5744C37.9668 75.7603 38.3649 75.9294 38.7654 76.0816C38.8811 76.1247 38.9953 76.1736 39.111 76.2137C39.6729 76.4111 40.2454 76.5771 40.8258 76.7106L40.8421 76.715L35.5155 83.0667ZM47.2857 73.8522C46.6054 73.9959 45.9151 74.0868 45.2209 74.1236H45.2016C44.9673 74.1355 44.7329 74.1518 44.497 74.1518C44.2612 74.1518 44.0268 74.1355 43.7924 74.1236H43.7732C43.0805 74.0866 42.3916 73.9963 41.7128 73.8537L41.5882 73.8285C41.3242 73.7706 41.0631 73.6994 40.805 73.6253C40.6967 73.5941 40.587 73.5659 40.4802 73.5318C40.2948 73.4739 40.1123 73.4057 39.9299 73.3405C39.7474 73.2752 39.5739 73.2114 39.3988 73.1387C39.2905 73.0927 39.1837 73.0438 39.0769 72.9904C38.8337 72.8806 38.5919 72.7694 38.356 72.6463L38.2374 72.581C37.6259 72.2539 37.0407 71.8799 36.487 71.4626C36.1785 71.2326 35.8937 70.979 35.6133 70.7283C35.2818 70.4326 34.9653 70.1201 34.6655 69.7923C34.5468 69.6647 34.4193 69.5431 34.3065 69.4111C33.8923 68.9238 33.5144 68.4067 33.1762 67.864C33.1258 67.7839 33.0828 67.6993 33.0279 67.6163C32.7125 67.0893 32.4349 66.5405 32.1972 65.9742C32.1765 65.9238 32.1527 65.8734 32.1334 65.8259C31.8707 65.1769 31.6593 64.5085 31.5015 63.8264C31.5015 63.7996 31.4808 63.7789 31.4734 63.7522C31.2579 62.7886 31.1494 61.804 31.15 60.8167C31.1455 53.4436 37.1189 47.4631 44.4918 47.4585C51.8649 47.4541 57.8454 53.4274 57.85 60.8004C57.8506 61.799 57.7391 62.7945 57.5177 63.7683C57.5103 63.7935 57.4955 63.8158 57.4896 63.841C57.3319 64.5224 57.1211 65.1905 56.8591 65.8391C56.8384 65.891 56.8146 65.9429 56.7924 65.9874C56.5554 66.5501 56.2788 67.0954 55.9647 67.619C55.9157 67.7021 55.8712 67.7896 55.8164 67.8727C55.4782 68.4147 55.1008 68.9312 54.6875 69.4183C54.5763 69.5489 54.4502 69.6675 54.333 69.7951C54.0291 70.1259 53.7087 70.4413 53.3733 70.74C53.0915 70.9907 52.8111 71.2443 52.5041 71.4727C52.197 71.7012 51.9226 71.894 51.623 72.0854L51.6052 72.0957C51.3367 72.2663 51.0623 72.4236 50.7834 72.5719C50.7285 72.6016 50.6751 72.6327 50.6202 72.6609C50.3962 72.7781 50.1752 72.8834 49.9394 72.9857C49.8207 73.0392 49.7035 73.094 49.5834 73.143C49.4172 73.2127 49.2482 73.2735 49.0791 73.3343C48.91 73.3951 48.7008 73.4738 48.508 73.5331C48.4056 73.5657 48.3018 73.5939 48.198 73.6236C47.9354 73.6978 47.6714 73.7719 47.4044 73.8283L47.2857 73.8522ZM64.8469 73.5274L57.5044 75.2821C57.0503 75.3908 56.6739 75.7067 56.4883 76.135L53.4846 83.0667L48.1579 76.7195H48.1712C48.7538 76.5864 49.3284 76.42 49.8919 76.2211C50.0032 76.1825 50.11 76.1365 50.2212 76.0965C50.6351 75.9392 51.043 75.7672 51.4435 75.5758C51.6067 75.5002 51.7698 75.4275 51.93 75.3444C52.375 75.113 52.82 74.8624 53.2472 74.5879C53.4534 74.4574 53.6507 74.3105 53.8509 74.1696C53.9993 74.0673 54.1476 73.9738 54.2959 73.8656C54.3745 73.8062 54.4443 73.7365 54.5214 73.6757C54.6697 73.554 54.8418 73.4517 54.9931 73.3241C55.1444 73.1966 55.2987 73.0275 55.4559 72.888C55.6517 72.71 55.8445 72.5305 56.0314 72.3451C56.2756 72.1009 56.512 71.8497 56.7405 71.5916C56.9555 71.3483 57.1602 71.1021 57.3605 70.8499C57.5311 70.6319 57.6972 70.4049 57.8559 70.1824C58.0844 69.8591 58.3009 69.5268 58.5012 69.1886C58.605 69.0165 58.7059 68.843 58.7979 68.6665C59.0283 68.2482 59.2384 67.8204 59.4283 67.3834C59.455 67.3077 59.4935 67.2469 59.5217 67.1802L64.8469 73.5274ZM86.0333 59.3333H60.741C59.9361 50.3629 52.0114 43.7433 43.041 44.5484C35.186 45.2533 28.961 51.4783 28.256 59.3333H2.96667V2.96667H86.0333V59.3333Z" fill="#083645"/>
<path d="M7.42065 5.93311C6.60148 5.93311 5.93732 6.59727 5.93732 7.41644V11.8664C5.93732 12.6857 6.60143 13.3498 7.42065 13.3498C8.23987 13.3498 8.90398 12.6857 8.90398 11.8664V11.1248C8.90398 9.89594 9.90015 8.89977 11.129 8.89977H11.8706C12.6899 8.89977 13.354 8.23566 13.354 7.41644C13.354 6.59722 12.6899 5.93311 11.8707 5.93311H7.42065Z" fill="#083645"/>
<path d="M81.5849 5.93311H77.1349C76.3157 5.93311 75.6516 6.59722 75.6516 7.41644C75.6516 8.23566 76.3157 8.89977 77.1349 8.89977H77.8765C79.1054 8.89977 80.1016 9.89594 80.1016 11.1248V11.8664C80.1016 12.6857 80.7657 13.3498 81.5849 13.3498C82.4041 13.3498 83.0682 12.6857 83.0682 11.8664V7.41644C83.0682 6.59708 82.4041 5.93311 81.5849 5.93311Z" fill="#083645"/>
<path d="M81.5849 48.9497C80.7657 48.9497 80.1016 49.6138 80.1016 50.433V51.1747C80.1016 52.4035 79.1054 53.3997 77.8766 53.3997H77.1349C76.3157 53.3997 75.6516 54.0638 75.6516 54.883C75.6516 55.7023 76.3157 56.3664 77.1349 56.3664H81.5849C82.4041 56.3664 83.0682 55.7022 83.0682 54.883V50.433C83.0682 49.6138 82.4041 48.9497 81.5849 48.9497Z" fill="#083645"/>
<path d="M11.129 53.3997C9.90015 53.3997 8.90398 52.4035 8.90398 51.1747V50.433C8.90398 49.6138 8.23987 48.9497 7.42065 48.9497C6.60143 48.9497 5.93732 49.6138 5.93732 50.433V54.883C5.93732 55.7022 6.60148 56.3664 7.42065 56.3664H11.8707C12.6899 56.3664 13.354 55.7023 13.354 54.883C13.354 54.0638 12.6899 53.3997 11.8707 53.3997H11.129Z" fill="#083645"/>
<path d="M60.8168 16.3164H28.1835C27.3642 16.3164 26.7001 16.9805 26.7001 17.7997C26.7001 18.619 27.3642 19.2831 28.1835 19.2831H60.8168C61.636 19.2831 62.3001 18.619 62.3001 17.7997C62.3001 16.9805 61.636 16.3164 60.8168 16.3164Z" fill="#083645"/>
<path d="M69.7168 25.2168H19.2834C18.4642 25.2168 17.8001 25.8809 17.8001 26.7001C17.8001 27.5194 18.4642 28.1835 19.2834 28.1835H69.7168C70.536 28.1835 71.2001 27.5194 71.2001 26.7001C71.2001 25.8809 70.536 25.2168 69.7168 25.2168Z" fill="#083645"/>
<path d="M44.4999 50.4331C38.7653 50.4331 34.1165 55.0819 34.1165 60.8164C34.123 66.5482 38.7681 71.1933 44.4999 71.1998C50.2344 71.1998 54.8832 66.551 54.8832 60.8164C54.8832 55.0819 50.2344 50.4331 44.4999 50.4331ZM44.4999 68.2331C40.4038 68.2331 37.0832 64.9125 37.0832 60.8164C37.088 56.7224 40.4058 53.4046 44.4999 53.3998C48.5959 53.3998 51.9165 56.7204 51.9165 60.8164C51.9165 64.9125 48.5959 68.2331 44.4999 68.2331Z" fill="#083645"/>
</svg>
