<svg width="121" height="122" viewBox="0 0 121 122" fill="none" xmlns="http://www.w3.org/2000/svg">
<path d="M45.4356 50.5495C52.9775 41.4577 55.6298 27.2688 71.267 24.0548C98.7233 18.4116 122.487 52.9716 99.1402 84.7365C72.355 121.18 8.57037 102.059 19.5029 73.0362C24.7662 59.0634 35.8927 62.0536 45.4356 50.5495Z" fill="#99E7FF"/>
<path d="M0.0291748 89.3016V41.5073C0.0291748 41.4693 0.0491867 41.4383 0.0519485 41.3996C0.0560913 41.3451 0.0505676 41.2913 0.0623016 41.2375C0.0733414 41.1809 0.0988693 41.1298 0.116814 41.0746C0.140961 41.0042 0.165115 40.9366 0.198929 40.8711C0.224457 40.8221 0.243088 40.7738 0.274139 40.7289C0.282425 40.7144 0.283806 40.6992 0.293465 40.6847C0.317612 40.6523 0.354187 40.6351 0.379715 40.604C0.430779 40.5447 0.481842 40.4929 0.542564 40.4418C0.572243 40.4149 0.588799 40.3797 0.623299 40.3556L8.50012 34.7297V1.93615C8.50012 1.15434 9.1322 0.522949 9.91333 0.522949H72.0943C72.8762 0.522949 73.5075 1.15434 73.5075 1.93615V34.7242L81.2974 40.2893C81.3243 40.3045 81.3464 40.3245 81.3719 40.3425L81.3892 40.3556C81.4002 40.3639 81.4058 40.377 81.4175 40.3853C81.4258 40.3922 81.434 40.4025 81.443 40.4094C81.5217 40.4701 81.5928 40.5322 81.6562 40.6102C81.6804 40.6399 81.7156 40.6537 81.737 40.6847C81.7666 40.7261 81.7722 40.7738 81.7963 40.8179C81.8453 40.9042 81.8853 40.9884 81.915 41.0836C81.9447 41.174 81.9599 41.263 81.9702 41.3575C81.9757 41.41 81.9999 41.4534 81.9999 41.5073V89.5562C81.9999 89.6087 81.9757 89.6521 81.9702 89.7032C81.9599 89.7936 81.9433 89.8799 81.9164 89.9689C81.8867 90.0676 81.8453 90.1566 81.7963 90.2442C81.7735 90.2828 81.7694 90.3291 81.7425 90.3663C81.7239 90.3926 81.6928 90.4015 81.6728 90.4271C81.5741 90.5513 81.4554 90.6499 81.3195 90.7348C81.2733 90.7645 81.2353 90.8024 81.1856 90.8252C81.0035 90.9128 80.8027 90.9694 80.5867 90.9694H1.57142C1.51621 90.9763 1.46239 90.995 1.40719 90.995C0.964874 90.995 0.526695 90.7845 0.251373 90.3946C0.0208969 90.062 -0.0453491 89.668 0.0291748 89.3016ZM70.6784 3.34936H11.3238V46.8268L12.737 47.8356V9.00218C12.737 8.22036 13.3684 7.58897 14.1502 7.58897C14.932 7.58897 15.5634 6.95551 15.5634 6.17577C15.5634 5.39395 16.1948 4.76256 16.9766 4.76256H65.0256C65.8074 4.76256 66.4388 5.39395 66.4388 6.17577C66.4388 6.95551 67.0722 7.58897 67.852 7.58897C68.6338 7.58897 69.2652 8.22036 69.2652 9.00218V47.8543L70.6784 46.8447V3.34936ZM2.85558 86.8333L32.9021 65.7125L2.85558 44.2516V86.8333ZM41.0135 68.0331L66.4884 49.8381C66.4739 49.756 66.4388 49.6815 66.4388 49.5939V10.1552C65.2415 9.72879 64.2989 8.78757 63.8725 7.59035H18.1283C17.7018 8.78757 16.7592 9.73017 15.5634 10.1552V49.8554L41.0135 68.0331ZM49.0987 65.7312L79.1748 86.8361V44.2502L49.0987 65.7312ZM46.6594 67.4721L41.8346 70.9175C41.7953 70.9472 41.7498 70.9569 41.7091 70.981C41.6642 71.0079 41.62 71.0293 41.5731 71.0486C41.3937 71.1294 41.206 71.1832 41.0169 71.1832H41.0149H41.0135C40.823 71.1832 40.6353 71.1294 40.4539 71.0486C40.409 71.0293 40.3683 71.0093 40.3241 70.9838C40.282 70.9582 40.2351 70.9486 40.193 70.9175L35.3427 67.4535L5.91109 88.1416H76.1124L46.6594 67.4721ZM3.87202 41.5045L8.49599 44.807V38.202L3.87202 41.5045ZM73.5048 44.8271L78.146 41.5114L73.5048 38.1978V44.8271Z" fill="#083645"/>
<path d="M50.8906 33.0309H31.1058C30.3239 33.0309 29.6926 32.3995 29.6926 31.6177V21.7252C29.6926 21.6818 29.7139 21.6445 29.7181 21.6024C29.7264 21.5051 29.7464 21.4147 29.7747 21.3195C29.8043 21.2277 29.8368 21.1428 29.8816 21.06C29.903 21.0214 29.9058 20.9779 29.9299 20.9414C29.9568 20.9027 29.9962 20.8813 30.0231 20.8475C30.0866 20.7702 30.1549 20.7033 30.2308 20.6412C30.3005 20.586 30.3695 20.5384 30.444 20.497C30.5247 20.4549 30.6041 20.4238 30.6917 20.3955C30.7849 20.3659 30.878 20.3472 30.976 20.3376C31.0195 20.3334 31.0588 20.312 31.1044 20.312C31.1465 20.312 31.1851 20.3334 31.2272 20.3376C31.3231 20.3458 31.4163 20.3659 31.5115 20.3955C31.6033 20.4238 31.6882 20.4563 31.7717 20.5032C31.8082 20.5239 31.8517 20.5266 31.889 20.5508L35.0473 22.6596L39.8941 16.6038C39.9273 16.563 39.9749 16.543 40.0101 16.5065C40.0487 16.4685 40.0694 16.4188 40.1136 16.3836C40.1474 16.3553 40.1915 16.3498 40.2267 16.3243C40.3082 16.2705 40.3903 16.2291 40.4793 16.1939C40.5614 16.1614 40.6394 16.1331 40.7242 16.1166C40.8174 16.098 40.9092 16.0938 41.0051 16.0938C41.09 16.0952 41.1693 16.098 41.2528 16.1152C41.346 16.1318 41.4322 16.1614 41.5212 16.198C41.6075 16.2339 41.6862 16.2732 41.7641 16.3243C41.8007 16.3484 41.8435 16.3553 41.8787 16.3836C41.9194 16.4161 41.9394 16.4637 41.9774 16.5009C42.0153 16.5389 42.065 16.5603 42.0988 16.6024L46.9422 22.6568L50.1019 20.5494C50.1385 20.5239 50.1826 20.5211 50.2192 20.5018C50.3041 20.4549 50.3903 20.4224 50.4835 20.3941C50.5767 20.3645 50.6684 20.3458 50.765 20.3376C50.8071 20.3334 50.8437 20.312 50.8865 20.312C50.9313 20.312 50.97 20.3334 51.0148 20.3376C51.1156 20.3472 51.2101 20.3659 51.3074 20.3969C51.3895 20.4224 51.4654 20.4535 51.5406 20.4928C51.6228 20.5356 51.6945 20.586 51.767 20.6453C51.8415 20.7067 51.905 20.7702 51.9657 20.8447C51.9954 20.8799 52.0354 20.9013 52.0623 20.9414C52.0879 20.9779 52.0906 21.0214 52.1113 21.06C52.1569 21.1428 52.1907 21.2277 52.2176 21.3195C52.2472 21.4147 52.2673 21.5065 52.2755 21.6038C52.2824 21.6459 52.3038 21.6818 52.3038 21.7252V31.6177C52.3038 32.3995 51.6718 33.0309 50.8906 33.0309ZM47.4356 25.7275C47.3673 25.773 47.2928 25.7951 47.2203 25.8275C47.1727 25.8489 47.1285 25.8772 47.0788 25.8931C46.9395 25.9379 46.7952 25.9649 46.651 25.9649C46.4557 25.9649 46.2667 25.9172 46.0886 25.8393C46.07 25.831 46.0521 25.8275 46.032 25.8179C45.8637 25.7358 45.7167 25.6157 45.5897 25.4687C45.5766 25.4535 45.5587 25.4494 45.5456 25.4335L40.9954 19.7469L36.4419 25.4335C36.4308 25.4466 36.4149 25.4508 36.4053 25.4632C36.2769 25.6116 36.1286 25.733 35.9602 25.8165C35.9402 25.8262 35.9202 25.831 35.8995 25.8393C35.7214 25.9152 35.5331 25.9635 35.3399 25.9635C35.1943 25.9635 35.0514 25.9366 34.91 25.8917C34.8637 25.8758 34.8209 25.8489 34.7761 25.8296C34.7009 25.7965 34.6257 25.7716 34.5567 25.7261L32.519 24.3667V30.2045H49.4774V24.3667L47.4356 25.7275Z" fill="#083645"/>
<path d="M26.8695 38.6797H55.1335C55.9154 38.6797 56.5468 39.3111 56.5468 40.0929C56.5468 40.8747 55.9154 41.5061 55.1335 41.5061H26.8695C26.0876 41.5061 25.4562 40.8747 25.4562 40.0929C25.4562 39.3111 26.0876 38.6797 26.8695 38.6797Z" fill="#083645"/>
<path d="M26.8695 44.3337H55.1335C55.9154 44.3337 56.5468 44.9658 56.5468 45.7469C56.5468 46.5288 55.9154 47.1601 55.1335 47.1601H26.8695C26.0876 47.1601 25.4562 46.5288 25.4562 45.7469C25.4562 44.9658 26.0876 44.3337 26.8695 44.3337Z" fill="#083645"/>
<path d="M35.342 49.9878H46.6531C47.4349 49.9878 48.0663 50.6185 48.0663 51.401C48.0663 52.1828 47.4349 52.8142 46.6531 52.8142H35.342C34.5601 52.8142 33.9287 52.1828 33.9287 51.401C33.9287 50.6185 34.5601 49.9878 35.342 49.9878Z" fill="#083645"/>
</svg>
