<svg width="150" height="143" viewBox="0 0 150 143" fill="none" xmlns="http://www.w3.org/2000/svg">
<path d="M83.7648 114.614C102.159 108.546 125.169 113.875 139.774 90.6778C165.419 49.9471 128.254 -12.0861 65.8655 4.23929C-5.71127 22.9691 -16.7827 139.475 33.7241 141.436C58.04 142.381 60.4907 122.292 83.7648 114.614Z" fill="#F8F6E9"/>
<g clip-path="url(#clip0)">
<path d="M109.286 61.5798V55.6974H105.406L109.797 51.3064L105.637 47.1472L97.0872 55.6974H84.1878V61.5798H97.0872L105.637 70.13L109.797 65.9708L105.406 61.5798H109.286Z" fill="#00A9DE"/>
<path d="M83.1298 52.8751L91.6802 44.3249H103.011V38.4426H97.5626L100.877 35.1282L96.7175 30.9688L93.4032 34.2831V28.8347H87.5208V40.1655L78.9704 48.7159L83.1298 52.8751Z" fill="#00A9DE"/>
<path d="M83.1298 64.4021L78.9704 68.5613L87.5208 77.1117V88.4425H93.4032V82.9941L96.7175 86.3084L100.877 82.149L97.5626 78.8346H103.011V72.9523H91.6802L83.1298 64.4021Z" fill="#00A9DE"/>
<path d="M78.974 44.717H73.2068V72.5602H78.974L87.1283 64.4059V52.8714L78.974 44.717Z" fill="#CEF2FB"/>
<path d="M76.1497 43.1484L73.0124 46.0896L76.1497 49.0308V55.6975L73.0124 58.4288L76.1497 61.5798V68.2465L73.9046 71.1877L76.1497 74.1288V89.3935H51.4438V27.4622H76.1497V43.1484Z" fill="#CEF2FB"/>
<path d="M76.1505 43.1484L73.0132 46.0896L76.1505 49.0308V55.6975L73.0132 58.4288L76.1505 61.5798V68.2465L73.9054 71.1877L76.1505 74.1288V89.3935H63.7975V27.4622H76.1505V43.1484Z" fill="#A7EAF9"/>
<path d="M85.5609 105.698C85.5609 117.699 75.7981 127.462 63.7962 127.462C51.7942 127.462 42.0314 117.699 42.0314 105.698C42.0314 94.6936 50.2393 85.5701 60.855 84.1309C60.855 84.1309 62.7393 87.9289 63.7962 88.3956C64.7473 88.8307 66.3889 84.9907 66.7373 84.1309C77.353 85.5701 85.5609 94.6936 85.5609 105.698Z" fill="#E6F8FC"/>
<path d="M85.5622 105.698C85.5622 117.699 75.7995 127.462 63.7975 127.462V88.3956C64.7487 88.8307 66.3903 84.9907 66.7387 84.1309C77.3544 85.5701 85.5622 94.6936 85.5622 105.698Z" fill="#CEF2FB"/>
<path d="M73.0126 105.697C73.0126 110.78 68.8793 114.913 63.797 114.913C58.7146 114.913 54.5813 110.78 54.5813 105.697C54.5813 101.644 57.2126 98.1954 60.8558 96.966V84.1307C62.7373 83.874 64.7493 83.8593 66.7381 84.1307V96.966C70.3813 98.1954 73.0126 101.644 73.0126 105.697Z" fill="#00BFF0"/>
<path d="M63.7975 68.2466H76.1505V74.1289H63.7975V68.2466Z" fill="#00A9DE"/>
<path d="M63.7975 55.6975H76.1505V61.5799H63.7975V55.6975Z" fill="#00A9DE"/>
<path d="M63.7975 43.1484H76.1505V49.0308H63.7975V43.1484Z" fill="#00A9DE"/>
<path d="M73.0132 105.698C73.0132 110.78 68.8799 114.913 63.7975 114.913V83.9329C64.7956 83.9329 65.776 83.9995 66.7387 84.1309V96.9662C70.3818 98.1956 73.0132 101.645 73.0132 105.698Z" fill="#00A9DE"/>
</g>
<defs>
<clipPath id="clip0">
<rect width="100" height="100" fill="white" transform="translate(25.9146 27.4622)"/>
</clipPath>
</defs>
</svg>
