<svg width="149" height="142" viewBox="0 0 149 142" fill="none" xmlns="http://www.w3.org/2000/svg">
<path d="M82.8502 114.152C101.244 108.084 124.254 113.413 138.859 90.2156C164.504 49.4849 127.339 -12.5483 64.9509 3.77713C-6.62594 22.5069 -17.6974 139.013 32.8095 140.974C57.1253 141.918 59.576 121.83 82.8502 114.152Z" fill="#EBFAFF"/>
<path d="M100.258 40.9187C100.511 41.3305 100.951 41.5567 101.401 41.5567C101.641 41.5567 101.883 41.4925 102.102 41.3578L109.366 36.8895C109.996 36.5021 110.193 35.6765 109.805 35.0462C109.418 34.416 108.592 34.2192 107.961 34.6072L100.698 39.0755C100.067 39.4628 99.8706 40.2885 100.258 40.9187Z" fill="#17A3D0" stroke="#17A3D0" stroke-width="0.8"/>
<path d="M118.27 49.8226L107.621 48.7883C106.884 48.7157 106.229 49.2559 106.157 49.9922C106.086 50.7293 106.625 51.3846 107.362 51.4558L118.01 52.4902C118.055 52.4944 118.098 52.4965 118.142 52.4965C118.824 52.4965 119.407 51.9786 119.474 51.2862C119.545 50.5499 119.006 49.8945 118.27 49.8226Z" fill="#17A3D0" stroke="#17A3D0" stroke-width="0.8"/>
<path d="M94.8231 31.5602C94.9822 31.6223 95.1469 31.6523 95.3082 31.6523C95.8449 31.6523 96.3516 31.3278 96.5575 30.7973L100.436 20.8258C100.705 20.1362 100.363 19.3594 99.6731 19.0914C98.9835 18.8234 98.2067 19.1647 97.9387 19.8543L94.0595 29.8258C93.7915 30.5154 94.1328 31.2922 94.8231 31.5602Z" fill="#17A3D0" stroke="#17A3D0" stroke-width="0.8"/>
<path d="M85.355 24.1743C84.4547 22.7163 82.5367 22.2613 81.078 23.1616L79.4749 24.1506C78.7678 24.5861 78.2737 25.2715 78.0825 26.079C77.8912 26.8872 78.0259 27.7213 78.4614 28.4276L79.3834 29.9212L58.3118 56.0076L53.8617 58.7533C53.2321 59.1421 53.0367 59.9677 53.4254 60.5973C53.6788 61.0077 54.1178 61.2338 54.5673 61.2338C54.8067 61.2338 55.0503 61.1696 55.2694 61.0342L58.7738 58.872L65.6032 69.9407C64.6163 69.8765 63.6322 70.081 62.7381 70.5402C62.7221 70.5479 62.7067 70.5563 62.6907 70.5646C62.5706 70.6282 62.4513 70.6945 62.3347 70.7664L58.3278 73.251C57.8881 73.5239 57.4826 73.8464 57.1141 74.2072C56.6681 74.6434 56.278 75.1355 55.9625 75.6729L54.9735 77.1637L54.2462 78.2581C54.24 78.256 54.233 78.2539 54.2274 78.2518C54.2162 78.2469 54.2057 78.2413 54.1946 78.2365C54.1381 78.2113 54.0822 78.1834 54.0285 78.1534C54.0166 78.1471 54.0054 78.1408 53.9943 78.1346C53.9349 78.099 53.877 78.0606 53.8219 78.0194C53.81 78.011 53.7988 78.002 53.7877 77.9929C53.7374 77.9538 53.6879 77.9119 53.6411 77.8672C53.6355 77.8617 53.6292 77.8568 53.6237 77.8512C53.5734 77.8023 53.526 77.7493 53.4806 77.6949C53.4708 77.683 53.4617 77.6704 53.452 77.6586C53.4073 77.6013 53.3647 77.5427 53.3263 77.4806L47.5355 68.0953C47.2619 67.6521 47.1774 67.1294 47.2975 66.6234C47.4175 66.1166 47.7274 65.6874 48.1699 65.4145L49.9036 64.3453C50.5332 63.9565 50.7293 63.1308 50.3405 62.5013C49.9518 61.871 49.1261 61.6756 48.4966 62.0644L46.7629 63.1336C45.7111 63.7827 44.9747 64.8024 44.6893 66.0057C44.5057 66.7825 44.5252 67.5753 44.736 68.3228L43.4469 69.1185C41.7223 70.1829 41.1849 72.4519 42.2493 74.1772L45.5198 79.4781C46.0349 80.3135 46.8452 80.8977 47.8007 81.1246C48.0841 81.1916 48.3702 81.2251 48.655 81.2251C49.3285 81.2251 49.9902 81.0387 50.5778 80.6758L51.869 79.8794C52.1384 80.1244 52.4337 80.3359 52.7505 80.5104L49.0298 86.1149L48.1525 86.7137C47.9696 86.6209 47.7686 86.5622 47.5578 86.5441C47.1265 86.5078 46.7077 86.6404 46.3776 86.9182L44.0688 88.8613C43.5307 88.5179 42.8251 88.5123 42.2723 88.8892C42.2465 88.9073 42.2206 88.9255 42.1962 88.945L29.1977 99.2055C28.4362 99.8065 28 100.708 28 101.677V105.851C28 107.587 29.4126 109 31.1484 109H52.412C53.371 109 54.2658 108.571 54.8667 107.823L56.6297 105.629C56.9382 105.276 57.0694 104.824 57.0227 104.385L59.395 102.388C59.6267 102.193 59.7935 101.944 59.887 101.664L65.3554 102.785C65.4364 102.801 65.518 102.81 65.6004 102.812C65.7602 102.815 65.9194 102.817 66.0785 102.817C67.3746 102.817 68.6623 102.685 70.0156 101.867L75.5245 98.5864C75.6166 98.592 75.7087 98.5955 75.8002 98.5955C76.5951 98.5955 77.3782 98.3771 78.0741 97.9513L82.4998 95.2461C84.558 93.9884 85.2099 91.2901 83.9522 89.2319C83.5229 88.5284 82.9157 87.977 82.1982 87.6141C82.8927 86.2831 82.8948 84.6296 82.0566 83.2575C81.4479 82.2615 80.4911 81.5594 79.3597 81.276C79.5935 80.2026 79.4323 79.0419 78.816 78.0327C78.2339 77.0786 77.3308 76.3988 76.2636 76.0924C76.5554 74.9715 76.4116 73.7382 75.7618 72.6738C75.5929 72.3974 75.3954 72.1462 75.1769 71.9173L101.73 66.1376L102.652 67.6312C103.238 68.5825 104.258 69.1066 105.302 69.1066C105.858 69.1066 106.421 68.958 106.929 68.6446L108.532 67.6556C109.238 67.2194 109.733 66.5347 109.924 65.7265C110.115 64.919 109.981 64.0849 109.544 63.3779L85.355 24.1743ZM49.1715 78.3949C48.9446 78.5345 48.6773 78.5778 48.4191 78.5163C48.1601 78.4549 47.941 78.2965 47.8007 78.0704L44.5301 72.7695C44.2419 72.3025 44.3878 71.6876 44.8547 71.3987L45.9916 70.6973L50.3084 77.6928L49.1715 78.3949ZM52.7771 106.145C52.6877 106.256 52.5551 106.32 52.412 106.32H31.1484C30.8902 106.32 30.6801 106.11 30.6801 105.851V101.677C30.6801 101.532 30.745 101.398 30.8581 101.309L43.0498 91.6852L54.0382 104.576L52.7771 106.145ZM55.5018 102.161L45.8632 90.8539L47.2905 89.6527L56.8572 101.022L55.5018 102.161ZM68.6372 99.5692C67.8192 100.064 67.0514 100.151 65.7714 100.134L58.9057 98.7267C58.7431 98.6932 58.5791 98.6904 58.4206 98.7163L49.993 88.7021L50.7565 88.1808C50.7572 88.1808 50.7579 88.1801 50.7593 88.1794C50.7719 88.1703 50.7844 88.1598 50.797 88.1508C50.8256 88.1291 50.8542 88.1075 50.8807 88.0845C50.894 88.0726 50.9066 88.06 50.9191 88.0482C50.9463 88.023 50.9715 87.9972 50.9959 87.97C51.0057 87.9595 51.0161 87.9484 51.0252 87.9372C51.0552 87.9009 51.0838 87.8639 51.1097 87.8255C51.1125 87.822 51.1152 87.8193 51.1173 87.8158L51.1236 87.8067C51.1257 87.8032 51.1278 87.7997 51.1299 87.7962L58.2168 77.1225C58.2322 77.0995 58.2469 77.0758 58.2608 77.052C58.6182 76.4344 59.1298 75.9081 59.7405 75.5291L63.7474 73.0444C63.8213 72.9984 63.8967 72.9572 63.9728 72.9188C64.007 72.9014 64.0419 72.8867 64.0761 72.8707C64.1166 72.8525 64.1564 72.8344 64.1975 72.8183C64.2443 72.7995 64.2911 72.782 64.3392 72.766C64.3636 72.7569 64.3888 72.7492 64.4139 72.7415C64.4725 72.7234 64.5318 72.7059 64.5912 72.6913H64.5919C64.8075 72.6389 65.0267 72.6131 65.2452 72.6117C65.25 72.6117 65.2549 72.6117 65.2591 72.6117C65.3233 72.6117 65.3868 72.6145 65.4503 72.6187C65.4706 72.6208 65.4908 72.6222 65.5118 72.6243C65.5683 72.6292 65.6241 72.6355 65.68 72.6438C65.7128 72.6487 65.7463 72.6557 65.7798 72.662C65.8649 72.678 65.9494 72.6983 66.0324 72.7227C66.0645 72.7318 66.0973 72.7401 66.1287 72.7499C66.1713 72.7646 66.2125 72.7806 66.2544 72.7974C66.2872 72.8099 66.3207 72.8225 66.3528 72.8365C66.394 72.8539 66.4351 72.8735 66.4756 72.8937C66.5063 72.909 66.5364 72.9244 66.5657 72.9405C66.6061 72.9621 66.6466 72.9851 66.6864 73.0095C66.7136 73.0263 66.7402 73.0437 66.7667 73.0612C66.8065 73.0877 66.8462 73.1142 66.8846 73.1436C66.9084 73.161 66.9307 73.1798 66.953 73.198C66.9928 73.2294 67.0319 73.2608 67.0696 73.295C67.2524 73.4597 67.413 73.6496 67.5442 73.8638L67.6426 74.0251L69.0713 76.3562L70.8643 79.282L71.3201 80.0267C71.3633 80.0972 71.3989 80.1705 71.4262 80.2465C71.5099 80.4755 71.5232 80.7253 71.4638 80.9724C71.3787 81.3277 71.1547 81.632 70.8336 81.8281L70.0275 82.3208L70.0268 82.3215C69.9709 82.355 69.9144 82.3837 69.8558 82.4088C69.8432 82.4144 69.8307 82.4199 69.8181 82.4248C69.7602 82.4486 69.7015 82.4681 69.6422 82.4835C69.6352 82.4855 69.6275 82.4869 69.6206 82.4883C69.5647 82.5016 69.5089 82.5114 69.4531 82.5177C69.4419 82.5191 69.4314 82.5205 69.4203 82.5218C69.3602 82.5267 69.3002 82.5281 69.2409 82.526C69.2297 82.5253 69.2186 82.5246 69.2074 82.5239C69.1467 82.5198 69.0866 82.5128 69.0273 82.5009C69.0266 82.5002 69.0259 82.5002 69.0252 82.5002C68.9617 82.4869 68.9003 82.4688 68.8396 82.4465C68.834 82.4444 68.8291 82.443 68.8235 82.4409C68.6993 82.3934 68.582 82.3264 68.4766 82.2406C68.4759 82.2406 68.4759 82.2399 68.4759 82.2399C68.4229 82.1966 68.3754 82.1505 68.3315 82.1017C68.328 82.0975 68.3245 82.0933 68.3203 82.0884C68.2784 82.0396 68.2393 81.9886 68.2065 81.9342L66.8707 79.7503C66.373 78.9365 65.5837 78.3656 64.6477 78.1436C63.6887 77.9154 62.6949 78.0787 61.8503 78.6029C61.5104 78.8137 61.2829 79.1647 61.2285 79.5605C61.2131 79.6749 61.1943 79.7873 61.174 79.8983C61.1587 79.9792 61.1412 80.0595 61.1231 80.1391C61.1175 80.1656 61.1119 80.1928 61.1056 80.2193C61.0819 80.3198 61.0561 80.4189 61.0275 80.5166C61.0268 80.5201 61.0254 80.5243 61.024 80.5285C60.8739 81.0429 60.6631 81.5196 60.3923 81.953C60.3916 81.9537 60.3916 81.9544 60.3916 81.9551C59.8926 82.755 59.1877 83.4313 58.2636 83.9931C57.6313 84.3777 57.4303 85.202 57.8148 85.8343C58.1994 86.4666 59.0237 86.6676 59.656 86.2831C60.3086 85.8859 60.8872 85.4407 61.3932 84.95L66.9893 93.7755C68.0202 95.3745 69.802 96.3021 71.6453 96.3021C71.743 96.3021 71.8407 96.2972 71.9384 96.2916C71.9768 96.3614 72.0159 96.4305 72.0578 96.4996C72.2155 96.7571 72.397 96.9944 72.5987 97.2101L68.6372 99.5692ZM69.7741 89.717C69.7741 89.7177 69.7748 89.7184 69.7748 89.7191C69.7971 89.7819 69.8216 89.8433 69.8474 89.9054C69.8502 89.9124 69.853 89.9201 69.8565 89.9277C69.8795 89.9836 69.9046 90.0387 69.9305 90.0939C69.9367 90.1057 69.9416 90.119 69.9479 90.1315C69.9723 90.1832 69.9996 90.2341 70.0261 90.2851C70.0345 90.3004 70.0414 90.3158 70.0498 90.3305C70.0854 90.3961 70.1231 90.461 70.1622 90.5252C70.2292 90.6355 70.3025 90.7408 70.3778 90.8434C70.4051 90.8797 70.433 90.9153 70.4609 90.9509C70.5104 91.0137 70.5614 91.0745 70.6137 91.1345C70.6507 91.1764 70.687 91.2196 70.7254 91.2601C70.754 91.2908 70.7854 91.3187 70.8155 91.3488C70.9236 91.4569 71.0367 91.5588 71.1553 91.6552C71.1679 91.6649 71.1798 91.6754 71.1923 91.6845C71.4227 91.8673 71.6697 92.0258 71.9329 92.1591C71.6907 92.6148 71.5308 93.109 71.4597 93.6178C70.5761 93.5626 69.7399 93.0971 69.2472 92.3322L63.0864 82.6161C63.3719 82.0263 63.5917 81.3968 63.7411 80.726C63.8367 80.7204 63.933 80.7288 64.0279 80.7512C64.2638 80.807 64.4614 80.9487 64.5842 81.149L65.9201 83.3329C65.9222 83.3356 65.9243 83.3384 65.9263 83.3419C65.992 83.4487 66.0624 83.552 66.1385 83.6518C66.1944 83.7251 66.2544 83.7935 66.3144 83.8619C66.3353 83.8856 66.3542 83.9115 66.3758 83.9352C66.3786 83.947 66.3821 83.9589 66.3849 83.9708C66.4058 84.0636 66.4296 84.1557 66.4561 84.2472C66.4645 84.2737 66.4721 84.3002 66.4798 84.3267C66.5126 84.43 66.5475 84.5326 66.588 84.6331C66.5915 84.6436 66.5964 84.6534 66.6006 84.6631C66.6376 84.7553 66.6787 84.8453 66.7227 84.9346C66.7353 84.9605 66.7478 84.9863 66.7611 85.0114C66.8113 85.1091 66.8637 85.2054 66.9209 85.3004C67.5288 86.2956 68.4843 86.9964 69.6136 87.2811C69.4391 88.0796 69.488 88.9248 69.7741 89.717ZM70.6291 73.7682L71.0793 73.4932C71.4764 73.2503 71.944 73.1771 72.397 73.2859C72.8493 73.3955 73.2317 73.674 73.4739 74.0711C73.9743 74.8905 73.7154 75.9646 72.896 76.4651L72.4486 76.7387L71.1239 74.5771L70.6291 73.7682ZM80.616 89.8649C81.0564 89.971 81.4284 90.2425 81.665 90.6292C82.1522 91.4269 81.8995 92.4725 81.1018 92.9603L76.6761 95.6656C76.3208 95.8826 75.9077 95.9587 75.5008 95.8875C75.4777 95.8826 75.454 95.877 75.4303 95.8735C75.4184 95.8707 75.4058 95.8693 75.394 95.8666C74.9529 95.7605 74.5809 95.489 74.3443 95.1023C74.2382 94.9285 74.1698 94.7436 74.1314 94.5551C74.1307 94.5495 74.1307 94.5446 74.1293 94.5398C74.0232 93.9891 74.2005 93.4265 74.5788 93.0357C74.5892 93.0252 74.599 93.0141 74.6095 93.0043C74.629 92.9854 74.6493 92.9673 74.6695 92.9492C74.6897 92.931 74.7107 92.9129 74.733 92.8961C74.7491 92.8828 74.7644 92.8703 74.7812 92.8577C74.821 92.8284 74.8607 92.8005 74.9033 92.774C74.9047 92.7733 74.9061 92.7726 74.9068 92.7719L75.7862 92.2345C75.9412 92.1626 76.0933 92.0837 76.2413 91.9937L79.627 89.9236C79.9411 89.8063 80.2824 89.7847 80.616 89.8649ZM77.5332 83.991C77.8933 83.8186 78.2981 83.7754 78.6918 83.8703C79.144 83.9792 79.5265 84.2583 79.7694 84.6555C80.2698 85.4748 80.0102 86.5483 79.1915 87.0487L78.3944 87.5359C78.2381 87.6078 78.0845 87.6887 77.9359 87.7795L74.5676 89.8377C73.9388 90.0848 73.231 89.9396 72.7502 89.4957C72.7495 89.495 72.7495 89.495 72.7495 89.495C72.7118 89.4601 72.6762 89.4245 72.642 89.3861C72.6329 89.3757 72.6245 89.3645 72.6155 89.354C72.5903 89.3247 72.5652 89.2954 72.5415 89.264C72.5087 89.22 72.478 89.1747 72.4486 89.1279C72.4193 89.079 72.3928 89.0302 72.3684 88.9799C72.3607 88.9639 72.3544 88.9478 72.3467 88.9311C72.3314 88.8969 72.316 88.862 72.3028 88.8264C72.2958 88.8075 72.2902 88.7894 72.2839 88.7705C72.2728 88.7364 72.2623 88.7029 72.2532 88.6686C72.2483 88.6498 72.2434 88.6303 72.2393 88.6114C72.2316 88.5772 72.2246 88.5423 72.2183 88.5067C72.2155 88.4886 72.2127 88.4704 72.2099 88.4523C72.2051 88.416 72.2016 88.3797 72.1995 88.3434C72.1981 88.326 72.1967 88.3085 72.196 88.2911C72.1946 88.2534 72.1946 88.2157 72.196 88.1787C72.196 88.1619 72.196 88.1459 72.1974 88.1298C72.1988 88.0914 72.2037 88.0538 72.2079 88.0161C72.2099 88 72.2106 87.984 72.2134 87.9679C72.2183 87.9344 72.2253 87.9009 72.2323 87.8674C72.3084 87.5087 72.4961 87.173 72.7906 86.9154C72.8025 86.9049 72.813 86.8924 72.8248 86.8819C72.8416 86.8672 72.8576 86.8526 72.8751 86.8386C72.917 86.8149 72.9595 86.7933 73.0007 86.7681L77.3489 84.1104C77.4117 84.072 77.4732 84.0322 77.5332 83.991ZM75.4512 78.6448C75.9035 78.7536 76.2859 79.0328 76.5288 79.4299C76.9951 80.1935 76.801 81.1783 76.1094 81.7143C76.0647 81.7388 76.0207 81.7639 75.9768 81.7904L72.6196 83.8424C72.6308 83.834 72.6413 83.8242 72.6524 83.8151C72.7167 83.7642 72.7809 83.7125 72.8409 83.6581C72.8786 83.6246 72.9142 83.589 72.9505 83.5541C73.0049 83.5011 73.0593 83.4473 73.111 83.3908C73.1466 83.3531 73.1801 83.3133 73.2136 83.2742C73.2617 83.217 73.3092 83.1598 73.3539 83.1004C73.3853 83.0593 73.4167 83.0174 73.4467 82.9741C73.4893 82.9134 73.5298 82.8513 73.5695 82.7878C73.5968 82.7438 73.624 82.7005 73.6491 82.6558C73.6875 82.5888 73.7224 82.5198 73.7566 82.4507C73.7782 82.4067 73.8013 82.3641 73.8208 82.3194C73.8557 82.242 73.8864 82.1624 73.9171 82.0821C73.9311 82.0438 73.9478 82.0061 73.9611 81.967C74.0023 81.8462 74.0393 81.7241 74.0693 81.5992C74.0979 81.4798 74.1202 81.3598 74.1377 81.2397C74.1433 81.2013 74.146 81.1629 74.1509 81.1246C74.1607 81.0422 74.1684 80.9605 74.1733 80.8782C74.1754 80.8335 74.1761 80.7888 74.1768 80.7442C74.1788 80.6674 74.1782 80.5913 74.1754 80.5153C74.174 80.4699 74.1712 80.4245 74.1684 80.3792C74.1628 80.3024 74.1537 80.2256 74.144 80.1495C74.1384 80.107 74.1335 80.0644 74.1265 80.0225C74.1118 79.936 74.0937 79.8508 74.0728 79.7657C74.0658 79.735 74.0602 79.7035 74.0525 79.6728C74.0218 79.5577 73.9869 79.4439 73.9457 79.3315C73.9374 79.3099 73.9276 79.2883 73.9185 79.2659C73.8892 79.1906 73.8606 79.1145 73.8264 79.0405L74.1342 78.8521C74.5313 78.6092 74.9989 78.5359 75.4512 78.6448ZM107.316 65.1095C107.301 65.1737 107.255 65.2938 107.124 65.3747L105.521 66.3644C105.32 66.4879 105.056 66.4258 104.932 66.2248L88.0533 38.8696C87.6652 38.24 86.8396 38.0446 86.2093 38.4326C85.5798 38.8214 85.3844 39.6471 85.7731 40.2766L100.238 63.7199L69.0971 70.499L60.8495 57.1313L80.8756 32.3396L82.4935 34.9625C82.8822 35.592 83.7079 35.7874 84.3374 35.3994C84.9677 35.0106 85.1631 34.1849 84.7744 33.5547L80.7423 27.0205C80.6614 26.8893 80.6746 26.7616 80.69 26.6974C80.7053 26.6325 80.7507 26.5124 80.8819 26.4315L82.4851 25.4425C82.6861 25.3183 82.9499 25.3811 83.0742 25.5821L107.264 64.7864C107.345 64.9176 107.331 65.0453 107.316 65.1095Z" fill="#17A3D0" stroke="#17A3D0" stroke-width="0.8"/>
</svg>
