<svg width="220" height="218" viewBox="0 0 220 218" fill="none" xmlns="http://www.w3.org/2000/svg">
<path d="M136.021 40.8105C170.437 54.2702 210.618 89.5524 184.158 143.081C163.321 185.234 112.074 198.103 71.1944 177.028C30.3148 155.952 12.844 120.692 33.9191 79.8121C58.8938 23.3127 122.616 24.8736 151.965 42.2003" stroke="#EF747A" stroke-width="2" stroke-linecap="round"/>
<path d="M66.1768 94.9385H63.4698V83.3369H71.9561V85.5713H66.1768V94.9385ZM77.1338 95.1963C76.5036 95.1963 75.9092 95.1175 75.3506 94.96C74.8063 94.8167 74.3265 94.5947 73.9112 94.2939C73.5101 93.9788 73.1879 93.585 72.9444 93.1123C72.7152 92.6396 72.6006 92.0882 72.6006 91.458C72.6006 90.8421 72.7295 90.2979 72.9873 89.8252C73.2451 89.3525 73.6032 88.9587 74.0616 88.6436C74.5199 88.3141 75.057 88.0706 75.6729 87.9131C76.2888 87.7555 76.9619 87.6768 77.6924 87.6768H80.4639V87.4834C80.4639 86.6813 80.2276 86.1299 79.7549 85.8291C79.2966 85.514 78.6449 85.3564 77.7998 85.3564C77.2269 85.3564 76.6039 85.4567 75.9307 85.6572C75.2718 85.8434 74.5629 86.1657 73.8037 86.624L73.503 84.1963C74.1905 83.8669 74.8994 83.6019 75.6299 83.4014C76.3604 83.1865 77.1481 83.0791 77.9932 83.0791C79.6976 83.0791 80.9724 83.4658 81.8174 84.2393C82.6625 85.0127 83.085 86.2445 83.085 87.9346V94.9385H80.4639V93.9717C80.0485 94.3298 79.5687 94.6234 79.0244 94.8525C78.4945 95.0817 77.8643 95.1963 77.1338 95.1963ZM77.4346 93.0908C77.7497 93.0908 78.0648 93.0479 78.3799 92.9619C78.7093 92.8617 79.003 92.7256 79.2608 92.5537C79.5329 92.3675 79.7692 92.1527 79.9698 91.9092C80.1846 91.6657 80.3493 91.3936 80.4639 91.0928V89.6963H77.8643C77.0765 89.6963 76.4463 89.861 75.9737 90.1904C75.501 90.5199 75.2647 90.9281 75.2647 91.415C75.2647 91.9593 75.458 92.3747 75.8448 92.6611C76.2315 92.9476 76.7614 93.0908 77.4346 93.0908ZM91.0772 95.1963C90.7478 95.1963 90.4255 95.1533 90.1104 95.0674C89.8096 94.9958 89.5231 94.8955 89.251 94.7666C88.9789 94.6234 88.7282 94.4658 88.4991 94.2939C88.2699 94.1221 88.0694 93.943 87.8975 93.7568V98.8916H85.2334V83.3369H87.8975V84.626C88.2269 84.2106 88.6709 83.8525 89.2295 83.5518C89.7881 83.2367 90.404 83.0791 91.0772 83.0791C91.7933 83.0791 92.4665 83.2152 93.0967 83.4873C93.7412 83.7594 94.2998 84.1533 94.7725 84.6689C95.2451 85.1846 95.6175 85.8219 95.8897 86.5811C96.1761 87.3402 96.3194 88.1995 96.3194 89.1592C96.3194 90.1045 96.1761 90.9495 95.8897 91.6943C95.6175 92.4391 95.2451 93.0765 94.7725 93.6064C94.2998 94.1221 93.7412 94.516 93.0967 94.7881C92.4665 95.0602 91.7933 95.1963 91.0772 95.1963ZM90.7764 92.9404C91.6644 92.9404 92.3591 92.6038 92.8604 91.9307C93.376 91.2575 93.6338 90.3265 93.6338 89.1377C93.6338 87.9775 93.376 87.0609 92.8604 86.3877C92.3448 85.7002 91.6501 85.3564 90.7764 85.3564C90.1748 85.3564 89.6234 85.5355 89.1221 85.8936C88.6208 86.2516 88.2126 86.7314 87.8975 87.333V91.1357C88.2126 91.723 88.6208 92.1742 89.1221 92.4893C89.6234 92.79 90.1748 92.9404 90.7764 92.9404ZM101.927 95.1963C101.297 95.1963 100.702 95.1175 100.144 94.96C99.5993 94.8167 99.1195 94.5947 98.7041 94.2939C98.3031 93.9788 97.9808 93.585 97.7373 93.1123C97.5082 92.6396 97.3936 92.0882 97.3936 91.458C97.3936 90.8421 97.5225 90.2979 97.7803 89.8252C98.0381 89.3525 98.3962 88.9587 98.8545 88.6436C99.3129 88.3141 99.85 88.0706 100.466 87.9131C101.082 87.7555 101.755 87.6768 102.485 87.6768H105.257V87.4834C105.257 86.6813 105.021 86.1299 104.548 85.8291C104.09 85.514 103.438 85.3564 102.593 85.3564C102.02 85.3564 101.397 85.4567 100.724 85.6572C100.065 85.8434 99.3558 86.1657 98.5967 86.624L98.2959 84.1963C98.9834 83.8669 99.6924 83.6019 100.423 83.4014C101.153 83.1865 101.941 83.0791 102.786 83.0791C104.491 83.0791 105.765 83.4658 106.61 84.2393C107.455 85.0127 107.878 86.2445 107.878 87.9346V94.9385H105.257V93.9717C104.842 94.3298 104.362 94.6234 103.817 94.8525C103.287 95.0817 102.657 95.1963 101.927 95.1963ZM102.228 93.0908C102.543 93.0908 102.858 93.0479 103.173 92.9619C103.502 92.8617 103.796 92.7256 104.054 92.5537C104.326 92.3675 104.562 92.1527 104.763 91.9092C104.978 91.6657 105.142 91.3936 105.257 91.0928V89.6963H102.657C101.869 89.6963 101.239 89.861 100.767 90.1904C100.294 90.5199 100.058 90.9281 100.058 91.415C100.058 91.9593 100.251 92.3747 100.638 92.6611C101.024 92.9476 101.554 93.0908 102.228 93.0908ZM110.005 83.3369H112.712V87.5264H117.546V83.3369H120.253V94.9385H117.546V89.7393H112.712V94.9385H110.005V83.3369ZM125.388 85.5498H121.306V83.3369H132.134V85.5498H128.073V94.9385H125.388V85.5498ZM143.821 94.9385H141.114V87.6768L135.872 94.9385H133.165V83.3369H135.872V90.5986L141.114 83.3369H143.821V94.9385ZM155.681 94.9385H152.995V90.4697H151.921L147.968 94.9385H144.681L148.892 90.2549C148.047 90.04 147.366 89.6676 146.851 89.1377C146.349 88.6077 146.099 87.8343 146.099 86.8174C146.099 86.2015 146.228 85.6715 146.485 85.2275C146.758 84.7835 147.108 84.4255 147.538 84.1533C147.982 83.8669 148.483 83.6592 149.042 83.5303C149.615 83.4014 150.202 83.3369 150.804 83.3369H155.681V94.9385ZM152.995 88.3428V85.4854H150.911C150.267 85.4854 149.751 85.5856 149.364 85.7861C148.978 85.9867 148.784 86.3376 148.784 86.8389C148.784 87.4404 148.985 87.8415 149.386 88.042C149.801 88.2425 150.317 88.3428 150.933 88.3428H152.995ZM40.0303 114.169C40.0876 115.043 40.3955 115.723 40.9541 116.21C41.5127 116.697 42.3005 116.94 43.3174 116.94C43.9906 116.94 44.6494 116.854 45.294 116.683C45.9528 116.496 46.6188 116.203 47.292 115.802L47.6143 118.079C47.0127 118.451 46.3324 118.731 45.5733 118.917C44.8142 119.103 44.0479 119.196 43.2744 119.196C42.1573 119.196 41.2119 119.039 40.4385 118.724C39.6651 118.394 39.0349 117.957 38.5479 117.413C38.0609 116.854 37.71 116.21 37.4951 115.479C37.2803 114.735 37.1729 113.947 37.1729 113.116C37.1729 112.3 37.3018 111.526 37.5596 110.796C37.8174 110.051 38.1826 109.407 38.6553 108.862C39.1423 108.318 39.7367 107.888 40.4385 107.573C41.1403 107.244 41.9424 107.079 42.8448 107.079C43.7185 107.079 44.4919 107.237 45.1651 107.552C45.8526 107.867 46.4326 108.297 46.9053 108.841C47.378 109.385 47.736 110.037 47.9795 110.796C48.223 111.541 48.3448 112.343 48.3448 113.202C48.3448 113.36 48.3448 113.517 48.3448 113.675C48.3448 113.818 48.3304 113.983 48.3018 114.169H40.0303ZM45.5518 112.063C45.5088 111.247 45.2438 110.595 44.7569 110.108C44.2699 109.607 43.6182 109.356 42.8018 109.356C41.9424 109.356 41.2621 109.614 40.7608 110.13C40.2595 110.646 39.9945 111.29 39.9659 112.063H45.5518ZM55.1123 107.337H57.7549V111.677L60.9346 107.337H64.1358L59.9034 112.579L64.458 118.938H61.2998L57.7549 113.653V118.938H55.1123V113.675L51.5889 118.938H48.4307L52.9639 112.579L48.7315 107.337H51.9326L55.1123 111.698V107.337ZM67.4014 114.169C67.4587 115.043 67.7666 115.723 68.3252 116.21C68.8838 116.697 69.6716 116.94 70.6885 116.94C71.3617 116.94 72.0205 116.854 72.6651 116.683C73.3239 116.496 73.9899 116.203 74.6631 115.802L74.9854 118.079C74.3838 118.451 73.7035 118.731 72.9444 118.917C72.1853 119.103 71.419 119.196 70.6455 119.196C69.5284 119.196 68.583 119.039 67.8096 118.724C67.0362 118.394 66.406 117.957 65.919 117.413C65.432 116.854 65.0811 116.21 64.8662 115.479C64.6514 114.735 64.544 113.947 64.544 113.116C64.544 112.3 64.6729 111.526 64.9307 110.796C65.1885 110.051 65.5537 109.407 66.0264 108.862C66.5134 108.318 67.1078 107.888 67.8096 107.573C68.5114 107.244 69.3135 107.079 70.2159 107.079C71.0895 107.079 71.863 107.237 72.5362 107.552C73.2237 107.867 73.8037 108.297 74.2764 108.841C74.7491 109.385 75.1071 110.037 75.3506 110.796C75.5941 111.541 75.7159 112.343 75.7159 113.202C75.7159 113.36 75.7159 113.517 75.7159 113.675C75.7159 113.818 75.7015 113.983 75.6729 114.169H67.4014ZM72.9229 112.063C72.8799 111.247 72.6149 110.595 72.128 110.108C71.641 109.607 70.9893 109.356 70.1729 109.356C69.3135 109.356 68.6332 109.614 68.1319 110.13C67.6306 110.646 67.3656 111.29 67.3369 112.063H72.9229ZM79.7334 107.337L83.4932 112.858L87.253 107.337H89.7451V118.938H87.0381V111.935L84.1162 115.974H82.8701L79.9483 111.892V118.938H77.2412V107.337H79.7334ZM94.1494 114.169C94.2067 115.043 94.5147 115.723 95.0733 116.21C95.6319 116.697 96.4196 116.94 97.4366 116.94C98.1097 116.94 98.7686 116.854 99.4131 116.683C100.072 116.496 100.738 116.203 101.411 115.802L101.733 118.079C101.132 118.451 100.452 118.731 99.6924 118.917C98.9333 119.103 98.167 119.196 97.3936 119.196C96.2764 119.196 95.3311 119.039 94.5576 118.724C93.7842 118.394 93.154 117.957 92.667 117.413C92.18 116.854 91.8291 116.21 91.6143 115.479C91.3994 114.735 91.292 113.947 91.292 113.116C91.292 112.3 91.4209 111.526 91.6787 110.796C91.9366 110.051 92.3018 109.407 92.7744 108.862C93.2614 108.318 93.8558 107.888 94.5576 107.573C95.2595 107.244 96.0616 107.079 96.9639 107.079C97.8376 107.079 98.611 107.237 99.2842 107.552C99.9717 107.867 100.552 108.297 101.024 108.841C101.497 109.385 101.855 110.037 102.099 110.796C102.342 111.541 102.464 112.343 102.464 113.202C102.464 113.36 102.464 113.517 102.464 113.675C102.464 113.818 102.45 113.983 102.421 114.169H94.1494ZM99.6709 112.063C99.628 111.247 99.363 110.595 98.876 110.108C98.389 109.607 97.7373 109.356 96.9209 109.356C96.0616 109.356 95.3812 109.614 94.8799 110.13C94.3786 110.646 94.1136 111.29 94.085 112.063H99.6709ZM103.259 113.138C103.259 112.221 103.409 111.39 103.71 110.646C104.025 109.886 104.448 109.249 104.978 108.733C105.522 108.203 106.159 107.795 106.89 107.509C107.634 107.222 108.444 107.079 109.317 107.079C110.048 107.079 110.707 107.151 111.294 107.294C111.896 107.423 112.454 107.623 112.97 107.896L112.755 110.259C111.867 109.657 110.807 109.356 109.575 109.356C108.429 109.356 107.534 109.7 106.89 110.388C106.259 111.061 105.944 111.978 105.944 113.138C105.944 114.298 106.267 115.222 106.911 115.909C107.556 116.582 108.48 116.919 109.683 116.919C110.284 116.919 110.836 116.854 111.337 116.726C111.838 116.582 112.311 116.346 112.755 116.017L112.97 118.38C111.896 118.924 110.714 119.196 109.425 119.196C108.522 119.196 107.692 119.053 106.933 118.767C106.188 118.48 105.536 118.079 104.978 117.563C104.433 117.034 104.011 116.396 103.71 115.651C103.409 114.907 103.259 114.069 103.259 113.138ZM123.905 118.938H121.22V114.47H120.146L116.192 118.938H112.905L117.116 114.255C116.271 114.04 115.591 113.668 115.075 113.138C114.574 112.608 114.323 111.834 114.323 110.817C114.323 110.201 114.452 109.672 114.71 109.228C114.982 108.784 115.333 108.425 115.763 108.153C116.207 107.867 116.708 107.659 117.267 107.53C117.84 107.401 118.427 107.337 119.028 107.337H123.905V118.938ZM121.22 112.343V109.485H119.136C118.491 109.485 117.976 109.586 117.589 109.786C117.202 109.987 117.009 110.338 117.009 110.839C117.009 111.44 117.209 111.841 117.61 112.042C118.026 112.243 118.541 112.343 119.157 112.343H121.22ZM135.399 107.337V118.938H132.757V114.04C132.47 114.398 132.048 114.692 131.489 114.921C130.931 115.15 130.329 115.265 129.685 115.265C128.997 115.265 128.381 115.179 127.837 115.007C127.293 114.835 126.834 114.556 126.462 114.169C126.104 113.768 125.825 113.252 125.624 112.622C125.438 111.978 125.345 111.197 125.345 110.28V107.337H128.03V110.302C128.03 111.29 128.166 111.992 128.439 112.407C128.711 112.808 129.205 113.009 129.921 113.009C130.537 113.009 131.103 112.88 131.618 112.622C132.148 112.35 132.528 111.935 132.757 111.376V107.337H135.399ZM137.14 107.337H139.847V111.526H144.681V107.337H147.388V118.938H144.681V113.739H139.847V118.938H137.14V107.337ZM160.321 113.138C160.321 113.954 160.185 114.728 159.913 115.458C159.641 116.188 159.254 116.833 158.753 117.392C158.266 117.95 157.672 118.394 156.97 118.724C156.268 119.039 155.48 119.196 154.606 119.196C153.733 119.196 152.945 119.039 152.243 118.724C151.541 118.394 150.94 117.95 150.439 117.392C149.952 116.833 149.572 116.188 149.3 115.458C149.028 114.728 148.892 113.954 148.892 113.138C148.892 112.321 149.028 111.548 149.3 110.817C149.572 110.087 149.952 109.442 150.439 108.884C150.94 108.325 151.541 107.888 152.243 107.573C152.945 107.244 153.733 107.079 154.606 107.079C155.48 107.079 156.268 107.244 156.97 107.573C157.672 107.888 158.266 108.325 158.753 108.884C159.254 109.442 159.641 110.087 159.913 110.817C160.185 111.548 160.321 112.321 160.321 113.138ZM157.636 113.138C157.636 112.608 157.564 112.114 157.421 111.655C157.292 111.197 157.099 110.796 156.841 110.452C156.583 110.108 156.261 109.836 155.874 109.636C155.502 109.435 155.079 109.335 154.606 109.335C154.134 109.335 153.704 109.435 153.317 109.636C152.945 109.836 152.63 110.108 152.372 110.452C152.114 110.796 151.914 111.197 151.771 111.655C151.642 112.114 151.577 112.608 151.577 113.138C151.577 113.668 151.642 114.162 151.771 114.62C151.914 115.078 152.114 115.479 152.372 115.823C152.63 116.167 152.945 116.439 153.317 116.64C153.704 116.84 154.134 116.94 154.606 116.94C155.079 116.94 155.502 116.84 155.874 116.64C156.261 116.439 156.583 116.167 156.841 115.823C157.099 115.479 157.292 115.078 157.421 114.62C157.564 114.162 157.636 113.668 157.636 113.138ZM164.167 118.938H161.46V107.337H169.946V109.571H164.167V118.938ZM181.806 113.138C181.806 113.954 181.67 114.728 181.397 115.458C181.125 116.188 180.739 116.833 180.237 117.392C179.75 117.95 179.156 118.394 178.454 118.724C177.752 119.039 176.965 119.196 176.091 119.196C175.217 119.196 174.429 119.039 173.728 118.724C173.026 118.394 172.424 117.95 171.923 117.392C171.436 116.833 171.056 116.188 170.784 115.458C170.512 114.728 170.376 113.954 170.376 113.138C170.376 112.321 170.512 111.548 170.784 110.817C171.056 110.087 171.436 109.442 171.923 108.884C172.424 108.325 173.026 107.888 173.728 107.573C174.429 107.244 175.217 107.079 176.091 107.079C176.965 107.079 177.752 107.244 178.454 107.573C179.156 107.888 179.75 108.325 180.237 108.884C180.739 109.442 181.125 110.087 181.397 110.817C181.67 111.548 181.806 112.321 181.806 113.138ZM179.12 113.138C179.12 112.608 179.049 112.114 178.905 111.655C178.776 111.197 178.583 110.796 178.325 110.452C178.067 110.108 177.745 109.836 177.358 109.636C176.986 109.435 176.564 109.335 176.091 109.335C175.618 109.335 175.189 109.435 174.802 109.636C174.429 109.836 174.114 110.108 173.856 110.452C173.599 110.796 173.398 111.197 173.255 111.655C173.126 112.114 173.062 112.608 173.062 113.138C173.062 113.668 173.126 114.162 173.255 114.62C173.398 115.078 173.599 115.479 173.856 115.823C174.114 116.167 174.429 116.439 174.802 116.64C175.189 116.84 175.618 116.94 176.091 116.94C176.564 116.94 176.986 116.84 177.358 116.64C177.745 116.439 178.067 116.167 178.325 115.823C178.583 115.479 178.776 115.078 178.905 114.62C179.049 114.162 179.12 113.668 179.12 113.138ZM80.7647 133.593H79.7119C79.626 134.151 79.5043 134.746 79.3467 135.376C79.2035 135.992 79.0316 136.615 78.8311 137.245C78.6449 137.861 78.43 138.47 78.1866 139.071C77.9574 139.659 77.7067 140.196 77.4346 140.683H80.7647V133.593ZM82.5049 144.979V142.938H75.8018V144.979H73.1162V140.683H74.4912C74.8636 140.081 75.2002 139.394 75.501 138.62C75.8161 137.832 76.0882 137.023 76.3174 136.192C76.5609 135.347 76.7614 134.509 76.919 133.679C77.0765 132.848 77.1911 132.067 77.2627 131.337H83.4717V140.683H85.1905V144.979H82.5049ZM97.0713 137.138C97.0713 137.954 96.9353 138.728 96.6631 139.458C96.391 140.188 96.0043 140.833 95.503 141.392C95.016 141.95 94.4216 142.394 93.7198 142.724C93.0179 143.039 92.2302 143.196 91.3565 143.196C90.4828 143.196 89.695 143.039 88.9932 142.724C88.2914 142.394 87.6898 141.95 87.1885 141.392C86.7015 140.833 86.322 140.188 86.0498 139.458C85.7777 138.728 85.6416 137.954 85.6416 137.138C85.6416 136.321 85.7777 135.548 86.0498 134.817C86.322 134.087 86.7015 133.442 87.1885 132.884C87.6898 132.325 88.2914 131.888 88.9932 131.573C89.695 131.244 90.4828 131.079 91.3565 131.079C92.2302 131.079 93.0179 131.244 93.7198 131.573C94.4216 131.888 95.016 132.325 95.503 132.884C96.0043 133.442 96.391 134.087 96.6631 134.817C96.9353 135.548 97.0713 136.321 97.0713 137.138ZM94.3858 137.138C94.3858 136.608 94.3142 136.114 94.1709 135.655C94.042 135.197 93.8487 134.796 93.5909 134.452C93.333 134.108 93.0108 133.836 92.6241 133.636C92.2517 133.435 91.8291 133.335 91.3565 133.335C90.8838 133.335 90.4541 133.435 90.0674 133.636C89.695 133.836 89.3799 134.108 89.1221 134.452C88.8643 134.796 88.6638 135.197 88.5205 135.655C88.3916 136.114 88.3272 136.608 88.3272 137.138C88.3272 137.668 88.3916 138.162 88.5205 138.62C88.6638 139.078 88.8643 139.479 89.1221 139.823C89.3799 140.167 89.695 140.439 90.0674 140.64C90.4541 140.84 90.8838 140.94 91.3565 140.94C91.8291 140.94 92.2517 140.84 92.6241 140.64C93.0108 140.439 93.333 140.167 93.5909 139.823C93.8487 139.479 94.042 139.078 94.1709 138.62C94.3142 138.162 94.3858 137.668 94.3858 137.138ZM101.862 137.073L97.458 131.337H100.509L103.409 135.118L106.31 131.337H109.339L104.913 137.009L109.489 142.938H106.417L103.366 138.942L100.315 142.938H97.3076L101.862 137.073ZM121.155 137.138C121.155 137.954 121.019 138.728 120.747 139.458C120.475 140.188 120.088 140.833 119.587 141.392C119.1 141.95 118.506 142.394 117.804 142.724C117.102 143.039 116.314 143.196 115.44 143.196C114.567 143.196 113.779 143.039 113.077 142.724C112.375 142.394 111.774 141.95 111.272 141.392C110.786 140.833 110.406 140.188 110.134 139.458C109.862 138.728 109.726 137.954 109.726 137.138C109.726 136.321 109.862 135.548 110.134 134.817C110.406 134.087 110.786 133.442 111.272 132.884C111.774 132.325 112.375 131.888 113.077 131.573C113.779 131.244 114.567 131.079 115.44 131.079C116.314 131.079 117.102 131.244 117.804 131.573C118.506 131.888 119.1 132.325 119.587 132.884C120.088 133.442 120.475 134.087 120.747 134.817C121.019 135.548 121.155 136.321 121.155 137.138ZM118.47 137.138C118.47 136.608 118.398 136.114 118.255 135.655C118.126 135.197 117.933 134.796 117.675 134.452C117.417 134.108 117.095 133.836 116.708 133.636C116.336 133.435 115.913 133.335 115.44 133.335C114.968 133.335 114.538 133.435 114.151 133.636C113.779 133.836 113.464 134.108 113.206 134.452C112.948 134.796 112.748 135.197 112.605 135.655C112.476 136.114 112.411 136.608 112.411 137.138C112.411 137.668 112.476 138.162 112.605 138.62C112.748 139.078 112.948 139.479 113.206 139.823C113.464 140.167 113.779 140.439 114.151 140.64C114.538 140.84 114.968 140.94 115.44 140.94C115.913 140.94 116.336 140.84 116.708 140.64C117.095 140.439 117.417 140.167 117.675 139.823C117.933 139.479 118.126 139.078 118.255 138.62C118.398 138.162 118.47 137.668 118.47 137.138ZM129.255 133.593H128.202C128.116 134.151 127.994 134.746 127.837 135.376C127.694 135.992 127.522 136.615 127.321 137.245C127.135 137.861 126.92 138.47 126.677 139.071C126.448 139.659 126.197 140.196 125.925 140.683H129.255V133.593ZM130.995 144.979V142.938H124.292V144.979H121.606V140.683H122.981C123.354 140.081 123.69 139.394 123.991 138.62C124.306 137.832 124.578 137.023 124.808 136.192C125.051 135.347 125.252 134.509 125.409 133.679C125.567 132.848 125.681 132.067 125.753 131.337H131.962V140.683H133.681V144.979H130.995ZM138.88 143.196C138.25 143.196 137.655 143.118 137.097 142.96C136.552 142.817 136.073 142.595 135.657 142.294C135.256 141.979 134.934 141.585 134.69 141.112C134.461 140.64 134.347 140.088 134.347 139.458C134.347 138.842 134.476 138.298 134.733 137.825C134.991 137.353 135.349 136.959 135.808 136.644C136.266 136.314 136.803 136.071 137.419 135.913C138.035 135.756 138.708 135.677 139.439 135.677H142.21V135.483C142.21 134.681 141.974 134.13 141.501 133.829C141.043 133.514 140.391 133.356 139.546 133.356C138.973 133.356 138.35 133.457 137.677 133.657C137.018 133.843 136.309 134.166 135.55 134.624L135.249 132.196C135.937 131.867 136.646 131.602 137.376 131.401C138.106 131.187 138.894 131.079 139.739 131.079C141.444 131.079 142.718 131.466 143.564 132.239C144.409 133.013 144.831 134.244 144.831 135.935V142.938H142.21V141.972C141.795 142.33 141.315 142.623 140.771 142.853C140.241 143.082 139.61 143.196 138.88 143.196ZM139.181 141.091C139.496 141.091 139.811 141.048 140.126 140.962C140.455 140.862 140.749 140.726 141.007 140.554C141.279 140.368 141.515 140.153 141.716 139.909C141.931 139.666 142.095 139.394 142.21 139.093V137.696H139.61C138.823 137.696 138.192 137.861 137.72 138.19C137.247 138.52 137.011 138.928 137.011 139.415C137.011 139.959 137.204 140.375 137.591 140.661C137.978 140.948 138.508 141.091 139.181 141.091Z" fill="#F8F6E9"/>
</svg>
