<svg width="149" height="142" viewBox="0 0 149 142" fill="none" xmlns="http://www.w3.org/2000/svg">
<path d="M82.8502 114.152C101.244 108.084 124.254 113.413 138.859 90.2156C164.504 49.4849 127.339 -12.5483 64.9509 3.77713C-6.62594 22.5069 -17.6974 139.013 32.8095 140.974C57.1253 141.918 59.576 121.83 82.8502 114.152Z" fill="#EBFAFF"/>
<path d="M88.0418 91.981V99.5435C88.0418 100.25 87.4665 100.824 86.7569 100.824C86.0472 100.824 85.4719 100.25 85.4719 99.5435V91.981C85.4719 86.0928 80.6893 81.3276 74.7787 81.3277C71.9821 81.3277 69.4447 79.9083 67.9909 77.5306C67.6218 76.9268 67.8137 76.139 68.4199 75.7712C69.026 75.4033 69.8165 75.5947 70.1858 76.1987C71.1692 77.8071 72.8861 78.7673 74.7787 78.7673C82.1091 78.767 88.0418 84.6771 88.0418 91.981ZM65.6178 79.1478C65.769 79.8387 65.3294 80.5207 64.636 80.6713C61.2542 81.4054 57.8148 80.6705 55.0763 78.8083C52.3653 81.7027 48.7837 81.3277 49.2632 81.3277C43.353 81.3276 38.57 86.0923 38.57 91.981V99.5435C38.57 100.25 37.9946 100.824 37.285 100.824C36.5754 100.824 36 100.25 36 99.5435V91.981C36 84.6779 41.9317 78.7673 49.2628 78.7673C52.2283 78.7673 54.6323 76.3869 54.6323 73.4316V73.0945C49.0235 70.4225 45.0866 64.8075 44.8467 58.2689C42.5385 57.716 40.8187 55.6578 40.8187 53.2088V46.572C40.7485 43.3234 41.2326 35.1871 47.1871 29.4686C54.5396 22.4072 66.3307 22.8558 75.0008 27.0141C75.8459 27.4198 75.9742 28.5573 75.2724 29.1463C79.6647 30.2137 83.4522 32.9038 85.8855 36.7538C86.0111 36.952 86.2411 37.2633 86.181 37.7599C86.1438 38.0689 86.0514 38.3304 85.8124 38.572C84.2463 40.1544 83.3839 42.2512 83.3839 44.4764V53.2092C83.3839 53.9162 82.8086 54.4894 82.0989 54.4894C81.3893 54.4894 80.8139 53.9162 80.8139 53.2092V44.4764C80.8139 41.91 81.694 39.4741 83.3104 37.5173C80.8467 34.0069 77.003 31.7492 72.6559 31.2854L70.3974 31.0444C69.0767 30.9036 68.8176 29.091 70.045 28.5877L71.0721 28.1663C57.6944 23.5199 43.3885 28.6826 43.3885 46.5581V53.2088C43.3885 54.2247 43.9758 55.1076 44.8341 55.551V47.2515C44.8341 42.3101 48.8693 38.2899 53.829 38.2899H70.2126C75.1724 38.2899 79.2076 42.3098 79.2076 47.251V57.7333C79.2076 68.8671 68.2871 77.324 57.1748 74.0647C57.1026 74.9781 56.8743 75.8596 56.5025 76.6789C58.6641 78.1579 61.3939 78.7545 64.0887 78.1694C64.7821 78.019 65.4667 78.457 65.6178 79.1478ZM62.0208 72.1986C70.0806 72.1986 76.6376 65.6659 76.6376 57.636V47.251C76.6376 43.7217 73.7554 40.8503 70.2126 40.8503H53.829C50.2863 40.8503 47.4041 43.7219 47.4041 47.2515V57.636C47.4041 65.6659 53.9611 72.1986 62.0208 72.1986Z" fill="#17A3D0" stroke="#17A3D0" stroke-width="0.8"/>
<rect x="58.976" y="89.1067" width="53.9982" height="17.6515" rx="2.5" fill="#EBFAFF" stroke="#17A3D0" stroke-width="3"/>
<path d="M67.3224 96.3431V101.352C67.3224 101.696 67.4017 101.96 67.5867 102.172C67.7585 102.383 68.0229 102.476 68.3797 102.476C68.7234 102.476 68.9877 102.383 69.1727 102.172C69.3446 101.96 69.4371 101.696 69.4371 101.352V94.3341C69.4371 93.594 69.0934 93.2239 68.4062 93.2239C68.0757 93.2239 67.7717 93.3693 67.481 93.66L65.4059 95.7087C65.168 95.9598 65.0358 96.2109 65.0094 96.4753C64.983 96.7396 65.0887 96.9643 65.3002 97.1493C65.6702 97.4797 66.1461 97.3872 66.7276 96.885L67.3224 96.3431Z" fill="#17A3D0"/>
<path d="M73.5305 95.5501C74.0592 95.3254 74.5218 95.2064 74.9183 95.2064C75.5527 95.2064 75.8831 95.4575 75.8831 95.9598C75.8831 96.277 75.7378 96.5678 75.4734 96.8585C75.2091 97.1493 74.8787 97.4137 74.4954 97.678C74.1121 97.9423 73.7288 98.2199 73.3455 98.5239C72.9622 98.8411 72.6318 99.2376 72.3674 99.7134C72.1031 100.189 71.9709 100.731 71.9709 101.313C71.9709 101.656 72.0634 101.947 72.2485 102.159C72.4335 102.37 72.7243 102.476 73.1208 102.476H77.1255C77.4427 102.476 77.6939 102.396 77.8921 102.238C78.0772 102.079 78.1829 101.855 78.1829 101.551C78.1829 100.943 77.826 100.625 77.1255 100.625H74.1385C74.2442 100.335 74.4425 100.057 74.7465 99.7663C75.0505 99.4755 75.3809 99.2112 75.7378 98.96C76.0946 98.7221 76.4515 98.4578 76.7951 98.167C77.1388 97.8895 77.4163 97.5458 77.6542 97.1229C77.8789 96.6999 77.9979 96.2373 77.9979 95.7219C77.9979 94.9817 77.7467 94.387 77.2445 93.9244C76.7422 93.4618 76.0153 93.2239 75.0901 93.2239C74.1385 93.2239 73.3323 93.4618 72.6714 93.9112C72.3939 94.1094 72.2088 94.3341 72.1295 94.5984C72.0502 94.8628 72.0634 95.0875 72.1956 95.2989C72.4335 95.7483 72.8829 95.8276 73.5305 95.5501Z" fill="#17A3D0"/>
<path d="M81.7873 98.6693C82.8447 98.6693 83.3866 99.0129 83.3866 99.7002C83.3866 100.044 83.2808 100.295 83.0958 100.48C82.8975 100.665 82.62 100.758 82.2763 100.758C81.893 100.758 81.4437 100.652 80.9414 100.414C80.2541 100.123 79.7916 100.202 79.5404 100.652C79.4083 100.916 79.3818 101.167 79.4611 101.418C79.5404 101.683 79.7122 101.894 79.9766 102.053C80.5317 102.423 81.2851 102.608 82.2631 102.608C83.3073 102.608 84.1267 102.344 84.7347 101.788C85.3295 101.233 85.6335 100.506 85.6335 99.5945C85.6335 98.9072 85.3955 98.3388 84.933 97.863C84.4571 97.4004 83.7831 97.1229 82.8975 97.0436L85.0255 95.0346C85.3427 94.7174 85.4484 94.3473 85.3295 93.9508C85.1973 93.5543 84.8801 93.356 84.3646 93.356H80.9546C80.6242 93.356 80.3599 93.4486 80.1616 93.6072C79.9634 93.7658 79.8709 93.9905 79.8709 94.2812C79.8709 94.9024 80.2277 95.2064 80.9546 95.2064H82.7786L81.0075 96.8453C80.7696 97.0832 80.6507 97.3608 80.6507 97.678C80.6507 97.9952 80.7432 98.2331 80.9282 98.4049C81.1132 98.59 81.404 98.6693 81.7873 98.6693Z" fill="#17A3D0"/>
<path d="M93.6326 99.1054C93.6326 98.8543 93.5533 98.6561 93.4079 98.4975C93.2493 98.3521 93.0643 98.2728 92.8528 98.2728H92.562V94.3473C92.562 93.6072 92.2448 93.2239 91.6104 93.2239C91.2403 93.2239 90.8967 93.4221 90.5927 93.7922L86.9977 98.2067C86.6937 98.5768 86.6144 98.96 86.7598 99.3698C86.892 99.7927 87.2224 99.991 87.7246 99.991H90.5134V101.405C90.5134 101.736 90.5927 102 90.7645 102.185C90.9364 102.383 91.2007 102.476 91.5443 102.476C91.888 102.476 92.1391 102.383 92.3109 102.185C92.4695 102 92.562 101.736 92.562 101.405V99.991H92.8528C93.0907 99.991 93.289 99.9117 93.4211 99.7531C93.5533 99.5945 93.6326 99.383 93.6326 99.1054ZM88.9142 98.2728L90.6059 96.3695V98.2728H88.9142Z" fill="#17A3D0"/>
<path d="M98.4133 99.4359C98.4133 100.321 97.9904 100.758 97.1577 100.758C96.7612 100.758 96.3383 100.665 95.8889 100.467C95.2413 100.189 94.8051 100.269 94.5936 100.691C94.3293 101.22 94.4615 101.683 95.0166 102.079C95.5056 102.436 96.259 102.608 97.2635 102.608C98.334 102.608 99.1667 102.317 99.7615 101.722C100.356 101.128 100.66 100.361 100.66 99.4359C100.66 99.198 100.634 98.9468 100.594 98.6957C100.541 98.4578 100.462 98.1935 100.33 97.9159C100.198 97.6383 100.026 97.3872 99.8276 97.1758C99.6161 96.9643 99.3517 96.7925 99.0081 96.6603C98.6645 96.5281 98.268 96.4488 97.8318 96.4488C97.4353 96.4488 97.1049 96.4753 96.867 96.5017L96.9066 95.4708H99.2064C99.5236 95.4708 99.7747 95.3782 99.9729 95.1932C100.171 95.0082 100.277 94.7438 100.277 94.4134C100.277 94.1094 100.171 93.8583 99.9729 93.66C99.7615 93.4618 99.5103 93.356 99.2064 93.356H96.2854C95.9418 93.356 95.6774 93.4618 95.5056 93.66C95.3206 93.8715 95.2281 94.1226 95.2148 94.4266L95.0298 97.4269C94.9901 98.1142 95.2809 98.4578 95.8889 98.4578C96.0211 98.4578 96.2458 98.4314 96.5365 98.3785C96.8273 98.3256 97.0652 98.2992 97.2502 98.2992C97.5675 98.2992 97.845 98.4049 98.0697 98.59C98.2944 98.775 98.4133 99.0658 98.4133 99.4359Z" fill="#17A3D0"/>
<path d="M103.458 99.2112C103.458 98.9336 103.564 98.6957 103.802 98.4975C104.027 98.3124 104.304 98.2067 104.648 98.2067C104.978 98.2067 105.243 98.3256 105.454 98.5371C105.652 98.7618 105.758 99.0526 105.758 99.4094C105.758 99.8059 105.652 100.136 105.441 100.387C105.229 100.639 104.952 100.758 104.608 100.758C104.251 100.758 103.974 100.625 103.762 100.361C103.551 100.097 103.458 99.7134 103.458 99.2112ZM105.956 95.1932C106.115 95.2461 106.247 95.2725 106.34 95.2857C106.432 95.2989 106.551 95.2989 106.697 95.2857C106.842 95.2857 106.961 95.2329 107.067 95.1403C107.172 95.0478 107.252 94.9024 107.305 94.7174C107.463 94.2152 107.278 93.8186 106.763 93.5543C106.313 93.3428 105.771 93.2239 105.111 93.2239C103.947 93.2239 103.035 93.6733 102.361 94.5456C101.674 95.4179 101.344 96.7528 101.344 98.5371C101.344 99.8588 101.634 100.877 102.216 101.564C102.798 102.264 103.604 102.608 104.635 102.608C105.639 102.608 106.432 102.291 107.014 101.643C107.582 101.009 107.873 100.229 107.873 99.3301C107.873 98.4446 107.622 97.7309 107.146 97.189C106.657 96.6471 106.009 96.3695 105.203 96.3695C104.833 96.3695 104.476 96.4224 104.146 96.5281C103.815 96.6339 103.564 96.7792 103.379 96.9378C103.419 96.4092 103.564 95.9862 103.802 95.6426C104.066 95.2725 104.463 95.0743 105.005 95.0743C105.322 95.0743 105.639 95.1139 105.956 95.1932Z" fill="#17A3D0"/>
<path d="M92.1255 69.8398C92.1255 70.2264 92.2114 70.5271 92.4047 70.7419C92.598 70.9781 92.8772 71.0855 93.2638 71.0855C93.6504 71.0855 93.9296 70.9781 94.1444 70.7419C94.3377 70.5271 94.4451 70.2264 94.4451 69.8398V57.4902C94.4451 56.5452 94.1229 56.0512 93.4786 56.0512C93.2424 56.0512 93.0276 56.1156 92.8128 56.2015C92.598 56.3089 92.4692 56.3948 92.3833 56.4808C92.2973 56.5667 92.147 56.6955 91.9322 56.9103L88.7965 60.046C88.5173 60.3252 88.3669 60.6259 88.324 60.9266C88.281 61.2273 88.3669 61.5065 88.6247 61.7213C88.9039 61.9146 89.1831 61.979 89.4623 61.8931C89.7415 61.8072 89.9992 61.6569 90.2355 61.3991L92.1255 59.5521V69.8398Z" fill="#17A3D0"/>
<path d="M97.2483 63.6757C97.2483 66.0383 97.6778 67.8854 98.5799 69.2599C99.4819 70.6345 100.814 71.3003 102.618 71.3003C104.4 71.3003 105.732 70.6345 106.634 69.2599C107.515 67.8854 107.966 66.0383 107.966 63.6757C107.966 61.3562 107.515 59.4876 106.634 58.1131C105.732 56.7385 104.4 56.0512 102.618 56.0512C100.814 56.0512 99.4819 56.7385 98.5799 58.1131C97.6778 59.4876 97.2483 61.3562 97.2483 63.6757ZM99.5893 63.6757C99.5893 59.9816 100.599 58.1131 102.618 58.1131C103.584 58.1131 104.336 58.607 104.851 59.5735C105.367 60.5615 105.625 61.9146 105.625 63.6757C105.625 65.4369 105.367 66.8115 104.851 67.778C104.336 68.7659 103.584 69.2384 102.618 69.2384C101.63 69.2384 100.878 68.7659 100.363 67.778C99.8471 66.8115 99.5893 65.4369 99.5893 63.6757Z" fill="#17A3D0"/>
<path d="M109.055 60.1534C109.055 61.4206 109.355 62.4086 109.957 63.1388C110.558 63.869 111.417 64.2127 112.534 64.2127C113.629 64.2127 114.489 63.869 115.09 63.1388C115.691 62.4086 116.013 61.4206 116.013 60.1534C116.013 58.8862 115.691 57.8768 115.09 57.1466C114.489 56.4163 113.629 56.0512 112.534 56.0512C111.417 56.0512 110.558 56.4163 109.957 57.1466C109.355 57.8768 109.055 58.8862 109.055 60.1534ZM113.909 60.1534C113.909 61.6783 113.436 62.43 112.534 62.43C111.611 62.43 111.16 61.6783 111.16 60.1534C111.16 58.607 111.611 57.8338 112.534 57.8338C113.436 57.8338 113.909 58.607 113.909 60.1534ZM119.042 67.241C119.042 68.5082 119.342 69.4962 119.944 70.2264C120.545 70.9566 121.404 71.3003 122.521 71.3003C123.617 71.3003 124.476 70.9566 125.077 70.2264C125.678 69.4962 126.001 68.5082 126.001 67.241C126.001 65.9739 125.678 64.9644 125.077 64.2342C124.476 63.5039 123.617 63.1388 122.521 63.1388C121.404 63.1388 120.545 63.5039 119.944 64.2342C119.342 64.9644 119.042 65.9739 119.042 67.241ZM123.896 67.241C123.896 68.7659 123.423 69.5177 122.521 69.5177C121.598 69.5177 121.147 68.7659 121.147 67.241C121.147 65.6946 121.598 64.9214 122.521 64.9214C123.423 64.9214 123.896 65.6946 123.896 67.241ZM120.889 56.7814C121.168 55.9653 121.039 55.4498 120.502 55.2565C119.879 55.0418 119.428 55.3424 119.171 56.1586L114.166 70.3553C113.866 71.1929 113.995 71.7084 114.553 71.8802C115.176 72.095 115.627 71.8158 115.928 70.9996L120.889 56.7814Z" fill="#17A3D0"/>
<path d="M92.1255 69.8398C92.1255 70.2264 92.2114 70.5271 92.4047 70.7419C92.598 70.9781 92.8772 71.0855 93.2638 71.0855C93.6504 71.0855 93.9296 70.9781 94.1444 70.7419C94.3377 70.5271 94.4451 70.2264 94.4451 69.8398V57.4902C94.4451 56.5452 94.1229 56.0512 93.4786 56.0512C93.2424 56.0512 93.0276 56.1156 92.8128 56.2015C92.598 56.3089 92.4692 56.3948 92.3833 56.4808C92.2973 56.5667 92.147 56.6955 91.9322 56.9103L88.7965 60.046C88.5173 60.3252 88.3669 60.6259 88.324 60.9266C88.281 61.2273 88.3669 61.5065 88.6247 61.7213C88.9039 61.9146 89.1831 61.979 89.4623 61.8931C89.7415 61.8072 89.9992 61.6569 90.2355 61.3991L92.1255 59.5521V69.8398Z" stroke="#17A3D0" stroke-width="0.7"/>
<path d="M97.2483 63.6757C97.2483 66.0383 97.6778 67.8854 98.5799 69.2599C99.4819 70.6345 100.814 71.3003 102.618 71.3003C104.4 71.3003 105.732 70.6345 106.634 69.2599C107.515 67.8854 107.966 66.0383 107.966 63.6757C107.966 61.3562 107.515 59.4876 106.634 58.1131C105.732 56.7385 104.4 56.0512 102.618 56.0512C100.814 56.0512 99.4819 56.7385 98.5799 58.1131C97.6778 59.4876 97.2483 61.3562 97.2483 63.6757ZM99.5893 63.6757C99.5893 59.9816 100.599 58.1131 102.618 58.1131C103.584 58.1131 104.336 58.607 104.851 59.5735C105.367 60.5615 105.625 61.9146 105.625 63.6757C105.625 65.4369 105.367 66.8115 104.851 67.778C104.336 68.7659 103.584 69.2384 102.618 69.2384C101.63 69.2384 100.878 68.7659 100.363 67.778C99.8471 66.8115 99.5893 65.4369 99.5893 63.6757Z" stroke="#17A3D0" stroke-width="0.7"/>
<path d="M109.055 60.1534C109.055 61.4206 109.355 62.4086 109.957 63.1388C110.558 63.869 111.417 64.2127 112.534 64.2127C113.629 64.2127 114.489 63.869 115.09 63.1388C115.691 62.4086 116.013 61.4206 116.013 60.1534C116.013 58.8862 115.691 57.8768 115.09 57.1466C114.489 56.4163 113.629 56.0512 112.534 56.0512C111.417 56.0512 110.558 56.4163 109.957 57.1466C109.355 57.8768 109.055 58.8862 109.055 60.1534ZM113.909 60.1534C113.909 61.6783 113.436 62.43 112.534 62.43C111.611 62.43 111.16 61.6783 111.16 60.1534C111.16 58.607 111.611 57.8338 112.534 57.8338C113.436 57.8338 113.909 58.607 113.909 60.1534ZM119.042 67.241C119.042 68.5082 119.342 69.4962 119.944 70.2264C120.545 70.9566 121.404 71.3003 122.521 71.3003C123.617 71.3003 124.476 70.9566 125.077 70.2264C125.678 69.4962 126.001 68.5082 126.001 67.241C126.001 65.9739 125.678 64.9644 125.077 64.2342C124.476 63.5039 123.617 63.1388 122.521 63.1388C121.404 63.1388 120.545 63.5039 119.944 64.2342C119.342 64.9644 119.042 65.9739 119.042 67.241ZM123.896 67.241C123.896 68.7659 123.423 69.5177 122.521 69.5177C121.598 69.5177 121.147 68.7659 121.147 67.241C121.147 65.6946 121.598 64.9214 122.521 64.9214C123.423 64.9214 123.896 65.6946 123.896 67.241ZM120.889 56.7814C121.168 55.9653 121.039 55.4498 120.502 55.2565C119.879 55.0418 119.428 55.3424 119.171 56.1586L114.166 70.3553C113.866 71.1929 113.995 71.7084 114.553 71.8802C115.176 72.095 115.627 71.8158 115.928 70.9996L120.889 56.7814Z" stroke="#17A3D0" stroke-width="0.7"/>
</svg>
