<svg width="149" height="142" viewBox="0 0 149 142" fill="none" xmlns="http://www.w3.org/2000/svg">
<path d="M82.8502 114.152C101.244 108.084 124.254 113.413 138.859 90.2156C164.504 49.4849 127.339 -12.5483 64.9509 3.77713C-6.62594 22.5069 -17.6974 139.013 32.8095 140.974C57.1253 141.918 59.576 121.83 82.8502 114.152Z" fill="#F8F6E9"/>
<path d="M127.308 35H24.6923C21.5536 35 19 37.5535 19 40.6921V75.1051C19 78.2438 21.5536 80.7973 24.6923 80.7973H52.614C53.4074 80.7973 54.0505 80.1541 54.0505 79.3609C54.0505 78.5676 53.4073 77.9244 52.6139 77.9244H24.6923C23.1377 77.9244 21.873 76.6597 21.873 75.1051V40.6921C21.873 39.1375 23.1377 37.8728 24.6923 37.8728H127.308C128.862 37.8728 130.127 39.1375 130.127 40.6921V75.1051C130.127 76.6597 128.862 77.9244 127.308 77.9244H106.709C105.915 77.9244 105.272 78.5676 105.272 79.3609C105.272 80.1541 105.915 80.7973 106.709 80.7973H127.308C130.447 80.7973 133 78.2438 133 75.1051V40.6921C133 37.5535 130.447 35 127.308 35Z" fill="#EF747A" stroke="#EF747A"/>
<path d="M104.033 87.7747C103.996 86.6421 103.286 85.6555 102.224 85.2613V85.2612L78.465 76.4469C76.856 75.8502 75.1028 76.2331 73.8895 77.4462C72.676 78.6592 72.2927 80.4124 72.8891 82.0212L81.6811 105.741C82.077 106.809 83.0684 107.519 84.2069 107.551C84.2335 107.552 84.2599 107.552 84.2862 107.552C85.3929 107.552 86.3855 106.904 86.8296 105.885L89.2616 100.301L94.5342 105.576C96.0349 107.077 98.4772 107.077 99.9784 105.576L102.012 103.543C102.739 102.816 103.14 101.849 103.14 100.821C103.14 99.7927 102.74 98.8259 102.013 98.0987L96.8071 92.8915L102.39 90.3995C103.424 89.9374 104.069 88.9072 104.033 87.7747ZM93.7298 91.1189C93.298 91.3116 92.9888 91.7045 92.9028 92.1694C92.8169 92.6343 92.9652 93.1117 93.2994 93.4463L99.9814 100.13C100.362 100.511 100.362 101.131 99.9812 101.511L97.9473 103.545C97.7629 103.729 97.5176 103.831 97.2568 103.831H97.2567C96.9957 103.831 96.7504 103.729 96.566 103.544L89.8026 96.7792C89.4667 96.4431 88.9863 96.2955 88.5193 96.3835C88.0524 96.4719 87.6595 96.7855 87.4698 97.2212L84.2916 104.518L75.5829 81.0229C75.28 80.2057 75.7649 79.6338 75.9207 79.4779C76.0408 79.358 76.4076 79.0428 76.9435 79.0428C77.1033 79.0428 77.2783 79.0709 77.4659 79.1405L101.003 87.8725L93.7298 91.1189ZM101.225 87.9553C101.225 87.955 101.225 87.9549 101.224 87.9547L101.724 86.608L101.225 87.9553Z" fill="#EF747A" stroke="#EF747A"/>
<path d="M71.687 73.2049L67.628 69.1457C67.067 68.5849 66.1575 68.5849 65.5965 69.1457C65.0355 69.7067 65.0355 70.6161 65.5964 71.1771L69.6555 75.2364C69.9361 75.5168 70.3035 75.6571 70.6712 75.6571C71.0388 75.6571 71.4065 75.5168 71.687 75.2364C72.248 74.6754 72.248 73.7659 71.687 73.2049Z" fill="#EF747A" stroke="#EF747A"/>
<path d="M67.7079 77.9365H61.9674C61.174 77.9365 60.531 78.5797 60.531 79.3729C60.531 80.1662 61.1742 80.8093 61.9674 80.8093H67.7079C68.5011 80.8093 69.1443 80.1662 69.1443 79.3729C69.1443 78.5797 68.5011 77.9365 67.7079 77.9365Z" fill="#EF747A" stroke="#EF747A"/>
<path d="M75.9478 63.9541C75.1545 63.9541 74.5114 64.5973 74.5114 65.3905V71.131C74.5114 71.9242 75.1545 72.5674 75.9478 72.5674C76.741 72.5674 77.3842 71.9242 77.3842 71.131V65.3905C77.3842 64.5973 76.741 63.9541 75.9478 63.9541Z" fill="#EF747A" stroke="#EF747A"/>
<path d="M88.0079 66.6228C87.4468 66.062 86.5374 66.0619 85.9764 66.6228L81.9172 70.6819C81.3562 71.2429 81.3562 72.1523 81.9171 72.7134C82.1977 72.9938 82.5653 73.134 82.933 73.134C83.3006 73.134 83.6683 72.9938 83.9487 72.7134L88.0079 68.6542C88.5689 68.0932 88.5689 67.1838 88.0079 66.6228Z" fill="#EF747A" stroke="#EF747A"/>
<path d="M70.0227 84.6081C69.4617 84.0473 68.5521 84.0473 67.9912 84.6081L63.9321 88.6673C63.371 89.2283 63.3712 90.1378 63.9321 90.6988C64.2125 90.9793 64.5801 91.1195 64.9478 91.1195C65.3155 91.1195 65.6831 90.9793 65.9636 90.6988L70.0227 86.6395C70.5837 86.0785 70.5836 85.1691 70.0227 84.6081Z" fill="#EF747A" stroke="#EF747A"/>
<path d="M40.2127 56.8766C39.4603 56.8766 38.6542 56.7154 37.8122 56.3929C37.006 56.1063 36.5044 56.1958 36.2895 56.6616C36.1641 56.9841 36.1641 57.2528 36.2895 57.5036C36.397 57.7544 36.6119 57.9694 36.9344 58.1306C37.7764 58.5784 38.8691 58.7934 40.2306 58.7934C41.6279 58.7934 42.7924 58.4889 43.6881 57.844C44.5838 57.199 45.0496 56.2138 45.0496 54.8702C45.0496 54.1894 44.8525 53.5983 44.4584 53.0967C44.0643 52.613 43.5268 52.2726 42.8103 52.0756C43.4194 51.8427 43.8672 51.4665 44.1897 50.9649C44.4942 50.4633 44.6554 49.9079 44.6554 49.3168C44.6554 48.2777 44.2792 47.4716 43.5268 46.9162C42.7744 46.3609 41.7712 46.0743 40.4993 46.0743C39.2095 46.0743 38.1167 46.3251 37.221 46.8088C36.8986 46.9879 36.7015 47.185 36.594 47.4358C36.4865 47.6866 36.4865 47.9374 36.6298 48.1882C36.8269 48.6181 37.2927 48.6898 38.0451 48.439C38.905 48.1523 39.6574 47.9911 40.2844 47.9911C40.983 47.9911 41.5025 48.1523 41.8608 48.439C42.2191 48.7435 42.3982 49.1376 42.3982 49.6392C42.3982 50.2483 42.1833 50.6962 41.7533 51.0007C41.3234 51.3232 40.7322 51.4665 39.9798 51.4665H38.8691C38.6004 51.4665 38.3854 51.556 38.2242 51.6994C38.063 51.8606 37.9913 52.0576 37.9913 52.3084C37.9913 52.5772 38.063 52.7921 38.2242 52.9354C38.3854 53.0788 38.6004 53.1504 38.8691 53.1504H40.2127C41.9325 53.1862 42.7924 53.7774 42.7924 54.9239C42.7924 55.5688 42.5595 56.0525 42.1116 56.375C41.6458 56.7154 41.0188 56.8766 40.2127 56.8766Z" fill="#EF747A"/>
<path d="M54.7439 57.7723C54.8693 58.1306 55.0663 58.3635 55.3171 58.5068C55.5679 58.6501 55.8725 58.6501 56.2128 58.5247C56.4995 58.4172 56.6965 58.2202 56.7682 57.8977C56.8398 57.5932 56.8219 57.3065 56.6965 57.0378L52.5404 46.8446C52.3254 46.343 51.9671 46.0743 51.5014 46.0743C50.9998 46.0743 50.6236 46.3788 50.4086 46.9521L46.3779 57.0557C46.0913 57.8081 46.1987 58.3097 46.7362 58.5247C47.4169 58.8113 47.9006 58.5068 48.2051 57.6469L49.1367 55.121H53.7407L54.7439 57.7723ZM51.3939 48.9226L53.1316 53.437H49.7099L51.3939 48.9226Z" fill="#EF747A"/>
<path d="M57.9206 57.5215C57.9206 57.844 58.0101 58.1127 58.1893 58.3097C58.3684 58.5247 58.6371 58.6143 58.9954 58.6143C59.3179 58.6143 59.5866 58.5247 59.7836 58.3097C59.9628 58.1127 60.0703 57.844 60.0703 57.5215V52.9713L64.6742 58.041C65.3012 58.7218 65.8745 58.7934 66.4119 58.2739C66.6269 58.0231 66.7165 57.7544 66.6806 57.4498C66.6269 57.1453 66.4657 56.8408 66.197 56.5541L62.1125 52.2368L65.9282 48.1165C66.1611 47.8657 66.3044 47.597 66.3403 47.3104C66.3761 47.0237 66.2865 46.7729 66.0536 46.5221C65.552 46.0922 65.0325 46.1997 64.4593 46.8446L60.0703 51.8785V47.3641C60.0703 47.0416 59.9628 46.7908 59.7836 46.5759C59.5866 46.3609 59.3179 46.2534 58.9954 46.2534C58.6371 46.2534 58.3684 46.3609 58.1893 46.5759C58.0101 46.7908 57.9206 47.0416 57.9206 47.3641V57.5215Z" fill="#EF747A"/>
<path d="M76.1045 57.7723C76.2299 58.1306 76.427 58.3635 76.6778 58.5068C76.9286 58.6501 77.2331 58.6501 77.5735 58.5247C77.8601 58.4172 78.0572 58.2202 78.1289 57.8977C78.2005 57.5932 78.1826 57.3065 78.0572 57.0378L73.9011 46.8446C73.6861 46.343 73.3278 46.0743 72.8621 46.0743C72.3605 46.0743 71.9843 46.3788 71.7693 46.9521L67.7386 57.0557C67.4519 57.8081 67.5594 58.3097 68.0969 58.5247C68.7776 58.8113 69.2613 58.5068 69.5658 57.6469L70.4974 55.121H75.1013L76.1045 57.7723ZM72.7546 48.9226L74.4923 53.437H71.0706L72.7546 48.9226Z" fill="#EF747A"/>
<path d="M82.5492 56.8766C81.7968 56.8766 80.9907 56.7154 80.1487 56.3929C79.3425 56.1063 78.8409 56.1958 78.626 56.6616C78.5006 56.9841 78.5006 57.2528 78.626 57.5036C78.7335 57.7544 78.9484 57.9694 79.2709 58.1306C80.1129 58.5784 81.2056 58.7934 82.5671 58.7934C83.9644 58.7934 85.1289 58.4889 86.0246 57.844C86.9203 57.199 87.3861 56.2138 87.3861 54.8702C87.3861 54.1894 87.189 53.5983 86.7949 53.0967C86.4008 52.613 85.8633 52.2726 85.1468 52.0756C85.7559 51.8427 86.2037 51.4665 86.5262 50.9649C86.8307 50.4633 86.9919 49.9079 86.9919 49.3168C86.9919 48.2777 86.6157 47.4716 85.8633 46.9162C85.1109 46.3609 84.1077 46.0743 82.8358 46.0743C81.546 46.0743 80.4532 46.3251 79.5575 46.8088C79.2351 46.9879 79.038 47.185 78.9305 47.4358C78.823 47.6866 78.823 47.9374 78.9663 48.1882C79.1634 48.6181 79.6292 48.6898 80.3816 48.439C81.2415 48.1523 81.9939 47.9911 82.6209 47.9911C83.3195 47.9911 83.839 48.1523 84.1973 48.439C84.5556 48.7435 84.7347 49.1376 84.7347 49.6392C84.7347 50.2483 84.5198 50.6962 84.0898 51.0007C83.6599 51.3232 83.0687 51.4665 82.3163 51.4665H81.2056C80.9369 51.4665 80.7219 51.556 80.5607 51.6994C80.3995 51.8606 80.3278 52.0576 80.3278 52.3084C80.3278 52.5772 80.3995 52.7921 80.5607 52.9354C80.7219 53.0788 80.9369 53.1504 81.2056 53.1504H82.5492C84.269 53.1862 85.1289 53.7774 85.1289 54.9239C85.1289 55.5688 84.896 56.0525 84.4481 56.375C83.9823 56.7154 83.3553 56.8766 82.5492 56.8766Z" fill="#EF747A"/>
<path d="M97.0803 57.7723C97.2057 58.1306 97.4028 58.3635 97.6536 58.5068C97.9044 58.6501 98.2089 58.6501 98.5493 58.5247C98.8359 58.4172 99.033 58.2202 99.1047 57.8977C99.1763 57.5932 99.1584 57.3065 99.033 57.0378L94.8769 46.8446C94.6619 46.343 94.3036 46.0743 93.8379 46.0743C93.3363 46.0743 92.9601 46.3788 92.7451 46.9521L88.7144 57.0557C88.4277 57.8081 88.5352 58.3097 89.0727 58.5247C89.7534 58.8113 90.2371 58.5068 90.5416 57.6469L91.4732 55.121H96.0772L97.0803 57.7723ZM93.7304 48.9226L95.4681 53.437H92.0464L93.7304 48.9226Z" fill="#EF747A"/>
<path d="M98.7646 46.2534C98.4421 46.2534 98.1913 46.343 98.0122 46.5042C97.833 46.6834 97.7435 46.9162 97.7435 47.2029C97.7435 47.4895 97.833 47.7224 98.0122 47.9015C98.1913 48.0807 98.4421 48.1702 98.7646 48.1702H101.935V57.5215C101.935 57.844 102.025 58.1127 102.204 58.3097C102.383 58.5247 102.652 58.6143 103.01 58.6143C103.351 58.6143 103.619 58.5247 103.798 58.3097C103.978 58.1127 104.085 57.844 104.085 57.5215V48.1702H107.256C107.578 48.1702 107.829 48.0807 108.008 47.9015C108.187 47.7224 108.295 47.4895 108.295 47.2029C108.295 46.9162 108.187 46.6834 108.008 46.5042C107.829 46.343 107.578 46.2534 107.256 46.2534H98.7646Z" fill="#EF747A"/>
<path d="M109.722 57.2528C109.722 57.9335 110.044 58.3456 110.725 58.4889C111.388 58.6322 112.319 58.7038 113.501 58.7038C114.935 58.7038 116.081 58.3635 116.941 57.6827C117.801 57.002 118.231 56.0167 118.231 54.709C118.231 53.2758 117.819 52.2368 117.013 51.6277C116.189 51.0186 115.024 50.7141 113.519 50.7141C112.892 50.7141 112.337 50.7678 111.871 50.8574V47.3462C111.871 47.0237 111.764 46.7729 111.585 46.558C111.388 46.3609 111.119 46.2534 110.796 46.2534C110.438 46.2534 110.169 46.3609 109.99 46.558C109.811 46.7729 109.722 47.0237 109.722 47.3462V57.2528ZM113.322 52.6309C114.146 52.6309 114.791 52.7921 115.257 53.0788C115.723 53.3833 115.974 53.9207 115.974 54.6731C115.974 56.0884 115.132 56.787 113.448 56.787C112.91 56.787 112.391 56.7512 111.871 56.6795V52.7384C112.391 52.6667 112.874 52.6309 113.322 52.6309Z" fill="#EF747A"/>
<path d="M40.2127 56.8766C39.4603 56.8766 38.6542 56.7154 37.8122 56.3929C37.006 56.1063 36.5044 56.1958 36.2895 56.6616C36.1641 56.9841 36.1641 57.2528 36.2895 57.5036C36.397 57.7544 36.6119 57.9694 36.9344 58.1306C37.7764 58.5784 38.8691 58.7934 40.2306 58.7934C41.6279 58.7934 42.7924 58.4889 43.6881 57.844C44.5838 57.199 45.0496 56.2138 45.0496 54.8702C45.0496 54.1894 44.8525 53.5983 44.4584 53.0967C44.0643 52.613 43.5268 52.2726 42.8103 52.0756C43.4194 51.8427 43.8672 51.4665 44.1897 50.9649C44.4942 50.4633 44.6554 49.9079 44.6554 49.3168C44.6554 48.2777 44.2792 47.4716 43.5268 46.9162C42.7744 46.3609 41.7712 46.0743 40.4993 46.0743C39.2095 46.0743 38.1167 46.3251 37.221 46.8088C36.8986 46.9879 36.7015 47.185 36.594 47.4358C36.4865 47.6866 36.4865 47.9374 36.6298 48.1882C36.8269 48.6181 37.2927 48.6898 38.0451 48.439C38.905 48.1523 39.6574 47.9911 40.2844 47.9911C40.983 47.9911 41.5025 48.1523 41.8608 48.439C42.2191 48.7435 42.3982 49.1376 42.3982 49.6392C42.3982 50.2483 42.1833 50.6962 41.7533 51.0007C41.3234 51.3232 40.7322 51.4665 39.9798 51.4665H38.8691C38.6004 51.4665 38.3854 51.556 38.2242 51.6994C38.063 51.8606 37.9913 52.0576 37.9913 52.3084C37.9913 52.5772 38.063 52.7921 38.2242 52.9354C38.3854 53.0788 38.6004 53.1504 38.8691 53.1504H40.2127C41.9325 53.1862 42.7924 53.7774 42.7924 54.9239C42.7924 55.5688 42.5595 56.0525 42.1116 56.375C41.6458 56.7154 41.0188 56.8766 40.2127 56.8766Z" stroke="#EF747A"/>
<path d="M54.7439 57.7723C54.8693 58.1306 55.0663 58.3635 55.3171 58.5068C55.5679 58.6501 55.8725 58.6501 56.2128 58.5247C56.4995 58.4172 56.6965 58.2202 56.7682 57.8977C56.8398 57.5932 56.8219 57.3065 56.6965 57.0378L52.5404 46.8446C52.3254 46.343 51.9671 46.0743 51.5014 46.0743C50.9998 46.0743 50.6236 46.3788 50.4086 46.9521L46.3779 57.0557C46.0913 57.8081 46.1987 58.3097 46.7362 58.5247C47.4169 58.8113 47.9006 58.5068 48.2051 57.6469L49.1367 55.121H53.7407L54.7439 57.7723ZM51.3939 48.9226L53.1316 53.437H49.7099L51.3939 48.9226Z" stroke="#EF747A"/>
<path d="M57.9206 57.5215C57.9206 57.844 58.0101 58.1127 58.1893 58.3097C58.3684 58.5247 58.6371 58.6143 58.9954 58.6143C59.3179 58.6143 59.5866 58.5247 59.7836 58.3097C59.9628 58.1127 60.0703 57.844 60.0703 57.5215V52.9713L64.6742 58.041C65.3012 58.7218 65.8745 58.7934 66.4119 58.2739C66.6269 58.0231 66.7165 57.7544 66.6806 57.4498C66.6269 57.1453 66.4657 56.8408 66.197 56.5541L62.1125 52.2368L65.9282 48.1165C66.1611 47.8657 66.3044 47.597 66.3403 47.3104C66.3761 47.0237 66.2865 46.7729 66.0536 46.5221C65.552 46.0922 65.0325 46.1997 64.4593 46.8446L60.0703 51.8785V47.3641C60.0703 47.0416 59.9628 46.7908 59.7836 46.5759C59.5866 46.3609 59.3179 46.2534 58.9954 46.2534C58.6371 46.2534 58.3684 46.3609 58.1893 46.5759C58.0101 46.7908 57.9206 47.0416 57.9206 47.3641V57.5215Z" stroke="#EF747A"/>
<path d="M76.1045 57.7723C76.2299 58.1306 76.427 58.3635 76.6778 58.5068C76.9286 58.6501 77.2331 58.6501 77.5735 58.5247C77.8601 58.4172 78.0572 58.2202 78.1289 57.8977C78.2005 57.5932 78.1826 57.3065 78.0572 57.0378L73.9011 46.8446C73.6861 46.343 73.3278 46.0743 72.8621 46.0743C72.3605 46.0743 71.9843 46.3788 71.7693 46.9521L67.7386 57.0557C67.4519 57.8081 67.5594 58.3097 68.0969 58.5247C68.7776 58.8113 69.2613 58.5068 69.5658 57.6469L70.4974 55.121H75.1013L76.1045 57.7723ZM72.7546 48.9226L74.4923 53.437H71.0706L72.7546 48.9226Z" stroke="#EF747A"/>
<path d="M82.5492 56.8766C81.7968 56.8766 80.9907 56.7154 80.1487 56.3929C79.3425 56.1063 78.8409 56.1958 78.626 56.6616C78.5006 56.9841 78.5006 57.2528 78.626 57.5036C78.7335 57.7544 78.9484 57.9694 79.2709 58.1306C80.1129 58.5784 81.2056 58.7934 82.5671 58.7934C83.9644 58.7934 85.1289 58.4889 86.0246 57.844C86.9203 57.199 87.3861 56.2138 87.3861 54.8702C87.3861 54.1894 87.189 53.5983 86.7949 53.0967C86.4008 52.613 85.8633 52.2726 85.1468 52.0756C85.7559 51.8427 86.2037 51.4665 86.5262 50.9649C86.8307 50.4633 86.9919 49.9079 86.9919 49.3168C86.9919 48.2777 86.6157 47.4716 85.8633 46.9162C85.1109 46.3609 84.1077 46.0743 82.8358 46.0743C81.546 46.0743 80.4532 46.3251 79.5575 46.8088C79.2351 46.9879 79.038 47.185 78.9305 47.4358C78.823 47.6866 78.823 47.9374 78.9663 48.1882C79.1634 48.6181 79.6292 48.6898 80.3816 48.439C81.2415 48.1523 81.9939 47.9911 82.6209 47.9911C83.3195 47.9911 83.839 48.1523 84.1973 48.439C84.5556 48.7435 84.7347 49.1376 84.7347 49.6392C84.7347 50.2483 84.5198 50.6962 84.0898 51.0007C83.6599 51.3232 83.0687 51.4665 82.3163 51.4665H81.2056C80.9369 51.4665 80.7219 51.556 80.5607 51.6994C80.3995 51.8606 80.3278 52.0576 80.3278 52.3084C80.3278 52.5772 80.3995 52.7921 80.5607 52.9354C80.7219 53.0788 80.9369 53.1504 81.2056 53.1504H82.5492C84.269 53.1862 85.1289 53.7774 85.1289 54.9239C85.1289 55.5688 84.896 56.0525 84.4481 56.375C83.9823 56.7154 83.3553 56.8766 82.5492 56.8766Z" stroke="#EF747A"/>
<path d="M97.0803 57.7723C97.2057 58.1306 97.4028 58.3635 97.6536 58.5068C97.9044 58.6501 98.2089 58.6501 98.5493 58.5247C98.8359 58.4172 99.033 58.2202 99.1047 57.8977C99.1763 57.5932 99.1584 57.3065 99.033 57.0378L94.8769 46.8446C94.6619 46.343 94.3036 46.0743 93.8379 46.0743C93.3363 46.0743 92.9601 46.3788 92.7451 46.9521L88.7144 57.0557C88.4277 57.8081 88.5352 58.3097 89.0727 58.5247C89.7534 58.8113 90.2371 58.5068 90.5416 57.6469L91.4732 55.121H96.0772L97.0803 57.7723ZM93.7304 48.9226L95.4681 53.437H92.0464L93.7304 48.9226Z" stroke="#EF747A"/>
<path d="M98.7646 46.2534C98.4421 46.2534 98.1913 46.343 98.0122 46.5042C97.833 46.6834 97.7435 46.9162 97.7435 47.2029C97.7435 47.4895 97.833 47.7224 98.0122 47.9015C98.1913 48.0807 98.4421 48.1702 98.7646 48.1702H101.935V57.5215C101.935 57.844 102.025 58.1127 102.204 58.3097C102.383 58.5247 102.652 58.6143 103.01 58.6143C103.351 58.6143 103.619 58.5247 103.798 58.3097C103.978 58.1127 104.085 57.844 104.085 57.5215V48.1702H107.256C107.578 48.1702 107.829 48.0807 108.008 47.9015C108.187 47.7224 108.295 47.4895 108.295 47.2029C108.295 46.9162 108.187 46.6834 108.008 46.5042C107.829 46.343 107.578 46.2534 107.256 46.2534H98.7646Z" stroke="#EF747A"/>
<path d="M109.722 57.2528C109.722 57.9335 110.044 58.3456 110.725 58.4889C111.388 58.6322 112.319 58.7038 113.501 58.7038C114.935 58.7038 116.081 58.3635 116.941 57.6827C117.801 57.002 118.231 56.0167 118.231 54.709C118.231 53.2758 117.819 52.2368 117.013 51.6277C116.189 51.0186 115.024 50.7141 113.519 50.7141C112.892 50.7141 112.337 50.7678 111.871 50.8574V47.3462C111.871 47.0237 111.764 46.7729 111.585 46.558C111.388 46.3609 111.119 46.2534 110.796 46.2534C110.438 46.2534 110.169 46.3609 109.99 46.558C109.811 46.7729 109.722 47.0237 109.722 47.3462V57.2528ZM113.322 52.6309C114.146 52.6309 114.791 52.7921 115.257 53.0788C115.723 53.3833 115.974 53.9207 115.974 54.6731C115.974 56.0884 115.132 56.787 113.448 56.787C112.91 56.787 112.391 56.7512 111.871 56.6795V52.7384C112.391 52.6667 112.874 52.6309 113.322 52.6309Z" stroke="#EF747A"/>
</svg>
