<svg width="149" height="142" viewBox="0 0 149 142" fill="none" xmlns="http://www.w3.org/2000/svg">
<path d="M82.8502 114.152C101.244 108.084 124.254 113.413 138.859 90.2156C164.504 49.4849 127.339 -12.5483 64.9509 3.77713C-6.62594 22.5069 -17.6974 139.013 32.8095 140.974C57.1253 141.918 59.576 121.83 82.8502 114.152Z" fill="#EBFAFF"/>
<path d="M76.0008 50.1611C73.0357 50.1611 70.6245 52.5724 70.6245 55.5374C70.6245 58.5023 73.0358 60.9136 76.0008 60.9136C78.9658 60.9136 81.377 58.5023 81.377 55.5374C81.377 52.5724 78.9658 50.1611 76.0008 50.1611ZM76.0008 58.2255C74.5183 58.2255 73.3126 57.02 73.3126 55.5374C73.3126 54.0549 74.5181 52.8492 76.0008 52.8492C77.4832 52.8492 78.6889 54.0547 78.6889 55.5374C78.6889 57.02 77.4832 58.2255 76.0008 58.2255Z" fill="#17A3D0" stroke="#17A3D0" stroke-width="0.7"/>
<path d="M78.2077 63.6016H73.7951C70.5652 63.6016 67.9377 66.2293 67.9377 69.459V71.666C67.9377 72.4092 68.5398 73.01 69.2817 73.01H82.7223C83.4642 73.01 84.0663 72.4092 84.0663 71.666V69.459C84.0665 66.2293 81.4375 63.6016 78.2077 63.6016ZM81.3783 70.322H70.6257V69.4591C70.6257 67.7119 72.0477 66.2898 73.7951 66.2898H78.2077C79.9563 66.2898 81.3783 67.7105 81.3783 69.4591V70.322Z" fill="#17A3D0" stroke="#17A3D0" stroke-width="0.7"/>
<path d="M110.27 30H41.7229C38.3883 30 35.6746 32.7137 35.6746 36.0483V98.2954C35.6746 101.63 38.3883 104.344 41.7229 104.344H110.27C113.605 104.344 116.319 101.63 116.319 98.2954V36.0483C116.319 32.7137 113.605 30 110.27 30ZM113.63 98.2954C113.63 100.149 112.124 101.656 110.27 101.656H41.7229C39.8707 101.656 38.3627 100.149 38.3627 98.2954V36.0483C38.3627 34.1948 39.8695 32.6882 41.7229 32.6882H110.27C112.122 32.6882 113.63 34.1949 113.63 36.0483V98.2954Z" fill="#17A3D0" stroke="#17A3D0" stroke-width="0.7"/>
<path d="M47.7781 35.376H42.4019C41.66 35.376 41.0579 35.9767 41.0579 36.72V42.0964C41.0579 42.8396 41.66 43.4404 42.4019 43.4404H47.7781C48.52 43.4404 49.1221 42.8396 49.1221 42.0964V36.7201C49.1221 35.9769 48.52 35.376 47.7781 35.376ZM46.4341 40.7524H43.7459V38.0642H46.4341V40.7524Z" fill="#17A3D0" stroke="#17A3D0" stroke-width="0.7"/>
<path d="M58.5283 35.376H53.1521C52.4103 35.376 51.8081 35.9767 51.8081 36.72V42.0964C51.8081 42.8396 52.4103 43.4404 53.1521 43.4404H58.5283C59.2702 43.4404 59.8724 42.8396 59.8724 42.0964V36.7201C59.8724 35.9769 59.2702 35.376 58.5283 35.376ZM57.1842 40.7524H54.496V38.0642H57.1842V40.7524Z" fill="#17A3D0" stroke="#17A3D0" stroke-width="0.7"/>
<path d="M69.2746 35.376H63.8984C63.1565 35.376 62.5544 35.9767 62.5544 36.72V42.0964C62.5544 42.8396 63.1565 43.4404 63.8984 43.4404H69.2746C70.0165 43.4404 70.6186 42.8396 70.6186 42.0964V36.7201C70.6188 35.9769 70.0166 35.376 69.2746 35.376ZM67.9306 40.7524H65.2424V38.0642H67.9306V40.7524Z" fill="#17A3D0" stroke="#17A3D0" stroke-width="0.7"/>
<path d="M110.27 30H41.7229C38.3883 30 35.6746 32.7137 35.6746 36.0483V47.4728C35.6746 48.2161 36.2767 48.8168 37.0186 48.8168H114.974C115.716 48.8168 116.318 48.2161 116.318 47.4728V36.0483C116.319 32.7137 113.605 30 110.27 30ZM113.63 46.1288H38.3627V36.0483C38.3627 34.1948 39.8695 32.6882 41.7229 32.6882H110.27C112.122 32.6882 113.63 34.1949 113.63 36.0483V46.1288Z" fill="#17A3D0" stroke="#17A3D0" stroke-width="0.7"/>
<path d="M96.1582 75.6982H55.8362C55.0943 75.6982 54.4922 76.299 54.4922 77.0423V82.4186C54.4922 83.1619 55.0943 83.7627 55.8362 83.7627H96.1582C96.9001 83.7627 97.5022 83.1619 97.5022 82.4186V77.0424C97.5022 76.2991 96.9001 75.6982 96.1582 75.6982ZM94.8142 81.0746H57.1802V78.3864H94.814V81.0746H94.8142Z" fill="#17A3D0" stroke="#17A3D0" stroke-width="0.7"/>
<path d="M73.309 86.4512H55.8362C55.0943 86.4512 54.4922 87.0519 54.4922 87.7952V93.1714C54.4922 93.9147 55.0943 94.5154 55.8362 94.5154H73.309C74.0509 94.5154 74.653 93.9147 74.653 93.1714V87.7952C74.6532 87.0519 74.051 86.4512 73.309 86.4512ZM71.965 91.8274H57.1802V89.1392H71.965V91.8274Z" fill="#17A3D0" stroke="#17A3D0" stroke-width="0.7"/>
<path d="M96.1605 86.4507H78.6877C77.9458 86.4507 77.3437 87.0514 77.3437 87.7947V93.1709C77.3437 93.9142 77.9458 94.5149 78.6877 94.5149H96.1605C96.9024 94.5149 97.5045 93.9142 97.5045 93.1709V87.7947C97.5045 87.0514 96.9024 86.4507 96.1605 86.4507ZM94.8165 91.8269H80.0317V89.1387H94.8165V91.8269Z" fill="#17A3D0" stroke="#17A3D0" stroke-width="0.7"/>
</svg>
