<svg width="149" height="142" viewBox="0 0 149 142" fill="none" xmlns="http://www.w3.org/2000/svg">
<path d="M82.8502 114.152C101.244 108.084 124.254 113.413 138.859 90.2156C164.504 49.4849 127.339 -12.5483 64.9509 3.77713C-6.62594 22.5069 -17.6974 139.013 32.8095 140.974C57.1253 141.918 59.576 121.83 82.8502 114.152Z" fill="#EBFAFF"/>
<path d="M108.596 34H39.3852C35.3151 34 32 37.2966 32 41.3852V91.2769C32 95.3471 35.2966 98.6621 39.3852 98.6621H108.615C112.685 98.6621 116 95.3655 116 91.2769V41.3852C115.982 37.2966 112.685 34 108.596 34ZM112.298 91.148C112.28 93.1739 110.641 94.7946 108.615 94.7761H108.596H39.3852C37.3594 94.7946 35.7018 93.1923 35.6834 91.1664V91.148V54.6271H112.298V91.148ZM112.298 41.3116V50.9437H35.6834V41.3116C35.7018 39.2857 37.3409 37.665 39.3668 37.6834H39.3852H108.596C110.622 37.665 112.28 39.2673 112.298 41.2931V41.3116Z" fill="#17A3D0"/>
<path d="M54.1585 38.5488C51.1013 38.5488 48.6334 41.0167 48.6334 44.0739C48.6334 47.1312 51.1013 49.599 54.1585 49.599C57.2158 49.599 59.6836 47.1312 59.6836 44.0739C59.6836 41.0351 57.2158 38.5488 54.1585 38.5488ZM54.1585 45.9341C53.1456 45.9341 52.3168 45.1053 52.3168 44.0924C52.3168 43.0794 53.1456 42.2506 54.1585 42.2506C55.1715 42.2506 56.0002 43.0794 56.0002 44.0924C56.0002 45.1053 55.1715 45.9341 54.1585 45.9341Z" fill="#17A3D0"/>
<path d="M66.1507 38.5488C63.0935 38.5488 60.6256 41.0167 60.6256 44.0739C60.6256 47.1312 63.0935 49.599 66.1507 49.599C69.2079 49.599 71.6758 47.1312 71.6758 44.0739C71.6758 41.0351 69.2079 38.5488 66.1507 38.5488ZM66.1507 45.9341C65.1378 45.9341 64.309 45.1053 64.309 44.0924C64.309 43.0794 65.1378 42.2506 66.1507 42.2506C67.1637 42.2506 67.9924 43.0794 67.9924 44.0924C68.0108 45.1053 67.1821 45.9341 66.1507 45.9341Z" fill="#17A3D0"/>
<path d="M42.1491 38.5488C39.0919 38.5488 36.624 41.0167 36.624 44.0739C36.624 47.1312 39.0919 49.599 42.1491 49.599C45.2064 49.599 47.6742 47.1312 47.6742 44.0739C47.6926 41.0351 45.2064 38.5488 42.1491 38.5488ZM42.1491 45.9341C41.1362 45.9341 40.3074 45.1053 40.3074 44.0924C40.3074 43.0794 41.1362 42.2506 42.1491 42.2506C43.1621 42.2506 43.9908 43.0794 43.9908 44.0924C44.0092 45.1053 43.1805 45.9341 42.1491 45.9341Z" fill="#17A3D0"/>
<path d="M101.489 75.9724C101.268 75.5672 100.9 75.2541 100.458 75.0883L78.9467 67.5189C77.989 67.1874 76.9392 67.6847 76.6077 68.6608C76.4788 69.0476 76.4788 69.4712 76.6077 69.8763L84.1035 91.4426C84.3429 92.1425 84.9691 92.6213 85.7057 92.6766C85.761 92.6766 85.7978 92.6766 85.8531 92.6766C86.5345 92.6766 87.1607 92.2898 87.4738 91.7005L90.1442 86.6358L93.6435 90.1166C94.3617 90.8349 95.522 90.8349 96.2403 90.1166L99.1317 87.2252C99.85 86.5069 99.85 85.3466 99.1317 84.6284L95.6509 81.1291L100.716 78.4587C101.618 77.9798 101.968 76.8748 101.489 75.9724ZM90.9914 81.479C91.0835 81.6448 91.1756 81.7921 91.3045 81.9211L95.2273 85.8807L94.9142 86.1938L90.9914 82.2526C90.2732 81.5343 89.0945 81.5343 88.3946 82.271C88.2657 82.3999 88.1552 82.5472 88.0815 82.713L86.2214 86.2491L81.3593 72.289L95.301 77.1326L91.7649 78.9927C90.8625 79.4716 90.5126 80.5766 90.9914 81.479Z" fill="#17A3D0"/>
<path d="M75.2219 63.5591L72.6435 60.9992C71.9252 60.2809 70.7649 60.2625 70.0467 60.9807C69.3284 61.699 69.31 62.8593 70.0283 63.5775L70.0467 63.596L72.6251 66.1559C73.3433 66.8742 74.5036 66.8742 75.2219 66.1559C75.9401 65.4377 75.9401 64.2774 75.2219 63.5591Z" fill="#17A3D0"/>
<path d="M82.4037 63.7433L81.6671 59.8205C81.4829 58.826 80.5252 58.163 79.5123 58.3471C78.5177 58.5313 77.8547 59.489 78.0389 60.5019L78.7756 64.4247C78.9413 65.2903 79.6964 65.9165 80.5804 65.9349C80.691 65.9349 80.8015 65.9165 80.9304 65.8981C81.9249 65.7139 82.5879 64.7563 82.4037 63.7433Z" fill="#17A3D0"/>
<path d="M73.4903 69.7104L69.5675 68.9737C68.573 68.7896 67.5969 69.4342 67.4127 70.4471C67.2285 71.46 67.8915 72.3993 68.886 72.5835L72.8089 73.3202C72.9194 73.3386 73.0299 73.357 73.1588 73.357C74.1717 73.357 75.0005 72.5282 75.0005 71.5153C75.0005 70.6313 74.3743 69.8762 73.4903 69.7104Z" fill="#17A3D0"/>
</svg>
