<svg width="180" height="180" viewBox="0 0 180 180" fill="none" xmlns="http://www.w3.org/2000/svg">
<rect width="180" height="180" rx="30" fill="white"/>
<path d="M143.238 89.517C143.375 121.954 117.872 147.862 85.984 147.999C54.302 148.171 28.5583 122.503 28.421 90.0668C28.2494 57.5958 53.7872 31.138 85.4004 31.0005C117.323 30.8631 143.066 57.0804 143.238 89.517Z" fill="#A2600B"/>
<path d="M140.835 89.517C140.973 120.476 116.636 145.456 85.9497 145.594C55.5034 145.731 30.9268 120.992 30.7895 90.0324C30.6522 58.8328 54.9886 33.5776 85.4348 33.4058C116.121 33.2683 140.698 58.3174 140.835 89.517Z" fill="white"/>
<path d="M139.462 89.5514C139.6 119.583 115.812 143.979 85.9497 144.116C56.3272 144.219 32.2998 120.064 32.1625 90.0325C32.0252 59.7262 55.8124 35.0895 85.4348 34.9521C115.298 34.8146 139.325 59.2108 139.462 89.5514Z" fill="#DC1C26"/>
<path d="M56.8764 89.7919C56.8078 73.4705 69.7826 60.1729 85.5377 60.1042C101.567 60.0354 114.68 73.23 114.748 89.5514C114.817 105.564 101.842 118.896 85.8123 118.964C70.0572 118.999 56.9451 105.804 56.8764 89.7919ZM53.3409 89.7919C53.4096 107.728 68.1693 122.607 85.8467 122.503C103.764 122.435 118.387 107.419 118.284 89.4827C118.215 71.2371 103.455 56.3932 85.5377 56.4619C67.8604 56.565 53.2723 71.5807 53.3409 89.7919Z" fill="#A2600B"/>
<path d="M115.16 89.6545C115.229 105.941 101.979 119.273 85.6751 119.342C69.6453 119.411 56.5332 106.216 56.4645 89.9293C56.3959 73.3331 69.3707 59.7605 85.4005 59.6918C101.705 59.5887 115.092 73.0582 115.16 89.6545Z" fill="white"/>
<path d="M146.636 116.593C144.508 116.593 142.895 117.006 141.728 117.349C141.831 117.487 141.968 117.59 142.105 117.727C142.105 117.762 142.14 117.762 142.14 117.762C144.68 120.339 146.808 122.71 150.172 125.321C152.952 127.073 157.895 127.451 162.117 127.451C164.142 127.451 165.995 127.348 167.368 127.245C167.437 127.245 167.506 127.245 167.574 127.245C167.746 127.245 167.918 127.211 168.089 127.211C158.375 118.483 151.339 116.593 146.636 116.593Z" fill="#54A75C"/>
<path d="M116.224 110.683C115.229 110.683 114.371 110.786 113.719 110.889C113.821 111.027 113.924 111.164 114.027 111.302C114.027 111.336 114.062 111.336 114.062 111.37C116.087 114.257 117.735 117.143 120.824 120.545C124.428 123.397 133.558 124.015 137.78 124.05C137.849 124.05 137.883 124.05 137.952 124.05C138.124 124.05 138.329 124.05 138.467 124.05C128.41 112.504 120.755 110.649 116.224 110.683Z" fill="#54A75C"/>
<path d="M129.748 114.36C129.92 114.394 130.092 114.429 130.263 114.463H130.297C132.185 114.772 134.211 115.047 136.51 115.047C137.986 115.047 139.6 114.91 141.384 114.6C145.709 113.81 153.192 106.629 156.281 103.467C156.35 103.399 156.384 103.364 156.453 103.296C156.59 103.158 156.693 103.021 156.831 102.918C138.398 103.296 131.911 110.786 129.748 114.36Z" fill="#54A75C"/>
<path d="M112.895 110.855C113.066 110.889 113.238 110.889 113.41 110.924C113.41 110.924 113.444 110.924 113.478 110.924C115.503 111.233 117.494 111.508 119.76 111.508C121.201 111.508 122.78 111.37 124.565 111.061C129.199 110.271 136.751 103.468 139.805 99.9283C139.84 99.894 139.874 99.8253 139.908 99.7909C140.046 99.6535 140.149 99.516 140.252 99.3786C121.545 99.7909 114.783 107.831 112.895 110.855Z" fill="#54A75C"/>
<path d="M142.38 117.452C138.158 117.452 133.558 116.696 128.684 115.15C121.51 112.607 113.89 111.336 106.133 111.336C92.1282 111.336 82.0023 115.528 81.1442 115.906L80.389 114.635C81.3158 114.222 91.27 109.927 105.927 109.927C114.027 109.927 122.025 111.267 129.714 113.913C134.245 115.391 138.57 116.112 142.552 116.112C150.275 116.112 154.325 113.295 154.737 112.985L155.973 113.741C155.423 114.188 151.133 117.452 142.38 117.452Z" fill="#A2600B"/>
<path d="M105.927 109.996C114.027 109.996 122.025 111.336 129.714 113.982C134.245 115.459 138.57 116.181 142.551 116.181C146.808 116.181 149.931 115.322 151.785 114.6C153.501 113.913 154.497 113.26 154.771 113.054L155.87 113.741C155.08 114.36 150.789 117.384 142.38 117.384C138.158 117.384 133.558 116.628 128.719 115.081C121.51 112.539 113.924 111.267 106.133 111.267C92.4027 111.267 82.3455 115.322 81.1785 115.803L80.492 114.669C81.762 114.119 91.6133 109.996 105.927 109.996ZM105.927 109.859C90.9268 109.859 80.6636 114.429 80.286 114.6L81.1098 115.975C81.1098 115.975 91.4073 111.405 106.098 111.405C112.86 111.405 120.584 112.367 128.65 115.219C134.039 116.903 138.604 117.521 142.38 117.521C151.304 117.521 155.732 114.085 156.11 113.707L154.737 112.882C154.737 112.882 150.755 116.009 142.551 116.009C139.05 116.009 134.794 115.425 129.748 113.81C121.133 110.855 112.998 109.859 105.927 109.859Z" fill="#A2600B"/>
<path d="M175.95 106.045C160.297 106.113 154.874 112.023 153.398 114.841C153.57 114.875 153.741 114.875 153.913 114.91H153.947C156.625 115.322 159.199 115.7 162.529 115.7C163.318 115.7 164.176 115.666 165.069 115.631C169.668 115.356 176.911 109.652 179.554 106.663C179.588 106.629 179.622 106.594 179.657 106.56C179.794 106.423 179.897 106.285 180 106.148C178.593 106.045 177.22 106.045 175.95 106.045Z" fill="#54A75C"/>
<path d="M96.7963 87.6615V86.562C97.8947 87.1117 98.6156 87.5241 99.9542 87.5241C100.503 87.5241 100.847 87.421 101.156 87.3523C102.529 87.0774 104.142 85.9435 105.755 84.569C106.579 84.8439 107.54 85.0845 108.638 85.0845C110.286 85.0845 112.277 84.5347 114.165 83.4351C114.577 83.7444 114.714 83.8475 114.886 83.8818C115.709 84.1224 116.018 84.1911 116.739 84.1911C118.249 84.1911 119.382 83.5726 119.622 83.4351C120.686 82.7823 121.922 82.0263 122.883 81.2017C123.947 82.0607 124.977 82.4043 126.11 82.4043C126.453 82.4043 126.831 82.37 127.243 82.3012C129.68 82.0263 131.567 80.6176 132.666 78.9682C133.215 80.1021 135.137 80.6176 136.922 80.5832C140.835 80.4801 144.405 76.7348 147.357 74.0203C151.819 76.6317 155.183 72.6458 155.183 69.2098C155.183 65.5675 152.918 63.5402 149.211 63.5402C147.803 63.5402 146.636 63.8495 143.65 65.5331L145.847 56.0839C145.847 56.0839 131.19 59.2795 127.998 61.0662C127.449 61.3411 126.659 61.8909 126.11 62.4407C126.281 61.9253 126.796 60.0011 127.14 58.6953C127.14 58.6266 127.174 58.5579 127.208 58.4892C127.38 57.8707 127.483 57.4584 127.483 57.4584L117.185 61.1006C117.185 61.1006 117.185 61.3755 117.185 61.6504C115.847 61.9253 114.165 62.3032 112.86 62.7843C110.629 63.6089 109.05 65.2926 107.437 66.9419C107.231 66.5983 106.991 66.0486 106.613 65.5675C105.927 64.6054 104.416 63.6089 101.979 63.9182C100.881 64.0556 99.2677 65.0177 97.6545 66.1516C97.0366 65.7393 96.3158 65.4988 95.5263 65.4988C95.2517 65.4988 94.9428 65.5331 94.6682 65.5675C93.3295 65.7393 91.6819 66.4609 90.3432 67.5604C90.3432 67.5604 89.7941 67.3199 89.6911 67.2856C87.5973 66.564 84.9199 67.3886 82.9977 68.7287C82.9977 68.7287 82.1739 69.2785 81.6247 69.8283C81.3844 69.5534 81.3844 69.519 81.0755 69.2785C80.5263 68.8661 79.3936 68.6943 78.0549 68.6943C75.8238 68.6943 72.8375 69.4846 69.9542 72.0961C69.6796 72.371 69.405 72.6458 69.1304 72.9207C69.4737 71.237 69.611 70.5498 69.611 70.5498C57.9405 73.6423 58.2494 73.5049 58.2494 73.5049L57.9748 74.8793C57.4256 74.3295 56.6018 73.7797 55.2632 73.5049C55.5378 72.9551 55.778 72.371 55.778 71.5807C55.881 68.7974 54.3364 66.2891 49.3249 66.186C48.7071 66.186 42.5286 66.7358 39.4737 71.3745C38.7529 72.474 38.135 74.0546 37.3799 75.4978C37.2769 75.6696 37.1053 75.7383 37.0366 75.807L37.9977 72.2679C35.8352 71.8899 34.9085 71.8555 33.4668 71.8899C26.9451 71.9243 22.7574 73.8828 19.0847 77.8687C16.27 80.7894 15 84.1567 15 87.4897C15 89.139 15.2746 90.5135 16.0984 91.9223C17.2311 93.7434 18.913 94.8086 20.6979 94.8086C21.0755 94.8086 21.4531 94.7742 21.8307 94.6711C24.2677 93.8121 25.881 92.1628 25.881 89.9637C27.1854 91.5099 31.3387 91.7505 32.4027 91.3038C32.1281 91.8535 31.6133 91.8535 31.6133 91.8535L29.1762 92.4033L26.4989 103.742C26.8421 103.571 33.2609 100.409 33.2609 100.409C34.3249 99.8596 35.9725 99.0006 38.9588 99.0006C40.3318 99.0006 41.3959 98.7257 42.2197 98.7257C39.1304 100.306 38.7529 107.041 43.0778 108.793C38.7529 115.185 36.865 117.281 36.0755 118.105C33.6384 117.212 29.5538 118.277 29.897 123.259C30.0686 125.665 31.9222 128.963 36.4188 128.31C38.3066 128.035 40.2288 126.902 42.1167 124.977C42.5973 124.599 48.4668 116.422 50.2174 113.879C49.9771 116.044 46.8535 120.304 45.6865 121.816C46.0641 121.782 51.0755 121.473 53.238 121.335C54.5767 121.232 56.7048 120.923 58.9359 119.651C60 119.033 65.1831 119.067 65.1831 119.067C65.1831 119.067 65.1831 118.792 65.1831 118.518C67.2426 119.651 70.3318 118.449 72.8032 116.284C74.9313 118.036 77.6087 116.971 79.2906 115.563C79.2906 115.837 79.2906 115.94 79.2906 115.94C79.6682 115.872 90.6865 113.673 90.6865 113.673C90.6865 113.673 90.9611 112.023 90.9611 111.748C91.1327 111.92 91.2357 112.023 91.2357 112.023C92.1281 112.917 93.3982 113.466 94.7712 113.466C95.0458 113.466 95.3204 113.432 95.595 113.398C95.7666 113.329 95.9039 113.295 96.0069 113.26C96.4188 113.02 97.4828 112.848 101.293 109.515C101.293 109.515 102.082 110.374 102.391 110.615C103.318 111.37 104.279 111.542 105.343 111.542C105.687 111.542 106.064 111.542 106.476 111.439C107.334 111.233 109.737 109.756 111.076 108.656C112.174 109.481 113.272 109.756 114.336 109.756H114.611C116.224 109.481 117.906 108.587 119.554 106.904C119.828 107.11 119.76 107.041 120.034 107.213C121.064 107.831 122.231 108.141 123.33 108.141C123.707 108.141 124.05 108.106 124.394 108.037C125.492 107.763 127.654 106.629 129.542 104.704L129.817 104.979C129.989 105.151 130.366 105.46 130.435 105.495C131.602 106.285 133.387 106.251 133.387 106.251C133.799 106.251 134.245 106.148 134.691 106.079C136.476 105.735 139.05 103.571 142.277 100.787C142.826 100.238 143.65 99.6878 144.165 99.1037C144.989 99.7222 145.95 100.031 147.082 100.031C147.46 100.031 147.838 99.9971 148.249 99.9283C149.863 99.6535 151.785 97.9698 152.025 95.4958C152.059 95.2209 152.059 94.946 152.059 94.6711C152.059 92.3002 150.892 90.6166 149.005 89.6888C148.078 89.2421 147.254 88.9672 146.327 88.9672C145.778 88.9672 145.229 89.0359 144.645 89.139C143.032 89.4139 140.732 90.5135 140.732 90.5135C140.87 90.0668 142.483 81.6827 142.483 81.6827C133.215 83.0915 127.551 85.1188 124.805 86.4933C123.81 87.0087 122.437 87.9708 122.437 87.9708C122.506 87.7646 123.227 84.6721 123.227 84.6721L112.002 88.5549L111.796 89.6201C110.698 88.5205 109.462 88.0738 108.089 88.1082C106.751 88.1082 105.24 88.8642 104.176 89.4483C104.245 89.2078 104.451 88.5893 104.451 88.5893C94.4966 90.8571 93.913 90.9945 93.8787 90.9945C93.3638 92.9874 93.1922 93.3998 93.1922 93.3998L92.8833 93.3311C92.54 92.9187 91.373 91.613 89.3478 91.6474C87.9062 91.8192 87.048 92.2315 84.9886 93.5372C84.9886 93.5029 85.1602 92.5064 85.1602 92.5064C76.7849 94.4993 74.4165 95.0491 74.4165 95.0491C74.4165 95.0491 74.2448 95.7363 74.0046 97.0077C73.4554 96.4579 73.0435 95.2896 70.7094 95.1865C68.1007 95.2553 65.9725 97.3513 65.9725 97.3513C66.2471 95.9768 66.4531 94.1901 66.8993 91.7848C69.508 94.3275 75.103 93.1936 77.746 90.7884C78.5355 90.6166 87.0137 89.2765 87.0137 89.2765C87.048 89.4826 87.048 89.3796 87.048 89.5857C86.7391 89.5857 96.7963 87.6615 96.7963 87.6615ZM80.1831 79.4493C80.1831 79.7242 80.1831 79.9991 79.9085 80.5488C79.9085 79.9991 79.0847 79.1744 79.0847 79.1744L79.6339 78.8995C79.9085 79.1744 80.1831 79.4493 80.1831 79.4493ZM75.8238 78.8995C76.373 79.1744 76.9222 79.1744 77.4371 79.1744C77.1625 79.1744 75.5492 80.8581 75.5492 80.8581C75.2746 81.133 75.2746 81.133 75 81.4078C75.3089 80.3083 75.5492 79.4493 75.8238 78.8995ZM124.153 70.6529H123.879L124.153 70.378V70.6529ZM143.272 66.2891C143.238 66.2891 143.272 66.2891 143.272 66.2891C143.238 66.2891 143.238 66.2891 143.272 66.2891C143.238 66.2891 143.238 66.2891 143.272 66.2891Z" fill="#231F20"/>
<path d="M81.3844 101.578C82.1739 101.715 83.8558 102.127 83.8558 102.127C83.032 102.952 81.968 104.189 80.595 105.46C80.8696 104.326 81.1442 102.952 81.3844 101.578ZM100.675 97.901C101.499 98.1759 102.288 98.7257 102.288 98.7257H102.563C101.739 99.5503 100.675 100.684 99.5767 101.509C99.8856 100.409 100.126 99.0006 100.675 97.901ZM63.1922 105.529C63.7414 105.804 64.016 106.079 64.2906 106.079C64.2906 106.079 64.8398 106.354 65.1144 106.354C64.5652 108.278 64.3249 110.237 64.0503 111.336C63.5698 111.508 63.5011 111.542 62.9519 111.611C62.9519 109.412 63.2265 107.453 63.1922 105.529ZM49.0503 101.475C49.3249 101.475 49.5995 101.2 50.1487 100.925C49.8741 101.475 49.5995 101.749 49.3249 102.299C49.3249 102.024 49.0503 101.749 49.0503 101.749V101.475ZM55.8124 93.3998C56.3616 92.85 56.6705 92.5751 57.151 92.3002C57.3913 92.4377 57.1167 92.7469 57.5629 92.7125C56.8078 93.0905 56.3616 93.1249 55.8124 93.3998ZM72.9062 83.9505C72.9062 82.851 74.4851 78.4872 74.7254 77.6281C75 77.3533 75.3089 77.0096 75.3089 77.0096C75.3089 77.0096 75.8581 77.0096 76.4073 77.0096C77.5057 77.5594 78.5698 77.2845 79.3936 77.2845L79.9085 77.0096C80.4577 77.5594 81.0069 77.8343 81.0069 77.8343C81.0069 77.8343 81.8307 78.3841 82.1053 78.3841C81.5561 80.0334 81.3158 81.992 80.7666 83.6413L78.2952 80.3427C76.6819 81.7171 73.9702 84.2254 73.1464 84.5003H72.8719C72.9062 84.5003 72.9062 84.2254 72.9062 83.9505ZM133.387 66.2547C133.661 65.9798 134.211 65.7049 134.725 65.7049C134.725 65.9798 134.451 66.2547 134.451 66.2547C134.176 66.5296 133.661 66.5296 133.078 66.5296L133.387 66.2547ZM114.886 70.9278C114.851 73.333 113.066 75.1885 113.066 75.1885C112.792 75.4634 112.449 75.9101 112.174 75.9101C112.723 73.2987 112.689 72.1304 114.886 70.9278ZM128.719 61.994C126.556 63.3684 124.977 65.4644 125.011 67.6635C125.011 68.7631 125.423 70.4811 127.037 71.2714C127.037 71.5463 126.11 73.1956 126.11 73.1956C125.561 72.6458 124.874 71.8899 123.913 71.8212C123.398 71.7868 122.574 72.1304 122.025 72.4053C122.54 69.3472 125.217 59.6918 125.217 59.6918C120.824 61.1693 118.696 61.8565 118.696 61.8565C118.627 62.0283 118.627 62.0283 118.455 62.475C117.082 63.0248 114.886 63.4371 113.307 64.1587C108.604 66.3234 106.27 70.8247 105.481 73.5736C105.755 72.1991 106.27 69.9657 106.27 69.4159C106.27 68.0415 105.995 67.2168 105.446 66.3578C102.7 64.0213 99.4737 66.3922 97.5515 67.7666C97.5515 67.7666 95.9039 66.667 94.5652 66.667C93.1922 66.9419 91.8535 67.7666 89.9657 69.1754C89.9657 68.9005 88.627 68.0415 88.627 68.0415C86.1213 67.4573 82.3455 70.8591 81.5561 71.4088C81.2815 71.134 81.0069 70.8591 80.4577 70.3093C79.3593 69.7595 75 69.2097 70.9497 72.852C68.5126 75.3603 66.6247 78.659 65.8352 81.4422C65.8352 81.7171 65.5606 81.992 65.0114 82.5417C65.595 79.896 67.2082 72.4397 67.2082 72.4397C61.7849 73.9515 59.7254 74.6044 59.7254 74.6044C59.6567 75.2229 57.7002 83.1602 57.7002 83.1602C57.4256 84.2598 56.7735 84.8783 56.2243 85.7373C57.0137 80.8581 57.5629 78.4528 57.5629 77.8687C57.5629 77.3189 57.3913 76.0819 56.8421 75.5321C56.2929 74.9824 54.405 73.8828 51.6934 75.9101C51.3844 76.1506 49.4966 77.3876 48.1579 78.4872C48.7071 76.8378 49.2906 75.1542 49.5652 74.2951C52.1396 75.7383 54.1304 73.1956 54.1304 71.2714C54.1304 69.0723 52.7574 68.2476 51.659 67.6979C50.286 67.423 48.0892 67.4573 48.0892 67.4573C45.3776 68.0071 42.4256 69.6908 40.8124 71.8899C39.1991 74.089 37.8604 77.422 36.7963 81.8545C35.2174 84.0193 33.3638 82.9541 33.3638 82.9541C33.6384 82.4043 36.1442 73.1269 36.1442 73.1269C33.7757 72.852 32.3684 72.9207 29.5194 73.3674C25.7094 73.9515 22.6201 75.807 20.1831 78.5902C17.746 81.3735 16.6819 84.1223 16.4073 87.1805C16.4073 88.5549 16.5789 89.895 17.4371 90.9945C18.5355 92.6438 19.9771 93.2623 21.6247 92.6782C23.5126 92.1284 24.3364 90.9945 24.611 89.3452C24.611 88.2456 24.0618 87.421 23.238 86.5963C22.9634 86.3214 22.9634 85.7717 22.9634 85.7717C22.9634 84.3972 24.611 81.614 26.1899 80.7893C25.6407 82.473 25.2288 84.2941 25.2288 84.8783C25.2288 85.1532 25.6407 88.2456 27.8375 89.0703C29.2105 89.895 31.2014 89.6201 33.3982 89.4483C33.9474 89.4139 34.5652 89.139 35.2174 89.0359C35.2174 89.3108 34.9085 90.3416 34.9085 90.3416C33.2609 93.7434 30.6178 93.4685 30.6178 93.4685C30.3432 94.4649 29.0046 100.375 29.0046 100.375C32.0938 98.9318 31.9222 99.0006 32.8146 98.5539C34.016 97.9354 35.6979 96.9733 39.0618 97.0076C43.9702 97.0764 46.1327 95.324 46.4073 95.0491C46.6819 94.7742 47.7803 87.5241 47.7803 87.5241C47.7803 87.5241 46.2357 89.0016 45.5492 89.517C46.0984 87.3179 46.3387 85.3593 46.8879 83.4351C47.4371 83.71 49.2906 84.6721 49.2906 84.6721C48.7414 86.8712 48.0549 90.6165 48.0206 91.4412C47.9176 95.5301 51.3158 95.0147 51.8307 95.0147C46.6819 97.3169 43.7986 98.6913 43.1808 99.4473C42.2197 100.65 42.0137 101.371 42.0137 102.746C42.0137 103.021 42.151 107.35 45.9268 107.178C42.4256 112.161 38.3753 118.277 36.762 119.651C35.389 118.827 33.1922 118.792 32.1281 120.201C31.476 120.888 31.0297 122.95 32.1625 124.668C32.9863 126.043 34.9085 126.902 36.2815 126.627C37.8947 126.352 39.7483 125.458 41.2929 123.706C42.9062 121.851 49.2563 112.333 52.7574 107.144C52.7574 108.244 51.8993 115.013 50.8009 116.868C49.7025 118.758 48.6384 120.132 48.6384 120.132C53.2723 119.548 53.0664 119.583 53.0664 119.583C54.4394 119.308 56.6018 118.999 58.2151 117.899C59.8284 117.074 62.2998 117.04 62.2998 117.04H63.6728C63.9474 115.666 63.9474 114.566 63.9474 114.291C64.222 114.841 64.3593 115.872 64.9085 116.422C65.4577 116.971 67.6201 118.792 73.1808 113.982C73.1808 114.257 74.0732 115.219 74.3478 115.253C77.9176 115.734 79.9771 113.123 81.865 111.439C81.865 111.714 81.4531 113.466 81.4531 113.466C83.8902 112.917 89.2449 111.68 89.2449 111.68C89.4851 110.58 90.2746 107.522 90.7895 104.773C91.3387 104.773 91.3387 104.773 91.8535 104.773C91.5103 106.423 91.373 107.247 91.3387 107.797C91.0297 111.164 94.7025 111.886 96.1098 111.405C97.5172 110.924 99.7483 108.587 101.911 106.663C101.979 107.728 102.426 108.381 103.009 108.862C104.76 110.305 106.854 109.859 111.384 106.216C112.208 107.041 113.066 107.969 114.405 107.694C116.018 107.419 117.666 106.285 119.554 104.361C123.398 108.725 128.307 104.636 129.851 101.268C129.851 104.498 132.872 104.67 134.211 104.292C135.858 103.845 138.261 101.784 141.522 99.0006C142.586 98.1759 143.684 97.042 144.233 96.7671C144.508 96.7671 144.508 96.7671 144.783 96.7671C146.602 99.3098 150.584 98.1415 150.755 94.8085C150.755 92.8843 149.931 91.235 148.558 90.6853C147.46 90.1355 146.396 89.8606 145.023 90.1698C142.311 90.7196 140.149 92.4033 137.986 94.0526C138.261 93.7777 140.32 83.2977 140.32 83.2977C138.158 83.5726 127.895 86.0809 125.732 87.4897C123.021 88.8985 121.682 90.7883 121.682 92.9874C121.682 93.2623 122.265 96.3204 124.153 96.9046C123.879 97.4543 123.33 98.0041 123.089 98.5539C123.089 97.7292 122.574 97.4887 122.231 97.2825C120.412 96.1486 119.382 97.6949 118.867 97.9697C119.657 95.2209 121.339 86.4932 121.339 86.4932C119.382 87.1805 113.513 89.4139 113.513 89.4139C112.037 95.8394 111.659 97.2138 111.659 97.2138C111.384 98.0385 110.835 98.8631 110.046 99.997C111.659 93.0905 111.659 92.5407 111.659 92.2659C111.693 89.7232 109.394 89.139 108.57 89.0703C106.373 88.8298 103.215 91.7504 101.842 93.1592C101.842 92.8843 102.254 90.4791 102.254 90.4791C97.0366 91.7848 94.8398 92.4033 94.8398 92.4033C94.5652 93.5028 93.7071 96.2517 93.1579 98.7257C92.8833 98.7257 92.4371 99.1037 92.0595 99.0349C92.3341 97.1107 92.5744 96.2517 92.5744 96.2517V95.9768C92.5744 95.7019 92.5744 94.6024 91.476 93.5028C88.627 91.9566 84.9199 95.3927 82.7918 97.1451C82.7918 96.8702 83.3066 94.087 83.3066 94.087L75.6865 95.7707C75.4119 96.8702 74.3478 101.303 73.2837 104.636C73.0092 105.46 72.7345 106.285 71.9451 106.835C73.2837 101.303 73.5583 100.203 73.5583 99.9283C73.5583 98.5539 73.0092 97.1794 71.9108 96.6297C70.3661 95.805 68.6499 96.9389 63.7757 100.822C64.016 97.7636 65.3547 91.1319 65.6293 90.0324C65.9039 89.7575 66.4531 89.4826 66.7277 89.2077C67.5515 90.0324 68.5812 91.3381 70.778 91.3381C74.3135 91.8879 79.2563 87.6271 80.595 86.1153C80.3204 86.3902 79.9771 88.6236 79.9771 88.6236C80.4233 88.6236 87.2197 87.2835 87.2197 87.2835C87.5629 85.7373 88.627 79.4836 89.5538 78.8995C89.0389 82.2325 87.9748 87.6271 87.9748 87.6271C90.5835 87.0086 95.5606 86.3214 95.5606 86.3214C95.5606 84.947 96.0755 82.9884 96.3501 81.3391C96.3501 81.614 96.3501 81.8889 96.3501 81.8889C96.3501 82.7135 96.6934 83.7444 97.4485 84.6378C98.8902 86.3902 102.254 86.2527 105.755 82.5417C108.913 84.7065 112.277 83.0571 114.165 81.6484C116.705 83.1259 118.558 82.2669 119.108 81.9576C120.481 81.4078 121.579 80.2396 122.918 79.1057C124.016 80.2052 125.423 80.8581 127.346 80.5832C130.057 80.0334 131.533 78.3497 132.872 76.1163C133.146 77.4907 134.142 78.281 134.931 78.5559C138.501 79.999 143.753 74.8793 145.641 73.0238C146.018 72.7489 147.323 71.2714 147.323 71.2714C147.872 72.0961 149.554 72.7833 150.618 72.7833C151.991 72.5084 153.227 71.9586 153.879 68.8318C153.604 66.9076 152.78 66.0829 151.957 65.5331C150.343 64.4336 148.73 64.3649 147.323 64.9146C145.95 65.4644 143.272 67.2168 141.384 68.5913C141.934 66.1173 143.959 57.5614 143.959 57.5614C143.959 57.5614 129.817 61.1693 128.719 61.994Z" fill="#A2600B"/>
<path d="M35.4233 127.039C33.913 127.039 32.6773 126.352 31.7506 124.943C30.9268 123.706 30.8581 121.885 31.5446 120.614C32.4027 119.033 34.2563 118.552 36.5217 119.48C37.8261 118.277 40.5721 114.291 43.2494 110.477C43.9016 109.515 44.5881 108.553 45.2403 107.625C43.6957 107.556 42.3913 106.319 41.8764 104.43C41.3272 102.402 41.8421 99.7565 44.2105 98.3821C45.103 97.8667 46.3043 97.2138 50.5263 95.4614C49.3249 95.3927 47.6087 94.7055 47.6087 91.5787C47.6087 90.7196 48.3295 87.0774 48.8444 84.9127C48.4325 84.7065 47.5057 84.2254 46.9222 83.9506C46.6476 85.0501 46.373 86.1496 46.1327 87.2836C45.9954 87.799 45.8924 88.3487 45.7551 88.8985C46.476 88.2457 47.5057 87.3523 47.54 87.3179C47.643 87.2492 47.746 87.2148 47.849 87.2836C47.9519 87.3523 48.0206 87.4554 47.9863 87.5584L46.6819 94.9804C46.6819 95.0147 46.6476 95.0835 46.6133 95.1178L46.3387 95.3927C46.3043 95.3927 44.3478 97.3513 38.9245 97.3856C35.7323 97.3856 32.2654 99.0006 29.0046 100.719C28.9016 100.753 28.7986 100.753 28.73 100.684C28.627 100.616 28.5927 100.512 28.627 100.409C28.627 100.409 29.9657 94.6368 30.2403 93.5029C30.2746 93.3998 30.3776 93.2967 30.4805 93.2967C30.4805 93.2967 30.8581 93.2623 31.7849 93.0218C33.0892 92.6782 34.7712 90.6853 34.9085 89.4139C33.913 89.7919 32.2998 89.9293 31.1327 89.9293C30.3776 89.9293 29.0389 89.895 28.1465 89.5514C26.8078 89.036 25.881 88.1769 25.4005 87.0087C24.8169 85.6342 24.8513 83.8818 25.5034 81.8202C24.5423 82.7479 23.341 84.2598 23.1693 85.9091C23.135 86.0809 23.1693 86.3215 23.3753 86.5276C24.0961 87.2492 24.8169 88.1426 24.8169 89.4826C24.8169 91.132 23.7185 92.4033 21.659 93.0905C19.9771 93.6403 18.3982 92.9531 17.1625 91.2007C16.2357 89.895 16.1327 88.5205 16.1327 87.3523C16.4073 84.1911 17.6087 81.4079 19.9771 78.5903C22.8947 75.0855 28.1808 72.8176 33.4668 72.7833C34.3936 72.7833 35.3547 72.852 36.2471 72.9895C36.3158 72.9895 36.3844 73.0582 36.4188 73.1269C36.4531 73.1956 36.4874 73.2643 36.4531 73.3331C36.3501 73.711 33.8444 82.37 33.6728 82.9541C33.6728 83.0228 33.7071 83.0915 34.016 83.1259C34.6682 83.2633 35.389 82.8854 36.5217 81.8545C37.7231 76.9066 38.9588 73.8141 40.5721 71.8555C42.8032 69.141 44.6911 68.2133 47.1968 67.4917C49.5995 66.8045 51.968 67.3543 53.3753 68.8662C54.0961 69.6221 54.4394 70.5498 54.405 71.4432C54.2677 73.4705 52.8261 75.0855 51.1442 75.0855C50.6979 75.0855 50.2517 74.9824 49.8398 74.7419C49.7368 75.0511 49.5995 75.4634 49.4279 75.9101C49.222 76.4943 48.9817 77.1471 48.7414 77.8343C50.3204 76.5973 52.7918 74.8106 53.7872 74.5357C55.1602 74.1921 56.3959 74.5357 57.1854 75.4291C57.8032 76.1163 58.0778 77.0784 57.9748 78.0405C57.9062 78.4872 57.5629 80.6176 56.6705 84.8783C56.9794 84.466 57.2883 83.8818 57.46 83.1603C57.5286 82.851 59.2449 75.7727 59.5881 74.6044C59.5881 74.5357 59.6224 74.467 59.8627 74.3639V74.3295C59.897 74.3295 59.897 74.3295 59.9314 74.3295C60.5835 74.089 62.3684 73.5736 67.3112 72.2335C67.4142 72.1992 67.5172 72.2335 67.5515 72.3022C67.6201 72.371 67.6545 72.474 67.6201 72.5428C67.6201 72.6115 66.5561 77.5938 65.7323 80.9955C66.5217 78.5559 68.2037 75.1885 70.778 72.7489C73.5927 70.0688 76.5446 69.6565 78.0549 69.6565C79.1533 69.6565 80.1487 69.8626 80.6293 70.2062C81.0755 70.5498 81.3158 70.8247 81.5217 71.0652C81.5561 71.0996 81.5561 71.0996 81.5904 71.134C82.6201 70.275 85.8467 67.7666 88.1465 67.7666C89.0389 67.7666 89.6911 68.1446 90.0687 68.8318H90.103C91.8879 67.5261 93.1579 66.564 94.5652 66.4953C96.5217 66.3578 97.3112 67.045 97.6545 67.4574C99.6453 65.9111 101.327 65.1552 102.803 65.1552C104.108 65.1552 105 65.7393 105.618 66.2547C106.613 67.045 106.613 68.9005 106.373 70.6186C107.574 68.2133 109.668 65.327 113.238 63.9526C114.199 63.5746 115.4 63.1966 116.465 62.8874C117.117 62.6812 117.769 62.475 118.284 62.3032C118.421 61.8909 118.49 61.7878 118.49 61.7535C118.524 61.6847 118.593 61.6504 118.627 61.6504L125.183 59.4857C125.286 59.4513 125.389 59.4857 125.458 59.5544C125.526 59.6231 125.561 59.7262 125.526 59.8293L124.737 62.5781L124.394 63.9526C123.707 66.564 122.918 69.5534 122.437 72.0274C122.986 71.7868 123.673 71.5807 124.153 71.5807H124.222C124.977 71.615 125.595 72.2335 126.11 72.8176C126.384 72.3366 126.728 71.7868 126.865 71.4776C125.32 70.5842 124.771 68.9349 124.771 67.7666C124.771 65.4644 126.487 62.9217 128.856 61.7191C131.224 60.5165 143.444 57.5958 143.959 57.4584C144.062 57.424 144.165 57.4584 144.199 57.5271C144.268 57.5958 144.302 57.6989 144.268 57.7676C144.233 57.8363 142.586 65.0177 141.934 68.0759C143.856 66.7014 145.709 65.4988 146.087 65.2583C146.945 64.7085 147.975 64.3992 149.039 64.3992C151.51 64.3992 154.085 66.0486 154.085 68.9005C154.085 71.2027 152.677 72.9551 150.618 73.1613C149.485 73.2643 147.941 72.7489 147.426 71.7868L147.22 72.0274C145.984 73.1956 143.101 75.9445 140.011 78.0749C139.016 78.7621 137.815 79.14 136.579 79.14C135.275 79.14 134.108 78.7277 133.421 78.0061C133.112 77.6625 132.906 77.2846 132.769 76.8379C131.568 78.659 129.954 80.4801 127.346 80.9955C127.071 81.0299 126.796 81.0642 126.556 81.0642C125.252 81.0642 124.085 80.5488 122.952 79.518C121.373 81.4766 118.627 82.9541 116.568 82.9885C115.572 82.9885 114.783 82.6792 114.233 82.0607C113.101 83.1259 110.801 83.9849 108.879 83.9849C107.574 83.9849 106.51 83.6413 105.824 82.9197C103.902 85.0157 101.876 86.184 100.057 86.184C98.9588 86.184 97.9977 85.7717 97.2082 84.947C96.7963 84.5003 96.4874 83.7444 96.3158 83.0228C96.3158 83.0572 96.3158 83.0915 96.2815 83.1259C96.0755 84.2942 95.8696 85.4968 95.7666 86.4589C95.7666 86.5963 95.6636 86.6994 95.5263 86.6994C95.4577 86.6994 90.6179 87.421 88.0092 87.9708C87.9062 87.9708 87.8375 87.9708 87.7689 87.9021C87.7002 87.8333 87.6659 87.7302 87.7002 87.6615C87.7002 87.6272 88.2838 84.4316 88.7986 81.4422C88.4897 82.851 88.1465 84.3629 87.8719 85.5655C87.7002 86.3902 87.5286 87.0774 87.46 87.4554C87.4256 87.5584 87.357 87.6272 87.254 87.6615C87.1854 87.6615 82.1053 88.6923 80.0114 89.0016C79.9428 89.0016 79.8398 88.9672 79.7712 88.9329C79.7025 88.8642 79.7025 88.7611 79.7025 88.6923C79.7025 88.658 79.8741 87.9021 80.0114 87.2148C77.746 89.517 74.2449 91.7161 71.1213 91.7505C69.3707 91.7505 67.8604 91.0976 66.6247 89.7575C66.4874 89.8606 66.3844 89.9293 66.2471 90.0324C66.0755 90.1355 65.9039 90.2386 65.8009 90.376C65.5263 91.613 64.5652 97.4544 64.0847 100.409C68.2037 97.2826 68.5126 97.1107 69.1991 96.7328L69.3364 96.6641C70.5721 95.9768 72.0481 96.2517 72.9405 97.3169C73.5927 98.1072 73.9016 99.138 73.73 100.203C73.6613 100.684 73.1808 102.78 72.357 106.182C72.6316 105.77 72.8032 105.289 72.9748 104.773C74.1076 101.268 75.2403 96.4579 75.3776 95.9425C75.4119 95.8394 75.4806 95.7707 75.5835 95.7363L83.2037 94.0526C83.3066 94.0526 83.3753 94.0526 83.4439 94.1214C83.5126 94.1901 83.5469 94.2932 83.5126 94.3619C83.341 95.1865 83.2037 96.1143 83.1007 96.6984C85.3318 94.8773 87.254 93.3998 88.524 93.0905C90.0687 92.7126 91.3044 93.0218 92.0252 93.9839C92.8147 95.0491 92.9176 96.7671 92.3341 99.0006C92.3684 99.0006 92.4371 98.9662 92.4714 98.9662C92.5744 98.9319 92.6774 98.9319 92.746 98.8975C93.1579 97.42 93.5698 95.9425 93.9474 94.7399C94.222 93.7777 94.4622 92.9874 94.5995 92.472C94.6339 92.4033 94.7025 92.3002 94.8055 92.2659C94.8398 92.2659 97.6201 91.5099 102.288 90.3417C102.391 90.3073 102.494 90.3417 102.563 90.4104C102.632 90.4791 102.666 90.5822 102.632 90.6853C102.632 90.6853 102.426 91.3381 102.117 92.6095C102.185 92.5408 102.254 92.472 102.323 92.4033C103.936 90.9602 105.927 89.1734 107.78 88.9672C109.153 88.7954 110.286 89.2421 111.076 90.2042C111.659 90.8914 111.934 91.8192 111.796 92.5408C111.796 92.5751 111.796 92.6095 111.762 92.6438C111.728 93.0218 111.59 94.087 110.492 98.9319C110.87 98.3477 111.11 97.8667 111.281 97.3856C111.281 97.3856 111.762 95.805 113.238 89.517C113.272 89.4139 113.307 89.3452 113.41 89.3452C113.478 89.3108 118.627 87.3179 121.167 86.4245C121.27 86.3902 121.373 86.4245 121.442 86.4933C121.51 86.562 121.545 86.6651 121.51 86.7681C121.476 86.8369 119.931 94.1901 119.176 97.4887C119.897 96.9389 120.515 96.8359 120.961 96.8359C121.922 96.8359 122.712 97.4544 123.021 98.1759C123.192 97.901 123.364 97.6262 123.57 97.3169C122.437 96.8359 121.51 95.3927 121.339 93.7777C121.201 92.5751 121.373 89.5514 125.458 87.5241C127.826 86.1496 137.952 83.5726 140.183 83.2977C140.252 83.2977 140.355 83.3321 140.423 83.3664C140.492 83.4351 140.492 83.5382 140.492 83.6069C140.423 83.9506 138.844 91.2007 138.261 93.6747C140.217 92.1971 142.277 90.7196 144.817 90.2042C146.773 89.7919 148.49 90.2386 149.622 91.4412C150.515 92.369 150.961 93.709 150.858 95.1522C150.721 97.5574 148.936 98.657 147.254 98.657C146.053 98.657 144.989 98.1759 144.474 97.3856C144.405 97.3856 144.336 97.3856 144.268 97.3856C144.165 97.3856 144.096 97.3856 143.993 97.3513C143.032 98.3134 136.648 104.052 134.519 104.704C134.073 104.842 133.593 104.911 133.146 104.911C131.362 104.911 130.057 104.017 129.611 102.402C127.86 105.564 125.355 106.319 124.497 106.56C123.982 106.697 123.467 106.8 122.986 106.8C121.545 106.8 120.343 106.216 119.588 105.117C117.803 106.869 115.984 107.969 114.302 108.244C114.13 108.278 113.924 108.312 113.719 108.312C112.552 108.312 111.762 107.522 111.247 106.835C109.565 108.072 106.922 109.824 106.064 110.03C105.789 110.099 105.481 110.133 105.137 110.133C104.039 110.133 102.941 109.721 102.254 109.034C101.842 108.587 101.568 108.072 101.465 107.488C101.19 107.728 100.915 108.003 100.606 108.278C98.7185 110.03 96.762 111.817 95.492 112.058C95.3204 112.092 95.1487 112.092 94.9428 112.092C93.9474 112.092 92.4714 111.714 91.5446 110.649C90.8581 109.859 90.6522 108.828 90.8238 107.625C90.8925 107.316 90.9954 106.904 91.0984 106.423C91.2014 106.045 91.3044 105.632 91.373 105.22C91.2357 105.22 91.1327 105.254 91.0298 105.254C90.9268 105.254 90.8238 105.254 90.7208 105.254C90.1716 108.072 89.5538 110.855 89.3135 111.955C89.2792 112.058 89.2105 112.126 89.1076 112.161C89.1076 112.161 83.7529 113.363 81.3158 113.913C81.2128 113.948 81.1442 113.913 81.0755 113.844C81.0069 113.776 80.9725 113.707 81.0069 113.604C81.0069 113.604 81.1098 113.054 81.2471 112.47C79.4279 114.257 77.0252 115.906 75.103 115.906C74.1076 115.906 73.3181 115.459 72.8375 114.635C70.778 116.525 68.5469 117.659 66.762 117.659C65.4233 117.659 64.3936 117.04 63.8444 115.872C63.8101 116.284 63.7414 116.765 63.7071 117.281C63.7071 117.418 63.5355 117.521 63.4325 117.521H63.3295C62.7117 117.521 59.5195 117.59 58.1465 118.346C55.4005 119.858 52.8947 120.098 48.3982 120.476C48.2952 120.476 48.1922 120.407 48.1236 120.339C48.0892 120.236 48.0892 120.132 48.1579 120.029C50.6636 117.246 51.7963 114.016 52.1739 108.381C48.7414 113.673 43.0092 122.16 41.8078 123.534C40.4348 125.08 37.8947 127.005 35.4233 127.039ZM34.2906 119.514C32.9863 119.514 32.3341 120.236 32.0252 120.854C31.4416 121.954 31.5103 123.603 32.1968 124.634C33.0206 125.871 34.119 126.489 35.4233 126.489C37.6888 126.489 40.0915 124.668 41.4645 123.088C42.7002 121.679 49.016 112.298 52.3112 107.144C52.3799 107.041 52.5172 106.972 52.6201 107.041C52.7231 107.075 52.8261 107.178 52.7918 107.316C52.4828 113.398 51.4531 116.868 49.016 119.823C53.135 119.48 55.3318 119.205 57.8719 117.83C59.2792 117.04 62.2998 116.971 63.1922 116.937C63.3295 115.769 63.4325 114.703 63.4325 114.429C63.4325 114.291 63.5355 114.154 63.6728 114.154C63.8101 114.154 63.9474 114.222 63.9817 114.36C64.2906 116.112 65.286 117.006 66.7963 117.006C68.5126 117.006 70.7437 115.837 72.7689 113.879C72.8375 113.81 72.9405 113.776 73.0092 113.81C73.1121 113.81 73.1808 113.879 73.2151 113.982C73.627 114.841 74.2449 115.288 75.1716 115.288C77.1625 115.288 79.9085 113.226 81.5904 111.302C81.659 111.199 81.7963 111.164 81.9336 111.233C82.0366 111.302 82.1053 111.405 82.0709 111.542C82.0023 111.852 81.8307 112.711 81.6934 113.192C83.9931 112.676 88.0435 111.748 88.9016 111.577C89.1762 110.34 89.7597 107.522 90.3089 104.842C90.3433 104.739 90.4119 104.67 90.5149 104.636C90.6179 104.636 90.7895 104.601 91.0641 104.601C91.2357 104.601 91.476 104.567 91.7506 104.567C91.8192 104.567 91.9222 104.601 91.9909 104.636C92.0595 104.704 92.0595 104.773 92.0595 104.876C91.9565 105.46 91.8192 106.01 91.6819 106.457C91.5789 106.938 91.476 107.316 91.4073 107.625C91.2357 108.656 91.4417 109.515 91.9909 110.168C92.8833 111.199 94.5309 111.577 95.4233 111.405C96.5561 111.199 98.5126 109.378 100.263 107.763C100.709 107.35 101.121 106.972 101.533 106.594C101.602 106.526 101.739 106.526 101.842 106.56C101.945 106.594 102.014 106.697 102.014 106.8C102.014 107.488 102.22 108.072 102.666 108.553C103.249 109.137 104.211 109.515 105.137 109.515C105.412 109.515 105.687 109.481 105.927 109.412C106.682 109.206 109.291 107.522 111.144 106.113C111.213 106.079 111.281 106.045 111.35 106.079C111.419 106.079 111.487 106.113 111.522 106.182C112.346 107.385 113.169 107.797 114.165 107.591C115.812 107.316 117.632 106.182 119.382 104.361C119.451 104.292 119.519 104.258 119.622 104.292C119.691 104.292 119.794 104.361 119.828 104.43C120.446 105.529 121.579 106.148 122.918 106.148C123.364 106.148 123.81 106.079 124.291 105.941C125.149 105.667 127.757 104.911 129.439 101.337C129.508 101.234 129.611 101.165 129.714 101.2C129.851 101.2 129.92 101.303 129.954 101.44C130.195 103.983 132.22 104.258 133.078 104.258C133.49 104.258 133.936 104.189 134.314 104.086C136.27 103.502 142.929 97.5231 143.65 96.8015C143.684 96.7671 143.753 96.7328 143.856 96.7328C143.993 96.7328 144.13 96.7328 144.268 96.7328C144.474 96.7328 144.748 96.6984 144.851 96.8702C145.229 97.5574 146.19 98.0041 147.254 98.0041C148.593 98.0041 150.206 97.2138 150.309 95.0147C150.378 93.709 150 92.5064 149.211 91.6817C148.215 90.6509 146.671 90.2386 144.92 90.6166C142.243 91.2007 140.08 92.85 137.986 94.465C137.883 94.5337 137.746 94.5337 137.677 94.465C137.574 94.3962 137.54 94.2932 137.574 94.1557C137.712 93.709 139.085 87.3866 139.874 83.7788C137.094 84.2598 127.86 86.6651 125.698 87.9021C121.922 89.7575 121.751 92.5408 121.888 93.6059C122.06 95.1522 122.986 96.5266 124.05 96.8015C124.153 96.8359 124.222 96.8702 124.222 96.9733C124.256 97.0764 124.256 97.1451 124.188 97.2138C123.844 97.7292 123.604 98.1072 123.364 98.4852L123.124 98.8632C123.055 98.9662 122.952 99.0006 122.849 98.9662C122.746 98.9319 122.643 98.8632 122.643 98.7257C122.574 98.0041 121.888 97.2482 120.927 97.2482C120.275 97.2482 119.554 97.6262 118.902 98.3477C118.833 98.4508 118.696 98.4508 118.593 98.4165C118.49 98.3477 118.421 98.2447 118.455 98.1072C118.97 95.7707 120.481 88.8985 120.858 87.0087C118.455 87.8677 114.474 89.4139 113.719 89.6888C112.243 95.9081 111.796 97.3856 111.762 97.4544C111.487 98.3134 110.938 99.138 110.114 100.306C110.046 100.409 109.908 100.444 109.771 100.375C109.668 100.306 109.6 100.203 109.634 100.066C111.007 94.087 111.144 92.8844 111.213 92.5064C111.213 92.4377 111.213 92.4033 111.247 92.3346C111.35 91.7505 111.11 91.0289 110.629 90.4447C109.977 89.6544 108.982 89.2765 107.815 89.4139C106.133 89.6201 104.211 91.3381 102.666 92.7126C102.357 92.9875 102.082 93.2623 101.808 93.4685C101.705 93.5372 101.602 93.5372 101.499 93.5029C101.396 93.4341 101.362 93.3311 101.396 93.1936C101.67 92.0941 101.876 91.3381 101.979 90.8914C98.1693 91.8535 95.7323 92.5064 95.1144 92.6782C94.9771 93.1936 94.7368 93.9496 94.4966 94.8086C94.119 96.0799 93.6728 97.5918 93.2609 99.138C93.2265 99.2411 93.1579 99.3098 93.0549 99.3442C92.9176 99.3786 92.7803 99.4129 92.6087 99.4129C92.4028 99.4473 92.2311 99.4816 92.0252 99.516C91.9222 99.516 91.8536 99.4816 91.7849 99.4129C91.7163 99.3442 91.7163 99.2411 91.7506 99.1724C92.4028 96.9389 92.3684 95.1865 91.6476 94.2244C91.0641 93.4341 90.0343 93.1936 88.73 93.5372C87.4256 93.8465 85.3661 95.4958 82.9634 97.4887C82.8947 97.5574 82.7574 97.5574 82.6888 97.5231C82.5858 97.4887 82.5172 97.3856 82.5172 97.2826C82.5172 97.042 82.8261 95.4271 82.9634 94.6024L75.9268 96.183C75.6522 97.3513 74.6224 101.612 73.5584 104.911C73.2838 105.77 73.0092 106.663 72.1167 107.282C72.0137 107.35 71.9108 107.35 71.8078 107.282C71.7048 107.213 71.6705 107.11 71.7048 107.007C72.9748 101.715 73.2494 100.409 73.2838 100.1C73.4211 99.2068 73.1808 98.279 72.5973 97.6262C71.8421 96.7328 70.6751 96.5266 69.6453 97.0764L69.508 97.1451C68.8215 97.5231 68.5126 97.6949 63.913 101.2C63.8101 101.268 63.7071 101.268 63.6041 101.2C63.5011 101.131 63.4668 101.028 63.4668 100.925C64.1876 96.4235 65.0801 91.132 65.3204 90.1355C65.3204 90.1011 65.3547 90.0324 65.389 89.9981C65.5263 89.8263 65.7666 89.6888 65.9725 89.5514C66.1785 89.4139 66.3501 89.2765 66.4874 89.1734C66.5217 89.139 66.6247 89.1047 66.6934 89.1047C66.762 89.1047 66.8307 89.139 66.8993 89.2078C68.032 90.5478 69.4737 91.2007 71.1556 91.2007C74.4508 91.2007 78.2266 88.5549 80.3204 86.0809C80.389 85.9778 80.5263 85.9778 80.6636 86.0122C80.7666 86.0809 80.8352 86.2184 80.8009 86.3215C80.6979 86.7338 80.4577 87.8333 80.3204 88.3831C82.3112 88.0739 86.1213 87.3179 86.9794 87.1461C87.0481 86.7681 87.1854 86.184 87.357 85.4624C87.7346 83.71 88.2494 81.3391 88.6957 79.4837C88.73 79.3462 88.833 79.2431 89.0389 79.0713C89.1076 79.0026 89.2105 78.9339 89.2105 78.8995C89.2449 78.7621 89.3822 78.6933 89.5195 78.7277C89.6568 78.7621 89.7597 78.9339 89.7254 79.0713C89.2792 81.8202 88.524 86.0809 88.2838 87.3866C90.6179 86.9399 94.325 86.3558 95.2174 86.2184C95.3204 85.2906 95.5263 84.1567 95.698 83.0572C95.8009 82.5074 95.9039 81.9576 95.9725 81.4422C96.0069 81.3048 96.1098 81.2017 96.2471 81.2017C96.3844 81.2017 96.4874 81.3391 96.4874 81.4766C96.4874 81.7858 96.7963 83.8475 97.5172 84.6034C98.2037 85.325 99.0275 85.6686 99.9886 85.6686C101.705 85.6686 103.661 84.5003 105.549 82.37C105.618 82.3012 105.687 82.2669 105.755 82.2669C105.824 82.2669 105.927 82.3012 105.961 82.37C106.682 83.2977 107.883 83.4695 108.81 83.4695C110.904 83.4695 113.169 82.4387 113.959 81.5109C114.027 81.4422 114.096 81.4079 114.165 81.4079C114.233 81.4079 114.336 81.4422 114.371 81.5109C114.817 82.1638 115.538 82.473 116.465 82.473C118.455 82.473 121.167 80.9268 122.609 79.0026C122.643 78.9339 122.712 78.8995 122.815 78.8995C122.883 78.8995 122.986 78.9339 123.021 78.9682C124.291 80.274 125.595 80.755 127.14 80.5145C129.851 79.9647 131.43 77.8687 132.632 75.9101C132.7 75.807 132.803 75.7727 132.941 75.807C133.043 75.8414 133.146 75.9445 133.146 76.0819C133.112 76.7004 133.318 77.2158 133.73 77.6625C134.314 78.281 135.343 78.659 136.51 78.659C137.643 78.659 138.741 78.3154 139.634 77.6969C142.654 75.6009 145.538 72.8864 146.739 71.7181L147.048 71.4089C147.117 71.3401 147.254 71.2371 147.391 71.2371C147.494 71.2371 147.666 71.2714 147.735 71.5119C148.044 72.3022 149.451 72.8177 150.446 72.7146C152.197 72.5428 153.433 70.9965 153.398 69.0036C153.398 66.5296 151.098 65.0521 148.902 65.0521C147.941 65.0521 147.014 65.327 146.224 65.8424C145.812 66.1173 143.65 67.4917 141.522 69.0723C141.419 69.141 141.316 69.141 141.213 69.0723C141.11 69.0036 141.076 68.9005 141.11 68.7974C141.556 66.6671 143.101 59.9667 143.513 58.2143C141.281 58.7641 131.053 61.2381 128.959 62.3032C126.762 63.4028 125.183 65.7737 125.183 67.8697C125.183 68.9349 125.732 70.4468 127.208 71.2027C127.346 71.2714 127.38 71.4089 127.346 71.5463C127.243 71.8555 126.35 73.3674 126.247 73.5392C126.213 73.608 126.11 73.6423 126.041 73.6767C125.938 73.6767 125.87 73.6423 125.801 73.5736L125.732 73.4705C125.252 72.9207 124.668 72.2335 124.05 72.1992C123.501 72.1992 122.677 72.5428 122.128 72.7489L122.025 72.7833C121.922 72.8176 121.819 72.8177 121.751 72.7489C121.682 72.6802 121.648 72.5771 121.648 72.474C122.094 69.8626 122.952 66.6671 123.673 63.8838L124.05 62.5094L124.703 60.2416L118.764 62.2002C118.73 62.2689 118.661 62.4407 118.593 62.6812C118.558 62.7499 118.49 62.8187 118.421 62.853C117.872 63.0592 117.185 63.2653 116.465 63.4715C115.435 63.7808 114.233 64.1587 113.272 64.5367C108.192 66.4609 106.201 71.6494 105.584 73.7798C105.549 73.9172 105.412 73.9859 105.275 73.9859C105.137 73.9516 105.034 73.8141 105.069 73.6767C105.103 73.5049 105.137 73.2643 105.206 72.9895C105.584 71.2714 106.407 67.7666 105.103 66.7358C104.554 66.2891 103.764 65.7737 102.632 65.7737C101.224 65.7737 99.5767 66.564 97.5858 68.1789C97.5172 68.2477 97.4142 68.2477 97.3455 68.2133C97.2426 68.1789 97.1739 68.1102 97.1739 68.0415C97.1739 68.0071 96.7277 66.9763 94.4622 67.1481C93.2265 67.2168 91.9909 68.1446 90.3089 69.3816L90 69.5877C89.9314 69.6221 89.8284 69.6565 89.7597 69.6221C89.6568 69.5877 89.6224 69.519 89.5881 69.4503C89.3135 68.7287 88.7986 68.3851 88.0092 68.3851C86.2243 68.3851 83.4439 70.2406 81.5904 71.7868C81.4874 71.8899 81.3158 71.8899 81.2128 71.7868C81.1098 71.6837 81.0412 71.5807 80.9382 71.4776C80.7666 71.2714 80.5606 70.9965 80.1488 70.7216C79.8398 70.4811 79.016 70.275 77.8833 70.275C76.4417 70.275 73.6613 70.6873 70.984 73.23C68.341 75.7727 66.6247 79.2775 65.9382 81.7171C65.6636 82.2325 65.595 82.3012 65.0801 82.9197C65.0114 83.0228 64.8741 83.0228 64.7368 82.9885C64.6339 82.9197 64.5652 82.8166 64.5995 82.6792C65.286 80.1021 66.4874 74.5701 66.8307 72.9895C61.6476 74.4326 60.2746 74.8106 59.897 74.948C59.5538 76.2194 57.8032 83.3321 57.8032 83.4008C57.4256 85.0157 56.4645 85.8404 56.1899 86.0466C56.087 86.1153 55.984 86.1153 55.881 86.0466C55.778 85.9778 55.7437 85.8748 55.778 85.7717C56.8078 80.8924 57.1854 78.4872 57.254 78.0405C57.357 77.2502 57.1167 76.4255 56.6018 75.8758C56.2586 75.4978 55.6407 75.0167 54.611 75.0167C54.3364 75.0167 54.0275 75.0511 53.7185 75.1198C52.7918 75.3603 49.9085 77.4564 48.1579 78.8652C48.0549 78.9339 47.9176 78.9339 47.849 78.8995C47.746 78.8308 47.7117 78.6933 47.746 78.5903C48.0549 77.6282 48.4325 76.5973 48.7071 75.7727C48.913 75.1542 49.119 74.6388 49.222 74.2952C49.2563 74.2264 49.3249 74.1577 49.3936 74.1234C49.4622 74.089 49.5652 74.1234 49.6339 74.1577C50.0458 74.4326 50.492 74.5701 50.9382 74.5701C52.3455 74.5701 53.5469 73.1613 53.6842 71.4089C53.7185 70.6873 53.4096 69.897 52.8261 69.2441C51.5561 67.9041 49.3936 67.423 47.1968 68.0415C44.7597 68.7287 43.0092 69.6221 40.8467 72.2335C39.2677 74.1234 38.0664 77.1815 36.865 82.0951C36.865 82.1638 36.8307 82.1982 36.7963 82.2325C35.492 83.4351 34.5995 83.8475 33.7414 83.71C33.5011 83.6757 33.1922 83.5726 33.0206 83.3321C32.9519 83.229 32.9176 83.0572 32.9863 82.8166C33.1579 82.3012 35.2174 75.0855 35.6636 73.5049C34.8741 73.4018 34.0847 73.3674 33.2609 73.3674C28.1121 73.4018 22.9977 75.6009 20.1831 78.9682C17.9176 81.7171 16.7162 84.3972 16.476 87.3866C16.476 88.9329 16.7506 89.9637 17.4371 90.9258C18.5355 92.5064 19.8741 93.0905 21.3158 92.6095C22.5858 92.1972 24.1304 91.3381 24.0961 89.5514C24.0961 88.658 23.7185 87.902 22.7918 86.9743C22.4142 86.5963 22.4142 86.1496 22.4485 85.9091C22.7231 83.5382 24.8513 81.5109 25.778 80.755C25.881 80.6863 26.0183 80.6519 26.1213 80.755C26.2243 80.8237 26.2586 80.9612 26.2243 81.0642C25.2632 83.4695 25.0915 85.4281 25.7437 86.9056C26.1899 87.9364 27.0137 88.6923 28.2151 89.1734C28.7986 89.4139 29.8284 89.5514 30.9954 89.517C32.643 89.517 34.222 89.2421 34.9085 88.8641C34.9771 88.8298 35.0801 88.8298 35.1487 88.8641C35.2174 88.8985 35.286 88.9672 35.286 89.0703C35.5606 90.5135 33.5011 93.1936 31.7849 93.6403C31.167 93.8121 30.7895 93.8808 30.5835 93.9152C30.3089 95.0835 29.4851 98.657 29.1419 100.066C32.2998 98.4165 35.6293 96.9389 38.7872 96.9389C43.9016 96.9046 45.7895 95.1178 45.7895 95.1178L45.9954 94.9117L46.1327 94.1557L47.1625 88.3831C46.5789 88.9329 45.6865 89.7232 45.3089 89.9637C45.206 90.0324 45.103 90.0324 45 89.9637C44.897 89.895 44.8627 89.7919 44.897 89.6544C45.103 88.8298 45.2746 88.0395 45.4462 87.2492C45.7208 85.9778 45.9954 84.7752 46.3387 83.5726C46.373 83.5039 46.4073 83.4351 46.476 83.4008C46.5446 83.3664 46.6476 83.3664 46.7162 83.4008C47.2654 83.6757 49.119 84.6034 49.119 84.6034C49.222 84.6721 49.2906 84.7752 49.2563 84.9127C48.7071 87.2492 47.9863 90.8914 47.9863 91.6474C47.9863 93.8808 48.913 95.0147 50.6636 94.9804C51.4188 94.9804 52.1396 94.7742 52.4828 94.6368C52.6201 94.568 52.7918 94.6368 52.8261 94.8086C52.8604 94.946 52.8261 95.1178 52.6888 95.1522C46.7162 97.6262 45.3433 98.3477 44.3135 98.9319C42.0481 100.238 41.7735 102.677 42.254 104.361C42.7689 106.216 44.0732 107.35 45.5835 107.144C45.6865 107.11 45.7895 107.178 45.8581 107.282C45.9268 107.385 45.9268 107.488 45.8581 107.591C45.103 108.656 44.3478 109.79 43.5584 110.889C40.6751 115.047 37.9291 118.999 36.6247 120.132C36.5561 120.201 36.4531 120.236 36.3501 120.167C35.6636 119.686 34.9428 119.514 34.2906 119.514ZM62.9176 111.92C62.849 111.92 62.7803 111.886 62.746 111.852C62.6773 111.817 62.643 111.714 62.643 111.645C62.6773 110.168 62.746 108.828 62.8146 107.488C62.849 106.835 62.8833 106.216 62.8833 105.564C62.8833 105.46 62.9519 105.392 63.0206 105.323C63.0892 105.289 63.1922 105.289 63.2952 105.323C63.6728 105.495 64.2563 105.77 64.7025 105.941C64.9085 106.01 65.0801 106.113 65.1831 106.148C65.286 106.216 65.3547 106.319 65.3547 106.457C65.0801 107.728 64.8398 108.931 64.5995 109.996C64.4966 110.58 64.3593 111.096 64.2906 111.542C64.2563 111.645 64.1876 111.748 64.0847 111.748C63.913 111.783 63.7757 111.817 63.6728 111.817C63.4325 111.852 63.2952 111.886 62.9176 111.92ZM63.3982 105.976C63.3638 106.491 63.3638 107.007 63.3295 107.522C63.2952 108.759 63.2265 109.996 63.1922 111.336C63.3295 111.302 63.4325 111.302 63.5355 111.267C63.6041 111.267 63.6728 111.233 63.7757 111.233C63.8787 110.821 63.9474 110.34 64.0503 109.859C64.2563 108.862 64.4622 107.763 64.7368 106.56C64.6339 106.526 64.5652 106.491 64.4622 106.457C64.119 106.319 63.7414 106.148 63.3982 105.976ZM80.5263 105.77C80.4577 105.77 80.4233 105.77 80.389 105.735C80.286 105.667 80.2517 105.564 80.286 105.426C80.5606 104.327 80.8009 102.918 81.0755 101.578C81.0755 101.509 81.1442 101.406 81.2128 101.371C81.2815 101.337 81.3844 101.337 81.4531 101.371C81.865 101.578 83.3066 101.818 83.8215 101.887C83.9245 101.887 83.9931 101.956 84.0275 102.059C84.0618 102.162 84.0275 102.265 83.9588 102.334C83.7185 102.574 83.4439 102.883 83.135 103.227C82.4485 103.983 81.6247 104.911 80.6636 105.701C80.6636 105.735 80.595 105.77 80.5263 105.77ZM81.5217 101.99C81.3158 102.952 81.1442 103.914 80.9725 104.739C81.6247 104.12 82.2082 103.468 82.7574 102.849C82.9291 102.677 83.0664 102.505 83.238 102.334C82.7231 102.265 82.0366 102.127 81.5217 101.99ZM49.2563 102.608C49.119 102.608 49.0503 102.54 49.016 102.437C48.8787 102.093 48.7414 101.578 48.7414 101.578C48.7071 101.475 48.7757 101.337 48.8787 101.268C49.119 101.131 49.2563 101.062 49.4622 100.959L49.9428 100.684C50.0458 100.616 50.1831 100.65 50.2517 100.719C50.3204 100.822 50.3547 100.925 50.286 101.028C50.1144 101.337 49.9771 101.543 49.8398 101.784C49.7368 101.956 49.6339 102.162 49.4622 102.402C49.4622 102.54 49.3593 102.574 49.2563 102.608ZM99.5423 101.818C99.508 101.818 99.4394 101.818 99.405 101.784C99.3021 101.715 99.2677 101.578 99.3021 101.475L99.5423 100.684C99.7826 99.8596 100.057 98.9662 100.4 97.8667C100.435 97.798 100.469 97.7292 100.538 97.6949C100.606 97.6605 100.675 97.6605 100.744 97.6949L102.666 98.5195C102.735 98.5539 102.803 98.6226 102.838 98.7257C102.838 98.8288 102.838 98.8975 102.735 98.9662C102.426 99.2755 102.117 99.5504 101.773 99.894C101.224 100.444 100.572 101.062 99.7483 101.749C99.6453 101.784 99.5767 101.818 99.5423 101.818ZM100.778 98.3134C100.503 99.2068 100.263 99.9971 100.057 100.719C100.538 100.272 100.95 99.8596 101.362 99.4816C101.602 99.2755 101.808 99.035 102.014 98.8288L100.778 98.3134ZM55.7437 93.709C55.6407 93.709 55.5721 93.6747 55.5034 93.5716C55.4348 93.4685 55.4348 93.2967 55.5378 93.228C55.9497 92.8844 56.2243 92.6782 56.4302 92.5064C56.6362 92.369 56.7391 92.2659 56.8764 92.1284C56.9794 92.0597 57.1167 92.0253 57.2197 92.0941L57.357 92.1628C57.4943 92.2315 57.5629 92.2659 57.8032 92.4033C57.9062 92.4377 57.9748 92.5408 57.9748 92.6438C57.9748 92.7469 57.9062 92.85 57.8032 92.8844C57.254 93.1249 56.9451 93.228 56.5675 93.3998L55.8467 93.709C55.8124 93.709 55.778 93.709 55.7437 93.709ZM130.195 92.2659C130.092 92.2659 129.954 92.1972 129.92 92.0941C129.886 91.9566 129.92 91.8192 130.057 91.7505C130.332 91.613 130.503 91.5443 130.606 91.4756C130.812 91.3725 130.881 91.3381 131.156 91.2007C131.224 91.1663 131.293 91.1663 131.396 91.2007C131.465 91.235 131.533 91.3038 131.533 91.3725C131.568 91.4412 131.568 91.5099 131.602 91.5443C131.636 91.6817 131.705 91.8192 131.636 91.9566C131.602 92.0253 131.499 92.0941 131.43 92.0941C130.744 92.1972 130.229 92.2659 130.195 92.2659ZM72.9062 84.8096C72.5973 84.8096 72.5629 84.5691 72.5629 84.5347C72.5629 84.5003 72.5629 84.466 72.5629 84.466C72.5973 84.2254 73.73 78.659 74.6568 77.3533C74.9314 76.9753 75.2746 76.8379 75.3433 76.8379C75.3433 76.8379 75.3776 76.8379 75.4119 76.8379C75.4119 76.8379 75.7895 76.8035 76.3387 76.8035C76.373 76.8035 76.4417 76.8035 76.476 76.8379C77.3684 77.2846 78.2609 77.3876 79.119 77.1815C79.1876 77.1471 79.4966 76.9753 79.7368 76.8379C79.8055 76.8035 79.8741 76.7691 79.9428 76.8035C80.0114 76.8035 80.0801 76.8722 80.1144 76.9409C80.492 77.5938 81.7277 78.1779 82.0366 78.1779C82.1053 78.1779 82.2082 78.2123 82.2769 78.281C82.3455 78.3497 82.3455 78.4528 82.3455 78.5215C82.1396 79.3118 81.968 79.9647 81.7963 80.6519C81.5904 81.5453 81.3501 82.4387 80.9725 83.7788C80.9382 83.8818 80.8696 83.9506 80.7666 83.9849C80.6636 83.9849 80.5606 83.9506 80.492 83.8818L78.1922 80.8237C77.8147 81.1673 77.4028 81.5109 76.9909 81.9233C75.103 83.6413 73.7986 84.7752 73.1465 84.8783C73.0435 84.8096 72.9748 84.8096 72.9062 84.8096ZM75.4806 77.3533C75.4119 77.3876 75.2403 77.4907 75.103 77.6625C74.3478 78.6934 73.4211 82.9541 73.1465 84.2254C73.7986 83.9849 75.4119 82.5074 76.6133 81.4422C77.1282 80.9612 77.643 80.5145 78.0549 80.1709C78.1236 80.1365 78.1922 80.1021 78.2609 80.1021C78.3295 80.1021 78.3982 80.1365 78.4668 80.2052L80.595 83.0572C80.8696 81.992 81.0755 81.236 81.2471 80.4801C81.3844 79.896 81.5217 79.3118 81.6934 78.6246C81.1098 78.4528 80.2517 77.9718 79.7712 77.3876C79.5995 77.4907 79.3593 77.6282 79.222 77.6625C78.2609 77.9031 77.2311 77.8 76.27 77.3189C75.8581 77.3189 75.5835 77.3533 75.4806 77.3533ZM112.208 76.0476C112.174 76.0476 112.105 76.0132 112.071 76.0132C112.002 75.9788 111.934 75.8758 111.934 75.7727C111.934 74.9137 112.449 73.1613 112.449 73.0925C112.998 71.8212 113.616 71.134 114.748 70.5498C114.851 70.5155 114.954 70.5155 115.023 70.5842C115.092 70.6529 115.16 70.7216 115.126 70.8247C115.023 71.6837 114.783 72.8864 114.302 73.9516C114.13 74.2952 113.341 75.4634 112.277 76.0132C112.277 76.0476 112.243 76.0476 112.208 76.0476ZM112.963 73.2987C112.963 73.2987 112.62 74.4326 112.517 75.2916C113.169 74.7762 113.719 74.0546 113.856 73.7454C114.199 72.9551 114.439 72.0617 114.542 71.3058C113.822 71.7868 113.341 72.371 112.963 73.2987ZM133.661 66.7358C133.284 66.7358 133.078 66.6327 133.009 66.4265C132.975 66.3235 132.941 66.1173 133.112 65.9111C133.352 65.5332 134.039 65.1895 134.519 65.1895C134.794 65.1895 134.966 65.2926 135.034 65.3957C135.137 65.4988 135.172 65.6362 135.172 65.7737C135.137 66.1173 134.691 66.4609 134.588 66.5296C134.314 66.6671 133.97 66.7358 133.661 66.7358ZM133.558 66.186C133.593 66.186 133.627 66.186 133.661 66.186C133.867 66.186 134.108 66.1173 134.279 66.0486C134.348 66.0142 134.485 65.8424 134.554 65.7737C134.519 65.7737 134.519 65.7737 134.485 65.7737C134.176 65.7393 133.73 66.0142 133.558 66.186Z" fill="white"/>
<path d="M45.3089 94.2588C45.3776 94.2245 45.4119 94.1214 45.4119 94.0527C45.4119 93.8808 45.6865 92.5408 45.9268 91.3382C45.9611 91.2351 45.8924 91.0976 45.7895 91.0633C45.6865 90.9945 45.5835 90.9945 45.4805 91.0976C44.5881 91.8192 43.8673 92.2659 43.2837 92.4033C45.9611 80.5832 47.7803 75.1886 48.6728 72.9207C49.3936 73.3674 49.9428 73.608 50.7666 73.608C50.7666 73.608 50.7666 73.608 50.8009 73.608C51.968 73.4018 52.6545 72.6115 52.6545 71.4089C52.6545 70.6186 52.4485 69.7939 51.1098 69.2441C50.389 68.9349 49.3593 68.6944 47.9519 68.9692C45.1373 69.6221 43.0435 70.9278 41.5675 72.9895C40.0915 75.1198 38.7872 78.281 37.5172 82.6792C36.1098 84.1224 34.7025 84.5691 33.6384 84.7752C32.849 84.9127 32.1968 84.7752 31.8879 84.3973C31.7162 84.1567 31.6476 83.8475 31.7506 83.4695C32.8833 79.2431 34.3936 74.6731 34.4279 74.6388C34.4622 74.5701 34.4622 74.467 34.3936 74.3983C34.3249 74.3295 34.2563 74.2952 34.1876 74.2952C33.913 74.2952 30.4805 74.6388 29.2448 74.8793C25.9496 75.4978 23.238 77.0784 20.9725 79.6898C18.7757 82.2325 17.6773 84.8096 17.6773 87.3523C17.6773 88.3144 17.7803 89.4483 18.3982 90.4104C18.8787 91.132 19.4966 91.8536 20.5606 91.8536C20.8009 91.8536 21.0412 91.8192 21.2815 91.7505C22.1053 91.51 23.1007 90.9602 23.1007 89.5514C23.1007 88.9329 22.7918 88.3144 22.2082 87.6959C21.7277 87.2148 21.4531 86.4589 21.4531 85.9435C21.4531 84.3629 22.2426 82.7479 23.7872 81.133C25.0915 79.7929 26.5332 78.8652 28.0435 78.3154C27.4599 80.2052 26.2929 84.1224 26.3272 85.0845C26.3615 86.0809 26.9794 87.4897 28.6956 88.2113C29.3135 88.4862 30.0343 88.5893 30.8924 88.5893C31.5103 88.5893 32.2311 88.5206 33.1922 88.3831C34.3936 88.1426 35.595 87.6615 36.7963 86.9743L36.1098 90.2386C35.1144 94.1557 31.8535 94.7399 31.7162 94.7399C31.5789 94.7742 31.476 94.8773 31.476 95.0148C31.476 95.4271 31.0984 97.1108 30.9611 97.6949C30.9268 97.798 30.9611 97.9011 31.0641 97.9698C31.0984 98.0041 31.167 98.0385 31.2357 98.0385C31.27 98.0385 31.3043 98.0385 31.3387 98.0042C31.5103 97.9354 31.6819 97.8323 31.8879 97.6949C33.1236 97.0077 35.1487 95.8051 38.8215 95.8051C43.2837 95.702 45.2403 94.3275 45.3089 94.2588ZM44.2105 76.4943C43.0778 80.4458 42.0824 85.325 41.1899 89.7919C40.984 90.7884 40.778 91.7848 40.6064 92.7126H40.0915C40.1258 92.5751 40.1602 92.369 40.2288 92.1284C41.9451 83.9849 43.2494 79.2088 44.2105 76.4943Z" fill="white"/>
<path d="M62.2998 113.054L61.5446 113.226C61.6476 106.835 62.0938 98.279 63.7757 92.9531C63.8444 92.7469 63.8787 92.6438 63.8787 92.5751C63.8787 92.472 63.8101 92.3689 63.7071 92.3346C63.6041 92.3002 63.5011 92.3346 63.3982 92.4033C63.2609 92.5407 62.2311 92.9187 61.3387 93.1592C61.27 93.1936 61.2014 93.228 61.167 93.2967C59.1075 97.7636 58.5927 111.955 58.524 113.913L57.9748 114.051C57.7002 100.409 60.2746 93.5372 60.3089 93.5029C60.3432 93.3998 60.3089 93.2623 60.2403 93.1936C60.1716 93.1249 60.0343 93.0905 59.9313 93.1592C59.8284 93.228 58.9702 93.5372 58.0091 93.9152C51.6934 96.3204 45.7208 98.657 44.9657 99.6191C43.524 100.925 43.3181 102.299 43.3867 103.227C43.4554 104.361 44.0046 105.254 44.4851 105.564C45.5492 106.285 46.7506 106.216 47.5057 105.392C47.9519 104.911 48.1922 104.258 48.1579 103.639C48.1236 102.883 47.746 102.162 47.6087 101.921C47.643 101.475 47.8833 100.994 48.3295 100.512C48.9817 99.8252 51.6934 98.6913 53.6499 98.0385C52.9291 99.0349 51.8307 100.719 50.4577 102.746C46.476 108.725 38.1693 121.129 36.6934 121.163C36.659 121.129 35.7666 120.51 34.7368 120.51C34.0847 120.51 33.5355 120.751 33.0549 121.266C32.2998 122.435 32.4714 123.294 32.746 123.809C33.2952 124.84 34.6682 125.287 35.4577 125.287H35.492C37.3112 125.252 38.7528 124.496 40.2975 122.675C41.6018 121.163 47.8833 112.092 51.3844 106.56C51.7963 105.941 52.2082 105.357 52.6545 104.704C53.2037 103.949 53.7529 103.158 54.2677 102.334C54.2334 102.78 54.1648 103.227 54.1304 103.674C53.9245 105.701 53.7185 108.209 53.341 111.061C53.1007 116.112 51.5561 117.796 51.5561 117.796C51.4874 117.865 51.4531 118.002 51.4874 118.105C51.5217 118.208 51.6247 118.277 51.7277 118.277C54.1304 118.277 56.0183 117.762 57.2883 116.834C59.3821 115.769 62.0252 115.734 62.0595 115.734C62.1968 115.734 62.3341 115.631 62.3341 115.459C62.3341 114.394 62.5744 113.329 62.5744 113.295C62.6087 113.192 62.5744 113.089 62.5057 113.02C62.4714 113.054 62.4027 113.02 62.2998 113.054Z" fill="white"/>
<path d="M147.975 91.9567C147.597 91.7849 146.602 91.5443 145.675 91.5787C145.435 91.5787 145.195 91.613 144.989 91.6474C142.62 92.1972 140.698 93.2967 138.158 95.6333L135.858 97.798C136.201 96.2861 136.888 93.1593 137.506 90.3417C138.021 87.9364 138.467 85.8404 138.604 85.3937C138.638 85.2907 138.604 85.2219 138.535 85.1532C138.467 85.0845 138.364 85.0501 138.295 85.0845C136.957 85.3594 128.238 87.5585 126.247 88.7611C125.011 89.517 122.574 91.2351 122.883 93.4685C123.261 95.2553 124.222 95.9081 124.977 96.1487C125.286 96.2518 125.698 96.3548 126.213 96.3892C126.007 96.561 125.801 96.7328 125.732 96.8015C125.011 97.5231 124.668 98.2103 124.291 99.0693L124.05 99.5504C123.707 100.272 122.918 100.787 122.506 100.994C122.368 100.547 122.059 99.6878 121.888 99.1381C121.751 98.7601 121.545 98.1416 120.892 98.1416C120.652 98.1416 120.378 98.2103 120.069 98.3821C119.279 98.7945 117.529 100.616 116.568 101.612C117.082 99.3099 118.558 93.0906 119.588 88.7267C119.622 88.6237 119.588 88.5206 119.519 88.4519C119.451 88.3831 119.348 88.3488 119.279 88.3831C118.181 88.658 114.783 90.0324 114.645 90.0668C114.577 90.1012 114.508 90.1699 114.474 90.2386L112.586 97.7293C112.346 98.9319 111.728 100.066 110.492 101.475C109.668 102.402 108.913 102.918 108.192 103.021C108.638 100.994 110.389 92.7813 110.389 92.2315C110.389 91.2007 108.844 90.3073 107.918 90.3073C107.094 90.3073 106.407 90.5135 105.309 91.51C104.451 92.2659 100.469 95.6333 100.435 95.6676C100.366 95.702 100.332 95.8051 100.332 95.8738C100.332 95.9425 100.366 96.0456 100.435 96.0799C101.259 96.6297 102.597 97.4544 102.632 97.4544C102.735 97.5231 102.872 97.4887 102.975 97.42C103.181 97.2139 104.348 96.1143 105.069 95.4615C104.966 96.1143 104.794 97.0077 104.416 98.4852C102.769 100.409 99.1304 103.777 97.4828 105.151C97.9291 103.055 99.4737 96.7328 100.538 92.3346C100.572 92.2315 100.538 92.1285 100.469 92.0941C100.4 92.0254 100.297 91.991 100.195 92.0254C99.0961 92.3003 95.8352 93.1593 95.8352 93.1593C95.7323 93.1936 95.6293 93.2967 95.6293 93.3998C95.595 93.7091 94.5309 97.42 93.8101 99.8253C91.7849 100.169 90.8581 100.272 90.4462 100.306C90.6179 99.6535 90.7208 99.1381 90.8238 98.7257C91.2014 97.2139 91.27 96.939 91.27 95.9425C91.27 95.324 91.0298 93.8121 88.7986 94.0183C87.1167 94.1557 81.8993 99.1037 81.3158 99.6535C81.2471 99.7222 81.2128 99.8253 81.2471 99.894C81.2471 99.9971 81.3158 100.066 81.4188 100.1C82.6545 100.616 83.8558 100.925 83.9245 100.925C84.0275 100.959 84.1304 100.925 84.1991 100.856C84.9199 100.135 85.4005 99.6191 85.7437 99.2755L85.1259 102.746C83.7872 104.327 79.7368 107.797 78.2266 109.103C78.7071 106.938 80.389 100.512 81.5561 96.0456C81.5904 95.9425 81.5561 95.8394 81.4874 95.8051C81.4188 95.7363 81.3158 95.702 81.2128 95.7363C80.1144 96.0112 76.8879 96.8702 76.8879 96.8702C76.7849 96.9046 76.6819 97.0077 76.6819 97.1108C76.6476 97.42 75.3776 102.059 74.5538 105.048C73.6957 107.694 70.8467 109.859 69.7826 110.477C69.9542 109.721 70.2632 108.278 70.6064 106.835C71.4302 103.158 72.0481 100.341 72.0824 99.894C72.1167 99.3442 72.151 98.0385 71.3616 97.6949C70.778 97.42 70.4348 97.4544 69.5423 97.798C69.0275 98.0042 63.5355 102.402 62.4371 103.296C62.3684 103.33 62.3341 103.433 62.3341 103.536C62.3341 103.605 62.3684 103.708 62.4371 103.742C63.2609 104.292 64.5996 104.842 64.6682 104.876C64.7712 104.911 64.8742 104.876 64.9771 104.808C65.0458 104.705 65.3547 104.464 65.698 104.155C66.0755 103.811 66.5561 103.399 66.968 103.021C66.3158 105.701 64.8398 112.642 64.8398 113.192C64.8398 114.051 65.1144 114.669 65.7323 115.322C66.0069 115.597 66.4188 115.734 66.968 115.734C67.1739 115.734 67.3799 115.7 67.6201 115.666C68.9245 115.425 71.9794 113.226 73.2494 112.126C73.3181 112.608 73.524 113.295 74.2105 113.673C75.0687 114.154 75.5149 114.119 76.0641 113.948C77.643 113.467 80.7323 110.752 83.9931 107.694C83.5126 109.24 83.0664 111.542 83.032 111.645C83.032 111.748 83.032 111.817 83.1007 111.886C83.1693 111.955 83.2723 111.955 83.3753 111.955C84.4394 111.68 87.9405 110.821 88.0092 110.821C88.1121 110.786 88.2151 110.683 88.2151 110.58C88.2494 110.305 89.1419 106.319 89.7597 103.605L93.2609 103.124C93.0206 104.327 92.7803 105.323 92.6087 106.079C92.4028 106.972 92.2655 107.488 92.2655 107.797C92.2655 108.759 93.1922 110.511 95.0458 110.271C95.9725 110.134 98.2037 108.209 101.808 105.048C102.323 104.601 102.803 104.155 103.318 103.708C103.249 104.052 103.181 104.43 103.078 104.773C102.941 105.357 102.872 105.667 102.872 105.804C102.872 106.526 102.975 107.453 103.833 107.969C104.554 108.415 105.103 108.415 105.652 108.278C106.304 108.106 110.252 105.323 111.659 104.327C111.831 105.151 112.414 106.766 114.062 106.594C115.4 106.457 117.048 105.254 119.931 102.334V102.368C120.378 103.296 120.721 103.949 121.201 104.292C121.888 104.773 122.712 104.979 123.57 104.876C124.84 104.705 127.208 103.433 128.65 100.547C129.645 98.5539 130.297 97.3513 130.778 96.6984C131.087 96.2861 131.327 96.08 131.568 96.0112C131.087 97.9011 130.881 99.6191 130.881 100.135C130.881 101.2 131.087 101.921 131.533 102.265C132.391 102.952 133.043 103.124 133.97 102.849C135.412 102.437 137.952 100.238 140.217 98.279C141.659 97.0421 143.341 95.8051 143.65 95.5989C144.336 95.2553 145.126 95.4958 145.572 96.0112C146.121 96.6984 146.773 96.7672 147.22 96.7672C147.46 96.7672 147.7 96.7328 147.906 96.6641C148.352 96.561 149.416 96.08 149.588 94.465C149.691 93.1936 148.867 92.3346 147.975 91.9567ZM133.318 89.5514L132.151 93.1249C132.048 93.1249 131.911 93.1593 131.773 93.1936C131.293 93.2624 130.641 93.3654 129.989 93.3654C128.41 93.3654 128.307 92.747 128.272 92.5064C128.169 91.8879 128.65 91.4069 129.508 90.8228C130.16 90.4104 132.357 89.7576 133.318 89.5514Z" fill="white"/>
<path d="M152.368 68.7631C152.163 67.045 151.064 66.0829 149.348 66.0829C148.421 66.0829 147.323 66.3922 146.499 66.9076C144.645 68.0415 140.835 70.756 139.359 71.7868C139.977 69.0723 141.934 60.0698 141.968 59.9667C142.002 59.8636 141.968 59.7606 141.899 59.6918C141.831 59.6231 141.728 59.6231 141.659 59.6231C141.487 59.6918 141.041 59.7605 140.423 59.898C137.334 60.5852 130.95 62.0284 129.371 63.0248C127.414 64.2275 126.281 65.9455 126.281 67.6979C126.281 68.5569 126.831 69.8283 128.341 70.4124C128.616 70.5498 128.89 70.6186 129.165 70.6873C128.204 71.4776 127.62 72.7833 127.14 73.9516C126.35 75.8071 126.213 75.7727 125.767 75.7383C125.286 75.704 125.08 75.1886 124.806 74.5013C124.668 74.089 124.531 73.711 124.256 73.5392C124.119 73.4362 123.913 73.3674 123.707 73.3674C122.574 73.3674 120.721 75.3947 119.519 76.2194C120.034 73.9516 121.785 66.9076 122.952 62.2689C122.986 62.1658 122.952 62.0627 122.883 62.0284C122.815 61.9596 122.712 61.9253 122.609 61.9596C121.236 62.2689 119.725 62.6812 119.691 62.6812C119.622 62.7156 119.554 62.7499 119.519 62.853C119.451 63.0248 119.279 63.4372 119.211 63.6777C118.387 63.8495 115.572 64.7429 113.513 65.5332C108.158 67.5948 106.579 73.5392 106.064 75.4978C105.995 75.704 105.927 75.9789 105.961 75.9789L104.348 77.9031C103.799 78.4872 103.146 79.1744 102.494 79.6898C102.7 78.7621 103.181 77.0784 103.593 75.5322C104.348 72.7489 104.794 71.0653 104.794 70.6873C105.034 69.1411 104.897 68.0759 104.382 67.423C104.005 66.9763 103.421 66.7358 102.563 66.7702C102.391 66.7702 102.22 66.7702 102.048 66.8045C100.847 66.9076 98.135 68.8662 97.1053 69.6565C96.865 68.9005 96.1442 67.9728 94.7025 68.2477C93.2609 68.4882 91.5446 69.5877 89.5195 71.5807C89.5538 71.134 89.5195 70.6529 89.3135 70.275C89.1419 69.9657 88.9016 69.7596 88.524 69.6565C88.3867 69.6221 88.1808 69.519 87.8032 69.519C86.9108 69.519 85.7437 70.0688 84.2334 71.0996C83.4096 71.6838 82.2083 72.7146 81.1442 73.7798C81.1442 73.1613 80.9382 72.3366 79.6339 71.6494C79.222 71.4432 78.5698 71.3401 77.849 71.3401C76.6133 71.3401 74.1076 71.7181 71.4645 74.2265C68.3753 77.3877 67.2426 80.6519 66.8307 82.3356C66.3845 83.0228 63.9131 85.8748 62.7117 87.2836C63.2609 84.947 64.6682 78.9683 65.6636 74.7762C65.698 74.6731 65.6636 74.5701 65.595 74.5357C65.5263 74.467 65.4234 74.4326 65.3204 74.467C64.2563 74.7419 60.8581 75.8414 60.6865 75.8758C60.5835 75.9101 60.5149 75.9789 60.5149 76.0819L58.627 83.5726C58.0092 86.8025 55.5378 88.4518 54.405 89.1734C54.8856 86.6994 56.3959 78.6246 56.3959 78.1092C56.3959 77.4564 55.778 76.0476 53.9245 76.185C53.3753 76.2537 52.5858 76.6661 51.3501 77.6282C50.5263 78.1779 46.6133 81.6484 46.4417 81.8202C46.373 81.8889 46.3387 81.992 46.3387 82.0607C46.373 82.1638 46.4417 82.2325 46.5103 82.2669C47.2998 82.5418 48.6728 83.0572 48.6728 83.0916C48.7758 83.1259 48.8787 83.0915 48.9817 83.0228C49.0847 82.8854 49.6682 82.4731 50.1488 82.0951C50.4577 81.8546 50.698 81.6484 50.9039 81.511C50.8353 82.1638 50.6293 83.0228 50.3204 84.4316L50.1488 85.2563C49.7025 87.0774 48.8101 91.0289 48.8101 91.6818C48.8101 92.6095 49.1533 93.2624 49.8055 93.5716C50.2517 93.709 50.7323 93.8121 51.2128 93.8121C52.3799 93.8121 53.5812 93.3654 54.9542 92.4033C55.5034 91.991 55.984 91.5443 56.4645 91.132C56.8421 90.8227 57.1854 90.4791 57.5973 90.1699C57.7002 90.7197 57.9062 91.5443 58.1121 91.7848C58.4211 92.1628 58.8673 92.3346 59.3822 92.3346C61.7163 92.3346 65.492 88.3488 66.5904 87.1118C67.1053 88.4175 68.4096 89.6888 70.778 89.8606C74.4508 90.1355 79.4623 84.9814 79.6682 84.7752C79.7712 84.6721 79.7712 84.5003 79.6682 84.3973L78.0206 82.4731C77.952 82.4043 77.9176 82.37 77.8147 82.37C77.746 82.37 77.6774 82.4043 77.6087 82.4387L77.1282 82.9197C75.4806 84.6034 74.3135 85.8404 72.9062 85.9779C72.3913 86.0122 72.1167 86.0122 71.8764 85.8404C71.4989 85.5655 71.2929 84.8783 71.2929 84.0536C71.2929 82.7823 73.2494 77.422 73.6613 76.7348C74.0389 76.1507 74.5538 75.7727 75.0687 75.7383C75.3089 75.7383 75.8238 75.7383 76.6133 75.9789L76.7506 76.0132C77.2311 76.185 77.7117 76.3568 78.2266 76.3568C78.6041 76.3568 78.9131 76.2881 79.1877 76.0819C79.3936 75.9445 79.7025 75.704 79.9085 75.5665C80.492 76.3225 81.3845 77.0097 81.4531 77.044C81.5561 77.1128 81.6591 77.1128 81.7277 77.0784C82.1053 76.8722 83.0321 76.0132 83.8902 75.1542C83.444 77.3189 82.071 83.1946 81.1099 87.2836C81.0755 87.3867 81.1099 87.4554 81.1785 87.5241C81.2472 87.5928 81.3158 87.6272 81.4188 87.5928C82.6888 87.3867 86.0183 86.7338 86.0527 86.7338C86.1899 86.6994 86.2586 86.5964 86.2586 86.4589C86.2586 85.8061 88.1121 77.1128 88.627 76.3225C89.1762 75.1542 90.8925 73.9859 91.7849 73.4362L89.2449 85.5655C89.2449 85.6343 89.2449 85.7373 89.3135 85.8061C89.3822 85.8748 89.4508 85.9091 89.5538 85.9091C90.5149 85.8061 93.7758 85.3594 93.9131 85.325C94.0504 85.2906 94.119 85.1876 94.1533 85.0845C94.2563 84.2255 96.5218 75.0168 97.0023 74.467C97.0366 74.4326 97.0366 74.3983 97.071 74.3639C97.4142 73.2644 98.8215 72.1304 99.6453 71.5463C99.0961 73.9859 97.3799 81.5109 97.3799 81.992C97.3799 82.8167 97.9291 84.5347 99.5424 84.5347C99.7483 84.5347 99.9543 84.5003 100.16 84.466C102.151 83.9849 104.485 81.8202 105.858 80.3427C106.064 80.9955 106.51 81.5453 106.991 81.8889C107.265 82.0951 107.815 82.1294 108.227 82.1294C109.84 82.1294 112.346 81.4766 114.268 79.7242C114.508 80.6863 115.195 81.2361 116.259 81.2361C116.945 81.2361 117.666 80.9955 118.112 80.7894C119.554 80.1022 121.51 78.4872 122.746 77.1815C123.364 78.7621 124.943 79.6555 126.728 79.3806C128.719 79.0713 130.332 77.7313 131.533 75.3604C131.705 75.0168 131.876 74.6388 132.048 74.2608C132.666 72.852 133.318 71.4089 134.622 70.9278C133.97 72.5084 133.558 73.6767 133.73 75.2573C133.902 76.7692 134.794 77.5595 136.304 77.5595C137.265 77.5595 138.158 77.2158 138.467 77.044C140.389 75.9445 142.757 73.8141 144.508 72.2335C145.435 71.3745 146.224 70.6529 146.636 70.4124C147.22 70.0344 147.597 70.275 148.112 70.6529C148.249 70.756 148.387 70.8591 148.558 70.9622C148.936 71.2027 149.382 71.3058 149.828 71.3058C150.584 71.3058 151.27 70.9965 151.716 70.4811C152.265 69.9657 152.437 69.3816 152.368 68.7631ZM136.51 63.8151L135.549 67.4574C135 67.6635 133.833 68.0415 132.941 68.0415C132.597 68.0415 132.323 67.9728 132.151 67.8697C131.979 67.7666 131.808 67.4574 131.773 66.942C131.739 66.6327 131.773 65.8768 132.426 65.327C133.352 64.5367 135.515 63.9182 136.51 63.8151ZM110.801 77.6969C110.698 77.0097 110.492 75.1198 111.59 72.852C112.86 70.2406 115.778 68.5913 116.739 68.1446C116.705 69.4503 116.362 73.7798 113.616 76.4255C112.86 77.1815 111.384 77.5595 110.801 77.6969Z" fill="white"/>
<path d="M67.6201 46.6691C66.968 46.3942 66.2471 46.3598 65.595 46.5316C65.1488 46.6347 64.4279 46.944 63.3982 47.4938C62.5401 47.9404 61.6476 48.4215 60.7895 48.9025C60.6179 49.0056 60.4806 49.1774 60.4119 49.3836C60.3776 49.5898 60.4119 49.7959 60.5149 49.9677C62.0252 52.3043 63.5012 54.6752 64.8742 57.0117C65.0115 57.2522 65.2517 57.3897 65.5263 57.3897C65.6636 57.3897 65.7666 57.3553 65.9039 57.2866C66.4188 57.0117 66.8993 56.7368 67.4142 56.4619C67.5858 56.3588 67.7231 56.187 67.7918 56.0152C67.8604 55.8091 67.8261 55.6029 67.7231 55.4311C67.3456 54.7439 66.9336 54.091 66.5561 53.4038C66.659 53.3351 66.762 53.3007 66.865 53.232C67.6888 52.8197 68.2037 52.5104 68.5812 52.2012C68.8902 51.9263 69.1648 51.617 69.405 51.2047C69.6453 50.7924 69.7483 50.3457 69.7826 49.7959C69.7826 49.2805 69.6453 48.7307 69.3364 48.1466C68.8902 47.425 68.3066 46.944 67.6201 46.6691ZM64.6682 50.1395C65.2174 49.8303 65.595 49.6928 65.7323 49.6241C65.8696 49.5898 65.9726 49.5554 66.1442 49.6241C66.1785 49.6241 66.2472 49.6585 66.3158 49.7959C66.3501 49.8646 66.3501 49.899 66.3845 49.9677C66.3845 50.0365 66.3501 50.1052 66.2815 50.1739C66.2815 50.2083 66.1099 50.3457 65.2861 50.7924L65.1488 50.8611C65.1144 50.8955 65.0801 50.8955 65.0458 50.9298C64.9085 50.6893 64.7712 50.4488 64.5996 50.2083C64.6339 50.1395 64.6339 50.1395 64.6682 50.1395Z" fill="#A2600B"/>
<path d="M59.0389 50.8267C58.7643 50.5519 58.3181 50.5175 58.0092 50.758C56.1899 52.2355 54.405 53.7818 52.6888 55.3624C52.5172 55.4998 52.4485 55.706 52.4485 55.9121C52.4485 56.1183 52.5172 56.3245 52.6888 56.4619C54.6796 58.3861 56.6018 60.379 58.4554 62.372C58.5927 62.5438 58.7986 62.6125 59.0046 62.6125C59.1762 62.6125 59.3478 62.5438 59.5195 62.4063C59.9314 62.0284 60.3433 61.6847 60.7895 61.3068C60.9268 61.1693 61.0298 60.9975 61.0298 60.7914C61.0298 60.5852 60.9954 60.379 60.8581 60.2416C59.4851 58.6954 58.0778 57.2178 56.6362 55.7403C57.1167 55.328 57.5973 54.9157 58.0778 54.5033C59.4851 56.0152 60.8925 57.5615 62.2311 59.1077C62.5057 59.4169 62.952 59.4513 63.2952 59.2108C63.7414 58.8672 64.1533 58.4892 64.5996 58.1456C64.7712 58.0081 64.8742 57.8363 64.8742 57.6302C64.9085 57.424 64.8398 57.2178 64.7025 57.0804C62.849 54.95 60.9611 52.854 59.0389 50.8267Z" fill="#A2600B"/>
<path d="M116.053 51.9263C114.13 50.5518 112.105 49.2118 110.08 47.9061C109.737 47.6999 109.325 47.7686 109.085 48.0779C108.81 48.4558 108.501 48.8338 108.227 49.2118C108.089 49.3836 108.055 49.5897 108.089 49.7959C108.124 50.0021 108.261 50.1739 108.433 50.3113C108.947 50.6206 109.462 50.9642 109.977 51.3078C108.741 52.9571 107.506 54.6408 106.373 56.2901C106.27 56.4619 106.201 56.6681 106.27 56.8742C106.304 57.0804 106.442 57.2522 106.613 57.3553C107.094 57.6645 107.574 57.9738 108.055 58.283C108.192 58.3861 108.33 58.4205 108.467 58.4205C108.707 58.4205 108.947 58.3174 109.085 58.1112C110.252 56.4619 111.522 54.7782 112.792 53.1633C113.307 53.5412 113.822 53.8848 114.336 54.2628C114.68 54.5033 115.126 54.4346 115.366 54.1254C115.675 53.7474 115.95 53.4038 116.259 53.0258C116.396 52.854 116.465 52.6478 116.43 52.4417C116.327 52.2355 116.19 52.0637 116.053 51.9263Z" fill="#A2600B"/>
<path d="M89.3821 48.662C89.3478 46.6347 89.3478 44.6074 89.3135 42.5458C89.3135 42.1335 88.9702 41.7899 88.5583 41.7899C86.3616 41.7899 84.1648 41.8242 82.0023 41.9273C81.7963 41.9273 81.6247 42.0304 81.4874 42.1678C81.3501 42.3053 81.2815 42.5114 81.2815 42.7176L81.3158 43.5766C81.3844 44.9511 81.3844 46.1193 81.3158 47.0127C81.2815 47.6656 81.1442 48.2841 80.9382 48.8338C80.8352 48.8338 80.7323 48.8338 80.6636 48.8338C80.5606 48.8338 80.4577 48.8682 80.389 48.9025C80.4577 48.2497 80.389 47.5625 80.2174 46.8409C79.8055 45.329 79.016 44.2295 77.8146 43.5766C76.6476 42.9581 75.2403 42.8207 73.73 43.1987C72.9062 43.4392 72.1854 43.7484 71.6362 44.1608C71.1899 44.5044 70.778 44.9167 70.5034 45.4321C70.2288 45.9475 70.0229 46.4629 69.9542 47.0127C69.8513 47.7686 69.9542 48.5589 70.2632 49.4867C70.7437 50.8955 71.5675 51.9263 72.7346 52.5104C73.8673 53.0946 75.1716 53.1977 76.5789 52.8197C78.0206 52.4761 79.0847 51.7201 79.7712 50.655C79.8741 50.5175 79.9428 50.3801 80.0114 50.2426L80.1831 52.751C80.2174 53.1633 80.5606 53.4725 80.9382 53.4725C80.9725 53.4725 80.9725 53.4725 80.9725 53.4725C81.4531 53.4382 81.9336 53.4038 82.4142 53.4038C82.6201 53.4038 82.7918 53.3007 82.9291 53.1633C83.0664 52.9915 83.135 52.8197 83.135 52.6135L83.0664 51.5827C84.405 51.5483 85.7437 51.514 87.0824 51.4796V52.5104C87.0824 52.9228 87.4256 53.2664 87.8375 53.2664C88.3181 53.2664 88.7986 53.2664 89.3135 53.2664C89.5194 53.2664 89.6911 53.1977 89.8627 53.0602C90 52.9228 90.0686 52.7166 90.0686 52.5104V49.3492C90.1373 49.0056 89.794 48.662 89.3821 48.662ZM73.524 48.5246C73.2838 47.8374 73.2837 47.2876 73.4897 46.9096C73.6956 46.5317 74.0389 46.2911 74.5881 46.1537C74.7941 46.085 74.9657 46.085 75.1716 46.085C75.4805 46.085 75.7551 46.1537 76.0297 46.2911C76.4416 46.5317 76.7506 47.0127 76.9222 47.6999C77.1281 48.4215 77.1281 48.9713 76.8879 49.3836C76.6819 49.7616 76.3387 50.0365 75.8238 50.1395C75.6522 50.1739 75.4805 50.2083 75.3089 50.2083C75 50.2083 74.7254 50.1395 74.4851 49.9677C74.0732 49.6928 73.73 49.2118 73.524 48.5246ZM86.0183 48.6964C85.5034 48.6964 84.9542 48.7307 84.405 48.7307C84.6453 47.6999 84.714 46.3598 84.714 44.7792C85.1259 44.7792 85.5378 44.7449 85.984 44.7449C85.984 46.0506 86.0183 47.3907 86.0183 48.6964Z" fill="#A2600B"/>
<path d="M100.092 44.0577C100.023 43.8171 99.7826 43.611 99.5424 43.5423C98.8902 43.4048 98.238 43.2674 97.6202 43.1299C97.3456 43.0612 97.0366 43.1986 96.865 43.4048C96.2472 44.2295 95.6293 45.0541 95.0115 45.9131C94.7712 44.951 94.4966 43.9546 94.1877 42.8894C94.119 42.6145 93.8787 42.4083 93.5698 42.3396C92.8833 42.2022 92.1625 42.0991 91.476 41.996C91.2357 41.9617 90.9611 42.0647 90.7895 42.2709C90.6179 42.4771 90.5835 42.752 90.6522 43.0268C91.373 45.0541 92.0595 47.0471 92.7117 49.04C92.5744 49.2461 92.5057 49.2805 92.5057 49.2805C92.5057 49.2805 92.4714 49.3149 92.3684 49.3149C92.2655 49.3149 92.1625 49.3149 92.0938 49.2805L91.8879 49.2118C91.7506 49.1774 91.579 49.1431 91.4073 49.1087C91.2014 49.0743 90.9954 49.1087 90.8238 49.2118C90.6522 49.3149 90.5149 49.521 90.4806 49.6928C90.4119 50.1052 90.3089 50.5175 90.2403 50.9298C90.1716 51.2734 90.3776 51.6514 90.7208 51.7888C91.0641 51.9263 91.5103 52.0294 92.0595 52.1325C92.2311 52.1668 92.4028 52.2012 92.5744 52.2012C93.0893 52.2012 93.5698 52.0294 94.016 51.7545C94.4966 51.4109 94.9428 50.9298 95.492 50.277C96.9337 48.4558 98.4096 46.6347 99.9543 44.848C100.126 44.6074 100.16 44.3325 100.092 44.0577Z" fill="#A2600B"/>
<path d="M106.648 49.1774L106.888 49.2805C107.265 49.4523 107.712 49.3148 107.883 48.9369L108.432 47.8373C108.535 47.6655 108.535 47.425 108.467 47.2188C108.398 47.0127 108.227 46.8752 108.021 46.7721L107.78 46.6691C106.957 46.3255 106.339 46.1537 105.789 46.1537C105.686 46.1537 105.618 46.1537 105.549 46.1537C104.897 46.2224 104.176 46.6347 103.318 47.3906C103.284 47.425 103.249 47.4594 103.215 47.4937C103.455 46.9783 103.696 46.4629 103.936 45.9475C104.039 45.7757 104.039 45.5352 103.936 45.329C103.867 45.1228 103.696 44.9854 103.524 44.8823C102.94 44.6418 102.357 44.4356 101.773 44.1951C101.396 44.0576 100.984 44.2294 100.812 44.6074C99.6796 47.1158 98.5812 49.6585 97.5172 52.2355C97.4485 52.4073 97.4485 52.6478 97.5172 52.8197C97.6201 52.9915 97.7574 53.1633 97.9291 53.232C98.4783 53.4381 99.0275 53.6443 99.5767 53.8505C99.9542 53.9879 100.4 53.8161 100.538 53.4381C100.812 52.8197 101.087 52.1668 101.362 51.5483V51.5827C101.362 51.617 101.362 51.6514 101.362 51.6857V51.7545V51.7888C101.396 52.5791 101.43 53.3694 101.465 54.1254C101.465 54.4346 101.67 54.6751 101.945 54.8126C102.563 55.0875 103.215 55.328 103.833 55.6029C103.936 55.6372 104.039 55.6716 104.142 55.6716C104.279 55.6716 104.451 55.6372 104.588 55.5342C104.794 55.3967 104.931 55.1218 104.897 54.8813C104.863 54.0566 104.794 53.1976 104.76 52.3386C104.725 51.617 104.657 51.0672 104.519 50.6206C104.485 50.4831 104.451 50.38 104.382 50.277C104.382 50.277 104.382 50.277 104.416 50.277C104.657 50.1051 104.931 49.899 105.172 49.6585C105.584 49.2461 105.858 49.04 105.961 48.9712C106.03 48.9369 106.064 48.9025 106.133 48.9025C106.201 49.04 106.339 49.04 106.648 49.1774Z" fill="#A2600B"/>
<path d="M53.1693 55.9121C54.8856 54.3659 56.6361 52.8197 58.4897 51.3422C60.4462 53.3694 62.2997 55.4655 64.0846 57.5615C63.6384 57.9051 63.1922 58.283 62.746 58.6266C61.2357 56.8742 59.691 55.1562 58.0778 53.5069C57.1853 54.2285 56.3272 54.9844 55.4691 55.7403C57.1167 57.3897 58.6956 59.0733 60.2402 60.7914C59.8283 61.1693 59.3821 61.513 58.9702 61.8909C57.1167 59.8293 55.1945 57.8707 53.1693 55.9121ZM65.5606 56.5994C64.1533 54.2285 62.7116 51.8576 61.2013 49.521C62.0595 49.04 62.9176 48.5933 63.7757 48.1122C64.7711 47.5968 65.4576 47.2876 65.8009 47.2189C66.3501 47.0814 66.865 47.1158 67.3798 47.3219C67.8947 47.5281 68.3409 47.9061 68.6842 48.4902C68.9244 48.9369 69.0617 49.3492 69.0274 49.7272C69.0274 50.1052 68.9245 50.4831 68.7528 50.7924C68.5812 51.1016 68.3753 51.3422 68.1007 51.5483C67.7574 51.7888 67.2425 52.1325 66.5217 52.4761C66.1785 52.6479 65.8352 52.854 65.492 53.0258C66.0412 53.9192 66.556 54.8126 67.0709 55.7403C66.556 56.0496 66.0755 56.3245 65.5606 56.5994ZM63.5354 49.8646C63.9473 50.5519 64.3592 51.2047 64.7711 51.8919C65.0457 51.7201 65.3547 51.5827 65.6293 51.4452C66.2471 51.1016 66.659 50.8611 66.8306 50.6893C67.0023 50.5175 67.1052 50.3113 67.1396 50.0708C67.1396 49.8303 67.1052 49.6241 66.9679 49.4179C66.7963 49.1431 66.6247 48.9713 66.3158 48.9025C66.0412 48.7994 65.7666 48.8338 65.4576 48.9025C65.2517 48.9713 64.8398 49.1774 64.2563 49.4523C64.0503 49.5897 63.7757 49.7272 63.5354 49.8646ZM71.0183 49.3149C70.7437 48.5246 70.675 47.803 70.7437 47.1845C70.8123 46.7378 70.9496 46.2911 71.2242 45.8788C71.4645 45.4664 71.7734 45.1228 72.151 44.848C72.6315 44.5043 73.2494 44.2295 74.0045 44.0233C75.3089 43.6797 76.5103 43.7828 77.5057 44.2982C78.5011 44.848 79.1876 45.7757 79.5309 47.0814C79.8741 48.3871 79.7368 49.4523 79.1876 50.38C78.6041 51.2734 77.7116 51.8919 76.4759 52.2012C75.2059 52.5104 74.1075 52.4417 73.1464 51.9606C72.1167 51.4452 71.4302 50.5862 71.0183 49.3149ZM72.8032 48.7651C73.0778 49.6585 73.524 50.277 74.1075 50.6206C74.691 50.9642 75.3432 51.0329 76.0297 50.8611C76.7162 50.6893 77.2311 50.3113 77.54 49.7272C77.8489 49.1431 77.8833 48.4215 77.643 47.4937C77.3684 46.6004 76.9565 45.9475 76.4073 45.6383C75.8238 45.2946 75.1373 45.2259 74.4164 45.3977C73.6613 45.6039 73.1464 45.9819 72.8375 46.566C72.4942 47.1158 72.4942 47.8373 72.8032 48.7651ZM82.0366 42.7176C84.199 42.6145 86.3958 42.5801 88.5583 42.5801C88.5583 44.848 88.5583 47.1501 88.5926 49.4523C88.8672 49.4523 89.1075 49.4523 89.3821 49.4523C89.3821 50.5175 89.3821 51.5827 89.3821 52.6479C88.9016 52.6479 88.421 52.6479 87.9061 52.6479C87.9061 52.0637 87.9061 51.4452 87.9061 50.8611C86.0526 50.8611 84.199 50.8955 82.3455 50.9985C82.3798 51.5827 82.4141 52.2012 82.4485 52.7853C81.9679 52.8197 81.453 52.8197 80.9725 52.854C80.9038 51.7888 80.8352 50.758 80.7666 49.6928C81.0068 49.6585 81.2814 49.6585 81.5217 49.6585C81.8306 48.9369 82.0366 48.1122 82.1052 47.1845C82.1739 46.2567 82.1739 45.0885 82.1052 43.6453C82.0709 43.3017 82.0709 43.0268 82.0366 42.7176ZM83.9244 44.0233C84.0274 46.5316 83.8215 48.3528 83.4096 49.521C84.5423 49.4867 85.675 49.4523 86.8077 49.4523C86.7734 47.6312 86.7391 45.8101 86.7048 43.9889C85.778 43.9889 84.8512 43.9889 83.9244 44.0233ZM91.373 42.7519C92.0595 42.855 92.7803 42.9925 93.4668 43.0956C93.8787 44.6074 94.2906 46.1537 94.6681 47.6655C95.5606 46.3942 96.4874 45.1228 97.4485 43.8515C98.1006 43.9889 98.7185 44.1264 99.3707 44.2638C97.826 46.0506 96.3157 47.8717 94.8741 49.7272C94.3935 50.3457 93.9816 50.758 93.5697 51.0673C93.1578 51.3422 92.7116 51.4452 92.1967 51.3422C91.6475 51.2391 91.27 51.136 90.9954 51.0329C91.064 50.6206 91.167 50.2082 91.2357 49.8303C91.4759 49.899 91.7162 49.9334 91.9222 49.9677C92.3341 50.0364 92.643 50.0364 92.8489 49.9334C93.0549 49.8303 93.2951 49.5554 93.5697 49.1431C92.8489 47.0127 92.1281 44.8823 91.373 42.7519ZM101.533 45.0198C102.117 45.2259 102.7 45.4664 103.284 45.707C102.769 46.7722 102.288 47.8373 101.808 48.9025C102.22 49.0056 102.494 49.04 102.7 48.9369C102.906 48.8338 103.284 48.5589 103.867 48.0092C104.588 47.3563 105.206 46.9783 105.652 46.944C106.098 46.9096 106.716 47.047 107.506 47.3907C107.54 47.3907 107.643 47.425 107.746 47.4937C107.574 47.8717 107.368 48.2153 107.197 48.5933C107.128 48.5589 107.025 48.5246 106.956 48.4902C106.613 48.3528 106.339 48.284 106.133 48.284C105.927 48.284 105.755 48.3528 105.583 48.4558C105.412 48.5589 105.103 48.8338 104.691 49.2461C104.451 49.4523 104.245 49.6241 104.039 49.7616C103.833 49.899 103.558 49.9677 103.181 50.0021C103.524 50.2426 103.73 50.5862 103.833 50.9642C103.936 51.3422 104.005 51.8919 104.039 52.5448C104.073 53.3694 104.142 54.2285 104.176 55.0531C103.558 54.7782 102.906 54.5377 102.288 54.2628C102.254 53.4725 102.22 52.7166 102.185 51.9263C102.185 51.8919 102.185 51.8232 102.151 51.7201C102.151 51.6858 102.117 51.5483 102.117 51.2734C102.082 50.8267 101.979 50.5175 101.911 50.38C101.808 50.2426 101.636 50.1052 101.362 50.0021C100.881 51.1016 100.366 52.2012 99.9199 53.3351C99.3707 53.1289 98.8215 52.9228 98.2723 52.7166C99.302 50.0708 100.4 47.5281 101.533 45.0198ZM106.956 56.7368C108.261 54.847 109.634 52.9915 111.041 51.136C110.32 50.6549 109.565 50.1739 108.81 49.6928C109.085 49.3149 109.394 48.9369 109.668 48.5589C111.693 49.8303 113.684 51.1703 115.606 52.5448C115.297 52.9228 115.023 53.2664 114.714 53.6443C113.993 53.1289 113.272 52.6479 112.551 52.1325C111.11 53.9536 109.737 55.8091 108.398 57.6645C107.918 57.3553 107.437 57.0461 106.956 56.7368Z" fill="white"/>
<path fill-rule="evenodd" clip-rule="evenodd" d="M60.9954 131.197L62.6087 128.207L61.6133 128.07L62.6087 126.455L63.5012 126.936L65.3547 124.187L64.4966 123.706L66.3501 120.82L61.9909 121.198L61.6133 121.954L60.9954 121.576L59.1419 124.428L59.7597 124.806C59.7597 124.806 58.0435 127.417 57.9062 127.658C55.8124 131.472 60.9954 131.197 60.9954 131.197Z" fill="#A2600B"/>
<path fill-rule="evenodd" clip-rule="evenodd" d="M63.9474 124.462L63.0893 125.699L62.3341 125.218C62.3341 125.218 60.2403 128.413 60.2746 128.757C60.2746 128.895 60.7208 128.963 60.9954 128.963L60.3776 130.2C60 130.2 59.5538 130.269 59.1762 130.028C58.9359 129.891 58.4554 129.41 58.627 128.826C58.6957 128.585 61.0984 124.462 61.0984 124.462L60.5835 124.221L61.3044 122.984L61.8192 123.362L62.5744 122.125L64.4279 121.988L63.0549 123.981L63.9474 124.462Z" fill="white"/>
<path fill-rule="evenodd" clip-rule="evenodd" d="M78.6041 130.132C77.9863 130.887 77.643 131.987 77.643 133.258C77.54 134.392 77.643 135.492 78.0892 136.385C78.5011 137.244 79.222 137.897 80.4234 137.966C80.9726 138 81.3844 137.725 81.8993 137.485V137.966H84.0275L84.8513 126.902L81.6247 126.661C81.6247 126.661 81.5217 128.276 81.5217 129.135C80.3547 128.757 79.222 129.272 78.6041 130.132ZM80.492 134.22C80.5606 134.495 80.7323 134.598 80.8696 134.598C81.0069 134.598 81.1098 134.461 81.2471 134.22C81.3844 134.049 81.3844 133.087 81.3844 132.674C81.3844 132.468 81.1098 132.228 80.9725 132.228C80.8352 132.228 80.6636 132.331 80.595 132.606C80.5607 132.709 80.4233 133.98 80.492 134.22Z" fill="#A2600B"/>
<path fill-rule="evenodd" clip-rule="evenodd" d="M80.0114 134.701C80.1487 135.183 80.492 135.629 80.8695 135.629C81.6247 135.629 81.9679 134.461 82.0023 133.602C82.0366 132.846 82.0709 132.365 81.9336 131.987C81.7963 131.609 81.4874 131.403 81.1441 131.368C80.7666 131.3 80.4233 131.575 80.2174 131.85C79.9084 132.193 79.8741 134.324 80.0114 134.701ZM83.135 136.935H81.8993L82.0023 135.938C81.762 136.316 80.6293 136.935 80.389 136.935C79.7711 136.935 79.2219 136.626 78.8444 135.87C78.4668 135.251 78.3981 134.324 78.5011 133.19C78.6041 132.056 78.8787 131.197 79.2563 130.716C79.7368 130.097 80.2517 129.822 80.8695 129.96C81.4874 129.96 81.865 130.338 82.2425 130.956L82.4828 127.589L83.8558 127.692L83.135 136.935Z" fill="white"/>
<path fill-rule="evenodd" clip-rule="evenodd" d="M92.9176 134.427H92.7803C92.7803 133.052 92.7803 131.575 92.0252 130.338C91.5103 129.479 90.4119 128.86 89.4165 128.86C86.8078 128.826 85.9497 131.609 85.9497 133.602C85.8467 135.732 86.7048 138.309 89.4508 138.309C90.206 138.309 90.9268 138.069 91.5446 137.553C92.4371 136.66 92.6774 135.526 92.9176 134.427ZM88.9359 134.427H90.0343C90.0687 135.526 88.833 135.423 88.9359 134.427Z" fill="#A2600B"/>
<path fill-rule="evenodd" clip-rule="evenodd" d="M90.4119 132.949C90.4119 132.468 90.2746 131.231 89.4165 131.197C88.3524 131.197 88.3181 132.468 88.3181 132.949H90.4119ZM90.3089 134.805L91.6819 135.183C91.5446 135.939 91.27 136.385 90.8238 136.798C90.4119 137.141 89.9657 137.313 89.4508 137.313C88.4554 137.313 87.7689 137.004 87.3227 136.076C87.0137 135.457 86.8421 134.598 86.8764 133.602C86.9451 132.365 87.151 131.472 87.5286 130.853C88.0092 130.097 88.627 129.857 89.3822 129.857C90.1373 129.857 90.7208 130.235 91.1327 130.853C91.6133 131.609 91.7849 132.605 91.7849 134.083H88.2838C88.2838 134.702 88.4554 135.938 89.4165 135.938C90.0343 135.904 90.3089 135.183 90.3089 134.805Z" fill="white"/>
<path fill-rule="evenodd" clip-rule="evenodd" d="M100.229 126.97L99.9543 126.455L97.9634 127.451L101.739 135.389L104.314 134.255L102.117 129.444C102.117 129.444 101.876 128.963 102.185 128.791C102.426 128.654 102.632 129.238 102.632 129.238L104.828 134.014L107.128 132.983L105.034 128.173C105.034 128.173 104.725 127.692 105.034 127.554C105.309 127.451 105.446 127.898 105.446 127.898L107.677 132.64C108.536 132.262 109.394 131.884 110.286 131.506L107.918 126.558C107.643 125.939 107.403 125.458 107.025 125.08C106.648 124.702 106.27 124.359 105.652 124.221C104.657 123.981 103.284 124.462 102.906 125.596C101.774 125.252 100.709 125.802 100.195 126.936L100.229 126.97Z" fill="#A2600B"/>
<path fill-rule="evenodd" clip-rule="evenodd" d="M99.2334 127.898L100.332 127.28L100.709 128.139C100.812 127.28 101.19 126.73 101.705 126.524C102.048 126.386 102.288 126.317 102.563 126.386C102.941 126.455 103.181 126.627 103.558 126.867C103.558 126.386 103.661 126.111 103.799 125.733C103.902 125.458 104.176 125.321 104.416 125.218C104.931 125.012 105.309 124.977 105.584 125.012C105.961 125.08 106.098 125.218 106.407 125.562C106.579 125.768 109.016 130.887 109.016 130.887L107.815 131.472L106.03 127.795C105.789 127.176 105.378 126.214 104.657 126.558C104.108 126.833 104.176 127.451 104.279 127.692C104.279 127.932 106.27 132.228 106.27 132.228L104.828 132.88C104.828 132.88 102.838 128.482 102.735 128.345C102.563 128.139 102.288 127.829 101.945 127.967C101.224 128.242 101.396 128.826 101.465 129.101C101.568 129.444 103.421 133.533 103.421 133.533L102.22 134.083L99.2334 127.898Z" fill="white"/>
<path fill-rule="evenodd" clip-rule="evenodd" d="M118.043 118.243C117.769 117.899 118.421 117.246 118.902 117.109L117.391 114.875C117.391 114.875 117.014 114.841 116.773 114.875C115.778 114.978 114.92 115.769 114.92 116.731L114.68 116.49L113.204 118.105L119.554 124.153L121.785 121.782C121.785 121.851 118.902 119.239 118.043 118.243Z" fill="#A2600B"/>
<path fill-rule="evenodd" clip-rule="evenodd" d="M120.446 121.851L119.588 122.847L114.611 118.14L115.469 117.246L116.087 117.865C115.95 117.349 115.847 117.006 115.847 116.868C115.847 116.628 115.984 116.387 116.087 116.25C116.327 116.009 116.567 115.872 116.945 115.872L117.803 117.246C117.563 117.246 117.288 117.384 117.185 117.487C117.082 117.624 116.979 118.311 117.323 118.724C117.529 119.033 120.446 121.851 120.446 121.851Z" fill="white"/>
<path fill-rule="evenodd" clip-rule="evenodd" d="M116.636 110.065C116.018 110.958 115.572 111.748 114.92 112.676L124.153 119.102L126.007 116.49L125.492 116.112L126.11 116.25L127.346 114.635L126.728 113.157L122.609 112.298L121.098 108.209L118.867 111.577L116.636 110.065Z" fill="#A2600B"/>
<path fill-rule="evenodd" clip-rule="evenodd" d="M123.879 117.865L116.156 112.436L116.911 111.302L121.03 114.154L119.897 111.542L120.858 110.168L121.888 113.02L126.487 113.982L125.732 115.253L122.506 114.497L122.883 115.494L124.634 116.731L123.879 117.865Z" fill="white"/>
<path fill-rule="evenodd" clip-rule="evenodd" d="M115.606 127.108C115.744 127.245 115.847 127.348 115.984 127.486L117.082 126.73L118.181 125.974C117.563 125.596 116.945 125.218 116.43 124.737C115.812 123.878 115.194 122.744 114.542 121.885C114.027 121.129 113.787 120.648 113.307 120.27C112.826 120.029 112.311 119.892 111.831 119.892C111.213 119.892 110.595 120.167 109.977 120.51C109.359 121.026 108.913 121.438 108.638 122.366C108.467 123.5 108.776 124.496 109.291 125.458L110.389 124.84C110.389 124.84 110.252 125.115 110.217 125.218C110.08 125.596 110.08 125.871 110.114 126.077C110.217 126.695 110.423 127.073 110.664 127.554C111.041 128.173 111.625 128.791 112.174 128.929C112.929 129.135 113.924 129.032 114.542 128.551C115.126 128.207 115.503 127.726 115.606 127.108ZM113.375 124.874C113.375 124.874 112.963 125.08 112.895 125.424C112.826 125.733 112.998 125.94 113.135 126.008C113.444 126.146 113.719 125.733 113.616 125.355C113.581 125.218 113.375 124.874 113.375 124.874Z" fill="#A2600B"/>
<path fill-rule="evenodd" clip-rule="evenodd" d="M113.238 123.981C113.135 124.118 112.517 125.046 112.414 125.184C112.277 125.493 112.277 125.939 112.483 126.214C112.792 126.627 113.375 126.592 113.616 126.489C113.89 126.386 114.165 125.699 114.062 125.287C113.993 125.115 113.238 123.981 113.238 123.981ZM110.87 123.775L109.634 124.153C109.359 123.534 109.359 123.019 109.497 122.538C109.634 122.022 109.84 121.61 110.423 121.232C110.938 120.888 111.453 120.785 111.831 120.785C112.071 120.785 112.483 120.854 112.689 121.026C112.963 121.232 113.307 121.644 113.821 122.4C114.096 122.847 114.954 124.153 114.954 124.153C115.366 124.702 116.19 125.768 116.465 126.008L115.366 126.764C115.229 126.627 114.851 126.146 114.851 126.146C114.748 126.627 114.748 126.902 114.611 127.142C114.371 127.52 114.302 127.692 113.993 127.898C112.654 128.757 111.831 127.658 111.522 127.211C111.316 126.936 110.801 125.905 111.076 125.252C111.247 124.909 111.384 124.531 111.728 124.187C112.208 123.672 112.483 123.294 112.586 123.053C112.586 123.053 112.105 122.366 111.968 122.297C111.728 122.194 111.419 122.229 111.041 122.503C110.904 122.606 110.767 122.778 110.732 123.053C110.732 123.122 110.732 123.397 110.87 123.775Z" fill="white"/>
<path fill-rule="evenodd" clip-rule="evenodd" d="M72.7345 136.351C72.7002 136.523 72.7002 136.694 72.6659 136.866L73.9359 137.279L75.2059 137.657C75.103 136.935 75 136.213 75.0686 135.526C75.3432 134.495 75.8238 133.293 76.0984 132.262C76.373 131.403 76.5789 130.887 76.5789 130.269C76.476 129.719 76.2357 129.272 75.9268 128.895C75.5492 128.413 74.9657 128.07 74.2792 127.829C73.4897 127.658 72.9062 127.589 71.9794 127.932C70.984 128.517 70.4005 129.376 69.9542 130.372L71.1213 130.853C71.1213 130.853 70.8123 130.922 70.7094 130.956C70.3318 131.094 70.1258 131.265 69.9885 131.437C69.5766 131.918 69.405 132.296 69.1648 132.777C68.9245 133.465 68.8215 134.289 69.0618 134.805C69.405 135.526 70.0572 136.213 70.8467 136.385C71.5675 136.66 72.1853 136.66 72.7345 136.351ZM73.0778 133.224C73.0778 133.224 72.6659 133.052 72.357 133.19C72.0824 133.327 72.0137 133.568 72.048 133.739C72.151 134.083 72.6316 134.014 72.8719 133.705C72.9405 133.602 73.0778 133.224 73.0778 133.224Z" fill="#A2600B"/>
<path fill-rule="evenodd" clip-rule="evenodd" d="M73.6613 132.571C73.4897 132.571 72.3913 132.64 72.2197 132.709C71.9107 132.777 71.5675 133.052 71.4645 133.396C71.3272 133.911 71.7391 134.324 71.9794 134.461C72.2197 134.598 72.9405 134.392 73.1808 134.049C73.2837 133.842 73.6613 132.571 73.6613 132.571ZM72.357 130.578L71.2929 129.857C71.6018 129.272 71.9794 128.963 72.4599 128.757C72.9062 128.551 73.3867 128.448 74.0732 128.654C74.6568 128.826 75.0687 129.204 75.2746 129.479C75.4462 129.685 75.6179 130.028 75.6179 130.303C75.6179 130.647 75.5149 131.197 75.2746 132.021C75.103 132.502 74.6224 133.98 74.6224 133.98C74.4508 134.633 74.1419 135.973 74.1075 136.316L72.8375 135.904C72.8718 135.732 73.0091 135.114 73.0091 135.114C72.5286 135.32 72.357 135.492 72.0824 135.561C71.6361 135.595 71.4302 135.664 71.1213 135.561C69.611 135.045 69.9542 133.739 70.0915 133.19C70.1945 132.846 70.675 131.815 71.3272 131.643C71.7048 131.54 72.048 131.403 72.5972 131.472C73.2837 131.54 73.73 131.506 74.0046 131.437C74.0046 131.437 74.2448 130.647 74.1762 130.475C74.1075 130.235 73.8673 129.994 73.4554 129.891C73.2838 129.857 73.0778 129.857 72.8375 129.994C72.7689 130.063 72.5972 130.235 72.357 130.578Z" fill="white"/>
<path fill-rule="evenodd" clip-rule="evenodd" d="M67.3112 129.238C67.5515 128.86 68.3753 129.272 68.6499 129.719L70.2975 127.589C70.2975 127.589 70.1945 127.211 70.0916 127.005C69.6797 126.077 68.6842 125.527 67.7231 125.836L67.8604 125.527L65.8696 124.634L62.0938 132.571L65.0458 133.946C65.0458 133.911 66.6247 130.338 67.3112 129.238Z" fill="#A2600B"/>
<path fill-rule="evenodd" clip-rule="evenodd" d="M64.6339 132.64L63.3982 132.124L66.3158 125.905L67.4142 126.455L67.0366 127.245C67.4828 126.97 67.7918 126.73 67.8947 126.695C68.135 126.592 68.4096 126.661 68.5469 126.73C68.8558 126.902 69.0618 127.073 69.1648 127.451L68.135 128.723C68.0664 128.482 67.8604 128.276 67.6888 128.207C67.5172 128.139 66.8307 128.276 66.5561 128.723C66.4188 128.998 64.6339 132.64 64.6339 132.64Z" fill="white"/>
</svg>
