<svg width="475" height="338" viewBox="0 0 475 338" fill="none" xmlns="http://www.w3.org/2000/svg">
<path d="M369.17 169.049C369.565 262.755 296.146 337.6 204.348 337.998C113.142 338.494 39.0315 264.343 38.6363 170.637C38.1422 76.8324 111.66 0.398612 202.668 0.00155406C294.565 -0.395504 368.676 75.3434 369.17 169.049Z" fill="#A2600B"/>
<path d="M362.253 169.049C362.649 258.487 292.589 330.652 204.249 331.049C116.601 331.446 45.8502 259.976 45.4549 170.538C45.0597 80.4059 115.119 7.44637 202.767 6.95005C291.107 6.55299 361.858 78.9169 362.253 169.049Z" fill="white"/>
<path d="M358.301 169.148C358.696 255.905 290.218 326.383 204.249 326.78C118.973 327.078 49.8028 257.295 49.4076 170.538C49.0123 82.9865 117.491 11.8138 202.767 11.4168C288.736 11.0197 357.906 81.4976 358.301 169.148Z" fill="#DC1C26"/>
<path d="M120.554 169.843C120.356 122.692 157.708 84.277 203.064 84.0785C249.21 83.88 286.957 121.998 287.155 169.148C287.352 215.406 250 253.92 203.854 254.119C158.498 254.218 120.751 216.1 120.554 169.843ZM110.376 169.843C110.573 221.659 153.064 264.641 203.953 264.343C255.534 264.145 297.629 220.766 297.332 168.95C297.135 116.24 254.645 73.3579 203.064 73.5564C152.174 73.8542 110.178 117.233 110.376 169.843Z" fill="#A2600B"/>
<path d="M288.339 169.446C288.537 216.498 250.395 255.012 203.458 255.211C157.312 255.41 119.565 217.292 119.367 170.24C119.17 122.296 156.521 83.0862 202.668 82.8876C249.604 82.5898 288.142 121.502 288.339 169.446Z" fill="white"/>
<path d="M378.952 247.27C372.826 247.27 368.182 248.461 364.822 249.454C365.118 249.851 365.514 250.148 365.909 250.545C365.909 250.645 366.008 250.645 366.008 250.645C373.32 258.09 379.446 264.939 389.13 272.483C397.134 277.545 411.363 278.637 423.518 278.637C429.348 278.637 434.684 278.34 438.636 278.042C438.834 278.042 439.031 278.042 439.229 278.042C439.723 278.042 440.217 277.942 440.711 277.942C412.747 252.729 392.49 247.27 378.952 247.27Z" fill="#54A75C"/>
<path d="M291.403 230.196C288.538 230.196 286.067 230.494 284.19 230.792C284.486 231.189 284.783 231.586 285.079 231.983C285.079 232.082 285.178 232.082 285.178 232.181C291.008 240.519 295.751 248.858 304.644 258.685C315.02 266.924 341.304 268.711 353.459 268.81C353.656 268.81 353.755 268.81 353.953 268.81C354.447 268.81 355.04 268.81 355.435 268.81C326.482 235.457 304.447 230.097 291.403 230.196Z" fill="#54A75C"/>
<path d="M330.336 240.818C330.83 240.917 331.324 241.016 331.818 241.115H331.917C337.352 242.009 343.182 242.803 349.803 242.803C354.052 242.803 358.696 242.406 363.834 241.512C376.285 239.229 397.826 218.483 406.72 209.351C406.917 209.152 407.016 209.053 407.214 208.854C407.609 208.457 407.905 208.06 408.301 207.762C355.237 208.854 336.561 230.494 330.336 240.818Z" fill="#54A75C"/>
<path d="M281.818 230.692C282.312 230.792 282.806 230.792 283.3 230.891C283.3 230.891 283.399 230.891 283.498 230.891C289.328 231.784 295.059 232.578 301.581 232.578C305.731 232.578 310.276 232.181 315.415 231.288C328.754 229.005 350.494 209.35 359.288 199.126C359.387 199.027 359.486 198.828 359.584 198.729C359.98 198.332 360.276 197.935 360.573 197.538C306.719 198.729 287.253 221.957 281.818 230.692Z" fill="#54A75C"/>
<path d="M366.699 249.751C354.545 249.751 341.304 247.568 327.272 243.101C306.62 235.755 284.684 232.082 262.352 232.082C222.035 232.082 192.885 244.193 190.415 245.285L188.241 241.612C190.909 240.421 219.565 228.013 261.759 228.013C285.079 228.013 308.103 231.884 330.237 239.527C343.28 243.796 355.731 245.88 367.193 245.88C389.427 245.88 401.087 237.74 402.272 236.847L405.83 239.031C404.249 240.321 391.897 249.751 366.699 249.751Z" fill="#A2600B"/>
<path d="M261.759 228.211C285.079 228.211 308.103 232.082 330.237 239.726C343.28 243.994 355.731 246.079 367.194 246.079C379.446 246.079 388.439 243.597 393.775 241.513C398.715 239.527 401.581 237.641 402.371 237.046L405.533 239.031C403.261 240.818 390.909 249.553 366.699 249.553C354.545 249.553 341.304 247.369 327.371 242.902C306.62 235.557 284.782 231.884 262.352 231.884C222.826 231.884 193.873 243.597 190.514 244.987L188.537 241.711C192.194 240.123 220.553 228.211 261.759 228.211ZM261.759 227.814C218.577 227.814 189.031 241.016 187.945 241.513L190.316 245.483C190.316 245.483 219.96 232.281 262.253 232.281C281.719 232.281 303.952 235.06 327.174 243.299C342.688 248.163 355.83 249.95 366.699 249.95C392.391 249.95 405.138 240.024 406.225 238.932L402.273 236.549C402.273 236.549 390.81 245.582 367.194 245.582C357.114 245.582 344.861 243.895 330.336 239.229C305.533 230.693 282.114 227.814 261.759 227.814Z" fill="#A2600B"/>
<path d="M463.34 216.796C418.28 216.994 402.668 234.068 398.419 242.207C398.913 242.307 399.407 242.307 399.901 242.406H400C407.707 243.597 415.118 244.689 424.703 244.689C426.976 244.689 429.446 244.59 432.016 244.49C445.257 243.696 466.106 227.218 473.715 218.582C473.814 218.483 473.913 218.384 474.012 218.285C474.407 217.887 474.703 217.49 475 217.093C470.948 216.796 466.996 216.796 463.34 216.796Z" fill="#54A75C"/>
<path d="M235.474 163.689V160.512C238.636 162.101 240.711 163.292 244.565 163.292C246.146 163.292 247.134 162.994 248.024 162.796C251.976 162.001 256.621 158.726 261.265 154.755C263.636 155.549 266.403 156.244 269.565 156.244C274.308 156.244 280.04 154.656 285.474 151.479C286.66 152.373 287.055 152.671 287.549 152.77C289.921 153.465 290.81 153.663 292.885 153.663C297.233 153.663 300.494 151.876 301.186 151.479C304.249 149.593 307.806 147.41 310.573 145.027C313.636 147.509 316.601 148.501 319.862 148.501C320.85 148.501 321.937 148.402 323.123 148.204C330.138 147.409 335.573 143.34 338.735 138.575C340.316 141.851 345.85 143.34 350.988 143.24C362.253 142.943 372.53 132.123 381.028 124.281C393.874 131.825 403.557 120.31 403.557 110.384C403.557 99.8617 397.036 94.0051 386.364 94.0051C382.312 94.0051 378.953 94.8985 370.356 99.7625L376.68 72.4647C376.68 72.4647 334.486 81.6963 325.296 86.8581C323.715 87.6522 321.443 89.2404 319.862 90.8287C320.356 89.3397 321.838 83.7809 322.826 80.0088C322.826 79.8103 322.925 79.6118 323.024 79.4132C323.518 77.6265 323.814 76.4353 323.814 76.4353L294.17 86.9574C294.17 86.9574 294.17 87.7515 294.17 88.5456C290.316 89.3397 285.474 90.4316 281.719 91.8213C275.296 94.2037 270.751 99.0676 266.107 103.832C265.514 102.84 264.822 101.251 263.735 99.8617C261.759 97.0823 257.411 94.2037 250.395 95.0971C247.233 95.4941 242.589 98.2735 237.945 101.549C236.166 100.358 234.091 99.6632 231.818 99.6632C231.028 99.6632 230.138 99.7625 229.348 99.8617C225.494 100.358 220.751 102.443 216.897 105.619C216.897 105.619 215.316 104.924 215.02 104.825C208.992 102.74 201.285 105.123 195.751 108.994C195.751 108.994 193.379 110.582 191.798 112.171C191.107 111.376 191.107 111.277 190.217 110.582C188.636 109.391 185.375 108.895 181.522 108.895C175.099 108.895 166.502 111.178 158.202 118.722C157.411 119.516 156.621 120.31 155.83 121.104C156.818 116.24 157.213 114.255 157.213 114.255C123.617 123.189 124.506 122.792 124.506 122.792L123.715 126.762C122.134 125.174 119.763 123.586 115.909 122.792C116.7 121.204 117.391 119.516 117.391 117.233C117.688 109.193 113.241 101.946 98.8142 101.649C97.0356 101.649 79.249 103.237 70.4545 116.637C68.3794 119.814 66.6008 124.38 64.4269 128.549C64.1304 129.046 63.6364 129.244 63.4387 129.443L66.2055 119.218C59.9802 118.126 57.3122 118.027 53.1621 118.126C34.3873 118.226 22.332 123.884 11.7589 135.398C3.65613 143.836 0 153.564 0 163.193C0 167.957 0.790514 171.928 3.16206 175.998C6.42292 181.259 11.2648 184.336 16.4032 184.336C17.4901 184.336 18.5771 184.237 19.664 183.939C26.6798 181.457 31.3241 176.693 31.3241 170.34C35.0791 174.807 47.0356 175.501 50.0988 174.211C49.3083 175.799 47.8261 175.799 47.8261 175.799L40.8103 177.387L33.1028 210.145C34.0909 209.648 52.5692 200.516 52.5692 200.516C55.6324 198.928 60.3755 196.446 68.9723 196.446C72.9249 196.446 75.9881 195.652 78.3597 195.652C69.4664 200.218 68.3794 219.674 80.83 224.737C68.3794 243.2 62.9447 249.255 60.6719 251.637C53.6561 249.056 41.8972 252.134 42.8854 266.527C43.3794 273.476 48.7154 283.005 61.6601 281.119C67.0949 280.325 72.6285 277.049 78.0632 271.49C79.4466 270.398 96.3439 246.773 101.383 239.428C100.692 245.681 91.6996 257.99 88.3399 262.358C89.4269 262.259 103.854 261.365 110.079 260.968C113.933 260.67 120.059 259.777 126.482 256.104C129.545 254.317 144.466 254.417 144.466 254.417C144.466 254.417 144.466 253.623 144.466 252.828C150.395 256.104 159.289 252.63 166.403 246.376C172.53 251.439 180.237 248.362 185.079 244.292C185.079 245.086 185.079 245.384 185.079 245.384C186.166 245.185 217.885 238.832 217.885 238.832C217.885 238.832 218.676 234.067 218.676 233.273C219.17 233.77 219.466 234.067 219.466 234.067C222.036 236.648 225.692 238.237 229.644 238.237C230.435 238.237 231.225 238.137 232.016 238.038C232.51 237.84 232.905 237.74 233.202 237.641C234.387 236.946 237.451 236.45 248.419 226.821C248.419 226.821 250.692 229.303 251.581 229.998C254.249 232.181 257.016 232.678 260.079 232.678C261.067 232.678 262.154 232.678 263.34 232.38C265.81 231.784 272.727 227.516 276.581 224.34C279.743 226.722 282.905 227.516 285.968 227.516H286.759C291.403 226.722 296.245 224.141 300.988 219.277C301.779 219.873 301.581 219.674 302.372 220.17C305.336 221.957 308.696 222.851 311.858 222.851C312.945 222.851 313.933 222.751 314.921 222.553C318.083 221.759 324.308 218.483 329.743 212.924L330.534 213.718C331.028 214.215 332.115 215.108 332.312 215.207C335.672 217.49 340.81 217.391 340.81 217.391C341.996 217.391 343.281 217.093 344.565 216.895C349.704 215.902 357.115 209.648 366.403 201.608C367.984 200.02 370.356 198.431 371.838 196.744C374.209 198.531 376.976 199.424 380.237 199.424C381.324 199.424 382.411 199.325 383.597 199.126C388.241 198.332 393.775 193.468 394.466 186.321C394.565 185.527 394.565 184.733 394.565 183.939C394.565 177.09 391.206 172.226 385.771 169.546C383.103 168.255 380.731 167.461 378.063 167.461C376.482 167.461 374.901 167.659 373.221 167.957C368.577 168.751 361.956 171.928 361.956 171.928C362.352 170.637 366.996 146.417 366.996 146.417C340.316 150.487 324.012 156.343 316.107 160.314C313.241 161.803 309.289 164.582 309.289 164.582C309.486 163.987 311.561 155.053 311.561 155.053L279.249 166.27L278.656 169.347C275.494 166.171 271.937 164.88 267.984 164.979C264.13 164.979 259.783 167.163 256.719 168.851C256.917 168.156 257.51 166.369 257.51 166.369C228.854 172.921 227.174 173.318 227.075 173.318C225.593 179.075 225.099 180.266 225.099 180.266L224.209 180.068C223.221 178.876 219.862 175.104 214.032 175.204C209.881 175.7 207.411 176.891 201.482 180.663C201.482 180.564 201.976 177.685 201.976 177.685C177.866 183.443 171.047 185.031 171.047 185.031C171.047 185.031 170.553 187.016 169.862 190.689C168.281 189.101 167.095 185.726 160.375 185.428C152.866 185.626 146.739 191.682 146.739 191.682C147.53 187.711 148.123 182.549 149.407 175.601C156.917 182.946 173.024 179.67 180.632 172.722C182.905 172.226 207.312 168.354 207.312 168.354C207.411 168.95 207.411 168.652 207.411 169.248C206.522 169.248 235.474 163.689 235.474 163.689ZM187.648 139.965C187.648 140.759 187.648 141.553 186.858 143.141C186.858 141.553 184.486 139.171 184.486 139.171L186.067 138.376C186.858 139.171 187.648 139.965 187.648 139.965ZM175.099 138.376C176.68 139.171 178.261 139.171 179.743 139.171C178.953 139.171 174.308 144.035 174.308 144.035C173.518 144.829 173.518 144.829 172.727 145.623C173.617 142.446 174.308 139.965 175.099 138.376ZM314.229 114.553H313.439L314.229 113.759V114.553ZM369.269 101.946C369.17 101.946 369.269 101.946 369.269 101.946C369.17 101.946 369.17 101.946 369.269 101.946C369.17 101.946 369.17 101.946 369.269 101.946Z" fill="#231F20"/>
<path d="M191.107 203.891C193.38 204.288 198.222 205.479 198.222 205.479C195.85 207.862 192.787 211.435 188.834 215.108C189.625 211.832 190.415 207.862 191.107 203.891ZM246.641 193.27C249.012 194.064 251.285 195.652 251.285 195.652H252.075C249.704 198.035 246.641 201.31 243.478 203.693C244.368 200.516 245.06 196.446 246.641 193.27ZM138.735 215.307C140.316 216.101 141.107 216.895 141.897 216.895C141.897 216.895 143.479 217.689 144.269 217.689C142.688 223.248 141.996 228.906 141.206 232.082C139.822 232.579 139.625 232.678 138.044 232.876C138.044 226.523 138.834 220.865 138.735 215.307ZM98.024 203.593C98.8145 203.593 99.605 202.799 101.186 202.005C100.396 203.593 99.605 204.387 98.8145 205.976C98.8145 205.182 98.024 204.387 98.024 204.387V203.593ZM117.49 180.266C119.071 178.678 119.961 177.884 121.344 177.09C122.036 177.487 121.245 178.38 122.53 178.281C120.356 179.373 119.071 179.472 117.49 180.266ZM166.7 152.968C166.7 149.792 171.245 137.185 171.937 134.704C172.728 133.91 173.617 132.917 173.617 132.917C173.617 132.917 175.198 132.917 176.779 132.917C179.941 134.505 183.004 133.711 185.376 133.711L186.858 132.917C188.439 134.505 190.02 135.299 190.02 135.299C190.02 135.299 192.392 136.888 193.182 136.888C191.601 141.652 190.909 147.31 189.328 152.075L182.214 142.546C177.569 146.516 169.763 153.763 167.392 154.557H166.601C166.7 154.557 166.7 153.763 166.7 152.968ZM340.811 101.847C341.601 101.053 343.182 100.259 344.664 100.259C344.664 101.053 343.874 101.847 343.874 101.847C343.083 102.641 341.601 102.641 339.921 102.641L340.811 101.847ZM287.55 115.347C287.451 122.296 282.312 127.656 282.312 127.656C281.522 128.45 280.534 129.741 279.743 129.741C281.324 122.196 281.226 118.821 287.55 115.347ZM327.372 89.5384C321.146 93.509 316.601 99.5641 316.7 105.917C316.7 109.094 317.886 114.057 322.53 116.34C322.53 117.134 319.862 121.899 319.862 121.899C318.281 120.31 316.305 118.127 313.538 117.928C312.056 117.829 309.684 118.821 308.103 119.616C309.585 110.781 317.293 82.8877 317.293 82.8877C304.645 87.1561 298.518 89.1413 298.518 89.1413C298.32 89.6377 298.32 89.6377 297.826 90.9281C293.874 92.5163 287.55 93.7075 283.004 95.7921C269.467 102.046 262.747 115.049 260.475 122.991C261.265 119.02 262.747 112.568 262.747 110.98C262.747 107.009 261.957 104.627 260.376 102.145C252.471 95.395 243.182 102.244 237.648 106.215C237.648 106.215 232.905 103.038 229.052 103.038C225.099 103.832 221.245 106.215 215.811 110.285C215.811 109.491 211.957 107.009 211.957 107.009C204.743 105.321 193.874 115.149 191.601 116.737C190.811 115.943 190.02 115.149 188.439 113.56C185.277 111.972 172.728 110.384 161.067 120.906C154.052 128.152 148.617 137.682 146.344 145.722C146.344 146.516 145.554 147.31 143.973 148.899C145.652 141.255 150.297 119.715 150.297 119.715C134.684 124.082 128.755 125.968 128.755 125.968C128.558 127.755 122.925 150.685 122.925 150.685C122.135 153.862 120.257 155.649 118.676 158.13C120.949 144.035 122.53 137.086 122.53 135.399C122.53 133.81 122.036 130.237 120.455 128.649C118.874 127.06 113.439 123.884 105.633 129.741C104.743 130.435 99.3085 134.009 95.4548 137.185C97.0358 132.421 98.7157 127.557 99.5062 125.075C106.917 129.244 112.648 121.899 112.648 116.34C112.648 109.987 108.696 107.605 105.534 106.016C101.581 105.222 95.2572 105.321 95.2572 105.321C87.4508 106.91 78.9528 111.774 74.3085 118.127C69.6643 124.48 65.8105 134.108 62.7473 146.913C58.2018 153.167 52.8659 150.09 52.8659 150.09C53.6564 148.502 60.8698 121.7 60.8698 121.7C54.0516 120.906 50.0003 121.105 41.7987 122.395C30.8303 124.082 21.937 129.443 14.9212 137.483C7.90539 145.524 4.84215 153.465 4.05164 162.299C4.05164 166.27 4.54571 170.141 7.01606 173.318C10.1781 178.082 14.3283 179.869 19.0714 178.182C24.5062 176.593 26.8777 173.318 27.6682 168.553C27.6682 165.377 26.0872 162.994 23.7157 160.612C22.9252 159.818 22.9252 158.229 22.9252 158.229C22.9252 154.259 27.6682 146.218 32.2137 143.836C30.6327 148.7 29.4469 153.961 29.4469 155.649C29.4469 156.443 30.6327 165.377 36.9568 167.759C40.9093 170.141 46.6406 169.347 52.9647 168.851C54.5457 168.752 56.3244 167.957 58.2018 167.66C58.2018 168.454 57.3125 171.432 57.3125 171.432C52.5694 181.259 44.9607 180.465 44.9607 180.465C44.1702 183.343 40.3165 200.417 40.3165 200.417C49.2097 196.248 48.7157 196.446 51.2848 195.156C54.7433 193.369 59.5852 190.59 69.269 190.689C83.3995 190.888 89.6248 185.825 90.4153 185.031C91.2058 184.237 94.3678 163.292 94.3678 163.292C94.3678 163.292 89.9212 167.56 87.9449 169.049C89.5259 162.696 90.2176 157.038 91.7987 151.479C93.3797 152.274 98.7157 155.053 98.7157 155.053C97.1346 161.406 95.1583 172.226 95.0595 174.608C94.7631 186.421 104.546 184.932 106.028 184.932C91.2058 191.582 82.9054 195.553 81.1267 197.737C78.3599 201.211 77.767 203.296 77.767 207.266C77.767 208.06 78.1623 220.568 89.0319 220.071C78.9528 234.465 67.2927 252.134 62.6485 256.104C58.6959 253.722 52.3718 253.623 49.3086 257.693C47.4311 259.678 46.1465 265.634 49.4074 270.597C51.7789 274.568 57.3125 277.049 61.2651 276.255C65.9093 275.461 71.2453 272.88 75.6919 267.818C80.3362 262.457 98.6169 234.961 108.696 219.972C108.696 223.148 106.226 242.704 103.063 248.064C99.9014 253.523 96.8382 257.494 96.8382 257.494C110.178 255.807 109.585 255.906 109.585 255.906C113.538 255.112 119.763 254.218 124.407 251.042C129.052 248.659 136.166 248.56 136.166 248.56H140.119C140.909 244.59 140.909 241.413 140.909 240.619C141.7 242.207 142.095 245.185 143.676 246.773C145.257 248.362 151.482 253.623 167.49 239.726C167.49 240.52 170.06 243.299 170.85 243.398C181.127 244.788 187.056 237.244 192.49 232.38C192.49 233.174 191.305 238.237 191.305 238.237C198.32 236.648 213.735 233.075 213.735 233.075C214.427 229.898 216.7 221.064 218.182 213.123C219.763 213.123 219.763 213.123 221.245 213.123C220.257 217.887 219.862 220.27 219.763 221.858C218.874 231.586 229.447 233.671 233.498 232.281C237.55 230.891 243.973 224.141 250.198 218.582C250.395 221.66 251.68 223.546 253.36 224.935C258.399 229.104 264.427 227.814 277.471 217.292C279.842 219.674 282.312 222.354 286.166 221.56C290.811 220.766 295.554 217.49 300.988 211.932C312.056 224.538 326.186 212.726 330.633 202.998C330.633 212.329 339.328 212.825 343.182 211.733C347.925 210.443 354.842 204.487 364.229 196.446C367.293 194.064 370.455 190.788 372.036 189.994C372.826 189.994 372.826 189.994 373.617 189.994C378.854 197.34 390.316 193.965 390.811 184.336C390.811 178.777 388.439 174.013 384.486 172.424C381.324 170.836 378.261 170.042 374.309 170.935C366.502 172.524 360.277 177.388 354.052 182.152C354.842 181.358 360.771 151.082 360.771 151.082C354.546 151.877 325 159.123 318.775 163.193C310.969 167.263 307.115 172.722 307.115 179.075C307.115 179.869 308.795 188.704 314.229 190.391C313.439 191.979 311.858 193.568 311.166 195.156C311.166 192.774 309.684 192.079 308.696 191.483C303.459 188.207 300.494 192.674 299.012 193.468C301.285 185.527 306.127 160.314 306.127 160.314C300.494 162.299 283.597 168.752 283.597 168.752C279.348 187.314 278.261 191.285 278.261 191.285C277.471 193.667 275.89 196.049 273.617 199.325C278.261 179.373 278.261 177.785 278.261 176.99C278.36 169.645 271.739 167.957 269.368 167.759C263.044 167.064 253.953 175.501 250 179.571C250 178.777 251.186 171.829 251.186 171.829C236.166 175.601 229.842 177.388 229.842 177.388C229.052 180.564 226.581 188.505 225 195.652C224.21 195.652 222.925 196.744 221.838 196.546C222.629 190.987 223.32 188.505 223.32 188.505V187.711C223.32 186.917 223.32 183.74 220.158 180.564C211.957 176.097 201.285 186.024 195.158 191.086C195.158 190.292 196.641 182.251 196.641 182.251L174.704 187.115C173.913 190.292 170.85 203.097 167.787 212.726C166.996 215.108 166.206 217.49 163.933 219.079C167.787 203.097 168.577 199.921 168.577 199.126C168.577 195.156 166.996 191.185 163.834 189.597C159.388 187.215 154.447 190.49 140.415 201.707C141.107 192.873 144.961 173.715 145.751 170.538C146.542 169.744 148.123 168.95 148.913 168.156C151.285 170.538 154.249 174.31 160.573 174.31C170.751 175.899 184.98 163.59 188.834 159.222C188.044 160.016 187.056 166.468 187.056 166.468C188.34 166.468 207.905 162.597 207.905 162.597C208.894 158.13 211.957 140.064 214.625 138.377C213.143 148.005 210.079 163.59 210.079 163.59C217.589 161.803 231.917 159.818 231.917 159.818C231.917 155.847 233.399 150.189 234.19 145.424C234.19 146.218 234.19 147.013 234.19 147.013C234.19 149.395 235.178 152.373 237.352 154.954C241.502 160.016 251.186 159.619 261.265 148.899C270.356 155.152 280.04 150.388 285.475 146.318C292.787 150.586 298.123 148.104 299.704 147.211C303.656 145.623 306.818 142.248 310.672 138.972C313.834 142.149 317.886 144.035 323.419 143.241C331.226 141.652 335.475 136.788 339.328 130.336C340.119 134.307 342.984 136.59 345.257 137.384C355.534 141.553 370.652 126.763 376.087 121.402C377.174 120.608 380.929 116.34 380.929 116.34C382.51 118.722 387.352 120.707 390.415 120.707C394.368 119.913 397.925 118.325 399.803 109.292C399.012 103.733 396.641 101.351 394.269 99.7626C389.625 96.5862 384.98 96.3876 380.929 97.9759C376.977 99.5641 369.269 104.627 363.834 108.597C365.415 101.45 371.245 76.7333 371.245 76.7333C371.245 76.7333 330.534 87.156 327.372 89.5384Z" fill="#A2600B"/>
<path d="M58.7946 277.446C54.4468 277.446 50.8895 275.461 48.2215 271.391C45.8499 267.817 45.6523 262.556 47.6286 258.883C50.0989 254.317 55.4349 252.928 61.9566 255.608C65.7116 252.134 73.6167 240.619 81.3242 229.6C83.2017 226.821 85.178 224.042 87.0555 221.361C82.6088 221.163 78.8539 217.589 77.3717 212.13C75.7906 206.273 77.2729 198.63 84.091 194.659C86.6602 193.17 90.1187 191.284 102.273 186.222C98.8144 186.023 93.8736 184.038 93.8736 175.005C93.8736 172.523 95.9487 162.001 97.431 155.748C96.2452 155.152 93.5772 153.762 91.8974 152.968C91.1068 156.145 90.3163 159.321 89.6246 162.597C89.2294 164.086 88.9329 165.674 88.5377 167.262C90.6128 165.376 93.5772 162.795 93.676 162.696C93.9725 162.498 94.2689 162.398 94.5653 162.597C94.8618 162.795 95.0594 163.093 94.9606 163.391L91.2057 184.832C91.2057 184.931 91.1068 185.13 91.008 185.229L90.2175 186.023C90.1187 186.023 84.4863 191.681 68.8736 191.781C59.6839 191.781 49.7037 196.446 40.3163 201.409C40.0199 201.509 39.7234 201.509 39.5258 201.31C39.2294 201.112 39.1306 200.814 39.2294 200.516C39.2294 200.516 43.0831 183.839 43.8736 180.564C43.9725 180.266 44.2689 179.968 44.5653 179.968C44.5653 179.968 45.6523 179.869 48.3203 179.174C52.0752 178.181 56.9171 172.424 57.3124 168.751C54.4468 169.843 49.8025 170.24 46.4428 170.24C44.2689 170.24 40.4151 170.141 37.846 169.148C33.9922 167.659 31.3242 165.178 29.9408 161.803C28.261 157.832 28.3598 152.77 30.2373 146.814C27.4705 149.494 24.012 153.862 23.5179 158.626C23.4191 159.123 23.5179 159.817 24.1108 160.413C26.1859 162.498 28.261 165.078 28.261 168.95C28.261 173.715 25.0989 177.387 19.1701 179.373C14.3282 180.961 9.78273 178.976 6.22541 173.913C3.55743 170.141 3.26099 166.17 3.26099 162.795C4.0515 153.663 7.51 145.623 14.3282 137.483C22.7274 127.358 37.9448 120.806 53.1622 120.707C55.8302 120.707 58.597 120.906 61.1661 121.303C61.3638 121.303 61.5614 121.501 61.6602 121.7C61.759 121.898 61.8578 122.097 61.759 122.295C61.4626 123.387 54.2491 148.402 53.7551 150.09C53.7551 150.288 53.8539 150.487 54.7432 150.586C56.6207 150.983 58.6958 149.891 61.9566 146.913C65.4151 132.619 68.9725 123.685 73.6167 118.027C80.0396 110.185 85.4744 107.505 92.6879 105.42C99.6049 103.435 106.423 105.023 110.474 109.391C112.55 111.575 113.538 114.255 113.439 116.836C113.044 122.693 108.893 127.358 104.052 127.358C102.767 127.358 101.482 127.06 100.297 126.365C100 127.259 99.6049 128.45 99.1108 129.74C98.5179 131.428 97.8262 133.314 97.1345 135.299C101.68 131.726 108.795 126.564 111.66 125.77C115.613 124.777 119.17 125.77 121.443 128.351C123.221 130.336 124.012 133.115 123.716 135.895C123.518 137.185 122.53 143.34 119.961 155.648C120.85 154.457 121.739 152.77 122.233 150.685C122.431 149.792 127.372 129.343 128.36 125.968C128.36 125.77 128.459 125.571 129.15 125.273V125.174C129.249 125.174 129.249 125.174 129.348 125.174C131.225 124.479 136.364 122.99 150.593 119.119C150.889 119.02 151.186 119.119 151.285 119.318C151.482 119.516 151.581 119.814 151.482 120.012C151.482 120.211 148.419 134.604 146.048 144.431C148.32 137.384 153.162 127.656 160.573 120.608C168.676 112.865 177.174 111.674 181.522 111.674C184.684 111.674 187.55 112.27 188.933 113.262C190.218 114.255 190.909 115.049 191.502 115.744C191.601 115.843 191.601 115.843 191.7 115.943C194.664 113.461 203.953 106.215 210.573 106.215C213.142 106.215 215.02 107.307 216.107 109.292H216.206C221.344 105.52 225 102.74 229.052 102.542C234.684 102.145 236.957 104.13 237.945 105.321C243.676 100.854 248.518 98.6705 252.767 98.6705C256.522 98.6705 259.091 100.358 260.87 101.847C263.735 104.13 263.735 109.49 263.044 114.454C266.502 107.505 272.53 99.1668 282.807 95.1962C285.573 94.1043 289.032 93.0124 292.095 92.119C293.973 91.5235 295.85 90.9279 297.332 90.4315C297.727 89.2404 297.925 88.9426 297.925 88.8433C298.024 88.6448 298.221 88.5455 298.32 88.5455L317.194 82.2919C317.49 82.1926 317.787 82.2919 317.984 82.4904C318.182 82.6889 318.281 82.9867 318.182 83.2845L315.909 91.2257L314.921 95.1962C312.945 102.74 310.672 111.376 309.289 118.523C310.87 117.829 312.846 117.233 314.229 117.233H314.427C316.601 117.332 318.38 119.119 319.862 120.806C320.652 119.417 321.64 117.829 322.036 116.935C317.589 114.354 316.008 109.59 316.008 106.215C316.008 99.5639 320.949 92.2183 327.767 88.7441C334.585 85.2698 369.763 76.8323 371.245 76.4352C371.542 76.336 371.838 76.4352 371.937 76.6338C372.135 76.8323 372.233 77.1301 372.135 77.3286C372.036 77.5272 367.293 98.2734 365.415 107.108C370.949 103.137 376.285 99.6631 377.372 98.9683C379.842 97.3801 382.807 96.4867 385.87 96.4867C392.984 96.4867 400.395 101.251 400.395 109.49C400.395 116.141 396.344 121.204 390.415 121.799C387.154 122.097 382.708 120.608 381.225 117.829L380.633 118.523C377.075 121.898 368.775 129.84 359.882 135.994C357.016 137.979 353.557 139.071 350 139.071C346.245 139.071 342.886 137.88 340.909 135.795C340.02 134.803 339.427 133.711 339.032 132.42C335.573 137.681 330.929 142.942 323.419 144.431C322.629 144.531 321.838 144.63 321.146 144.63C317.391 144.63 314.032 143.141 310.771 140.163C306.225 145.821 298.32 150.09 292.391 150.189C289.526 150.189 287.253 149.295 285.672 147.509C282.411 150.586 275.791 153.067 270.257 153.067C266.502 153.067 263.439 152.075 261.463 149.99C255.929 156.045 250.099 159.42 244.862 159.42C241.7 159.42 238.933 158.229 236.66 155.847C235.474 154.556 234.585 152.373 234.091 150.288C234.091 150.387 234.091 150.487 233.992 150.586C233.399 153.961 232.806 157.435 232.51 160.215C232.51 160.612 232.214 160.909 231.818 160.909C231.621 160.909 217.688 162.994 210.178 164.582C209.882 164.582 209.684 164.582 209.486 164.384C209.289 164.185 209.19 163.887 209.289 163.689C209.289 163.59 210.969 154.358 212.451 145.722C211.561 149.792 210.573 154.159 209.783 157.634C209.289 160.016 208.795 162.001 208.597 163.093C208.498 163.391 208.301 163.59 208.004 163.689C207.806 163.689 193.182 166.667 187.154 167.56C186.957 167.56 186.66 167.461 186.463 167.362C186.265 167.163 186.265 166.865 186.265 166.667C186.265 166.567 186.759 164.384 187.154 162.398C180.633 169.049 170.553 175.402 161.561 175.501C156.522 175.501 152.174 173.615 148.617 169.744C148.221 170.042 147.925 170.24 147.53 170.538C147.036 170.836 146.542 171.134 146.245 171.531C145.455 175.104 142.688 191.979 141.304 200.516C153.162 191.483 154.052 190.987 156.028 189.895L156.423 189.696C159.98 187.711 164.229 188.505 166.799 191.582C168.676 193.865 169.565 196.843 169.071 199.92C168.874 201.31 167.49 207.365 165.119 217.192C165.909 216.001 166.403 214.611 166.897 213.123C170.158 202.998 173.419 189.101 173.814 187.612C173.913 187.314 174.111 187.115 174.407 187.016L196.344 182.152C196.64 182.152 196.838 182.152 197.036 182.351C197.233 182.549 197.332 182.847 197.233 183.045C196.739 185.428 196.344 188.108 196.048 189.795C202.47 184.534 208.004 180.266 211.66 179.373C216.107 178.281 219.664 179.174 221.739 181.953C224.012 185.031 224.308 189.994 222.629 196.446C222.727 196.446 222.925 196.347 223.024 196.347C223.32 196.248 223.617 196.248 223.814 196.148C225 191.88 226.186 187.612 227.273 184.137C228.063 181.358 228.755 179.075 229.15 177.586C229.249 177.387 229.447 177.09 229.743 176.99C229.842 176.99 237.846 174.806 251.285 171.431C251.581 171.332 251.878 171.431 252.075 171.63C252.273 171.828 252.372 172.126 252.273 172.424C252.273 172.424 251.68 174.31 250.791 177.983C250.988 177.784 251.186 177.586 251.384 177.387C256.028 173.218 261.759 168.056 267.095 167.461C271.048 166.965 274.308 168.255 276.581 171.034C278.261 173.02 279.052 175.7 278.656 177.784C278.656 177.884 278.656 177.983 278.557 178.082C278.459 179.174 278.063 182.251 274.901 196.248C275.988 194.56 276.68 193.17 277.174 191.781C277.174 191.781 278.557 187.214 282.807 169.049C282.905 168.751 283.004 168.553 283.301 168.553C283.498 168.453 298.32 162.696 305.633 160.115C305.929 160.016 306.225 160.115 306.423 160.314C306.621 160.512 306.72 160.81 306.621 161.108C306.522 161.306 302.075 182.549 299.901 192.078C301.976 190.49 303.755 190.192 305.04 190.192C307.807 190.192 310.079 191.979 310.969 194.064C311.463 193.27 311.957 192.476 312.55 191.582C309.289 190.192 306.621 186.023 306.127 181.358C305.731 177.884 306.225 169.148 317.984 163.292C324.803 159.321 353.953 151.876 360.376 151.082C360.573 151.082 360.87 151.181 361.067 151.281C361.265 151.479 361.265 151.777 361.265 151.976C361.067 152.968 356.522 173.913 354.842 181.06C360.474 176.792 366.403 172.523 373.716 171.034C379.348 169.843 384.289 171.134 387.55 174.608C390.119 177.288 391.403 181.159 391.107 185.328C390.712 192.277 385.573 195.453 380.731 195.453C377.273 195.453 374.21 194.064 372.727 191.781C372.53 191.781 372.332 191.781 372.135 191.781C371.838 191.781 371.64 191.781 371.344 191.681C368.577 194.461 350.198 211.038 344.071 212.924C342.787 213.321 341.403 213.52 340.119 213.52C334.98 213.52 331.225 210.939 329.941 206.273C324.901 215.406 317.688 217.589 315.218 218.284C313.735 218.681 312.253 218.979 310.87 218.979C306.72 218.979 303.261 217.292 301.087 214.115C295.949 219.178 290.712 222.354 285.87 223.148C285.376 223.248 284.783 223.347 284.19 223.347C280.83 223.347 278.557 221.064 277.075 219.078C272.233 222.652 264.625 227.714 262.154 228.31C261.364 228.509 260.474 228.608 259.486 228.608C256.324 228.608 253.162 227.417 251.186 225.431C250 224.141 249.21 222.652 248.913 220.964C248.123 221.659 247.332 222.453 246.443 223.248C241.008 228.31 235.376 233.472 231.72 234.167C231.225 234.266 230.731 234.266 230.138 234.266C227.273 234.266 223.024 233.174 220.356 230.097C218.38 227.814 217.787 224.836 218.281 221.361C218.478 220.468 218.775 219.277 219.071 217.887C219.368 216.795 219.664 215.604 219.862 214.413C219.467 214.413 219.17 214.512 218.874 214.512C218.577 214.512 218.281 214.512 217.984 214.512C216.403 222.652 214.625 230.692 213.933 233.869C213.834 234.167 213.637 234.365 213.34 234.464C213.34 234.464 197.925 237.939 190.909 239.527C190.613 239.626 190.415 239.527 190.218 239.328C190.02 239.13 189.921 238.931 190.02 238.634C190.02 238.634 190.316 237.045 190.712 235.358C185.474 240.52 178.557 245.284 173.024 245.284C170.158 245.284 167.886 243.994 166.502 241.611C160.573 247.071 154.15 250.347 149.012 250.347C145.158 250.347 142.194 248.56 140.613 245.185C140.514 246.376 140.316 247.766 140.218 249.255C140.218 249.652 139.723 249.95 139.427 249.95H139.131C137.352 249.95 128.162 250.148 124.21 252.332C116.304 256.7 109.091 257.395 96.1464 258.486C95.8499 258.486 95.5535 258.288 95.3559 258.089C95.257 257.792 95.257 257.494 95.4547 257.196C102.668 249.156 105.929 239.825 107.016 223.545C97.1345 238.832 80.6325 263.35 77.174 267.321C73.2215 271.788 65.9092 277.347 58.7946 277.446ZM55.5337 255.707C51.7788 255.707 49.9013 257.792 49.012 259.578C47.3321 262.755 47.5298 267.52 49.5061 270.497C51.8776 274.071 55.0396 275.858 58.7946 275.858C65.3163 275.858 72.2333 270.597 76.1859 266.031C79.7432 261.961 97.925 234.861 107.411 219.972C107.609 219.674 108.004 219.475 108.301 219.674C108.597 219.773 108.893 220.071 108.795 220.468C107.905 238.038 104.941 248.064 97.925 256.6C109.783 255.608 116.107 254.814 123.419 250.843C127.47 248.56 136.166 248.361 138.735 248.262C139.131 244.887 139.427 241.81 139.427 241.016C139.427 240.619 139.723 240.222 140.119 240.222C140.514 240.222 140.909 240.42 141.008 240.817C141.897 245.88 144.763 248.461 149.111 248.461C154.052 248.461 160.474 245.086 166.304 239.428C166.502 239.229 166.799 239.13 166.996 239.229C167.293 239.229 167.49 239.428 167.589 239.725C168.775 242.207 170.553 243.497 173.221 243.497C178.953 243.497 186.858 237.542 191.7 231.983C191.897 231.685 192.293 231.586 192.688 231.784C192.984 231.983 193.182 232.281 193.083 232.678C192.886 233.571 192.391 236.053 191.996 237.442C198.617 235.953 210.277 233.273 212.747 232.777C213.538 229.203 215.218 221.064 216.799 213.321C216.897 213.023 217.095 212.825 217.391 212.725C217.688 212.725 218.182 212.626 218.972 212.626C219.467 212.626 220.158 212.527 220.949 212.527C221.146 212.527 221.443 212.626 221.64 212.725C221.838 212.924 221.838 213.123 221.838 213.42C221.542 215.108 221.146 216.696 220.751 217.987C220.455 219.376 220.158 220.468 219.961 221.361C219.467 224.339 220.059 226.821 221.64 228.707C224.21 231.685 228.953 232.777 231.522 232.281C234.783 231.685 240.415 226.424 245.455 221.759C246.739 220.567 247.925 219.475 249.111 218.384C249.308 218.185 249.704 218.185 250 218.284C250.297 218.384 250.494 218.681 250.494 218.979C250.494 220.964 251.087 222.652 252.372 224.042C254.052 225.729 256.818 226.821 259.486 226.821C260.277 226.821 261.067 226.722 261.759 226.523C263.933 225.928 271.443 221.064 276.779 216.994C276.976 216.895 277.174 216.795 277.372 216.895C277.569 216.895 277.767 216.994 277.866 217.192C280.237 220.667 282.609 221.858 285.474 221.262C290.218 220.468 295.455 217.192 300.494 211.931C300.692 211.733 300.889 211.634 301.186 211.733C301.384 211.733 301.68 211.931 301.779 212.13C303.557 215.306 306.818 217.093 310.672 217.093C311.957 217.093 313.241 216.895 314.625 216.498C317.095 215.703 324.605 213.52 329.447 203.196C329.644 202.898 329.941 202.7 330.237 202.799C330.633 202.799 330.83 203.097 330.929 203.494C331.621 210.839 337.451 211.634 339.921 211.634C341.107 211.634 342.391 211.435 343.478 211.137C349.111 209.45 368.281 192.178 370.356 190.093C370.455 189.994 370.652 189.895 370.949 189.895C371.344 189.895 371.739 189.895 372.135 189.895C372.727 189.895 373.518 189.795 373.814 190.292C374.901 192.277 377.668 193.567 380.731 193.567C384.585 193.567 389.229 191.284 389.526 184.931C389.724 181.159 388.637 177.685 386.364 175.303C383.498 172.325 379.052 171.134 374.012 172.226C366.305 173.913 360.079 178.678 354.052 183.343C353.755 183.542 353.36 183.542 353.162 183.343C352.866 183.145 352.767 182.847 352.866 182.45C353.261 181.159 357.214 162.895 359.486 152.472C351.482 153.862 324.901 160.81 318.676 164.384C307.806 169.744 307.312 177.784 307.708 180.862C308.202 185.328 310.87 189.299 313.933 190.093C314.229 190.192 314.427 190.292 314.427 190.589C314.526 190.887 314.526 191.086 314.328 191.284C313.34 192.773 312.648 193.865 311.957 194.957L311.265 196.049C311.067 196.347 310.771 196.446 310.474 196.347C310.178 196.248 309.882 196.049 309.882 195.652C309.684 193.567 307.708 191.384 304.941 191.384C303.063 191.384 300.988 192.476 299.111 194.56C298.913 194.858 298.518 194.858 298.221 194.759C297.925 194.56 297.727 194.262 297.826 193.865C299.308 187.115 303.656 167.262 304.743 161.803C297.826 164.284 286.364 168.751 284.19 169.545C279.941 187.512 278.656 191.781 278.557 191.979C277.767 194.461 276.186 196.843 273.814 200.218C273.617 200.516 273.222 200.615 272.826 200.417C272.53 200.218 272.332 199.92 272.431 199.523C276.384 182.251 276.779 178.777 276.976 177.685C276.976 177.487 276.976 177.387 277.075 177.189C277.372 175.501 276.68 173.417 275.297 171.729C273.419 169.446 270.554 168.354 267.194 168.751C262.352 169.347 256.818 174.31 252.372 178.281C251.482 179.075 250.692 179.869 249.901 180.465C249.605 180.663 249.308 180.663 249.012 180.564C248.716 180.365 248.617 180.067 248.716 179.67C249.506 176.494 250.099 174.31 250.395 173.02C239.427 175.799 232.411 177.685 230.633 178.181C230.237 179.67 229.546 181.854 228.854 184.336C227.767 188.009 226.482 192.376 225.297 196.843C225.198 197.141 225 197.339 224.704 197.439C224.308 197.538 223.913 197.637 223.419 197.637C222.826 197.737 222.332 197.836 221.739 197.935C221.443 197.935 221.245 197.836 221.048 197.637C220.85 197.439 220.85 197.141 220.949 196.942C222.826 190.49 222.727 185.428 220.652 182.648C218.972 180.365 216.008 179.67 212.253 180.663C208.498 181.556 202.569 186.321 195.652 192.078C195.455 192.277 195.059 192.277 194.862 192.178C194.565 192.078 194.368 191.781 194.368 191.483C194.368 190.788 195.257 186.123 195.652 183.74L175.395 188.306C174.605 191.681 171.64 203.99 168.577 213.52C167.787 216.001 166.996 218.582 164.427 220.369C164.131 220.567 163.834 220.567 163.538 220.369C163.241 220.17 163.142 219.873 163.241 219.575C166.897 204.288 167.688 200.516 167.787 199.623C168.182 197.042 167.49 194.362 165.81 192.476C163.637 189.895 160.277 189.299 157.312 190.887L156.917 191.086C154.941 192.178 154.052 192.674 140.81 202.799C140.514 202.998 140.218 202.998 139.921 202.799C139.625 202.6 139.526 202.303 139.526 202.005C141.601 189.001 144.17 173.715 144.862 170.836C144.862 170.737 144.961 170.538 145.059 170.439C145.455 169.942 146.146 169.545 146.739 169.148C147.332 168.751 147.826 168.354 148.221 168.056C148.32 167.957 148.617 167.858 148.814 167.858C149.012 167.858 149.21 167.957 149.407 168.156C152.668 172.027 156.818 173.913 161.66 173.913C171.146 173.913 182.016 166.27 188.044 159.123C188.241 158.825 188.637 158.825 189.032 158.924C189.328 159.123 189.526 159.52 189.427 159.817C189.131 161.009 188.439 164.185 188.044 165.773C193.775 164.88 204.743 162.696 207.214 162.2C207.411 161.108 207.806 159.42 208.301 157.336C209.387 152.273 210.87 145.424 212.154 140.064C212.253 139.667 212.55 139.369 213.142 138.873C213.34 138.674 213.637 138.476 213.637 138.376C213.735 137.979 214.131 137.781 214.526 137.88C214.921 137.979 215.218 138.476 215.119 138.873C213.834 146.814 211.66 159.123 210.969 162.895C217.688 161.604 228.36 159.917 230.929 159.52C231.225 156.84 231.818 153.564 232.312 150.387C232.609 148.799 232.905 147.211 233.103 145.722C233.202 145.325 233.498 145.027 233.893 145.027C234.289 145.027 234.585 145.424 234.585 145.821C234.585 146.715 235.474 152.67 237.55 154.854C239.526 156.939 241.897 157.931 244.664 157.931C249.605 157.931 255.237 154.556 260.672 148.402C260.87 148.204 261.067 148.104 261.265 148.104C261.463 148.104 261.759 148.204 261.858 148.402C263.933 151.082 267.391 151.579 270.059 151.579C276.087 151.579 282.609 148.601 284.882 145.92C285.079 145.722 285.277 145.623 285.474 145.623C285.672 145.623 285.969 145.722 286.067 145.92C287.352 147.806 289.427 148.7 292.095 148.7C297.826 148.7 305.633 144.233 309.783 138.674C309.882 138.476 310.079 138.376 310.376 138.376C310.573 138.376 310.87 138.476 310.969 138.575C314.625 142.347 318.38 143.737 322.826 143.042C330.633 141.454 335.178 135.398 338.637 129.74C338.834 129.443 339.131 129.343 339.526 129.443C339.822 129.542 340.119 129.84 340.119 130.237C340.02 132.023 340.613 133.512 341.799 134.803C343.478 136.59 346.443 137.681 349.803 137.681C353.063 137.681 356.225 136.689 358.795 134.902C367.49 128.847 375.791 121.005 379.249 117.63L380.139 116.737C380.336 116.538 380.731 116.24 381.127 116.24C381.423 116.24 381.917 116.34 382.115 117.034C383.004 119.318 387.056 120.806 389.921 120.509C394.961 120.012 398.518 115.545 398.419 109.788C398.419 102.641 391.799 98.3727 385.474 98.3727C382.708 98.3727 380.04 99.1668 377.767 100.656C376.581 101.45 370.356 105.42 364.229 109.987C363.933 110.185 363.637 110.185 363.34 109.987C363.044 109.788 362.945 109.49 363.044 109.193C364.328 103.038 368.775 83.6816 369.961 78.6191C363.538 80.2073 334.091 87.3543 328.063 90.4315C321.739 93.608 317.194 100.457 317.194 106.512C317.194 109.59 318.775 113.957 323.024 116.141C323.419 116.34 323.518 116.737 323.419 117.134C323.123 118.027 320.554 122.395 320.257 122.891C320.158 123.09 319.862 123.189 319.664 123.288C319.368 123.288 319.17 123.189 318.973 122.99L318.775 122.693C317.391 121.104 315.712 119.119 313.933 119.02C312.352 119.02 309.98 120.012 308.399 120.608L308.103 120.707C307.806 120.806 307.51 120.806 307.312 120.608C307.115 120.409 307.016 120.112 307.016 119.814C308.301 112.27 310.771 103.038 312.846 94.9977L313.933 91.0271L315.81 84.4757L298.716 90.1338C298.617 90.3323 298.419 90.8286 298.221 91.5235C298.123 91.722 297.925 91.9205 297.727 92.0198C296.146 92.6154 294.17 93.211 292.095 93.8065C289.131 94.6999 285.672 95.7918 282.905 96.8837C268.281 102.443 262.55 117.432 260.771 123.586C260.672 123.983 260.277 124.181 259.882 124.181C259.486 124.082 259.19 123.685 259.289 123.288C259.388 122.792 259.486 122.097 259.684 121.303C260.771 116.34 263.142 106.215 259.388 103.237C257.806 101.946 255.534 100.457 252.273 100.457C248.221 100.457 243.478 102.74 237.747 107.406C237.55 107.604 237.253 107.604 237.055 107.505C236.759 107.406 236.561 107.207 236.561 107.009C236.561 106.909 235.277 103.932 228.755 104.428C225.198 104.626 221.64 107.307 216.799 110.88L215.909 111.476C215.712 111.575 215.415 111.674 215.218 111.575C214.921 111.476 214.822 111.277 214.723 111.079C213.933 108.994 212.451 108.001 210.178 108.001C205.04 108.001 197.036 113.362 191.7 117.829C191.403 118.126 190.909 118.126 190.613 117.829C190.316 117.531 190.119 117.233 189.822 116.935C189.328 116.34 188.735 115.545 187.55 114.751C186.66 114.057 184.289 113.461 181.028 113.461C176.878 113.461 168.874 114.652 161.166 121.998C153.557 129.343 148.617 139.468 146.64 146.516C145.85 148.005 145.652 148.204 144.17 149.99C143.972 150.288 143.577 150.288 143.182 150.189C142.885 149.99 142.688 149.692 142.787 149.295C144.763 141.851 148.221 125.869 149.21 121.303C134.289 125.472 130.336 126.564 129.249 126.961C128.261 130.634 123.221 151.181 123.221 151.38C122.135 156.045 119.368 158.428 118.577 159.023C118.281 159.222 117.984 159.222 117.688 159.023C117.391 158.825 117.293 158.527 117.391 158.229C120.356 144.134 121.443 137.185 121.64 135.895C121.937 133.612 121.245 131.229 119.763 129.641C118.775 128.549 116.996 127.159 114.032 127.159C113.241 127.159 112.352 127.259 111.463 127.457C108.795 128.152 100.494 134.207 95.4547 138.277C95.1582 138.476 94.763 138.476 94.5653 138.376C94.2689 138.178 94.1701 137.781 94.2689 137.483C95.1582 134.704 96.2452 131.726 97.0357 129.343C97.6286 127.556 98.2215 126.068 98.5179 125.075C98.6167 124.876 98.8144 124.678 99.012 124.579C99.2096 124.479 99.5061 124.579 99.7037 124.678C100.889 125.472 102.174 125.869 103.459 125.869C107.51 125.869 110.969 121.799 111.364 116.737C111.463 114.652 110.573 112.369 108.893 110.483C105.237 106.612 99.012 105.222 92.6879 107.009C85.6721 108.994 80.6325 111.575 74.4072 119.119C69.8618 124.579 66.4033 133.413 62.9448 147.608C62.9448 147.806 62.846 147.906 62.7472 148.005C58.9922 151.479 56.423 152.67 53.9527 152.273C53.261 152.174 52.3717 151.876 51.8776 151.181C51.68 150.884 51.5812 150.387 51.7788 149.692C52.2729 148.204 58.2017 127.358 59.4863 122.792C57.2136 122.494 54.9408 122.395 52.5693 122.395C37.7472 122.494 23.0238 128.847 14.9211 138.575C8.39933 146.516 4.94083 154.259 4.24913 162.895C4.24913 167.362 5.03964 170.34 7.01593 173.119C10.178 177.685 14.0317 179.373 18.1819 177.983C21.8381 176.792 26.2847 174.31 26.1859 169.148C26.1859 166.567 25.0989 164.384 22.431 161.703C21.344 160.612 21.344 159.321 21.4428 158.626C22.2333 151.777 28.3598 145.92 31.0278 143.737C31.3242 143.538 31.7195 143.439 32.0159 143.737C32.3124 143.935 32.4112 144.332 32.3124 144.63C29.5456 151.579 29.0515 157.237 30.929 161.505C32.2136 164.483 34.5851 166.667 38.0436 168.056C39.7234 168.751 42.6879 169.148 46.0476 169.049C50.7906 169.049 55.3361 168.255 57.3124 167.163C57.51 167.064 57.8064 167.064 58.0041 167.163C58.2017 167.262 58.3993 167.461 58.3993 167.759C59.1898 171.928 53.261 179.67 48.3203 180.961C46.5416 181.457 45.4547 181.656 44.8618 181.755C44.0713 185.13 41.6997 195.453 40.7116 199.523C49.8025 194.759 59.3875 190.49 68.4784 190.49C83.2017 190.391 88.6365 185.229 88.6365 185.229L89.2294 184.634L89.6246 182.45L92.5891 165.773C90.9092 167.362 88.34 169.645 87.2531 170.34C86.9566 170.538 86.6602 170.538 86.3638 170.34C86.0673 170.141 85.9685 169.843 86.0673 169.446C86.6602 167.064 87.1543 164.781 87.6483 162.498C88.4389 158.825 89.2294 155.351 90.2175 151.876C90.3163 151.678 90.4151 151.479 90.6128 151.38C90.8104 151.281 91.1068 151.281 91.3045 151.38C92.8855 152.174 98.2215 154.854 98.2215 154.854C98.5179 155.053 98.7155 155.351 98.6167 155.748C97.0357 162.498 94.9606 173.02 94.9606 175.203C94.9606 181.656 97.6286 184.931 102.668 184.832C104.842 184.832 106.917 184.237 107.905 183.839C108.301 183.641 108.795 183.839 108.893 184.336C108.992 184.733 108.893 185.229 108.498 185.328C91.3045 192.476 87.3519 194.56 84.3875 196.248C77.8657 200.02 77.0752 207.067 78.4586 211.931C79.9408 217.292 83.6958 220.567 88.0436 219.972C88.34 219.873 88.6365 220.071 88.8341 220.369C89.0317 220.667 89.0317 220.964 88.8341 221.262C86.6602 224.339 84.4863 227.615 82.2136 230.792C73.9132 242.803 66.008 254.218 62.2531 257.494C62.0555 257.692 61.759 257.792 61.4626 257.593C59.4863 256.203 57.4112 255.707 55.5337 255.707ZM137.945 233.77C137.747 233.77 137.55 233.67 137.451 233.571C137.253 233.472 137.154 233.174 137.154 232.975C137.253 228.707 137.451 224.836 137.648 220.964C137.747 219.078 137.846 217.292 137.846 215.406C137.846 215.108 138.044 214.909 138.241 214.711C138.439 214.612 138.735 214.612 139.032 214.711C140.119 215.207 141.799 216.001 143.083 216.498C143.676 216.696 144.17 216.994 144.467 217.093C144.763 217.292 144.961 217.589 144.961 217.987C144.17 221.659 143.478 225.134 142.787 228.211C142.49 229.898 142.095 231.387 141.897 232.678C141.799 232.975 141.601 233.273 141.304 233.273C140.81 233.373 140.415 233.472 140.119 233.472C139.427 233.571 139.032 233.67 137.945 233.77ZM139.328 216.597C139.229 218.086 139.229 219.575 139.131 221.064C139.032 224.637 138.834 228.211 138.735 232.082C139.131 231.983 139.427 231.983 139.723 231.884C139.921 231.884 140.119 231.784 140.415 231.784C140.712 230.593 140.909 229.203 141.206 227.814C141.799 224.935 142.391 221.759 143.182 218.284C142.885 218.185 142.688 218.086 142.391 217.987C141.403 217.589 140.316 217.093 139.328 216.597ZM188.636 216.001C188.439 216.001 188.34 216.001 188.241 215.902C187.945 215.703 187.846 215.406 187.945 215.009C188.735 211.832 189.427 207.762 190.218 203.891C190.218 203.692 190.415 203.395 190.613 203.295C190.81 203.196 191.107 203.196 191.304 203.295C192.49 203.891 196.64 204.586 198.123 204.784C198.419 204.784 198.617 204.983 198.716 205.281C198.814 205.578 198.716 205.876 198.518 206.075C197.826 206.77 197.036 207.663 196.146 208.656C194.17 210.839 191.799 213.52 189.032 215.803C189.032 215.902 188.834 216.001 188.636 216.001ZM191.502 205.082C190.909 207.862 190.415 210.641 189.921 213.023C191.799 211.237 193.478 209.35 195.059 207.564C195.553 207.067 195.949 206.571 196.443 206.075C194.961 205.876 192.984 205.479 191.502 205.082ZM98.6167 206.869C98.2215 206.869 98.0238 206.67 97.925 206.373C97.5298 205.38 97.1345 203.891 97.1345 203.891C97.0357 203.593 97.2333 203.196 97.5298 202.998C98.2215 202.6 98.6167 202.402 99.2096 202.104L100.593 201.31C100.889 201.112 101.285 201.211 101.482 201.409C101.68 201.707 101.779 202.005 101.581 202.303C101.087 203.196 100.692 203.792 100.297 204.487C100 204.983 99.7037 205.578 99.2096 206.273C99.2096 206.67 98.9132 206.77 98.6167 206.869ZM243.38 204.586C243.281 204.586 243.083 204.586 242.984 204.487C242.688 204.288 242.589 203.891 242.688 203.593L243.38 201.31C244.071 198.928 244.862 196.347 245.85 193.17C245.949 192.972 246.048 192.773 246.245 192.674C246.443 192.575 246.64 192.575 246.838 192.674L252.372 195.056C252.569 195.156 252.767 195.354 252.866 195.652C252.866 195.95 252.866 196.148 252.569 196.347C251.68 197.24 250.791 198.034 249.803 199.027C248.221 200.615 246.344 202.402 243.972 204.387C243.676 204.487 243.478 204.586 243.38 204.586ZM246.937 194.461C246.146 197.042 245.455 199.325 244.862 201.409C246.245 200.119 247.431 198.928 248.617 197.836C249.308 197.24 249.901 196.545 250.494 195.95L246.937 194.461ZM117.293 181.159C116.996 181.159 116.799 181.06 116.601 180.762C116.403 180.465 116.403 179.968 116.7 179.77C117.886 178.777 118.676 178.181 119.269 177.685C119.862 177.288 120.158 176.99 120.553 176.593C120.85 176.395 121.245 176.295 121.542 176.494L121.937 176.692C122.332 176.891 122.53 176.99 123.221 177.387C123.518 177.487 123.716 177.784 123.716 178.082C123.716 178.38 123.518 178.678 123.221 178.777C121.64 179.472 120.751 179.77 119.664 180.266L117.589 181.159C117.49 181.159 117.391 181.159 117.293 181.159ZM331.621 176.99C331.324 176.99 330.929 176.792 330.83 176.494C330.731 176.097 330.83 175.7 331.225 175.501C332.016 175.104 332.51 174.906 332.806 174.707C333.399 174.409 333.597 174.31 334.388 173.913C334.585 173.814 334.783 173.814 335.079 173.913C335.277 174.012 335.474 174.211 335.474 174.409C335.573 174.608 335.573 174.806 335.672 174.906C335.771 175.303 335.969 175.7 335.771 176.097C335.672 176.295 335.376 176.494 335.178 176.494C333.202 176.792 331.72 176.99 331.621 176.99ZM166.7 155.45C165.81 155.45 165.712 154.755 165.712 154.656C165.712 154.556 165.712 154.457 165.712 154.457C165.81 153.762 169.071 137.681 171.739 133.909C172.53 132.818 173.518 132.42 173.716 132.42C173.716 132.42 173.814 132.42 173.913 132.42C173.913 132.42 175 132.321 176.581 132.321C176.68 132.321 176.878 132.321 176.976 132.42C179.546 133.711 182.115 134.009 184.585 133.413C184.783 133.314 185.672 132.818 186.364 132.42C186.561 132.321 186.759 132.222 186.957 132.321C187.154 132.321 187.352 132.52 187.451 132.718C188.538 134.604 192.095 136.292 192.984 136.292C193.182 136.292 193.478 136.391 193.676 136.59C193.874 136.788 193.874 137.086 193.874 137.284C193.281 139.568 192.787 141.454 192.293 143.439C191.7 146.02 191.008 148.601 189.921 152.472C189.822 152.77 189.625 152.968 189.328 153.067C189.032 153.067 188.735 152.968 188.538 152.77L181.917 143.935C180.83 144.928 179.644 145.92 178.459 147.112C173.024 152.075 169.269 155.351 167.391 155.648C167.095 155.45 166.897 155.45 166.7 155.45ZM174.111 133.909C173.913 134.009 173.419 134.306 173.024 134.803C170.85 137.781 168.182 150.09 167.391 153.762C169.269 153.067 173.913 148.799 177.372 145.722C178.854 144.332 180.336 143.042 181.522 142.049C181.719 141.95 181.917 141.851 182.115 141.851C182.312 141.851 182.51 141.95 182.708 142.148L188.834 150.387C189.625 147.31 190.218 145.126 190.712 142.942C191.107 141.255 191.502 139.568 191.996 137.582C190.316 137.086 187.846 135.696 186.463 134.009C185.969 134.306 185.277 134.704 184.882 134.803C182.115 135.498 179.15 135.2 176.384 133.81C175.198 133.81 174.407 133.909 174.111 133.909ZM279.842 130.137C279.743 130.137 279.546 130.038 279.447 130.038C279.249 129.939 279.052 129.641 279.052 129.343C279.052 126.862 280.534 121.799 280.534 121.601C282.115 117.928 283.893 115.943 287.154 114.255C287.451 114.156 287.747 114.156 287.945 114.354C288.142 114.553 288.34 114.751 288.241 115.049C287.945 117.531 287.253 121.005 285.87 124.082C285.376 125.075 283.103 128.45 280.04 130.038C280.04 130.137 279.941 130.137 279.842 130.137ZM282.016 122.196C282.016 122.196 281.028 125.472 280.731 127.954C282.609 126.465 284.19 124.38 284.585 123.487C285.573 121.204 286.265 118.623 286.561 116.439C284.486 117.829 283.103 119.516 282.016 122.196ZM341.601 103.237C340.514 103.237 339.921 102.939 339.723 102.343C339.625 102.045 339.526 101.45 340.02 100.854C340.712 99.7624 342.688 98.7698 344.071 98.7698C344.862 98.7698 345.356 99.0676 345.554 99.3654C345.85 99.6631 345.949 100.06 345.949 100.457C345.85 101.45 344.565 102.443 344.269 102.641C343.478 103.038 342.49 103.237 341.601 103.237ZM341.305 101.648C341.403 101.648 341.502 101.648 341.601 101.648C342.194 101.648 342.886 101.45 343.38 101.251C343.577 101.152 343.973 100.656 344.17 100.457C344.071 100.457 344.071 100.457 343.973 100.457C343.083 100.358 341.799 101.152 341.305 101.648Z" fill="white"/>
<path d="M87.2525 182.748C87.4501 182.648 87.5489 182.351 87.5489 182.152C87.5489 181.656 88.3394 177.784 89.0311 174.31C89.13 174.012 88.9323 173.615 88.6359 173.516C88.3394 173.318 88.043 173.318 87.7466 173.615C85.1774 175.7 83.1023 176.99 81.4224 177.387C89.13 143.24 94.3671 127.656 96.9363 121.104C99.0114 122.395 100.592 123.09 102.964 123.09C102.964 123.09 102.964 123.09 103.063 123.09C106.422 122.494 108.399 120.211 108.399 116.737C108.399 114.454 107.806 112.071 103.952 110.483C101.877 109.59 98.9126 108.895 94.8612 109.689C86.7584 111.575 80.7307 115.347 76.4817 121.303C72.2327 127.457 68.4778 136.59 64.8217 149.295C60.7703 153.465 56.7189 154.755 53.6556 155.351C51.3829 155.748 49.5055 155.351 48.6161 154.259C48.1221 153.564 47.9244 152.67 48.2209 151.579C51.4817 139.369 55.8296 126.167 55.9284 126.068C56.0272 125.869 56.0272 125.571 55.8296 125.373C55.6319 125.174 55.4343 125.075 55.2367 125.075C54.4462 125.075 44.5647 126.068 41.0074 126.762C31.5213 128.549 23.7149 133.115 17.1932 140.659C10.8691 148.005 7.70703 155.45 7.70703 162.795C7.70703 165.575 8.00347 168.851 9.78213 171.63C11.1655 173.715 12.9442 175.799 16.0074 175.799C16.6991 175.799 17.3908 175.7 18.0825 175.501C20.4541 174.807 23.3197 173.218 23.3197 169.148C23.3197 167.362 22.4304 165.575 20.7505 163.788C19.3671 162.398 18.5766 160.215 18.5766 158.726C18.5766 154.159 20.8493 149.494 25.296 144.829C29.0509 140.957 33.2011 138.277 37.5489 136.689C35.8691 142.148 32.5094 153.465 32.6082 156.244C32.707 159.123 34.4857 163.193 39.4264 165.277C41.2051 166.071 43.2802 166.369 45.7505 166.369C47.5292 166.369 49.6043 166.17 52.3711 165.773C55.8296 165.079 59.2881 163.689 62.7466 161.704L60.7703 171.134C57.9047 182.45 48.5173 184.137 48.1221 184.137C47.7268 184.237 47.4304 184.534 47.4304 184.932C47.4304 186.123 46.3434 190.987 45.9481 192.674C45.8493 192.972 45.9481 193.27 46.2446 193.468C46.3434 193.568 46.541 193.667 46.7387 193.667C46.8375 193.667 46.9363 193.667 47.0351 193.568C47.5292 193.369 48.0232 193.071 48.6161 192.674C52.1734 190.689 58.0035 187.215 68.5766 187.215C81.4224 186.917 87.0549 182.946 87.2525 182.748ZM84.0904 131.428C80.8296 142.843 77.9639 156.939 75.3948 169.843C74.8019 172.722 74.209 175.601 73.7149 178.281H72.2327C72.3315 177.884 72.4303 177.288 72.628 176.593C77.5687 153.068 81.3236 139.27 84.0904 131.428Z" fill="white"/>
<path d="M136.166 237.045L133.992 237.542C134.288 219.078 135.573 194.362 140.415 178.976C140.613 178.38 140.711 178.082 140.711 177.884C140.711 177.586 140.514 177.288 140.217 177.189C139.921 177.09 139.624 177.189 139.328 177.387C138.933 177.784 135.968 178.876 133.399 179.571C133.201 179.67 133.004 179.77 132.905 179.968C126.976 192.873 125.494 233.869 125.296 239.527L123.715 239.924C122.925 200.516 130.336 180.663 130.435 180.564C130.533 180.266 130.435 179.869 130.237 179.67C130.039 179.472 129.644 179.373 129.348 179.571C129.051 179.77 126.581 180.663 123.814 181.755C105.632 188.703 88.4386 195.453 86.2647 198.233C82.1145 202.005 81.5216 205.976 81.7192 208.656C81.9169 211.931 83.4979 214.512 84.8813 215.406C87.9445 217.49 91.403 217.292 93.5769 214.909C94.8615 213.52 95.5532 211.634 95.4544 209.847C95.3556 207.663 94.2686 205.578 93.8734 204.884C93.9722 203.593 94.6639 202.203 95.9485 200.814C97.826 198.828 105.632 195.553 111.265 193.667C109.19 196.545 106.028 201.409 102.075 207.266C90.6125 224.538 66.6995 260.373 62.4505 260.472C62.3516 260.373 59.7825 258.586 56.818 258.586C54.9406 258.586 53.3595 259.281 51.9762 260.77C49.8022 264.145 50.2963 266.626 51.0868 268.115C52.6679 271.093 56.6204 272.384 58.8931 272.384H58.992C64.2291 272.284 68.3793 270.1 72.826 264.839C76.5809 260.472 94.6639 234.266 104.743 218.284C105.929 216.498 107.114 214.81 108.399 212.924C109.98 210.74 111.561 208.457 113.043 206.075C112.945 207.365 112.747 208.656 112.648 209.946C112.055 215.803 111.462 223.049 110.375 231.288C109.684 245.88 105.237 250.744 105.237 250.744C105.039 250.942 104.941 251.339 105.039 251.637C105.138 251.935 105.435 252.134 105.731 252.134C112.648 252.134 118.083 250.645 121.739 247.964C127.767 244.887 135.375 244.788 135.474 244.788C135.869 244.788 136.265 244.49 136.265 243.994C136.265 240.917 136.956 237.839 136.956 237.74C137.055 237.442 136.956 237.145 136.759 236.946C136.66 237.045 136.462 236.946 136.166 237.045Z" fill="white"/>
<path d="M382.807 176.097C381.72 175.601 378.854 174.906 376.186 175.005C375.494 175.005 374.803 175.104 374.21 175.204C367.392 176.792 361.858 179.968 354.546 186.718L347.925 192.972C348.913 188.604 350.89 179.571 352.668 171.432C354.15 164.483 355.435 158.428 355.83 157.138C355.929 156.84 355.83 156.641 355.633 156.443C355.435 156.244 355.139 156.145 354.941 156.244C351.087 157.038 325.988 163.391 320.257 166.865C316.7 169.049 309.684 174.013 310.573 180.465C311.66 185.626 314.427 187.513 316.601 188.207C317.49 188.505 318.676 188.803 320.158 188.902C319.565 189.399 318.973 189.895 318.775 190.093C316.7 192.178 315.712 194.163 314.625 196.645L313.933 198.035C312.945 200.119 310.672 201.608 309.486 202.204C309.091 200.913 308.202 198.432 307.708 196.843C307.312 195.751 306.72 193.965 304.842 193.965C304.15 193.965 303.36 194.163 302.471 194.66C300.198 195.851 295.158 201.112 292.392 203.99C293.874 197.34 298.123 179.373 301.087 166.766C301.186 166.468 301.087 166.171 300.89 165.972C300.692 165.774 300.395 165.674 300.198 165.774C297.036 166.568 287.253 170.538 286.858 170.638C286.66 170.737 286.463 170.935 286.364 171.134L280.929 192.774C280.237 196.248 278.459 199.524 274.901 203.593C272.53 206.274 270.356 207.762 268.281 208.06C269.565 202.204 274.605 178.479 274.605 176.891C274.605 173.913 270.158 171.332 267.49 171.332C265.119 171.332 263.143 171.928 259.98 174.807C257.51 176.99 246.048 186.718 245.949 186.818C245.751 186.917 245.652 187.215 245.652 187.413C245.652 187.612 245.751 187.91 245.949 188.009C248.32 189.597 252.174 191.979 252.273 191.979C252.569 192.178 252.965 192.079 253.261 191.88C253.854 191.285 257.214 188.108 259.289 186.222C258.992 188.108 258.498 190.689 257.411 194.957C252.668 200.516 242.194 210.244 237.451 214.215C238.735 208.16 243.182 189.895 246.245 177.189C246.344 176.891 246.245 176.593 246.048 176.494C245.85 176.296 245.554 176.196 245.257 176.296C242.095 177.09 232.708 179.571 232.708 179.571C232.411 179.671 232.115 179.968 232.115 180.266C232.016 181.16 228.953 191.88 226.878 198.829C221.048 199.821 218.38 200.119 217.194 200.218C217.688 198.332 217.984 196.843 218.281 195.652C219.368 191.285 219.565 190.49 219.565 187.612C219.565 185.825 218.874 181.457 212.451 182.053C207.609 182.45 192.589 196.744 190.909 198.332C190.712 198.531 190.613 198.829 190.712 199.027C190.712 199.325 190.909 199.524 191.206 199.623C194.763 201.112 198.222 202.005 198.419 202.005C198.716 202.104 199.012 202.005 199.21 201.807C201.285 199.722 202.668 198.233 203.656 197.24L201.878 207.266C198.024 211.832 186.364 221.858 182.016 225.63C183.399 219.376 188.241 200.814 191.601 187.91C191.7 187.612 191.601 187.314 191.403 187.215C191.206 187.016 190.909 186.917 190.613 187.016C187.451 187.81 178.162 190.292 178.162 190.292C177.866 190.391 177.569 190.689 177.569 190.987C177.471 191.88 173.814 205.281 171.443 213.917C168.973 221.56 160.771 227.814 157.708 229.601C158.202 227.417 159.091 223.248 160.079 219.079C162.451 208.457 164.23 200.318 164.328 199.027C164.427 197.439 164.526 193.667 162.253 192.674C160.573 191.88 159.585 191.979 157.016 192.972C155.534 193.568 139.724 206.273 136.562 208.854C136.364 208.954 136.265 209.251 136.265 209.549C136.265 209.748 136.364 210.046 136.562 210.145C138.933 211.733 142.787 213.321 142.984 213.421C143.281 213.52 143.577 213.421 143.874 213.222C144.071 212.924 144.961 212.229 145.949 211.336C147.036 210.343 148.419 209.152 149.605 208.06C147.728 215.803 143.479 235.854 143.479 237.443C143.479 239.924 144.269 241.711 146.048 243.597C146.838 244.391 148.024 244.788 149.605 244.788C150.198 244.788 150.791 244.689 151.482 244.59C155.237 243.895 164.032 237.542 167.688 234.365C167.886 235.755 168.479 237.74 170.455 238.832C172.925 240.222 174.21 240.123 175.791 239.626C180.336 238.237 189.23 230.395 198.617 221.56C197.233 226.027 195.949 232.678 195.85 232.976C195.85 233.273 195.85 233.472 196.048 233.671C196.245 233.869 196.542 233.869 196.838 233.869C199.901 233.075 209.98 230.593 210.178 230.593C210.475 230.494 210.771 230.196 210.771 229.898C210.87 229.104 213.439 217.59 215.218 209.748L225.297 208.358C224.605 211.832 223.913 214.711 223.419 216.895C222.826 219.476 222.431 220.965 222.431 221.858C222.431 224.637 225.099 229.7 230.435 229.005C233.103 228.608 239.526 223.049 249.901 213.917C251.384 212.626 252.767 211.336 254.249 210.046C254.052 211.038 253.854 212.13 253.558 213.123C253.162 214.81 252.965 215.704 252.965 216.101C252.965 218.185 253.261 220.865 255.731 222.354C257.807 223.645 259.388 223.645 260.969 223.248C262.846 222.751 274.21 214.711 278.261 211.832C278.755 214.215 280.435 218.88 285.178 218.384C289.032 217.987 293.775 214.512 302.075 206.075V206.174C303.36 208.854 304.348 210.74 305.731 211.733C307.708 213.123 310.079 213.718 312.55 213.421C316.206 212.924 323.024 209.251 327.174 200.913C330.04 195.156 331.917 191.682 333.301 189.796C334.19 188.604 334.882 188.009 335.573 187.81C334.19 193.27 333.597 198.233 333.597 199.722C333.597 202.799 334.19 204.884 335.475 205.876C337.945 207.862 339.822 208.358 342.49 207.564C346.641 206.373 353.953 200.02 360.475 194.362C364.625 190.788 369.467 187.215 370.356 186.619C372.332 185.626 374.605 186.321 375.89 187.81C377.471 189.796 379.348 189.994 380.633 189.994C381.324 189.994 382.016 189.895 382.609 189.696C383.894 189.399 386.957 188.009 387.451 183.343C387.747 179.671 385.376 177.189 382.807 176.097ZM340.613 169.149L337.253 179.472C336.957 179.472 336.562 179.571 336.166 179.671C334.783 179.869 332.905 180.167 331.028 180.167C326.482 180.167 326.186 178.38 326.087 177.685C325.791 175.899 327.174 174.509 329.645 172.821C331.522 171.63 337.846 169.744 340.613 169.149Z" fill="white"/>
<path d="M395.455 109.093C394.862 104.13 391.7 101.351 386.759 101.351C384.091 101.351 380.929 102.244 378.558 103.733C373.222 107.009 362.253 114.851 358.004 117.829C359.783 109.987 365.415 83.9793 365.514 83.6815C365.613 83.3837 365.514 83.0859 365.317 82.8874C365.119 82.6888 364.823 82.6888 364.625 82.6888C364.131 82.8874 362.846 83.0859 361.068 83.483C352.174 85.4682 333.795 89.6374 329.249 92.516C323.617 95.9903 320.356 100.954 320.356 106.016C320.356 108.498 321.937 112.17 326.285 113.858C327.076 114.255 327.866 114.454 328.657 114.652C325.89 116.935 324.21 120.707 322.826 124.082C320.554 129.442 320.158 129.343 318.874 129.244C317.491 129.145 316.898 127.656 316.107 125.67C315.712 124.479 315.317 123.387 314.526 122.891C314.131 122.593 313.538 122.395 312.945 122.395C309.684 122.395 304.348 128.251 300.89 130.634C302.372 124.082 307.411 103.733 310.771 90.3322C310.87 90.0344 310.771 89.7366 310.573 89.6374C310.376 89.4388 310.079 89.3396 309.783 89.4388C305.83 90.3322 301.483 91.5234 301.384 91.5234C301.186 91.6227 300.989 91.7219 300.89 92.0197C300.692 92.516 300.198 93.7072 300 94.4021C297.629 94.8984 289.526 97.4793 283.597 99.7624C268.182 105.718 263.637 122.891 262.155 128.549C261.957 129.145 261.759 129.939 261.858 129.939L257.214 135.498C255.633 137.185 253.755 139.17 251.878 140.659C252.471 137.979 253.854 133.115 255.04 128.648C257.214 120.608 258.498 115.744 258.498 114.652C259.19 110.185 258.795 107.108 257.313 105.222C256.226 103.931 254.546 103.237 252.075 103.336C251.581 103.336 251.087 103.336 250.593 103.435C247.135 103.733 239.328 109.391 236.364 111.674C235.672 109.49 233.597 106.81 229.447 107.604C225.297 108.299 220.356 111.476 214.526 117.233C214.625 115.942 214.526 114.553 213.933 113.461C213.439 112.567 212.747 111.972 211.66 111.674C211.265 111.575 210.672 111.277 209.585 111.277C207.016 111.277 203.657 112.865 199.309 115.843C196.937 117.531 193.479 120.509 190.415 123.586C190.415 121.799 189.823 119.417 186.068 117.431C184.882 116.836 183.004 116.538 180.929 116.538C177.372 116.538 170.158 117.63 162.55 124.876C153.657 134.009 150.396 143.439 149.21 148.303C147.925 150.288 140.811 158.527 137.352 162.597C138.933 155.847 142.985 138.575 145.85 126.465C145.949 126.167 145.85 125.869 145.653 125.77C145.455 125.571 145.158 125.472 144.862 125.571C141.799 126.365 132.016 129.542 131.522 129.641C131.226 129.74 131.028 129.939 131.028 130.237L125.593 151.876C123.815 161.207 116.7 165.972 113.439 168.056C114.823 160.909 119.17 137.582 119.17 136.093C119.17 134.207 117.392 130.137 112.056 130.534C110.475 130.733 108.202 131.924 104.645 134.703C102.273 136.292 91.0083 146.317 90.5142 146.814C90.3166 147.012 90.2178 147.31 90.2178 147.509C90.3166 147.806 90.5142 148.005 90.7118 148.104C92.9846 148.898 96.9371 150.387 96.9371 150.487C97.2336 150.586 97.53 150.487 97.8265 150.288C98.1229 149.891 99.8028 148.7 101.186 147.608C102.075 146.913 102.767 146.317 103.36 145.92C103.162 147.806 102.57 150.288 101.68 154.358L101.186 156.74C99.9016 162.001 97.3324 173.417 97.3324 175.303C97.3324 177.983 98.3205 179.869 100.198 180.762C101.483 181.159 102.866 181.457 104.249 181.457C107.609 181.457 111.068 180.167 115.02 177.387C116.601 176.196 117.985 174.906 119.368 173.714C120.455 172.821 121.443 171.828 122.629 170.935C122.925 172.523 123.518 174.906 124.111 175.601C125 176.692 126.285 177.189 127.767 177.189C134.487 177.189 145.356 165.674 148.518 162.101C150 165.873 153.755 169.545 160.574 170.042C171.147 170.836 185.573 155.946 186.166 155.351C186.463 155.053 186.463 154.556 186.166 154.259L181.423 148.7C181.226 148.501 181.127 148.402 180.83 148.402C180.633 148.402 180.435 148.501 180.238 148.601L178.854 149.99C174.111 154.854 170.751 158.428 166.7 158.825C165.218 158.924 164.427 158.924 163.736 158.428C162.649 157.634 162.056 155.648 162.056 153.266C162.056 149.593 167.688 134.108 168.874 132.123C169.961 130.435 171.443 129.343 172.925 129.244C173.617 129.244 175.099 129.244 177.372 129.939L177.767 130.038C179.151 130.534 180.534 131.031 182.016 131.031C183.103 131.031 183.992 130.832 184.783 130.237C185.376 129.84 186.265 129.145 186.858 128.748C188.538 130.931 191.107 132.917 191.305 133.016C191.601 133.215 191.898 133.215 192.095 133.115C193.182 132.52 195.85 130.038 198.321 127.556C197.036 133.81 193.083 150.784 190.317 162.597C190.218 162.895 190.317 163.093 190.514 163.292C190.712 163.49 190.909 163.589 191.206 163.49C194.862 162.895 204.447 161.009 204.546 161.009C204.941 160.909 205.139 160.612 205.139 160.214C205.139 158.328 210.475 133.215 211.957 130.931C213.538 127.556 218.479 124.181 221.048 122.593L213.736 157.634C213.736 157.832 213.736 158.13 213.933 158.328C214.131 158.527 214.328 158.626 214.625 158.626C217.392 158.328 226.779 157.038 227.174 156.939C227.57 156.84 227.767 156.542 227.866 156.244C228.162 153.762 234.684 127.159 236.068 125.571C236.166 125.472 236.166 125.373 236.265 125.273C237.253 122.097 241.305 118.821 243.676 117.134C242.095 124.181 237.155 145.92 237.155 147.31C237.155 149.692 238.736 154.656 243.38 154.656C243.973 154.656 244.566 154.556 245.158 154.457C250.89 153.067 257.609 146.814 261.562 142.545C262.155 144.431 263.439 146.02 264.823 147.012C265.613 147.608 267.194 147.707 268.38 147.707C273.024 147.707 280.238 145.821 285.771 140.759C286.463 143.538 288.439 145.126 291.502 145.126C293.479 145.126 295.554 144.431 296.838 143.836C300.989 141.851 306.621 137.185 310.178 133.413C311.957 137.979 316.502 140.56 321.641 139.766C327.372 138.873 332.016 135.001 335.475 128.152C335.969 127.159 336.463 126.067 336.957 124.976C338.736 120.906 340.613 116.737 344.368 115.347C342.491 119.913 341.305 123.288 341.799 127.854C342.293 132.222 344.862 134.505 349.21 134.505C351.977 134.505 354.546 133.512 355.435 133.016C360.969 129.84 367.787 123.685 372.826 119.119C375.494 116.637 377.767 114.553 378.953 113.858C380.633 112.766 381.72 113.461 383.202 114.553C383.597 114.851 383.992 115.148 384.487 115.446C385.573 116.141 386.858 116.439 388.143 116.439C390.317 116.439 392.293 115.545 393.577 114.056C395.158 112.567 395.653 110.88 395.455 109.093ZM349.803 94.7991L347.036 105.321C345.455 105.917 342.095 107.009 339.526 107.009C338.538 107.009 337.747 106.81 337.253 106.512C336.759 106.215 336.265 105.321 336.166 103.832C336.068 102.939 336.166 100.755 338.044 99.1668C340.712 96.8837 346.937 95.0969 349.803 94.7991ZM275.791 134.902C275.494 132.917 274.902 127.457 278.064 120.906C281.72 113.362 290.119 108.597 292.886 107.306C292.787 111.079 291.799 123.586 283.894 131.229C281.72 133.413 277.471 134.505 275.791 134.902Z" fill="white"/>
<path d="M151.482 45.266C149.605 44.4719 147.53 44.3726 145.652 44.8689C144.368 45.1667 142.293 46.0601 139.328 47.6483C136.858 48.9388 134.289 50.3285 131.818 51.7182C131.324 52.016 130.929 52.5123 130.732 53.1079C130.633 53.7035 130.732 54.2991 131.028 54.7954C135.376 61.5454 139.625 68.3946 143.577 75.1446C143.973 75.8395 144.664 76.2365 145.455 76.2365C145.85 76.2365 146.147 76.1373 146.542 75.9387C148.024 75.1446 149.407 74.3505 150.89 73.5564C151.384 73.2586 151.779 72.7623 151.977 72.266C152.174 71.6704 152.075 71.0748 151.779 70.5785C150.692 68.5932 149.506 66.7071 148.419 64.7218C148.716 64.5233 149.012 64.424 149.309 64.2255C151.68 63.0343 153.162 62.141 154.249 61.2476C155.139 60.4535 155.929 59.5601 156.621 58.3689C157.313 57.1777 157.609 55.8873 157.708 54.2991C157.708 52.8101 157.313 51.2219 156.423 49.5344C155.139 47.4498 153.459 46.0601 151.482 45.266ZM142.984 55.2917C144.565 54.3983 145.652 54.0013 146.048 53.8027C146.443 53.7035 146.739 53.6042 147.233 53.8027C147.332 53.8027 147.53 53.902 147.728 54.2991C147.826 54.4976 147.826 54.5969 147.925 54.7954C147.925 54.9939 147.826 55.1924 147.629 55.391C147.629 55.4902 147.135 55.8873 144.763 57.1777L144.368 57.3763C144.269 57.4755 144.17 57.4755 144.071 57.5748C143.676 56.8799 143.281 56.1851 142.787 55.4902C142.886 55.2917 142.886 55.2917 142.984 55.2917Z" fill="#A2600B"/>
<path d="M126.778 57.2772C125.988 56.4831 124.703 56.3838 123.814 57.0787C118.577 61.3471 113.438 65.814 108.498 70.3801C108.004 70.7772 107.806 71.3728 107.806 71.9684C107.806 72.564 108.004 73.1595 108.498 73.5566C114.229 79.1154 119.763 84.8728 125.099 90.6301C125.494 91.1264 126.087 91.325 126.68 91.325C127.174 91.325 127.668 91.1264 128.162 90.7294C129.348 89.6375 130.533 88.6448 131.818 87.5529C132.213 87.1558 132.51 86.6595 132.51 86.0639C132.51 85.4683 132.411 84.8728 132.016 84.4757C128.063 80.0088 124.012 75.7404 119.861 71.472C121.245 70.2809 122.628 69.0897 124.012 67.8985C128.063 72.2662 132.114 76.7331 135.968 81.2C136.759 82.0934 138.043 82.1926 139.031 81.4978C140.316 80.5051 141.502 79.4132 142.786 78.4206C143.28 78.0235 143.577 77.5272 143.577 76.9316C143.676 76.336 143.478 75.7404 143.083 75.3434C137.747 69.189 132.312 63.1338 126.778 57.2772Z" fill="#A2600B"/>
<path d="M290.909 60.4536C285.376 56.483 279.546 52.6117 273.716 48.8396C272.727 48.244 271.542 48.4426 270.85 49.3359C270.059 50.4279 269.17 51.5198 268.38 52.6117C267.984 53.108 267.886 53.7036 267.984 54.2992C268.083 54.8948 268.478 55.3911 268.972 55.7881C270.455 56.6815 271.937 57.6742 273.419 58.6668C269.862 63.4315 266.304 68.2955 263.044 73.0602C262.747 73.5565 262.55 74.1521 262.747 74.7477C262.846 75.3433 263.241 75.8396 263.735 76.1374C265.119 77.0308 266.502 77.9242 267.885 78.8175C268.281 79.1153 268.676 79.2146 269.071 79.2146C269.763 79.2146 270.455 78.9168 270.85 78.3212C274.21 73.5565 277.866 68.6925 281.522 64.0271C283.004 65.119 284.486 66.1117 285.968 67.2036C286.957 67.8984 288.241 67.6999 288.933 66.8065C289.822 65.7146 290.613 64.722 291.502 63.63C291.897 63.1337 292.095 62.5381 291.996 61.9426C291.7 61.347 291.304 60.8506 290.909 60.4536Z" fill="#A2600B"/>
<path d="M214.131 51.0236C214.032 45.167 214.032 39.3104 213.933 33.3545C213.933 32.1633 212.945 31.1707 211.759 31.1707C205.435 31.1707 199.111 31.2699 192.886 31.5677C192.293 31.5677 191.799 31.8655 191.403 32.2626C191.008 32.6597 190.81 33.2552 190.81 33.8508L190.909 36.3324C191.107 40.303 191.107 43.678 190.909 46.2589C190.81 48.1449 190.415 49.9317 189.822 51.5199C189.526 51.5199 189.229 51.5199 189.032 51.5199C188.735 51.5199 188.439 51.6192 188.241 51.7185C188.439 49.8324 188.241 47.8471 187.747 45.7626C186.561 41.3949 184.289 38.2185 180.83 36.3324C177.471 34.5457 173.419 34.1486 169.071 35.2405C166.7 35.9354 164.625 36.8288 163.044 38.0199C161.759 39.0126 160.573 40.2038 159.783 41.6927C158.992 43.1817 158.399 44.6707 158.202 46.2589C157.905 48.4427 158.202 50.7258 159.091 53.406C160.474 57.4758 162.846 60.4537 166.206 62.1412C169.467 63.8287 173.221 64.1265 177.273 63.0346C181.423 62.042 184.486 59.8582 186.463 56.781C186.759 56.3839 186.957 55.9868 187.154 55.5898L187.648 62.8361C187.747 64.0273 188.735 64.9207 189.822 64.9207C189.921 64.9207 189.921 64.9207 189.921 64.9207C191.304 64.8214 192.688 64.7221 194.071 64.7221C194.664 64.7221 195.158 64.4243 195.554 64.0273C195.949 63.531 196.146 63.0346 196.146 62.439L195.949 59.4611C199.803 59.3618 203.656 59.2626 207.51 59.1633V62.1412C207.51 63.3324 208.498 64.3251 209.684 64.3251C211.067 64.3251 212.451 64.3251 213.933 64.3251C214.526 64.3251 215.02 64.1265 215.514 63.7295C215.909 63.3324 216.107 62.7368 216.107 62.1412V53.0089C216.304 52.0163 215.316 51.0236 214.131 51.0236ZM168.478 50.6266C167.787 48.6413 167.787 47.053 168.38 45.9611C168.972 44.8692 169.961 44.1743 171.542 43.7773C172.135 43.5788 172.629 43.5788 173.222 43.5788C174.111 43.5788 174.901 43.7773 175.692 44.1744C176.878 44.8692 177.767 46.2589 178.261 48.2442C178.854 50.3288 178.854 51.917 178.162 53.1082C177.569 54.2001 176.581 54.9942 175.099 55.292C174.605 55.3913 174.111 55.4905 173.617 55.4905C172.727 55.4905 171.937 55.292 171.245 54.7957C170.059 54.0016 169.071 52.6118 168.478 50.6266ZM204.447 51.1229C202.965 51.1229 201.384 51.2221 199.803 51.2221C200.494 48.2442 200.692 44.3729 200.692 39.8067C201.878 39.8067 203.063 39.7074 204.348 39.7074C204.348 43.4795 204.447 47.3508 204.447 51.1229Z" fill="#A2600B"/>
<path d="M244.961 37.7222C244.763 37.0274 244.071 36.4318 243.38 36.2333C241.502 35.8362 239.625 35.4392 237.846 35.0421C237.055 34.8436 236.166 35.2406 235.672 35.8362C233.893 38.2186 232.115 40.6009 230.336 43.0825C229.644 40.3031 228.854 37.4244 227.965 34.3472C227.767 33.5531 227.075 32.9575 226.186 32.759C224.21 32.362 222.135 32.0642 220.158 31.7664C219.467 31.6671 218.676 31.9649 218.182 32.5605C217.688 33.1561 217.589 33.9502 217.787 34.7443C219.862 40.6009 221.838 46.3583 223.716 52.1156C223.32 52.7112 223.123 52.8105 223.123 52.8105C223.123 52.8105 223.024 52.9097 222.727 52.9097C222.431 52.9097 222.135 52.9097 221.937 52.8105L221.344 52.6119C220.949 52.5127 220.455 52.4134 219.961 52.3141C219.368 52.2149 218.775 52.3141 218.281 52.6119C217.787 52.9097 217.391 53.5053 217.293 54.0016C217.095 55.1928 216.799 56.384 216.601 57.5752C216.403 58.5678 216.996 59.6597 217.984 60.0568C218.972 60.4538 220.257 60.7516 221.838 61.0494C222.332 61.1487 222.826 61.2479 223.32 61.2479C224.803 61.2479 226.186 60.7516 227.47 59.9575C228.854 58.9649 230.138 57.5752 231.72 55.6891C235.87 50.4281 240.119 45.1671 244.565 40.0053C245.059 39.3105 245.158 38.5164 244.961 37.7222Z" fill="#A2600B"/>
<path d="M263.834 52.5126L264.525 52.8104C265.612 53.3067 266.897 52.9096 267.391 51.8177L268.972 48.6413C269.268 48.1449 269.268 47.4501 269.071 46.8545C268.873 46.2589 268.379 45.8619 267.786 45.5641L267.095 45.2663C264.723 44.2736 262.944 43.7773 261.363 43.7773C261.067 43.7773 260.869 43.7773 260.672 43.7773C258.794 43.9758 256.719 45.167 254.249 47.3508C254.15 47.4501 254.051 47.5494 253.952 47.6486C254.644 46.1596 255.336 44.6707 256.027 43.1817C256.324 42.6854 256.324 41.9905 256.027 41.3949C255.83 40.7994 255.336 40.4023 254.842 40.1045C253.162 39.4097 251.482 38.8141 249.802 38.1192C248.715 37.7222 247.529 38.2185 247.035 39.3104C243.774 46.5567 240.612 53.9023 237.549 61.3471C237.351 61.8435 237.351 62.5383 237.549 63.0346C237.846 63.531 238.241 64.0273 238.735 64.2258C240.316 64.8214 241.897 65.417 243.478 66.0126C244.565 66.4096 245.85 65.9133 246.245 64.8214C247.035 63.0346 247.826 61.1486 248.616 59.3618V59.4611C248.616 59.5604 248.616 59.6596 248.616 59.7589V59.9574V60.0567C248.715 62.3398 248.814 64.6229 248.913 66.8067C248.913 67.7001 249.506 68.3949 250.296 68.792C252.075 69.5861 253.952 70.2809 255.731 71.0751C256.027 71.1743 256.324 71.2736 256.62 71.2736C257.016 71.2736 257.51 71.1743 257.905 70.8765C258.498 70.4795 258.893 69.6854 258.794 68.9905C258.695 66.6082 258.498 64.1265 258.399 61.6449C258.3 59.5604 258.102 57.9721 257.707 56.6817C257.608 56.2846 257.51 55.9868 257.312 55.689C257.312 55.689 257.312 55.689 257.411 55.689C258.102 55.1927 258.893 54.5971 259.585 53.9023C260.77 52.7111 261.561 52.1155 261.857 51.917C262.055 51.8177 262.154 51.7185 262.351 51.7185C262.549 52.1155 262.944 52.1155 263.834 52.5126Z" fill="#A2600B"/>
<path d="M109.882 71.9686C114.823 67.5017 119.862 63.0347 125.198 58.7664C130.83 64.623 136.166 70.6781 141.305 76.7333C140.02 77.7259 138.736 78.8178 137.451 79.8105C133.103 74.748 128.657 69.7847 124.012 65.02C121.443 67.1046 118.973 69.2884 116.502 71.4722C121.245 76.2369 125.791 81.1009 130.238 86.0641C129.052 87.1561 127.767 88.1487 126.581 89.2406C121.245 83.2847 115.712 77.6267 109.882 71.9686ZM145.554 73.9539C141.502 67.1046 137.352 60.2553 133.004 53.5053C135.475 52.1156 137.945 50.8252 140.415 49.4355C143.281 47.9465 145.257 47.0531 146.245 46.8546C147.826 46.4576 149.309 46.5568 150.791 47.1524C152.273 47.748 153.558 48.8399 154.546 50.5274C155.238 51.8178 155.633 53.009 155.534 54.1009C155.534 55.1928 155.238 56.2848 154.743 57.1781C154.249 58.0715 153.657 58.7664 152.866 59.362C151.878 60.0568 150.396 61.0495 148.321 62.0421C147.332 62.5384 146.344 63.134 145.356 63.6303C146.937 66.2112 148.419 68.7921 149.902 71.4722C148.419 72.3656 147.036 73.1597 145.554 73.9539ZM139.724 54.498C140.909 56.4833 142.095 58.3693 143.281 60.3546C144.072 59.8583 144.961 59.4612 145.751 59.0642C147.53 58.0715 148.716 57.3767 149.21 56.8803C149.704 56.384 150 55.7884 150.099 55.0936C150.099 54.3987 150 53.8031 149.605 53.2075C149.111 52.4134 148.617 51.9171 147.728 51.7186C146.937 51.4208 146.147 51.5201 145.257 51.7186C144.664 51.9171 143.479 52.5127 141.799 53.3068C141.206 53.7039 140.415 54.1009 139.724 54.498ZM161.265 52.9098C160.475 50.6267 160.277 48.5421 160.475 46.7553C160.672 45.4649 161.068 44.1745 161.858 42.9833C162.55 41.7921 163.439 40.7995 164.526 40.0054C165.909 39.0127 167.688 38.2186 169.862 37.623C173.617 36.6304 177.075 36.9282 179.941 38.4171C182.807 40.0054 184.783 42.6855 185.771 46.4576C186.759 50.2296 186.364 53.3068 184.783 55.987C183.103 58.5678 180.534 60.3546 176.977 61.248C173.321 62.1414 170.158 61.9428 167.392 60.5531C164.427 59.0642 162.451 56.5825 161.265 52.9098ZM166.404 51.3215C167.194 53.9024 168.479 55.6892 170.158 56.6818C171.838 57.6745 173.716 57.873 175.692 57.3767C177.668 56.8803 179.151 55.7884 180.04 54.1009C180.929 52.4134 181.028 50.3289 180.336 47.6487C179.546 45.0679 178.36 43.1818 176.779 42.2884C175.099 41.2958 173.123 41.0973 171.048 41.5936C168.874 42.1892 167.392 43.2811 166.502 44.9686C165.514 46.5568 165.514 48.6414 166.404 51.3215ZM192.985 33.8509C199.21 33.5532 205.534 33.4539 211.759 33.4539C211.759 40.0054 211.759 46.6561 211.858 53.3068C212.649 53.3068 213.34 53.3068 214.131 53.3068C214.131 56.384 214.131 59.4612 214.131 62.5384C212.747 62.5384 211.364 62.5384 209.882 62.5384C209.882 60.8509 209.882 59.0642 209.882 57.3767C204.546 57.3767 199.21 57.4759 193.874 57.7737C193.973 59.4612 194.072 61.248 194.17 62.9355C192.787 63.0348 191.305 63.0347 189.921 63.134C189.724 60.0568 189.526 57.0789 189.328 54.0017C190.02 53.9024 190.811 53.9024 191.502 53.9024C192.392 51.8178 192.985 49.4355 193.182 46.7553C193.38 44.0752 193.38 40.7002 193.182 36.5311C193.083 35.5384 193.083 34.7443 192.985 33.8509ZM198.419 37.623C198.716 44.8693 198.123 50.1303 196.937 53.5053C200.198 53.4061 203.459 53.3068 206.72 53.3068C206.621 48.0458 206.522 42.7848 206.423 37.5237C203.755 37.5237 201.087 37.5237 198.419 37.623ZM219.862 33.9502C221.838 34.248 223.913 34.6451 225.89 34.9429C227.075 39.3105 228.261 43.7774 229.348 48.1451C231.917 44.4723 234.585 40.7995 237.352 37.1267C239.23 37.5237 241.008 37.9208 242.886 38.3179C238.439 43.4796 234.091 48.7406 229.941 54.1009C228.558 55.8877 227.372 57.0789 226.186 57.9723C225 58.7664 223.716 59.0642 222.234 58.7664C220.653 58.4686 219.566 58.1708 218.775 57.873C218.973 56.6818 219.269 55.4906 219.467 54.3987C220.158 54.5973 220.85 54.6965 221.443 54.7958C222.629 54.9943 223.518 54.9943 224.111 54.6965C224.704 54.3987 225.396 53.6046 226.186 52.4134C224.111 46.259 222.036 40.1046 219.862 33.9502ZM249.111 40.5017C250.791 41.0973 252.471 41.7921 254.151 42.487C252.668 45.5642 251.285 48.6414 249.902 51.7186C251.087 52.0164 251.878 52.1156 252.471 51.8178C253.064 51.5201 254.151 50.7259 255.83 49.1377C257.905 47.2517 259.684 46.1598 260.969 46.0605C262.253 45.9612 264.032 46.3583 266.305 47.3509C266.404 47.3509 266.7 47.4502 266.996 47.6487C266.502 48.7406 265.909 49.7333 265.415 50.8252C265.218 50.7259 264.921 50.6267 264.724 50.5274C263.736 50.1303 262.945 49.9318 262.352 49.9318C261.759 49.9318 261.265 50.1303 260.771 50.4281C260.277 50.7259 259.388 51.5201 258.202 52.7112C257.51 53.3068 256.917 53.8031 256.324 54.2002C255.732 54.5973 254.941 54.7958 253.854 54.895C254.842 55.5899 255.435 56.5825 255.732 57.6745C256.028 58.7664 256.226 60.3546 256.324 62.2406C256.423 64.623 256.621 67.1046 256.72 69.4869C254.941 68.6928 253.064 67.998 251.285 67.2039C251.186 64.9208 251.087 62.737 250.988 60.4539C250.988 60.3546 250.988 60.1561 250.89 59.8583C250.89 59.759 250.791 59.362 250.791 58.5678C250.692 57.2774 250.396 56.384 250.198 55.987C249.902 55.5899 249.407 55.1928 248.617 54.895C247.234 58.0715 245.751 61.248 244.467 64.5237C242.886 63.9281 241.305 63.3325 239.724 62.737C242.688 55.0936 245.85 47.748 249.111 40.5017ZM264.724 74.3509C268.479 68.8914 272.431 63.5311 276.483 58.1708C274.407 56.7811 272.234 55.3914 270.06 54.0017C270.85 52.9098 271.739 51.8178 272.53 50.7259C278.36 54.3987 284.091 58.27 289.625 62.2406C288.736 63.3325 287.945 64.3252 287.056 65.4171C284.981 63.9281 282.905 62.5384 280.83 61.0495C276.68 66.3105 272.728 71.6708 268.874 77.0311C267.49 76.1377 266.107 75.2443 264.724 74.3509Z" fill="white"/>
<path fill-rule="evenodd" clip-rule="evenodd" d="M132.411 289.457L137.055 280.821L134.19 280.424L137.055 275.759L139.625 277.148L144.961 269.207L142.49 267.817L147.826 259.479L135.277 260.571L134.19 262.755L132.411 261.663L127.075 269.902L128.854 270.994C128.854 270.994 123.913 278.538 123.518 279.233C117.49 290.251 132.411 289.457 132.411 289.457Z" fill="#A2600B"/>
<path fill-rule="evenodd" clip-rule="evenodd" d="M140.909 270.001L138.439 273.575L136.265 272.185C136.265 272.185 130.237 281.417 130.336 282.409C130.336 282.806 131.621 283.005 132.411 283.005L130.632 286.578C129.545 286.578 128.261 286.777 127.174 286.082C126.482 285.685 125.099 284.295 125.593 282.608C125.791 281.913 132.708 270.001 132.708 270.001L131.225 269.306L133.3 265.733L134.783 266.825L136.957 263.251L142.293 262.854L138.34 268.611L140.909 270.001Z" fill="white"/>
<path fill-rule="evenodd" clip-rule="evenodd" d="M183.103 286.38C181.324 288.564 180.336 291.74 180.336 295.413C180.04 298.689 180.336 301.865 181.621 304.446C182.806 306.928 184.882 308.814 188.34 309.012C189.921 309.112 191.107 308.318 192.589 307.623V309.012H198.716L201.087 277.049L191.799 276.354C191.799 276.354 191.502 281.02 191.502 283.501C188.142 282.409 184.882 283.898 183.103 286.38ZM188.538 298.193C188.735 298.987 189.229 299.284 189.625 299.284C190.02 299.284 190.316 298.887 190.712 298.193C191.107 297.696 191.107 294.917 191.107 293.726C191.107 293.13 190.316 292.435 189.921 292.435C189.526 292.435 189.032 292.733 188.834 293.527C188.735 293.825 188.34 297.498 188.538 298.193Z" fill="#A2600B"/>
<path fill-rule="evenodd" clip-rule="evenodd" d="M187.154 299.582C187.55 300.972 188.538 302.262 189.625 302.262C191.799 302.262 192.787 298.887 192.886 296.406C192.985 294.222 193.083 292.832 192.688 291.74C192.293 290.648 191.404 290.053 190.415 289.953C189.328 289.755 188.34 290.549 187.747 291.343C186.858 292.336 186.759 298.49 187.154 299.582ZM196.147 306.034H192.589L192.886 303.156C192.194 304.247 188.933 306.034 188.241 306.034C186.463 306.034 184.882 305.141 183.795 302.957C182.708 301.17 182.51 298.49 182.807 295.214C183.103 291.939 183.894 289.457 184.981 288.067C186.364 286.281 187.846 285.486 189.625 285.883C191.404 285.883 192.49 286.975 193.577 288.762L194.269 279.034L198.222 279.332L196.147 306.034Z" fill="white"/>
<path fill-rule="evenodd" clip-rule="evenodd" d="M224.308 298.788H223.913C223.913 294.817 223.913 290.549 221.739 286.976C220.257 284.494 217.095 282.707 214.229 282.707C206.72 282.608 204.249 290.648 204.249 296.406C203.953 302.56 206.423 310.005 214.328 310.005C216.502 310.005 218.577 309.31 220.356 307.821C222.925 305.24 223.617 301.965 224.308 298.788ZM212.846 298.788H216.008C216.107 301.965 212.55 301.667 212.846 298.788Z" fill="#A2600B"/>
<path fill-rule="evenodd" clip-rule="evenodd" d="M217.095 294.52C217.095 293.13 216.7 289.557 214.229 289.457C211.166 289.457 211.067 293.13 211.067 294.52H217.095ZM216.798 299.88L220.751 300.972C220.356 303.156 219.565 304.446 218.281 305.637C217.095 306.63 215.81 307.126 214.328 307.126C211.462 307.126 209.486 306.233 208.201 303.553C207.312 301.766 206.818 299.285 206.917 296.406C207.115 292.832 207.707 290.251 208.794 288.465C210.178 286.281 211.956 285.586 214.13 285.586C216.304 285.586 217.984 286.678 219.17 288.465C220.553 290.648 221.047 293.527 221.047 297.796H210.968C210.968 299.582 211.462 303.156 214.229 303.156C216.008 303.057 216.798 300.972 216.798 299.88Z" fill="white"/>
<path fill-rule="evenodd" clip-rule="evenodd" d="M245.356 277.248L244.565 275.759L238.834 278.637L249.704 301.567L257.115 298.292L250.791 284.395C250.791 284.395 250.099 283.005 250.988 282.509C251.68 282.112 252.273 283.799 252.273 283.799L258.597 297.597L265.218 294.619L259.19 280.722C259.19 280.722 258.301 279.332 259.19 278.935C259.98 278.637 260.376 279.928 260.376 279.928L266.799 293.626C269.269 292.534 271.739 291.442 274.309 290.351L267.49 276.056C266.7 274.27 266.008 272.88 264.921 271.788C263.834 270.696 262.747 269.703 260.969 269.306C258.103 268.612 254.15 270.001 253.063 273.277C249.803 272.284 246.739 273.873 245.257 277.148L245.356 277.248Z" fill="#A2600B"/>
<path fill-rule="evenodd" clip-rule="evenodd" d="M242.491 279.928L245.653 278.141L246.74 280.622C247.036 278.141 248.123 276.553 249.605 275.957C250.593 275.56 251.285 275.361 252.076 275.56C253.162 275.758 253.854 276.255 254.941 276.95C254.941 275.56 255.238 274.766 255.633 273.674C255.929 272.88 256.72 272.483 257.411 272.185C258.894 271.589 259.981 271.49 260.771 271.589C261.858 271.788 262.253 272.185 263.143 273.178C263.637 273.773 270.653 288.564 270.653 288.564L267.194 290.251L262.056 279.63C261.364 277.843 260.178 275.064 258.103 276.056C256.522 276.85 256.72 278.637 257.016 279.332C257.016 280.027 262.747 292.435 262.747 292.435L258.597 294.321C258.597 294.321 252.866 281.615 252.57 281.218C252.076 280.622 251.285 279.729 250.297 280.126C248.222 280.92 248.716 282.608 248.913 283.402C249.21 284.394 254.546 296.207 254.546 296.207L251.087 297.795L242.491 279.928Z" fill="white"/>
<path fill-rule="evenodd" clip-rule="evenodd" d="M296.64 252.034C295.85 251.041 297.727 249.155 299.111 248.758L294.763 242.306C294.763 242.306 293.676 242.207 292.984 242.306C290.119 242.604 287.648 244.887 287.648 247.666L286.957 246.972L282.708 251.637L300.988 269.108L307.411 262.258C307.411 262.457 299.111 254.913 296.64 252.034Z" fill="#A2600B"/>
<path fill-rule="evenodd" clip-rule="evenodd" d="M303.558 262.457L301.087 265.336L286.759 251.737L289.23 249.156L291.008 250.942C290.613 249.453 290.316 248.461 290.316 248.064C290.316 247.369 290.712 246.674 291.008 246.277C291.7 245.582 292.392 245.185 293.479 245.185L295.949 249.156C295.257 249.156 294.467 249.553 294.17 249.851C293.874 250.248 293.577 252.233 294.565 253.424C295.158 254.317 303.558 262.457 303.558 262.457Z" fill="white"/>
<path fill-rule="evenodd" clip-rule="evenodd" d="M292.589 228.409C290.81 230.99 289.526 233.273 287.648 235.953L314.229 254.516L319.565 246.972L318.083 245.88L319.861 246.277L323.419 241.611L321.64 237.343L309.782 234.861L305.435 223.049L299.012 232.777L292.589 228.409Z" fill="#A2600B"/>
<path fill-rule="evenodd" clip-rule="evenodd" d="M313.439 250.942L291.205 235.259L293.379 231.983L305.237 240.222L301.976 232.678L304.743 228.707L307.707 236.946L320.948 239.725L318.774 243.398L309.486 241.214L310.573 244.093L315.612 247.667L313.439 250.942Z" fill="white"/>
<path fill-rule="evenodd" clip-rule="evenodd" d="M289.625 277.645C290.02 278.042 290.317 278.34 290.712 278.737L293.874 276.553L297.036 274.369C295.257 273.277 293.479 272.185 291.996 270.796C290.218 268.314 288.439 265.038 286.562 262.557C285.079 260.373 284.388 258.983 283.004 257.891C281.621 257.196 280.139 256.799 278.755 256.799C276.977 256.799 275.198 257.593 273.419 258.586C271.641 260.075 270.356 261.266 269.566 263.946C269.071 267.222 269.961 270.101 271.443 272.88L274.605 271.093C274.605 271.093 274.21 271.888 274.111 272.185C273.716 273.277 273.716 274.071 273.815 274.667C274.111 276.454 274.704 277.546 275.396 278.935C276.483 280.722 278.162 282.509 279.743 282.906C281.917 283.501 284.783 283.204 286.562 281.814C288.241 280.821 289.328 279.432 289.625 277.645ZM283.202 271.193C283.202 271.193 282.016 271.788 281.819 272.781C281.621 273.674 282.115 274.27 282.51 274.468C283.4 274.865 284.19 273.674 283.894 272.582C283.795 272.185 283.202 271.193 283.202 271.193Z" fill="#A2600B"/>
<path fill-rule="evenodd" clip-rule="evenodd" d="M282.806 268.611C282.51 269.009 280.731 271.689 280.435 272.086C280.039 272.979 280.039 274.27 280.632 275.064C281.522 276.255 283.201 276.156 283.893 275.858C284.684 275.56 285.474 273.575 285.178 272.384C284.98 271.887 282.806 268.611 282.806 268.611ZM275.988 268.016L272.431 269.108C271.64 267.321 271.64 265.832 272.035 264.442C272.431 262.953 273.024 261.762 274.703 260.67C276.186 259.678 277.668 259.38 278.755 259.38C279.447 259.38 280.632 259.578 281.225 260.075C282.016 260.67 283.004 261.862 284.486 264.045C285.277 265.336 287.747 269.108 287.747 269.108C288.933 270.696 291.304 273.773 292.095 274.468L288.933 276.652C288.537 276.255 287.451 274.865 287.451 274.865C287.154 276.255 287.154 277.049 286.759 277.744C286.067 278.836 285.869 279.332 284.98 279.928C281.126 282.409 278.755 279.233 277.866 277.942C277.273 277.148 275.79 274.17 276.581 272.284C277.075 271.292 277.47 270.2 278.458 269.207C279.842 267.718 280.632 266.626 280.929 265.931C280.929 265.931 279.545 263.946 279.15 263.748C278.458 263.45 277.569 263.549 276.482 264.343C276.087 264.641 275.692 265.137 275.593 265.931C275.593 266.13 275.593 266.924 275.988 268.016Z" fill="white"/>
<path fill-rule="evenodd" clip-rule="evenodd" d="M166.206 304.347C166.107 304.843 166.107 305.339 166.008 305.836L169.664 307.027L173.32 308.119C173.024 306.034 172.727 303.95 172.925 301.964C173.716 298.986 175.099 295.512 175.89 292.534C176.68 290.053 177.273 288.564 177.273 286.777C176.976 285.189 176.285 283.898 175.395 282.806C174.308 281.416 172.629 280.424 170.652 279.729C168.38 279.233 166.7 279.034 164.032 280.027C161.166 281.714 159.486 284.196 158.202 287.075L161.561 288.464C161.561 288.464 160.672 288.663 160.376 288.762C159.289 289.159 158.696 289.655 158.301 290.152C157.115 291.541 156.621 292.633 155.929 294.023C155.237 296.008 154.941 298.391 155.633 299.88C156.621 301.964 158.498 303.95 160.771 304.446C162.846 305.24 164.625 305.24 166.206 304.347ZM167.194 295.314C167.194 295.314 166.008 294.817 165.119 295.214C164.328 295.611 164.131 296.306 164.229 296.803C164.526 297.795 165.909 297.597 166.601 296.703C166.799 296.405 167.194 295.314 167.194 295.314Z" fill="#A2600B"/>
<path fill-rule="evenodd" clip-rule="evenodd" d="M168.874 293.428C168.38 293.428 165.218 293.626 164.724 293.825C163.834 294.023 162.846 294.817 162.55 295.81C162.154 297.299 163.34 298.49 164.032 298.887C164.724 299.284 166.799 298.689 167.49 297.696C167.787 297.1 168.874 293.428 168.874 293.428ZM165.119 287.67L162.056 285.586C162.945 283.898 164.032 283.005 165.415 282.409C166.7 281.814 168.083 281.516 170.06 282.111C171.739 282.608 172.925 283.7 173.518 284.494C174.012 285.089 174.506 286.082 174.506 286.876C174.506 287.869 174.21 289.457 173.518 291.839C173.024 293.229 171.641 297.497 171.641 297.497C171.147 299.383 170.257 303.255 170.158 304.247L166.502 303.056C166.601 302.56 166.996 300.773 166.996 300.773C165.613 301.369 165.119 301.865 164.328 302.064C163.044 302.163 162.451 302.361 161.561 302.064C157.214 300.575 158.202 296.803 158.597 295.214C158.894 294.222 160.277 291.244 162.154 290.747C163.241 290.45 164.229 290.053 165.811 290.251C167.787 290.45 169.071 290.35 169.862 290.152C169.862 290.152 170.554 287.869 170.356 287.372C170.158 286.678 169.467 285.983 168.281 285.685C167.787 285.586 167.194 285.586 166.502 285.983C166.305 286.181 165.811 286.678 165.119 287.67Z" fill="white"/>
<path fill-rule="evenodd" clip-rule="evenodd" d="M150.593 283.799C151.285 282.707 153.656 283.898 154.447 285.189L159.19 279.034C159.19 279.034 158.894 277.942 158.597 277.347C157.411 274.667 154.546 273.078 151.779 273.972L152.174 273.079L146.443 270.498L135.573 293.428L144.071 297.398C144.071 297.299 148.617 286.976 150.593 283.799Z" fill="#A2600B"/>
<path fill-rule="evenodd" clip-rule="evenodd" d="M142.885 293.626L139.328 292.137L147.727 274.17L150.889 275.759L149.802 278.042C151.087 277.248 151.976 276.553 152.273 276.453C152.964 276.156 153.755 276.354 154.15 276.553C155.039 277.049 155.632 277.545 155.929 278.637L152.964 282.31C152.767 281.615 152.174 281.02 151.68 280.821C151.186 280.623 149.209 281.02 148.419 282.31C148.024 283.104 142.885 293.626 142.885 293.626Z" fill="white"/>
</svg>
